G04 #@! TF.FileFunction,Copper,L2,Bot,Signal*
%FSLAX46Y46*%
G04 Gerber Fmt 4.6, Leading zero omitted, Abs format (unit mm)*
G04 Created by KiCad (PCBNEW (2015-11-03 BZR 6296)-product) date Friday, November 27, 2015 'PMt' 12:34:22 PM*
%MOMM*%
G01*
G04 APERTURE LIST*
%ADD10C,0.100000*%
%ADD11R,0.660000X0.230000*%
%ADD12R,0.660000X0.350000*%
%ADD13R,1.200000X0.750000*%
%ADD14R,0.750000X0.300000*%
%ADD15R,0.875000X0.725000*%
%ADD16R,1.200000X0.900000*%
%ADD17C,1.524000*%
%ADD18R,1.727200X2.032000*%
%ADD19O,1.727200X2.032000*%
%ADD20R,1.727200X1.727200*%
%ADD21O,1.727200X1.727200*%
%ADD22C,0.685800*%
%ADD23C,0.685801*%
%ADD24C,0.203200*%
%ADD25C,0.152400*%
%ADD26C,0.254000*%
%ADD27C,0.812800*%
G04 APERTURE END LIST*
D10*
D11*
X161005000Y-115800000D03*
X158295000Y-115800000D03*
X161005000Y-100200000D03*
X158295000Y-100200000D03*
X161005000Y-115400000D03*
X161005000Y-115000000D03*
X161005000Y-114600000D03*
X161005000Y-114200000D03*
X161005000Y-113800000D03*
X161005000Y-113400000D03*
X161005000Y-113000000D03*
X161005000Y-112600000D03*
X161005000Y-112200000D03*
X161005000Y-111800000D03*
X161005000Y-111400000D03*
X161005000Y-111000000D03*
X161005000Y-110600000D03*
X161005000Y-110200000D03*
X161005000Y-109800000D03*
X161005000Y-109400000D03*
X161005000Y-109000000D03*
X161005000Y-108600000D03*
X161005000Y-108200000D03*
X161005000Y-107800000D03*
X161005000Y-107400000D03*
X161005000Y-107000000D03*
X161005000Y-106600000D03*
X161005000Y-106200000D03*
X161005000Y-105800000D03*
X161005000Y-105400000D03*
X161005000Y-105000000D03*
X161005000Y-104600000D03*
X161005000Y-104200000D03*
X161005000Y-103800000D03*
X161005000Y-103400000D03*
X161005000Y-103000000D03*
X161005000Y-102600000D03*
X161005000Y-102200000D03*
X161005000Y-101800000D03*
X161005000Y-101400000D03*
X161005000Y-101000000D03*
X161005000Y-100600000D03*
D12*
X161005000Y-99725000D03*
X158295000Y-99725000D03*
X161005000Y-116275000D03*
X158295000Y-116275000D03*
D11*
X158295000Y-100600000D03*
X158295000Y-101000000D03*
X158295000Y-101400000D03*
X158295000Y-101800000D03*
X158295000Y-102200000D03*
X158295000Y-102600000D03*
X158295000Y-103000000D03*
X158295000Y-103400000D03*
X158295000Y-103800000D03*
X158295000Y-104200000D03*
X158295000Y-104600000D03*
X158295000Y-105000000D03*
X158295000Y-105400000D03*
X158295000Y-105800000D03*
X158295000Y-106200000D03*
X158295000Y-106600000D03*
X158295000Y-107000000D03*
X158295000Y-107400000D03*
X158295000Y-107800000D03*
X158295000Y-108200000D03*
X158295000Y-108600000D03*
X158295000Y-109000000D03*
X158295000Y-109400000D03*
X158295000Y-109800000D03*
X158295000Y-110200000D03*
X158295000Y-110600000D03*
X158295000Y-111000000D03*
X158295000Y-111400000D03*
X158295000Y-111800000D03*
X158295000Y-112200000D03*
X158295000Y-112600000D03*
X158295000Y-113000000D03*
X158295000Y-113400000D03*
X158295000Y-113800000D03*
X158295000Y-114200000D03*
X158295000Y-114600000D03*
X158295000Y-115000000D03*
X158295000Y-115400000D03*
D13*
X156250000Y-95900000D03*
X158150000Y-95900000D03*
D14*
X158712500Y-92862500D03*
X158712500Y-93362500D03*
X158712500Y-93862500D03*
X158712500Y-94362500D03*
X155812500Y-94362500D03*
X155812500Y-93862500D03*
X155812500Y-93362500D03*
X155812500Y-92862500D03*
D15*
X156825000Y-93975000D03*
X156825000Y-93250000D03*
X157700000Y-93975000D03*
X157700000Y-93250000D03*
D16*
X156550000Y-91200000D03*
X154350000Y-91200000D03*
D17*
X158550000Y-91250000D03*
D18*
X156972000Y-124663200D03*
D19*
X154432000Y-124663200D03*
X151892000Y-124663200D03*
X149352000Y-124663200D03*
X146812000Y-124663200D03*
X144272000Y-124663200D03*
X141732000Y-124663200D03*
X139192000Y-124663200D03*
D18*
X138684000Y-91440000D03*
D19*
X141224000Y-91440000D03*
X143764000Y-91440000D03*
X146304000Y-91440000D03*
X148844000Y-91440000D03*
X151384000Y-91440000D03*
D20*
X120396000Y-120396000D03*
D21*
X117856000Y-120396000D03*
X120396000Y-117856000D03*
X117856000Y-117856000D03*
X120396000Y-115316000D03*
X117856000Y-115316000D03*
X120396000Y-112776000D03*
X117856000Y-112776000D03*
X120396000Y-110236000D03*
X117856000Y-110236000D03*
X120396000Y-107696000D03*
X117856000Y-107696000D03*
X120396000Y-105156000D03*
X117856000Y-105156000D03*
X120396000Y-102616000D03*
X117856000Y-102616000D03*
X120396000Y-100076000D03*
X117856000Y-100076000D03*
X120396000Y-97536000D03*
X117856000Y-97536000D03*
X120396000Y-94996000D03*
X117856000Y-94996000D03*
D20*
X184404000Y-94183200D03*
D21*
X186944000Y-94183200D03*
X184404000Y-96723200D03*
X186944000Y-96723200D03*
X184404000Y-99263200D03*
X186944000Y-99263200D03*
X184404000Y-101803200D03*
X186944000Y-101803200D03*
X184404000Y-104343200D03*
X186944000Y-104343200D03*
X184404000Y-106883200D03*
X186944000Y-106883200D03*
X184404000Y-109423200D03*
X186944000Y-109423200D03*
X184404000Y-111963200D03*
X186944000Y-111963200D03*
X184404000Y-114503200D03*
X186944000Y-114503200D03*
X184404000Y-117043200D03*
X186944000Y-117043200D03*
X184404000Y-119583200D03*
X186944000Y-119583200D03*
X184404000Y-122123200D03*
X186944000Y-122123200D03*
D20*
X168402000Y-93726000D03*
D21*
X168402000Y-91186000D03*
X170942000Y-93726000D03*
X170942000Y-91186000D03*
X173482000Y-93726000D03*
X173482000Y-91186000D03*
D20*
X173736000Y-122224800D03*
D21*
X173736000Y-124764800D03*
X171196000Y-122224800D03*
X171196000Y-124764800D03*
X168656000Y-122224800D03*
X168656000Y-124764800D03*
D16*
X149100000Y-108000000D03*
X146900000Y-108000000D03*
X149080400Y-105000000D03*
X146880400Y-105000000D03*
X149113600Y-102000000D03*
X146913600Y-102000000D03*
D22*
X142310000Y-106500000D03*
X146950000Y-106520000D03*
X162883962Y-97548669D03*
X162500000Y-95300000D03*
X140830000Y-115920000D03*
X144450000Y-117150000D03*
X163934065Y-95215229D03*
D23*
X163830000Y-109270810D03*
X164058208Y-106967980D03*
X162579214Y-106491109D03*
X162993938Y-107218712D03*
X162237982Y-107581100D03*
X162237982Y-108419301D03*
X162993938Y-108781689D03*
X162579214Y-109509292D03*
D22*
X160500000Y-95450000D03*
X157300000Y-95000000D03*
X146540000Y-103924120D03*
X142200000Y-103920000D03*
X159100000Y-98150000D03*
X159950000Y-93400000D03*
X151790989Y-103434136D03*
X154500000Y-92950000D03*
X124800000Y-106320000D03*
X124000000Y-122100000D03*
D23*
X155589805Y-105471395D03*
D22*
X154325068Y-92130246D03*
X160303087Y-96914049D03*
X157300000Y-97100000D03*
X156750000Y-92200000D03*
X154650000Y-94900000D03*
X145413264Y-103516540D03*
X142940000Y-103434136D03*
X160729126Y-94320874D03*
D23*
X153919056Y-100000853D03*
D22*
X153454202Y-114590804D03*
D23*
X155299763Y-113793840D03*
X153873962Y-113412043D03*
X155727610Y-112671825D03*
X154026245Y-112218220D03*
X156055702Y-111531180D03*
X154490505Y-110989682D03*
X156402417Y-110392762D03*
D22*
X125920002Y-110540000D03*
D23*
X155871011Y-109744529D03*
X156179061Y-107808048D03*
D22*
X127000000Y-122100000D03*
D23*
X157062650Y-107581100D03*
X157062650Y-108419301D03*
X156306694Y-108781689D03*
X156721418Y-109509292D03*
X156320021Y-106910513D03*
D22*
X121770000Y-106520000D03*
X122260000Y-121710000D03*
D23*
X154838400Y-106070400D03*
X155714769Y-103348701D03*
X154929039Y-102987157D03*
X155283703Y-102227594D03*
X154326150Y-101630674D03*
X154699335Y-100880119D03*
X153217991Y-100462585D03*
X158255617Y-116945501D03*
X157265015Y-116147324D03*
X156788823Y-116834445D03*
X156134258Y-116308281D03*
X155690000Y-117460000D03*
D22*
X154460000Y-116690000D03*
D23*
X153760535Y-115922029D03*
X154990539Y-114935795D03*
X161922704Y-99740163D03*
X161045015Y-99054899D03*
X164613234Y-99375544D03*
X163537072Y-99587501D03*
X166149021Y-100034791D03*
X165355304Y-99765326D03*
X164717783Y-101354066D03*
X167270000Y-100060000D03*
X163947803Y-102261178D03*
X166928017Y-101406575D03*
X163595710Y-103398884D03*
X166435862Y-102786775D03*
X163227869Y-104534203D03*
X165967464Y-103952211D03*
X162889081Y-105673578D03*
X165504369Y-105122998D03*
X165294930Y-110778593D03*
X162897007Y-110372718D03*
X165553567Y-111972414D03*
X163236900Y-111514984D03*
X165830406Y-113166235D03*
X163635195Y-112660600D03*
D22*
X166458926Y-114417146D03*
D23*
X163948994Y-113820226D03*
X165800275Y-115577507D03*
X164288019Y-114961441D03*
X163996455Y-116715567D03*
D22*
X165499652Y-116359956D03*
D23*
X162453803Y-116868232D03*
X163178105Y-116446349D03*
X161045015Y-116945501D03*
X162033213Y-116143179D03*
X158255617Y-99054899D03*
X156653893Y-99385946D03*
X154801664Y-98798319D03*
X153817718Y-98797108D03*
D22*
X153124797Y-99268763D03*
D24*
X118719599Y-106019599D02*
X117856000Y-105156000D01*
X119200000Y-106500000D02*
X118719599Y-106019599D01*
X120906584Y-106500000D02*
X119200000Y-106500000D01*
X121683485Y-105723099D02*
X120906584Y-106500000D01*
X141533099Y-105723099D02*
X121683485Y-105723099D01*
X142310000Y-106500000D02*
X141533099Y-105723099D01*
X147853200Y-106100000D02*
X147370000Y-106100000D01*
X147370000Y-106100000D02*
X146950000Y-106520000D01*
X149100000Y-108000000D02*
X149100000Y-107346800D01*
X149100000Y-107346800D02*
X147853200Y-106100000D01*
X158295000Y-105800000D02*
X157219783Y-105800000D01*
X157219783Y-105800000D02*
X157131005Y-105711222D01*
X157131005Y-105711222D02*
X156673804Y-105711222D01*
X153202096Y-104800422D02*
X151424119Y-106578399D01*
X156673804Y-105711222D02*
X155763005Y-104800422D01*
X155763005Y-104800422D02*
X153202096Y-104800422D01*
X151424119Y-106578399D02*
X149868401Y-106578399D01*
X149868401Y-106578399D02*
X149100000Y-107346800D01*
D25*
X161578663Y-98108129D02*
X161941921Y-97744871D01*
X162399029Y-97744871D02*
X162883962Y-97744871D01*
X158295000Y-105800000D02*
X159531067Y-105800000D01*
X161941921Y-97744871D02*
X162399029Y-97744871D01*
X160460804Y-98108129D02*
X161578663Y-98108129D01*
X162883962Y-97744871D02*
X162883962Y-97548669D01*
X159531067Y-105800000D02*
X159945189Y-105385878D01*
X159945189Y-98623744D02*
X160460804Y-98108129D01*
X159945189Y-105385878D02*
X159945189Y-98623744D01*
X162500000Y-94815067D02*
X162500000Y-95300000D01*
X159239900Y-92560100D02*
X160445033Y-92560100D01*
X158937500Y-92862500D02*
X159239900Y-92560100D01*
X160445033Y-92560100D02*
X162500000Y-94615067D01*
X158712500Y-92862500D02*
X158937500Y-92862500D01*
X162500000Y-94615067D02*
X162500000Y-94815067D01*
X163479811Y-98120189D02*
X163479811Y-95669483D01*
X163479811Y-95669483D02*
X163934065Y-95215229D01*
D26*
X144210000Y-106164000D02*
X144210000Y-105000000D01*
X146026400Y-105000000D02*
X144210000Y-105000000D01*
X144210000Y-105000000D02*
X144210000Y-103330000D01*
X146880400Y-105000000D02*
X146026400Y-105000000D01*
X144210000Y-103330000D02*
X145540000Y-102000000D01*
X145540000Y-102000000D02*
X146913600Y-102000000D01*
X146900000Y-108000000D02*
X146046000Y-108000000D01*
X146046000Y-108000000D02*
X144210000Y-106164000D01*
X144450000Y-117150000D02*
X146900000Y-114700000D01*
X146900000Y-114700000D02*
X146900000Y-108000000D01*
X144450000Y-117150000D02*
X142060000Y-117150000D01*
X142060000Y-117150000D02*
X140830000Y-115920000D01*
X159680000Y-117070000D02*
X159680000Y-109410000D01*
X159680000Y-109410000D02*
X159680000Y-109070000D01*
D25*
X161005000Y-109400000D02*
X159690000Y-109400000D01*
X159690000Y-109400000D02*
X159680000Y-109410000D01*
D26*
X159680000Y-109070000D02*
X159680000Y-108640000D01*
D25*
X161005000Y-109000000D02*
X159750000Y-109000000D01*
X159750000Y-109000000D02*
X159680000Y-109070000D01*
D26*
X159680000Y-108640000D02*
X159680000Y-108220000D01*
D25*
X161005000Y-108600000D02*
X159720000Y-108600000D01*
X159720000Y-108600000D02*
X159680000Y-108640000D01*
D26*
X159680000Y-108220000D02*
X159680000Y-107850000D01*
D25*
X161005000Y-108200000D02*
X159700000Y-108200000D01*
X159700000Y-108200000D02*
X159680000Y-108220000D01*
D26*
X159680000Y-107850000D02*
X159680000Y-107400000D01*
D25*
X161005000Y-107800000D02*
X159730000Y-107800000D01*
X159730000Y-107800000D02*
X159680000Y-107850000D01*
D26*
X159680000Y-107400000D02*
X159680000Y-106780000D01*
D25*
X161005000Y-107400000D02*
X159680000Y-107400000D01*
X161005000Y-107000000D02*
X160522600Y-107000000D01*
X160522600Y-107000000D02*
X160302600Y-106780000D01*
X160302600Y-106780000D02*
X159680000Y-106780000D01*
X161005000Y-106600000D02*
X160522600Y-106600000D01*
X160522600Y-106600000D02*
X160342600Y-106780000D01*
X160342600Y-106780000D02*
X159680000Y-106780000D01*
D26*
X158320000Y-118430000D02*
X159680000Y-117070000D01*
X157147922Y-118430000D02*
X158320000Y-118430000D01*
X145730000Y-118430000D02*
X157147922Y-118430000D01*
X144450000Y-117150000D02*
X145730000Y-118430000D01*
D25*
X163750000Y-95372495D02*
X163907266Y-95215229D01*
X163750000Y-95450000D02*
X163750000Y-95372495D01*
X163907266Y-95215229D02*
X163934065Y-95215229D01*
X161997670Y-98120189D02*
X163479811Y-98120189D01*
X161692870Y-98424989D02*
X161997670Y-98120189D01*
X160829103Y-98424989D02*
X161692870Y-98424989D01*
X160250000Y-99004092D02*
X160829103Y-98424989D01*
X160522600Y-106600000D02*
X160250000Y-106327400D01*
X160250000Y-106327400D02*
X160250000Y-99004092D01*
X163345067Y-109270810D02*
X163830000Y-109270810D01*
X161295907Y-109270810D02*
X163345067Y-109270810D01*
X161190316Y-109376401D02*
X161295907Y-109270810D01*
X161190316Y-106624000D02*
X163714228Y-106624000D01*
X163714228Y-106624000D02*
X163715309Y-106625081D01*
X163715309Y-106625081D02*
X164058208Y-106967980D01*
D27*
X184404000Y-106883200D02*
X184404000Y-109423200D01*
D25*
X161190316Y-107024000D02*
X161540316Y-107024000D01*
X161540316Y-107024000D02*
X162406505Y-106287883D01*
X162406505Y-106287883D02*
X162579214Y-106491109D01*
X161190316Y-107424000D02*
X161540316Y-107424000D01*
X161540316Y-107424000D02*
X162119760Y-106931569D01*
X162119760Y-106931569D02*
X162408598Y-107036104D01*
X162408598Y-107036104D02*
X162993938Y-107218712D01*
X161190316Y-107824000D02*
X161540316Y-107824000D01*
X161540316Y-107824000D02*
X162065274Y-107377873D01*
X162065274Y-107377873D02*
X162237982Y-107581100D01*
X161190316Y-108176401D02*
X161540316Y-108176401D01*
X161540316Y-108176401D02*
X162065274Y-108622527D01*
X162065274Y-108622527D02*
X162237982Y-108419301D01*
X161190316Y-108576401D02*
X161540316Y-108576401D01*
X161540316Y-108576401D02*
X162119760Y-109068832D01*
X162119760Y-109068832D02*
X162408598Y-108964297D01*
X162408598Y-108964297D02*
X162993938Y-108781689D01*
X161190316Y-108976401D02*
X161540316Y-108976401D01*
X161540316Y-108976401D02*
X162406505Y-109712518D01*
X162406505Y-109712518D02*
X162579214Y-109509292D01*
X160500000Y-95450000D02*
X160050000Y-95900000D01*
X160050000Y-95900000D02*
X158150000Y-95900000D01*
X160500000Y-95450000D02*
X159497600Y-95450000D01*
X159497600Y-95450000D02*
X158712500Y-94664900D01*
X158712500Y-94664900D02*
X158712500Y-94362500D01*
X157300000Y-95000000D02*
X158377400Y-95000000D01*
X158377400Y-95000000D02*
X158712500Y-94664900D01*
X157300000Y-95000000D02*
X157300000Y-95050000D01*
X157300000Y-95050000D02*
X158150000Y-95900000D01*
D24*
X155766706Y-104301215D02*
X153198395Y-104301215D01*
X158295000Y-105400000D02*
X157322692Y-105400000D01*
X157322692Y-105400000D02*
X157278303Y-105355611D01*
X151581610Y-105918000D02*
X150000000Y-105918000D01*
X150000000Y-105918000D02*
X148982000Y-104900000D01*
X157278303Y-105355611D02*
X156821102Y-105355611D01*
X156821102Y-105355611D02*
X155766706Y-104301215D01*
X153198395Y-104301215D02*
X151581610Y-105918000D01*
X147854520Y-103924120D02*
X147024933Y-103924120D01*
X147024933Y-103924120D02*
X146540000Y-103924120D01*
X149080400Y-105000000D02*
X148930400Y-105000000D01*
X148930400Y-105000000D02*
X147854520Y-103924120D01*
X142200000Y-103920000D02*
X121700000Y-103920000D01*
X121700000Y-103920000D02*
X121259599Y-103479599D01*
X121259599Y-103479599D02*
X120396000Y-102616000D01*
D25*
X149230400Y-105000000D02*
X149080400Y-105000000D01*
X158808467Y-105400000D02*
X159300000Y-104908467D01*
X158295000Y-105400000D02*
X158808467Y-105400000D01*
X160228028Y-93749372D02*
X159927400Y-94050000D01*
X159589348Y-98950000D02*
X159589348Y-98548519D01*
X161003448Y-93749372D02*
X160228028Y-93749372D01*
X161376312Y-97163035D02*
X161376312Y-94122236D01*
X161376312Y-94122236D02*
X161003448Y-93749372D01*
X160748967Y-97790380D02*
X161376312Y-97163035D01*
X159589348Y-98548519D02*
X160347487Y-97790380D01*
X160347487Y-97790380D02*
X160748967Y-97790380D01*
X159589348Y-98639348D02*
X159100000Y-98150000D01*
X159300000Y-99239348D02*
X159589348Y-98950000D01*
X159589348Y-98950000D02*
X159589348Y-98639348D01*
X159300000Y-104908467D02*
X159300000Y-99239348D01*
X159950000Y-94027400D02*
X159927400Y-94050000D01*
X159950000Y-93400000D02*
X159950000Y-94027400D01*
X159927400Y-94050000D02*
X159239900Y-93362500D01*
X159239900Y-93362500D02*
X158712500Y-93362500D01*
X154500000Y-92950000D02*
X151790989Y-95659011D01*
X151790989Y-102949203D02*
X151790989Y-103434136D01*
X151790989Y-95659011D02*
X151790989Y-102949203D01*
X124800000Y-106804933D02*
X124800000Y-106320000D01*
X124800000Y-121300000D02*
X124800000Y-106804933D01*
X124000000Y-122100000D02*
X124800000Y-121300000D01*
X156537027Y-106041433D02*
X155956395Y-105460800D01*
X155600400Y-105460800D02*
X155589805Y-105471395D01*
X157176795Y-106224000D02*
X156994228Y-106041433D01*
X156994228Y-106041433D02*
X156537027Y-106041433D01*
X158110316Y-106224000D02*
X157176795Y-106224000D01*
X155956395Y-105460800D02*
X155600400Y-105460800D01*
X154350000Y-92105314D02*
X154325068Y-92130246D01*
X154350000Y-91200000D02*
X154350000Y-92105314D01*
X157300000Y-97100000D02*
X160117136Y-97100000D01*
X160117136Y-97100000D02*
X160303087Y-96914049D01*
X156250000Y-96050000D02*
X156250000Y-95900000D01*
X157300000Y-97100000D02*
X156250000Y-96050000D01*
X156750000Y-92200000D02*
X156475000Y-92200000D01*
X156475000Y-92200000D02*
X155812500Y-92862500D01*
X156250000Y-95900000D02*
X156025000Y-95900000D01*
X155025000Y-94900000D02*
X154650000Y-94900000D01*
X156025000Y-95900000D02*
X155025000Y-94900000D01*
D24*
X120932449Y-101498399D02*
X122761250Y-103327200D01*
X142597101Y-103091237D02*
X142940000Y-103434136D01*
X141909386Y-103327200D02*
X142145349Y-103091237D01*
X117856000Y-102616000D02*
X118973601Y-101498399D01*
X142145349Y-103091237D02*
X142597101Y-103091237D01*
X122761250Y-103327200D02*
X141909386Y-103327200D01*
X146087537Y-103327200D02*
X145898197Y-103516540D01*
X155914004Y-103945604D02*
X152162935Y-103945604D01*
X118973601Y-101498399D02*
X120932449Y-101498399D01*
X152162935Y-103945604D02*
X152077502Y-104031037D01*
X150000000Y-103327200D02*
X146087537Y-103327200D01*
X156968400Y-105000000D02*
X155914004Y-103945604D01*
X152077502Y-104031037D02*
X150703837Y-104031037D01*
X158295000Y-105000000D02*
X156968400Y-105000000D01*
X150703837Y-104031037D02*
X150000000Y-103327200D01*
X145898197Y-103516540D02*
X145413264Y-103516540D01*
D25*
X150000000Y-103327200D02*
X150000000Y-102736400D01*
X150000000Y-102736400D02*
X149263600Y-102000000D01*
X149263600Y-102000000D02*
X149113600Y-102000000D01*
X158295000Y-105000000D02*
X158777400Y-105000000D01*
X158777400Y-105000000D02*
X158950000Y-104827400D01*
X161071501Y-97036738D02*
X161071501Y-95175679D01*
X158528498Y-98474322D02*
X158528498Y-97875678D01*
X161071501Y-95175679D02*
X160745822Y-94850000D01*
X160745822Y-94850000D02*
X160227400Y-94850000D01*
X160622670Y-97485569D02*
X161071501Y-97036738D01*
X158950000Y-104827400D02*
X158950000Y-98895824D01*
X158528498Y-97875678D02*
X158918607Y-97485569D01*
X158918607Y-97485569D02*
X160622670Y-97485569D01*
X158950000Y-98895824D02*
X158528498Y-98474322D01*
X160227400Y-94850000D02*
X160227400Y-94822600D01*
X160227400Y-94822600D02*
X160386227Y-94663773D01*
X160386227Y-94663773D02*
X160729126Y-94320874D01*
X160227400Y-94850000D02*
X159239900Y-93862500D01*
X159239900Y-93862500D02*
X158712500Y-93862500D01*
X156400000Y-91200000D02*
X156550000Y-91200000D01*
X155812500Y-93362500D02*
X155285100Y-93362500D01*
X155208899Y-93286299D02*
X155208899Y-92391101D01*
X155208899Y-92391101D02*
X156400000Y-91200000D01*
X155285100Y-93362500D02*
X155208899Y-93286299D01*
X156550000Y-91200000D02*
X158500000Y-91200000D01*
X158500000Y-91200000D02*
X158550000Y-91250000D01*
X156390186Y-100875935D02*
X156042560Y-100875935D01*
X154404601Y-100001465D02*
X154403989Y-100000853D01*
X157738251Y-102224000D02*
X156390186Y-100875935D01*
X156042560Y-100875935D02*
X155878088Y-100711463D01*
X155807569Y-100711463D02*
X155097571Y-100001465D01*
X155097571Y-100001465D02*
X154404601Y-100001465D01*
X155878088Y-100711463D02*
X155807569Y-100711463D01*
X158110316Y-102224000D02*
X157738251Y-102224000D01*
X154403989Y-100000853D02*
X153919056Y-100000853D01*
X157853516Y-112576401D02*
X157410939Y-113018977D01*
X155264862Y-114364293D02*
X154165646Y-114364293D01*
X157254416Y-113006272D02*
X155476108Y-114517536D01*
X155476108Y-114517536D02*
X155471259Y-114517536D01*
X158110316Y-112576401D02*
X157853516Y-112576401D01*
X154165646Y-114364293D02*
X153939135Y-114590804D01*
X155387956Y-114487387D02*
X155264862Y-114364293D01*
X153939135Y-114590804D02*
X153454202Y-114590804D01*
X157410939Y-113018977D02*
X157254416Y-113006272D01*
X155471259Y-114517536D02*
X155387956Y-114487387D01*
X157295089Y-112703760D02*
X157153236Y-112692246D01*
X158110316Y-112176401D02*
X157822450Y-112176401D01*
X157153236Y-112692246D02*
X155856987Y-113793840D01*
X157822450Y-112176401D02*
X157727259Y-112271591D01*
X155784696Y-113793840D02*
X155299763Y-113793840D01*
X157727259Y-112271591D02*
X157295089Y-112703760D01*
X155856987Y-113793840D02*
X155784696Y-113793840D01*
X154358895Y-113412043D02*
X153873962Y-113412043D01*
X155574086Y-113222338D02*
X154548600Y-113222338D01*
X155815841Y-113428795D02*
X155780543Y-113428795D01*
X156984839Y-112435343D02*
X155815841Y-113428795D01*
X157791382Y-111776401D02*
X157179238Y-112388544D01*
X157052054Y-112378221D02*
X156984839Y-112435343D01*
X155780543Y-113428795D02*
X155574086Y-113222338D01*
X157179238Y-112388544D02*
X157052054Y-112378221D01*
X158110316Y-111776401D02*
X157791382Y-111776401D01*
X154548600Y-113222338D02*
X154358895Y-113412043D01*
X156950873Y-112064196D02*
X156841404Y-112157227D01*
X157760316Y-111376401D02*
X157665125Y-111471591D01*
X156212543Y-112671825D02*
X155727610Y-112671825D01*
X157063388Y-112073328D02*
X156950873Y-112064196D01*
X156841404Y-112157227D02*
X156235874Y-112671825D01*
X156235874Y-112671825D02*
X156212543Y-112671825D01*
X158110316Y-111376401D02*
X157760316Y-111376401D01*
X157665125Y-111471591D02*
X157063388Y-112073328D01*
X156849690Y-111750172D02*
X156780549Y-111808931D01*
X156947536Y-111758113D02*
X156849690Y-111750172D01*
X154144142Y-112100323D02*
X154026245Y-112218220D01*
X156001933Y-112100323D02*
X154144142Y-112100323D01*
X156780549Y-111808931D02*
X156202113Y-112300503D01*
X156202113Y-112300503D02*
X156001933Y-112100323D01*
X157729248Y-110976401D02*
X156947536Y-111758113D01*
X158110316Y-110976401D02*
X157729248Y-110976401D01*
X156831684Y-111442897D02*
X156628918Y-111442897D01*
X156540635Y-111531180D02*
X156055702Y-111531180D01*
X158110316Y-110576401D02*
X157698180Y-110576401D01*
X157698180Y-110576401D02*
X156831684Y-111442897D01*
X156628918Y-111442897D02*
X156540635Y-111531180D01*
X155818228Y-110646783D02*
X154833404Y-110646783D01*
X156329881Y-110959822D02*
X156131267Y-110959822D01*
X156131267Y-110959822D02*
X155818228Y-110646783D01*
X156721393Y-111122123D02*
X156492182Y-111122123D01*
X157667115Y-110176401D02*
X156721393Y-111122123D01*
X154833404Y-110646783D02*
X154490505Y-110989682D01*
X156492182Y-111122123D02*
X156329881Y-110959822D01*
X158110316Y-110176401D02*
X157667115Y-110176401D01*
X158110316Y-109776401D02*
X157636047Y-109776401D01*
X156887350Y-110392762D02*
X156402417Y-110392762D01*
X157019686Y-110392762D02*
X156887350Y-110392762D01*
X157636047Y-109776401D02*
X157019686Y-110392762D01*
X125920002Y-111024933D02*
X125920002Y-110540000D01*
X127000000Y-122100000D02*
X125920002Y-121020002D01*
X125920002Y-121020002D02*
X125920002Y-111024933D01*
X158110316Y-109376401D02*
X156239139Y-109376401D01*
X156213910Y-109401630D02*
X155871011Y-109744529D01*
X156239139Y-109376401D02*
X156213910Y-109401630D01*
X156663994Y-107808048D02*
X156179061Y-107808048D01*
X158110316Y-107424000D02*
X157726268Y-107808048D01*
X157726268Y-107808048D02*
X156663994Y-107808048D01*
X158110316Y-107824000D02*
X157760316Y-107824000D01*
X157760316Y-107824000D02*
X157235359Y-107377873D01*
X157235359Y-107377873D02*
X157062650Y-107581100D01*
X158110316Y-108176401D02*
X157760316Y-108176401D01*
X157760316Y-108176401D02*
X157235359Y-108622527D01*
X157235359Y-108622527D02*
X157062650Y-108419301D01*
X158110316Y-108576401D02*
X157760316Y-108576401D01*
X157760316Y-108576401D02*
X157180872Y-109068832D01*
X157180872Y-109068832D02*
X156892034Y-108964297D01*
X156892034Y-108964297D02*
X156306694Y-108781689D01*
X158110316Y-108976401D02*
X157760316Y-108976401D01*
X157760316Y-108976401D02*
X156894127Y-109712518D01*
X156894127Y-109712518D02*
X156721418Y-109509292D01*
X156804954Y-106910513D02*
X156320021Y-106910513D01*
X158110316Y-107024000D02*
X158060616Y-106974300D01*
X156868741Y-106974300D02*
X156804954Y-106910513D01*
X158060616Y-106974300D02*
X156868741Y-106974300D01*
X121770000Y-121220000D02*
X121770000Y-107004933D01*
X122260000Y-121710000D02*
X121770000Y-121220000D01*
X121770000Y-107004933D02*
X121770000Y-106520000D01*
X156410771Y-106346244D02*
X156134928Y-106070400D01*
X156134928Y-106070400D02*
X155323333Y-106070400D01*
X156867972Y-106346244D02*
X156410771Y-106346244D01*
X158110316Y-106624000D02*
X157145728Y-106624000D01*
X157145728Y-106624000D02*
X156867972Y-106346244D01*
X155323333Y-106070400D02*
X154838400Y-106070400D01*
X154410609Y-93862500D02*
X153345189Y-94927920D01*
X155812500Y-93862500D02*
X154410609Y-93862500D01*
X153345189Y-94927920D02*
X153345189Y-97796513D01*
X155463570Y-103599900D02*
X155714769Y-103348701D01*
X152225096Y-98916606D02*
X152225096Y-101099984D01*
X154725012Y-103599900D02*
X155463570Y-103599900D01*
X153345189Y-97796513D02*
X152225096Y-98916606D01*
X152225096Y-101099984D02*
X154725012Y-103599900D01*
X156038452Y-103348701D02*
X155714769Y-103348701D01*
X157313751Y-104624000D02*
X156038452Y-103348701D01*
X158110316Y-104624000D02*
X157313751Y-104624000D01*
X154586140Y-102644258D02*
X154929039Y-102987157D01*
X155251098Y-94328498D02*
X154375678Y-94328498D01*
X152529907Y-100740933D02*
X154433232Y-102644258D01*
X152529907Y-99042862D02*
X152529907Y-100740933D01*
X153650000Y-97922769D02*
X152529907Y-99042862D01*
X155285100Y-94362500D02*
X155251098Y-94328498D01*
X154433232Y-102644258D02*
X154586140Y-102644258D01*
X155812500Y-94362500D02*
X155285100Y-94362500D01*
X154375678Y-94328498D02*
X153650000Y-95054176D01*
X153650000Y-95054176D02*
X153650000Y-97922769D01*
X155558026Y-102799097D02*
X155117099Y-102799097D01*
X157352285Y-104224000D02*
X156246830Y-103118545D01*
X156246830Y-103118545D02*
X156139957Y-102920048D01*
X155949330Y-102729421D02*
X155627702Y-102729421D01*
X155627702Y-102729421D02*
X155558026Y-102799097D01*
X156139957Y-102920048D02*
X155949330Y-102729421D01*
X158110316Y-104224000D02*
X157352285Y-104224000D01*
X155117099Y-102799097D02*
X154929039Y-102987157D01*
X156343876Y-102655820D02*
X155933235Y-102245179D01*
X155768636Y-102227594D02*
X155283703Y-102227594D01*
X158110316Y-103824000D02*
X157416481Y-103824000D01*
X155933235Y-102245179D02*
X155786221Y-102245179D01*
X156455359Y-102862878D02*
X156343876Y-102655820D01*
X155786221Y-102245179D02*
X155768636Y-102227594D01*
X157416481Y-103824000D02*
X156455359Y-102862878D01*
X156663887Y-102607211D02*
X156543124Y-102382919D01*
X155504098Y-101630674D02*
X154811083Y-101630674D01*
X155796500Y-101923076D02*
X155504098Y-101630674D01*
X158110316Y-103424000D02*
X157480676Y-103424000D01*
X156083281Y-101923076D02*
X155796500Y-101923076D01*
X156543124Y-102382919D02*
X156083281Y-101923076D01*
X154811083Y-101630674D02*
X154326150Y-101630674D01*
X157480676Y-103424000D02*
X156663887Y-102607211D01*
X156128361Y-101496006D02*
X155800497Y-101496006D01*
X155625576Y-101321085D02*
X155140301Y-101321085D01*
X158110316Y-103024000D02*
X157656355Y-103024000D01*
X155800497Y-101496006D02*
X155625576Y-101321085D01*
X157656355Y-103024000D02*
X156128361Y-101496006D01*
X155042234Y-101223018D02*
X154699335Y-100880119D01*
X155140301Y-101321085D02*
X155042234Y-101223018D01*
X156263930Y-101180746D02*
X155916304Y-101180746D01*
X153560890Y-100805484D02*
X153217991Y-100462585D01*
X155916304Y-101180746D02*
X155751832Y-101016274D01*
X157707184Y-102624000D02*
X156263930Y-101180746D01*
X155681313Y-101016274D02*
X154973657Y-100308618D01*
X158110316Y-102624000D02*
X157707184Y-102624000D01*
X154973657Y-100308618D02*
X154449128Y-100308618D01*
X154449128Y-100308618D02*
X153952262Y-100805484D01*
X155751832Y-101016274D02*
X155681313Y-101016274D01*
X153952262Y-100805484D02*
X153560890Y-100805484D01*
D24*
X158295000Y-116200000D02*
X158295000Y-115800000D01*
X158255617Y-116945501D02*
X158255617Y-116239383D01*
X158255617Y-116239383D02*
X158295000Y-116200000D01*
D25*
X158110316Y-115376401D02*
X157760316Y-115376401D01*
X157760316Y-115376401D02*
X157092307Y-115944098D01*
X157092307Y-115944098D02*
X157265015Y-116147324D01*
X158110316Y-114976401D02*
X157760316Y-114976401D01*
X157760316Y-114976401D02*
X156643057Y-115925886D01*
X156643057Y-115925886D02*
X156699637Y-116227803D01*
X156699637Y-116227803D02*
X156788823Y-116834445D01*
X158110316Y-114576401D02*
X157760316Y-114576401D01*
X157760316Y-114576401D02*
X155961549Y-116105055D01*
X155961549Y-116105055D02*
X156134258Y-116308281D01*
X155347101Y-117117101D02*
X155690000Y-117460000D01*
X157891809Y-114262376D02*
X157659136Y-114262376D01*
X158110316Y-114176401D02*
X157977784Y-114176401D01*
X157977784Y-114176401D02*
X157891809Y-114262376D01*
X157659136Y-114262376D02*
X155924204Y-115736780D01*
X155924204Y-115736780D02*
X155859937Y-115736780D01*
X155347101Y-116249616D02*
X155347101Y-117117101D01*
X155859937Y-115736780D02*
X155347101Y-116249616D01*
X157557956Y-113948350D02*
X155812180Y-115431969D01*
X157651512Y-113955944D02*
X157557956Y-113948350D01*
X157767175Y-113955944D02*
X157651512Y-113955944D01*
X154802899Y-116347101D02*
X154460000Y-116690000D01*
X155733681Y-115431969D02*
X154818549Y-116347101D01*
X154818549Y-116347101D02*
X154802899Y-116347101D01*
X155812180Y-115431969D02*
X155733681Y-115431969D01*
X157946718Y-113776401D02*
X157767175Y-113955944D01*
X158110316Y-113776401D02*
X157946718Y-113776401D01*
X155607425Y-115127158D02*
X154812554Y-115922029D01*
X154245468Y-115922029D02*
X153760535Y-115922029D01*
X157610095Y-113646769D02*
X157456776Y-113634324D01*
X158110316Y-113376401D02*
X157915650Y-113376401D01*
X157915650Y-113376401D02*
X157645276Y-113646774D01*
X157645276Y-113646774D02*
X157642136Y-113646773D01*
X157642136Y-113646773D02*
X157610095Y-113646769D01*
X155700156Y-115127158D02*
X155607425Y-115127158D01*
X157456776Y-113634324D02*
X155700156Y-115127158D01*
X154812554Y-115922029D02*
X154245468Y-115922029D01*
X155103987Y-114822347D02*
X154990539Y-114935795D01*
X157355596Y-113320298D02*
X155588132Y-114822347D01*
X157884584Y-112976401D02*
X157526788Y-113334194D01*
X157526788Y-113334194D02*
X157355596Y-113320298D01*
X155588132Y-114822347D02*
X155103987Y-114822347D01*
X158110316Y-112976401D02*
X157884584Y-112976401D01*
X161416050Y-100624000D02*
X161579805Y-100460245D01*
X161579805Y-100083062D02*
X161922704Y-99740163D01*
X161190316Y-100624000D02*
X161416050Y-100624000D01*
X161579805Y-100460245D02*
X161579805Y-100083062D01*
X161005000Y-99800000D02*
X161005000Y-99094914D01*
X161005000Y-99094914D02*
X161045015Y-99054899D01*
X161005000Y-100200000D02*
X161005000Y-99800000D01*
D24*
X164530985Y-97536000D02*
X164530985Y-95057015D01*
X164530985Y-95057015D02*
X168402000Y-91186000D01*
X161045015Y-99054899D02*
X161529948Y-99054899D01*
X161529948Y-99054899D02*
X162134448Y-98450399D01*
X163616588Y-98450399D02*
X164530985Y-97536000D01*
X162134448Y-98450399D02*
X163616588Y-98450399D01*
D25*
X162743179Y-100159004D02*
X163811395Y-100159004D01*
D24*
X170942000Y-94947314D02*
X167032493Y-98856821D01*
D25*
X161495686Y-101406497D02*
X162743179Y-100159004D01*
X164270335Y-99718443D02*
X164613234Y-99375544D01*
X161207819Y-101406497D02*
X161495686Y-101406497D01*
D24*
X165131957Y-98856821D02*
X164956133Y-99032645D01*
D25*
X163811395Y-100159004D02*
X164251956Y-99718443D01*
X161190316Y-101424000D02*
X161207819Y-101406497D01*
D24*
X167032493Y-98856821D02*
X165131957Y-98856821D01*
D25*
X164251956Y-99718443D02*
X164270335Y-99718443D01*
D24*
X170942000Y-93726000D02*
X170942000Y-94947314D01*
X164956133Y-99032645D02*
X164613234Y-99375544D01*
X169824399Y-94488003D02*
X169468801Y-94843601D01*
X163879971Y-99244602D02*
X163537072Y-99587501D01*
X164642811Y-97996829D02*
X164642811Y-98597698D01*
X169468801Y-94843601D02*
X167796039Y-94843601D01*
X164318562Y-98806011D02*
X163879971Y-99244602D01*
X169824399Y-92303601D02*
X169824399Y-94488003D01*
X164434498Y-98806011D02*
X164318562Y-98806011D01*
X164642811Y-98597698D02*
X164434498Y-98806011D01*
X167796039Y-94843601D02*
X164642811Y-97996829D01*
X170942000Y-91186000D02*
X169824399Y-92303601D01*
D25*
X161190316Y-101024000D02*
X161447117Y-101024000D01*
X161447117Y-101024000D02*
X162883616Y-99587501D01*
X163052139Y-99587501D02*
X163537072Y-99587501D01*
X162883616Y-99587501D02*
X163052139Y-99587501D01*
D24*
X166920714Y-99263098D02*
X166491920Y-99691892D01*
X166491920Y-99691892D02*
X166149021Y-100034791D01*
X167944902Y-99263098D02*
X166920714Y-99263098D01*
X173482000Y-93726000D02*
X167944902Y-99263098D01*
D25*
X161463161Y-102224000D02*
X161671041Y-102016119D01*
X164063907Y-100768626D02*
X164495705Y-100336828D01*
X165926806Y-100034791D02*
X166149021Y-100034791D01*
X164495705Y-100336828D02*
X165624769Y-100336828D01*
X163010238Y-100768626D02*
X164063907Y-100768626D01*
X161762745Y-102016119D02*
X163010238Y-100768626D01*
X161671041Y-102016119D02*
X161762745Y-102016119D01*
X161190316Y-102224000D02*
X161463161Y-102224000D01*
X165624769Y-100336828D02*
X165926806Y-100034791D01*
X163937651Y-100463815D02*
X164383096Y-100018370D01*
X161190316Y-101824000D02*
X161432093Y-101824000D01*
X164383096Y-100018370D02*
X165102260Y-100018370D01*
X161621942Y-101711308D02*
X162869435Y-100463815D01*
X161544785Y-101711308D02*
X161621942Y-101711308D01*
X165102260Y-100018370D02*
X165355304Y-99765326D01*
X161432093Y-101824000D02*
X161544785Y-101711308D01*
X162869435Y-100463815D02*
X163937651Y-100463815D01*
D24*
X173349415Y-94843601D02*
X168136903Y-100056113D01*
X166819723Y-100676903D02*
X166560121Y-100936505D01*
X167806515Y-100676903D02*
X166819723Y-100676903D01*
X165967210Y-101354066D02*
X165202716Y-101354066D01*
X168136903Y-100056113D02*
X168136903Y-100346515D01*
X168136903Y-100346515D02*
X167806515Y-100676903D01*
X184404000Y-94183200D02*
X183337200Y-94183200D01*
X165202716Y-101354066D02*
X164717783Y-101354066D01*
X166384771Y-100936505D02*
X165967210Y-101354066D01*
X182676799Y-94843601D02*
X173349415Y-94843601D01*
X183337200Y-94183200D02*
X182676799Y-94843601D01*
X166560121Y-100936505D02*
X166384771Y-100936505D01*
D25*
X163266872Y-101378248D02*
X164693601Y-101378248D01*
X161525294Y-103024000D02*
X161923554Y-102625741D01*
X164693601Y-101378248D02*
X164717783Y-101354066D01*
X161923554Y-102625741D02*
X162019378Y-102625741D01*
X161190316Y-103024000D02*
X161525294Y-103024000D01*
X162019378Y-102625741D02*
X163266872Y-101378248D01*
X161797298Y-102320930D02*
X161893122Y-102320930D01*
X163140615Y-101073437D02*
X164190163Y-101073437D01*
X166388773Y-100606294D02*
X166935067Y-100060000D01*
X165874699Y-100606294D02*
X166388773Y-100606294D01*
X164190163Y-101073437D02*
X164621961Y-100641639D01*
X165839354Y-100641639D02*
X165874699Y-100606294D01*
X161190316Y-102624000D02*
X161494227Y-102624000D01*
X161494227Y-102624000D02*
X161797298Y-102320930D01*
X166935067Y-100060000D02*
X167270000Y-100060000D01*
X164621961Y-100641639D02*
X165839354Y-100641639D01*
X161893122Y-102320930D02*
X163140615Y-101073437D01*
D24*
X165123485Y-102261178D02*
X164432736Y-102261178D01*
X178937345Y-102189855D02*
X165194808Y-102189855D01*
D25*
X161759380Y-103652051D02*
X162176068Y-103235363D01*
X161525863Y-103652051D02*
X161759380Y-103652051D01*
D24*
X164432736Y-102261178D02*
X163947803Y-102261178D01*
D25*
X161190316Y-103824000D02*
X161353914Y-103824000D01*
D24*
X184404000Y-96723200D02*
X178937345Y-102189855D01*
X165194808Y-102189855D02*
X165123485Y-102261178D01*
D25*
X162271890Y-103235363D02*
X163246075Y-102261178D01*
X163246075Y-102261178D02*
X163462870Y-102261178D01*
X161353914Y-103824000D02*
X161525863Y-103652051D01*
X162176068Y-103235363D02*
X162271890Y-103235363D01*
X163462870Y-102261178D02*
X163947803Y-102261178D01*
X162145634Y-102930552D02*
X163393128Y-101683059D01*
X166585118Y-101749474D02*
X166928017Y-101406575D01*
X164992106Y-101925569D02*
X165168201Y-101749474D01*
X164200951Y-101683059D02*
X164443461Y-101925569D01*
X161642338Y-103338025D02*
X162049811Y-102930552D01*
X161322847Y-103424000D02*
X161408822Y-103338025D01*
X164443461Y-101925569D02*
X164992106Y-101925569D01*
X161190316Y-103424000D02*
X161322847Y-103424000D01*
X162049811Y-102930552D02*
X162145634Y-102930552D01*
X161408822Y-103338025D02*
X161642338Y-103338025D01*
X165168201Y-101749474D02*
X166585118Y-101749474D01*
X163393128Y-101683059D02*
X164200951Y-101683059D01*
X162970503Y-103398884D02*
X163110777Y-103398884D01*
D24*
X180283523Y-103383677D02*
X166149349Y-103383677D01*
D25*
X162428584Y-103844985D02*
X162524402Y-103844985D01*
D24*
X166149349Y-103383677D02*
X166114631Y-103348959D01*
D25*
X161416048Y-104624000D02*
X161751464Y-104288588D01*
X162524402Y-103844985D02*
X162970503Y-103398884D01*
D24*
X166114631Y-103348959D02*
X164130568Y-103348959D01*
X164130568Y-103348959D02*
X164080643Y-103398884D01*
X164080643Y-103398884D02*
X163595710Y-103398884D01*
D25*
X161984981Y-104288588D02*
X162428584Y-103844985D01*
X163110777Y-103398884D02*
X163595710Y-103398884D01*
D24*
X184404000Y-99263200D02*
X180283523Y-103383677D01*
D25*
X161751464Y-104288588D02*
X161984981Y-104288588D01*
X161190316Y-104624000D02*
X161416048Y-104624000D01*
X161384982Y-104224000D02*
X161643000Y-103965981D01*
X161876519Y-103965981D02*
X162302326Y-103540174D01*
X162302326Y-103540174D02*
X162398146Y-103540174D01*
X162398146Y-103540174D02*
X163176963Y-102761358D01*
X163176963Y-102761358D02*
X163602158Y-102761358D01*
X163673481Y-102832681D02*
X165905023Y-102832681D01*
X165905023Y-102832681D02*
X165950929Y-102786775D01*
X165950929Y-102786775D02*
X166435862Y-102786775D01*
X161190316Y-104224000D02*
X161384982Y-104224000D01*
X163602158Y-102761358D02*
X163673481Y-102832681D01*
X161643000Y-103965981D02*
X161876519Y-103965981D01*
D24*
X163736434Y-104510571D02*
X163712802Y-104534203D01*
D25*
X162197110Y-104938590D02*
X162601497Y-104534203D01*
X161963596Y-104938590D02*
X162197110Y-104938590D01*
D24*
X181658087Y-104549113D02*
X165680951Y-104549113D01*
X165642409Y-104510571D02*
X163736434Y-104510571D01*
X163712802Y-104534203D02*
X163227869Y-104534203D01*
D25*
X161190316Y-105424000D02*
X161478182Y-105424000D01*
X162601497Y-104534203D02*
X162742936Y-104534203D01*
X162742936Y-104534203D02*
X163227869Y-104534203D01*
D24*
X165680951Y-104549113D02*
X165642409Y-104510571D01*
X184404000Y-101803200D02*
X181658087Y-104549113D01*
D25*
X161478182Y-105424000D02*
X161963596Y-104938590D01*
X165949288Y-103970387D02*
X165967464Y-103952211D01*
X162474339Y-104230296D02*
X162569064Y-104149796D01*
X162569064Y-104149796D02*
X162650659Y-104149796D01*
X161190316Y-105024000D02*
X161447116Y-105024000D01*
X161447116Y-105024000D02*
X161735044Y-104736072D01*
X162111237Y-104593399D02*
X162474339Y-104230296D01*
X162650659Y-104149796D02*
X163075728Y-103724727D01*
X163075728Y-103724727D02*
X163321388Y-103970387D01*
X163321388Y-103970387D02*
X165949288Y-103970387D01*
X161735044Y-104736072D02*
X161870100Y-104601022D01*
X161870100Y-104601022D02*
X162103612Y-104601022D01*
X162103612Y-104601022D02*
X162111237Y-104593399D01*
X161540316Y-106224000D02*
X162090738Y-105673578D01*
X162404148Y-105673578D02*
X162889081Y-105673578D01*
D24*
X184404000Y-104343200D02*
X182730723Y-106016477D01*
D25*
X162090738Y-105673578D02*
X162404148Y-105673578D01*
D24*
X163231980Y-106016477D02*
X162889081Y-105673578D01*
X182730723Y-106016477D02*
X163231980Y-106016477D01*
D25*
X161190316Y-106224000D02*
X161540316Y-106224000D01*
X161190316Y-105824000D02*
X161509250Y-105824000D01*
X161509250Y-105824000D02*
X162089851Y-105243401D01*
X162323366Y-105243401D02*
X162688505Y-104878261D01*
X165002144Y-105105706D02*
X165019436Y-105122998D01*
X162953547Y-105105706D02*
X165002144Y-105105706D01*
X165019436Y-105122998D02*
X165504369Y-105122998D01*
X162089851Y-105243401D02*
X162323366Y-105243401D01*
X162688505Y-104878261D02*
X162726102Y-104878261D01*
X162726102Y-104878261D02*
X162953547Y-105105706D01*
X162722372Y-111180954D02*
X162962899Y-110940427D01*
X162962899Y-110940427D02*
X164648163Y-110940427D01*
X161695651Y-110176401D02*
X162700204Y-111180954D01*
X162700204Y-111180954D02*
X162722372Y-111180954D01*
X164809997Y-110778593D02*
X165294930Y-110778593D01*
X164648163Y-110940427D02*
X164809997Y-110778593D01*
X161190316Y-110176401D02*
X161695651Y-110176401D01*
D24*
X162897007Y-110372718D02*
X163239906Y-110029819D01*
X183699468Y-110372718D02*
X184172349Y-110845599D01*
X165391704Y-110029819D02*
X165734603Y-110372718D01*
X185826399Y-110845599D02*
X186080401Y-111099601D01*
X163239906Y-110029819D02*
X165391704Y-110029819D01*
X165734603Y-110372718D02*
X183699468Y-110372718D01*
X184172349Y-110845599D02*
X185826399Y-110845599D01*
X186080401Y-111099601D02*
X186944000Y-111963200D01*
D25*
X161190316Y-109776401D02*
X161726717Y-109776401D01*
X162323034Y-110372718D02*
X162412074Y-110372718D01*
X162412074Y-110372718D02*
X162897007Y-110372718D01*
X161726717Y-109776401D02*
X162323034Y-110372718D01*
X161190316Y-110976401D02*
X161633517Y-110976401D01*
X165439494Y-112086487D02*
X165553567Y-111972414D01*
X162579232Y-111922116D02*
X162653306Y-111922116D01*
X161633517Y-110976401D02*
X162579232Y-111922116D01*
X162653306Y-111922116D02*
X163105677Y-112306557D01*
X163105677Y-112306557D02*
X163325749Y-112086487D01*
X163325749Y-112086487D02*
X165439494Y-112086487D01*
D24*
X163861304Y-111375513D02*
X165840081Y-111375513D01*
X165840081Y-111375513D02*
X165979552Y-111514984D01*
X182301734Y-111514984D02*
X184172349Y-113385599D01*
X163236900Y-111514984D02*
X163721833Y-111514984D01*
X165979552Y-111514984D02*
X182301734Y-111514984D01*
X163721833Y-111514984D02*
X163861304Y-111375513D01*
X186080401Y-113639601D02*
X186944000Y-114503200D01*
X185826399Y-113385599D02*
X186080401Y-113639601D01*
X184172349Y-113385599D02*
X185826399Y-113385599D01*
D25*
X162751967Y-111514984D02*
X163236900Y-111514984D01*
X162603165Y-111514984D02*
X162751967Y-111514984D01*
X161190316Y-110576401D02*
X161664582Y-110576401D01*
X161664582Y-110576401D02*
X162603165Y-111514984D01*
X163319987Y-113137335D02*
X163415852Y-113233200D01*
X165278508Y-113233200D02*
X165345473Y-113166235D01*
X162450944Y-112550168D02*
X163141861Y-113137335D01*
X163141861Y-113137335D02*
X163319987Y-113137335D01*
X161604438Y-111871590D02*
X161666572Y-111871590D01*
X161666572Y-111871590D02*
X162353092Y-112558110D01*
X165345473Y-113166235D02*
X165830406Y-113166235D01*
X162353092Y-112558110D02*
X162450944Y-112550168D01*
X163415852Y-113233200D02*
X165278508Y-113233200D01*
X161509250Y-111776401D02*
X161604438Y-111871590D01*
X161190316Y-111776401D02*
X161509250Y-111776401D01*
D24*
X183867551Y-115925599D02*
X185826399Y-115925599D01*
X164211394Y-112569334D02*
X166116920Y-112569334D01*
X166116920Y-112569334D02*
X166208186Y-112660600D01*
X164120128Y-112660600D02*
X164211394Y-112569334D01*
X186080401Y-116179601D02*
X186944000Y-117043200D01*
X166208186Y-112660600D02*
X180602552Y-112660600D01*
X180602552Y-112660600D02*
X183867551Y-115925599D01*
X163635195Y-112660600D02*
X164120128Y-112660600D01*
X185826399Y-115925599D02*
X186080401Y-116179601D01*
D25*
X161190316Y-111376401D02*
X161602447Y-111376401D01*
X162468941Y-112242895D02*
X162552125Y-112236142D01*
X161602447Y-111376401D02*
X162468941Y-112242895D01*
X163150262Y-112660600D02*
X163635195Y-112660600D01*
X163034464Y-112646052D02*
X163135714Y-112646052D01*
X162552125Y-112236142D02*
X163034464Y-112646052D01*
X163135714Y-112646052D02*
X163150262Y-112660600D01*
D24*
X165973993Y-114417146D02*
X166458926Y-114417146D01*
X164700097Y-114231642D02*
X164885601Y-114417146D01*
X164885601Y-114417146D02*
X165973993Y-114417146D01*
D25*
X164239809Y-114375237D02*
X164700097Y-114231642D01*
X162917813Y-113746957D02*
X163067475Y-113746957D01*
X162248582Y-113178220D02*
X162917813Y-113746957D01*
X162136061Y-113187354D02*
X162248582Y-113178220D01*
X163067475Y-113746957D02*
X163712246Y-114391729D01*
X164223317Y-114391729D02*
X164239809Y-114375237D01*
X162030445Y-113097597D02*
X162136061Y-113187354D01*
X161604442Y-112671592D02*
X162030445Y-113097597D01*
X161190316Y-112576401D02*
X161509250Y-112576401D01*
X161509250Y-112576401D02*
X161604442Y-112671592D01*
X163712246Y-114391729D02*
X164223317Y-114391729D01*
D24*
X186080401Y-118719601D02*
X186944000Y-119583200D01*
X185826399Y-118465599D02*
X186080401Y-118719601D01*
X184172349Y-118465599D02*
X185826399Y-118465599D01*
X163948994Y-113820226D02*
X179526976Y-113820226D01*
X179526976Y-113820226D02*
X184172349Y-118465599D01*
D25*
X162349763Y-112864194D02*
X163029837Y-113442146D01*
X161540316Y-112176401D02*
X161730700Y-112366783D01*
X163029837Y-113442146D02*
X163193731Y-113442146D01*
X163571811Y-113820226D02*
X163948994Y-113820226D01*
X163193731Y-113442146D02*
X163571811Y-113820226D01*
X161730700Y-112366783D02*
X162237242Y-112873328D01*
X161190316Y-112176401D02*
X161540316Y-112176401D01*
X162237242Y-112873328D02*
X162349763Y-112864194D01*
X162814963Y-114356579D02*
X163991327Y-115532943D01*
X165270778Y-115532943D02*
X165315342Y-115577507D01*
X161447117Y-113376401D02*
X161889693Y-113818978D01*
X165315342Y-115577507D02*
X165800275Y-115577507D01*
X162693765Y-114356579D02*
X162814963Y-114356579D01*
X162046220Y-113806272D02*
X162693765Y-114356579D01*
X161889693Y-113818978D02*
X162046220Y-113806272D01*
X163991327Y-115532943D02*
X165270778Y-115532943D01*
X161190316Y-113376401D02*
X161447117Y-113376401D01*
X163850892Y-114961441D02*
X164288019Y-114961441D01*
X161190316Y-112976401D02*
X161478184Y-112976401D01*
X162941219Y-114051768D02*
X163850892Y-114961441D01*
X162005542Y-113503762D02*
X162147401Y-113492246D01*
X162805789Y-114051768D02*
X162941219Y-114051768D01*
X162147401Y-113492246D02*
X162805789Y-114051768D01*
X161478184Y-112976401D02*
X162005542Y-113503762D01*
X162574164Y-114977914D02*
X163996455Y-116400205D01*
X162452966Y-114977914D02*
X162574164Y-114977914D01*
X163996455Y-116400205D02*
X163996455Y-116715567D01*
X162280167Y-114805115D02*
X162452966Y-114977914D01*
X161494916Y-114283508D02*
X161687333Y-114447030D01*
X161190316Y-114176401D02*
X161368885Y-114176401D01*
X161368885Y-114176401D02*
X161494916Y-114283508D01*
X161843859Y-114434325D02*
X162280167Y-114805115D01*
X161687333Y-114447030D02*
X161843859Y-114434325D01*
X162486966Y-114580847D02*
X162568815Y-114662696D01*
X163865072Y-115837754D02*
X164039189Y-115837754D01*
X161403017Y-113776401D02*
X161596097Y-113969481D01*
X161788512Y-114133004D02*
X161902050Y-114123787D01*
X161596097Y-113969481D02*
X161788512Y-114133004D01*
X161190316Y-113776401D02*
X161403017Y-113776401D01*
X161949146Y-114123788D02*
X162486966Y-114580847D01*
X162690014Y-114662696D02*
X163865072Y-115837754D01*
X164039189Y-115837754D02*
X164453897Y-116252462D01*
X162568815Y-114662696D02*
X162690014Y-114662696D01*
X161902050Y-114123787D02*
X161949146Y-114123788D01*
D24*
X164453897Y-116252462D02*
X164561391Y-116359956D01*
X165014719Y-116359956D02*
X165499652Y-116359956D01*
X164561391Y-116359956D02*
X165014719Y-116359956D01*
D25*
X162236330Y-115575823D02*
X162273260Y-115612753D01*
X162453803Y-116574962D02*
X162453803Y-116868232D01*
X162607119Y-116421646D02*
X162453803Y-116574962D01*
X162346869Y-115612753D02*
X162607119Y-115873003D01*
X162273260Y-115612753D02*
X162346869Y-115612753D01*
X161866574Y-115253655D02*
X162188741Y-115575823D01*
X161472261Y-115062376D02*
X161484965Y-115075080D01*
X161641497Y-115062377D02*
X161866574Y-115253655D01*
X161322849Y-114976401D02*
X161408824Y-115062376D01*
X161190316Y-114976401D02*
X161322849Y-114976401D01*
X162188741Y-115575823D02*
X162236330Y-115575823D01*
X161408824Y-115062376D02*
X161472261Y-115062376D01*
X162607119Y-115873003D02*
X162607119Y-116421646D01*
X161484965Y-115075080D02*
X161641497Y-115062377D01*
X163178105Y-116012922D02*
X163178105Y-116446349D01*
X161190316Y-114576401D02*
X161353916Y-114576401D01*
X162073376Y-115029390D02*
X162314997Y-115271012D01*
X162458314Y-115293130D02*
X163178105Y-116012922D01*
X162362585Y-115271012D02*
X162390233Y-115298660D01*
X161742677Y-114748351D02*
X162073376Y-115029390D01*
X161538570Y-114761055D02*
X161586150Y-114761055D01*
X161586150Y-114761055D02*
X161742677Y-114748351D01*
X162390233Y-115298660D02*
X162458314Y-115293130D01*
X161353916Y-114576401D02*
X161538570Y-114761055D01*
X162314997Y-115271012D02*
X162362585Y-115271012D01*
D24*
X161005000Y-116200000D02*
X161005000Y-115800000D01*
X161045015Y-116945501D02*
X161045015Y-116240015D01*
X161045015Y-116240015D02*
X161005000Y-116200000D01*
D25*
X161355208Y-115376401D02*
X161690314Y-115711507D01*
X161690314Y-115800280D02*
X162033213Y-116143179D01*
X161690314Y-115711507D02*
X161690314Y-115800280D01*
X161190316Y-115376401D02*
X161355208Y-115376401D01*
X158255617Y-99054899D02*
X158255617Y-99760617D01*
X158255617Y-99760617D02*
X158295000Y-99800000D01*
X158295000Y-100200000D02*
X158295000Y-99800000D01*
X157891947Y-100624000D02*
X156996792Y-99728845D01*
X158110316Y-100624000D02*
X157891947Y-100624000D01*
X156996792Y-99728845D02*
X156653893Y-99385946D01*
X156421328Y-99961502D02*
X156257088Y-99797262D01*
X156768953Y-99961502D02*
X156421328Y-99961502D01*
X156257088Y-99797262D02*
X156242195Y-99797262D01*
X157831451Y-101024000D02*
X156768953Y-99961502D01*
X158110316Y-101024000D02*
X157831451Y-101024000D01*
X156242195Y-99797262D02*
X155243252Y-98798319D01*
X155243252Y-98798319D02*
X154801664Y-98798319D01*
X158110316Y-101424000D02*
X157800384Y-101424000D01*
X156295072Y-100266313D02*
X156130600Y-100101841D01*
X156130600Y-100101841D02*
X156060081Y-100101841D01*
X157800384Y-101424000D02*
X156642698Y-100266313D01*
X155350083Y-99391843D02*
X154586937Y-99391843D01*
X156060081Y-100101841D02*
X155350083Y-99391843D01*
X154586937Y-99391843D02*
X153992202Y-98797108D01*
X156642698Y-100266313D02*
X156295072Y-100266313D01*
X153992202Y-98797108D02*
X153817718Y-98797108D01*
X154193379Y-99429351D02*
X153285385Y-99429351D01*
X156516442Y-100571124D02*
X156168816Y-100571124D01*
X153285385Y-99429351D02*
X153124797Y-99268763D01*
X155933825Y-100406652D02*
X155223827Y-99696654D01*
X156004344Y-100406652D02*
X155933825Y-100406652D01*
X158110316Y-101824000D02*
X157769317Y-101824000D01*
X155223827Y-99696654D02*
X154460682Y-99696654D01*
X156168816Y-100571124D02*
X156004344Y-100406652D01*
X157769317Y-101824000D02*
X156516442Y-100571124D01*
X154460682Y-99696654D02*
X154193379Y-99429351D01*
G36*
X137483731Y-90424000D02*
X137483731Y-92456000D01*
X137506756Y-92578365D01*
X137579073Y-92690749D01*
X137689417Y-92766144D01*
X137820400Y-92792669D01*
X139547600Y-92792669D01*
X139669965Y-92769644D01*
X139782349Y-92697327D01*
X139857744Y-92586983D01*
X139884269Y-92456000D01*
X139884269Y-90424000D01*
X139880731Y-90405200D01*
X140397639Y-90405200D01*
X140379856Y-90417082D01*
X140121073Y-90804379D01*
X140030200Y-91261226D01*
X140030200Y-91618774D01*
X140121073Y-92075621D01*
X140379856Y-92462918D01*
X140767153Y-92721701D01*
X141224000Y-92812574D01*
X141680847Y-92721701D01*
X142068144Y-92462918D01*
X142326927Y-92075621D01*
X142417800Y-91618774D01*
X142417800Y-91261226D01*
X142326927Y-90804379D01*
X142068144Y-90417082D01*
X142050361Y-90405200D01*
X142937639Y-90405200D01*
X142919856Y-90417082D01*
X142661073Y-90804379D01*
X142570200Y-91261226D01*
X142570200Y-91618774D01*
X142661073Y-92075621D01*
X142919856Y-92462918D01*
X143307153Y-92721701D01*
X143764000Y-92812574D01*
X144220847Y-92721701D01*
X144608144Y-92462918D01*
X144866927Y-92075621D01*
X144957800Y-91618774D01*
X144957800Y-91261226D01*
X144866927Y-90804379D01*
X144608144Y-90417082D01*
X144590361Y-90405200D01*
X145477639Y-90405200D01*
X145459856Y-90417082D01*
X145201073Y-90804379D01*
X145110200Y-91261226D01*
X145110200Y-91618774D01*
X145201073Y-92075621D01*
X145459856Y-92462918D01*
X145847153Y-92721701D01*
X146304000Y-92812574D01*
X146760847Y-92721701D01*
X147148144Y-92462918D01*
X147406927Y-92075621D01*
X147497800Y-91618774D01*
X147497800Y-91261226D01*
X147406927Y-90804379D01*
X147148144Y-90417082D01*
X147130361Y-90405200D01*
X148017639Y-90405200D01*
X147999856Y-90417082D01*
X147741073Y-90804379D01*
X147650200Y-91261226D01*
X147650200Y-91618774D01*
X147741073Y-92075621D01*
X147999856Y-92462918D01*
X148387153Y-92721701D01*
X148844000Y-92812574D01*
X149300847Y-92721701D01*
X149688144Y-92462918D01*
X149946927Y-92075621D01*
X150037800Y-91618774D01*
X150037800Y-91261226D01*
X149946927Y-90804379D01*
X149688144Y-90417082D01*
X149670361Y-90405200D01*
X150557639Y-90405200D01*
X150539856Y-90417082D01*
X150281073Y-90804379D01*
X150190200Y-91261226D01*
X150190200Y-91618774D01*
X150281073Y-92075621D01*
X150539856Y-92462918D01*
X150927153Y-92721701D01*
X151384000Y-92812574D01*
X151840847Y-92721701D01*
X152228144Y-92462918D01*
X152486927Y-92075621D01*
X152577800Y-91618774D01*
X152577800Y-91261226D01*
X152486927Y-90804379D01*
X152228144Y-90417082D01*
X152210361Y-90405200D01*
X157850322Y-90405200D01*
X157624618Y-90630511D01*
X157556897Y-90793600D01*
X157486669Y-90793600D01*
X157486669Y-90750000D01*
X157463644Y-90627635D01*
X157391327Y-90515251D01*
X157280983Y-90439856D01*
X157150000Y-90413331D01*
X155950000Y-90413331D01*
X155827635Y-90436356D01*
X155715251Y-90508673D01*
X155639856Y-90619017D01*
X155613331Y-90750000D01*
X155613331Y-91411933D01*
X155264172Y-91761092D01*
X155286669Y-91650000D01*
X155286669Y-90750000D01*
X155263644Y-90627635D01*
X155191327Y-90515251D01*
X155080983Y-90439856D01*
X154950000Y-90413331D01*
X153750000Y-90413331D01*
X153627635Y-90436356D01*
X153515251Y-90508673D01*
X153439856Y-90619017D01*
X153413331Y-90750000D01*
X153413331Y-91650000D01*
X153436356Y-91772365D01*
X153508673Y-91884749D01*
X153619017Y-91960144D01*
X153663166Y-91969085D01*
X153652085Y-91995771D01*
X153651851Y-92263547D01*
X153754109Y-92511029D01*
X153894894Y-92652059D01*
X153827017Y-92815525D01*
X153826813Y-93048451D01*
X151503621Y-95371643D01*
X151415524Y-95503488D01*
X151384589Y-95659011D01*
X151384589Y-102888749D01*
X151220695Y-103052358D01*
X151118006Y-103299661D01*
X151117772Y-103567437D01*
X151130912Y-103599237D01*
X150882695Y-103599237D01*
X150406400Y-103122942D01*
X150406400Y-102736400D01*
X150375465Y-102580877D01*
X150287368Y-102449032D01*
X150050269Y-102211933D01*
X150050269Y-101550000D01*
X150027244Y-101427635D01*
X149954927Y-101315251D01*
X149844583Y-101239856D01*
X149713600Y-101213331D01*
X148513600Y-101213331D01*
X148391235Y-101236356D01*
X148278851Y-101308673D01*
X148203456Y-101419017D01*
X148176931Y-101550000D01*
X148176931Y-102450000D01*
X148199956Y-102572365D01*
X148272273Y-102684749D01*
X148382617Y-102760144D01*
X148513600Y-102786669D01*
X149475533Y-102786669D01*
X149584264Y-102895400D01*
X147894384Y-102895400D01*
X148008861Y-102780922D01*
X148097800Y-102566204D01*
X148097800Y-102323850D01*
X147951750Y-102177800D01*
X147091400Y-102177800D01*
X147091400Y-102197800D01*
X146735800Y-102197800D01*
X146735800Y-102177800D01*
X145875450Y-102177800D01*
X145729400Y-102323850D01*
X145729400Y-102566204D01*
X145818339Y-102780922D01*
X145958486Y-102921070D01*
X145922294Y-102928269D01*
X145835193Y-102986467D01*
X145795042Y-102946246D01*
X145547739Y-102843557D01*
X145279963Y-102843323D01*
X145032481Y-102945581D01*
X144842970Y-103134762D01*
X144740281Y-103382065D01*
X144740047Y-103649841D01*
X144842305Y-103897323D01*
X145031486Y-104086834D01*
X145278789Y-104189523D01*
X145546565Y-104189757D01*
X145794047Y-104087499D01*
X145866820Y-104014853D01*
X145866783Y-104057421D01*
X145890177Y-104114039D01*
X145785139Y-104219078D01*
X145696200Y-104433796D01*
X145696200Y-104676150D01*
X145842250Y-104822200D01*
X146702600Y-104822200D01*
X146702600Y-104802200D01*
X147058200Y-104802200D01*
X147058200Y-104822200D01*
X147918550Y-104822200D01*
X148030246Y-104710504D01*
X148143731Y-104823989D01*
X148143731Y-105450000D01*
X148166756Y-105572365D01*
X148239073Y-105684749D01*
X148349417Y-105760144D01*
X148480400Y-105786669D01*
X149258012Y-105786669D01*
X149671778Y-106200435D01*
X149574786Y-106265243D01*
X149563072Y-106273070D01*
X149100000Y-106736142D01*
X148158529Y-105794671D01*
X148129785Y-105775465D01*
X148018443Y-105701069D01*
X148009476Y-105699285D01*
X148064600Y-105566204D01*
X148064600Y-105323850D01*
X147918550Y-105177800D01*
X147058200Y-105177800D01*
X147058200Y-105197800D01*
X146702600Y-105197800D01*
X146702600Y-105177800D01*
X145842250Y-105177800D01*
X145696200Y-105323850D01*
X145696200Y-105566204D01*
X145785139Y-105780922D01*
X145949477Y-105945261D01*
X146164195Y-106034200D01*
X146483909Y-106034200D01*
X146379706Y-106138222D01*
X146277017Y-106385525D01*
X146276783Y-106653301D01*
X146379041Y-106900783D01*
X146443945Y-106965800D01*
X146183795Y-106965800D01*
X145969077Y-107054739D01*
X145804739Y-107219078D01*
X145715800Y-107433796D01*
X145715800Y-107676150D01*
X145861850Y-107822200D01*
X146722200Y-107822200D01*
X146722200Y-107802200D01*
X147077800Y-107802200D01*
X147077800Y-107822200D01*
X147938150Y-107822200D01*
X148084200Y-107676150D01*
X148084200Y-107433796D01*
X147995261Y-107219078D01*
X147830923Y-107054739D01*
X147616205Y-106965800D01*
X147456160Y-106965800D01*
X147520294Y-106901778D01*
X147622983Y-106654475D01*
X147623090Y-106531800D01*
X147674342Y-106531800D01*
X148378699Y-107236156D01*
X148377635Y-107236356D01*
X148265251Y-107308673D01*
X148189856Y-107419017D01*
X148163331Y-107550000D01*
X148163331Y-108450000D01*
X148186356Y-108572365D01*
X148258673Y-108684749D01*
X148369017Y-108760144D01*
X148500000Y-108786669D01*
X149700000Y-108786669D01*
X149822365Y-108763644D01*
X149934749Y-108691327D01*
X150010144Y-108580983D01*
X150036669Y-108450000D01*
X150036669Y-107550000D01*
X150013644Y-107427635D01*
X149941327Y-107315251D01*
X149830983Y-107239856D01*
X149819855Y-107237603D01*
X150047259Y-107010199D01*
X151424119Y-107010199D01*
X151589362Y-106977330D01*
X151729448Y-106883728D01*
X153380954Y-105232222D01*
X154960296Y-105232222D01*
X154916822Y-105336920D01*
X154916769Y-105397368D01*
X154705099Y-105397183D01*
X154457617Y-105499441D01*
X154268106Y-105688622D01*
X154165417Y-105935925D01*
X154165183Y-106203701D01*
X154267441Y-106451183D01*
X154456622Y-106640694D01*
X154703925Y-106743383D01*
X154971701Y-106743617D01*
X155219183Y-106641359D01*
X155384029Y-106476800D01*
X155801753Y-106476800D01*
X155749727Y-106528735D01*
X155647038Y-106776038D01*
X155646804Y-107043814D01*
X155747577Y-107287702D01*
X155608767Y-107426270D01*
X155506078Y-107673573D01*
X155505844Y-107941349D01*
X155608102Y-108188831D01*
X155777679Y-108358704D01*
X155736400Y-108399911D01*
X155633711Y-108647214D01*
X155633477Y-108914990D01*
X155703849Y-109085303D01*
X155490228Y-109173570D01*
X155300717Y-109362751D01*
X155198028Y-109610054D01*
X155197794Y-109877830D01*
X155300052Y-110125312D01*
X155414923Y-110240383D01*
X154833404Y-110240383D01*
X154677881Y-110271318D01*
X154609984Y-110316686D01*
X154357204Y-110316465D01*
X154109722Y-110418723D01*
X153920211Y-110607904D01*
X153817522Y-110855207D01*
X153817288Y-111122983D01*
X153919546Y-111370465D01*
X154093955Y-111545179D01*
X153892944Y-111545003D01*
X153645462Y-111647261D01*
X153455951Y-111836442D01*
X153353262Y-112083745D01*
X153353028Y-112351521D01*
X153455286Y-112599003D01*
X153637441Y-112781476D01*
X153493179Y-112841084D01*
X153303668Y-113030265D01*
X153200979Y-113277568D01*
X153200745Y-113545344D01*
X153303003Y-113792826D01*
X153427640Y-113917680D01*
X153320901Y-113917587D01*
X153073419Y-114019845D01*
X152883908Y-114209026D01*
X152781219Y-114456329D01*
X152780985Y-114724105D01*
X152883243Y-114971587D01*
X153072424Y-115161098D01*
X153319727Y-115263787D01*
X153587503Y-115264021D01*
X153834985Y-115161763D01*
X154014935Y-114982127D01*
X154094658Y-114966269D01*
X154226503Y-114878172D01*
X154327640Y-114777035D01*
X154317556Y-114801320D01*
X154317322Y-115069096D01*
X154419580Y-115316578D01*
X154608761Y-115506089D01*
X154631736Y-115515629D01*
X154305922Y-115515629D01*
X154142313Y-115351735D01*
X153895010Y-115249046D01*
X153627234Y-115248812D01*
X153379752Y-115351070D01*
X153190241Y-115540251D01*
X153087552Y-115787554D01*
X153087318Y-116055330D01*
X153189576Y-116302812D01*
X153378757Y-116492323D01*
X153626060Y-116595012D01*
X153786982Y-116595153D01*
X153786783Y-116823301D01*
X153889041Y-117070783D01*
X154078222Y-117260294D01*
X154325525Y-117362983D01*
X154593301Y-117363217D01*
X154840783Y-117260959D01*
X154948022Y-117153907D01*
X154971636Y-117272624D01*
X155008156Y-117327279D01*
X155017004Y-117340521D01*
X155016783Y-117593301D01*
X155119041Y-117840783D01*
X155308222Y-118030294D01*
X155555525Y-118132983D01*
X155823301Y-118133217D01*
X156070783Y-118030959D01*
X156260294Y-117841778D01*
X156362983Y-117594475D01*
X156363187Y-117360805D01*
X156407045Y-117404739D01*
X156654348Y-117507428D01*
X156922124Y-117507662D01*
X157169606Y-117405404D01*
X157359117Y-117216223D01*
X157461806Y-116968920D01*
X157461959Y-116794244D01*
X157616038Y-116730580D01*
X157582634Y-116811026D01*
X157582400Y-117078802D01*
X157684658Y-117326284D01*
X157873839Y-117515795D01*
X158121142Y-117618484D01*
X158388918Y-117618718D01*
X158636400Y-117516460D01*
X158825911Y-117327279D01*
X158928600Y-117079976D01*
X158928834Y-116812200D01*
X158871677Y-116673870D01*
X158935144Y-116580983D01*
X158961669Y-116450000D01*
X158961669Y-116100000D01*
X158943625Y-116004105D01*
X158961669Y-115915000D01*
X158961669Y-115685000D01*
X158945088Y-115596880D01*
X158961669Y-115515000D01*
X158961669Y-115285000D01*
X158945088Y-115196880D01*
X158961669Y-115115000D01*
X158961669Y-114885000D01*
X158945088Y-114796880D01*
X158961669Y-114715000D01*
X158961669Y-114485000D01*
X158945088Y-114396880D01*
X158961669Y-114315000D01*
X158961669Y-114085000D01*
X158945088Y-113996880D01*
X158961669Y-113915000D01*
X158961669Y-113685000D01*
X158945088Y-113596880D01*
X158961669Y-113515000D01*
X158961669Y-113285000D01*
X158945088Y-113196880D01*
X158961669Y-113115000D01*
X158961669Y-112885000D01*
X158945088Y-112796880D01*
X158961669Y-112715000D01*
X158961669Y-112485000D01*
X158945088Y-112396880D01*
X158961669Y-112315000D01*
X158961669Y-112085000D01*
X158945088Y-111996880D01*
X158961669Y-111915000D01*
X158961669Y-111685000D01*
X158945088Y-111596880D01*
X158961669Y-111515000D01*
X158961669Y-111285000D01*
X158945088Y-111196880D01*
X158961669Y-111115000D01*
X158961669Y-110885000D01*
X158945088Y-110796880D01*
X158961669Y-110715000D01*
X158961669Y-110485000D01*
X158945088Y-110396880D01*
X158961669Y-110315000D01*
X158961669Y-110085000D01*
X158945088Y-109996880D01*
X158961669Y-109915000D01*
X158961669Y-109685000D01*
X158945088Y-109596880D01*
X158961669Y-109515000D01*
X158961669Y-109285000D01*
X158945088Y-109196880D01*
X158961669Y-109115000D01*
X158961669Y-108885000D01*
X158945088Y-108796880D01*
X158961669Y-108715000D01*
X158961669Y-108485000D01*
X158945088Y-108396880D01*
X158961669Y-108315000D01*
X158961669Y-108085000D01*
X158945088Y-107996880D01*
X158961669Y-107915000D01*
X158961669Y-107685000D01*
X158945088Y-107596880D01*
X158961669Y-107515000D01*
X158961669Y-107285000D01*
X158945088Y-107196880D01*
X158961669Y-107115000D01*
X158961669Y-106885000D01*
X158945088Y-106796880D01*
X158961669Y-106715000D01*
X158961669Y-106485000D01*
X158945088Y-106396880D01*
X158961669Y-106315000D01*
X158961669Y-106206400D01*
X159531067Y-106206400D01*
X159686590Y-106175465D01*
X159818435Y-106087368D01*
X160232557Y-105673246D01*
X160270593Y-105616322D01*
X160320654Y-105541401D01*
X160338331Y-105452531D01*
X160338331Y-105515000D01*
X160354912Y-105603120D01*
X160338331Y-105685000D01*
X160338331Y-105915000D01*
X160351793Y-105986543D01*
X160344077Y-105989739D01*
X160179739Y-106154078D01*
X160090800Y-106368796D01*
X160090800Y-106396450D01*
X160214083Y-106519733D01*
X160179739Y-106554078D01*
X160090800Y-106768796D01*
X160090800Y-106796450D01*
X160094350Y-106800000D01*
X160090800Y-106803550D01*
X160090800Y-106831204D01*
X160160718Y-107000000D01*
X160090800Y-107168796D01*
X160090800Y-107196450D01*
X160094350Y-107200000D01*
X160090800Y-107203550D01*
X160090800Y-107231204D01*
X160160718Y-107400000D01*
X160090800Y-107568796D01*
X160090800Y-107596450D01*
X160094350Y-107600000D01*
X160090800Y-107603550D01*
X160090800Y-107631204D01*
X160160718Y-107800000D01*
X160090800Y-107968796D01*
X160090800Y-107996450D01*
X160094350Y-108000000D01*
X160090800Y-108003550D01*
X160090800Y-108031204D01*
X160160718Y-108200000D01*
X160090800Y-108368796D01*
X160090800Y-108396450D01*
X160094350Y-108400000D01*
X160090800Y-108403550D01*
X160090800Y-108431204D01*
X160160718Y-108600000D01*
X160090800Y-108768796D01*
X160090800Y-108796450D01*
X160094350Y-108800000D01*
X160090800Y-108803550D01*
X160090800Y-108831204D01*
X160160718Y-109000000D01*
X160090800Y-109168796D01*
X160090800Y-109196450D01*
X160094350Y-109200000D01*
X160090800Y-109203550D01*
X160090800Y-109231204D01*
X160179739Y-109445922D01*
X160214083Y-109480267D01*
X160090800Y-109603550D01*
X160090800Y-109631204D01*
X160179739Y-109845922D01*
X160344077Y-110010261D01*
X160352740Y-110013849D01*
X160338331Y-110085000D01*
X160338331Y-110315000D01*
X160354912Y-110403120D01*
X160338331Y-110485000D01*
X160338331Y-110715000D01*
X160354912Y-110803120D01*
X160338331Y-110885000D01*
X160338331Y-111115000D01*
X160354912Y-111203120D01*
X160338331Y-111285000D01*
X160338331Y-111515000D01*
X160354912Y-111603120D01*
X160338331Y-111685000D01*
X160338331Y-111915000D01*
X160354912Y-112003120D01*
X160338331Y-112085000D01*
X160338331Y-112315000D01*
X160354912Y-112403120D01*
X160338331Y-112485000D01*
X160338331Y-112715000D01*
X160354912Y-112803120D01*
X160338331Y-112885000D01*
X160338331Y-113115000D01*
X160354912Y-113203120D01*
X160338331Y-113285000D01*
X160338331Y-113515000D01*
X160354912Y-113603120D01*
X160338331Y-113685000D01*
X160338331Y-113915000D01*
X160354912Y-114003120D01*
X160338331Y-114085000D01*
X160338331Y-114315000D01*
X160354912Y-114403120D01*
X160338331Y-114485000D01*
X160338331Y-114715000D01*
X160354912Y-114803120D01*
X160338331Y-114885000D01*
X160338331Y-115115000D01*
X160354912Y-115203120D01*
X160338331Y-115285000D01*
X160338331Y-115515000D01*
X160354912Y-115603120D01*
X160338331Y-115685000D01*
X160338331Y-115915000D01*
X160356375Y-116010895D01*
X160338331Y-116100000D01*
X160338331Y-116450000D01*
X160361356Y-116572365D01*
X160428077Y-116676053D01*
X160372032Y-116811026D01*
X160371798Y-117078802D01*
X160474056Y-117326284D01*
X160663237Y-117515795D01*
X160910540Y-117618484D01*
X161178316Y-117618718D01*
X161425798Y-117516460D01*
X161615309Y-117327279D01*
X161717998Y-117079976D01*
X161718232Y-116812200D01*
X161682824Y-116726507D01*
X161780791Y-116767186D01*
X161780586Y-117001533D01*
X161882844Y-117249015D01*
X162072025Y-117438526D01*
X162319328Y-117541215D01*
X162587104Y-117541449D01*
X162834586Y-117439191D01*
X163024097Y-117250010D01*
X163078347Y-117119362D01*
X163311406Y-117119566D01*
X163417052Y-117075914D01*
X163425496Y-117096350D01*
X163614677Y-117285861D01*
X163861980Y-117388550D01*
X164129756Y-117388784D01*
X164377238Y-117286526D01*
X164566749Y-117097345D01*
X164669438Y-116850042D01*
X164669489Y-116791756D01*
X164979621Y-116791756D01*
X165117874Y-116930250D01*
X165365177Y-117032939D01*
X165632953Y-117033173D01*
X165880435Y-116930915D01*
X166069946Y-116741734D01*
X166172635Y-116494431D01*
X166172869Y-116226655D01*
X166146467Y-116162759D01*
X166181058Y-116148466D01*
X166370569Y-115959285D01*
X166473258Y-115711982D01*
X166473492Y-115444206D01*
X166371234Y-115196724D01*
X166222610Y-115047841D01*
X166324451Y-115090129D01*
X166592227Y-115090363D01*
X166839709Y-114988105D01*
X167029220Y-114798924D01*
X167131909Y-114551621D01*
X167132143Y-114283845D01*
X167118996Y-114252026D01*
X179348118Y-114252026D01*
X183715514Y-118619421D01*
X183536468Y-118739056D01*
X183277685Y-119126353D01*
X183186812Y-119583200D01*
X183277685Y-120040047D01*
X183536468Y-120427344D01*
X183923765Y-120686127D01*
X184380612Y-120777000D01*
X184427388Y-120777000D01*
X184884235Y-120686127D01*
X185271532Y-120427344D01*
X185530315Y-120040047D01*
X185621188Y-119583200D01*
X185530315Y-119126353D01*
X185377333Y-118897399D01*
X185647541Y-118897399D01*
X185841241Y-119091099D01*
X185817685Y-119126353D01*
X185726812Y-119583200D01*
X185817685Y-120040047D01*
X186076468Y-120427344D01*
X186463765Y-120686127D01*
X186920612Y-120777000D01*
X186967388Y-120777000D01*
X187424235Y-120686127D01*
X187811532Y-120427344D01*
X187844800Y-120377555D01*
X187844800Y-121328845D01*
X187811532Y-121279056D01*
X187424235Y-121020273D01*
X186967388Y-120929400D01*
X186920612Y-120929400D01*
X186463765Y-121020273D01*
X186076468Y-121279056D01*
X185817685Y-121666353D01*
X185726812Y-122123200D01*
X185817685Y-122580047D01*
X186076468Y-122967344D01*
X186463765Y-123226127D01*
X186920612Y-123317000D01*
X186967388Y-123317000D01*
X187424235Y-123226127D01*
X187811532Y-122967344D01*
X187844800Y-122917555D01*
X187844800Y-123210093D01*
X187658979Y-124144277D01*
X187152410Y-124902412D01*
X186394277Y-125408979D01*
X185460092Y-125594800D01*
X174605222Y-125594800D01*
X174838927Y-125245035D01*
X174929800Y-124788188D01*
X174929800Y-124741412D01*
X174838927Y-124284565D01*
X174580144Y-123897268D01*
X174192847Y-123638485D01*
X173736000Y-123547612D01*
X173279153Y-123638485D01*
X172891856Y-123897268D01*
X172633073Y-124284565D01*
X172542200Y-124741412D01*
X172542200Y-124788188D01*
X172633073Y-125245035D01*
X172866778Y-125594800D01*
X172065222Y-125594800D01*
X172298927Y-125245035D01*
X172389800Y-124788188D01*
X172389800Y-124741412D01*
X172298927Y-124284565D01*
X172040144Y-123897268D01*
X171652847Y-123638485D01*
X171196000Y-123547612D01*
X170739153Y-123638485D01*
X170351856Y-123897268D01*
X170093073Y-124284565D01*
X170002200Y-124741412D01*
X170002200Y-124788188D01*
X170093073Y-125245035D01*
X170326778Y-125594800D01*
X169525222Y-125594800D01*
X169758927Y-125245035D01*
X169849800Y-124788188D01*
X169849800Y-124741412D01*
X169758927Y-124284565D01*
X169500144Y-123897268D01*
X169112847Y-123638485D01*
X168656000Y-123547612D01*
X168199153Y-123638485D01*
X167811856Y-123897268D01*
X167553073Y-124284565D01*
X167462200Y-124741412D01*
X167462200Y-124788188D01*
X167553073Y-125245035D01*
X167786778Y-125594800D01*
X158172269Y-125594800D01*
X158172269Y-123647200D01*
X158165731Y-123612452D01*
X161419483Y-123612452D01*
X161697527Y-124285371D01*
X162211921Y-124800664D01*
X162884354Y-125079882D01*
X163612452Y-125080517D01*
X164285371Y-124802473D01*
X164800664Y-124288079D01*
X165079882Y-123615646D01*
X165080517Y-122887548D01*
X164802473Y-122214629D01*
X164789280Y-122201412D01*
X167462200Y-122201412D01*
X167462200Y-122248188D01*
X167553073Y-122705035D01*
X167811856Y-123092332D01*
X168199153Y-123351115D01*
X168656000Y-123441988D01*
X169112847Y-123351115D01*
X169500144Y-123092332D01*
X169758927Y-122705035D01*
X169849800Y-122248188D01*
X169849800Y-122201412D01*
X170002200Y-122201412D01*
X170002200Y-122248188D01*
X170093073Y-122705035D01*
X170351856Y-123092332D01*
X170739153Y-123351115D01*
X171196000Y-123441988D01*
X171652847Y-123351115D01*
X172040144Y-123092332D01*
X172298927Y-122705035D01*
X172389800Y-122248188D01*
X172389800Y-122201412D01*
X172298927Y-121744565D01*
X172042772Y-121361200D01*
X172535731Y-121361200D01*
X172535731Y-123088400D01*
X172558756Y-123210765D01*
X172631073Y-123323149D01*
X172741417Y-123398544D01*
X172872400Y-123425069D01*
X174599600Y-123425069D01*
X174721965Y-123402044D01*
X174834349Y-123329727D01*
X174909744Y-123219383D01*
X174936269Y-123088400D01*
X174936269Y-122123200D01*
X183186812Y-122123200D01*
X183277685Y-122580047D01*
X183536468Y-122967344D01*
X183923765Y-123226127D01*
X184380612Y-123317000D01*
X184427388Y-123317000D01*
X184884235Y-123226127D01*
X185271532Y-122967344D01*
X185530315Y-122580047D01*
X185621188Y-122123200D01*
X185530315Y-121666353D01*
X185271532Y-121279056D01*
X184884235Y-121020273D01*
X184427388Y-120929400D01*
X184380612Y-120929400D01*
X183923765Y-121020273D01*
X183536468Y-121279056D01*
X183277685Y-121666353D01*
X183186812Y-122123200D01*
X174936269Y-122123200D01*
X174936269Y-121361200D01*
X174913244Y-121238835D01*
X174840927Y-121126451D01*
X174730583Y-121051056D01*
X174599600Y-121024531D01*
X172872400Y-121024531D01*
X172750035Y-121047556D01*
X172637651Y-121119873D01*
X172562256Y-121230217D01*
X172535731Y-121361200D01*
X172042772Y-121361200D01*
X172040144Y-121357268D01*
X171652847Y-121098485D01*
X171196000Y-121007612D01*
X170739153Y-121098485D01*
X170351856Y-121357268D01*
X170093073Y-121744565D01*
X170002200Y-122201412D01*
X169849800Y-122201412D01*
X169758927Y-121744565D01*
X169500144Y-121357268D01*
X169112847Y-121098485D01*
X168656000Y-121007612D01*
X168199153Y-121098485D01*
X167811856Y-121357268D01*
X167553073Y-121744565D01*
X167462200Y-122201412D01*
X164789280Y-122201412D01*
X164288079Y-121699336D01*
X163615646Y-121420118D01*
X162887548Y-121419483D01*
X162214629Y-121697527D01*
X161699336Y-122211921D01*
X161420118Y-122884354D01*
X161419483Y-123612452D01*
X158165731Y-123612452D01*
X158149244Y-123524835D01*
X158076927Y-123412451D01*
X157966583Y-123337056D01*
X157835600Y-123310531D01*
X156108400Y-123310531D01*
X155986035Y-123333556D01*
X155873651Y-123405873D01*
X155798256Y-123516217D01*
X155771731Y-123647200D01*
X155771731Y-125594800D01*
X155337161Y-125594800D01*
X155534927Y-125298821D01*
X155625800Y-124841974D01*
X155625800Y-124484426D01*
X155534927Y-124027579D01*
X155276144Y-123640282D01*
X154888847Y-123381499D01*
X154432000Y-123290626D01*
X153975153Y-123381499D01*
X153587856Y-123640282D01*
X153329073Y-124027579D01*
X153238200Y-124484426D01*
X153238200Y-124841974D01*
X153329073Y-125298821D01*
X153526839Y-125594800D01*
X152797161Y-125594800D01*
X152994927Y-125298821D01*
X153085800Y-124841974D01*
X153085800Y-124484426D01*
X152994927Y-124027579D01*
X152736144Y-123640282D01*
X152348847Y-123381499D01*
X151892000Y-123290626D01*
X151435153Y-123381499D01*
X151047856Y-123640282D01*
X150789073Y-124027579D01*
X150698200Y-124484426D01*
X150698200Y-124841974D01*
X150789073Y-125298821D01*
X150986839Y-125594800D01*
X150257161Y-125594800D01*
X150454927Y-125298821D01*
X150545800Y-124841974D01*
X150545800Y-124484426D01*
X150454927Y-124027579D01*
X150196144Y-123640282D01*
X149808847Y-123381499D01*
X149352000Y-123290626D01*
X148895153Y-123381499D01*
X148507856Y-123640282D01*
X148249073Y-124027579D01*
X148158200Y-124484426D01*
X148158200Y-124841974D01*
X148249073Y-125298821D01*
X148446839Y-125594800D01*
X147717161Y-125594800D01*
X147914927Y-125298821D01*
X148005800Y-124841974D01*
X148005800Y-124484426D01*
X147914927Y-124027579D01*
X147656144Y-123640282D01*
X147268847Y-123381499D01*
X146812000Y-123290626D01*
X146355153Y-123381499D01*
X145967856Y-123640282D01*
X145709073Y-124027579D01*
X145618200Y-124484426D01*
X145618200Y-124841974D01*
X145709073Y-125298821D01*
X145906839Y-125594800D01*
X145177161Y-125594800D01*
X145374927Y-125298821D01*
X145465800Y-124841974D01*
X145465800Y-124484426D01*
X145374927Y-124027579D01*
X145116144Y-123640282D01*
X144728847Y-123381499D01*
X144272000Y-123290626D01*
X143815153Y-123381499D01*
X143427856Y-123640282D01*
X143169073Y-124027579D01*
X143078200Y-124484426D01*
X143078200Y-124841974D01*
X143169073Y-125298821D01*
X143366839Y-125594800D01*
X142637161Y-125594800D01*
X142834927Y-125298821D01*
X142925800Y-124841974D01*
X142925800Y-124484426D01*
X142834927Y-124027579D01*
X142576144Y-123640282D01*
X142188847Y-123381499D01*
X141732000Y-123290626D01*
X141275153Y-123381499D01*
X140887856Y-123640282D01*
X140629073Y-124027579D01*
X140538200Y-124484426D01*
X140538200Y-124841974D01*
X140629073Y-125298821D01*
X140826839Y-125594800D01*
X140097161Y-125594800D01*
X140294927Y-125298821D01*
X140385800Y-124841974D01*
X140385800Y-124484426D01*
X140294927Y-124027579D01*
X140036144Y-123640282D01*
X139648847Y-123381499D01*
X139192000Y-123290626D01*
X138735153Y-123381499D01*
X138347856Y-123640282D01*
X138089073Y-124027579D01*
X137998200Y-124484426D01*
X137998200Y-124841974D01*
X138089073Y-125298821D01*
X138286839Y-125594800D01*
X119389907Y-125594800D01*
X118455723Y-125408979D01*
X117697588Y-124902410D01*
X117191021Y-124144277D01*
X117085235Y-123612452D01*
X130919483Y-123612452D01*
X131197527Y-124285371D01*
X131711921Y-124800664D01*
X132384354Y-125079882D01*
X133112452Y-125080517D01*
X133785371Y-124802473D01*
X134300664Y-124288079D01*
X134579882Y-123615646D01*
X134580517Y-122887548D01*
X134302473Y-122214629D01*
X133788079Y-121699336D01*
X133115646Y-121420118D01*
X132387548Y-121419483D01*
X131714629Y-121697527D01*
X131199336Y-122211921D01*
X130920118Y-122884354D01*
X130919483Y-123612452D01*
X117085235Y-123612452D01*
X117005200Y-123210092D01*
X117005200Y-121251324D01*
X117375765Y-121498927D01*
X117832612Y-121589800D01*
X117879388Y-121589800D01*
X118336235Y-121498927D01*
X118723532Y-121240144D01*
X118982315Y-120852847D01*
X119073188Y-120396000D01*
X118982315Y-119939153D01*
X118723532Y-119551856D01*
X118336235Y-119293073D01*
X117879388Y-119202200D01*
X117832612Y-119202200D01*
X117375765Y-119293073D01*
X117005200Y-119540676D01*
X117005200Y-118711324D01*
X117375765Y-118958927D01*
X117832612Y-119049800D01*
X117879388Y-119049800D01*
X118336235Y-118958927D01*
X118723532Y-118700144D01*
X118982315Y-118312847D01*
X119073188Y-117856000D01*
X118982315Y-117399153D01*
X118723532Y-117011856D01*
X118336235Y-116753073D01*
X117879388Y-116662200D01*
X117832612Y-116662200D01*
X117375765Y-116753073D01*
X117005200Y-117000676D01*
X117005200Y-116171324D01*
X117375765Y-116418927D01*
X117832612Y-116509800D01*
X117879388Y-116509800D01*
X118336235Y-116418927D01*
X118723532Y-116160144D01*
X118982315Y-115772847D01*
X119073188Y-115316000D01*
X118982315Y-114859153D01*
X118723532Y-114471856D01*
X118336235Y-114213073D01*
X117879388Y-114122200D01*
X117832612Y-114122200D01*
X117375765Y-114213073D01*
X117005200Y-114460676D01*
X117005200Y-113631324D01*
X117375765Y-113878927D01*
X117832612Y-113969800D01*
X117879388Y-113969800D01*
X118336235Y-113878927D01*
X118723532Y-113620144D01*
X118982315Y-113232847D01*
X119073188Y-112776000D01*
X118982315Y-112319153D01*
X118723532Y-111931856D01*
X118336235Y-111673073D01*
X117879388Y-111582200D01*
X117832612Y-111582200D01*
X117375765Y-111673073D01*
X117005200Y-111920676D01*
X117005200Y-111091324D01*
X117375765Y-111338927D01*
X117832612Y-111429800D01*
X117879388Y-111429800D01*
X118336235Y-111338927D01*
X118723532Y-111080144D01*
X118982315Y-110692847D01*
X119073188Y-110236000D01*
X118982315Y-109779153D01*
X118723532Y-109391856D01*
X118336235Y-109133073D01*
X117879388Y-109042200D01*
X117832612Y-109042200D01*
X117375765Y-109133073D01*
X117005200Y-109380676D01*
X117005200Y-108551324D01*
X117375765Y-108798927D01*
X117832612Y-108889800D01*
X117879388Y-108889800D01*
X118336235Y-108798927D01*
X118723532Y-108540144D01*
X118982315Y-108152847D01*
X119073188Y-107696000D01*
X118982315Y-107239153D01*
X118723532Y-106851856D01*
X118336235Y-106593073D01*
X117879388Y-106502200D01*
X117832612Y-106502200D01*
X117375765Y-106593073D01*
X117005200Y-106840676D01*
X117005200Y-106011324D01*
X117375765Y-106258927D01*
X117832612Y-106349800D01*
X117879388Y-106349800D01*
X118336235Y-106258927D01*
X118343449Y-106254106D01*
X118414268Y-106324925D01*
X118414270Y-106324928D01*
X118894669Y-106805326D01*
X118894671Y-106805329D01*
X118964304Y-106851856D01*
X119034758Y-106898932D01*
X119200000Y-106931801D01*
X119200005Y-106931800D01*
X119475051Y-106931800D01*
X119269685Y-107239153D01*
X119178812Y-107696000D01*
X119269685Y-108152847D01*
X119528468Y-108540144D01*
X119915765Y-108798927D01*
X120372612Y-108889800D01*
X120419388Y-108889800D01*
X120876235Y-108798927D01*
X121263532Y-108540144D01*
X121363600Y-108390381D01*
X121363600Y-109541619D01*
X121263532Y-109391856D01*
X120876235Y-109133073D01*
X120419388Y-109042200D01*
X120372612Y-109042200D01*
X119915765Y-109133073D01*
X119528468Y-109391856D01*
X119269685Y-109779153D01*
X119178812Y-110236000D01*
X119269685Y-110692847D01*
X119528468Y-111080144D01*
X119915765Y-111338927D01*
X120372612Y-111429800D01*
X120419388Y-111429800D01*
X120876235Y-111338927D01*
X121263532Y-111080144D01*
X121363600Y-110930381D01*
X121363600Y-112081619D01*
X121263532Y-111931856D01*
X120876235Y-111673073D01*
X120419388Y-111582200D01*
X120372612Y-111582200D01*
X119915765Y-111673073D01*
X119528468Y-111931856D01*
X119269685Y-112319153D01*
X119178812Y-112776000D01*
X119269685Y-113232847D01*
X119528468Y-113620144D01*
X119915765Y-113878927D01*
X120372612Y-113969800D01*
X120419388Y-113969800D01*
X120876235Y-113878927D01*
X121263532Y-113620144D01*
X121363600Y-113470381D01*
X121363600Y-114621619D01*
X121263532Y-114471856D01*
X120876235Y-114213073D01*
X120419388Y-114122200D01*
X120372612Y-114122200D01*
X119915765Y-114213073D01*
X119528468Y-114471856D01*
X119269685Y-114859153D01*
X119178812Y-115316000D01*
X119269685Y-115772847D01*
X119528468Y-116160144D01*
X119915765Y-116418927D01*
X120372612Y-116509800D01*
X120419388Y-116509800D01*
X120876235Y-116418927D01*
X121263532Y-116160144D01*
X121363600Y-116010381D01*
X121363600Y-117161619D01*
X121263532Y-117011856D01*
X120876235Y-116753073D01*
X120419388Y-116662200D01*
X120372612Y-116662200D01*
X119915765Y-116753073D01*
X119528468Y-117011856D01*
X119269685Y-117399153D01*
X119178812Y-117856000D01*
X119269685Y-118312847D01*
X119528468Y-118700144D01*
X119915765Y-118958927D01*
X120372612Y-119049800D01*
X120419388Y-119049800D01*
X120876235Y-118958927D01*
X121263532Y-118700144D01*
X121363600Y-118550381D01*
X121363600Y-119216792D01*
X121259600Y-119195731D01*
X119532400Y-119195731D01*
X119410035Y-119218756D01*
X119297651Y-119291073D01*
X119222256Y-119401417D01*
X119195731Y-119532400D01*
X119195731Y-121259600D01*
X119218756Y-121381965D01*
X119291073Y-121494349D01*
X119401417Y-121569744D01*
X119532400Y-121596269D01*
X121259600Y-121596269D01*
X121381965Y-121573244D01*
X121483301Y-121508037D01*
X121586985Y-121611721D01*
X121586783Y-121843301D01*
X121689041Y-122090783D01*
X121878222Y-122280294D01*
X122125525Y-122382983D01*
X122393301Y-122383217D01*
X122640783Y-122280959D01*
X122830294Y-122091778D01*
X122932983Y-121844475D01*
X122933217Y-121576699D01*
X122830959Y-121329217D01*
X122641778Y-121139706D01*
X122394475Y-121037017D01*
X122176400Y-121036826D01*
X122176400Y-107065387D01*
X122340294Y-106901778D01*
X122442983Y-106654475D01*
X122443217Y-106386699D01*
X122347439Y-106154899D01*
X124139734Y-106154899D01*
X124127017Y-106185525D01*
X124126783Y-106453301D01*
X124229041Y-106700783D01*
X124393600Y-106865629D01*
X124393600Y-121131664D01*
X124098279Y-121426985D01*
X123866699Y-121426783D01*
X123619217Y-121529041D01*
X123429706Y-121718222D01*
X123327017Y-121965525D01*
X123326783Y-122233301D01*
X123429041Y-122480783D01*
X123618222Y-122670294D01*
X123865525Y-122772983D01*
X124133301Y-122773217D01*
X124380783Y-122670959D01*
X124570294Y-122481778D01*
X124672983Y-122234475D01*
X124673187Y-122001549D01*
X125087368Y-121587368D01*
X125099144Y-121569744D01*
X125175465Y-121455523D01*
X125206400Y-121300000D01*
X125206400Y-110673301D01*
X125246785Y-110673301D01*
X125349043Y-110920783D01*
X125513602Y-111085629D01*
X125513602Y-121020002D01*
X125544537Y-121175525D01*
X125632634Y-121307370D01*
X126326985Y-122001721D01*
X126326783Y-122233301D01*
X126429041Y-122480783D01*
X126618222Y-122670294D01*
X126865525Y-122772983D01*
X127133301Y-122773217D01*
X127380783Y-122670959D01*
X127570294Y-122481778D01*
X127672983Y-122234475D01*
X127673217Y-121966699D01*
X127570959Y-121719217D01*
X127381778Y-121529706D01*
X127134475Y-121427017D01*
X126901549Y-121426813D01*
X126326402Y-120851666D01*
X126326402Y-111085387D01*
X126490296Y-110921778D01*
X126592985Y-110674475D01*
X126593219Y-110406699D01*
X126490961Y-110159217D01*
X126301780Y-109969706D01*
X126054477Y-109867017D01*
X125786701Y-109866783D01*
X125539219Y-109969041D01*
X125349708Y-110158222D01*
X125247019Y-110405525D01*
X125246785Y-110673301D01*
X125206400Y-110673301D01*
X125206400Y-108323850D01*
X145715800Y-108323850D01*
X145715800Y-108566204D01*
X145804739Y-108780922D01*
X145969077Y-108945261D01*
X146183795Y-109034200D01*
X146576150Y-109034200D01*
X146722200Y-108888150D01*
X146722200Y-108177800D01*
X147077800Y-108177800D01*
X147077800Y-108888150D01*
X147223850Y-109034200D01*
X147616205Y-109034200D01*
X147830923Y-108945261D01*
X147995261Y-108780922D01*
X148084200Y-108566204D01*
X148084200Y-108323850D01*
X147938150Y-108177800D01*
X147077800Y-108177800D01*
X146722200Y-108177800D01*
X145861850Y-108177800D01*
X145715800Y-108323850D01*
X125206400Y-108323850D01*
X125206400Y-106865387D01*
X125370294Y-106701778D01*
X125472983Y-106454475D01*
X125473217Y-106186699D01*
X125460077Y-106154899D01*
X141354241Y-106154899D01*
X141636954Y-106437612D01*
X141636783Y-106633301D01*
X141739041Y-106880783D01*
X141928222Y-107070294D01*
X142175525Y-107172983D01*
X142443301Y-107173217D01*
X142690783Y-107070959D01*
X142880294Y-106881778D01*
X142982983Y-106634475D01*
X142983217Y-106366699D01*
X142880959Y-106119217D01*
X142691778Y-105929706D01*
X142444475Y-105827017D01*
X142247503Y-105826845D01*
X141838428Y-105417770D01*
X141827347Y-105410366D01*
X141698342Y-105324168D01*
X141533099Y-105291299D01*
X121683485Y-105291299D01*
X121582271Y-105311432D01*
X121613188Y-105156000D01*
X121522315Y-104699153D01*
X121263532Y-104311856D01*
X120876235Y-104053073D01*
X120419388Y-103962200D01*
X120372612Y-103962200D01*
X119915765Y-104053073D01*
X119528468Y-104311856D01*
X119269685Y-104699153D01*
X119178812Y-105156000D01*
X119269685Y-105612847D01*
X119528468Y-106000144D01*
X119630321Y-106068200D01*
X119378857Y-106068200D01*
X119024928Y-105714270D01*
X119024925Y-105714268D01*
X118958759Y-105648102D01*
X118982315Y-105612847D01*
X119073188Y-105156000D01*
X118982315Y-104699153D01*
X118723532Y-104311856D01*
X118336235Y-104053073D01*
X117879388Y-103962200D01*
X117832612Y-103962200D01*
X117375765Y-104053073D01*
X117005200Y-104300676D01*
X117005200Y-103471324D01*
X117375765Y-103718927D01*
X117832612Y-103809800D01*
X117879388Y-103809800D01*
X118336235Y-103718927D01*
X118723532Y-103460144D01*
X118982315Y-103072847D01*
X119073188Y-102616000D01*
X118982315Y-102159153D01*
X118958759Y-102123899D01*
X119152458Y-101930199D01*
X119422667Y-101930199D01*
X119269685Y-102159153D01*
X119178812Y-102616000D01*
X119269685Y-103072847D01*
X119528468Y-103460144D01*
X119915765Y-103718927D01*
X120372612Y-103809800D01*
X120419388Y-103809800D01*
X120876235Y-103718927D01*
X120883449Y-103714106D01*
X120954268Y-103784925D01*
X120954270Y-103784928D01*
X121394671Y-104225329D01*
X121534757Y-104318931D01*
X121700000Y-104351800D01*
X141679969Y-104351800D01*
X141818222Y-104490294D01*
X142065525Y-104592983D01*
X142333301Y-104593217D01*
X142580783Y-104490959D01*
X142770294Y-104301778D01*
X142851107Y-104107159D01*
X143073301Y-104107353D01*
X143320783Y-104005095D01*
X143510294Y-103815914D01*
X143612983Y-103568611D01*
X143613217Y-103300835D01*
X143510959Y-103053353D01*
X143321778Y-102863842D01*
X143074475Y-102761153D01*
X142865107Y-102760970D01*
X142861237Y-102758384D01*
X142762344Y-102692306D01*
X142597101Y-102659437D01*
X142145349Y-102659437D01*
X141980106Y-102692306D01*
X141881213Y-102758384D01*
X141840020Y-102785908D01*
X141730528Y-102895400D01*
X122940108Y-102895400D01*
X121478504Y-101433796D01*
X145729400Y-101433796D01*
X145729400Y-101676150D01*
X145875450Y-101822200D01*
X146735800Y-101822200D01*
X146735800Y-101111850D01*
X147091400Y-101111850D01*
X147091400Y-101822200D01*
X147951750Y-101822200D01*
X148097800Y-101676150D01*
X148097800Y-101433796D01*
X148008861Y-101219078D01*
X147844523Y-101054739D01*
X147629805Y-100965800D01*
X147237450Y-100965800D01*
X147091400Y-101111850D01*
X146735800Y-101111850D01*
X146589750Y-100965800D01*
X146197395Y-100965800D01*
X145982677Y-101054739D01*
X145818339Y-101219078D01*
X145729400Y-101433796D01*
X121478504Y-101433796D01*
X121237778Y-101193070D01*
X121231422Y-101188823D01*
X121097692Y-101099468D01*
X121018677Y-101083751D01*
X121263532Y-100920144D01*
X121522315Y-100532847D01*
X121613188Y-100076000D01*
X121522315Y-99619153D01*
X121263532Y-99231856D01*
X120876235Y-98973073D01*
X120419388Y-98882200D01*
X120372612Y-98882200D01*
X119915765Y-98973073D01*
X119528468Y-99231856D01*
X119269685Y-99619153D01*
X119178812Y-100076000D01*
X119269685Y-100532847D01*
X119528468Y-100920144D01*
X119747654Y-101066599D01*
X118973601Y-101066599D01*
X118808358Y-101099468D01*
X118668272Y-101193070D01*
X118668270Y-101193073D01*
X118343449Y-101517893D01*
X118336235Y-101513073D01*
X117879388Y-101422200D01*
X117832612Y-101422200D01*
X117375765Y-101513073D01*
X117005200Y-101760676D01*
X117005200Y-100931324D01*
X117375765Y-101178927D01*
X117832612Y-101269800D01*
X117879388Y-101269800D01*
X118336235Y-101178927D01*
X118723532Y-100920144D01*
X118982315Y-100532847D01*
X119073188Y-100076000D01*
X118982315Y-99619153D01*
X118723532Y-99231856D01*
X118336235Y-98973073D01*
X117879388Y-98882200D01*
X117832612Y-98882200D01*
X117375765Y-98973073D01*
X117005200Y-99220676D01*
X117005200Y-98391324D01*
X117375765Y-98638927D01*
X117832612Y-98729800D01*
X117879388Y-98729800D01*
X118336235Y-98638927D01*
X118723532Y-98380144D01*
X118982315Y-97992847D01*
X119073188Y-97536000D01*
X119178812Y-97536000D01*
X119269685Y-97992847D01*
X119528468Y-98380144D01*
X119915765Y-98638927D01*
X120372612Y-98729800D01*
X120419388Y-98729800D01*
X120876235Y-98638927D01*
X121263532Y-98380144D01*
X121522315Y-97992847D01*
X121613188Y-97536000D01*
X121522315Y-97079153D01*
X121263532Y-96691856D01*
X120876235Y-96433073D01*
X120419388Y-96342200D01*
X120372612Y-96342200D01*
X119915765Y-96433073D01*
X119528468Y-96691856D01*
X119269685Y-97079153D01*
X119178812Y-97536000D01*
X119073188Y-97536000D01*
X118982315Y-97079153D01*
X118723532Y-96691856D01*
X118336235Y-96433073D01*
X117879388Y-96342200D01*
X117832612Y-96342200D01*
X117375765Y-96433073D01*
X117005200Y-96680676D01*
X117005200Y-95851324D01*
X117375765Y-96098927D01*
X117832612Y-96189800D01*
X117879388Y-96189800D01*
X118336235Y-96098927D01*
X118723532Y-95840144D01*
X118982315Y-95452847D01*
X119073188Y-94996000D01*
X119178812Y-94996000D01*
X119269685Y-95452847D01*
X119528468Y-95840144D01*
X119915765Y-96098927D01*
X120372612Y-96189800D01*
X120419388Y-96189800D01*
X120876235Y-96098927D01*
X121263532Y-95840144D01*
X121522315Y-95452847D01*
X121613188Y-94996000D01*
X121522315Y-94539153D01*
X121263532Y-94151856D01*
X120876235Y-93893073D01*
X120419388Y-93802200D01*
X120372612Y-93802200D01*
X119915765Y-93893073D01*
X119528468Y-94151856D01*
X119269685Y-94539153D01*
X119178812Y-94996000D01*
X119073188Y-94996000D01*
X118982315Y-94539153D01*
X118723532Y-94151856D01*
X118336235Y-93893073D01*
X117879388Y-93802200D01*
X117832612Y-93802200D01*
X117375765Y-93893073D01*
X117005200Y-94140676D01*
X117005200Y-93112452D01*
X130919483Y-93112452D01*
X131197527Y-93785371D01*
X131711921Y-94300664D01*
X132384354Y-94579882D01*
X133112452Y-94580517D01*
X133785371Y-94302473D01*
X134300664Y-93788079D01*
X134579882Y-93115646D01*
X134580517Y-92387548D01*
X134302473Y-91714629D01*
X133788079Y-91199336D01*
X133115646Y-90920118D01*
X132387548Y-90919483D01*
X131714629Y-91197527D01*
X131199336Y-91711921D01*
X130920118Y-92384354D01*
X130919483Y-93112452D01*
X117005200Y-93112452D01*
X117005200Y-92789908D01*
X117191021Y-91855723D01*
X117697588Y-91097590D01*
X118455723Y-90591021D01*
X119389907Y-90405200D01*
X137487538Y-90405200D01*
X137483731Y-90424000D01*
X137483731Y-90424000D01*
G37*
X137483731Y-90424000D02*
X137483731Y-92456000D01*
X137506756Y-92578365D01*
X137579073Y-92690749D01*
X137689417Y-92766144D01*
X137820400Y-92792669D01*
X139547600Y-92792669D01*
X139669965Y-92769644D01*
X139782349Y-92697327D01*
X139857744Y-92586983D01*
X139884269Y-92456000D01*
X139884269Y-90424000D01*
X139880731Y-90405200D01*
X140397639Y-90405200D01*
X140379856Y-90417082D01*
X140121073Y-90804379D01*
X140030200Y-91261226D01*
X140030200Y-91618774D01*
X140121073Y-92075621D01*
X140379856Y-92462918D01*
X140767153Y-92721701D01*
X141224000Y-92812574D01*
X141680847Y-92721701D01*
X142068144Y-92462918D01*
X142326927Y-92075621D01*
X142417800Y-91618774D01*
X142417800Y-91261226D01*
X142326927Y-90804379D01*
X142068144Y-90417082D01*
X142050361Y-90405200D01*
X142937639Y-90405200D01*
X142919856Y-90417082D01*
X142661073Y-90804379D01*
X142570200Y-91261226D01*
X142570200Y-91618774D01*
X142661073Y-92075621D01*
X142919856Y-92462918D01*
X143307153Y-92721701D01*
X143764000Y-92812574D01*
X144220847Y-92721701D01*
X144608144Y-92462918D01*
X144866927Y-92075621D01*
X144957800Y-91618774D01*
X144957800Y-91261226D01*
X144866927Y-90804379D01*
X144608144Y-90417082D01*
X144590361Y-90405200D01*
X145477639Y-90405200D01*
X145459856Y-90417082D01*
X145201073Y-90804379D01*
X145110200Y-91261226D01*
X145110200Y-91618774D01*
X145201073Y-92075621D01*
X145459856Y-92462918D01*
X145847153Y-92721701D01*
X146304000Y-92812574D01*
X146760847Y-92721701D01*
X147148144Y-92462918D01*
X147406927Y-92075621D01*
X147497800Y-91618774D01*
X147497800Y-91261226D01*
X147406927Y-90804379D01*
X147148144Y-90417082D01*
X147130361Y-90405200D01*
X148017639Y-90405200D01*
X147999856Y-90417082D01*
X147741073Y-90804379D01*
X147650200Y-91261226D01*
X147650200Y-91618774D01*
X147741073Y-92075621D01*
X147999856Y-92462918D01*
X148387153Y-92721701D01*
X148844000Y-92812574D01*
X149300847Y-92721701D01*
X149688144Y-92462918D01*
X149946927Y-92075621D01*
X150037800Y-91618774D01*
X150037800Y-91261226D01*
X149946927Y-90804379D01*
X149688144Y-90417082D01*
X149670361Y-90405200D01*
X150557639Y-90405200D01*
X150539856Y-90417082D01*
X150281073Y-90804379D01*
X150190200Y-91261226D01*
X150190200Y-91618774D01*
X150281073Y-92075621D01*
X150539856Y-92462918D01*
X150927153Y-92721701D01*
X151384000Y-92812574D01*
X151840847Y-92721701D01*
X152228144Y-92462918D01*
X152486927Y-92075621D01*
X152577800Y-91618774D01*
X152577800Y-91261226D01*
X152486927Y-90804379D01*
X152228144Y-90417082D01*
X152210361Y-90405200D01*
X157850322Y-90405200D01*
X157624618Y-90630511D01*
X157556897Y-90793600D01*
X157486669Y-90793600D01*
X157486669Y-90750000D01*
X157463644Y-90627635D01*
X157391327Y-90515251D01*
X157280983Y-90439856D01*
X157150000Y-90413331D01*
X155950000Y-90413331D01*
X155827635Y-90436356D01*
X155715251Y-90508673D01*
X155639856Y-90619017D01*
X155613331Y-90750000D01*
X155613331Y-91411933D01*
X155264172Y-91761092D01*
X155286669Y-91650000D01*
X155286669Y-90750000D01*
X155263644Y-90627635D01*
X155191327Y-90515251D01*
X155080983Y-90439856D01*
X154950000Y-90413331D01*
X153750000Y-90413331D01*
X153627635Y-90436356D01*
X153515251Y-90508673D01*
X153439856Y-90619017D01*
X153413331Y-90750000D01*
X153413331Y-91650000D01*
X153436356Y-91772365D01*
X153508673Y-91884749D01*
X153619017Y-91960144D01*
X153663166Y-91969085D01*
X153652085Y-91995771D01*
X153651851Y-92263547D01*
X153754109Y-92511029D01*
X153894894Y-92652059D01*
X153827017Y-92815525D01*
X153826813Y-93048451D01*
X151503621Y-95371643D01*
X151415524Y-95503488D01*
X151384589Y-95659011D01*
X151384589Y-102888749D01*
X151220695Y-103052358D01*
X151118006Y-103299661D01*
X151117772Y-103567437D01*
X151130912Y-103599237D01*
X150882695Y-103599237D01*
X150406400Y-103122942D01*
X150406400Y-102736400D01*
X150375465Y-102580877D01*
X150287368Y-102449032D01*
X150050269Y-102211933D01*
X150050269Y-101550000D01*
X150027244Y-101427635D01*
X149954927Y-101315251D01*
X149844583Y-101239856D01*
X149713600Y-101213331D01*
X148513600Y-101213331D01*
X148391235Y-101236356D01*
X148278851Y-101308673D01*
X148203456Y-101419017D01*
X148176931Y-101550000D01*
X148176931Y-102450000D01*
X148199956Y-102572365D01*
X148272273Y-102684749D01*
X148382617Y-102760144D01*
X148513600Y-102786669D01*
X149475533Y-102786669D01*
X149584264Y-102895400D01*
X147894384Y-102895400D01*
X148008861Y-102780922D01*
X148097800Y-102566204D01*
X148097800Y-102323850D01*
X147951750Y-102177800D01*
X147091400Y-102177800D01*
X147091400Y-102197800D01*
X146735800Y-102197800D01*
X146735800Y-102177800D01*
X145875450Y-102177800D01*
X145729400Y-102323850D01*
X145729400Y-102566204D01*
X145818339Y-102780922D01*
X145958486Y-102921070D01*
X145922294Y-102928269D01*
X145835193Y-102986467D01*
X145795042Y-102946246D01*
X145547739Y-102843557D01*
X145279963Y-102843323D01*
X145032481Y-102945581D01*
X144842970Y-103134762D01*
X144740281Y-103382065D01*
X144740047Y-103649841D01*
X144842305Y-103897323D01*
X145031486Y-104086834D01*
X145278789Y-104189523D01*
X145546565Y-104189757D01*
X145794047Y-104087499D01*
X145866820Y-104014853D01*
X145866783Y-104057421D01*
X145890177Y-104114039D01*
X145785139Y-104219078D01*
X145696200Y-104433796D01*
X145696200Y-104676150D01*
X145842250Y-104822200D01*
X146702600Y-104822200D01*
X146702600Y-104802200D01*
X147058200Y-104802200D01*
X147058200Y-104822200D01*
X147918550Y-104822200D01*
X148030246Y-104710504D01*
X148143731Y-104823989D01*
X148143731Y-105450000D01*
X148166756Y-105572365D01*
X148239073Y-105684749D01*
X148349417Y-105760144D01*
X148480400Y-105786669D01*
X149258012Y-105786669D01*
X149671778Y-106200435D01*
X149574786Y-106265243D01*
X149563072Y-106273070D01*
X149100000Y-106736142D01*
X148158529Y-105794671D01*
X148129785Y-105775465D01*
X148018443Y-105701069D01*
X148009476Y-105699285D01*
X148064600Y-105566204D01*
X148064600Y-105323850D01*
X147918550Y-105177800D01*
X147058200Y-105177800D01*
X147058200Y-105197800D01*
X146702600Y-105197800D01*
X146702600Y-105177800D01*
X145842250Y-105177800D01*
X145696200Y-105323850D01*
X145696200Y-105566204D01*
X145785139Y-105780922D01*
X145949477Y-105945261D01*
X146164195Y-106034200D01*
X146483909Y-106034200D01*
X146379706Y-106138222D01*
X146277017Y-106385525D01*
X146276783Y-106653301D01*
X146379041Y-106900783D01*
X146443945Y-106965800D01*
X146183795Y-106965800D01*
X145969077Y-107054739D01*
X145804739Y-107219078D01*
X145715800Y-107433796D01*
X145715800Y-107676150D01*
X145861850Y-107822200D01*
X146722200Y-107822200D01*
X146722200Y-107802200D01*
X147077800Y-107802200D01*
X147077800Y-107822200D01*
X147938150Y-107822200D01*
X148084200Y-107676150D01*
X148084200Y-107433796D01*
X147995261Y-107219078D01*
X147830923Y-107054739D01*
X147616205Y-106965800D01*
X147456160Y-106965800D01*
X147520294Y-106901778D01*
X147622983Y-106654475D01*
X147623090Y-106531800D01*
X147674342Y-106531800D01*
X148378699Y-107236156D01*
X148377635Y-107236356D01*
X148265251Y-107308673D01*
X148189856Y-107419017D01*
X148163331Y-107550000D01*
X148163331Y-108450000D01*
X148186356Y-108572365D01*
X148258673Y-108684749D01*
X148369017Y-108760144D01*
X148500000Y-108786669D01*
X149700000Y-108786669D01*
X149822365Y-108763644D01*
X149934749Y-108691327D01*
X150010144Y-108580983D01*
X150036669Y-108450000D01*
X150036669Y-107550000D01*
X150013644Y-107427635D01*
X149941327Y-107315251D01*
X149830983Y-107239856D01*
X149819855Y-107237603D01*
X150047259Y-107010199D01*
X151424119Y-107010199D01*
X151589362Y-106977330D01*
X151729448Y-106883728D01*
X153380954Y-105232222D01*
X154960296Y-105232222D01*
X154916822Y-105336920D01*
X154916769Y-105397368D01*
X154705099Y-105397183D01*
X154457617Y-105499441D01*
X154268106Y-105688622D01*
X154165417Y-105935925D01*
X154165183Y-106203701D01*
X154267441Y-106451183D01*
X154456622Y-106640694D01*
X154703925Y-106743383D01*
X154971701Y-106743617D01*
X155219183Y-106641359D01*
X155384029Y-106476800D01*
X155801753Y-106476800D01*
X155749727Y-106528735D01*
X155647038Y-106776038D01*
X155646804Y-107043814D01*
X155747577Y-107287702D01*
X155608767Y-107426270D01*
X155506078Y-107673573D01*
X155505844Y-107941349D01*
X155608102Y-108188831D01*
X155777679Y-108358704D01*
X155736400Y-108399911D01*
X155633711Y-108647214D01*
X155633477Y-108914990D01*
X155703849Y-109085303D01*
X155490228Y-109173570D01*
X155300717Y-109362751D01*
X155198028Y-109610054D01*
X155197794Y-109877830D01*
X155300052Y-110125312D01*
X155414923Y-110240383D01*
X154833404Y-110240383D01*
X154677881Y-110271318D01*
X154609984Y-110316686D01*
X154357204Y-110316465D01*
X154109722Y-110418723D01*
X153920211Y-110607904D01*
X153817522Y-110855207D01*
X153817288Y-111122983D01*
X153919546Y-111370465D01*
X154093955Y-111545179D01*
X153892944Y-111545003D01*
X153645462Y-111647261D01*
X153455951Y-111836442D01*
X153353262Y-112083745D01*
X153353028Y-112351521D01*
X153455286Y-112599003D01*
X153637441Y-112781476D01*
X153493179Y-112841084D01*
X153303668Y-113030265D01*
X153200979Y-113277568D01*
X153200745Y-113545344D01*
X153303003Y-113792826D01*
X153427640Y-113917680D01*
X153320901Y-113917587D01*
X153073419Y-114019845D01*
X152883908Y-114209026D01*
X152781219Y-114456329D01*
X152780985Y-114724105D01*
X152883243Y-114971587D01*
X153072424Y-115161098D01*
X153319727Y-115263787D01*
X153587503Y-115264021D01*
X153834985Y-115161763D01*
X154014935Y-114982127D01*
X154094658Y-114966269D01*
X154226503Y-114878172D01*
X154327640Y-114777035D01*
X154317556Y-114801320D01*
X154317322Y-115069096D01*
X154419580Y-115316578D01*
X154608761Y-115506089D01*
X154631736Y-115515629D01*
X154305922Y-115515629D01*
X154142313Y-115351735D01*
X153895010Y-115249046D01*
X153627234Y-115248812D01*
X153379752Y-115351070D01*
X153190241Y-115540251D01*
X153087552Y-115787554D01*
X153087318Y-116055330D01*
X153189576Y-116302812D01*
X153378757Y-116492323D01*
X153626060Y-116595012D01*
X153786982Y-116595153D01*
X153786783Y-116823301D01*
X153889041Y-117070783D01*
X154078222Y-117260294D01*
X154325525Y-117362983D01*
X154593301Y-117363217D01*
X154840783Y-117260959D01*
X154948022Y-117153907D01*
X154971636Y-117272624D01*
X155008156Y-117327279D01*
X155017004Y-117340521D01*
X155016783Y-117593301D01*
X155119041Y-117840783D01*
X155308222Y-118030294D01*
X155555525Y-118132983D01*
X155823301Y-118133217D01*
X156070783Y-118030959D01*
X156260294Y-117841778D01*
X156362983Y-117594475D01*
X156363187Y-117360805D01*
X156407045Y-117404739D01*
X156654348Y-117507428D01*
X156922124Y-117507662D01*
X157169606Y-117405404D01*
X157359117Y-117216223D01*
X157461806Y-116968920D01*
X157461959Y-116794244D01*
X157616038Y-116730580D01*
X157582634Y-116811026D01*
X157582400Y-117078802D01*
X157684658Y-117326284D01*
X157873839Y-117515795D01*
X158121142Y-117618484D01*
X158388918Y-117618718D01*
X158636400Y-117516460D01*
X158825911Y-117327279D01*
X158928600Y-117079976D01*
X158928834Y-116812200D01*
X158871677Y-116673870D01*
X158935144Y-116580983D01*
X158961669Y-116450000D01*
X158961669Y-116100000D01*
X158943625Y-116004105D01*
X158961669Y-115915000D01*
X158961669Y-115685000D01*
X158945088Y-115596880D01*
X158961669Y-115515000D01*
X158961669Y-115285000D01*
X158945088Y-115196880D01*
X158961669Y-115115000D01*
X158961669Y-114885000D01*
X158945088Y-114796880D01*
X158961669Y-114715000D01*
X158961669Y-114485000D01*
X158945088Y-114396880D01*
X158961669Y-114315000D01*
X158961669Y-114085000D01*
X158945088Y-113996880D01*
X158961669Y-113915000D01*
X158961669Y-113685000D01*
X158945088Y-113596880D01*
X158961669Y-113515000D01*
X158961669Y-113285000D01*
X158945088Y-113196880D01*
X158961669Y-113115000D01*
X158961669Y-112885000D01*
X158945088Y-112796880D01*
X158961669Y-112715000D01*
X158961669Y-112485000D01*
X158945088Y-112396880D01*
X158961669Y-112315000D01*
X158961669Y-112085000D01*
X158945088Y-111996880D01*
X158961669Y-111915000D01*
X158961669Y-111685000D01*
X158945088Y-111596880D01*
X158961669Y-111515000D01*
X158961669Y-111285000D01*
X158945088Y-111196880D01*
X158961669Y-111115000D01*
X158961669Y-110885000D01*
X158945088Y-110796880D01*
X158961669Y-110715000D01*
X158961669Y-110485000D01*
X158945088Y-110396880D01*
X158961669Y-110315000D01*
X158961669Y-110085000D01*
X158945088Y-109996880D01*
X158961669Y-109915000D01*
X158961669Y-109685000D01*
X158945088Y-109596880D01*
X158961669Y-109515000D01*
X158961669Y-109285000D01*
X158945088Y-109196880D01*
X158961669Y-109115000D01*
X158961669Y-108885000D01*
X158945088Y-108796880D01*
X158961669Y-108715000D01*
X158961669Y-108485000D01*
X158945088Y-108396880D01*
X158961669Y-108315000D01*
X158961669Y-108085000D01*
X158945088Y-107996880D01*
X158961669Y-107915000D01*
X158961669Y-107685000D01*
X158945088Y-107596880D01*
X158961669Y-107515000D01*
X158961669Y-107285000D01*
X158945088Y-107196880D01*
X158961669Y-107115000D01*
X158961669Y-106885000D01*
X158945088Y-106796880D01*
X158961669Y-106715000D01*
X158961669Y-106485000D01*
X158945088Y-106396880D01*
X158961669Y-106315000D01*
X158961669Y-106206400D01*
X159531067Y-106206400D01*
X159686590Y-106175465D01*
X159818435Y-106087368D01*
X160232557Y-105673246D01*
X160270593Y-105616322D01*
X160320654Y-105541401D01*
X160338331Y-105452531D01*
X160338331Y-105515000D01*
X160354912Y-105603120D01*
X160338331Y-105685000D01*
X160338331Y-105915000D01*
X160351793Y-105986543D01*
X160344077Y-105989739D01*
X160179739Y-106154078D01*
X160090800Y-106368796D01*
X160090800Y-106396450D01*
X160214083Y-106519733D01*
X160179739Y-106554078D01*
X160090800Y-106768796D01*
X160090800Y-106796450D01*
X160094350Y-106800000D01*
X160090800Y-106803550D01*
X160090800Y-106831204D01*
X160160718Y-107000000D01*
X160090800Y-107168796D01*
X160090800Y-107196450D01*
X160094350Y-107200000D01*
X160090800Y-107203550D01*
X160090800Y-107231204D01*
X160160718Y-107400000D01*
X160090800Y-107568796D01*
X160090800Y-107596450D01*
X160094350Y-107600000D01*
X160090800Y-107603550D01*
X160090800Y-107631204D01*
X160160718Y-107800000D01*
X160090800Y-107968796D01*
X160090800Y-107996450D01*
X160094350Y-108000000D01*
X160090800Y-108003550D01*
X160090800Y-108031204D01*
X160160718Y-108200000D01*
X160090800Y-108368796D01*
X160090800Y-108396450D01*
X160094350Y-108400000D01*
X160090800Y-108403550D01*
X160090800Y-108431204D01*
X160160718Y-108600000D01*
X160090800Y-108768796D01*
X160090800Y-108796450D01*
X160094350Y-108800000D01*
X160090800Y-108803550D01*
X160090800Y-108831204D01*
X160160718Y-109000000D01*
X160090800Y-109168796D01*
X160090800Y-109196450D01*
X160094350Y-109200000D01*
X160090800Y-109203550D01*
X160090800Y-109231204D01*
X160179739Y-109445922D01*
X160214083Y-109480267D01*
X160090800Y-109603550D01*
X160090800Y-109631204D01*
X160179739Y-109845922D01*
X160344077Y-110010261D01*
X160352740Y-110013849D01*
X160338331Y-110085000D01*
X160338331Y-110315000D01*
X160354912Y-110403120D01*
X160338331Y-110485000D01*
X160338331Y-110715000D01*
X160354912Y-110803120D01*
X160338331Y-110885000D01*
X160338331Y-111115000D01*
X160354912Y-111203120D01*
X160338331Y-111285000D01*
X160338331Y-111515000D01*
X160354912Y-111603120D01*
X160338331Y-111685000D01*
X160338331Y-111915000D01*
X160354912Y-112003120D01*
X160338331Y-112085000D01*
X160338331Y-112315000D01*
X160354912Y-112403120D01*
X160338331Y-112485000D01*
X160338331Y-112715000D01*
X160354912Y-112803120D01*
X160338331Y-112885000D01*
X160338331Y-113115000D01*
X160354912Y-113203120D01*
X160338331Y-113285000D01*
X160338331Y-113515000D01*
X160354912Y-113603120D01*
X160338331Y-113685000D01*
X160338331Y-113915000D01*
X160354912Y-114003120D01*
X160338331Y-114085000D01*
X160338331Y-114315000D01*
X160354912Y-114403120D01*
X160338331Y-114485000D01*
X160338331Y-114715000D01*
X160354912Y-114803120D01*
X160338331Y-114885000D01*
X160338331Y-115115000D01*
X160354912Y-115203120D01*
X160338331Y-115285000D01*
X160338331Y-115515000D01*
X160354912Y-115603120D01*
X160338331Y-115685000D01*
X160338331Y-115915000D01*
X160356375Y-116010895D01*
X160338331Y-116100000D01*
X160338331Y-116450000D01*
X160361356Y-116572365D01*
X160428077Y-116676053D01*
X160372032Y-116811026D01*
X160371798Y-117078802D01*
X160474056Y-117326284D01*
X160663237Y-117515795D01*
X160910540Y-117618484D01*
X161178316Y-117618718D01*
X161425798Y-117516460D01*
X161615309Y-117327279D01*
X161717998Y-117079976D01*
X161718232Y-116812200D01*
X161682824Y-116726507D01*
X161780791Y-116767186D01*
X161780586Y-117001533D01*
X161882844Y-117249015D01*
X162072025Y-117438526D01*
X162319328Y-117541215D01*
X162587104Y-117541449D01*
X162834586Y-117439191D01*
X163024097Y-117250010D01*
X163078347Y-117119362D01*
X163311406Y-117119566D01*
X163417052Y-117075914D01*
X163425496Y-117096350D01*
X163614677Y-117285861D01*
X163861980Y-117388550D01*
X164129756Y-117388784D01*
X164377238Y-117286526D01*
X164566749Y-117097345D01*
X164669438Y-116850042D01*
X164669489Y-116791756D01*
X164979621Y-116791756D01*
X165117874Y-116930250D01*
X165365177Y-117032939D01*
X165632953Y-117033173D01*
X165880435Y-116930915D01*
X166069946Y-116741734D01*
X166172635Y-116494431D01*
X166172869Y-116226655D01*
X166146467Y-116162759D01*
X166181058Y-116148466D01*
X166370569Y-115959285D01*
X166473258Y-115711982D01*
X166473492Y-115444206D01*
X166371234Y-115196724D01*
X166222610Y-115047841D01*
X166324451Y-115090129D01*
X166592227Y-115090363D01*
X166839709Y-114988105D01*
X167029220Y-114798924D01*
X167131909Y-114551621D01*
X167132143Y-114283845D01*
X167118996Y-114252026D01*
X179348118Y-114252026D01*
X183715514Y-118619421D01*
X183536468Y-118739056D01*
X183277685Y-119126353D01*
X183186812Y-119583200D01*
X183277685Y-120040047D01*
X183536468Y-120427344D01*
X183923765Y-120686127D01*
X184380612Y-120777000D01*
X184427388Y-120777000D01*
X184884235Y-120686127D01*
X185271532Y-120427344D01*
X185530315Y-120040047D01*
X185621188Y-119583200D01*
X185530315Y-119126353D01*
X185377333Y-118897399D01*
X185647541Y-118897399D01*
X185841241Y-119091099D01*
X185817685Y-119126353D01*
X185726812Y-119583200D01*
X185817685Y-120040047D01*
X186076468Y-120427344D01*
X186463765Y-120686127D01*
X186920612Y-120777000D01*
X186967388Y-120777000D01*
X187424235Y-120686127D01*
X187811532Y-120427344D01*
X187844800Y-120377555D01*
X187844800Y-121328845D01*
X187811532Y-121279056D01*
X187424235Y-121020273D01*
X186967388Y-120929400D01*
X186920612Y-120929400D01*
X186463765Y-121020273D01*
X186076468Y-121279056D01*
X185817685Y-121666353D01*
X185726812Y-122123200D01*
X185817685Y-122580047D01*
X186076468Y-122967344D01*
X186463765Y-123226127D01*
X186920612Y-123317000D01*
X186967388Y-123317000D01*
X187424235Y-123226127D01*
X187811532Y-122967344D01*
X187844800Y-122917555D01*
X187844800Y-123210093D01*
X187658979Y-124144277D01*
X187152410Y-124902412D01*
X186394277Y-125408979D01*
X185460092Y-125594800D01*
X174605222Y-125594800D01*
X174838927Y-125245035D01*
X174929800Y-124788188D01*
X174929800Y-124741412D01*
X174838927Y-124284565D01*
X174580144Y-123897268D01*
X174192847Y-123638485D01*
X173736000Y-123547612D01*
X173279153Y-123638485D01*
X172891856Y-123897268D01*
X172633073Y-124284565D01*
X172542200Y-124741412D01*
X172542200Y-124788188D01*
X172633073Y-125245035D01*
X172866778Y-125594800D01*
X172065222Y-125594800D01*
X172298927Y-125245035D01*
X172389800Y-124788188D01*
X172389800Y-124741412D01*
X172298927Y-124284565D01*
X172040144Y-123897268D01*
X171652847Y-123638485D01*
X171196000Y-123547612D01*
X170739153Y-123638485D01*
X170351856Y-123897268D01*
X170093073Y-124284565D01*
X170002200Y-124741412D01*
X170002200Y-124788188D01*
X170093073Y-125245035D01*
X170326778Y-125594800D01*
X169525222Y-125594800D01*
X169758927Y-125245035D01*
X169849800Y-124788188D01*
X169849800Y-124741412D01*
X169758927Y-124284565D01*
X169500144Y-123897268D01*
X169112847Y-123638485D01*
X168656000Y-123547612D01*
X168199153Y-123638485D01*
X167811856Y-123897268D01*
X167553073Y-124284565D01*
X167462200Y-124741412D01*
X167462200Y-124788188D01*
X167553073Y-125245035D01*
X167786778Y-125594800D01*
X158172269Y-125594800D01*
X158172269Y-123647200D01*
X158165731Y-123612452D01*
X161419483Y-123612452D01*
X161697527Y-124285371D01*
X162211921Y-124800664D01*
X162884354Y-125079882D01*
X163612452Y-125080517D01*
X164285371Y-124802473D01*
X164800664Y-124288079D01*
X165079882Y-123615646D01*
X165080517Y-122887548D01*
X164802473Y-122214629D01*
X164789280Y-122201412D01*
X167462200Y-122201412D01*
X167462200Y-122248188D01*
X167553073Y-122705035D01*
X167811856Y-123092332D01*
X168199153Y-123351115D01*
X168656000Y-123441988D01*
X169112847Y-123351115D01*
X169500144Y-123092332D01*
X169758927Y-122705035D01*
X169849800Y-122248188D01*
X169849800Y-122201412D01*
X170002200Y-122201412D01*
X170002200Y-122248188D01*
X170093073Y-122705035D01*
X170351856Y-123092332D01*
X170739153Y-123351115D01*
X171196000Y-123441988D01*
X171652847Y-123351115D01*
X172040144Y-123092332D01*
X172298927Y-122705035D01*
X172389800Y-122248188D01*
X172389800Y-122201412D01*
X172298927Y-121744565D01*
X172042772Y-121361200D01*
X172535731Y-121361200D01*
X172535731Y-123088400D01*
X172558756Y-123210765D01*
X172631073Y-123323149D01*
X172741417Y-123398544D01*
X172872400Y-123425069D01*
X174599600Y-123425069D01*
X174721965Y-123402044D01*
X174834349Y-123329727D01*
X174909744Y-123219383D01*
X174936269Y-123088400D01*
X174936269Y-122123200D01*
X183186812Y-122123200D01*
X183277685Y-122580047D01*
X183536468Y-122967344D01*
X183923765Y-123226127D01*
X184380612Y-123317000D01*
X184427388Y-123317000D01*
X184884235Y-123226127D01*
X185271532Y-122967344D01*
X185530315Y-122580047D01*
X185621188Y-122123200D01*
X185530315Y-121666353D01*
X185271532Y-121279056D01*
X184884235Y-121020273D01*
X184427388Y-120929400D01*
X184380612Y-120929400D01*
X183923765Y-121020273D01*
X183536468Y-121279056D01*
X183277685Y-121666353D01*
X183186812Y-122123200D01*
X174936269Y-122123200D01*
X174936269Y-121361200D01*
X174913244Y-121238835D01*
X174840927Y-121126451D01*
X174730583Y-121051056D01*
X174599600Y-121024531D01*
X172872400Y-121024531D01*
X172750035Y-121047556D01*
X172637651Y-121119873D01*
X172562256Y-121230217D01*
X172535731Y-121361200D01*
X172042772Y-121361200D01*
X172040144Y-121357268D01*
X171652847Y-121098485D01*
X171196000Y-121007612D01*
X170739153Y-121098485D01*
X170351856Y-121357268D01*
X170093073Y-121744565D01*
X170002200Y-122201412D01*
X169849800Y-122201412D01*
X169758927Y-121744565D01*
X169500144Y-121357268D01*
X169112847Y-121098485D01*
X168656000Y-121007612D01*
X168199153Y-121098485D01*
X167811856Y-121357268D01*
X167553073Y-121744565D01*
X167462200Y-122201412D01*
X164789280Y-122201412D01*
X164288079Y-121699336D01*
X163615646Y-121420118D01*
X162887548Y-121419483D01*
X162214629Y-121697527D01*
X161699336Y-122211921D01*
X161420118Y-122884354D01*
X161419483Y-123612452D01*
X158165731Y-123612452D01*
X158149244Y-123524835D01*
X158076927Y-123412451D01*
X157966583Y-123337056D01*
X157835600Y-123310531D01*
X156108400Y-123310531D01*
X155986035Y-123333556D01*
X155873651Y-123405873D01*
X155798256Y-123516217D01*
X155771731Y-123647200D01*
X155771731Y-125594800D01*
X155337161Y-125594800D01*
X155534927Y-125298821D01*
X155625800Y-124841974D01*
X155625800Y-124484426D01*
X155534927Y-124027579D01*
X155276144Y-123640282D01*
X154888847Y-123381499D01*
X154432000Y-123290626D01*
X153975153Y-123381499D01*
X153587856Y-123640282D01*
X153329073Y-124027579D01*
X153238200Y-124484426D01*
X153238200Y-124841974D01*
X153329073Y-125298821D01*
X153526839Y-125594800D01*
X152797161Y-125594800D01*
X152994927Y-125298821D01*
X153085800Y-124841974D01*
X153085800Y-124484426D01*
X152994927Y-124027579D01*
X152736144Y-123640282D01*
X152348847Y-123381499D01*
X151892000Y-123290626D01*
X151435153Y-123381499D01*
X151047856Y-123640282D01*
X150789073Y-124027579D01*
X150698200Y-124484426D01*
X150698200Y-124841974D01*
X150789073Y-125298821D01*
X150986839Y-125594800D01*
X150257161Y-125594800D01*
X150454927Y-125298821D01*
X150545800Y-124841974D01*
X150545800Y-124484426D01*
X150454927Y-124027579D01*
X150196144Y-123640282D01*
X149808847Y-123381499D01*
X149352000Y-123290626D01*
X148895153Y-123381499D01*
X148507856Y-123640282D01*
X148249073Y-124027579D01*
X148158200Y-124484426D01*
X148158200Y-124841974D01*
X148249073Y-125298821D01*
X148446839Y-125594800D01*
X147717161Y-125594800D01*
X147914927Y-125298821D01*
X148005800Y-124841974D01*
X148005800Y-124484426D01*
X147914927Y-124027579D01*
X147656144Y-123640282D01*
X147268847Y-123381499D01*
X146812000Y-123290626D01*
X146355153Y-123381499D01*
X145967856Y-123640282D01*
X145709073Y-124027579D01*
X145618200Y-124484426D01*
X145618200Y-124841974D01*
X145709073Y-125298821D01*
X145906839Y-125594800D01*
X145177161Y-125594800D01*
X145374927Y-125298821D01*
X145465800Y-124841974D01*
X145465800Y-124484426D01*
X145374927Y-124027579D01*
X145116144Y-123640282D01*
X144728847Y-123381499D01*
X144272000Y-123290626D01*
X143815153Y-123381499D01*
X143427856Y-123640282D01*
X143169073Y-124027579D01*
X143078200Y-124484426D01*
X143078200Y-124841974D01*
X143169073Y-125298821D01*
X143366839Y-125594800D01*
X142637161Y-125594800D01*
X142834927Y-125298821D01*
X142925800Y-124841974D01*
X142925800Y-124484426D01*
X142834927Y-124027579D01*
X142576144Y-123640282D01*
X142188847Y-123381499D01*
X141732000Y-123290626D01*
X141275153Y-123381499D01*
X140887856Y-123640282D01*
X140629073Y-124027579D01*
X140538200Y-124484426D01*
X140538200Y-124841974D01*
X140629073Y-125298821D01*
X140826839Y-125594800D01*
X140097161Y-125594800D01*
X140294927Y-125298821D01*
X140385800Y-124841974D01*
X140385800Y-124484426D01*
X140294927Y-124027579D01*
X140036144Y-123640282D01*
X139648847Y-123381499D01*
X139192000Y-123290626D01*
X138735153Y-123381499D01*
X138347856Y-123640282D01*
X138089073Y-124027579D01*
X137998200Y-124484426D01*
X137998200Y-124841974D01*
X138089073Y-125298821D01*
X138286839Y-125594800D01*
X119389907Y-125594800D01*
X118455723Y-125408979D01*
X117697588Y-124902410D01*
X117191021Y-124144277D01*
X117085235Y-123612452D01*
X130919483Y-123612452D01*
X131197527Y-124285371D01*
X131711921Y-124800664D01*
X132384354Y-125079882D01*
X133112452Y-125080517D01*
X133785371Y-124802473D01*
X134300664Y-124288079D01*
X134579882Y-123615646D01*
X134580517Y-122887548D01*
X134302473Y-122214629D01*
X133788079Y-121699336D01*
X133115646Y-121420118D01*
X132387548Y-121419483D01*
X131714629Y-121697527D01*
X131199336Y-122211921D01*
X130920118Y-122884354D01*
X130919483Y-123612452D01*
X117085235Y-123612452D01*
X117005200Y-123210092D01*
X117005200Y-121251324D01*
X117375765Y-121498927D01*
X117832612Y-121589800D01*
X117879388Y-121589800D01*
X118336235Y-121498927D01*
X118723532Y-121240144D01*
X118982315Y-120852847D01*
X119073188Y-120396000D01*
X118982315Y-119939153D01*
X118723532Y-119551856D01*
X118336235Y-119293073D01*
X117879388Y-119202200D01*
X117832612Y-119202200D01*
X117375765Y-119293073D01*
X117005200Y-119540676D01*
X117005200Y-118711324D01*
X117375765Y-118958927D01*
X117832612Y-119049800D01*
X117879388Y-119049800D01*
X118336235Y-118958927D01*
X118723532Y-118700144D01*
X118982315Y-118312847D01*
X119073188Y-117856000D01*
X118982315Y-117399153D01*
X118723532Y-117011856D01*
X118336235Y-116753073D01*
X117879388Y-116662200D01*
X117832612Y-116662200D01*
X117375765Y-116753073D01*
X117005200Y-117000676D01*
X117005200Y-116171324D01*
X117375765Y-116418927D01*
X117832612Y-116509800D01*
X117879388Y-116509800D01*
X118336235Y-116418927D01*
X118723532Y-116160144D01*
X118982315Y-115772847D01*
X119073188Y-115316000D01*
X118982315Y-114859153D01*
X118723532Y-114471856D01*
X118336235Y-114213073D01*
X117879388Y-114122200D01*
X117832612Y-114122200D01*
X117375765Y-114213073D01*
X117005200Y-114460676D01*
X117005200Y-113631324D01*
X117375765Y-113878927D01*
X117832612Y-113969800D01*
X117879388Y-113969800D01*
X118336235Y-113878927D01*
X118723532Y-113620144D01*
X118982315Y-113232847D01*
X119073188Y-112776000D01*
X118982315Y-112319153D01*
X118723532Y-111931856D01*
X118336235Y-111673073D01*
X117879388Y-111582200D01*
X117832612Y-111582200D01*
X117375765Y-111673073D01*
X117005200Y-111920676D01*
X117005200Y-111091324D01*
X117375765Y-111338927D01*
X117832612Y-111429800D01*
X117879388Y-111429800D01*
X118336235Y-111338927D01*
X118723532Y-111080144D01*
X118982315Y-110692847D01*
X119073188Y-110236000D01*
X118982315Y-109779153D01*
X118723532Y-109391856D01*
X118336235Y-109133073D01*
X117879388Y-109042200D01*
X117832612Y-109042200D01*
X117375765Y-109133073D01*
X117005200Y-109380676D01*
X117005200Y-108551324D01*
X117375765Y-108798927D01*
X117832612Y-108889800D01*
X117879388Y-108889800D01*
X118336235Y-108798927D01*
X118723532Y-108540144D01*
X118982315Y-108152847D01*
X119073188Y-107696000D01*
X118982315Y-107239153D01*
X118723532Y-106851856D01*
X118336235Y-106593073D01*
X117879388Y-106502200D01*
X117832612Y-106502200D01*
X117375765Y-106593073D01*
X117005200Y-106840676D01*
X117005200Y-106011324D01*
X117375765Y-106258927D01*
X117832612Y-106349800D01*
X117879388Y-106349800D01*
X118336235Y-106258927D01*
X118343449Y-106254106D01*
X118414268Y-106324925D01*
X118414270Y-106324928D01*
X118894669Y-106805326D01*
X118894671Y-106805329D01*
X118964304Y-106851856D01*
X119034758Y-106898932D01*
X119200000Y-106931801D01*
X119200005Y-106931800D01*
X119475051Y-106931800D01*
X119269685Y-107239153D01*
X119178812Y-107696000D01*
X119269685Y-108152847D01*
X119528468Y-108540144D01*
X119915765Y-108798927D01*
X120372612Y-108889800D01*
X120419388Y-108889800D01*
X120876235Y-108798927D01*
X121263532Y-108540144D01*
X121363600Y-108390381D01*
X121363600Y-109541619D01*
X121263532Y-109391856D01*
X120876235Y-109133073D01*
X120419388Y-109042200D01*
X120372612Y-109042200D01*
X119915765Y-109133073D01*
X119528468Y-109391856D01*
X119269685Y-109779153D01*
X119178812Y-110236000D01*
X119269685Y-110692847D01*
X119528468Y-111080144D01*
X119915765Y-111338927D01*
X120372612Y-111429800D01*
X120419388Y-111429800D01*
X120876235Y-111338927D01*
X121263532Y-111080144D01*
X121363600Y-110930381D01*
X121363600Y-112081619D01*
X121263532Y-111931856D01*
X120876235Y-111673073D01*
X120419388Y-111582200D01*
X120372612Y-111582200D01*
X119915765Y-111673073D01*
X119528468Y-111931856D01*
X119269685Y-112319153D01*
X119178812Y-112776000D01*
X119269685Y-113232847D01*
X119528468Y-113620144D01*
X119915765Y-113878927D01*
X120372612Y-113969800D01*
X120419388Y-113969800D01*
X120876235Y-113878927D01*
X121263532Y-113620144D01*
X121363600Y-113470381D01*
X121363600Y-114621619D01*
X121263532Y-114471856D01*
X120876235Y-114213073D01*
X120419388Y-114122200D01*
X120372612Y-114122200D01*
X119915765Y-114213073D01*
X119528468Y-114471856D01*
X119269685Y-114859153D01*
X119178812Y-115316000D01*
X119269685Y-115772847D01*
X119528468Y-116160144D01*
X119915765Y-116418927D01*
X120372612Y-116509800D01*
X120419388Y-116509800D01*
X120876235Y-116418927D01*
X121263532Y-116160144D01*
X121363600Y-116010381D01*
X121363600Y-117161619D01*
X121263532Y-117011856D01*
X120876235Y-116753073D01*
X120419388Y-116662200D01*
X120372612Y-116662200D01*
X119915765Y-116753073D01*
X119528468Y-117011856D01*
X119269685Y-117399153D01*
X119178812Y-117856000D01*
X119269685Y-118312847D01*
X119528468Y-118700144D01*
X119915765Y-118958927D01*
X120372612Y-119049800D01*
X120419388Y-119049800D01*
X120876235Y-118958927D01*
X121263532Y-118700144D01*
X121363600Y-118550381D01*
X121363600Y-119216792D01*
X121259600Y-119195731D01*
X119532400Y-119195731D01*
X119410035Y-119218756D01*
X119297651Y-119291073D01*
X119222256Y-119401417D01*
X119195731Y-119532400D01*
X119195731Y-121259600D01*
X119218756Y-121381965D01*
X119291073Y-121494349D01*
X119401417Y-121569744D01*
X119532400Y-121596269D01*
X121259600Y-121596269D01*
X121381965Y-121573244D01*
X121483301Y-121508037D01*
X121586985Y-121611721D01*
X121586783Y-121843301D01*
X121689041Y-122090783D01*
X121878222Y-122280294D01*
X122125525Y-122382983D01*
X122393301Y-122383217D01*
X122640783Y-122280959D01*
X122830294Y-122091778D01*
X122932983Y-121844475D01*
X122933217Y-121576699D01*
X122830959Y-121329217D01*
X122641778Y-121139706D01*
X122394475Y-121037017D01*
X122176400Y-121036826D01*
X122176400Y-107065387D01*
X122340294Y-106901778D01*
X122442983Y-106654475D01*
X122443217Y-106386699D01*
X122347439Y-106154899D01*
X124139734Y-106154899D01*
X124127017Y-106185525D01*
X124126783Y-106453301D01*
X124229041Y-106700783D01*
X124393600Y-106865629D01*
X124393600Y-121131664D01*
X124098279Y-121426985D01*
X123866699Y-121426783D01*
X123619217Y-121529041D01*
X123429706Y-121718222D01*
X123327017Y-121965525D01*
X123326783Y-122233301D01*
X123429041Y-122480783D01*
X123618222Y-122670294D01*
X123865525Y-122772983D01*
X124133301Y-122773217D01*
X124380783Y-122670959D01*
X124570294Y-122481778D01*
X124672983Y-122234475D01*
X124673187Y-122001549D01*
X125087368Y-121587368D01*
X125099144Y-121569744D01*
X125175465Y-121455523D01*
X125206400Y-121300000D01*
X125206400Y-110673301D01*
X125246785Y-110673301D01*
X125349043Y-110920783D01*
X125513602Y-111085629D01*
X125513602Y-121020002D01*
X125544537Y-121175525D01*
X125632634Y-121307370D01*
X126326985Y-122001721D01*
X126326783Y-122233301D01*
X126429041Y-122480783D01*
X126618222Y-122670294D01*
X126865525Y-122772983D01*
X127133301Y-122773217D01*
X127380783Y-122670959D01*
X127570294Y-122481778D01*
X127672983Y-122234475D01*
X127673217Y-121966699D01*
X127570959Y-121719217D01*
X127381778Y-121529706D01*
X127134475Y-121427017D01*
X126901549Y-121426813D01*
X126326402Y-120851666D01*
X126326402Y-111085387D01*
X126490296Y-110921778D01*
X126592985Y-110674475D01*
X126593219Y-110406699D01*
X126490961Y-110159217D01*
X126301780Y-109969706D01*
X126054477Y-109867017D01*
X125786701Y-109866783D01*
X125539219Y-109969041D01*
X125349708Y-110158222D01*
X125247019Y-110405525D01*
X125246785Y-110673301D01*
X125206400Y-110673301D01*
X125206400Y-108323850D01*
X145715800Y-108323850D01*
X145715800Y-108566204D01*
X145804739Y-108780922D01*
X145969077Y-108945261D01*
X146183795Y-109034200D01*
X146576150Y-109034200D01*
X146722200Y-108888150D01*
X146722200Y-108177800D01*
X147077800Y-108177800D01*
X147077800Y-108888150D01*
X147223850Y-109034200D01*
X147616205Y-109034200D01*
X147830923Y-108945261D01*
X147995261Y-108780922D01*
X148084200Y-108566204D01*
X148084200Y-108323850D01*
X147938150Y-108177800D01*
X147077800Y-108177800D01*
X146722200Y-108177800D01*
X145861850Y-108177800D01*
X145715800Y-108323850D01*
X125206400Y-108323850D01*
X125206400Y-106865387D01*
X125370294Y-106701778D01*
X125472983Y-106454475D01*
X125473217Y-106186699D01*
X125460077Y-106154899D01*
X141354241Y-106154899D01*
X141636954Y-106437612D01*
X141636783Y-106633301D01*
X141739041Y-106880783D01*
X141928222Y-107070294D01*
X142175525Y-107172983D01*
X142443301Y-107173217D01*
X142690783Y-107070959D01*
X142880294Y-106881778D01*
X142982983Y-106634475D01*
X142983217Y-106366699D01*
X142880959Y-106119217D01*
X142691778Y-105929706D01*
X142444475Y-105827017D01*
X142247503Y-105826845D01*
X141838428Y-105417770D01*
X141827347Y-105410366D01*
X141698342Y-105324168D01*
X141533099Y-105291299D01*
X121683485Y-105291299D01*
X121582271Y-105311432D01*
X121613188Y-105156000D01*
X121522315Y-104699153D01*
X121263532Y-104311856D01*
X120876235Y-104053073D01*
X120419388Y-103962200D01*
X120372612Y-103962200D01*
X119915765Y-104053073D01*
X119528468Y-104311856D01*
X119269685Y-104699153D01*
X119178812Y-105156000D01*
X119269685Y-105612847D01*
X119528468Y-106000144D01*
X119630321Y-106068200D01*
X119378857Y-106068200D01*
X119024928Y-105714270D01*
X119024925Y-105714268D01*
X118958759Y-105648102D01*
X118982315Y-105612847D01*
X119073188Y-105156000D01*
X118982315Y-104699153D01*
X118723532Y-104311856D01*
X118336235Y-104053073D01*
X117879388Y-103962200D01*
X117832612Y-103962200D01*
X117375765Y-104053073D01*
X117005200Y-104300676D01*
X117005200Y-103471324D01*
X117375765Y-103718927D01*
X117832612Y-103809800D01*
X117879388Y-103809800D01*
X118336235Y-103718927D01*
X118723532Y-103460144D01*
X118982315Y-103072847D01*
X119073188Y-102616000D01*
X118982315Y-102159153D01*
X118958759Y-102123899D01*
X119152458Y-101930199D01*
X119422667Y-101930199D01*
X119269685Y-102159153D01*
X119178812Y-102616000D01*
X119269685Y-103072847D01*
X119528468Y-103460144D01*
X119915765Y-103718927D01*
X120372612Y-103809800D01*
X120419388Y-103809800D01*
X120876235Y-103718927D01*
X120883449Y-103714106D01*
X120954268Y-103784925D01*
X120954270Y-103784928D01*
X121394671Y-104225329D01*
X121534757Y-104318931D01*
X121700000Y-104351800D01*
X141679969Y-104351800D01*
X141818222Y-104490294D01*
X142065525Y-104592983D01*
X142333301Y-104593217D01*
X142580783Y-104490959D01*
X142770294Y-104301778D01*
X142851107Y-104107159D01*
X143073301Y-104107353D01*
X143320783Y-104005095D01*
X143510294Y-103815914D01*
X143612983Y-103568611D01*
X143613217Y-103300835D01*
X143510959Y-103053353D01*
X143321778Y-102863842D01*
X143074475Y-102761153D01*
X142865107Y-102760970D01*
X142861237Y-102758384D01*
X142762344Y-102692306D01*
X142597101Y-102659437D01*
X142145349Y-102659437D01*
X141980106Y-102692306D01*
X141881213Y-102758384D01*
X141840020Y-102785908D01*
X141730528Y-102895400D01*
X122940108Y-102895400D01*
X121478504Y-101433796D01*
X145729400Y-101433796D01*
X145729400Y-101676150D01*
X145875450Y-101822200D01*
X146735800Y-101822200D01*
X146735800Y-101111850D01*
X147091400Y-101111850D01*
X147091400Y-101822200D01*
X147951750Y-101822200D01*
X148097800Y-101676150D01*
X148097800Y-101433796D01*
X148008861Y-101219078D01*
X147844523Y-101054739D01*
X147629805Y-100965800D01*
X147237450Y-100965800D01*
X147091400Y-101111850D01*
X146735800Y-101111850D01*
X146589750Y-100965800D01*
X146197395Y-100965800D01*
X145982677Y-101054739D01*
X145818339Y-101219078D01*
X145729400Y-101433796D01*
X121478504Y-101433796D01*
X121237778Y-101193070D01*
X121231422Y-101188823D01*
X121097692Y-101099468D01*
X121018677Y-101083751D01*
X121263532Y-100920144D01*
X121522315Y-100532847D01*
X121613188Y-100076000D01*
X121522315Y-99619153D01*
X121263532Y-99231856D01*
X120876235Y-98973073D01*
X120419388Y-98882200D01*
X120372612Y-98882200D01*
X119915765Y-98973073D01*
X119528468Y-99231856D01*
X119269685Y-99619153D01*
X119178812Y-100076000D01*
X119269685Y-100532847D01*
X119528468Y-100920144D01*
X119747654Y-101066599D01*
X118973601Y-101066599D01*
X118808358Y-101099468D01*
X118668272Y-101193070D01*
X118668270Y-101193073D01*
X118343449Y-101517893D01*
X118336235Y-101513073D01*
X117879388Y-101422200D01*
X117832612Y-101422200D01*
X117375765Y-101513073D01*
X117005200Y-101760676D01*
X117005200Y-100931324D01*
X117375765Y-101178927D01*
X117832612Y-101269800D01*
X117879388Y-101269800D01*
X118336235Y-101178927D01*
X118723532Y-100920144D01*
X118982315Y-100532847D01*
X119073188Y-100076000D01*
X118982315Y-99619153D01*
X118723532Y-99231856D01*
X118336235Y-98973073D01*
X117879388Y-98882200D01*
X117832612Y-98882200D01*
X117375765Y-98973073D01*
X117005200Y-99220676D01*
X117005200Y-98391324D01*
X117375765Y-98638927D01*
X117832612Y-98729800D01*
X117879388Y-98729800D01*
X118336235Y-98638927D01*
X118723532Y-98380144D01*
X118982315Y-97992847D01*
X119073188Y-97536000D01*
X119178812Y-97536000D01*
X119269685Y-97992847D01*
X119528468Y-98380144D01*
X119915765Y-98638927D01*
X120372612Y-98729800D01*
X120419388Y-98729800D01*
X120876235Y-98638927D01*
X121263532Y-98380144D01*
X121522315Y-97992847D01*
X121613188Y-97536000D01*
X121522315Y-97079153D01*
X121263532Y-96691856D01*
X120876235Y-96433073D01*
X120419388Y-96342200D01*
X120372612Y-96342200D01*
X119915765Y-96433073D01*
X119528468Y-96691856D01*
X119269685Y-97079153D01*
X119178812Y-97536000D01*
X119073188Y-97536000D01*
X118982315Y-97079153D01*
X118723532Y-96691856D01*
X118336235Y-96433073D01*
X117879388Y-96342200D01*
X117832612Y-96342200D01*
X117375765Y-96433073D01*
X117005200Y-96680676D01*
X117005200Y-95851324D01*
X117375765Y-96098927D01*
X117832612Y-96189800D01*
X117879388Y-96189800D01*
X118336235Y-96098927D01*
X118723532Y-95840144D01*
X118982315Y-95452847D01*
X119073188Y-94996000D01*
X119178812Y-94996000D01*
X119269685Y-95452847D01*
X119528468Y-95840144D01*
X119915765Y-96098927D01*
X120372612Y-96189800D01*
X120419388Y-96189800D01*
X120876235Y-96098927D01*
X121263532Y-95840144D01*
X121522315Y-95452847D01*
X121613188Y-94996000D01*
X121522315Y-94539153D01*
X121263532Y-94151856D01*
X120876235Y-93893073D01*
X120419388Y-93802200D01*
X120372612Y-93802200D01*
X119915765Y-93893073D01*
X119528468Y-94151856D01*
X119269685Y-94539153D01*
X119178812Y-94996000D01*
X119073188Y-94996000D01*
X118982315Y-94539153D01*
X118723532Y-94151856D01*
X118336235Y-93893073D01*
X117879388Y-93802200D01*
X117832612Y-93802200D01*
X117375765Y-93893073D01*
X117005200Y-94140676D01*
X117005200Y-93112452D01*
X130919483Y-93112452D01*
X131197527Y-93785371D01*
X131711921Y-94300664D01*
X132384354Y-94579882D01*
X133112452Y-94580517D01*
X133785371Y-94302473D01*
X134300664Y-93788079D01*
X134579882Y-93115646D01*
X134580517Y-92387548D01*
X134302473Y-91714629D01*
X133788079Y-91199336D01*
X133115646Y-90920118D01*
X132387548Y-90919483D01*
X131714629Y-91197527D01*
X131199336Y-91711921D01*
X130920118Y-92384354D01*
X130919483Y-93112452D01*
X117005200Y-93112452D01*
X117005200Y-92789908D01*
X117191021Y-91855723D01*
X117697588Y-91097590D01*
X118455723Y-90591021D01*
X119389907Y-90405200D01*
X137487538Y-90405200D01*
X137483731Y-90424000D01*
G36*
X162507303Y-106243872D02*
X162754606Y-106346561D01*
X162963973Y-106346744D01*
X163066737Y-106415408D01*
X163231980Y-106448277D01*
X182730723Y-106448277D01*
X182895966Y-106415408D01*
X183036052Y-106321806D01*
X183109958Y-106247900D01*
X183012663Y-106482818D01*
X183114450Y-106705400D01*
X184226200Y-106705400D01*
X184226200Y-106685400D01*
X184581800Y-106685400D01*
X184581800Y-106705400D01*
X186766200Y-106705400D01*
X186766200Y-106685400D01*
X187121800Y-106685400D01*
X187121800Y-106705400D01*
X187141800Y-106705400D01*
X187141800Y-107061000D01*
X187121800Y-107061000D01*
X187121800Y-109245400D01*
X187141800Y-109245400D01*
X187141800Y-109601000D01*
X187121800Y-109601000D01*
X187121800Y-109621000D01*
X186766200Y-109621000D01*
X186766200Y-109601000D01*
X184581800Y-109601000D01*
X184581800Y-109621000D01*
X184226200Y-109621000D01*
X184226200Y-109601000D01*
X183114450Y-109601000D01*
X183012663Y-109823582D01*
X183061259Y-109940918D01*
X165913460Y-109940918D01*
X165697033Y-109724490D01*
X165659634Y-109699501D01*
X165556947Y-109630888D01*
X165391704Y-109598019D01*
X163239906Y-109598019D01*
X163074663Y-109630888D01*
X162971704Y-109699683D01*
X162763706Y-109699501D01*
X162516224Y-109801759D01*
X162421435Y-109896383D01*
X162014085Y-109489033D01*
X161882240Y-109400936D01*
X161851433Y-109394808D01*
X161919200Y-109231204D01*
X161919200Y-109203550D01*
X161915650Y-109200000D01*
X161919200Y-109196450D01*
X161919200Y-109168796D01*
X161849282Y-109000000D01*
X161919200Y-108831204D01*
X161919200Y-108803550D01*
X161915650Y-108800000D01*
X161919200Y-108796450D01*
X161919200Y-108768796D01*
X161849282Y-108600000D01*
X161919200Y-108431204D01*
X161919200Y-108403550D01*
X161915650Y-108400000D01*
X161919200Y-108396450D01*
X161919200Y-108368796D01*
X161849282Y-108200000D01*
X161919200Y-108031204D01*
X161919200Y-108003550D01*
X161915650Y-108000000D01*
X161919200Y-107996450D01*
X161919200Y-107968796D01*
X161849282Y-107800000D01*
X161919200Y-107631204D01*
X161919200Y-107603550D01*
X161915650Y-107600000D01*
X161919200Y-107596450D01*
X161919200Y-107568796D01*
X161849282Y-107400000D01*
X161897504Y-107283582D01*
X183012663Y-107283582D01*
X183137052Y-107583919D01*
X183501646Y-108015420D01*
X183768543Y-108153200D01*
X183501646Y-108290980D01*
X183137052Y-108722481D01*
X183012663Y-109022818D01*
X183114450Y-109245400D01*
X184226200Y-109245400D01*
X184226200Y-107061000D01*
X184581800Y-107061000D01*
X184581800Y-109245400D01*
X186766200Y-109245400D01*
X186766200Y-107061000D01*
X184581800Y-107061000D01*
X184226200Y-107061000D01*
X183114450Y-107061000D01*
X183012663Y-107283582D01*
X161897504Y-107283582D01*
X161919200Y-107231204D01*
X161919200Y-107203550D01*
X161915650Y-107200000D01*
X161919200Y-107196450D01*
X161919200Y-107168796D01*
X161849282Y-107000000D01*
X161919200Y-106831204D01*
X161919200Y-106803550D01*
X161915650Y-106800000D01*
X161919200Y-106796450D01*
X161919200Y-106768796D01*
X161830261Y-106554078D01*
X161803626Y-106527443D01*
X161827684Y-106511368D01*
X162259074Y-106079978D01*
X162343694Y-106079978D01*
X162507303Y-106243872D01*
X162507303Y-106243872D01*
G37*
X162507303Y-106243872D02*
X162754606Y-106346561D01*
X162963973Y-106346744D01*
X163066737Y-106415408D01*
X163231980Y-106448277D01*
X182730723Y-106448277D01*
X182895966Y-106415408D01*
X183036052Y-106321806D01*
X183109958Y-106247900D01*
X183012663Y-106482818D01*
X183114450Y-106705400D01*
X184226200Y-106705400D01*
X184226200Y-106685400D01*
X184581800Y-106685400D01*
X184581800Y-106705400D01*
X186766200Y-106705400D01*
X186766200Y-106685400D01*
X187121800Y-106685400D01*
X187121800Y-106705400D01*
X187141800Y-106705400D01*
X187141800Y-107061000D01*
X187121800Y-107061000D01*
X187121800Y-109245400D01*
X187141800Y-109245400D01*
X187141800Y-109601000D01*
X187121800Y-109601000D01*
X187121800Y-109621000D01*
X186766200Y-109621000D01*
X186766200Y-109601000D01*
X184581800Y-109601000D01*
X184581800Y-109621000D01*
X184226200Y-109621000D01*
X184226200Y-109601000D01*
X183114450Y-109601000D01*
X183012663Y-109823582D01*
X183061259Y-109940918D01*
X165913460Y-109940918D01*
X165697033Y-109724490D01*
X165659634Y-109699501D01*
X165556947Y-109630888D01*
X165391704Y-109598019D01*
X163239906Y-109598019D01*
X163074663Y-109630888D01*
X162971704Y-109699683D01*
X162763706Y-109699501D01*
X162516224Y-109801759D01*
X162421435Y-109896383D01*
X162014085Y-109489033D01*
X161882240Y-109400936D01*
X161851433Y-109394808D01*
X161919200Y-109231204D01*
X161919200Y-109203550D01*
X161915650Y-109200000D01*
X161919200Y-109196450D01*
X161919200Y-109168796D01*
X161849282Y-109000000D01*
X161919200Y-108831204D01*
X161919200Y-108803550D01*
X161915650Y-108800000D01*
X161919200Y-108796450D01*
X161919200Y-108768796D01*
X161849282Y-108600000D01*
X161919200Y-108431204D01*
X161919200Y-108403550D01*
X161915650Y-108400000D01*
X161919200Y-108396450D01*
X161919200Y-108368796D01*
X161849282Y-108200000D01*
X161919200Y-108031204D01*
X161919200Y-108003550D01*
X161915650Y-108000000D01*
X161919200Y-107996450D01*
X161919200Y-107968796D01*
X161849282Y-107800000D01*
X161919200Y-107631204D01*
X161919200Y-107603550D01*
X161915650Y-107600000D01*
X161919200Y-107596450D01*
X161919200Y-107568796D01*
X161849282Y-107400000D01*
X161897504Y-107283582D01*
X183012663Y-107283582D01*
X183137052Y-107583919D01*
X183501646Y-108015420D01*
X183768543Y-108153200D01*
X183501646Y-108290980D01*
X183137052Y-108722481D01*
X183012663Y-109022818D01*
X183114450Y-109245400D01*
X184226200Y-109245400D01*
X184226200Y-107061000D01*
X184581800Y-107061000D01*
X184581800Y-109245400D01*
X186766200Y-109245400D01*
X186766200Y-107061000D01*
X184581800Y-107061000D01*
X184226200Y-107061000D01*
X183114450Y-107061000D01*
X183012663Y-107283582D01*
X161897504Y-107283582D01*
X161919200Y-107231204D01*
X161919200Y-107203550D01*
X161915650Y-107200000D01*
X161919200Y-107196450D01*
X161919200Y-107168796D01*
X161849282Y-107000000D01*
X161919200Y-106831204D01*
X161919200Y-106803550D01*
X161915650Y-106800000D01*
X161919200Y-106796450D01*
X161919200Y-106768796D01*
X161830261Y-106554078D01*
X161803626Y-106527443D01*
X161827684Y-106511368D01*
X162259074Y-106079978D01*
X162343694Y-106079978D01*
X162507303Y-106243872D01*
G36*
X167299073Y-90705765D02*
X167208200Y-91162612D01*
X167208200Y-91209388D01*
X167299073Y-91666235D01*
X167303893Y-91673449D01*
X164225656Y-94751686D01*
X164132054Y-94891772D01*
X164099185Y-95057015D01*
X164099185Y-97357143D01*
X163437731Y-98018599D01*
X163365950Y-98018599D01*
X163454256Y-97930447D01*
X163556945Y-97683144D01*
X163557179Y-97415368D01*
X163454921Y-97167886D01*
X163265740Y-96978375D01*
X163018437Y-96875686D01*
X162750661Y-96875452D01*
X162503179Y-96977710D01*
X162313668Y-97166891D01*
X162242422Y-97338471D01*
X161941921Y-97338471D01*
X161786398Y-97369406D01*
X161660662Y-97453421D01*
X161663680Y-97450403D01*
X161668534Y-97443138D01*
X161751777Y-97318558D01*
X161782712Y-97163035D01*
X161782712Y-94472515D01*
X162079193Y-94768996D01*
X161929706Y-94918222D01*
X161827017Y-95165525D01*
X161826783Y-95433301D01*
X161929041Y-95680783D01*
X162118222Y-95870294D01*
X162365525Y-95972983D01*
X162633301Y-95973217D01*
X162880783Y-95870959D01*
X163070294Y-95681778D01*
X163172983Y-95434475D01*
X163173217Y-95166699D01*
X163070959Y-94919217D01*
X162906400Y-94754371D01*
X162906400Y-94615067D01*
X162899404Y-94579895D01*
X163612452Y-94580517D01*
X164285371Y-94302473D01*
X164800664Y-93788079D01*
X165079882Y-93115646D01*
X165080517Y-92387548D01*
X164802473Y-91714629D01*
X164288079Y-91199336D01*
X163615646Y-90920118D01*
X162887548Y-90919483D01*
X162214629Y-91197527D01*
X161699336Y-91711921D01*
X161420118Y-92384354D01*
X161419616Y-92959947D01*
X160732401Y-92272732D01*
X160676798Y-92235579D01*
X160600556Y-92184635D01*
X160445033Y-92153700D01*
X159239900Y-92153700D01*
X159178426Y-92165928D01*
X159475382Y-91869489D01*
X159642010Y-91468205D01*
X159642389Y-91033701D01*
X159476462Y-90632127D01*
X159249931Y-90405200D01*
X167499904Y-90405200D01*
X167299073Y-90705765D01*
X167299073Y-90705765D01*
G37*
X167299073Y-90705765D02*
X167208200Y-91162612D01*
X167208200Y-91209388D01*
X167299073Y-91666235D01*
X167303893Y-91673449D01*
X164225656Y-94751686D01*
X164132054Y-94891772D01*
X164099185Y-95057015D01*
X164099185Y-97357143D01*
X163437731Y-98018599D01*
X163365950Y-98018599D01*
X163454256Y-97930447D01*
X163556945Y-97683144D01*
X163557179Y-97415368D01*
X163454921Y-97167886D01*
X163265740Y-96978375D01*
X163018437Y-96875686D01*
X162750661Y-96875452D01*
X162503179Y-96977710D01*
X162313668Y-97166891D01*
X162242422Y-97338471D01*
X161941921Y-97338471D01*
X161786398Y-97369406D01*
X161660662Y-97453421D01*
X161663680Y-97450403D01*
X161668534Y-97443138D01*
X161751777Y-97318558D01*
X161782712Y-97163035D01*
X161782712Y-94472515D01*
X162079193Y-94768996D01*
X161929706Y-94918222D01*
X161827017Y-95165525D01*
X161826783Y-95433301D01*
X161929041Y-95680783D01*
X162118222Y-95870294D01*
X162365525Y-95972983D01*
X162633301Y-95973217D01*
X162880783Y-95870959D01*
X163070294Y-95681778D01*
X163172983Y-95434475D01*
X163173217Y-95166699D01*
X163070959Y-94919217D01*
X162906400Y-94754371D01*
X162906400Y-94615067D01*
X162899404Y-94579895D01*
X163612452Y-94580517D01*
X164285371Y-94302473D01*
X164800664Y-93788079D01*
X165079882Y-93115646D01*
X165080517Y-92387548D01*
X164802473Y-91714629D01*
X164288079Y-91199336D01*
X163615646Y-90920118D01*
X162887548Y-90919483D01*
X162214629Y-91197527D01*
X161699336Y-91711921D01*
X161420118Y-92384354D01*
X161419616Y-92959947D01*
X160732401Y-92272732D01*
X160676798Y-92235579D01*
X160600556Y-92184635D01*
X160445033Y-92153700D01*
X159239900Y-92153700D01*
X159178426Y-92165928D01*
X159475382Y-91869489D01*
X159642010Y-91468205D01*
X159642389Y-91033701D01*
X159476462Y-90632127D01*
X159249931Y-90405200D01*
X167499904Y-90405200D01*
X167299073Y-90705765D01*
G36*
X159940032Y-95137368D02*
X160071877Y-95225465D01*
X160227400Y-95256400D01*
X160577486Y-95256400D01*
X160665101Y-95344015D01*
X160665101Y-96335548D01*
X160437562Y-96241066D01*
X160169786Y-96240832D01*
X159922304Y-96343090D01*
X159732793Y-96532271D01*
X159665803Y-96693600D01*
X159157584Y-96693600D01*
X159245261Y-96605922D01*
X159334200Y-96391204D01*
X159334200Y-96223850D01*
X159188150Y-96077800D01*
X158327800Y-96077800D01*
X158327800Y-96097800D01*
X157972200Y-96097800D01*
X157972200Y-96077800D01*
X157952200Y-96077800D01*
X157952200Y-95722200D01*
X157972200Y-95722200D01*
X157972200Y-95702200D01*
X158327800Y-95702200D01*
X158327800Y-95722200D01*
X159188150Y-95722200D01*
X159334200Y-95576150D01*
X159334200Y-95408796D01*
X159245261Y-95194078D01*
X159147884Y-95096700D01*
X159203705Y-95096700D01*
X159418423Y-95007761D01*
X159582761Y-94843422D01*
X159601308Y-94798644D01*
X159940032Y-95137368D01*
X159940032Y-95137368D01*
G37*
X159940032Y-95137368D02*
X160071877Y-95225465D01*
X160227400Y-95256400D01*
X160577486Y-95256400D01*
X160665101Y-95344015D01*
X160665101Y-96335548D01*
X160437562Y-96241066D01*
X160169786Y-96240832D01*
X159922304Y-96343090D01*
X159732793Y-96532271D01*
X159665803Y-96693600D01*
X159157584Y-96693600D01*
X159245261Y-96605922D01*
X159334200Y-96391204D01*
X159334200Y-96223850D01*
X159188150Y-96077800D01*
X158327800Y-96077800D01*
X158327800Y-96097800D01*
X157972200Y-96097800D01*
X157972200Y-96077800D01*
X157952200Y-96077800D01*
X157952200Y-95722200D01*
X157972200Y-95722200D01*
X157972200Y-95702200D01*
X158327800Y-95702200D01*
X158327800Y-95722200D01*
X159188150Y-95722200D01*
X159334200Y-95576150D01*
X159334200Y-95408796D01*
X159245261Y-95194078D01*
X159147884Y-95096700D01*
X159203705Y-95096700D01*
X159418423Y-95007761D01*
X159582761Y-94843422D01*
X159601308Y-94798644D01*
X159940032Y-95137368D01*
G36*
X158910300Y-94437500D02*
X158890300Y-94437500D01*
X158890300Y-94512500D01*
X158534700Y-94512500D01*
X158534700Y-94437500D01*
X158514700Y-94437500D01*
X158514700Y-94349169D01*
X158910300Y-94349169D01*
X158910300Y-94437500D01*
X158910300Y-94437500D01*
G37*
X158910300Y-94437500D02*
X158890300Y-94437500D01*
X158890300Y-94512500D01*
X158534700Y-94512500D01*
X158534700Y-94437500D01*
X158514700Y-94437500D01*
X158514700Y-94349169D01*
X158910300Y-94349169D01*
X158910300Y-94437500D01*
M02*
