G04 #@! TF.FileFunction,Copper,L1,Top,Signal*
%FSLAX46Y46*%
G04 Gerber Fmt 4.6, Leading zero omitted, Abs format (unit mm)*
G04 Created by KiCad (PCBNEW 4.0.1-stable) date Friday, March 04, 2016 'PMt' 07:11:30 PM*
%MOMM*%
G01*
G04 APERTURE LIST*
%ADD10C,0.100000*%
%ADD11C,0.010000*%
%ADD12C,1.000000*%
%ADD13R,0.700000X0.200000*%
%ADD14R,1.501140X0.398780*%
%ADD15R,1.727200X2.032000*%
%ADD16O,1.727200X2.032000*%
%ADD17R,1.727200X1.727200*%
%ADD18O,1.727200X1.727200*%
%ADD19R,0.797560X0.797560*%
%ADD20R,0.900000X1.200000*%
%ADD21C,0.685800*%
%ADD22C,0.685801*%
%ADD23C,0.203200*%
%ADD24C,0.152400*%
%ADD25C,0.254000*%
%ADD26C,0.812800*%
G04 APERTURE END LIST*
D10*
D11*
G36*
X120219423Y-90705069D02*
X120251094Y-90705572D01*
X120278725Y-90706621D01*
X120303824Y-90708340D01*
X120327893Y-90710851D01*
X120352439Y-90714276D01*
X120378967Y-90718740D01*
X120400931Y-90722815D01*
X120459786Y-90735578D01*
X120520883Y-90751645D01*
X120581336Y-90770182D01*
X120638260Y-90790354D01*
X120649639Y-90794777D01*
X120692817Y-90811970D01*
X120735192Y-90829108D01*
X120777150Y-90846370D01*
X120819080Y-90863937D01*
X120861369Y-90881989D01*
X120904404Y-90900707D01*
X120948573Y-90920271D01*
X120994265Y-90940862D01*
X121041866Y-90962659D01*
X121091764Y-90985844D01*
X121144347Y-91010597D01*
X121200003Y-91037099D01*
X121259118Y-91065528D01*
X121322082Y-91096067D01*
X121389280Y-91128896D01*
X121461102Y-91164194D01*
X121537935Y-91202143D01*
X121620166Y-91242923D01*
X121708183Y-91286714D01*
X121730903Y-91298037D01*
X121809183Y-91336981D01*
X121881702Y-91372880D01*
X121948949Y-91405961D01*
X122011415Y-91436448D01*
X122069589Y-91464567D01*
X122123962Y-91490545D01*
X122175024Y-91514606D01*
X122223265Y-91536978D01*
X122269175Y-91557885D01*
X122313244Y-91577553D01*
X122355962Y-91596208D01*
X122397819Y-91614076D01*
X122439306Y-91631382D01*
X122480912Y-91648353D01*
X122523128Y-91665213D01*
X122556403Y-91678281D01*
X122579926Y-91687518D01*
X122601319Y-91696037D01*
X122619688Y-91703473D01*
X122634143Y-91709460D01*
X122643791Y-91713635D01*
X122647732Y-91715624D01*
X122647199Y-91719719D01*
X122641987Y-91727737D01*
X122632739Y-91738968D01*
X122620100Y-91752704D01*
X122604712Y-91768236D01*
X122587219Y-91784855D01*
X122574178Y-91796657D01*
X122506199Y-91852758D01*
X122431764Y-91906253D01*
X122350994Y-91957086D01*
X122264011Y-92005200D01*
X122170938Y-92050538D01*
X122071897Y-92093043D01*
X121967009Y-92132658D01*
X121856398Y-92169327D01*
X121740185Y-92202992D01*
X121653292Y-92225296D01*
X121552697Y-92248538D01*
X121457709Y-92267867D01*
X121368081Y-92283303D01*
X121283561Y-92294868D01*
X121203901Y-92302580D01*
X121128851Y-92306462D01*
X121058163Y-92306535D01*
X120991587Y-92302818D01*
X120928874Y-92295332D01*
X120891082Y-92288660D01*
X120830450Y-92273748D01*
X120775094Y-92254367D01*
X120725086Y-92230590D01*
X120680499Y-92202491D01*
X120641404Y-92170142D01*
X120607873Y-92133617D01*
X120579979Y-92092988D01*
X120557795Y-92048329D01*
X120541392Y-91999713D01*
X120530842Y-91947214D01*
X120527903Y-91920940D01*
X120527085Y-91909833D01*
X120526149Y-91901698D01*
X120524111Y-91895994D01*
X120519991Y-91892178D01*
X120512806Y-91889710D01*
X120501575Y-91888046D01*
X120485315Y-91886646D01*
X120463045Y-91884967D01*
X120462667Y-91884937D01*
X120435115Y-91882710D01*
X120413944Y-91880816D01*
X120398491Y-91879166D01*
X120388094Y-91877673D01*
X120382090Y-91876249D01*
X120379817Y-91874807D01*
X120379918Y-91873974D01*
X120377973Y-91872665D01*
X120371139Y-91872440D01*
X120361468Y-91873114D01*
X120351010Y-91874497D01*
X120341817Y-91876403D01*
X120337431Y-91877859D01*
X120331923Y-91879376D01*
X120320616Y-91881836D01*
X120304669Y-91885008D01*
X120285241Y-91888665D01*
X120263489Y-91892578D01*
X120258056Y-91893529D01*
X120176570Y-91907036D01*
X120099154Y-91918409D01*
X120023266Y-91927987D01*
X119946367Y-91936109D01*
X119922917Y-91938294D01*
X119900487Y-91939888D01*
X119873281Y-91941121D01*
X119842652Y-91941993D01*
X119809951Y-91942504D01*
X119776529Y-91942652D01*
X119743738Y-91942438D01*
X119712930Y-91941861D01*
X119685455Y-91940920D01*
X119662666Y-91939615D01*
X119649514Y-91938402D01*
X119576686Y-91928747D01*
X119505829Y-91916860D01*
X119435068Y-91902349D01*
X119362527Y-91884822D01*
X119286331Y-91863890D01*
X119270857Y-91859368D01*
X119248243Y-91852575D01*
X119231577Y-91847222D01*
X119219982Y-91842959D01*
X119212578Y-91839438D01*
X119208490Y-91836309D01*
X119207057Y-91833968D01*
X119206091Y-91828855D01*
X119204509Y-91817561D01*
X119202410Y-91800925D01*
X119199895Y-91779783D01*
X119197063Y-91754975D01*
X119194013Y-91727338D01*
X119190918Y-91698392D01*
X119187321Y-91664399D01*
X119184435Y-91636757D01*
X119182312Y-91614791D01*
X119181001Y-91597830D01*
X119180553Y-91585198D01*
X119181018Y-91576223D01*
X119182447Y-91570230D01*
X119184890Y-91566547D01*
X119188397Y-91564499D01*
X119193018Y-91563413D01*
X119198805Y-91562615D01*
X119201091Y-91562283D01*
X119212337Y-91560254D01*
X119229389Y-91556797D01*
X119251193Y-91552151D01*
X119276700Y-91546555D01*
X119304858Y-91540249D01*
X119334615Y-91533471D01*
X119364921Y-91526461D01*
X119394725Y-91519457D01*
X119422975Y-91512700D01*
X119448620Y-91506427D01*
X119467833Y-91501593D01*
X119570462Y-91474234D01*
X119666453Y-91446397D01*
X119756213Y-91417945D01*
X119840153Y-91388742D01*
X119918680Y-91358650D01*
X119992203Y-91327534D01*
X120004056Y-91322213D01*
X120074730Y-91287760D01*
X120146700Y-91248022D01*
X120218246Y-91204092D01*
X120287648Y-91157066D01*
X120353190Y-91108037D01*
X120397403Y-91071786D01*
X120415065Y-91056423D01*
X120433398Y-91040012D01*
X120451684Y-91023244D01*
X120469206Y-91006810D01*
X120485249Y-90991401D01*
X120499095Y-90977709D01*
X120510027Y-90966424D01*
X120517329Y-90958238D01*
X120520283Y-90953841D01*
X120520219Y-90953368D01*
X120514114Y-90950119D01*
X120502137Y-90945797D01*
X120485347Y-90940663D01*
X120464801Y-90934980D01*
X120441556Y-90929011D01*
X120416670Y-90923019D01*
X120391199Y-90917265D01*
X120366201Y-90912013D01*
X120342732Y-90907526D01*
X120321852Y-90904065D01*
X120321556Y-90904021D01*
X120266513Y-90897477D01*
X120212179Y-90894423D01*
X120157039Y-90894893D01*
X120099581Y-90898923D01*
X120038289Y-90906548D01*
X120008461Y-90911261D01*
X119915204Y-90929850D01*
X119825771Y-90953707D01*
X119740377Y-90982725D01*
X119659234Y-91016797D01*
X119582557Y-91055818D01*
X119510558Y-91099681D01*
X119443451Y-91148280D01*
X119381449Y-91201509D01*
X119337949Y-91244915D01*
X119295574Y-91293556D01*
X119257536Y-91344333D01*
X119224493Y-91396230D01*
X119197105Y-91448230D01*
X119179656Y-91489355D01*
X119174680Y-91501769D01*
X119170056Y-91511937D01*
X119166789Y-91517652D01*
X119163532Y-91520958D01*
X119155631Y-91528670D01*
X119143561Y-91540334D01*
X119127793Y-91555496D01*
X119108801Y-91573704D01*
X119087057Y-91594504D01*
X119063034Y-91617442D01*
X119037205Y-91642065D01*
X119018042Y-91660309D01*
X118991341Y-91685737D01*
X118966208Y-91709712D01*
X118943104Y-91731794D01*
X118922486Y-91751540D01*
X118904813Y-91768513D01*
X118890545Y-91782270D01*
X118880139Y-91792371D01*
X118874055Y-91798376D01*
X118872607Y-91799922D01*
X118875572Y-91801699D01*
X118884384Y-91806052D01*
X118898436Y-91812701D01*
X118917123Y-91821368D01*
X118939836Y-91831773D01*
X118965972Y-91843637D01*
X118994923Y-91856683D01*
X119026083Y-91870630D01*
X119033468Y-91873923D01*
X119195126Y-91945942D01*
X119211981Y-92006214D01*
X119220094Y-92034199D01*
X119229941Y-92066534D01*
X119240916Y-92101347D01*
X119252411Y-92136762D01*
X119263817Y-92170907D01*
X119274527Y-92201907D01*
X119283511Y-92226757D01*
X119288959Y-92240443D01*
X119293479Y-92248917D01*
X119298136Y-92253733D01*
X119303830Y-92256392D01*
X119311132Y-92257558D01*
X119324453Y-92258496D01*
X119342760Y-92259209D01*
X119365020Y-92259697D01*
X119390201Y-92259965D01*
X119417269Y-92260013D01*
X119445192Y-92259845D01*
X119472937Y-92259461D01*
X119499472Y-92258866D01*
X119523763Y-92258060D01*
X119544777Y-92257046D01*
X119561319Y-92255841D01*
X119724261Y-92238212D01*
X119824139Y-92224838D01*
X119866859Y-92218400D01*
X119903678Y-92212100D01*
X119935734Y-92205624D01*
X119964167Y-92198661D01*
X119990116Y-92190899D01*
X120014721Y-92182025D01*
X120039122Y-92171727D01*
X120064457Y-92159694D01*
X120067556Y-92158147D01*
X120123115Y-92126813D01*
X120177664Y-92089211D01*
X120230233Y-92046128D01*
X120279852Y-91998353D01*
X120320314Y-91953042D01*
X120338347Y-91931319D01*
X120340748Y-91956569D01*
X120347775Y-92003991D01*
X120359681Y-92053168D01*
X120375802Y-92102224D01*
X120395477Y-92149282D01*
X120418042Y-92192463D01*
X120431719Y-92214289D01*
X120469340Y-92264006D01*
X120512141Y-92309003D01*
X120560037Y-92349251D01*
X120612937Y-92384723D01*
X120670757Y-92415389D01*
X120733406Y-92441223D01*
X120800799Y-92462197D01*
X120872848Y-92478282D01*
X120949465Y-92489451D01*
X121030562Y-92495676D01*
X121116053Y-92496929D01*
X121205848Y-92493182D01*
X121284639Y-92486139D01*
X121357782Y-92476822D01*
X121435875Y-92464509D01*
X121517621Y-92449481D01*
X121601724Y-92432024D01*
X121686887Y-92412418D01*
X121771813Y-92390949D01*
X121855205Y-92367899D01*
X121931986Y-92344745D01*
X122029460Y-92312112D01*
X122123786Y-92276670D01*
X122214613Y-92238629D01*
X122301592Y-92198203D01*
X122384372Y-92155600D01*
X122462604Y-92111034D01*
X122535937Y-92064714D01*
X122604021Y-92016853D01*
X122666506Y-91967661D01*
X122723041Y-91917350D01*
X122773278Y-91866131D01*
X122816865Y-91814215D01*
X122821516Y-91808103D01*
X122831132Y-91795676D01*
X122837892Y-91788104D01*
X122842929Y-91784422D01*
X122847377Y-91783664D01*
X122849726Y-91784079D01*
X122869163Y-91788388D01*
X122894240Y-91793070D01*
X122923568Y-91797922D01*
X122955757Y-91802737D01*
X122989415Y-91807313D01*
X123023152Y-91811443D01*
X123055578Y-91814923D01*
X123066167Y-91815932D01*
X123097905Y-91818462D01*
X123129888Y-91820184D01*
X123162791Y-91821067D01*
X123197290Y-91821080D01*
X123234060Y-91820194D01*
X123273775Y-91818377D01*
X123317113Y-91815599D01*
X123364746Y-91811829D01*
X123417352Y-91807037D01*
X123475605Y-91801192D01*
X123537125Y-91794600D01*
X123626165Y-91784237D01*
X123721639Y-91772018D01*
X123823193Y-91758007D01*
X123930469Y-91742269D01*
X124043115Y-91724868D01*
X124160774Y-91705867D01*
X124283091Y-91685332D01*
X124409712Y-91663326D01*
X124540280Y-91639914D01*
X124674441Y-91615160D01*
X124811840Y-91589128D01*
X124952121Y-91561882D01*
X125094930Y-91533486D01*
X125239911Y-91504006D01*
X125386709Y-91473505D01*
X125534969Y-91442046D01*
X125684335Y-91409696D01*
X125771972Y-91390408D01*
X125816466Y-91380554D01*
X125854684Y-91372267D01*
X125887258Y-91365680D01*
X125914823Y-91360928D01*
X125938011Y-91358146D01*
X125957455Y-91357468D01*
X125973788Y-91359028D01*
X125987642Y-91362962D01*
X125999652Y-91369404D01*
X126010449Y-91378488D01*
X126020667Y-91390348D01*
X126030938Y-91405120D01*
X126041896Y-91422938D01*
X126054174Y-91443936D01*
X126058453Y-91451295D01*
X126095722Y-91517072D01*
X126130654Y-91582322D01*
X126162855Y-91646214D01*
X126191929Y-91707915D01*
X126217481Y-91766594D01*
X126239117Y-91821419D01*
X126252982Y-91860859D01*
X126268442Y-91913272D01*
X126279158Y-91962184D01*
X126285158Y-92007367D01*
X126286469Y-92048594D01*
X126283119Y-92085635D01*
X126275134Y-92118262D01*
X126262543Y-92146247D01*
X126245372Y-92169362D01*
X126223649Y-92187378D01*
X126213124Y-92193395D01*
X126202991Y-92198154D01*
X126191941Y-92202524D01*
X126179615Y-92206533D01*
X126165657Y-92210209D01*
X126149709Y-92213581D01*
X126131413Y-92216677D01*
X126110414Y-92219524D01*
X126086352Y-92222152D01*
X126058872Y-92224587D01*
X126027615Y-92226859D01*
X125992225Y-92228995D01*
X125952343Y-92231023D01*
X125907613Y-92232973D01*
X125857677Y-92234871D01*
X125802178Y-92236746D01*
X125740759Y-92238626D01*
X125673062Y-92240540D01*
X125598731Y-92242515D01*
X125585000Y-92242869D01*
X125462923Y-92246207D01*
X125347344Y-92249786D01*
X125237707Y-92253639D01*
X125133456Y-92257794D01*
X125034037Y-92262284D01*
X124938895Y-92267138D01*
X124847474Y-92272388D01*
X124759219Y-92278064D01*
X124673574Y-92284196D01*
X124589985Y-92290816D01*
X124507897Y-92297954D01*
X124426754Y-92305640D01*
X124399667Y-92308345D01*
X124270967Y-92322177D01*
X124146502Y-92337273D01*
X124025523Y-92353805D01*
X123907281Y-92371941D01*
X123791028Y-92391851D01*
X123676016Y-92413705D01*
X123561496Y-92437671D01*
X123446721Y-92463920D01*
X123330941Y-92492620D01*
X123213408Y-92523942D01*
X123093373Y-92558054D01*
X122970090Y-92595127D01*
X122842808Y-92635329D01*
X122710780Y-92678830D01*
X122605792Y-92714551D01*
X122555932Y-92732059D01*
X122508400Y-92749485D01*
X122462527Y-92767150D01*
X122417643Y-92785374D01*
X122373080Y-92804476D01*
X122328167Y-92824779D01*
X122282235Y-92846601D01*
X122234615Y-92870263D01*
X122184637Y-92896085D01*
X122131633Y-92924388D01*
X122074932Y-92955492D01*
X122013865Y-92989717D01*
X121947763Y-93027384D01*
X121926694Y-93039493D01*
X121868073Y-93073223D01*
X121815102Y-93103651D01*
X121767334Y-93131025D01*
X121724321Y-93155591D01*
X121685616Y-93177596D01*
X121650771Y-93197287D01*
X121619338Y-93214910D01*
X121590870Y-93230714D01*
X121564919Y-93244944D01*
X121541037Y-93257848D01*
X121518777Y-93269672D01*
X121497692Y-93280664D01*
X121477332Y-93291070D01*
X121457252Y-93301138D01*
X121437003Y-93311113D01*
X121416138Y-93321244D01*
X121414306Y-93322128D01*
X121346867Y-93353565D01*
X121283250Y-93380819D01*
X121222082Y-93404282D01*
X121161992Y-93424345D01*
X121101609Y-93441402D01*
X121039560Y-93455844D01*
X120974474Y-93468064D01*
X120904978Y-93478454D01*
X120840139Y-93486279D01*
X120799152Y-93490039D01*
X120753206Y-93492999D01*
X120704358Y-93495105D01*
X120654663Y-93496301D01*
X120606179Y-93496532D01*
X120560962Y-93495744D01*
X120531458Y-93494508D01*
X120451912Y-93487865D01*
X120371456Y-93476743D01*
X120291278Y-93461443D01*
X120212567Y-93442263D01*
X120136511Y-93419501D01*
X120064298Y-93393456D01*
X119997116Y-93364427D01*
X119979008Y-93355625D01*
X119898028Y-93311372D01*
X119818806Y-93260408D01*
X119741482Y-93202893D01*
X119666195Y-93138983D01*
X119593086Y-93068836D01*
X119522295Y-92992610D01*
X119453960Y-92910463D01*
X119388223Y-92822552D01*
X119325222Y-92729036D01*
X119265097Y-92630070D01*
X119207989Y-92525814D01*
X119162897Y-92435201D01*
X119144559Y-92395287D01*
X119126937Y-92353922D01*
X119109526Y-92309814D01*
X119091819Y-92261672D01*
X119073310Y-92208204D01*
X119068965Y-92195250D01*
X119061296Y-92171804D01*
X119053193Y-92146214D01*
X119045008Y-92119673D01*
X119037093Y-92093373D01*
X119029801Y-92068508D01*
X119023485Y-92046269D01*
X119018496Y-92027848D01*
X119015187Y-92014440D01*
X119014378Y-92010558D01*
X119012209Y-91998996D01*
X118807595Y-91916428D01*
X118771615Y-91901883D01*
X118737607Y-91888085D01*
X118706132Y-91875266D01*
X118677748Y-91863654D01*
X118653014Y-91853480D01*
X118632490Y-91844974D01*
X118616734Y-91838367D01*
X118606307Y-91833889D01*
X118601768Y-91831769D01*
X118601619Y-91831656D01*
X118603960Y-91829006D01*
X118611162Y-91822050D01*
X118622812Y-91811163D01*
X118638495Y-91796724D01*
X118657797Y-91779108D01*
X118680304Y-91758694D01*
X118705601Y-91735859D01*
X118733274Y-91710979D01*
X118762909Y-91684432D01*
X118788286Y-91661769D01*
X118824302Y-91629640D01*
X118855416Y-91601846D01*
X118881998Y-91578033D01*
X118904415Y-91557848D01*
X118923038Y-91540935D01*
X118938235Y-91526942D01*
X118950376Y-91515513D01*
X118959830Y-91506294D01*
X118966965Y-91498931D01*
X118972152Y-91493071D01*
X118975759Y-91488358D01*
X118978156Y-91484439D01*
X118979712Y-91480959D01*
X118980795Y-91477565D01*
X118980979Y-91476897D01*
X118987388Y-91456348D01*
X118996490Y-91431398D01*
X119007560Y-91403816D01*
X119019874Y-91375375D01*
X119032705Y-91347843D01*
X119039300Y-91334554D01*
X119071749Y-91276345D01*
X119108977Y-91220220D01*
X119151666Y-91165249D01*
X119200499Y-91110502D01*
X119213642Y-91096849D01*
X119269151Y-91043310D01*
X119326431Y-90994827D01*
X119386685Y-90950531D01*
X119451117Y-90909557D01*
X119520931Y-90871037D01*
X119541917Y-90860420D01*
X119609971Y-90828548D01*
X119677985Y-90800713D01*
X119747187Y-90776541D01*
X119818807Y-90755659D01*
X119894072Y-90737692D01*
X119974212Y-90722268D01*
X120020680Y-90714752D01*
X120040516Y-90711832D01*
X120057844Y-90709566D01*
X120074061Y-90707870D01*
X120090562Y-90706659D01*
X120108742Y-90705848D01*
X120129998Y-90705355D01*
X120155724Y-90705094D01*
X120182208Y-90704991D01*
X120219423Y-90705069D01*
X120219423Y-90705069D01*
G37*
X120219423Y-90705069D02*
X120251094Y-90705572D01*
X120278725Y-90706621D01*
X120303824Y-90708340D01*
X120327893Y-90710851D01*
X120352439Y-90714276D01*
X120378967Y-90718740D01*
X120400931Y-90722815D01*
X120459786Y-90735578D01*
X120520883Y-90751645D01*
X120581336Y-90770182D01*
X120638260Y-90790354D01*
X120649639Y-90794777D01*
X120692817Y-90811970D01*
X120735192Y-90829108D01*
X120777150Y-90846370D01*
X120819080Y-90863937D01*
X120861369Y-90881989D01*
X120904404Y-90900707D01*
X120948573Y-90920271D01*
X120994265Y-90940862D01*
X121041866Y-90962659D01*
X121091764Y-90985844D01*
X121144347Y-91010597D01*
X121200003Y-91037099D01*
X121259118Y-91065528D01*
X121322082Y-91096067D01*
X121389280Y-91128896D01*
X121461102Y-91164194D01*
X121537935Y-91202143D01*
X121620166Y-91242923D01*
X121708183Y-91286714D01*
X121730903Y-91298037D01*
X121809183Y-91336981D01*
X121881702Y-91372880D01*
X121948949Y-91405961D01*
X122011415Y-91436448D01*
X122069589Y-91464567D01*
X122123962Y-91490545D01*
X122175024Y-91514606D01*
X122223265Y-91536978D01*
X122269175Y-91557885D01*
X122313244Y-91577553D01*
X122355962Y-91596208D01*
X122397819Y-91614076D01*
X122439306Y-91631382D01*
X122480912Y-91648353D01*
X122523128Y-91665213D01*
X122556403Y-91678281D01*
X122579926Y-91687518D01*
X122601319Y-91696037D01*
X122619688Y-91703473D01*
X122634143Y-91709460D01*
X122643791Y-91713635D01*
X122647732Y-91715624D01*
X122647199Y-91719719D01*
X122641987Y-91727737D01*
X122632739Y-91738968D01*
X122620100Y-91752704D01*
X122604712Y-91768236D01*
X122587219Y-91784855D01*
X122574178Y-91796657D01*
X122506199Y-91852758D01*
X122431764Y-91906253D01*
X122350994Y-91957086D01*
X122264011Y-92005200D01*
X122170938Y-92050538D01*
X122071897Y-92093043D01*
X121967009Y-92132658D01*
X121856398Y-92169327D01*
X121740185Y-92202992D01*
X121653292Y-92225296D01*
X121552697Y-92248538D01*
X121457709Y-92267867D01*
X121368081Y-92283303D01*
X121283561Y-92294868D01*
X121203901Y-92302580D01*
X121128851Y-92306462D01*
X121058163Y-92306535D01*
X120991587Y-92302818D01*
X120928874Y-92295332D01*
X120891082Y-92288660D01*
X120830450Y-92273748D01*
X120775094Y-92254367D01*
X120725086Y-92230590D01*
X120680499Y-92202491D01*
X120641404Y-92170142D01*
X120607873Y-92133617D01*
X120579979Y-92092988D01*
X120557795Y-92048329D01*
X120541392Y-91999713D01*
X120530842Y-91947214D01*
X120527903Y-91920940D01*
X120527085Y-91909833D01*
X120526149Y-91901698D01*
X120524111Y-91895994D01*
X120519991Y-91892178D01*
X120512806Y-91889710D01*
X120501575Y-91888046D01*
X120485315Y-91886646D01*
X120463045Y-91884967D01*
X120462667Y-91884937D01*
X120435115Y-91882710D01*
X120413944Y-91880816D01*
X120398491Y-91879166D01*
X120388094Y-91877673D01*
X120382090Y-91876249D01*
X120379817Y-91874807D01*
X120379918Y-91873974D01*
X120377973Y-91872665D01*
X120371139Y-91872440D01*
X120361468Y-91873114D01*
X120351010Y-91874497D01*
X120341817Y-91876403D01*
X120337431Y-91877859D01*
X120331923Y-91879376D01*
X120320616Y-91881836D01*
X120304669Y-91885008D01*
X120285241Y-91888665D01*
X120263489Y-91892578D01*
X120258056Y-91893529D01*
X120176570Y-91907036D01*
X120099154Y-91918409D01*
X120023266Y-91927987D01*
X119946367Y-91936109D01*
X119922917Y-91938294D01*
X119900487Y-91939888D01*
X119873281Y-91941121D01*
X119842652Y-91941993D01*
X119809951Y-91942504D01*
X119776529Y-91942652D01*
X119743738Y-91942438D01*
X119712930Y-91941861D01*
X119685455Y-91940920D01*
X119662666Y-91939615D01*
X119649514Y-91938402D01*
X119576686Y-91928747D01*
X119505829Y-91916860D01*
X119435068Y-91902349D01*
X119362527Y-91884822D01*
X119286331Y-91863890D01*
X119270857Y-91859368D01*
X119248243Y-91852575D01*
X119231577Y-91847222D01*
X119219982Y-91842959D01*
X119212578Y-91839438D01*
X119208490Y-91836309D01*
X119207057Y-91833968D01*
X119206091Y-91828855D01*
X119204509Y-91817561D01*
X119202410Y-91800925D01*
X119199895Y-91779783D01*
X119197063Y-91754975D01*
X119194013Y-91727338D01*
X119190918Y-91698392D01*
X119187321Y-91664399D01*
X119184435Y-91636757D01*
X119182312Y-91614791D01*
X119181001Y-91597830D01*
X119180553Y-91585198D01*
X119181018Y-91576223D01*
X119182447Y-91570230D01*
X119184890Y-91566547D01*
X119188397Y-91564499D01*
X119193018Y-91563413D01*
X119198805Y-91562615D01*
X119201091Y-91562283D01*
X119212337Y-91560254D01*
X119229389Y-91556797D01*
X119251193Y-91552151D01*
X119276700Y-91546555D01*
X119304858Y-91540249D01*
X119334615Y-91533471D01*
X119364921Y-91526461D01*
X119394725Y-91519457D01*
X119422975Y-91512700D01*
X119448620Y-91506427D01*
X119467833Y-91501593D01*
X119570462Y-91474234D01*
X119666453Y-91446397D01*
X119756213Y-91417945D01*
X119840153Y-91388742D01*
X119918680Y-91358650D01*
X119992203Y-91327534D01*
X120004056Y-91322213D01*
X120074730Y-91287760D01*
X120146700Y-91248022D01*
X120218246Y-91204092D01*
X120287648Y-91157066D01*
X120353190Y-91108037D01*
X120397403Y-91071786D01*
X120415065Y-91056423D01*
X120433398Y-91040012D01*
X120451684Y-91023244D01*
X120469206Y-91006810D01*
X120485249Y-90991401D01*
X120499095Y-90977709D01*
X120510027Y-90966424D01*
X120517329Y-90958238D01*
X120520283Y-90953841D01*
X120520219Y-90953368D01*
X120514114Y-90950119D01*
X120502137Y-90945797D01*
X120485347Y-90940663D01*
X120464801Y-90934980D01*
X120441556Y-90929011D01*
X120416670Y-90923019D01*
X120391199Y-90917265D01*
X120366201Y-90912013D01*
X120342732Y-90907526D01*
X120321852Y-90904065D01*
X120321556Y-90904021D01*
X120266513Y-90897477D01*
X120212179Y-90894423D01*
X120157039Y-90894893D01*
X120099581Y-90898923D01*
X120038289Y-90906548D01*
X120008461Y-90911261D01*
X119915204Y-90929850D01*
X119825771Y-90953707D01*
X119740377Y-90982725D01*
X119659234Y-91016797D01*
X119582557Y-91055818D01*
X119510558Y-91099681D01*
X119443451Y-91148280D01*
X119381449Y-91201509D01*
X119337949Y-91244915D01*
X119295574Y-91293556D01*
X119257536Y-91344333D01*
X119224493Y-91396230D01*
X119197105Y-91448230D01*
X119179656Y-91489355D01*
X119174680Y-91501769D01*
X119170056Y-91511937D01*
X119166789Y-91517652D01*
X119163532Y-91520958D01*
X119155631Y-91528670D01*
X119143561Y-91540334D01*
X119127793Y-91555496D01*
X119108801Y-91573704D01*
X119087057Y-91594504D01*
X119063034Y-91617442D01*
X119037205Y-91642065D01*
X119018042Y-91660309D01*
X118991341Y-91685737D01*
X118966208Y-91709712D01*
X118943104Y-91731794D01*
X118922486Y-91751540D01*
X118904813Y-91768513D01*
X118890545Y-91782270D01*
X118880139Y-91792371D01*
X118874055Y-91798376D01*
X118872607Y-91799922D01*
X118875572Y-91801699D01*
X118884384Y-91806052D01*
X118898436Y-91812701D01*
X118917123Y-91821368D01*
X118939836Y-91831773D01*
X118965972Y-91843637D01*
X118994923Y-91856683D01*
X119026083Y-91870630D01*
X119033468Y-91873923D01*
X119195126Y-91945942D01*
X119211981Y-92006214D01*
X119220094Y-92034199D01*
X119229941Y-92066534D01*
X119240916Y-92101347D01*
X119252411Y-92136762D01*
X119263817Y-92170907D01*
X119274527Y-92201907D01*
X119283511Y-92226757D01*
X119288959Y-92240443D01*
X119293479Y-92248917D01*
X119298136Y-92253733D01*
X119303830Y-92256392D01*
X119311132Y-92257558D01*
X119324453Y-92258496D01*
X119342760Y-92259209D01*
X119365020Y-92259697D01*
X119390201Y-92259965D01*
X119417269Y-92260013D01*
X119445192Y-92259845D01*
X119472937Y-92259461D01*
X119499472Y-92258866D01*
X119523763Y-92258060D01*
X119544777Y-92257046D01*
X119561319Y-92255841D01*
X119724261Y-92238212D01*
X119824139Y-92224838D01*
X119866859Y-92218400D01*
X119903678Y-92212100D01*
X119935734Y-92205624D01*
X119964167Y-92198661D01*
X119990116Y-92190899D01*
X120014721Y-92182025D01*
X120039122Y-92171727D01*
X120064457Y-92159694D01*
X120067556Y-92158147D01*
X120123115Y-92126813D01*
X120177664Y-92089211D01*
X120230233Y-92046128D01*
X120279852Y-91998353D01*
X120320314Y-91953042D01*
X120338347Y-91931319D01*
X120340748Y-91956569D01*
X120347775Y-92003991D01*
X120359681Y-92053168D01*
X120375802Y-92102224D01*
X120395477Y-92149282D01*
X120418042Y-92192463D01*
X120431719Y-92214289D01*
X120469340Y-92264006D01*
X120512141Y-92309003D01*
X120560037Y-92349251D01*
X120612937Y-92384723D01*
X120670757Y-92415389D01*
X120733406Y-92441223D01*
X120800799Y-92462197D01*
X120872848Y-92478282D01*
X120949465Y-92489451D01*
X121030562Y-92495676D01*
X121116053Y-92496929D01*
X121205848Y-92493182D01*
X121284639Y-92486139D01*
X121357782Y-92476822D01*
X121435875Y-92464509D01*
X121517621Y-92449481D01*
X121601724Y-92432024D01*
X121686887Y-92412418D01*
X121771813Y-92390949D01*
X121855205Y-92367899D01*
X121931986Y-92344745D01*
X122029460Y-92312112D01*
X122123786Y-92276670D01*
X122214613Y-92238629D01*
X122301592Y-92198203D01*
X122384372Y-92155600D01*
X122462604Y-92111034D01*
X122535937Y-92064714D01*
X122604021Y-92016853D01*
X122666506Y-91967661D01*
X122723041Y-91917350D01*
X122773278Y-91866131D01*
X122816865Y-91814215D01*
X122821516Y-91808103D01*
X122831132Y-91795676D01*
X122837892Y-91788104D01*
X122842929Y-91784422D01*
X122847377Y-91783664D01*
X122849726Y-91784079D01*
X122869163Y-91788388D01*
X122894240Y-91793070D01*
X122923568Y-91797922D01*
X122955757Y-91802737D01*
X122989415Y-91807313D01*
X123023152Y-91811443D01*
X123055578Y-91814923D01*
X123066167Y-91815932D01*
X123097905Y-91818462D01*
X123129888Y-91820184D01*
X123162791Y-91821067D01*
X123197290Y-91821080D01*
X123234060Y-91820194D01*
X123273775Y-91818377D01*
X123317113Y-91815599D01*
X123364746Y-91811829D01*
X123417352Y-91807037D01*
X123475605Y-91801192D01*
X123537125Y-91794600D01*
X123626165Y-91784237D01*
X123721639Y-91772018D01*
X123823193Y-91758007D01*
X123930469Y-91742269D01*
X124043115Y-91724868D01*
X124160774Y-91705867D01*
X124283091Y-91685332D01*
X124409712Y-91663326D01*
X124540280Y-91639914D01*
X124674441Y-91615160D01*
X124811840Y-91589128D01*
X124952121Y-91561882D01*
X125094930Y-91533486D01*
X125239911Y-91504006D01*
X125386709Y-91473505D01*
X125534969Y-91442046D01*
X125684335Y-91409696D01*
X125771972Y-91390408D01*
X125816466Y-91380554D01*
X125854684Y-91372267D01*
X125887258Y-91365680D01*
X125914823Y-91360928D01*
X125938011Y-91358146D01*
X125957455Y-91357468D01*
X125973788Y-91359028D01*
X125987642Y-91362962D01*
X125999652Y-91369404D01*
X126010449Y-91378488D01*
X126020667Y-91390348D01*
X126030938Y-91405120D01*
X126041896Y-91422938D01*
X126054174Y-91443936D01*
X126058453Y-91451295D01*
X126095722Y-91517072D01*
X126130654Y-91582322D01*
X126162855Y-91646214D01*
X126191929Y-91707915D01*
X126217481Y-91766594D01*
X126239117Y-91821419D01*
X126252982Y-91860859D01*
X126268442Y-91913272D01*
X126279158Y-91962184D01*
X126285158Y-92007367D01*
X126286469Y-92048594D01*
X126283119Y-92085635D01*
X126275134Y-92118262D01*
X126262543Y-92146247D01*
X126245372Y-92169362D01*
X126223649Y-92187378D01*
X126213124Y-92193395D01*
X126202991Y-92198154D01*
X126191941Y-92202524D01*
X126179615Y-92206533D01*
X126165657Y-92210209D01*
X126149709Y-92213581D01*
X126131413Y-92216677D01*
X126110414Y-92219524D01*
X126086352Y-92222152D01*
X126058872Y-92224587D01*
X126027615Y-92226859D01*
X125992225Y-92228995D01*
X125952343Y-92231023D01*
X125907613Y-92232973D01*
X125857677Y-92234871D01*
X125802178Y-92236746D01*
X125740759Y-92238626D01*
X125673062Y-92240540D01*
X125598731Y-92242515D01*
X125585000Y-92242869D01*
X125462923Y-92246207D01*
X125347344Y-92249786D01*
X125237707Y-92253639D01*
X125133456Y-92257794D01*
X125034037Y-92262284D01*
X124938895Y-92267138D01*
X124847474Y-92272388D01*
X124759219Y-92278064D01*
X124673574Y-92284196D01*
X124589985Y-92290816D01*
X124507897Y-92297954D01*
X124426754Y-92305640D01*
X124399667Y-92308345D01*
X124270967Y-92322177D01*
X124146502Y-92337273D01*
X124025523Y-92353805D01*
X123907281Y-92371941D01*
X123791028Y-92391851D01*
X123676016Y-92413705D01*
X123561496Y-92437671D01*
X123446721Y-92463920D01*
X123330941Y-92492620D01*
X123213408Y-92523942D01*
X123093373Y-92558054D01*
X122970090Y-92595127D01*
X122842808Y-92635329D01*
X122710780Y-92678830D01*
X122605792Y-92714551D01*
X122555932Y-92732059D01*
X122508400Y-92749485D01*
X122462527Y-92767150D01*
X122417643Y-92785374D01*
X122373080Y-92804476D01*
X122328167Y-92824779D01*
X122282235Y-92846601D01*
X122234615Y-92870263D01*
X122184637Y-92896085D01*
X122131633Y-92924388D01*
X122074932Y-92955492D01*
X122013865Y-92989717D01*
X121947763Y-93027384D01*
X121926694Y-93039493D01*
X121868073Y-93073223D01*
X121815102Y-93103651D01*
X121767334Y-93131025D01*
X121724321Y-93155591D01*
X121685616Y-93177596D01*
X121650771Y-93197287D01*
X121619338Y-93214910D01*
X121590870Y-93230714D01*
X121564919Y-93244944D01*
X121541037Y-93257848D01*
X121518777Y-93269672D01*
X121497692Y-93280664D01*
X121477332Y-93291070D01*
X121457252Y-93301138D01*
X121437003Y-93311113D01*
X121416138Y-93321244D01*
X121414306Y-93322128D01*
X121346867Y-93353565D01*
X121283250Y-93380819D01*
X121222082Y-93404282D01*
X121161992Y-93424345D01*
X121101609Y-93441402D01*
X121039560Y-93455844D01*
X120974474Y-93468064D01*
X120904978Y-93478454D01*
X120840139Y-93486279D01*
X120799152Y-93490039D01*
X120753206Y-93492999D01*
X120704358Y-93495105D01*
X120654663Y-93496301D01*
X120606179Y-93496532D01*
X120560962Y-93495744D01*
X120531458Y-93494508D01*
X120451912Y-93487865D01*
X120371456Y-93476743D01*
X120291278Y-93461443D01*
X120212567Y-93442263D01*
X120136511Y-93419501D01*
X120064298Y-93393456D01*
X119997116Y-93364427D01*
X119979008Y-93355625D01*
X119898028Y-93311372D01*
X119818806Y-93260408D01*
X119741482Y-93202893D01*
X119666195Y-93138983D01*
X119593086Y-93068836D01*
X119522295Y-92992610D01*
X119453960Y-92910463D01*
X119388223Y-92822552D01*
X119325222Y-92729036D01*
X119265097Y-92630070D01*
X119207989Y-92525814D01*
X119162897Y-92435201D01*
X119144559Y-92395287D01*
X119126937Y-92353922D01*
X119109526Y-92309814D01*
X119091819Y-92261672D01*
X119073310Y-92208204D01*
X119068965Y-92195250D01*
X119061296Y-92171804D01*
X119053193Y-92146214D01*
X119045008Y-92119673D01*
X119037093Y-92093373D01*
X119029801Y-92068508D01*
X119023485Y-92046269D01*
X119018496Y-92027848D01*
X119015187Y-92014440D01*
X119014378Y-92010558D01*
X119012209Y-91998996D01*
X118807595Y-91916428D01*
X118771615Y-91901883D01*
X118737607Y-91888085D01*
X118706132Y-91875266D01*
X118677748Y-91863654D01*
X118653014Y-91853480D01*
X118632490Y-91844974D01*
X118616734Y-91838367D01*
X118606307Y-91833889D01*
X118601768Y-91831769D01*
X118601619Y-91831656D01*
X118603960Y-91829006D01*
X118611162Y-91822050D01*
X118622812Y-91811163D01*
X118638495Y-91796724D01*
X118657797Y-91779108D01*
X118680304Y-91758694D01*
X118705601Y-91735859D01*
X118733274Y-91710979D01*
X118762909Y-91684432D01*
X118788286Y-91661769D01*
X118824302Y-91629640D01*
X118855416Y-91601846D01*
X118881998Y-91578033D01*
X118904415Y-91557848D01*
X118923038Y-91540935D01*
X118938235Y-91526942D01*
X118950376Y-91515513D01*
X118959830Y-91506294D01*
X118966965Y-91498931D01*
X118972152Y-91493071D01*
X118975759Y-91488358D01*
X118978156Y-91484439D01*
X118979712Y-91480959D01*
X118980795Y-91477565D01*
X118980979Y-91476897D01*
X118987388Y-91456348D01*
X118996490Y-91431398D01*
X119007560Y-91403816D01*
X119019874Y-91375375D01*
X119032705Y-91347843D01*
X119039300Y-91334554D01*
X119071749Y-91276345D01*
X119108977Y-91220220D01*
X119151666Y-91165249D01*
X119200499Y-91110502D01*
X119213642Y-91096849D01*
X119269151Y-91043310D01*
X119326431Y-90994827D01*
X119386685Y-90950531D01*
X119451117Y-90909557D01*
X119520931Y-90871037D01*
X119541917Y-90860420D01*
X119609971Y-90828548D01*
X119677985Y-90800713D01*
X119747187Y-90776541D01*
X119818807Y-90755659D01*
X119894072Y-90737692D01*
X119974212Y-90722268D01*
X120020680Y-90714752D01*
X120040516Y-90711832D01*
X120057844Y-90709566D01*
X120074061Y-90707870D01*
X120090562Y-90706659D01*
X120108742Y-90705848D01*
X120129998Y-90705355D01*
X120155724Y-90705094D01*
X120182208Y-90704991D01*
X120219423Y-90705069D01*
G36*
X128831591Y-90635240D02*
X128859611Y-90635249D01*
X128884284Y-90635268D01*
X128905829Y-90635302D01*
X128924469Y-90635355D01*
X128940425Y-90635430D01*
X128953918Y-90635531D01*
X128965170Y-90635663D01*
X128974402Y-90635829D01*
X128981836Y-90636032D01*
X128987692Y-90636278D01*
X128992193Y-90636569D01*
X128995559Y-90636910D01*
X128998012Y-90637305D01*
X128999774Y-90637757D01*
X129001066Y-90638270D01*
X129002025Y-90638797D01*
X129006687Y-90642808D01*
X129009928Y-90647608D01*
X129010003Y-90647794D01*
X129010644Y-90650393D01*
X129011921Y-90656460D01*
X129013784Y-90665734D01*
X129016183Y-90677954D01*
X129019068Y-90692861D01*
X129022390Y-90710194D01*
X129026099Y-90729691D01*
X129030144Y-90751093D01*
X129034477Y-90774138D01*
X129039046Y-90798566D01*
X129043803Y-90824117D01*
X129046387Y-90838044D01*
X129051235Y-90864204D01*
X129055919Y-90889463D01*
X129060389Y-90913552D01*
X129064595Y-90936203D01*
X129068487Y-90957145D01*
X129072014Y-90976110D01*
X129075126Y-90992829D01*
X129077774Y-91007031D01*
X129079908Y-91018448D01*
X129081476Y-91026810D01*
X129082430Y-91031848D01*
X129082660Y-91033035D01*
X129083317Y-91036423D01*
X129083996Y-91039424D01*
X129084923Y-91042157D01*
X129086328Y-91044744D01*
X129088437Y-91047304D01*
X129091480Y-91049956D01*
X129095683Y-91052822D01*
X129101276Y-91056022D01*
X129108486Y-91059675D01*
X129117540Y-91063901D01*
X129128668Y-91068820D01*
X129142097Y-91074553D01*
X129158055Y-91081220D01*
X129176770Y-91088941D01*
X129198470Y-91097835D01*
X129223384Y-91108023D01*
X129230854Y-91111078D01*
X129256819Y-91121707D01*
X129279515Y-91130993D01*
X129299193Y-91139006D01*
X129316101Y-91145817D01*
X129330489Y-91151493D01*
X129342607Y-91156105D01*
X129352706Y-91159723D01*
X129361034Y-91162415D01*
X129367841Y-91164250D01*
X129373377Y-91165300D01*
X129377892Y-91165632D01*
X129381635Y-91165317D01*
X129384856Y-91164423D01*
X129387805Y-91163021D01*
X129390732Y-91161180D01*
X129393886Y-91158968D01*
X129396496Y-91157146D01*
X129399892Y-91154822D01*
X129406177Y-91150514D01*
X129415116Y-91144385D01*
X129426473Y-91136597D01*
X129440011Y-91127312D01*
X129455495Y-91116691D01*
X129472689Y-91104896D01*
X129491356Y-91092090D01*
X129511260Y-91078434D01*
X129532166Y-91064091D01*
X129553838Y-91049221D01*
X129562300Y-91043415D01*
X129587625Y-91026042D01*
X129610019Y-91010695D01*
X129629675Y-90997248D01*
X129646783Y-90985575D01*
X129661537Y-90975554D01*
X129674127Y-90967057D01*
X129684745Y-90959961D01*
X129693584Y-90954141D01*
X129700835Y-90949471D01*
X129706690Y-90945827D01*
X129711340Y-90943083D01*
X129714978Y-90941116D01*
X129717796Y-90939800D01*
X129719984Y-90939010D01*
X129721736Y-90938621D01*
X129723243Y-90938508D01*
X129723405Y-90938507D01*
X129731621Y-90938507D01*
X129872378Y-91079264D01*
X129894857Y-91101745D01*
X129914806Y-91121705D01*
X129932375Y-91139304D01*
X129947716Y-91154700D01*
X129960980Y-91168053D01*
X129972319Y-91179522D01*
X129981882Y-91189266D01*
X129989821Y-91197444D01*
X129996287Y-91204216D01*
X130001431Y-91209740D01*
X130005405Y-91214177D01*
X130008359Y-91217684D01*
X130010444Y-91220422D01*
X130011811Y-91222549D01*
X130012612Y-91224225D01*
X130012998Y-91225608D01*
X130013119Y-91226859D01*
X130013128Y-91227589D01*
X130012188Y-91234225D01*
X130009901Y-91240402D01*
X130009568Y-91240981D01*
X130007995Y-91243369D01*
X130004432Y-91248652D01*
X129999035Y-91256602D01*
X129991962Y-91266990D01*
X129983368Y-91279586D01*
X129973410Y-91294162D01*
X129962245Y-91310489D01*
X129950029Y-91328338D01*
X129936918Y-91347479D01*
X129923069Y-91367684D01*
X129908639Y-91388723D01*
X129906613Y-91391675D01*
X129891976Y-91413009D01*
X129877797Y-91433675D01*
X129864244Y-91453431D01*
X129851484Y-91472033D01*
X129839685Y-91489236D01*
X129829014Y-91504796D01*
X129819638Y-91518469D01*
X129811726Y-91530010D01*
X129805444Y-91539177D01*
X129800959Y-91545724D01*
X129798440Y-91549407D01*
X129798336Y-91549560D01*
X129795884Y-91553059D01*
X129793747Y-91556138D01*
X129791999Y-91559041D01*
X129790713Y-91562018D01*
X129789960Y-91565316D01*
X129789815Y-91569181D01*
X129790349Y-91573861D01*
X129791636Y-91579604D01*
X129793748Y-91586657D01*
X129796758Y-91595267D01*
X129800740Y-91605681D01*
X129805765Y-91618148D01*
X129811907Y-91632914D01*
X129819238Y-91650227D01*
X129827832Y-91670334D01*
X129837760Y-91693482D01*
X129847110Y-91715283D01*
X129856324Y-91736768D01*
X129865160Y-91757341D01*
X129873495Y-91776721D01*
X129881209Y-91794626D01*
X129888180Y-91810777D01*
X129894287Y-91824892D01*
X129899408Y-91836689D01*
X129903422Y-91845889D01*
X129906207Y-91852209D01*
X129907642Y-91855370D01*
X129907738Y-91855562D01*
X129911478Y-91860791D01*
X129916308Y-91865307D01*
X129916340Y-91865330D01*
X129917224Y-91865971D01*
X129918099Y-91866561D01*
X129919167Y-91867138D01*
X129920629Y-91867744D01*
X129922687Y-91868417D01*
X129925543Y-91869200D01*
X129929399Y-91870131D01*
X129934456Y-91871251D01*
X129940917Y-91872600D01*
X129948982Y-91874218D01*
X129958855Y-91876145D01*
X129970736Y-91878422D01*
X129984827Y-91881089D01*
X130001331Y-91884185D01*
X130020449Y-91887751D01*
X130042382Y-91891827D01*
X130067333Y-91896453D01*
X130095504Y-91901670D01*
X130127095Y-91907517D01*
X130144874Y-91910808D01*
X130167949Y-91915084D01*
X130190108Y-91919200D01*
X130211043Y-91923098D01*
X130230447Y-91926721D01*
X130248012Y-91930011D01*
X130263431Y-91932910D01*
X130276396Y-91935360D01*
X130286600Y-91937304D01*
X130293735Y-91938684D01*
X130297494Y-91939442D01*
X130297740Y-91939497D01*
X130304344Y-91941847D01*
X130309875Y-91945223D01*
X130311008Y-91946271D01*
X130315471Y-91951021D01*
X130315952Y-92149424D01*
X130316028Y-92181182D01*
X130316088Y-92209370D01*
X130316131Y-92234207D01*
X130316152Y-92255914D01*
X130316149Y-92274712D01*
X130316117Y-92290821D01*
X130316053Y-92304461D01*
X130315954Y-92315852D01*
X130315817Y-92325216D01*
X130315637Y-92332772D01*
X130315413Y-92338741D01*
X130315139Y-92343343D01*
X130314813Y-92346799D01*
X130314431Y-92349329D01*
X130313991Y-92351153D01*
X130313488Y-92352492D01*
X130312919Y-92353566D01*
X130312782Y-92353793D01*
X130308047Y-92358913D01*
X130302822Y-92361805D01*
X130299905Y-92362497D01*
X130293587Y-92363812D01*
X130284197Y-92365686D01*
X130272064Y-92368056D01*
X130257516Y-92370860D01*
X130240880Y-92374034D01*
X130222486Y-92377515D01*
X130202662Y-92381239D01*
X130181736Y-92385145D01*
X130173306Y-92386711D01*
X130138686Y-92393135D01*
X130107599Y-92398906D01*
X130079849Y-92404061D01*
X130055242Y-92408637D01*
X130033584Y-92412670D01*
X130014679Y-92416199D01*
X129998332Y-92419259D01*
X129984348Y-92421887D01*
X129972533Y-92424121D01*
X129962692Y-92425997D01*
X129954629Y-92427552D01*
X129948150Y-92428824D01*
X129943059Y-92429849D01*
X129939163Y-92430663D01*
X129936266Y-92431305D01*
X129934173Y-92431810D01*
X129932689Y-92432216D01*
X129932163Y-92432378D01*
X129926674Y-92435239D01*
X129921710Y-92439508D01*
X129921498Y-92439755D01*
X129920087Y-92442344D01*
X129917389Y-92448203D01*
X129913510Y-92457074D01*
X129908557Y-92468703D01*
X129902635Y-92482832D01*
X129895852Y-92499206D01*
X129888313Y-92517568D01*
X129880125Y-92537662D01*
X129871395Y-92559232D01*
X129862229Y-92582021D01*
X129857631Y-92593506D01*
X129847129Y-92619779D01*
X129837949Y-92642768D01*
X129830007Y-92662705D01*
X129823216Y-92679827D01*
X129817490Y-92694366D01*
X129812743Y-92706559D01*
X129808890Y-92716638D01*
X129805846Y-92724839D01*
X129803523Y-92731396D01*
X129801836Y-92736544D01*
X129800700Y-92740516D01*
X129800029Y-92743548D01*
X129799736Y-92745874D01*
X129799736Y-92747728D01*
X129799944Y-92749345D01*
X129800173Y-92750493D01*
X129800891Y-92752570D01*
X129802445Y-92755745D01*
X129804946Y-92760185D01*
X129808505Y-92766058D01*
X129813232Y-92773530D01*
X129819239Y-92782769D01*
X129826636Y-92793942D01*
X129835533Y-92807217D01*
X129846042Y-92822760D01*
X129858273Y-92840739D01*
X129872338Y-92861321D01*
X129888346Y-92884674D01*
X129906408Y-92910964D01*
X129906946Y-92911746D01*
X129921809Y-92933399D01*
X129936061Y-92954241D01*
X129949555Y-92974049D01*
X129962142Y-92992605D01*
X129973675Y-93009687D01*
X129984005Y-93025074D01*
X129992985Y-93038546D01*
X130000467Y-93049883D01*
X130006303Y-93058863D01*
X130010345Y-93065266D01*
X130012445Y-93068872D01*
X130012718Y-93069524D01*
X130012897Y-93075508D01*
X130012287Y-93079949D01*
X130010829Y-93082148D01*
X130006933Y-93086710D01*
X130000572Y-93093665D01*
X129991715Y-93103044D01*
X129980333Y-93114876D01*
X129966396Y-93129192D01*
X129949875Y-93146023D01*
X129930740Y-93165398D01*
X129908963Y-93187348D01*
X129884513Y-93211904D01*
X129874176Y-93222265D01*
X129855171Y-93241280D01*
X129836849Y-93259566D01*
X129819398Y-93276939D01*
X129803002Y-93293217D01*
X129787847Y-93308216D01*
X129774119Y-93321755D01*
X129762004Y-93333649D01*
X129751688Y-93343716D01*
X129743355Y-93351774D01*
X129737193Y-93357638D01*
X129733387Y-93361126D01*
X129732218Y-93362060D01*
X129724703Y-93364519D01*
X129716999Y-93363735D01*
X129708465Y-93359617D01*
X129706747Y-93358485D01*
X129703827Y-93356487D01*
X129698023Y-93352510D01*
X129689576Y-93346720D01*
X129678728Y-93339283D01*
X129665720Y-93330364D01*
X129650794Y-93320129D01*
X129634192Y-93308743D01*
X129616155Y-93296373D01*
X129596924Y-93283184D01*
X129576743Y-93269342D01*
X129558209Y-93256629D01*
X129537464Y-93242412D01*
X129517506Y-93228757D01*
X129498571Y-93215824D01*
X129480894Y-93203774D01*
X129464710Y-93192766D01*
X129450257Y-93182961D01*
X129437768Y-93174517D01*
X129427481Y-93167596D01*
X129419630Y-93162356D01*
X129414451Y-93158959D01*
X129412254Y-93157599D01*
X129403350Y-93154938D01*
X129398544Y-93155016D01*
X129394998Y-93156161D01*
X129388390Y-93159032D01*
X129378968Y-93163506D01*
X129366981Y-93169461D01*
X129352676Y-93176774D01*
X129336302Y-93185322D01*
X129323511Y-93192099D01*
X129305629Y-93201598D01*
X129290757Y-93209411D01*
X129278576Y-93215663D01*
X129268767Y-93220481D01*
X129261010Y-93223991D01*
X129254986Y-93226317D01*
X129250375Y-93227587D01*
X129246858Y-93227927D01*
X129244117Y-93227461D01*
X129241830Y-93226316D01*
X129240096Y-93224981D01*
X129238906Y-93222834D01*
X129236324Y-93217284D01*
X129232397Y-93208438D01*
X129227168Y-93196402D01*
X129220683Y-93181282D01*
X129212985Y-93163184D01*
X129204120Y-93142214D01*
X129194133Y-93118480D01*
X129183067Y-93092086D01*
X129170968Y-93063139D01*
X129157881Y-93031745D01*
X129143850Y-92998011D01*
X129128920Y-92962043D01*
X129113135Y-92923946D01*
X129100429Y-92893232D01*
X129083937Y-92853340D01*
X129068836Y-92816799D01*
X129055066Y-92783461D01*
X129042567Y-92753176D01*
X129031279Y-92725792D01*
X129021143Y-92701161D01*
X129012097Y-92679131D01*
X129004083Y-92659554D01*
X128997041Y-92642278D01*
X128990909Y-92627154D01*
X128985630Y-92614032D01*
X128981141Y-92602762D01*
X128977385Y-92593193D01*
X128974300Y-92585176D01*
X128971827Y-92578561D01*
X128969906Y-92573196D01*
X128968476Y-92568934D01*
X128967479Y-92565622D01*
X128966853Y-92563112D01*
X128966540Y-92561252D01*
X128966478Y-92559894D01*
X128966609Y-92558887D01*
X128966725Y-92558477D01*
X128968534Y-92554217D01*
X128971280Y-92550407D01*
X128975554Y-92546519D01*
X128981948Y-92542027D01*
X128991053Y-92536403D01*
X128992396Y-92535603D01*
X129001349Y-92530038D01*
X129011085Y-92523602D01*
X129019706Y-92517554D01*
X129020829Y-92516727D01*
X129028117Y-92511307D01*
X129037103Y-92504628D01*
X129046443Y-92497688D01*
X129052105Y-92493482D01*
X129083197Y-92468058D01*
X129111680Y-92439951D01*
X129137369Y-92409367D01*
X129160076Y-92376514D01*
X129164448Y-92369346D01*
X129181615Y-92337155D01*
X129196183Y-92302727D01*
X129207900Y-92266801D01*
X129216518Y-92230114D01*
X129220758Y-92202870D01*
X129221962Y-92188905D01*
X129222614Y-92172303D01*
X129222731Y-92154175D01*
X129222332Y-92135633D01*
X129221434Y-92117786D01*
X129220055Y-92101747D01*
X129219010Y-92093496D01*
X129211347Y-92054071D01*
X129200229Y-92015990D01*
X129185790Y-91979440D01*
X129168165Y-91944607D01*
X129147489Y-91911676D01*
X129123897Y-91880832D01*
X129097523Y-91852263D01*
X129068502Y-91826152D01*
X129036969Y-91802686D01*
X129003058Y-91782051D01*
X128986909Y-91773664D01*
X128951234Y-91758019D01*
X128914916Y-91745980D01*
X128877668Y-91737481D01*
X128839202Y-91732455D01*
X128800000Y-91730835D01*
X128765964Y-91731947D01*
X128734030Y-91735386D01*
X128703193Y-91741310D01*
X128672446Y-91749876D01*
X128667314Y-91751553D01*
X128630189Y-91765868D01*
X128594874Y-91783374D01*
X128561552Y-91803890D01*
X128530405Y-91827236D01*
X128501615Y-91853230D01*
X128475364Y-91881692D01*
X128451835Y-91912440D01*
X128431210Y-91945296D01*
X128413672Y-91980076D01*
X128399401Y-92016602D01*
X128399072Y-92017584D01*
X128390654Y-92045262D01*
X128384443Y-92071699D01*
X128380249Y-92098083D01*
X128377885Y-92125599D01*
X128377160Y-92155332D01*
X128377903Y-92183778D01*
X128380215Y-92209969D01*
X128384300Y-92235187D01*
X128390364Y-92260716D01*
X128398078Y-92286224D01*
X128412357Y-92323661D01*
X128429914Y-92359255D01*
X128450639Y-92392849D01*
X128474417Y-92424288D01*
X128501138Y-92453418D01*
X128530690Y-92480083D01*
X128547896Y-92493485D01*
X128556305Y-92499717D01*
X128564808Y-92506051D01*
X128572251Y-92511624D01*
X128576329Y-92514700D01*
X128582527Y-92519142D01*
X128590713Y-92524658D01*
X128599609Y-92530395D01*
X128604762Y-92533595D01*
X128614710Y-92539781D01*
X128621884Y-92544603D01*
X128626824Y-92548532D01*
X128630072Y-92552040D01*
X128632170Y-92555601D01*
X128633279Y-92558487D01*
X128633483Y-92559377D01*
X128633525Y-92560542D01*
X128633345Y-92562132D01*
X128632883Y-92564297D01*
X128632080Y-92567188D01*
X128630875Y-92570954D01*
X128629208Y-92575745D01*
X128627020Y-92581712D01*
X128624250Y-92589004D01*
X128620839Y-92597772D01*
X128616726Y-92608166D01*
X128611852Y-92620336D01*
X128606157Y-92634432D01*
X128599580Y-92650604D01*
X128592062Y-92669002D01*
X128583543Y-92689776D01*
X128573963Y-92713076D01*
X128563262Y-92739053D01*
X128551379Y-92767856D01*
X128538256Y-92799636D01*
X128523832Y-92834542D01*
X128508046Y-92872725D01*
X128499563Y-92893242D01*
X128483313Y-92932507D01*
X128467851Y-92969806D01*
X128453223Y-93005025D01*
X128439476Y-93038055D01*
X128426658Y-93068784D01*
X128414814Y-93097099D01*
X128403993Y-93122891D01*
X128394240Y-93146048D01*
X128385603Y-93166458D01*
X128378128Y-93184009D01*
X128371863Y-93198592D01*
X128366855Y-93210094D01*
X128363149Y-93218403D01*
X128360794Y-93223410D01*
X128359893Y-93224981D01*
X128355115Y-93227451D01*
X128350343Y-93228298D01*
X128346908Y-93227354D01*
X128340235Y-93224535D01*
X128330368Y-93219864D01*
X128317353Y-93213363D01*
X128301233Y-93205054D01*
X128282053Y-93194958D01*
X128277102Y-93192326D01*
X128262164Y-93184421D01*
X128248071Y-93177057D01*
X128235217Y-93170433D01*
X128223998Y-93164749D01*
X128214806Y-93160203D01*
X128208036Y-93156994D01*
X128204083Y-93155323D01*
X128203479Y-93155145D01*
X128197126Y-93154916D01*
X128191573Y-93155972D01*
X128189165Y-93157330D01*
X128183871Y-93160682D01*
X128175925Y-93165870D01*
X128165563Y-93172734D01*
X128153020Y-93181118D01*
X128138531Y-93190864D01*
X128122331Y-93201812D01*
X128104655Y-93213806D01*
X128085739Y-93226687D01*
X128065816Y-93240297D01*
X128047893Y-93252577D01*
X128027076Y-93266858D01*
X128006920Y-93280685D01*
X127987678Y-93293884D01*
X127969601Y-93306283D01*
X127952940Y-93317710D01*
X127937947Y-93327992D01*
X127924873Y-93336956D01*
X127913970Y-93344431D01*
X127905490Y-93350243D01*
X127899683Y-93354220D01*
X127897138Y-93355961D01*
X127888046Y-93361501D01*
X127880662Y-93364285D01*
X127874235Y-93364442D01*
X127868011Y-93362098D01*
X127866456Y-93361172D01*
X127864346Y-93359351D01*
X127859750Y-93355027D01*
X127852857Y-93348384D01*
X127843853Y-93339609D01*
X127832926Y-93328886D01*
X127820264Y-93316400D01*
X127806053Y-93302336D01*
X127790482Y-93286879D01*
X127773737Y-93270216D01*
X127756007Y-93252529D01*
X127737479Y-93234006D01*
X127724877Y-93221385D01*
X127699450Y-93195865D01*
X127676707Y-93172963D01*
X127656620Y-93152649D01*
X127639159Y-93134895D01*
X127624296Y-93119670D01*
X127612003Y-93106944D01*
X127602250Y-93096689D01*
X127595008Y-93088874D01*
X127590250Y-93083469D01*
X127587945Y-93080446D01*
X127587714Y-93079949D01*
X127587036Y-93073945D01*
X127587273Y-93069524D01*
X127588447Y-93067254D01*
X127591629Y-93062087D01*
X127596672Y-93054244D01*
X127603428Y-93043944D01*
X127611749Y-93031410D01*
X127621487Y-93016860D01*
X127632495Y-93000517D01*
X127644624Y-92982600D01*
X127657726Y-92963330D01*
X127671654Y-92942928D01*
X127686260Y-92921614D01*
X127693040Y-92911746D01*
X127711169Y-92885362D01*
X127727239Y-92861921D01*
X127741362Y-92841256D01*
X127753649Y-92823199D01*
X127764209Y-92807583D01*
X127773153Y-92794242D01*
X127780593Y-92783009D01*
X127786638Y-92773716D01*
X127791399Y-92766197D01*
X127794987Y-92760284D01*
X127797513Y-92755811D01*
X127799086Y-92752610D01*
X127799818Y-92750515D01*
X127799823Y-92750493D01*
X127800128Y-92748901D01*
X127800287Y-92747242D01*
X127800216Y-92745281D01*
X127799827Y-92742784D01*
X127799036Y-92739515D01*
X127797756Y-92735240D01*
X127795902Y-92729726D01*
X127793387Y-92722736D01*
X127790126Y-92714036D01*
X127786033Y-92703392D01*
X127781022Y-92690569D01*
X127775007Y-92675333D01*
X127767902Y-92657448D01*
X127759623Y-92636681D01*
X127750081Y-92612796D01*
X127742444Y-92593690D01*
X127733365Y-92571040D01*
X127724619Y-92549328D01*
X127716315Y-92528823D01*
X127708565Y-92509792D01*
X127701480Y-92492507D01*
X127695170Y-92477235D01*
X127689746Y-92464246D01*
X127685320Y-92453808D01*
X127682003Y-92446191D01*
X127679905Y-92441664D01*
X127679268Y-92440531D01*
X127674557Y-92436118D01*
X127669477Y-92433085D01*
X127666810Y-92432399D01*
X127660679Y-92431078D01*
X127651350Y-92429172D01*
X127639088Y-92426734D01*
X127624157Y-92423815D01*
X127606824Y-92420464D01*
X127587352Y-92416735D01*
X127566007Y-92412677D01*
X127543053Y-92408342D01*
X127518757Y-92403781D01*
X127493383Y-92399045D01*
X127483560Y-92397219D01*
X127457837Y-92392434D01*
X127433082Y-92387812D01*
X127409563Y-92383404D01*
X127387545Y-92379262D01*
X127367294Y-92375434D01*
X127349076Y-92371973D01*
X127333156Y-92368928D01*
X127319801Y-92366350D01*
X127309277Y-92364290D01*
X127301848Y-92362799D01*
X127297782Y-92361926D01*
X127297178Y-92361768D01*
X127291215Y-92358319D01*
X127287219Y-92353793D01*
X127286635Y-92352748D01*
X127286117Y-92351488D01*
X127285663Y-92349792D01*
X127285268Y-92347439D01*
X127284930Y-92344210D01*
X127284645Y-92339884D01*
X127284410Y-92334241D01*
X127284221Y-92327060D01*
X127284074Y-92318121D01*
X127283967Y-92307203D01*
X127283896Y-92294087D01*
X127283857Y-92278551D01*
X127283847Y-92260375D01*
X127283863Y-92239340D01*
X127283901Y-92215224D01*
X127283958Y-92187807D01*
X127284031Y-92156869D01*
X127284049Y-92149424D01*
X127284530Y-91951021D01*
X127289049Y-91946211D01*
X127289710Y-91945398D01*
X127290174Y-91944698D01*
X127290648Y-91944068D01*
X127291341Y-91943465D01*
X127292463Y-91942844D01*
X127294223Y-91942164D01*
X127296829Y-91941380D01*
X127300490Y-91940450D01*
X127305416Y-91939330D01*
X127311815Y-91937977D01*
X127319896Y-91936347D01*
X127329869Y-91934398D01*
X127341942Y-91932086D01*
X127356324Y-91929368D01*
X127373224Y-91926200D01*
X127392851Y-91922540D01*
X127415415Y-91918343D01*
X127441123Y-91913567D01*
X127470186Y-91908169D01*
X127495316Y-91903499D01*
X127526115Y-91897773D01*
X127553407Y-91892693D01*
X127577412Y-91888205D01*
X127598349Y-91884255D01*
X127616438Y-91880791D01*
X127631898Y-91877757D01*
X127644949Y-91875102D01*
X127655809Y-91872771D01*
X127664700Y-91870712D01*
X127671839Y-91868871D01*
X127677447Y-91867194D01*
X127681743Y-91865628D01*
X127684947Y-91864120D01*
X127687277Y-91862616D01*
X127688954Y-91861062D01*
X127690197Y-91859406D01*
X127691225Y-91857594D01*
X127692257Y-91855573D01*
X127692263Y-91855562D01*
X127693472Y-91852930D01*
X127696051Y-91847093D01*
X127699878Y-91838332D01*
X127704831Y-91826929D01*
X127710789Y-91813164D01*
X127717631Y-91797318D01*
X127725235Y-91779673D01*
X127733480Y-91760508D01*
X127742244Y-91740106D01*
X127751406Y-91718747D01*
X127752891Y-91715283D01*
X127763988Y-91689410D01*
X127773689Y-91666786D01*
X127782067Y-91647162D01*
X127789195Y-91630290D01*
X127795146Y-91615924D01*
X127799992Y-91603817D01*
X127803807Y-91593720D01*
X127806663Y-91585386D01*
X127808634Y-91578568D01*
X127809791Y-91573019D01*
X127810208Y-91568491D01*
X127809957Y-91564737D01*
X127809112Y-91561509D01*
X127807745Y-91558560D01*
X127805930Y-91555643D01*
X127803738Y-91552510D01*
X127801679Y-91549560D01*
X127799323Y-91546111D01*
X127794989Y-91539779D01*
X127788842Y-91530806D01*
X127781048Y-91519432D01*
X127771773Y-91505901D01*
X127761182Y-91490454D01*
X127749443Y-91473334D01*
X127736721Y-91454782D01*
X127723181Y-91435041D01*
X127708991Y-91414353D01*
X127694315Y-91392960D01*
X127692038Y-91389641D01*
X127677474Y-91368402D01*
X127663495Y-91347997D01*
X127650253Y-91328650D01*
X127637902Y-91310584D01*
X127626593Y-91294024D01*
X127616481Y-91279194D01*
X127607716Y-91266317D01*
X127600452Y-91255618D01*
X127594842Y-91247319D01*
X127591038Y-91241646D01*
X127589193Y-91238822D01*
X127589061Y-91238598D01*
X127587581Y-91233904D01*
X127586876Y-91227930D01*
X127586866Y-91227239D01*
X127586928Y-91226024D01*
X127587213Y-91224715D01*
X127587874Y-91223153D01*
X127589060Y-91221180D01*
X127590923Y-91218636D01*
X127593614Y-91215363D01*
X127597285Y-91211202D01*
X127602085Y-91205994D01*
X127608166Y-91199581D01*
X127615680Y-91191804D01*
X127624776Y-91182504D01*
X127635607Y-91171522D01*
X127648322Y-91158700D01*
X127663074Y-91143878D01*
X127680013Y-91126899D01*
X127699290Y-91107602D01*
X127721057Y-91085830D01*
X127868380Y-90938507D01*
X127876659Y-90938507D01*
X127877711Y-90938440D01*
X127878557Y-90938307D01*
X127879350Y-90938208D01*
X127880243Y-90938245D01*
X127881388Y-90938520D01*
X127882939Y-90939134D01*
X127885050Y-90940187D01*
X127887873Y-90941782D01*
X127891562Y-90944020D01*
X127896269Y-90947002D01*
X127902147Y-90950829D01*
X127909351Y-90955602D01*
X127918032Y-90961424D01*
X127928345Y-90968395D01*
X127940442Y-90976616D01*
X127954476Y-90986189D01*
X127970601Y-90997216D01*
X127988969Y-91009797D01*
X128009734Y-91024034D01*
X128033049Y-91040027D01*
X128059067Y-91057880D01*
X128087941Y-91077692D01*
X128112622Y-91094625D01*
X128133198Y-91108736D01*
X128150890Y-91120852D01*
X128165941Y-91131125D01*
X128178591Y-91139708D01*
X128189083Y-91146751D01*
X128197657Y-91152408D01*
X128204555Y-91156830D01*
X128210019Y-91160169D01*
X128214290Y-91162577D01*
X128217610Y-91164206D01*
X128220220Y-91165207D01*
X128222361Y-91165734D01*
X128224275Y-91165937D01*
X128225998Y-91165970D01*
X128228225Y-91165792D01*
X128231233Y-91165198D01*
X128235261Y-91164096D01*
X128240547Y-91162396D01*
X128247330Y-91160006D01*
X128255847Y-91156836D01*
X128266338Y-91152794D01*
X128279040Y-91147790D01*
X128294192Y-91141732D01*
X128312032Y-91134529D01*
X128332799Y-91126090D01*
X128356731Y-91116325D01*
X128367465Y-91111936D01*
X128388799Y-91103189D01*
X128409187Y-91094792D01*
X128428344Y-91086863D01*
X128445987Y-91079522D01*
X128461832Y-91072888D01*
X128475595Y-91067081D01*
X128486992Y-91062219D01*
X128495740Y-91058423D01*
X128501554Y-91055810D01*
X128504150Y-91054502D01*
X128504182Y-91054479D01*
X128505883Y-91053210D01*
X128507425Y-91051923D01*
X128508856Y-91050401D01*
X128510226Y-91048427D01*
X128511586Y-91045786D01*
X128512985Y-91042262D01*
X128514473Y-91037638D01*
X128516099Y-91031698D01*
X128517914Y-91024225D01*
X128519967Y-91015003D01*
X128522309Y-91003817D01*
X128524988Y-90990449D01*
X128528054Y-90974684D01*
X128531558Y-90956305D01*
X128535550Y-90935096D01*
X128540078Y-90910841D01*
X128545193Y-90883323D01*
X128550945Y-90852326D01*
X128551850Y-90847446D01*
X128556814Y-90820748D01*
X128561616Y-90795031D01*
X128566208Y-90770551D01*
X128570540Y-90747561D01*
X128574565Y-90726314D01*
X128578233Y-90707065D01*
X128581497Y-90690066D01*
X128584308Y-90675572D01*
X128586618Y-90663837D01*
X128588378Y-90655114D01*
X128589539Y-90649656D01*
X128590011Y-90647794D01*
X128593139Y-90643011D01*
X128597775Y-90638922D01*
X128597976Y-90638797D01*
X128599031Y-90638224D01*
X128600354Y-90637716D01*
X128602166Y-90637269D01*
X128604688Y-90636879D01*
X128608141Y-90636542D01*
X128612748Y-90636255D01*
X128618729Y-90636013D01*
X128626306Y-90635813D01*
X128635700Y-90635651D01*
X128647132Y-90635522D01*
X128660825Y-90635423D01*
X128676999Y-90635350D01*
X128695876Y-90635299D01*
X128717677Y-90635266D01*
X128742624Y-90635248D01*
X128770937Y-90635239D01*
X128800000Y-90635238D01*
X128831591Y-90635240D01*
X128831591Y-90635240D01*
G37*
X128831591Y-90635240D02*
X128859611Y-90635249D01*
X128884284Y-90635268D01*
X128905829Y-90635302D01*
X128924469Y-90635355D01*
X128940425Y-90635430D01*
X128953918Y-90635531D01*
X128965170Y-90635663D01*
X128974402Y-90635829D01*
X128981836Y-90636032D01*
X128987692Y-90636278D01*
X128992193Y-90636569D01*
X128995559Y-90636910D01*
X128998012Y-90637305D01*
X128999774Y-90637757D01*
X129001066Y-90638270D01*
X129002025Y-90638797D01*
X129006687Y-90642808D01*
X129009928Y-90647608D01*
X129010003Y-90647794D01*
X129010644Y-90650393D01*
X129011921Y-90656460D01*
X129013784Y-90665734D01*
X129016183Y-90677954D01*
X129019068Y-90692861D01*
X129022390Y-90710194D01*
X129026099Y-90729691D01*
X129030144Y-90751093D01*
X129034477Y-90774138D01*
X129039046Y-90798566D01*
X129043803Y-90824117D01*
X129046387Y-90838044D01*
X129051235Y-90864204D01*
X129055919Y-90889463D01*
X129060389Y-90913552D01*
X129064595Y-90936203D01*
X129068487Y-90957145D01*
X129072014Y-90976110D01*
X129075126Y-90992829D01*
X129077774Y-91007031D01*
X129079908Y-91018448D01*
X129081476Y-91026810D01*
X129082430Y-91031848D01*
X129082660Y-91033035D01*
X129083317Y-91036423D01*
X129083996Y-91039424D01*
X129084923Y-91042157D01*
X129086328Y-91044744D01*
X129088437Y-91047304D01*
X129091480Y-91049956D01*
X129095683Y-91052822D01*
X129101276Y-91056022D01*
X129108486Y-91059675D01*
X129117540Y-91063901D01*
X129128668Y-91068820D01*
X129142097Y-91074553D01*
X129158055Y-91081220D01*
X129176770Y-91088941D01*
X129198470Y-91097835D01*
X129223384Y-91108023D01*
X129230854Y-91111078D01*
X129256819Y-91121707D01*
X129279515Y-91130993D01*
X129299193Y-91139006D01*
X129316101Y-91145817D01*
X129330489Y-91151493D01*
X129342607Y-91156105D01*
X129352706Y-91159723D01*
X129361034Y-91162415D01*
X129367841Y-91164250D01*
X129373377Y-91165300D01*
X129377892Y-91165632D01*
X129381635Y-91165317D01*
X129384856Y-91164423D01*
X129387805Y-91163021D01*
X129390732Y-91161180D01*
X129393886Y-91158968D01*
X129396496Y-91157146D01*
X129399892Y-91154822D01*
X129406177Y-91150514D01*
X129415116Y-91144385D01*
X129426473Y-91136597D01*
X129440011Y-91127312D01*
X129455495Y-91116691D01*
X129472689Y-91104896D01*
X129491356Y-91092090D01*
X129511260Y-91078434D01*
X129532166Y-91064091D01*
X129553838Y-91049221D01*
X129562300Y-91043415D01*
X129587625Y-91026042D01*
X129610019Y-91010695D01*
X129629675Y-90997248D01*
X129646783Y-90985575D01*
X129661537Y-90975554D01*
X129674127Y-90967057D01*
X129684745Y-90959961D01*
X129693584Y-90954141D01*
X129700835Y-90949471D01*
X129706690Y-90945827D01*
X129711340Y-90943083D01*
X129714978Y-90941116D01*
X129717796Y-90939800D01*
X129719984Y-90939010D01*
X129721736Y-90938621D01*
X129723243Y-90938508D01*
X129723405Y-90938507D01*
X129731621Y-90938507D01*
X129872378Y-91079264D01*
X129894857Y-91101745D01*
X129914806Y-91121705D01*
X129932375Y-91139304D01*
X129947716Y-91154700D01*
X129960980Y-91168053D01*
X129972319Y-91179522D01*
X129981882Y-91189266D01*
X129989821Y-91197444D01*
X129996287Y-91204216D01*
X130001431Y-91209740D01*
X130005405Y-91214177D01*
X130008359Y-91217684D01*
X130010444Y-91220422D01*
X130011811Y-91222549D01*
X130012612Y-91224225D01*
X130012998Y-91225608D01*
X130013119Y-91226859D01*
X130013128Y-91227589D01*
X130012188Y-91234225D01*
X130009901Y-91240402D01*
X130009568Y-91240981D01*
X130007995Y-91243369D01*
X130004432Y-91248652D01*
X129999035Y-91256602D01*
X129991962Y-91266990D01*
X129983368Y-91279586D01*
X129973410Y-91294162D01*
X129962245Y-91310489D01*
X129950029Y-91328338D01*
X129936918Y-91347479D01*
X129923069Y-91367684D01*
X129908639Y-91388723D01*
X129906613Y-91391675D01*
X129891976Y-91413009D01*
X129877797Y-91433675D01*
X129864244Y-91453431D01*
X129851484Y-91472033D01*
X129839685Y-91489236D01*
X129829014Y-91504796D01*
X129819638Y-91518469D01*
X129811726Y-91530010D01*
X129805444Y-91539177D01*
X129800959Y-91545724D01*
X129798440Y-91549407D01*
X129798336Y-91549560D01*
X129795884Y-91553059D01*
X129793747Y-91556138D01*
X129791999Y-91559041D01*
X129790713Y-91562018D01*
X129789960Y-91565316D01*
X129789815Y-91569181D01*
X129790349Y-91573861D01*
X129791636Y-91579604D01*
X129793748Y-91586657D01*
X129796758Y-91595267D01*
X129800740Y-91605681D01*
X129805765Y-91618148D01*
X129811907Y-91632914D01*
X129819238Y-91650227D01*
X129827832Y-91670334D01*
X129837760Y-91693482D01*
X129847110Y-91715283D01*
X129856324Y-91736768D01*
X129865160Y-91757341D01*
X129873495Y-91776721D01*
X129881209Y-91794626D01*
X129888180Y-91810777D01*
X129894287Y-91824892D01*
X129899408Y-91836689D01*
X129903422Y-91845889D01*
X129906207Y-91852209D01*
X129907642Y-91855370D01*
X129907738Y-91855562D01*
X129911478Y-91860791D01*
X129916308Y-91865307D01*
X129916340Y-91865330D01*
X129917224Y-91865971D01*
X129918099Y-91866561D01*
X129919167Y-91867138D01*
X129920629Y-91867744D01*
X129922687Y-91868417D01*
X129925543Y-91869200D01*
X129929399Y-91870131D01*
X129934456Y-91871251D01*
X129940917Y-91872600D01*
X129948982Y-91874218D01*
X129958855Y-91876145D01*
X129970736Y-91878422D01*
X129984827Y-91881089D01*
X130001331Y-91884185D01*
X130020449Y-91887751D01*
X130042382Y-91891827D01*
X130067333Y-91896453D01*
X130095504Y-91901670D01*
X130127095Y-91907517D01*
X130144874Y-91910808D01*
X130167949Y-91915084D01*
X130190108Y-91919200D01*
X130211043Y-91923098D01*
X130230447Y-91926721D01*
X130248012Y-91930011D01*
X130263431Y-91932910D01*
X130276396Y-91935360D01*
X130286600Y-91937304D01*
X130293735Y-91938684D01*
X130297494Y-91939442D01*
X130297740Y-91939497D01*
X130304344Y-91941847D01*
X130309875Y-91945223D01*
X130311008Y-91946271D01*
X130315471Y-91951021D01*
X130315952Y-92149424D01*
X130316028Y-92181182D01*
X130316088Y-92209370D01*
X130316131Y-92234207D01*
X130316152Y-92255914D01*
X130316149Y-92274712D01*
X130316117Y-92290821D01*
X130316053Y-92304461D01*
X130315954Y-92315852D01*
X130315817Y-92325216D01*
X130315637Y-92332772D01*
X130315413Y-92338741D01*
X130315139Y-92343343D01*
X130314813Y-92346799D01*
X130314431Y-92349329D01*
X130313991Y-92351153D01*
X130313488Y-92352492D01*
X130312919Y-92353566D01*
X130312782Y-92353793D01*
X130308047Y-92358913D01*
X130302822Y-92361805D01*
X130299905Y-92362497D01*
X130293587Y-92363812D01*
X130284197Y-92365686D01*
X130272064Y-92368056D01*
X130257516Y-92370860D01*
X130240880Y-92374034D01*
X130222486Y-92377515D01*
X130202662Y-92381239D01*
X130181736Y-92385145D01*
X130173306Y-92386711D01*
X130138686Y-92393135D01*
X130107599Y-92398906D01*
X130079849Y-92404061D01*
X130055242Y-92408637D01*
X130033584Y-92412670D01*
X130014679Y-92416199D01*
X129998332Y-92419259D01*
X129984348Y-92421887D01*
X129972533Y-92424121D01*
X129962692Y-92425997D01*
X129954629Y-92427552D01*
X129948150Y-92428824D01*
X129943059Y-92429849D01*
X129939163Y-92430663D01*
X129936266Y-92431305D01*
X129934173Y-92431810D01*
X129932689Y-92432216D01*
X129932163Y-92432378D01*
X129926674Y-92435239D01*
X129921710Y-92439508D01*
X129921498Y-92439755D01*
X129920087Y-92442344D01*
X129917389Y-92448203D01*
X129913510Y-92457074D01*
X129908557Y-92468703D01*
X129902635Y-92482832D01*
X129895852Y-92499206D01*
X129888313Y-92517568D01*
X129880125Y-92537662D01*
X129871395Y-92559232D01*
X129862229Y-92582021D01*
X129857631Y-92593506D01*
X129847129Y-92619779D01*
X129837949Y-92642768D01*
X129830007Y-92662705D01*
X129823216Y-92679827D01*
X129817490Y-92694366D01*
X129812743Y-92706559D01*
X129808890Y-92716638D01*
X129805846Y-92724839D01*
X129803523Y-92731396D01*
X129801836Y-92736544D01*
X129800700Y-92740516D01*
X129800029Y-92743548D01*
X129799736Y-92745874D01*
X129799736Y-92747728D01*
X129799944Y-92749345D01*
X129800173Y-92750493D01*
X129800891Y-92752570D01*
X129802445Y-92755745D01*
X129804946Y-92760185D01*
X129808505Y-92766058D01*
X129813232Y-92773530D01*
X129819239Y-92782769D01*
X129826636Y-92793942D01*
X129835533Y-92807217D01*
X129846042Y-92822760D01*
X129858273Y-92840739D01*
X129872338Y-92861321D01*
X129888346Y-92884674D01*
X129906408Y-92910964D01*
X129906946Y-92911746D01*
X129921809Y-92933399D01*
X129936061Y-92954241D01*
X129949555Y-92974049D01*
X129962142Y-92992605D01*
X129973675Y-93009687D01*
X129984005Y-93025074D01*
X129992985Y-93038546D01*
X130000467Y-93049883D01*
X130006303Y-93058863D01*
X130010345Y-93065266D01*
X130012445Y-93068872D01*
X130012718Y-93069524D01*
X130012897Y-93075508D01*
X130012287Y-93079949D01*
X130010829Y-93082148D01*
X130006933Y-93086710D01*
X130000572Y-93093665D01*
X129991715Y-93103044D01*
X129980333Y-93114876D01*
X129966396Y-93129192D01*
X129949875Y-93146023D01*
X129930740Y-93165398D01*
X129908963Y-93187348D01*
X129884513Y-93211904D01*
X129874176Y-93222265D01*
X129855171Y-93241280D01*
X129836849Y-93259566D01*
X129819398Y-93276939D01*
X129803002Y-93293217D01*
X129787847Y-93308216D01*
X129774119Y-93321755D01*
X129762004Y-93333649D01*
X129751688Y-93343716D01*
X129743355Y-93351774D01*
X129737193Y-93357638D01*
X129733387Y-93361126D01*
X129732218Y-93362060D01*
X129724703Y-93364519D01*
X129716999Y-93363735D01*
X129708465Y-93359617D01*
X129706747Y-93358485D01*
X129703827Y-93356487D01*
X129698023Y-93352510D01*
X129689576Y-93346720D01*
X129678728Y-93339283D01*
X129665720Y-93330364D01*
X129650794Y-93320129D01*
X129634192Y-93308743D01*
X129616155Y-93296373D01*
X129596924Y-93283184D01*
X129576743Y-93269342D01*
X129558209Y-93256629D01*
X129537464Y-93242412D01*
X129517506Y-93228757D01*
X129498571Y-93215824D01*
X129480894Y-93203774D01*
X129464710Y-93192766D01*
X129450257Y-93182961D01*
X129437768Y-93174517D01*
X129427481Y-93167596D01*
X129419630Y-93162356D01*
X129414451Y-93158959D01*
X129412254Y-93157599D01*
X129403350Y-93154938D01*
X129398544Y-93155016D01*
X129394998Y-93156161D01*
X129388390Y-93159032D01*
X129378968Y-93163506D01*
X129366981Y-93169461D01*
X129352676Y-93176774D01*
X129336302Y-93185322D01*
X129323511Y-93192099D01*
X129305629Y-93201598D01*
X129290757Y-93209411D01*
X129278576Y-93215663D01*
X129268767Y-93220481D01*
X129261010Y-93223991D01*
X129254986Y-93226317D01*
X129250375Y-93227587D01*
X129246858Y-93227927D01*
X129244117Y-93227461D01*
X129241830Y-93226316D01*
X129240096Y-93224981D01*
X129238906Y-93222834D01*
X129236324Y-93217284D01*
X129232397Y-93208438D01*
X129227168Y-93196402D01*
X129220683Y-93181282D01*
X129212985Y-93163184D01*
X129204120Y-93142214D01*
X129194133Y-93118480D01*
X129183067Y-93092086D01*
X129170968Y-93063139D01*
X129157881Y-93031745D01*
X129143850Y-92998011D01*
X129128920Y-92962043D01*
X129113135Y-92923946D01*
X129100429Y-92893232D01*
X129083937Y-92853340D01*
X129068836Y-92816799D01*
X129055066Y-92783461D01*
X129042567Y-92753176D01*
X129031279Y-92725792D01*
X129021143Y-92701161D01*
X129012097Y-92679131D01*
X129004083Y-92659554D01*
X128997041Y-92642278D01*
X128990909Y-92627154D01*
X128985630Y-92614032D01*
X128981141Y-92602762D01*
X128977385Y-92593193D01*
X128974300Y-92585176D01*
X128971827Y-92578561D01*
X128969906Y-92573196D01*
X128968476Y-92568934D01*
X128967479Y-92565622D01*
X128966853Y-92563112D01*
X128966540Y-92561252D01*
X128966478Y-92559894D01*
X128966609Y-92558887D01*
X128966725Y-92558477D01*
X128968534Y-92554217D01*
X128971280Y-92550407D01*
X128975554Y-92546519D01*
X128981948Y-92542027D01*
X128991053Y-92536403D01*
X128992396Y-92535603D01*
X129001349Y-92530038D01*
X129011085Y-92523602D01*
X129019706Y-92517554D01*
X129020829Y-92516727D01*
X129028117Y-92511307D01*
X129037103Y-92504628D01*
X129046443Y-92497688D01*
X129052105Y-92493482D01*
X129083197Y-92468058D01*
X129111680Y-92439951D01*
X129137369Y-92409367D01*
X129160076Y-92376514D01*
X129164448Y-92369346D01*
X129181615Y-92337155D01*
X129196183Y-92302727D01*
X129207900Y-92266801D01*
X129216518Y-92230114D01*
X129220758Y-92202870D01*
X129221962Y-92188905D01*
X129222614Y-92172303D01*
X129222731Y-92154175D01*
X129222332Y-92135633D01*
X129221434Y-92117786D01*
X129220055Y-92101747D01*
X129219010Y-92093496D01*
X129211347Y-92054071D01*
X129200229Y-92015990D01*
X129185790Y-91979440D01*
X129168165Y-91944607D01*
X129147489Y-91911676D01*
X129123897Y-91880832D01*
X129097523Y-91852263D01*
X129068502Y-91826152D01*
X129036969Y-91802686D01*
X129003058Y-91782051D01*
X128986909Y-91773664D01*
X128951234Y-91758019D01*
X128914916Y-91745980D01*
X128877668Y-91737481D01*
X128839202Y-91732455D01*
X128800000Y-91730835D01*
X128765964Y-91731947D01*
X128734030Y-91735386D01*
X128703193Y-91741310D01*
X128672446Y-91749876D01*
X128667314Y-91751553D01*
X128630189Y-91765868D01*
X128594874Y-91783374D01*
X128561552Y-91803890D01*
X128530405Y-91827236D01*
X128501615Y-91853230D01*
X128475364Y-91881692D01*
X128451835Y-91912440D01*
X128431210Y-91945296D01*
X128413672Y-91980076D01*
X128399401Y-92016602D01*
X128399072Y-92017584D01*
X128390654Y-92045262D01*
X128384443Y-92071699D01*
X128380249Y-92098083D01*
X128377885Y-92125599D01*
X128377160Y-92155332D01*
X128377903Y-92183778D01*
X128380215Y-92209969D01*
X128384300Y-92235187D01*
X128390364Y-92260716D01*
X128398078Y-92286224D01*
X128412357Y-92323661D01*
X128429914Y-92359255D01*
X128450639Y-92392849D01*
X128474417Y-92424288D01*
X128501138Y-92453418D01*
X128530690Y-92480083D01*
X128547896Y-92493485D01*
X128556305Y-92499717D01*
X128564808Y-92506051D01*
X128572251Y-92511624D01*
X128576329Y-92514700D01*
X128582527Y-92519142D01*
X128590713Y-92524658D01*
X128599609Y-92530395D01*
X128604762Y-92533595D01*
X128614710Y-92539781D01*
X128621884Y-92544603D01*
X128626824Y-92548532D01*
X128630072Y-92552040D01*
X128632170Y-92555601D01*
X128633279Y-92558487D01*
X128633483Y-92559377D01*
X128633525Y-92560542D01*
X128633345Y-92562132D01*
X128632883Y-92564297D01*
X128632080Y-92567188D01*
X128630875Y-92570954D01*
X128629208Y-92575745D01*
X128627020Y-92581712D01*
X128624250Y-92589004D01*
X128620839Y-92597772D01*
X128616726Y-92608166D01*
X128611852Y-92620336D01*
X128606157Y-92634432D01*
X128599580Y-92650604D01*
X128592062Y-92669002D01*
X128583543Y-92689776D01*
X128573963Y-92713076D01*
X128563262Y-92739053D01*
X128551379Y-92767856D01*
X128538256Y-92799636D01*
X128523832Y-92834542D01*
X128508046Y-92872725D01*
X128499563Y-92893242D01*
X128483313Y-92932507D01*
X128467851Y-92969806D01*
X128453223Y-93005025D01*
X128439476Y-93038055D01*
X128426658Y-93068784D01*
X128414814Y-93097099D01*
X128403993Y-93122891D01*
X128394240Y-93146048D01*
X128385603Y-93166458D01*
X128378128Y-93184009D01*
X128371863Y-93198592D01*
X128366855Y-93210094D01*
X128363149Y-93218403D01*
X128360794Y-93223410D01*
X128359893Y-93224981D01*
X128355115Y-93227451D01*
X128350343Y-93228298D01*
X128346908Y-93227354D01*
X128340235Y-93224535D01*
X128330368Y-93219864D01*
X128317353Y-93213363D01*
X128301233Y-93205054D01*
X128282053Y-93194958D01*
X128277102Y-93192326D01*
X128262164Y-93184421D01*
X128248071Y-93177057D01*
X128235217Y-93170433D01*
X128223998Y-93164749D01*
X128214806Y-93160203D01*
X128208036Y-93156994D01*
X128204083Y-93155323D01*
X128203479Y-93155145D01*
X128197126Y-93154916D01*
X128191573Y-93155972D01*
X128189165Y-93157330D01*
X128183871Y-93160682D01*
X128175925Y-93165870D01*
X128165563Y-93172734D01*
X128153020Y-93181118D01*
X128138531Y-93190864D01*
X128122331Y-93201812D01*
X128104655Y-93213806D01*
X128085739Y-93226687D01*
X128065816Y-93240297D01*
X128047893Y-93252577D01*
X128027076Y-93266858D01*
X128006920Y-93280685D01*
X127987678Y-93293884D01*
X127969601Y-93306283D01*
X127952940Y-93317710D01*
X127937947Y-93327992D01*
X127924873Y-93336956D01*
X127913970Y-93344431D01*
X127905490Y-93350243D01*
X127899683Y-93354220D01*
X127897138Y-93355961D01*
X127888046Y-93361501D01*
X127880662Y-93364285D01*
X127874235Y-93364442D01*
X127868011Y-93362098D01*
X127866456Y-93361172D01*
X127864346Y-93359351D01*
X127859750Y-93355027D01*
X127852857Y-93348384D01*
X127843853Y-93339609D01*
X127832926Y-93328886D01*
X127820264Y-93316400D01*
X127806053Y-93302336D01*
X127790482Y-93286879D01*
X127773737Y-93270216D01*
X127756007Y-93252529D01*
X127737479Y-93234006D01*
X127724877Y-93221385D01*
X127699450Y-93195865D01*
X127676707Y-93172963D01*
X127656620Y-93152649D01*
X127639159Y-93134895D01*
X127624296Y-93119670D01*
X127612003Y-93106944D01*
X127602250Y-93096689D01*
X127595008Y-93088874D01*
X127590250Y-93083469D01*
X127587945Y-93080446D01*
X127587714Y-93079949D01*
X127587036Y-93073945D01*
X127587273Y-93069524D01*
X127588447Y-93067254D01*
X127591629Y-93062087D01*
X127596672Y-93054244D01*
X127603428Y-93043944D01*
X127611749Y-93031410D01*
X127621487Y-93016860D01*
X127632495Y-93000517D01*
X127644624Y-92982600D01*
X127657726Y-92963330D01*
X127671654Y-92942928D01*
X127686260Y-92921614D01*
X127693040Y-92911746D01*
X127711169Y-92885362D01*
X127727239Y-92861921D01*
X127741362Y-92841256D01*
X127753649Y-92823199D01*
X127764209Y-92807583D01*
X127773153Y-92794242D01*
X127780593Y-92783009D01*
X127786638Y-92773716D01*
X127791399Y-92766197D01*
X127794987Y-92760284D01*
X127797513Y-92755811D01*
X127799086Y-92752610D01*
X127799818Y-92750515D01*
X127799823Y-92750493D01*
X127800128Y-92748901D01*
X127800287Y-92747242D01*
X127800216Y-92745281D01*
X127799827Y-92742784D01*
X127799036Y-92739515D01*
X127797756Y-92735240D01*
X127795902Y-92729726D01*
X127793387Y-92722736D01*
X127790126Y-92714036D01*
X127786033Y-92703392D01*
X127781022Y-92690569D01*
X127775007Y-92675333D01*
X127767902Y-92657448D01*
X127759623Y-92636681D01*
X127750081Y-92612796D01*
X127742444Y-92593690D01*
X127733365Y-92571040D01*
X127724619Y-92549328D01*
X127716315Y-92528823D01*
X127708565Y-92509792D01*
X127701480Y-92492507D01*
X127695170Y-92477235D01*
X127689746Y-92464246D01*
X127685320Y-92453808D01*
X127682003Y-92446191D01*
X127679905Y-92441664D01*
X127679268Y-92440531D01*
X127674557Y-92436118D01*
X127669477Y-92433085D01*
X127666810Y-92432399D01*
X127660679Y-92431078D01*
X127651350Y-92429172D01*
X127639088Y-92426734D01*
X127624157Y-92423815D01*
X127606824Y-92420464D01*
X127587352Y-92416735D01*
X127566007Y-92412677D01*
X127543053Y-92408342D01*
X127518757Y-92403781D01*
X127493383Y-92399045D01*
X127483560Y-92397219D01*
X127457837Y-92392434D01*
X127433082Y-92387812D01*
X127409563Y-92383404D01*
X127387545Y-92379262D01*
X127367294Y-92375434D01*
X127349076Y-92371973D01*
X127333156Y-92368928D01*
X127319801Y-92366350D01*
X127309277Y-92364290D01*
X127301848Y-92362799D01*
X127297782Y-92361926D01*
X127297178Y-92361768D01*
X127291215Y-92358319D01*
X127287219Y-92353793D01*
X127286635Y-92352748D01*
X127286117Y-92351488D01*
X127285663Y-92349792D01*
X127285268Y-92347439D01*
X127284930Y-92344210D01*
X127284645Y-92339884D01*
X127284410Y-92334241D01*
X127284221Y-92327060D01*
X127284074Y-92318121D01*
X127283967Y-92307203D01*
X127283896Y-92294087D01*
X127283857Y-92278551D01*
X127283847Y-92260375D01*
X127283863Y-92239340D01*
X127283901Y-92215224D01*
X127283958Y-92187807D01*
X127284031Y-92156869D01*
X127284049Y-92149424D01*
X127284530Y-91951021D01*
X127289049Y-91946211D01*
X127289710Y-91945398D01*
X127290174Y-91944698D01*
X127290648Y-91944068D01*
X127291341Y-91943465D01*
X127292463Y-91942844D01*
X127294223Y-91942164D01*
X127296829Y-91941380D01*
X127300490Y-91940450D01*
X127305416Y-91939330D01*
X127311815Y-91937977D01*
X127319896Y-91936347D01*
X127329869Y-91934398D01*
X127341942Y-91932086D01*
X127356324Y-91929368D01*
X127373224Y-91926200D01*
X127392851Y-91922540D01*
X127415415Y-91918343D01*
X127441123Y-91913567D01*
X127470186Y-91908169D01*
X127495316Y-91903499D01*
X127526115Y-91897773D01*
X127553407Y-91892693D01*
X127577412Y-91888205D01*
X127598349Y-91884255D01*
X127616438Y-91880791D01*
X127631898Y-91877757D01*
X127644949Y-91875102D01*
X127655809Y-91872771D01*
X127664700Y-91870712D01*
X127671839Y-91868871D01*
X127677447Y-91867194D01*
X127681743Y-91865628D01*
X127684947Y-91864120D01*
X127687277Y-91862616D01*
X127688954Y-91861062D01*
X127690197Y-91859406D01*
X127691225Y-91857594D01*
X127692257Y-91855573D01*
X127692263Y-91855562D01*
X127693472Y-91852930D01*
X127696051Y-91847093D01*
X127699878Y-91838332D01*
X127704831Y-91826929D01*
X127710789Y-91813164D01*
X127717631Y-91797318D01*
X127725235Y-91779673D01*
X127733480Y-91760508D01*
X127742244Y-91740106D01*
X127751406Y-91718747D01*
X127752891Y-91715283D01*
X127763988Y-91689410D01*
X127773689Y-91666786D01*
X127782067Y-91647162D01*
X127789195Y-91630290D01*
X127795146Y-91615924D01*
X127799992Y-91603817D01*
X127803807Y-91593720D01*
X127806663Y-91585386D01*
X127808634Y-91578568D01*
X127809791Y-91573019D01*
X127810208Y-91568491D01*
X127809957Y-91564737D01*
X127809112Y-91561509D01*
X127807745Y-91558560D01*
X127805930Y-91555643D01*
X127803738Y-91552510D01*
X127801679Y-91549560D01*
X127799323Y-91546111D01*
X127794989Y-91539779D01*
X127788842Y-91530806D01*
X127781048Y-91519432D01*
X127771773Y-91505901D01*
X127761182Y-91490454D01*
X127749443Y-91473334D01*
X127736721Y-91454782D01*
X127723181Y-91435041D01*
X127708991Y-91414353D01*
X127694315Y-91392960D01*
X127692038Y-91389641D01*
X127677474Y-91368402D01*
X127663495Y-91347997D01*
X127650253Y-91328650D01*
X127637902Y-91310584D01*
X127626593Y-91294024D01*
X127616481Y-91279194D01*
X127607716Y-91266317D01*
X127600452Y-91255618D01*
X127594842Y-91247319D01*
X127591038Y-91241646D01*
X127589193Y-91238822D01*
X127589061Y-91238598D01*
X127587581Y-91233904D01*
X127586876Y-91227930D01*
X127586866Y-91227239D01*
X127586928Y-91226024D01*
X127587213Y-91224715D01*
X127587874Y-91223153D01*
X127589060Y-91221180D01*
X127590923Y-91218636D01*
X127593614Y-91215363D01*
X127597285Y-91211202D01*
X127602085Y-91205994D01*
X127608166Y-91199581D01*
X127615680Y-91191804D01*
X127624776Y-91182504D01*
X127635607Y-91171522D01*
X127648322Y-91158700D01*
X127663074Y-91143878D01*
X127680013Y-91126899D01*
X127699290Y-91107602D01*
X127721057Y-91085830D01*
X127868380Y-90938507D01*
X127876659Y-90938507D01*
X127877711Y-90938440D01*
X127878557Y-90938307D01*
X127879350Y-90938208D01*
X127880243Y-90938245D01*
X127881388Y-90938520D01*
X127882939Y-90939134D01*
X127885050Y-90940187D01*
X127887873Y-90941782D01*
X127891562Y-90944020D01*
X127896269Y-90947002D01*
X127902147Y-90950829D01*
X127909351Y-90955602D01*
X127918032Y-90961424D01*
X127928345Y-90968395D01*
X127940442Y-90976616D01*
X127954476Y-90986189D01*
X127970601Y-90997216D01*
X127988969Y-91009797D01*
X128009734Y-91024034D01*
X128033049Y-91040027D01*
X128059067Y-91057880D01*
X128087941Y-91077692D01*
X128112622Y-91094625D01*
X128133198Y-91108736D01*
X128150890Y-91120852D01*
X128165941Y-91131125D01*
X128178591Y-91139708D01*
X128189083Y-91146751D01*
X128197657Y-91152408D01*
X128204555Y-91156830D01*
X128210019Y-91160169D01*
X128214290Y-91162577D01*
X128217610Y-91164206D01*
X128220220Y-91165207D01*
X128222361Y-91165734D01*
X128224275Y-91165937D01*
X128225998Y-91165970D01*
X128228225Y-91165792D01*
X128231233Y-91165198D01*
X128235261Y-91164096D01*
X128240547Y-91162396D01*
X128247330Y-91160006D01*
X128255847Y-91156836D01*
X128266338Y-91152794D01*
X128279040Y-91147790D01*
X128294192Y-91141732D01*
X128312032Y-91134529D01*
X128332799Y-91126090D01*
X128356731Y-91116325D01*
X128367465Y-91111936D01*
X128388799Y-91103189D01*
X128409187Y-91094792D01*
X128428344Y-91086863D01*
X128445987Y-91079522D01*
X128461832Y-91072888D01*
X128475595Y-91067081D01*
X128486992Y-91062219D01*
X128495740Y-91058423D01*
X128501554Y-91055810D01*
X128504150Y-91054502D01*
X128504182Y-91054479D01*
X128505883Y-91053210D01*
X128507425Y-91051923D01*
X128508856Y-91050401D01*
X128510226Y-91048427D01*
X128511586Y-91045786D01*
X128512985Y-91042262D01*
X128514473Y-91037638D01*
X128516099Y-91031698D01*
X128517914Y-91024225D01*
X128519967Y-91015003D01*
X128522309Y-91003817D01*
X128524988Y-90990449D01*
X128528054Y-90974684D01*
X128531558Y-90956305D01*
X128535550Y-90935096D01*
X128540078Y-90910841D01*
X128545193Y-90883323D01*
X128550945Y-90852326D01*
X128551850Y-90847446D01*
X128556814Y-90820748D01*
X128561616Y-90795031D01*
X128566208Y-90770551D01*
X128570540Y-90747561D01*
X128574565Y-90726314D01*
X128578233Y-90707065D01*
X128581497Y-90690066D01*
X128584308Y-90675572D01*
X128586618Y-90663837D01*
X128588378Y-90655114D01*
X128589539Y-90649656D01*
X128590011Y-90647794D01*
X128593139Y-90643011D01*
X128597775Y-90638922D01*
X128597976Y-90638797D01*
X128599031Y-90638224D01*
X128600354Y-90637716D01*
X128602166Y-90637269D01*
X128604688Y-90636879D01*
X128608141Y-90636542D01*
X128612748Y-90636255D01*
X128618729Y-90636013D01*
X128626306Y-90635813D01*
X128635700Y-90635651D01*
X128647132Y-90635522D01*
X128660825Y-90635423D01*
X128676999Y-90635350D01*
X128695876Y-90635299D01*
X128717677Y-90635266D01*
X128742624Y-90635248D01*
X128770937Y-90635239D01*
X128800000Y-90635238D01*
X128831591Y-90635240D01*
D12*
X183000000Y-124460000D03*
X133560000Y-95760000D03*
D13*
X161190000Y-100200000D03*
X161190000Y-100600000D03*
X161190000Y-101000000D03*
X161190000Y-101400000D03*
X161190000Y-101800000D03*
X161190000Y-102200000D03*
X161190000Y-102600000D03*
X161190000Y-103000000D03*
X161190000Y-103400000D03*
X161190000Y-103800000D03*
X161190000Y-107800000D03*
X161190000Y-107400000D03*
X161190000Y-107000000D03*
X161190000Y-106600000D03*
X161190000Y-106200000D03*
X161190000Y-105800000D03*
X161190000Y-105400000D03*
X161190000Y-105000000D03*
X161190000Y-104600000D03*
X161190000Y-104200000D03*
X161190000Y-108200000D03*
X161190000Y-108600000D03*
X161190000Y-109000000D03*
X161190000Y-109400000D03*
X161190000Y-109800000D03*
X161190000Y-110200000D03*
X161190000Y-110600000D03*
X161190000Y-111000000D03*
X161190000Y-111400000D03*
X161190000Y-111800000D03*
X161190000Y-115800000D03*
X161190000Y-115400000D03*
X161190000Y-115000000D03*
X161190000Y-114600000D03*
X161190000Y-114200000D03*
X161190000Y-113800000D03*
X161190000Y-113400000D03*
X161190000Y-113000000D03*
X161190000Y-112600000D03*
X161190000Y-112200000D03*
X158110000Y-112200000D03*
X158110000Y-112600000D03*
X158110000Y-113000000D03*
X158110000Y-113400000D03*
X158110000Y-113800000D03*
X158110000Y-114200000D03*
X158110000Y-114600000D03*
X158110000Y-115000000D03*
X158110000Y-115400000D03*
X158110000Y-115800000D03*
X158110000Y-111800000D03*
X158110000Y-111400000D03*
X158110000Y-111000000D03*
X158110000Y-110600000D03*
X158110000Y-110200000D03*
X158110000Y-109800000D03*
X158110000Y-109400000D03*
X158110000Y-109000000D03*
X158110000Y-108600000D03*
X158110000Y-108200000D03*
X158110000Y-104200000D03*
X158110000Y-104600000D03*
X158110000Y-105000000D03*
X158110000Y-105400000D03*
X158110000Y-105800000D03*
X158110000Y-106200000D03*
X158110000Y-106600000D03*
X158110000Y-107000000D03*
X158110000Y-107400000D03*
X158110000Y-107800000D03*
X158110000Y-103800000D03*
X158110000Y-103400000D03*
X158110000Y-103000000D03*
X158110000Y-102600000D03*
X158110000Y-102200000D03*
X158110000Y-101800000D03*
X158110000Y-101400000D03*
X158110000Y-101000000D03*
X158110000Y-100600000D03*
X158110000Y-100200000D03*
D14*
X158461920Y-94250000D03*
X158461920Y-93599760D03*
X158461920Y-92949520D03*
X155800000Y-92949520D03*
X155800000Y-93599760D03*
X155800000Y-94250000D03*
X164300000Y-98250000D03*
X164300000Y-97599760D03*
X164300000Y-96949520D03*
X161638080Y-96949520D03*
X161638080Y-97599760D03*
X161638080Y-98250000D03*
X158611920Y-96700000D03*
X158611920Y-96049760D03*
X158611920Y-95399520D03*
X155950000Y-95399520D03*
X155950000Y-96049760D03*
X155950000Y-96700000D03*
D15*
X156972000Y-124663200D03*
D16*
X154432000Y-124663200D03*
X151892000Y-124663200D03*
X149352000Y-124663200D03*
X146812000Y-124663200D03*
X144272000Y-124663200D03*
X141732000Y-124663200D03*
X139192000Y-124663200D03*
D15*
X138684000Y-91440000D03*
D16*
X141224000Y-91440000D03*
X143764000Y-91440000D03*
X146304000Y-91440000D03*
X148844000Y-91440000D03*
X151384000Y-91440000D03*
D17*
X120396000Y-120396000D03*
D18*
X117856000Y-120396000D03*
X120396000Y-117856000D03*
X117856000Y-117856000D03*
X120396000Y-115316000D03*
X117856000Y-115316000D03*
X120396000Y-112776000D03*
X117856000Y-112776000D03*
X120396000Y-110236000D03*
X117856000Y-110236000D03*
X120396000Y-107696000D03*
X117856000Y-107696000D03*
X120396000Y-105156000D03*
X117856000Y-105156000D03*
X120396000Y-102616000D03*
X117856000Y-102616000D03*
X120396000Y-100076000D03*
X117856000Y-100076000D03*
X120396000Y-97536000D03*
X117856000Y-97536000D03*
X120396000Y-94996000D03*
X117856000Y-94996000D03*
D17*
X184404000Y-94183200D03*
D18*
X186944000Y-94183200D03*
X184404000Y-96723200D03*
X186944000Y-96723200D03*
X184404000Y-99263200D03*
X186944000Y-99263200D03*
X184404000Y-101803200D03*
X186944000Y-101803200D03*
X184404000Y-104343200D03*
X186944000Y-104343200D03*
X184404000Y-106883200D03*
X186944000Y-106883200D03*
X184404000Y-109423200D03*
X186944000Y-109423200D03*
X184404000Y-111963200D03*
X186944000Y-111963200D03*
X184404000Y-114503200D03*
X186944000Y-114503200D03*
X184404000Y-117043200D03*
X186944000Y-117043200D03*
X184404000Y-119583200D03*
X186944000Y-119583200D03*
X184404000Y-122123200D03*
X186944000Y-122123200D03*
D17*
X168402000Y-93726000D03*
D18*
X168402000Y-91186000D03*
X170942000Y-93726000D03*
X170942000Y-91186000D03*
X173482000Y-93726000D03*
X173482000Y-91186000D03*
D17*
X173736000Y-122224800D03*
D18*
X173736000Y-124764800D03*
X171196000Y-122224800D03*
X171196000Y-124764800D03*
X168656000Y-122224800D03*
X168656000Y-124764800D03*
D19*
X127000000Y-123151900D03*
X127000000Y-124650500D03*
X124000000Y-123164600D03*
X124000000Y-124663200D03*
X121000000Y-123250700D03*
X121000000Y-124749300D03*
D20*
X137922000Y-119362400D03*
X137922000Y-117162400D03*
X140620000Y-119390000D03*
X140620000Y-117190000D03*
X143256000Y-119395600D03*
X143256000Y-117195600D03*
X141200000Y-93710000D03*
X141200000Y-95910000D03*
X138600000Y-93700000D03*
X138600000Y-95900000D03*
X139190000Y-105020000D03*
X139190000Y-102820000D03*
X136870000Y-105010000D03*
X136870000Y-102810000D03*
D12*
X134640000Y-120300000D03*
D21*
X142310000Y-106500000D03*
X146950000Y-106520000D03*
X162883962Y-97548669D03*
X162500000Y-95300000D03*
X140830000Y-115920000D03*
X144450000Y-117150000D03*
X163934065Y-95215229D03*
D22*
X163830000Y-109270810D03*
X164058208Y-106967980D03*
X162579214Y-106491109D03*
X162993938Y-107218712D03*
X162237982Y-107581100D03*
X162237982Y-108419301D03*
X162993938Y-108781689D03*
X162579214Y-109509292D03*
D21*
X160500000Y-95450000D03*
X157300000Y-95000000D03*
X146540000Y-103924120D03*
X142200000Y-103920000D03*
X159100000Y-98150000D03*
X159950000Y-93400000D03*
X151790989Y-103434136D03*
X154500000Y-92950000D03*
X124800000Y-106320000D03*
X124000000Y-122100000D03*
D22*
X155589805Y-105471395D03*
D21*
X154325068Y-92130246D03*
X160303087Y-96914049D03*
X157300000Y-97100000D03*
X156750000Y-92200000D03*
X154650000Y-94900000D03*
X145413264Y-103516540D03*
X142940000Y-103434136D03*
X160729126Y-94320874D03*
D22*
X153919056Y-100000853D03*
D21*
X153454202Y-114590804D03*
D22*
X155299763Y-113793840D03*
X153873962Y-113412043D03*
X155727610Y-112671825D03*
X154026245Y-112218220D03*
X156055702Y-111531180D03*
X154490505Y-110989682D03*
X156402417Y-110392762D03*
D21*
X125920002Y-110540000D03*
D22*
X155871011Y-109744529D03*
X156179061Y-107808048D03*
D21*
X127000000Y-122100000D03*
D22*
X157062650Y-107581100D03*
X157062650Y-108419301D03*
X156306694Y-108781689D03*
X156721418Y-109509292D03*
X156320021Y-106910513D03*
D21*
X121770000Y-106520000D03*
X122260000Y-121710000D03*
D22*
X154838400Y-106070400D03*
D21*
X138060000Y-102060000D03*
X140260000Y-102180000D03*
D22*
X155714769Y-103348701D03*
X154929039Y-102987157D03*
X155283703Y-102227594D03*
X154326150Y-101630674D03*
X154699335Y-100880119D03*
X153217991Y-100462585D03*
X158255617Y-116945501D03*
X157265015Y-116147324D03*
X156788823Y-116834445D03*
X156134258Y-116308281D03*
X155690000Y-117460000D03*
D21*
X154460000Y-116690000D03*
D22*
X153760535Y-115922029D03*
X154990539Y-114935795D03*
X161922704Y-99740163D03*
X161045015Y-99054899D03*
X164613234Y-99375544D03*
X163537072Y-99587501D03*
X166149021Y-100034791D03*
X165355304Y-99765326D03*
X164717783Y-101354066D03*
X167270000Y-100060000D03*
X163947803Y-102261178D03*
X166928017Y-101406575D03*
X163595710Y-103398884D03*
X166435862Y-102786775D03*
X163227869Y-104534203D03*
X165967464Y-103952211D03*
X162889081Y-105673578D03*
X165504369Y-105122998D03*
X165294930Y-110778593D03*
X162897007Y-110372718D03*
X165553567Y-111972414D03*
X163236900Y-111514984D03*
X165830406Y-113166235D03*
X163635195Y-112660600D03*
D21*
X166458926Y-114417146D03*
D22*
X163948994Y-113820226D03*
X165800275Y-115577507D03*
X164288019Y-114961441D03*
X163996455Y-116715567D03*
D21*
X165499652Y-116359956D03*
D22*
X162453803Y-116868232D03*
X163178105Y-116446349D03*
X161045015Y-116945501D03*
X162033213Y-116143179D03*
X158255617Y-99054899D03*
X156653893Y-99385946D03*
X154801664Y-98798319D03*
X153817718Y-98797108D03*
D21*
X153124797Y-99268763D03*
D23*
X146950000Y-106520000D02*
X142330000Y-106520000D01*
X142330000Y-106520000D02*
X142310000Y-106500000D01*
D24*
X162883962Y-97736932D02*
X162883962Y-97548669D01*
X163397030Y-98250000D02*
X162883962Y-97736932D01*
X164300000Y-98250000D02*
X163397030Y-98250000D01*
X162883962Y-97063736D02*
X162883962Y-97548669D01*
X162550000Y-96050000D02*
X162883962Y-96383962D01*
X162883962Y-96383962D02*
X162883962Y-97063736D01*
X158461920Y-94250000D02*
X158461920Y-95249520D01*
X158461920Y-95249520D02*
X158611920Y-95399520D01*
X159353696Y-95399520D02*
X159975678Y-96021502D01*
X158611920Y-95399520D02*
X159353696Y-95399520D01*
X160771502Y-96021502D02*
X160528498Y-96021502D01*
X162550000Y-96050000D02*
X160800000Y-96050000D01*
X160800000Y-96050000D02*
X160771502Y-96021502D01*
X160528498Y-96021502D02*
X159914476Y-96021502D01*
X159235978Y-96700000D02*
X158611920Y-96700000D01*
X159975678Y-96021502D02*
X160528498Y-96021502D01*
X159914476Y-96021502D02*
X159235978Y-96700000D01*
X162500000Y-96000000D02*
X162500000Y-95784933D01*
X162550000Y-96050000D02*
X162500000Y-96000000D01*
X162500000Y-95784933D02*
X162500000Y-95300000D01*
X158611920Y-94261920D02*
X158600000Y-94250000D01*
X164300000Y-97599760D02*
X164300000Y-96949520D01*
X163934065Y-95215229D02*
X164300000Y-95581164D01*
X164300000Y-95581164D02*
X164300000Y-96949520D01*
D23*
X140830000Y-115920000D02*
X140830000Y-116980000D01*
X140830000Y-116980000D02*
X140620000Y-117190000D01*
D25*
X140830000Y-115920000D02*
X139014400Y-115920000D01*
X139014400Y-115920000D02*
X137922000Y-117012400D01*
X137922000Y-117012400D02*
X137922000Y-117162400D01*
X140830000Y-117150000D02*
X140817600Y-117162400D01*
X143256000Y-117195600D02*
X144404400Y-117195600D01*
X144404400Y-117195600D02*
X144450000Y-117150000D01*
D24*
X160500000Y-95450000D02*
X161450000Y-94500000D01*
X163218836Y-94500000D02*
X163591166Y-94872330D01*
X163591166Y-94872330D02*
X163934065Y-95215229D01*
X161450000Y-94500000D02*
X163218836Y-94500000D01*
D23*
X163830000Y-109270810D02*
X164172899Y-108927911D01*
X164172899Y-108927911D02*
X164172899Y-108165901D01*
X164172899Y-108165901D02*
X164287200Y-108051600D01*
D24*
X162579214Y-109509292D02*
X163591518Y-109509292D01*
X163591518Y-109509292D02*
X163830000Y-109270810D01*
X161190000Y-109400000D02*
X162469922Y-109400000D01*
X162469922Y-109400000D02*
X162579214Y-109509292D01*
D25*
X164058208Y-107452913D02*
X164058208Y-106967980D01*
X164287200Y-108051600D02*
X164058208Y-107822608D01*
D24*
X163714228Y-106624000D02*
X163715309Y-106625081D01*
X161190316Y-106624000D02*
X163714228Y-106624000D01*
D25*
X164058208Y-107822608D02*
X164058208Y-107452913D01*
D24*
X163715309Y-106625081D02*
X164058208Y-106967980D01*
D25*
X162579214Y-106491109D02*
X162579214Y-106803988D01*
X162579214Y-106803988D02*
X162993938Y-107218712D01*
D26*
X183032400Y-108051600D02*
X164287200Y-108051600D01*
X164287200Y-108051600D02*
X162915600Y-108051600D01*
D25*
X162579214Y-109509292D02*
X162579214Y-109196413D01*
X162579214Y-109196413D02*
X162993938Y-108781689D01*
X162993938Y-107973262D02*
X162993938Y-108781689D01*
X162993938Y-107218712D02*
X162993938Y-107973262D01*
X162993938Y-107973262D02*
X162915600Y-108051600D01*
X162915600Y-108051600D02*
X162605683Y-108051600D01*
X162605683Y-108051600D02*
X162237982Y-108419301D01*
X162237982Y-107581100D02*
X162580881Y-107923999D01*
X162580881Y-107923999D02*
X162787999Y-107923999D01*
X162787999Y-107923999D02*
X162915600Y-108051600D01*
D26*
X184404000Y-109423200D02*
X186944000Y-109423200D01*
X186944000Y-106883200D02*
X184404000Y-106883200D01*
X186944000Y-106883200D02*
X186944000Y-109423200D01*
X184404000Y-106883200D02*
X183235600Y-108051600D01*
X183235600Y-108051600D02*
X183032400Y-108051600D01*
X184404000Y-109423200D02*
X183032400Y-108051600D01*
D24*
X161190316Y-107024000D02*
X161540316Y-107024000D01*
X161540316Y-107024000D02*
X162406505Y-106287883D01*
X162406505Y-106287883D02*
X162579214Y-106491109D01*
X161190316Y-107424000D02*
X161540316Y-107424000D01*
X161540316Y-107424000D02*
X162119760Y-106931569D01*
X162119760Y-106931569D02*
X162408598Y-107036104D01*
X162408598Y-107036104D02*
X162993938Y-107218712D01*
X161190316Y-107824000D02*
X161540316Y-107824000D01*
X161540316Y-107824000D02*
X162065274Y-107377873D01*
X162065274Y-107377873D02*
X162237982Y-107581100D01*
X161190316Y-108176401D02*
X161540316Y-108176401D01*
X161540316Y-108176401D02*
X162065274Y-108622527D01*
X162065274Y-108622527D02*
X162237982Y-108419301D01*
X161190316Y-108576401D02*
X161540316Y-108576401D01*
X161540316Y-108576401D02*
X162119760Y-109068832D01*
X162119760Y-109068832D02*
X162408598Y-108964297D01*
X162408598Y-108964297D02*
X162993938Y-108781689D01*
X161190316Y-108976401D02*
X161540316Y-108976401D01*
X161540316Y-108976401D02*
X162406505Y-109712518D01*
X162406505Y-109712518D02*
X162579214Y-109509292D01*
X160500000Y-95450000D02*
X160500000Y-94965067D01*
X160500000Y-94965067D02*
X159134693Y-93599760D01*
X159134693Y-93599760D02*
X158461920Y-93599760D01*
X157300000Y-93996790D02*
X157300000Y-94515067D01*
X157300000Y-94515067D02*
X157300000Y-95000000D01*
X158611920Y-96049760D02*
X157708950Y-96049760D01*
X157708950Y-96049760D02*
X157300000Y-95640810D01*
X157300000Y-95640810D02*
X157300000Y-95000000D01*
X159100000Y-98150000D02*
X158684980Y-97734980D01*
X156984980Y-97734980D02*
X155950000Y-96700000D01*
X158684980Y-97734980D02*
X156984980Y-97734980D01*
D23*
X146517219Y-103946901D02*
X146540000Y-103924120D01*
X142542899Y-104262899D02*
X146201221Y-104262899D01*
X142200000Y-103920000D02*
X142542899Y-104262899D01*
X146201221Y-104262899D02*
X146517219Y-103946901D01*
D24*
X159502970Y-92949520D02*
X158461920Y-92949520D01*
X159950000Y-93396550D02*
X159950000Y-93400000D01*
X159502970Y-92949520D02*
X159950000Y-93396550D01*
X156470220Y-96800240D02*
X155919040Y-96800240D01*
X157345823Y-104738223D02*
X153095076Y-104738223D01*
X153095076Y-104738223D02*
X152133888Y-103777035D01*
X152133888Y-103777035D02*
X151790989Y-103434136D01*
X158110000Y-105000000D02*
X157607600Y-105000000D01*
X157607600Y-105000000D02*
X157345823Y-104738223D01*
X155800000Y-92949520D02*
X154500480Y-92949520D01*
X154500480Y-92949520D02*
X154500000Y-92950000D01*
X155938080Y-92949520D02*
X155937600Y-92950000D01*
D23*
X139190000Y-105020000D02*
X138536800Y-105020000D01*
X138536800Y-105020000D02*
X138400800Y-105156000D01*
X138400800Y-105156000D02*
X137350000Y-105156000D01*
X155274410Y-105156000D02*
X139979200Y-105156000D01*
X139979200Y-105156000D02*
X139843200Y-105020000D01*
X139843200Y-105020000D02*
X139190000Y-105020000D01*
X136870000Y-105010000D02*
X137204000Y-105010000D01*
X137204000Y-105010000D02*
X137350000Y-105156000D01*
X125600000Y-105156000D02*
X137350000Y-105156000D01*
D24*
X125600000Y-105156000D02*
X125600000Y-105520000D01*
X125600000Y-105520000D02*
X125142899Y-105977101D01*
X125142899Y-105977101D02*
X124800000Y-106320000D01*
X157300000Y-97100000D02*
X157030000Y-96830000D01*
X157030000Y-96830000D02*
X157030000Y-96226790D01*
X157030000Y-96226790D02*
X156852970Y-96049760D01*
X156852970Y-96049760D02*
X155950000Y-96049760D01*
X124000000Y-122100000D02*
X124000000Y-123164600D01*
D23*
X120396000Y-105156000D02*
X125600000Y-105156000D01*
D24*
X157573012Y-106224000D02*
X156820407Y-105471395D01*
D23*
X155274410Y-105156000D02*
X155589805Y-105471395D01*
D24*
X156074738Y-105471395D02*
X155589805Y-105471395D01*
X158110316Y-106224000D02*
X157573012Y-106224000D01*
X156820407Y-105471395D02*
X156074738Y-105471395D01*
X161638080Y-98250000D02*
X160346552Y-98250000D01*
X160346552Y-98250000D02*
X160303087Y-98206535D01*
X160303087Y-98206535D02*
X160303087Y-97700000D01*
X160303087Y-97700000D02*
X160303087Y-97398982D01*
X161638080Y-97599760D02*
X160735110Y-97599760D01*
X160735110Y-97599760D02*
X160634870Y-97700000D01*
X160634870Y-97700000D02*
X160303087Y-97700000D01*
X158110000Y-106200000D02*
X159531067Y-106200000D01*
X154650000Y-93945822D02*
X154650000Y-93846790D01*
X154650000Y-93846790D02*
X154897030Y-93599760D01*
X154897030Y-93599760D02*
X155800000Y-93599760D01*
X154650000Y-94900000D02*
X154650000Y-93945822D01*
X154650000Y-93945822D02*
X153928499Y-93224321D01*
X153928499Y-93224321D02*
X153928499Y-92526815D01*
X153928499Y-92526815D02*
X153982169Y-92473145D01*
X153982169Y-92473145D02*
X154325068Y-92130246D01*
X154394822Y-92200000D02*
X154325068Y-92130246D01*
X156750000Y-92200000D02*
X154394822Y-92200000D01*
X160303087Y-97398982D02*
X160303087Y-96914049D01*
X160239234Y-98270388D02*
X160303087Y-98206535D01*
X160054811Y-98454811D02*
X160239234Y-98270388D01*
X160054811Y-98454811D02*
X160050000Y-98450000D01*
X160059620Y-104997487D02*
X160054811Y-104992678D01*
X159531067Y-106200000D02*
X160059620Y-105671447D01*
X160054811Y-104992678D02*
X160054811Y-98454811D01*
X160059620Y-105671447D02*
X160059620Y-104997487D01*
D23*
X143022404Y-103516540D02*
X142940000Y-103434136D01*
X145413264Y-103516540D02*
X143022404Y-103516540D01*
D24*
X160729126Y-94320874D02*
X160729126Y-92679126D01*
X160729126Y-92679126D02*
X160500000Y-92450000D01*
X156917251Y-93032749D02*
X156917251Y-94173799D01*
X156917251Y-94173799D02*
X156841050Y-94250000D01*
X156841050Y-94250000D02*
X155800000Y-94250000D01*
X160500000Y-92450000D02*
X157500000Y-92450000D01*
X157500000Y-92450000D02*
X156917251Y-93032749D01*
X159450000Y-105800000D02*
X158110000Y-105800000D01*
X159750000Y-105500000D02*
X159450000Y-105800000D01*
X159700000Y-96671314D02*
X159700000Y-99250000D01*
X159750000Y-99300000D02*
X159750000Y-105500000D01*
X159700000Y-99250000D02*
X159750000Y-99300000D01*
X159885657Y-96485657D02*
X159700000Y-96671314D01*
X161638080Y-96949520D02*
X160874588Y-96949520D01*
X160874588Y-96949520D02*
X160874588Y-96639728D01*
X160874588Y-96639728D02*
X160577408Y-96342548D01*
X160577408Y-96342548D02*
X160028766Y-96342548D01*
X160028766Y-96342548D02*
X159885657Y-96485657D01*
X159445190Y-99426256D02*
X158058725Y-98039791D01*
X158110000Y-105400000D02*
X158612400Y-105400000D01*
X155936988Y-97280000D02*
X154990000Y-97280000D01*
X158612400Y-105400000D02*
X159445190Y-104567210D01*
X154733499Y-97023499D02*
X154733499Y-95713051D01*
X159445190Y-104567210D02*
X159445190Y-99426256D01*
X154990000Y-97280000D02*
X154733499Y-97023499D01*
X158058725Y-98039791D02*
X156696779Y-98039791D01*
X156696779Y-98039791D02*
X155936988Y-97280000D01*
X155047030Y-95399520D02*
X155950000Y-95399520D01*
X154733499Y-95713051D02*
X155047030Y-95399520D01*
X143140146Y-100150146D02*
X143140146Y-99837746D01*
X143140146Y-99837746D02*
X139202400Y-95900000D01*
X139202400Y-95900000D02*
X138600000Y-95900000D01*
D23*
X143140146Y-100150146D02*
X152656033Y-100150146D01*
X152656033Y-100150146D02*
X152940496Y-99865683D01*
X152940496Y-99865683D02*
X153783886Y-99865683D01*
X153783886Y-99865683D02*
X153919056Y-100000853D01*
X121462800Y-120396000D02*
X127267996Y-114590804D01*
X127267996Y-114590804D02*
X152969269Y-114590804D01*
X120396000Y-120396000D02*
X121462800Y-120396000D01*
X152969269Y-114590804D02*
X153454202Y-114590804D01*
D24*
X157487994Y-112807806D02*
X155474692Y-114518778D01*
X155474692Y-114518778D02*
X155387954Y-114487385D01*
X155387954Y-114487385D02*
X155264862Y-114364293D01*
X155264862Y-114364293D02*
X154165646Y-114364293D01*
X154165646Y-114364293D02*
X153939135Y-114590804D01*
X158015318Y-112671399D02*
X157624401Y-112671399D01*
X158110316Y-112576401D02*
X158015318Y-112671399D01*
X157624401Y-112671399D02*
X157487994Y-112807806D01*
X153939135Y-114590804D02*
X153454202Y-114590804D01*
D23*
X155299763Y-113793840D02*
X154814830Y-113793840D01*
X153587448Y-114008946D02*
X153502168Y-113923666D01*
X118973601Y-119278399D02*
X118719599Y-119532401D01*
X120627651Y-119278399D02*
X118973601Y-119278399D01*
X154814830Y-113793840D02*
X154599724Y-114008946D01*
X118719599Y-119532401D02*
X117856000Y-120396000D01*
X154599724Y-114008946D02*
X153587448Y-114008946D01*
X153502168Y-113923666D02*
X125982384Y-113923666D01*
X125982384Y-113923666D02*
X120627651Y-119278399D01*
D24*
X155857032Y-113793840D02*
X155784696Y-113793840D01*
X155784696Y-113793840D02*
X155299763Y-113793840D01*
X157554923Y-112366588D02*
X157489946Y-112366588D01*
X158110316Y-112176401D02*
X158024341Y-112262376D01*
X157226588Y-112629946D02*
X155857032Y-113793840D01*
X158024341Y-112262376D02*
X157659136Y-112262376D01*
X157659136Y-112262376D02*
X157554923Y-112366588D01*
X157489946Y-112366588D02*
X157226588Y-112629946D01*
D23*
X124683945Y-113568055D02*
X153233017Y-113568055D01*
X120396000Y-117856000D02*
X124683945Y-113568055D01*
X153233017Y-113568055D02*
X153389029Y-113412043D01*
X153389029Y-113412043D02*
X153873962Y-113412043D01*
D24*
X155574086Y-113222338D02*
X154548600Y-113222338D01*
X157576563Y-111957566D02*
X157532880Y-111957566D01*
X157348973Y-112061777D02*
X156921777Y-112488973D01*
X154548600Y-113222338D02*
X154358895Y-113412043D01*
X155780543Y-113428795D02*
X155574086Y-113222338D01*
X157532880Y-111957566D02*
X157452328Y-112038118D01*
X157452328Y-112038118D02*
X157424490Y-112061777D01*
X154358895Y-113412043D02*
X153873962Y-113412043D01*
X158110316Y-111776401D02*
X157757728Y-111776401D01*
X156921777Y-112488973D02*
X155815886Y-113428795D01*
X155815886Y-113428795D02*
X155780543Y-113428795D01*
X157424490Y-112061777D02*
X157348973Y-112061777D01*
X157757728Y-111776401D02*
X157576563Y-111957566D01*
D23*
X155099379Y-112815123D02*
X152176513Y-112815123D01*
X118719599Y-116992401D02*
X117856000Y-117856000D01*
X155242677Y-112671825D02*
X155099379Y-112815123D01*
X124153606Y-113212444D02*
X120932449Y-116433601D01*
X152176513Y-112815123D02*
X151779192Y-113212444D01*
X119278399Y-116433601D02*
X118719599Y-116992401D01*
X155727610Y-112671825D02*
X155242677Y-112671825D01*
X120932449Y-116433601D02*
X119278399Y-116433601D01*
X151779192Y-113212444D02*
X124153606Y-113212444D01*
D24*
X157760316Y-111376401D02*
X157650475Y-111486242D01*
X156616966Y-112348000D02*
X156235919Y-112671825D01*
X157406624Y-111652755D02*
X157302413Y-111756966D01*
X157616821Y-111486242D02*
X157450308Y-111652755D01*
X156212543Y-112671825D02*
X155727610Y-112671825D01*
X157650475Y-111486242D02*
X157616821Y-111486242D01*
X157302413Y-111756966D02*
X157208000Y-111756966D01*
X157450308Y-111652755D02*
X157406624Y-111652755D01*
X156235919Y-112671825D02*
X156212543Y-112671825D01*
X158110316Y-111376401D02*
X157760316Y-111376401D01*
X157208000Y-111756966D02*
X156616966Y-112348000D01*
D23*
X151631894Y-112856833D02*
X152270507Y-112218220D01*
X120396000Y-115316000D02*
X122855167Y-112856833D01*
X152270507Y-112218220D02*
X153541312Y-112218220D01*
X122855167Y-112856833D02*
X151631894Y-112856833D01*
X153541312Y-112218220D02*
X154026245Y-112218220D01*
D24*
X156079946Y-112178336D02*
X156001933Y-112100323D01*
X156345914Y-112178336D02*
X156079946Y-112178336D01*
X157667115Y-110976401D02*
X157295572Y-111347944D01*
X156001933Y-112100323D02*
X154629075Y-112100323D01*
X154629075Y-112100323D02*
X154511178Y-112218220D01*
X157295572Y-111347944D02*
X157176306Y-111347944D01*
X157176306Y-111347944D02*
X156345914Y-112178336D01*
X154511178Y-112218220D02*
X154026245Y-112218220D01*
X158110316Y-110976401D02*
X157667115Y-110976401D01*
D23*
X118719599Y-114452401D02*
X117856000Y-115316000D01*
X120932449Y-113893601D02*
X119278399Y-113893601D01*
X122456429Y-112369621D02*
X120932449Y-113893601D01*
X151616197Y-112369621D02*
X122456429Y-112369621D01*
X152394598Y-111591220D02*
X151616197Y-112369621D01*
X156055702Y-111531180D02*
X155570769Y-111531180D01*
X119278399Y-113893601D02*
X118719599Y-114452401D01*
X155570769Y-111531180D02*
X155510729Y-111591220D01*
X155510729Y-111591220D02*
X152394598Y-111591220D01*
D24*
X158110316Y-110576401D02*
X157636048Y-110576401D01*
X156562004Y-111531180D02*
X156540635Y-111531180D01*
X157636048Y-110576401D02*
X157169315Y-111043134D01*
X157050050Y-111043134D02*
X156562004Y-111531180D01*
X156540635Y-111531180D02*
X156055702Y-111531180D01*
X157169315Y-111043134D02*
X157050050Y-111043134D01*
D23*
X154005572Y-110989682D02*
X154490505Y-110989682D01*
X151468899Y-112014010D02*
X152493227Y-110989682D01*
X120396000Y-112776000D02*
X121157990Y-112014010D01*
X121157990Y-112014010D02*
X151468899Y-112014010D01*
X152493227Y-110989682D02*
X154005572Y-110989682D01*
D24*
X156923793Y-110738323D02*
X156516231Y-111145884D01*
X154520509Y-110959678D02*
X154490505Y-110989682D01*
X157604981Y-110176401D02*
X157043059Y-110738323D01*
X157043059Y-110738323D02*
X156923793Y-110738323D01*
X156516231Y-111145884D02*
X156330025Y-110959678D01*
X156330025Y-110959678D02*
X154520509Y-110959678D01*
X158110316Y-110176401D02*
X157604981Y-110176401D01*
D23*
X118719599Y-111912401D02*
X117856000Y-112776000D01*
X152587238Y-110392762D02*
X151321601Y-111658399D01*
X151321601Y-111658399D02*
X118973601Y-111658399D01*
X118973601Y-111658399D02*
X118719599Y-111912401D01*
X156402417Y-110392762D02*
X152587238Y-110392762D01*
D24*
X158110316Y-109776401D02*
X157573914Y-109776401D01*
X157573914Y-109776401D02*
X156957553Y-110392762D01*
X156887350Y-110392762D02*
X156402417Y-110392762D01*
X156957553Y-110392762D02*
X156887350Y-110392762D01*
X126404935Y-110540000D02*
X125920002Y-110540000D01*
X129000000Y-110236000D02*
X128696000Y-110540000D01*
X128696000Y-110540000D02*
X126404935Y-110540000D01*
D26*
X129000000Y-110236000D02*
X150340038Y-110236000D01*
X150340038Y-110236000D02*
X152067238Y-108508800D01*
X152067238Y-108508800D02*
X154838400Y-108508800D01*
D25*
X155871011Y-108931811D02*
X155871011Y-109259596D01*
D24*
X156213910Y-109401630D02*
X155871011Y-109744529D01*
X156239139Y-109376401D02*
X156213910Y-109401630D01*
D25*
X155871011Y-109259596D02*
X155871011Y-109744529D01*
X155448000Y-108508800D02*
X155871011Y-108931811D01*
D24*
X158110316Y-109376401D02*
X156239139Y-109376401D01*
D26*
X120396000Y-110236000D02*
X129000000Y-110236000D01*
D24*
X156663994Y-107808048D02*
X156179061Y-107808048D01*
D25*
X155478309Y-108508800D02*
X155836162Y-108150947D01*
X154838400Y-108508800D02*
X155478309Y-108508800D01*
X155836162Y-108150947D02*
X156179061Y-107808048D01*
D24*
X158110316Y-107424000D02*
X157726268Y-107808048D01*
X157726268Y-107808048D02*
X156663994Y-107808048D01*
X127000000Y-122100000D02*
X127000000Y-123151900D01*
D25*
X156721418Y-109509292D02*
X155993815Y-108781689D01*
X155993815Y-108781689D02*
X155720889Y-108781689D01*
X156306694Y-108781689D02*
X155720889Y-108781689D01*
X155720889Y-108781689D02*
X155448000Y-108508800D01*
D26*
X154838400Y-108508800D02*
X155448000Y-108508800D01*
D25*
X157062650Y-108419301D02*
X156719751Y-108076402D01*
X156719751Y-108076402D02*
X155880398Y-108076402D01*
X155880398Y-108076402D02*
X155448000Y-108508800D01*
X157062650Y-107581100D02*
X156719751Y-107923999D01*
X156719751Y-107923999D02*
X156032801Y-107923999D01*
X156032801Y-107923999D02*
X155448000Y-108508800D01*
D26*
X117856000Y-110236000D02*
X120396000Y-110236000D01*
D24*
X158110316Y-107824000D02*
X157760316Y-107824000D01*
X157760316Y-107824000D02*
X157235359Y-107377873D01*
X157235359Y-107377873D02*
X157062650Y-107581100D01*
X158110316Y-108176401D02*
X157760316Y-108176401D01*
X157760316Y-108176401D02*
X157235359Y-108622527D01*
X157235359Y-108622527D02*
X157062650Y-108419301D01*
X158110316Y-108576401D02*
X157760316Y-108576401D01*
X157760316Y-108576401D02*
X157180872Y-109068832D01*
X157180872Y-109068832D02*
X156892034Y-108964297D01*
X156892034Y-108964297D02*
X156306694Y-108781689D01*
X158110316Y-108976401D02*
X157760316Y-108976401D01*
X157760316Y-108976401D02*
X156894127Y-109712518D01*
X156894127Y-109712518D02*
X156721418Y-109509292D01*
D23*
X155835088Y-106910513D02*
X156320021Y-106910513D01*
X142822903Y-106910513D02*
X146457099Y-106910513D01*
X147236513Y-107116901D02*
X147442901Y-106910513D01*
X146663487Y-107116901D02*
X147236513Y-107116901D01*
X142636514Y-107096902D02*
X142822903Y-106910513D01*
X120396000Y-107696000D02*
X121259599Y-108559599D01*
X142023486Y-107096902D02*
X142636514Y-107096902D01*
X146457099Y-106910513D02*
X146663487Y-107116901D01*
X124123646Y-108559599D02*
X125772732Y-106910513D01*
X121259599Y-108559599D02*
X124123646Y-108559599D01*
X141837097Y-106910513D02*
X142023486Y-107096902D01*
X125772732Y-106910513D02*
X141837097Y-106910513D01*
X147442901Y-106910513D02*
X155835088Y-106910513D01*
D24*
X157154630Y-106910513D02*
X156804954Y-106910513D01*
X158110316Y-107024000D02*
X157268117Y-107024000D01*
X156804954Y-106910513D02*
X156320021Y-106910513D01*
X157268117Y-107024000D02*
X157154630Y-106910513D01*
X122112899Y-106177101D02*
X121770000Y-106520000D01*
X122219600Y-106070400D02*
X122112899Y-106177101D01*
X122900000Y-106070400D02*
X122219600Y-106070400D01*
X121000000Y-122699520D02*
X121989520Y-121710000D01*
X121989520Y-121710000D02*
X122260000Y-121710000D01*
X121000000Y-123250700D02*
X121000000Y-122699520D01*
D23*
X154353467Y-106070400D02*
X154838400Y-106070400D01*
X142636514Y-105883098D02*
X142823816Y-106070400D01*
X147236513Y-105923099D02*
X147383814Y-106070400D01*
X146663487Y-105923099D02*
X147236513Y-105923099D01*
X142823816Y-106070400D02*
X146516186Y-106070400D01*
X147383814Y-106070400D02*
X154353467Y-106070400D01*
X126109936Y-106070400D02*
X141876184Y-106070400D01*
X141876184Y-106070400D02*
X142063486Y-105883098D01*
X124886514Y-107293822D02*
X126109936Y-106070400D01*
X122900000Y-106070400D02*
X124123422Y-107293822D01*
X146516186Y-106070400D02*
X146663487Y-105923099D01*
X124123422Y-107293822D02*
X124886514Y-107293822D01*
X142063486Y-105883098D02*
X142636514Y-105883098D01*
X121135650Y-106070400D02*
X122900000Y-106070400D01*
D24*
X155323333Y-106070400D02*
X154838400Y-106070400D01*
X156836621Y-105918675D02*
X156445551Y-105918675D01*
X156445551Y-105918675D02*
X156293826Y-106070400D01*
X157541946Y-106624000D02*
X156836621Y-105918675D01*
X158110316Y-106624000D02*
X157541946Y-106624000D01*
X156293826Y-106070400D02*
X155323333Y-106070400D01*
D23*
X120932449Y-106273601D02*
X121135650Y-106070400D01*
X117856000Y-107696000D02*
X119278399Y-106273601D01*
X119278399Y-106273601D02*
X120932449Y-106273601D01*
D24*
X136870000Y-102810000D02*
X137472400Y-102810000D01*
X137472400Y-102810000D02*
X138060000Y-102222400D01*
X138060000Y-102222400D02*
X138060000Y-102060000D01*
X137920000Y-101920000D02*
X136850000Y-101920000D01*
X136850000Y-101920000D02*
X121798933Y-101920000D01*
X136870000Y-101940000D02*
X136850000Y-101920000D01*
X138060000Y-102060000D02*
X137920000Y-101920000D01*
X121259599Y-100939599D02*
X120396000Y-100076000D01*
X121798933Y-101920000D02*
X121259599Y-101380666D01*
X121259599Y-101380666D02*
X121259599Y-100939599D01*
X141618944Y-101890000D02*
X140550000Y-101890000D01*
X140550000Y-101890000D02*
X140260000Y-102180000D01*
X153103546Y-103691600D02*
X155371870Y-103691600D01*
X142591560Y-102862616D02*
X152274562Y-102862616D01*
X141618944Y-101890000D02*
X142591560Y-102862616D01*
X152274562Y-102862616D02*
X153103546Y-103691600D01*
X155371870Y-103691600D02*
X155714769Y-103348701D01*
X158110316Y-104624000D02*
X157760316Y-104624000D01*
X157569728Y-104433412D02*
X156799480Y-104433412D01*
X157760316Y-104624000D02*
X157569728Y-104433412D01*
X156799480Y-104433412D02*
X156057668Y-103691600D01*
X156057668Y-103691600D02*
X155714769Y-103348701D01*
X139190000Y-102820000D02*
X139190000Y-102067600D01*
X138710129Y-101587729D02*
X138579792Y-101587729D01*
X139190000Y-102067600D02*
X138710129Y-101587729D01*
X138483102Y-101491039D02*
X138579792Y-101587729D01*
X141744148Y-101587729D02*
X142714224Y-102557805D01*
X142714224Y-102557805D02*
X154499687Y-102557805D01*
X154586140Y-102644258D02*
X154929039Y-102987157D01*
X154499687Y-102557805D02*
X154586140Y-102644258D01*
X138579792Y-101587729D02*
X141744148Y-101587729D01*
X137786898Y-101491039D02*
X138483102Y-101491039D01*
X137690208Y-101587729D02*
X137786898Y-101491039D01*
X123524187Y-101587729D02*
X137690208Y-101587729D01*
X120726458Y-98790000D02*
X123524187Y-101587729D01*
X119142000Y-98790000D02*
X120726458Y-98790000D01*
X117856000Y-100076000D02*
X119142000Y-98790000D01*
X155117100Y-102799096D02*
X154929039Y-102987157D01*
X155558025Y-102799096D02*
X155117100Y-102799096D01*
X155627701Y-102729420D02*
X155558025Y-102799096D01*
X156177938Y-102729420D02*
X155627701Y-102729420D01*
X158110316Y-104224000D02*
X158014917Y-104128601D01*
X158014917Y-104128601D02*
X157577119Y-104128601D01*
X157577119Y-104128601D02*
X156177938Y-102729420D01*
X157096525Y-103024000D02*
X158110316Y-103024000D01*
X155283703Y-102227594D02*
X156300119Y-102227594D01*
X156300119Y-102227594D02*
X157096525Y-103024000D01*
D23*
X137554483Y-101260058D02*
X124120058Y-101260058D01*
X121259599Y-98399599D02*
X120396000Y-97536000D01*
X138715517Y-101260058D02*
X138618827Y-101163368D01*
X141879873Y-101260058D02*
X138715517Y-101260058D01*
X124120058Y-101260058D02*
X121259599Y-98399599D01*
X155283703Y-102227594D02*
X142847409Y-102227594D01*
X142847409Y-102227594D02*
X141879873Y-101260058D01*
X137651173Y-101163368D02*
X137554483Y-101260058D01*
X138618827Y-101163368D02*
X137651173Y-101163368D01*
D24*
X157166525Y-102624000D02*
X156469893Y-101927368D01*
X156085725Y-101630674D02*
X154811083Y-101630674D01*
X156469893Y-101927368D02*
X156382419Y-101927368D01*
X158110316Y-102624000D02*
X157166525Y-102624000D01*
X156382419Y-101927368D02*
X156085725Y-101630674D01*
X154811083Y-101630674D02*
X154326150Y-101630674D01*
D23*
X153841217Y-101630674D02*
X154326150Y-101630674D01*
X153814934Y-101604391D02*
X153841217Y-101630674D01*
X151992701Y-101604391D02*
X153814934Y-101604391D01*
X151966418Y-101630674D02*
X151992701Y-101604391D01*
X142749806Y-101630674D02*
X151966418Y-101630674D01*
X142026119Y-100906987D02*
X142749806Y-101630674D01*
X138861763Y-100906987D02*
X142026119Y-100906987D01*
X138765073Y-100810297D02*
X138861763Y-100906987D01*
X117856000Y-97536000D02*
X118973601Y-96418399D01*
X137504927Y-100810297D02*
X138765073Y-100810297D01*
X137408237Y-100906987D02*
X137504927Y-100810297D01*
X125786987Y-100906987D02*
X137408237Y-100906987D01*
X118973601Y-96418399D02*
X121298399Y-96418399D01*
X121298399Y-96418399D02*
X125786987Y-100906987D01*
D24*
X157199051Y-102224000D02*
X158110316Y-102224000D01*
X155099963Y-101280747D02*
X156255798Y-101280747D01*
X156255798Y-101280747D02*
X157199051Y-102224000D01*
X154699335Y-100880119D02*
X155099963Y-101280747D01*
D23*
X154214402Y-100880119D02*
X154699335Y-100880119D01*
X154035016Y-101059505D02*
X154214402Y-100880119D01*
X142677954Y-101059505D02*
X154035016Y-101059505D01*
X142172365Y-100553916D02*
X142677954Y-101059505D01*
X139008009Y-100553916D02*
X142172365Y-100553916D01*
X138911319Y-100457226D02*
X139008009Y-100553916D01*
X137358681Y-100457226D02*
X138911319Y-100457226D01*
X125953916Y-100553916D02*
X137261991Y-100553916D01*
X120396000Y-94996000D02*
X125953916Y-100553916D01*
X137261991Y-100553916D02*
X137358681Y-100457226D01*
D24*
X157226526Y-101824000D02*
X158110316Y-101824000D01*
X154973658Y-100308617D02*
X155640977Y-100975936D01*
X155640977Y-100975936D02*
X156378462Y-100975936D01*
X154077715Y-100549908D02*
X154183722Y-100549908D01*
X156378462Y-100975936D02*
X157226526Y-101824000D01*
X154031408Y-100596215D02*
X154077715Y-100549908D01*
X153351621Y-100596215D02*
X154031408Y-100596215D01*
X153217991Y-100462585D02*
X153351621Y-100596215D01*
X154425013Y-100308617D02*
X154973658Y-100308617D01*
X154183722Y-100549908D02*
X154425013Y-100308617D01*
D23*
X153076185Y-100604391D02*
X153217991Y-100462585D01*
X142722157Y-100604391D02*
X153076185Y-100604391D01*
X142318611Y-100200845D02*
X142722157Y-100604391D01*
X139154255Y-100200845D02*
X142318611Y-100200845D01*
X139057565Y-100104155D02*
X139154255Y-100200845D01*
X137212435Y-100104155D02*
X139057565Y-100104155D01*
X137115745Y-100200845D02*
X137212435Y-100104155D01*
X132520845Y-100200845D02*
X137115745Y-100200845D01*
X117856000Y-94996000D02*
X118973601Y-93878399D01*
X126198399Y-93878399D02*
X132520845Y-100200845D01*
X118973601Y-93878399D02*
X126198399Y-93878399D01*
X158255617Y-116945501D02*
X158255617Y-124446383D01*
X158255617Y-124446383D02*
X158038800Y-124663200D01*
X158038800Y-124663200D02*
X156972000Y-124663200D01*
D24*
X158255617Y-115800200D02*
X158255617Y-116945501D01*
D23*
X157265015Y-116147324D02*
X157265015Y-116427222D01*
X157265015Y-116427222D02*
X157385725Y-116547932D01*
X157385725Y-116547932D02*
X157385725Y-121709475D01*
X157385725Y-121709475D02*
X154432000Y-124663200D01*
D24*
X158110316Y-115376401D02*
X157760316Y-115376401D01*
X157760316Y-115376401D02*
X157092307Y-115944098D01*
X157092307Y-115944098D02*
X157265015Y-116147324D01*
D23*
X156788823Y-116834445D02*
X156788823Y-119766377D01*
X156788823Y-119766377D02*
X153111200Y-123444000D01*
X153111200Y-123444000D02*
X152958800Y-123444000D01*
X152958800Y-123444000D02*
X151892000Y-124510800D01*
X151892000Y-124510800D02*
X151892000Y-124663200D01*
D24*
X158110316Y-114976401D02*
X157760316Y-114976401D01*
X157760316Y-114976401D02*
X156643057Y-115925886D01*
X156643057Y-115925886D02*
X156699637Y-116227803D01*
X156699637Y-116227803D02*
X156788823Y-116834445D01*
D23*
X149352000Y-124510800D02*
X149352000Y-124663200D01*
X156286902Y-117173487D02*
X156286902Y-117728298D01*
X150571200Y-123444000D02*
X150418800Y-123444000D01*
X156134258Y-117020843D02*
X156286902Y-117173487D01*
X156286902Y-117728298D02*
X150571200Y-123444000D01*
X150418800Y-123444000D02*
X149352000Y-124510800D01*
X156134258Y-116308281D02*
X156134258Y-117020843D01*
D24*
X158110316Y-114576401D02*
X157760316Y-114576401D01*
X157760316Y-114576401D02*
X155961549Y-116105055D01*
X155961549Y-116105055D02*
X156134258Y-116308281D01*
X158110316Y-114176401D02*
X157760316Y-114176401D01*
X157760316Y-114176401D02*
X155512300Y-116086842D01*
X155512300Y-116086842D02*
X155560000Y-116134542D01*
X155560000Y-116134542D02*
X155560000Y-117330000D01*
X155560000Y-117330000D02*
X155690000Y-117460000D01*
D23*
X153862800Y-117460000D02*
X155205067Y-117460000D01*
X146812000Y-124510800D02*
X153862800Y-117460000D01*
X155205067Y-117460000D02*
X155690000Y-117460000D01*
X146812000Y-124663200D02*
X146812000Y-124510800D01*
X154460000Y-116690000D02*
X152660000Y-116690000D01*
X152660000Y-116690000D02*
X152560000Y-116790000D01*
X152560000Y-116790000D02*
X151992800Y-116790000D01*
X151992800Y-116790000D02*
X144272000Y-124510800D01*
X144272000Y-124510800D02*
X144272000Y-124663200D01*
D24*
X154802899Y-116347101D02*
X154460000Y-116690000D01*
X155110000Y-116028731D02*
X154802899Y-116335832D01*
X154802899Y-116335832D02*
X154802899Y-116347101D01*
X157760316Y-113776401D02*
X155110000Y-116028731D01*
X158110316Y-113776401D02*
X157760316Y-113776401D01*
X157760316Y-113376401D02*
X155133481Y-115608776D01*
X154245468Y-115922029D02*
X153760535Y-115922029D01*
X158110316Y-113376401D02*
X157760316Y-113376401D01*
D23*
X153275602Y-115922029D02*
X153760535Y-115922029D01*
X150320771Y-115922029D02*
X153275602Y-115922029D01*
X141732000Y-124663200D02*
X141732000Y-124510800D01*
D24*
X154558721Y-115608776D02*
X154245468Y-115922029D01*
X155133481Y-115608776D02*
X154558721Y-115608776D01*
D23*
X141732000Y-124510800D02*
X150320771Y-115922029D01*
X154253695Y-115187706D02*
X154505606Y-114935795D01*
X153414542Y-115435611D02*
X153662447Y-115187706D01*
X153662447Y-115187706D02*
X154253695Y-115187706D01*
X141218261Y-123444000D02*
X149226650Y-115435611D01*
X140258800Y-123444000D02*
X141218261Y-123444000D01*
X154505606Y-114935795D02*
X154990539Y-114935795D01*
X139192000Y-124510800D02*
X140258800Y-123444000D01*
X149226650Y-115435611D02*
X153414542Y-115435611D01*
X139192000Y-124663200D02*
X139192000Y-124510800D01*
D24*
X158110316Y-112976401D02*
X158024341Y-113062376D01*
X157659136Y-113062376D02*
X155454684Y-114935795D01*
X155454684Y-114935795D02*
X154990539Y-114935795D01*
X158024341Y-113062376D02*
X157659136Y-113062376D01*
D23*
X168402000Y-95555162D02*
X168402000Y-94792800D01*
X163577009Y-98703391D02*
X165253771Y-98703391D01*
X162883136Y-99397264D02*
X163577009Y-98703391D01*
X165253771Y-98703391D02*
X168402000Y-95555162D01*
X168402000Y-94792800D02*
X168402000Y-93726000D01*
X161922704Y-99740163D02*
X162265603Y-99397264D01*
X162265603Y-99397264D02*
X162883136Y-99397264D01*
D24*
X161540298Y-100624000D02*
X161922704Y-100241594D01*
X161922704Y-100241594D02*
X161922704Y-100225096D01*
X161190316Y-100624000D02*
X161540298Y-100624000D01*
X161922704Y-100225096D02*
X161922704Y-99740163D01*
X161045015Y-100200200D02*
X161045015Y-99054899D01*
X164270335Y-99718443D02*
X164613234Y-99375544D01*
X164251954Y-99718443D02*
X164270335Y-99718443D01*
X161602431Y-101424000D02*
X162867428Y-100159003D01*
X161190316Y-101424000D02*
X161602431Y-101424000D01*
X163811394Y-100159003D02*
X164251954Y-99718443D01*
X162867428Y-100159003D02*
X163811394Y-100159003D01*
X162790919Y-99804445D02*
X163320128Y-99804445D01*
X163320128Y-99804445D02*
X163537072Y-99587501D01*
X161571364Y-101024000D02*
X162790919Y-99804445D01*
X161190316Y-101024000D02*
X161571364Y-101024000D01*
X164495702Y-100336829D02*
X165846983Y-100336829D01*
X163119943Y-100768625D02*
X164063906Y-100768625D01*
X161854946Y-102033622D02*
X163119943Y-100768625D01*
X161730694Y-102033622D02*
X161854946Y-102033622D01*
X161540316Y-102224000D02*
X161730694Y-102033622D01*
X161190316Y-102224000D02*
X161540316Y-102224000D01*
X165846983Y-100336829D02*
X166149021Y-100034791D01*
X164063906Y-100768625D02*
X164495702Y-100336829D01*
X164383096Y-100018368D02*
X165102262Y-100018368D01*
X161190316Y-101824000D02*
X161285505Y-101728811D01*
X162993685Y-100463814D02*
X163937650Y-100463814D01*
D23*
X172364399Y-93957651D02*
X167147749Y-99174301D01*
D24*
X163937650Y-100463814D02*
X164383096Y-100018368D01*
X161728688Y-101728811D02*
X162993685Y-100463814D01*
X161285505Y-101728811D02*
X161728688Y-101728811D01*
D23*
X165698203Y-99422427D02*
X165355304Y-99765326D01*
X165946329Y-99174301D02*
X165698203Y-99422427D01*
X167147749Y-99174301D02*
X165946329Y-99174301D01*
X172364399Y-92303601D02*
X172364399Y-93957651D01*
X173482000Y-91186000D02*
X172364399Y-92303601D01*
D24*
X165102262Y-100018368D02*
X165355304Y-99765326D01*
X161602450Y-103024000D02*
X161983206Y-102643244D01*
X161190316Y-103024000D02*
X161602450Y-103024000D01*
X162107458Y-102643244D02*
X163372455Y-101378247D01*
X164693602Y-101378247D02*
X164717783Y-101354066D01*
X161983206Y-102643244D02*
X162107458Y-102643244D01*
X163372455Y-101378247D02*
X164693602Y-101378247D01*
D23*
X172029199Y-95300801D02*
X167612899Y-99717101D01*
X186944000Y-94183200D02*
X185826399Y-95300801D01*
D24*
X166927101Y-100402899D02*
X167270000Y-100060000D01*
X164621958Y-100641640D02*
X166688360Y-100641640D01*
X164190162Y-101073436D02*
X164621958Y-100641640D01*
X161981202Y-102338433D02*
X163246199Y-101073436D01*
X161856950Y-102338433D02*
X161981202Y-102338433D01*
X161571383Y-102624000D02*
X161856950Y-102338433D01*
X166688360Y-100641640D02*
X166927101Y-100402899D01*
X161190316Y-102624000D02*
X161571383Y-102624000D01*
X163246199Y-101073436D02*
X164190162Y-101073436D01*
D23*
X167612899Y-99717101D02*
X167270000Y-100060000D01*
X185826399Y-95300801D02*
X172029199Y-95300801D01*
D24*
X161540314Y-103824000D02*
X161721480Y-103642836D01*
X161845748Y-103642836D02*
X162235718Y-103252866D01*
X161190316Y-103824000D02*
X161540314Y-103824000D01*
X162235718Y-103252866D02*
X162359968Y-103252866D01*
X163351656Y-102261178D02*
X163462870Y-102261178D01*
X161721480Y-103642836D02*
X161845748Y-103642836D01*
X163462870Y-102261178D02*
X163947803Y-102261178D01*
X162359968Y-103252866D02*
X163351656Y-102261178D01*
D23*
X167645263Y-101063676D02*
X167270916Y-101063676D01*
D24*
X164443461Y-101925569D02*
X166409023Y-101925569D01*
X164200950Y-101683058D02*
X164443461Y-101925569D01*
X163498711Y-101683058D02*
X164200950Y-101683058D01*
X162109462Y-102948055D02*
X162233714Y-102948055D01*
X166585118Y-101749474D02*
X166928017Y-101406575D01*
X161719492Y-103338025D02*
X162109462Y-102948055D01*
X161276291Y-103338025D02*
X161719492Y-103338025D01*
D23*
X185826399Y-97840801D02*
X170868138Y-97840801D01*
X186944000Y-96723200D02*
X185826399Y-97840801D01*
X167270916Y-101063676D02*
X166928017Y-101406575D01*
D24*
X162233714Y-102948055D02*
X163498711Y-101683058D01*
D23*
X170868138Y-97840801D02*
X167645263Y-101063676D01*
D24*
X166409023Y-101925569D02*
X166585118Y-101749474D01*
X161190316Y-103424000D02*
X161276291Y-103338025D01*
X162098260Y-104252458D02*
X162488230Y-103862488D01*
X161602450Y-104624000D02*
X161973992Y-104252458D01*
X162612480Y-103862488D02*
X163076084Y-103398884D01*
X163076084Y-103398884D02*
X163110777Y-103398884D01*
X163110777Y-103398884D02*
X163595710Y-103398884D01*
X161190316Y-104624000D02*
X161602450Y-104624000D01*
X162488230Y-103862488D02*
X162612480Y-103862488D01*
X161973992Y-104252458D02*
X162098260Y-104252458D01*
X165950929Y-102786775D02*
X166435862Y-102786775D01*
X161847736Y-103947647D02*
X161972004Y-103947647D01*
X161190316Y-104224000D02*
X161571383Y-104224000D01*
X161571383Y-104224000D02*
X161847736Y-103947647D01*
X163266444Y-102777457D02*
X163618259Y-102777457D01*
X163618259Y-102777457D02*
X163673482Y-102832680D01*
X163673482Y-102832680D02*
X165905024Y-102832680D01*
X165905024Y-102832680D02*
X165950929Y-102786775D01*
X161972004Y-103947647D02*
X162361974Y-103557677D01*
X162486224Y-103557677D02*
X163266444Y-102777457D01*
X162361974Y-103557677D02*
X162486224Y-103557677D01*
D23*
X166778761Y-102443876D02*
X166435862Y-102786775D01*
X168841836Y-100380801D02*
X166778761Y-102443876D01*
X186944000Y-99263200D02*
X185826399Y-100380801D01*
X185826399Y-100380801D02*
X168841836Y-100380801D01*
D24*
X162226504Y-104862080D02*
X162350772Y-104862080D01*
X162742936Y-104534203D02*
X163227869Y-104534203D01*
X162350772Y-104862080D02*
X162678649Y-104534203D01*
X161190316Y-105424000D02*
X161664583Y-105424000D01*
X161664583Y-105424000D02*
X162226504Y-104862080D01*
X162678649Y-104534203D02*
X162742936Y-104534203D01*
X163211581Y-103860578D02*
X163321389Y-103970386D01*
X162224516Y-104557269D02*
X162614486Y-104167299D01*
X162100248Y-104557269D02*
X162224516Y-104557269D01*
X162738735Y-104167299D02*
X163045456Y-103860578D01*
X162614486Y-104167299D02*
X162738735Y-104167299D01*
X161633515Y-105024000D02*
X162100248Y-104557269D01*
X161190316Y-105024000D02*
X161633515Y-105024000D01*
X163045456Y-103860578D02*
X163211581Y-103860578D01*
X163321389Y-103970386D02*
X165464356Y-103970386D01*
X165464356Y-103970386D02*
X165482531Y-103952211D01*
X165482531Y-103952211D02*
X165967464Y-103952211D01*
D23*
X186944000Y-101803200D02*
X185521601Y-103225599D01*
X185521601Y-103225599D02*
X167179009Y-103225599D01*
X167179009Y-103225599D02*
X166452397Y-103952211D01*
X166452397Y-103952211D02*
X165967464Y-103952211D01*
D24*
X162404148Y-105673578D02*
X162889081Y-105673578D01*
X161726717Y-106224000D02*
X162277139Y-105673578D01*
X162277139Y-105673578D02*
X162404148Y-105673578D01*
X161190316Y-106224000D02*
X161726717Y-106224000D01*
X165487076Y-105105705D02*
X165504369Y-105122998D01*
X162745882Y-104898039D02*
X162953548Y-105105705D01*
X162953548Y-105105705D02*
X165487076Y-105105705D01*
X162352760Y-105166891D02*
X162477028Y-105166891D01*
X161695650Y-105824000D02*
X162352760Y-105166891D01*
X162477028Y-105166891D02*
X162745882Y-104898039D01*
X161190316Y-105824000D02*
X161695650Y-105824000D01*
D23*
X165847268Y-105465897D02*
X165504369Y-105122998D01*
X186944000Y-104343200D02*
X185821303Y-105465897D01*
X185821303Y-105465897D02*
X165847268Y-105465897D01*
X184404000Y-111963200D02*
X183219393Y-110778593D01*
D24*
X162801671Y-111101653D02*
X162962899Y-110940427D01*
X161190316Y-110176401D02*
X161695655Y-110176401D01*
X162962899Y-110940427D02*
X165133096Y-110940427D01*
D23*
X183219393Y-110778593D02*
X165779863Y-110778593D01*
D24*
X162542551Y-110842533D02*
X162801671Y-111101653D01*
X165133096Y-110940427D02*
X165294930Y-110778593D01*
D23*
X165779863Y-110778593D02*
X165294930Y-110778593D01*
D24*
X161695655Y-110176401D02*
X162361787Y-110842533D01*
X162361787Y-110842533D02*
X162542551Y-110842533D01*
X162333390Y-110372718D02*
X162412074Y-110372718D01*
X162412074Y-110372718D02*
X162897007Y-110372718D01*
X161737073Y-109776401D02*
X162333390Y-110372718D01*
X161190316Y-109776401D02*
X161737073Y-109776401D01*
X162671126Y-111833243D02*
X162676949Y-111833243D01*
X162676949Y-111833243D02*
X162853527Y-112010009D01*
X162853527Y-112010009D02*
X162933740Y-112090222D01*
X161633517Y-110976401D02*
X162109271Y-111452155D01*
X165068634Y-111972414D02*
X165553567Y-111972414D01*
X163341510Y-112076848D02*
X164964200Y-112076848D01*
X162109271Y-111452155D02*
X162290038Y-111452155D01*
D23*
X184404000Y-114503200D02*
X181873214Y-111972414D01*
X181873214Y-111972414D02*
X166038500Y-111972414D01*
X166038500Y-111972414D02*
X165553567Y-111972414D01*
D24*
X163328136Y-112090222D02*
X163341510Y-112076848D01*
X162290038Y-111452155D02*
X162671126Y-111833243D01*
X161190316Y-110976401D02*
X161633517Y-110976401D01*
X162933740Y-112090222D02*
X163328136Y-112090222D01*
X164964200Y-112076848D02*
X165068634Y-111972414D01*
X161190316Y-110576401D02*
X161664583Y-110576401D01*
X162235526Y-111147344D02*
X162416295Y-111147344D01*
X162416295Y-111147344D02*
X162783935Y-111514984D01*
X161664583Y-110576401D02*
X162235526Y-111147344D01*
X162783935Y-111514984D02*
X163236900Y-111514984D01*
X165278508Y-113233200D02*
X165345473Y-113166235D01*
D23*
X184404000Y-117043200D02*
X180527035Y-113166235D01*
D24*
X165345473Y-113166235D02*
X165830406Y-113166235D01*
X163319985Y-113137335D02*
X163415850Y-113233200D01*
X162424112Y-112442728D02*
X162987719Y-113006338D01*
X163141859Y-113137335D02*
X163319985Y-113137335D01*
X161856759Y-112061777D02*
X162037527Y-112061777D01*
X161571383Y-111776401D02*
X161856759Y-112061777D01*
X161190316Y-111776401D02*
X161571383Y-111776401D01*
X163415850Y-113233200D02*
X165278508Y-113233200D01*
X162037527Y-112061777D02*
X162418475Y-112442725D01*
X162418475Y-112442725D02*
X162424112Y-112442728D01*
X162987719Y-113006338D02*
X163141859Y-113137335D01*
D23*
X180527035Y-113166235D02*
X166315339Y-113166235D01*
X166315339Y-113166235D02*
X165830406Y-113166235D01*
D24*
X162544729Y-112137913D02*
X162550364Y-112137913D01*
X163150262Y-112660600D02*
X163635195Y-112660600D01*
X163073051Y-112660600D02*
X163150262Y-112660600D01*
X162163782Y-111756966D02*
X162544729Y-112137913D01*
X161983015Y-111756966D02*
X162163782Y-111756966D01*
X161602450Y-111376401D02*
X161983015Y-111756966D01*
X161190316Y-111376401D02*
X161602450Y-111376401D01*
X162550364Y-112137913D02*
X163073051Y-112660600D01*
D23*
X166943859Y-114417146D02*
X166458926Y-114417146D01*
X164885601Y-114417146D02*
X165973993Y-114417146D01*
X164700097Y-114231642D02*
X164885601Y-114417146D01*
X184404000Y-119583200D02*
X179237946Y-114417146D01*
X165973993Y-114417146D02*
X166458926Y-114417146D01*
X179237946Y-114417146D02*
X166943859Y-114417146D01*
D24*
X161285314Y-112671399D02*
X161785014Y-112671399D01*
X164013697Y-114389939D02*
X164541800Y-114389939D01*
X163067474Y-113746957D02*
X163716222Y-114395705D01*
X161785014Y-112671399D02*
X162165961Y-113052346D01*
X163716222Y-114395705D02*
X164007931Y-114395705D01*
X162165961Y-113052346D02*
X162171596Y-113052346D01*
X162574120Y-113454873D02*
X162917809Y-113746957D01*
X164541800Y-114389939D02*
X164700097Y-114231642D01*
X164007931Y-114395705D02*
X164013697Y-114389939D01*
X162917809Y-113746957D02*
X163067474Y-113746957D01*
X161190316Y-112576401D02*
X161285314Y-112671399D01*
X162171596Y-113052346D02*
X162574120Y-113454873D01*
X163029834Y-113442146D02*
X163193731Y-113442146D01*
X163571811Y-113820226D02*
X163948994Y-113820226D01*
X163193731Y-113442146D02*
X163571811Y-113820226D01*
X162297854Y-112747537D02*
X162780919Y-113230605D01*
X162292217Y-112747535D02*
X162297854Y-112747537D01*
X161911270Y-112366588D02*
X162292217Y-112747535D01*
X161540316Y-112176401D02*
X161730503Y-112366588D01*
X161190316Y-112176401D02*
X161540316Y-112176401D01*
X162780919Y-113230605D02*
X163029834Y-113442146D01*
X161730503Y-112366588D02*
X161911270Y-112366588D01*
X162314675Y-114034418D02*
X162693761Y-114356579D01*
X163773016Y-115273797D02*
X164012382Y-115477222D01*
X164141130Y-115577507D02*
X165315342Y-115577507D01*
X162814961Y-114356579D02*
X163501071Y-115042689D01*
X164040845Y-115477222D02*
X164141130Y-115577507D01*
X164012382Y-115477222D02*
X164040845Y-115477222D01*
X163773011Y-115273798D02*
X163773016Y-115273797D01*
X162693761Y-114356579D02*
X162814961Y-114356579D01*
X162160528Y-113903414D02*
X162314675Y-114034418D01*
X161919085Y-113661971D02*
X162160528Y-113903414D01*
X161876428Y-113661971D02*
X161919085Y-113661971D01*
X161590858Y-113376401D02*
X161876428Y-113661971D01*
X161190316Y-113376401D02*
X161590858Y-113376401D01*
X165315342Y-115577507D02*
X165800275Y-115577507D01*
X163501071Y-115042689D02*
X163773011Y-115273798D01*
D23*
X177858307Y-115577507D02*
X166285208Y-115577507D01*
X184404000Y-122123200D02*
X177858307Y-115577507D01*
X166285208Y-115577507D02*
X165800275Y-115577507D01*
X164772952Y-114961441D02*
X164288019Y-114961441D01*
X166119807Y-114961441D02*
X164772952Y-114961441D01*
X166172413Y-115014047D02*
X166119807Y-114961441D01*
X166745439Y-115014047D02*
X166172413Y-115014047D01*
X166798045Y-114961441D02*
X166745439Y-115014047D01*
X184172349Y-121005599D02*
X178128191Y-114961441D01*
X185826399Y-121005599D02*
X184172349Y-121005599D01*
X178128191Y-114961441D02*
X166798045Y-114961441D01*
X186944000Y-122123200D02*
X185826399Y-121005599D01*
D24*
X163874194Y-114959773D02*
X164286351Y-114959773D01*
X161190316Y-112976401D02*
X161658950Y-112976401D01*
X164286351Y-114959773D02*
X164288019Y-114961441D01*
X163707884Y-114818433D02*
X163874194Y-114959773D01*
X162805785Y-114051768D02*
X162941219Y-114051768D01*
X162534952Y-113821604D02*
X162805785Y-114051768D01*
X162367318Y-113679138D02*
X162534952Y-113821604D01*
X162039706Y-113357157D02*
X162045340Y-113357157D01*
X162941219Y-114051768D02*
X163707884Y-114818433D01*
X162045340Y-113357157D02*
X162367318Y-113679138D01*
X161658950Y-112976401D02*
X162039706Y-113357157D01*
X161652324Y-114271590D02*
X161666572Y-114271590D01*
X161540316Y-114176401D02*
X161652324Y-114271590D01*
X162562451Y-114966201D02*
X163087499Y-115491249D01*
X163788332Y-116086842D02*
X163996455Y-116294965D01*
X163087499Y-115491249D02*
X163788332Y-116086842D01*
X161843858Y-114434324D02*
X162469717Y-114966201D01*
X161829306Y-114434324D02*
X161843858Y-114434324D01*
X161666572Y-114271590D02*
X161829306Y-114434324D01*
X163996455Y-116294965D02*
X163996455Y-116715567D01*
X161190316Y-114176401D02*
X161540316Y-114176401D01*
X162469717Y-114966201D02*
X162562451Y-114966201D01*
D23*
X173736000Y-122224800D02*
X173736000Y-121158000D01*
X169534876Y-116956876D02*
X164722697Y-116956876D01*
X173736000Y-121158000D02*
X169534876Y-116956876D01*
X164481388Y-116715567D02*
X163996455Y-116715567D01*
X164722697Y-116956876D02*
X164481388Y-116715567D01*
D24*
X161792828Y-113966780D02*
X161953748Y-114127700D01*
X162581739Y-114661390D02*
X162688708Y-114661392D01*
X163460607Y-115408318D02*
X164081926Y-115936337D01*
X162040532Y-114201453D02*
X162581739Y-114661390D01*
X161190316Y-113776401D02*
X161276292Y-113862377D01*
X161276292Y-113862377D02*
X161641498Y-113862377D01*
X161641498Y-113862377D02*
X161764346Y-113966779D01*
X161764346Y-113966779D02*
X161792828Y-113966780D01*
X162688708Y-114661392D02*
X163294285Y-115266969D01*
X163294285Y-115266969D02*
X163460607Y-115408318D01*
X164081926Y-115936337D02*
X164398051Y-116252462D01*
X161953748Y-114127700D02*
X162040532Y-114201453D01*
X164398051Y-116252462D02*
X164453897Y-116252462D01*
D23*
X164561391Y-116359956D02*
X165014719Y-116359956D01*
X173736000Y-124764800D02*
X174853601Y-123647199D01*
X164453897Y-116252462D02*
X164561391Y-116359956D01*
X165984585Y-116359956D02*
X165499652Y-116359956D01*
X170055558Y-116359956D02*
X165984585Y-116359956D01*
X174853601Y-121157999D02*
X170055558Y-116359956D01*
X174853601Y-123647199D02*
X174853601Y-121157999D01*
X165014719Y-116359956D02*
X165499652Y-116359956D01*
X162796702Y-117211131D02*
X162453803Y-116868232D01*
X166639298Y-117668098D02*
X163253669Y-117668098D01*
D24*
X162245669Y-115575823D02*
X162309939Y-115575823D01*
X162606603Y-116715432D02*
X162453803Y-116868232D01*
X162309939Y-115575823D02*
X162606603Y-115872487D01*
X161641496Y-115062376D02*
X162245669Y-115575823D01*
X161190316Y-114976401D02*
X161276291Y-115062376D01*
X161276291Y-115062376D02*
X161641496Y-115062376D01*
X162606603Y-115872487D02*
X162606603Y-116715432D01*
D23*
X163253669Y-117668098D02*
X162796702Y-117211131D01*
X171196000Y-122224800D02*
X166639298Y-117668098D01*
X163559310Y-117312487D02*
X163178105Y-116931282D01*
X168823687Y-117312487D02*
X163559310Y-117312487D01*
D24*
X163178105Y-116012922D02*
X163178105Y-116446349D01*
D23*
X172313601Y-123647199D02*
X172313601Y-120802401D01*
D24*
X161712265Y-114748350D02*
X161742677Y-114748350D01*
X161742677Y-114748350D02*
X162357693Y-115271012D01*
X161190316Y-114576401D02*
X161540316Y-114576401D01*
X161540316Y-114576401D02*
X161712265Y-114748350D01*
D23*
X171196000Y-124764800D02*
X172313601Y-123647199D01*
D24*
X162436195Y-115271012D02*
X163178105Y-116012922D01*
X162357693Y-115271012D02*
X162436195Y-115271012D01*
D23*
X163178105Y-116931282D02*
X163178105Y-116446349D01*
X172313601Y-120802401D02*
X168823687Y-117312487D01*
X161045015Y-117430434D02*
X165839381Y-122224800D01*
X161045015Y-116945501D02*
X161045015Y-117430434D01*
X165839381Y-122224800D02*
X167434686Y-122224800D01*
X167434686Y-122224800D02*
X168656000Y-122224800D01*
D24*
X161045015Y-115800200D02*
X161045015Y-116945501D01*
X162033213Y-115869298D02*
X162033213Y-116143179D01*
X161540316Y-115376401D02*
X162033213Y-115869298D01*
D23*
X161690314Y-117572825D02*
X161690314Y-116486078D01*
X169773601Y-121615201D02*
X166182109Y-118023709D01*
X162141198Y-118023709D02*
X161690314Y-117572825D01*
X169773601Y-123647199D02*
X169773601Y-121615201D01*
D24*
X161190316Y-115376401D02*
X161540316Y-115376401D01*
D23*
X166182109Y-118023709D02*
X162141198Y-118023709D01*
X168656000Y-124764800D02*
X169773601Y-123647199D01*
X161690314Y-116486078D02*
X162033213Y-116143179D01*
D24*
X158255617Y-99054899D02*
X158255617Y-100054383D01*
X158255617Y-100054383D02*
X158110000Y-100200000D01*
D23*
X158255617Y-99054899D02*
X157244899Y-99054899D01*
X157244899Y-99054899D02*
X155800211Y-97610211D01*
X155800211Y-97610211D02*
X154853223Y-97610211D01*
X151492400Y-91548400D02*
X151384000Y-91440000D01*
X154853223Y-97610211D02*
X154403288Y-97160276D01*
X154403288Y-97160276D02*
X154403288Y-96981718D01*
X153631570Y-96210000D02*
X153631570Y-94798370D01*
X154403288Y-96981718D02*
X153631570Y-96210000D01*
X153631570Y-94798370D02*
X151492400Y-92659200D01*
X151492400Y-92659200D02*
X151492400Y-91548400D01*
D24*
X156997647Y-100007647D02*
X157590000Y-100600000D01*
X157590000Y-100600000D02*
X158110000Y-100600000D01*
X156653893Y-99385946D02*
X156653893Y-99492545D01*
X156653893Y-99492545D02*
X156997647Y-99836299D01*
X156997647Y-99836299D02*
X156997647Y-100007647D01*
D23*
X148844000Y-91440000D02*
X148844000Y-91592400D01*
X148844000Y-91592400D02*
X148510000Y-91926400D01*
X148510000Y-91926400D02*
X148510000Y-94670000D01*
X148510000Y-94670000D02*
X151147574Y-97307574D01*
X154047677Y-97307574D02*
X154705925Y-97965822D01*
X151147574Y-97307574D02*
X154047677Y-97307574D01*
X154705925Y-97965822D02*
X155233769Y-97965822D01*
X155233769Y-97965822D02*
X156310994Y-99043047D01*
X156310994Y-99043047D02*
X156653893Y-99385946D01*
D24*
X154801664Y-98798319D02*
X155964848Y-99961503D01*
X155964848Y-99961503D02*
X156271503Y-99961503D01*
X156271503Y-99961503D02*
X157310000Y-101000000D01*
X157310000Y-101000000D02*
X158110000Y-101000000D01*
D23*
X151212747Y-98202747D02*
X147421610Y-94411610D01*
X147421610Y-94411610D02*
X147421610Y-92710010D01*
X154458765Y-98455420D02*
X154355686Y-98455420D01*
X154355686Y-98455420D02*
X154103013Y-98202747D01*
X154103013Y-98202747D02*
X151212747Y-98202747D01*
X154458765Y-98455420D02*
X154801664Y-98798319D01*
X146304000Y-91592400D02*
X147421610Y-92710010D01*
X146304000Y-91440000D02*
X146304000Y-91592400D01*
D24*
X153817718Y-98797108D02*
X154719605Y-99698995D01*
X155226170Y-99698995D02*
X155793489Y-100266314D01*
X154719605Y-99698995D02*
X155226170Y-99698995D01*
X155793489Y-100266314D02*
X156096314Y-100266314D01*
X156096314Y-100266314D02*
X157230000Y-101400000D01*
X157230000Y-101400000D02*
X158110000Y-101400000D01*
D23*
X143764000Y-91440000D02*
X143764000Y-91592400D01*
X143764000Y-91592400D02*
X150843461Y-98671861D01*
X153692471Y-98671861D02*
X153817718Y-98797108D01*
X150843461Y-98671861D02*
X153692471Y-98671861D01*
X149184826Y-99553226D02*
X145541600Y-95910000D01*
X145541600Y-95910000D02*
X141200000Y-95910000D01*
X152639864Y-99268763D02*
X153124797Y-99268763D01*
X149184826Y-99553226D02*
X152355401Y-99553226D01*
X152355401Y-99553226D02*
X152639864Y-99268763D01*
X134600000Y-125200000D02*
X137922000Y-121878000D01*
X137922000Y-121878000D02*
X137922000Y-119362400D01*
X129970000Y-125200000D02*
X134600000Y-125200000D01*
X129420500Y-124650500D02*
X129970000Y-125200000D01*
X127000000Y-124650500D02*
X129420500Y-124650500D01*
X124000000Y-124663200D02*
X124601980Y-124663200D01*
X124601980Y-124663200D02*
X125460499Y-123804681D01*
X125460499Y-123804681D02*
X127835319Y-123804681D01*
X127835319Y-123804681D02*
X133390000Y-118250000D01*
X140620000Y-119240000D02*
X140620000Y-119390000D01*
X133390000Y-118250000D02*
X139630000Y-118250000D01*
X139630000Y-118250000D02*
X140620000Y-119240000D01*
X121000000Y-124749300D02*
X123370000Y-122379300D01*
X123370000Y-122379300D02*
X123370000Y-120920000D01*
X123370000Y-120920000D02*
X128966901Y-115323099D01*
X128966901Y-115323099D02*
X141213099Y-115323099D01*
X141213099Y-115323099D02*
X141970000Y-116080000D01*
X141970000Y-116080000D02*
X141970000Y-117959600D01*
X141970000Y-117959600D02*
X143256000Y-119245600D01*
X143256000Y-119245600D02*
X143256000Y-119395600D01*
X141224000Y-91440000D02*
X141224000Y-93686000D01*
X141224000Y-93686000D02*
X141200000Y-93710000D01*
X141224000Y-91440000D02*
X141224000Y-91592400D01*
D24*
X138600000Y-93700000D02*
X138600000Y-91524000D01*
X138600000Y-91524000D02*
X138684000Y-91440000D01*
M02*
