G04 #@! TF.FileFunction,Legend,Bot*
%FSLAX46Y46*%
G04 Gerber Fmt 4.6, Leading zero omitted, Abs format (unit mm)*
G04 Created by KiCad (PCBNEW (2015-11-03 BZR 6296)-product) date Monday, December 21, 2015 'AMt' 11:09:52 AM*
%MOMM*%
G01*
G04 APERTURE LIST*
%ADD10C,0.100000*%
%ADD11C,0.175000*%
%ADD12C,0.300000*%
%ADD13C,0.200000*%
%ADD14C,0.150000*%
G04 APERTURE END LIST*
D10*
D11*
X127045238Y-122452381D02*
X127045238Y-123261905D01*
X126997619Y-123357143D01*
X126950000Y-123404762D01*
X126854762Y-123452381D01*
X126664285Y-123452381D01*
X126569047Y-123404762D01*
X126521428Y-123357143D01*
X126473809Y-123261905D01*
X126473809Y-122452381D01*
X126045238Y-123166667D02*
X125569047Y-123166667D01*
X126140476Y-123452381D02*
X125807143Y-122452381D01*
X125473809Y-123452381D01*
X124569047Y-123452381D02*
X124902381Y-122976190D01*
X125140476Y-123452381D02*
X125140476Y-122452381D01*
X124759523Y-122452381D01*
X124664285Y-122500000D01*
X124616666Y-122547619D01*
X124569047Y-122642857D01*
X124569047Y-122785714D01*
X124616666Y-122880952D01*
X124664285Y-122928571D01*
X124759523Y-122976190D01*
X125140476Y-122976190D01*
X124283333Y-122452381D02*
X123711904Y-122452381D01*
X123997619Y-123452381D02*
X123997619Y-122452381D01*
X172575238Y-101572381D02*
X172003809Y-101572381D01*
X172289524Y-102572381D02*
X172289524Y-101572381D01*
X171670476Y-102572381D02*
X171670476Y-101572381D01*
X171194286Y-102572381D02*
X171194286Y-101572381D01*
X170860952Y-102286667D01*
X170527619Y-101572381D01*
X170527619Y-102572381D01*
X169527619Y-101620000D02*
X169622857Y-101572381D01*
X169765714Y-101572381D01*
X169908572Y-101620000D01*
X170003810Y-101715238D01*
X170051429Y-101810476D01*
X170099048Y-102000952D01*
X170099048Y-102143810D01*
X170051429Y-102334286D01*
X170003810Y-102429524D01*
X169908572Y-102524762D01*
X169765714Y-102572381D01*
X169670476Y-102572381D01*
X169527619Y-102524762D01*
X169480000Y-102477143D01*
X169480000Y-102143810D01*
X169670476Y-102143810D01*
X180545238Y-91042381D02*
X179973809Y-91042381D01*
X180259524Y-92042381D02*
X180259524Y-91042381D01*
X179640476Y-92042381D02*
X179640476Y-91042381D01*
X179164286Y-92042381D02*
X179164286Y-91042381D01*
X178830952Y-91756667D01*
X178497619Y-91042381D01*
X178497619Y-92042381D01*
X177497619Y-91090000D02*
X177592857Y-91042381D01*
X177735714Y-91042381D01*
X177878572Y-91090000D01*
X177973810Y-91185238D01*
X178021429Y-91280476D01*
X178069048Y-91470952D01*
X178069048Y-91613810D01*
X178021429Y-91804286D01*
X177973810Y-91899524D01*
X177878572Y-91994762D01*
X177735714Y-92042381D01*
X177640476Y-92042381D01*
X177497619Y-91994762D01*
X177450000Y-91947143D01*
X177450000Y-91613810D01*
X177640476Y-91613810D01*
X175236667Y-95531905D02*
X175236667Y-96008096D01*
X175522381Y-95436667D02*
X174522381Y-95770000D01*
X175522381Y-96103334D01*
X175522381Y-96436667D02*
X174522381Y-96436667D01*
X174522381Y-96674762D01*
X174570000Y-96817620D01*
X174665238Y-96912858D01*
X174760476Y-96960477D01*
X174950952Y-97008096D01*
X175093810Y-97008096D01*
X175284286Y-96960477D01*
X175379524Y-96912858D01*
X175474762Y-96817620D01*
X175522381Y-96674762D01*
X175522381Y-96436667D01*
X175427143Y-98008096D02*
X175474762Y-97960477D01*
X175522381Y-97817620D01*
X175522381Y-97722382D01*
X175474762Y-97579524D01*
X175379524Y-97484286D01*
X175284286Y-97436667D01*
X175093810Y-97389048D01*
X174950952Y-97389048D01*
X174760476Y-97436667D01*
X174665238Y-97484286D01*
X174570000Y-97579524D01*
X174522381Y-97722382D01*
X174522381Y-97817620D01*
X174570000Y-97960477D01*
X174617619Y-98008096D01*
X175484762Y-99401429D02*
X175532381Y-99544286D01*
X175532381Y-99782382D01*
X175484762Y-99877620D01*
X175437143Y-99925239D01*
X175341905Y-99972858D01*
X175246667Y-99972858D01*
X175151429Y-99925239D01*
X175103810Y-99877620D01*
X175056190Y-99782382D01*
X175008571Y-99591905D01*
X174960952Y-99496667D01*
X174913333Y-99449048D01*
X174818095Y-99401429D01*
X174722857Y-99401429D01*
X174627619Y-99449048D01*
X174580000Y-99496667D01*
X174532381Y-99591905D01*
X174532381Y-99830001D01*
X174580000Y-99972858D01*
X175532381Y-100401429D02*
X174532381Y-100401429D01*
X174532381Y-100639524D01*
X174580000Y-100782382D01*
X174675238Y-100877620D01*
X174770476Y-100925239D01*
X174960952Y-100972858D01*
X175103810Y-100972858D01*
X175294286Y-100925239D01*
X175389524Y-100877620D01*
X175484762Y-100782382D01*
X175532381Y-100639524D01*
X175532381Y-100401429D01*
X175532381Y-101401429D02*
X174532381Y-101401429D01*
X175246667Y-101734763D01*
X174532381Y-102068096D01*
X175532381Y-102068096D01*
X175532381Y-102544286D02*
X174532381Y-102544286D01*
X175246667Y-102877620D01*
X174532381Y-103210953D01*
X175532381Y-103210953D01*
X175437143Y-104258572D02*
X175484762Y-104210953D01*
X175532381Y-104068096D01*
X175532381Y-103972858D01*
X175484762Y-103830000D01*
X175389524Y-103734762D01*
X175294286Y-103687143D01*
X175103810Y-103639524D01*
X174960952Y-103639524D01*
X174770476Y-103687143D01*
X174675238Y-103734762D01*
X174580000Y-103830000D01*
X174532381Y-103972858D01*
X174532381Y-104068096D01*
X174580000Y-104210953D01*
X174627619Y-104258572D01*
X175587143Y-114027143D02*
X175634762Y-113979524D01*
X175682381Y-113836667D01*
X175682381Y-113741429D01*
X175634762Y-113598571D01*
X175539524Y-113503333D01*
X175444286Y-113455714D01*
X175253810Y-113408095D01*
X175110952Y-113408095D01*
X174920476Y-113455714D01*
X174825238Y-113503333D01*
X174730000Y-113598571D01*
X174682381Y-113741429D01*
X174682381Y-113836667D01*
X174730000Y-113979524D01*
X174777619Y-114027143D01*
X175396667Y-114408095D02*
X175396667Y-114884286D01*
X175682381Y-114312857D02*
X174682381Y-114646190D01*
X175682381Y-114979524D01*
X175682381Y-115312857D02*
X174682381Y-115312857D01*
X175682381Y-115884286D01*
X174682381Y-115884286D01*
X179953809Y-124574762D02*
X179810952Y-124622381D01*
X179572856Y-124622381D01*
X179477618Y-124574762D01*
X179429999Y-124527143D01*
X179382380Y-124431905D01*
X179382380Y-124336667D01*
X179429999Y-124241429D01*
X179477618Y-124193810D01*
X179572856Y-124146190D01*
X179763333Y-124098571D01*
X179858571Y-124050952D01*
X179906190Y-124003333D01*
X179953809Y-123908095D01*
X179953809Y-123812857D01*
X179906190Y-123717619D01*
X179858571Y-123670000D01*
X179763333Y-123622381D01*
X179525237Y-123622381D01*
X179382380Y-123670000D01*
X178953809Y-124622381D02*
X178953809Y-123622381D01*
X178572856Y-123622381D01*
X178477618Y-123670000D01*
X178429999Y-123717619D01*
X178382380Y-123812857D01*
X178382380Y-123955714D01*
X178429999Y-124050952D01*
X178477618Y-124098571D01*
X178572856Y-124146190D01*
X178953809Y-124146190D01*
X177953809Y-124622381D02*
X177953809Y-123622381D01*
X172283809Y-113904762D02*
X172140952Y-113952381D01*
X171902856Y-113952381D01*
X171807618Y-113904762D01*
X171759999Y-113857143D01*
X171712380Y-113761905D01*
X171712380Y-113666667D01*
X171759999Y-113571429D01*
X171807618Y-113523810D01*
X171902856Y-113476190D01*
X172093333Y-113428571D01*
X172188571Y-113380952D01*
X172236190Y-113333333D01*
X172283809Y-113238095D01*
X172283809Y-113142857D01*
X172236190Y-113047619D01*
X172188571Y-113000000D01*
X172093333Y-112952381D01*
X171855237Y-112952381D01*
X171712380Y-113000000D01*
X171283809Y-113952381D02*
X171283809Y-112952381D01*
X170902856Y-112952381D01*
X170807618Y-113000000D01*
X170759999Y-113047619D01*
X170712380Y-113142857D01*
X170712380Y-113285714D01*
X170759999Y-113380952D01*
X170807618Y-113428571D01*
X170902856Y-113476190D01*
X171283809Y-113476190D01*
X170283809Y-113952381D02*
X170283809Y-112952381D01*
X166704762Y-122356191D02*
X166752381Y-122499048D01*
X166752381Y-122737144D01*
X166704762Y-122832382D01*
X166657143Y-122880001D01*
X166561905Y-122927620D01*
X166466667Y-122927620D01*
X166371429Y-122880001D01*
X166323810Y-122832382D01*
X166276190Y-122737144D01*
X166228571Y-122546667D01*
X166180952Y-122451429D01*
X166133333Y-122403810D01*
X166038095Y-122356191D01*
X165942857Y-122356191D01*
X165847619Y-122403810D01*
X165800000Y-122451429D01*
X165752381Y-122546667D01*
X165752381Y-122784763D01*
X165800000Y-122927620D01*
X166752381Y-123356191D02*
X165752381Y-123356191D01*
X165752381Y-123737144D01*
X165800000Y-123832382D01*
X165847619Y-123880001D01*
X165942857Y-123927620D01*
X166085714Y-123927620D01*
X166180952Y-123880001D01*
X166228571Y-123832382D01*
X166276190Y-123737144D01*
X166276190Y-123356191D01*
X166752381Y-124356191D02*
X165752381Y-124356191D01*
X159052381Y-120894762D02*
X159861905Y-120894762D01*
X159957143Y-120942381D01*
X160004762Y-120990000D01*
X160052381Y-121085238D01*
X160052381Y-121275715D01*
X160004762Y-121370953D01*
X159957143Y-121418572D01*
X159861905Y-121466191D01*
X159052381Y-121466191D01*
X159766667Y-121894762D02*
X159766667Y-122370953D01*
X160052381Y-121799524D02*
X159052381Y-122132857D01*
X160052381Y-122466191D01*
X160052381Y-123370953D02*
X159576190Y-123037619D01*
X160052381Y-122799524D02*
X159052381Y-122799524D01*
X159052381Y-123180477D01*
X159100000Y-123275715D01*
X159147619Y-123323334D01*
X159242857Y-123370953D01*
X159385714Y-123370953D01*
X159480952Y-123323334D01*
X159528571Y-123275715D01*
X159576190Y-123180477D01*
X159576190Y-122799524D01*
X159052381Y-123656667D02*
X159052381Y-124228096D01*
X160052381Y-123942381D02*
X159052381Y-123942381D01*
X136562381Y-120934762D02*
X137371905Y-120934762D01*
X137467143Y-120982381D01*
X137514762Y-121030000D01*
X137562381Y-121125238D01*
X137562381Y-121315715D01*
X137514762Y-121410953D01*
X137467143Y-121458572D01*
X137371905Y-121506191D01*
X136562381Y-121506191D01*
X137276667Y-121934762D02*
X137276667Y-122410953D01*
X137562381Y-121839524D02*
X136562381Y-122172857D01*
X137562381Y-122506191D01*
X137562381Y-123410953D02*
X137086190Y-123077619D01*
X137562381Y-122839524D02*
X136562381Y-122839524D01*
X136562381Y-123220477D01*
X136610000Y-123315715D01*
X136657619Y-123363334D01*
X136752857Y-123410953D01*
X136895714Y-123410953D01*
X136990952Y-123363334D01*
X137038571Y-123315715D01*
X137086190Y-123220477D01*
X137086190Y-122839524D01*
X136562381Y-123696667D02*
X136562381Y-124268096D01*
X137562381Y-123982381D02*
X136562381Y-123982381D01*
X129502381Y-115104762D02*
X130311905Y-115104762D01*
X130407143Y-115152381D01*
X130454762Y-115200000D01*
X130502381Y-115295238D01*
X130502381Y-115485715D01*
X130454762Y-115580953D01*
X130407143Y-115628572D01*
X130311905Y-115676191D01*
X129502381Y-115676191D01*
X130216667Y-116104762D02*
X130216667Y-116580953D01*
X130502381Y-116009524D02*
X129502381Y-116342857D01*
X130502381Y-116676191D01*
X130502381Y-117580953D02*
X130026190Y-117247619D01*
X130502381Y-117009524D02*
X129502381Y-117009524D01*
X129502381Y-117390477D01*
X129550000Y-117485715D01*
X129597619Y-117533334D01*
X129692857Y-117580953D01*
X129835714Y-117580953D01*
X129930952Y-117533334D01*
X129978571Y-117485715D01*
X130026190Y-117390477D01*
X130026190Y-117009524D01*
X129502381Y-117866667D02*
X129502381Y-118438096D01*
X130502381Y-118152381D02*
X129502381Y-118152381D01*
X148705238Y-95302381D02*
X148133809Y-95302381D01*
X148419524Y-96302381D02*
X148419524Y-95302381D01*
X147800476Y-96302381D02*
X147800476Y-95302381D01*
X147324286Y-96302381D02*
X147324286Y-95302381D01*
X146990952Y-96016667D01*
X146657619Y-95302381D01*
X146657619Y-96302381D01*
X140929999Y-95320000D02*
X141025237Y-95272381D01*
X141168094Y-95272381D01*
X141310952Y-95320000D01*
X141406190Y-95415238D01*
X141453809Y-95510476D01*
X141501428Y-95700952D01*
X141501428Y-95843810D01*
X141453809Y-96034286D01*
X141406190Y-96129524D01*
X141310952Y-96224762D01*
X141168094Y-96272381D01*
X141072856Y-96272381D01*
X140929999Y-96224762D01*
X140882380Y-96177143D01*
X140882380Y-95843810D01*
X141072856Y-95843810D01*
X140453809Y-96272381D02*
X140453809Y-95272381D01*
X140072856Y-95272381D01*
X139977618Y-95320000D01*
X139929999Y-95367619D01*
X139882380Y-95462857D01*
X139882380Y-95605714D01*
X139929999Y-95700952D01*
X139977618Y-95748571D01*
X140072856Y-95796190D01*
X140453809Y-95796190D01*
X139453809Y-96272381D02*
X139453809Y-95272381D01*
X138787143Y-95272381D02*
X138596666Y-95272381D01*
X138501428Y-95320000D01*
X138406190Y-95415238D01*
X138358571Y-95605714D01*
X138358571Y-95939048D01*
X138406190Y-96129524D01*
X138501428Y-96224762D01*
X138596666Y-96272381D01*
X138787143Y-96272381D01*
X138882381Y-96224762D01*
X138977619Y-96129524D01*
X139025238Y-95939048D01*
X139025238Y-95605714D01*
X138977619Y-95415238D01*
X138882381Y-95320000D01*
X138787143Y-95272381D01*
X128620000Y-95430001D02*
X128572381Y-95334763D01*
X128572381Y-95191906D01*
X128620000Y-95049048D01*
X128715238Y-94953810D01*
X128810476Y-94906191D01*
X129000952Y-94858572D01*
X129143810Y-94858572D01*
X129334286Y-94906191D01*
X129429524Y-94953810D01*
X129524762Y-95049048D01*
X129572381Y-95191906D01*
X129572381Y-95287144D01*
X129524762Y-95430001D01*
X129477143Y-95477620D01*
X129143810Y-95477620D01*
X129143810Y-95287144D01*
X129572381Y-95906191D02*
X128572381Y-95906191D01*
X128572381Y-96287144D01*
X128620000Y-96382382D01*
X128667619Y-96430001D01*
X128762857Y-96477620D01*
X128905714Y-96477620D01*
X129000952Y-96430001D01*
X129048571Y-96382382D01*
X129096190Y-96287144D01*
X129096190Y-95906191D01*
X129572381Y-96906191D02*
X128572381Y-96906191D01*
X128572381Y-97572857D02*
X128572381Y-97763334D01*
X128620000Y-97858572D01*
X128715238Y-97953810D01*
X128905714Y-98001429D01*
X129239048Y-98001429D01*
X129429524Y-97953810D01*
X129524762Y-97858572D01*
X129572381Y-97763334D01*
X129572381Y-97572857D01*
X129524762Y-97477619D01*
X129429524Y-97382381D01*
X129239048Y-97334762D01*
X128905714Y-97334762D01*
X128715238Y-97382381D01*
X128620000Y-97477619D01*
X128572381Y-97572857D01*
D12*
X128727828Y-107853943D02*
X127584971Y-107853943D01*
X128156400Y-108425371D02*
X128156400Y-107282514D01*
X126370685Y-107639657D02*
X126156399Y-107711086D01*
X126084971Y-107782514D01*
X126013542Y-107925371D01*
X126013542Y-108139657D01*
X126084971Y-108282514D01*
X126156399Y-108353943D01*
X126299257Y-108425371D01*
X126870685Y-108425371D01*
X126870685Y-106925371D01*
X126370685Y-106925371D01*
X126227828Y-106996800D01*
X126156399Y-107068229D01*
X126084971Y-107211086D01*
X126084971Y-107353943D01*
X126156399Y-107496800D01*
X126227828Y-107568229D01*
X126370685Y-107639657D01*
X126870685Y-107639657D01*
X128513542Y-104334571D02*
X127584971Y-104334571D01*
X128084971Y-104906000D01*
X127870685Y-104906000D01*
X127727828Y-104977429D01*
X127656399Y-105048857D01*
X127584971Y-105191714D01*
X127584971Y-105548857D01*
X127656399Y-105691714D01*
X127727828Y-105763143D01*
X127870685Y-105834571D01*
X128299257Y-105834571D01*
X128442114Y-105763143D01*
X128513542Y-105691714D01*
X126227828Y-105834571D02*
X126942114Y-105834571D01*
X126942114Y-104334571D01*
D11*
X149872855Y-111080119D02*
X149872855Y-109980119D01*
X149872855Y-110503929D02*
X149244284Y-110503929D01*
X149244284Y-111080119D02*
X149244284Y-109980119D01*
X148301427Y-111027738D02*
X148406189Y-111080119D01*
X148615712Y-111080119D01*
X148720474Y-111027738D01*
X148772855Y-110922976D01*
X148772855Y-110503929D01*
X148720474Y-110399167D01*
X148615712Y-110346786D01*
X148406189Y-110346786D01*
X148301427Y-110399167D01*
X148249046Y-110503929D01*
X148249046Y-110608690D01*
X148772855Y-110713452D01*
X147777617Y-111080119D02*
X147777617Y-110346786D01*
X147777617Y-109980119D02*
X147829998Y-110032500D01*
X147777617Y-110084881D01*
X147725236Y-110032500D01*
X147777617Y-109980119D01*
X147777617Y-110084881D01*
X146782379Y-110346786D02*
X146782379Y-111237262D01*
X146834760Y-111342024D01*
X146887141Y-111394405D01*
X146991902Y-111446786D01*
X147149045Y-111446786D01*
X147253807Y-111394405D01*
X146782379Y-111027738D02*
X146887141Y-111080119D01*
X147096664Y-111080119D01*
X147201426Y-111027738D01*
X147253807Y-110975357D01*
X147306188Y-110870595D01*
X147306188Y-110556310D01*
X147253807Y-110451548D01*
X147201426Y-110399167D01*
X147096664Y-110346786D01*
X146887141Y-110346786D01*
X146782379Y-110399167D01*
X146258569Y-111080119D02*
X146258569Y-109980119D01*
X145787141Y-111080119D02*
X145787141Y-110503929D01*
X145839522Y-110399167D01*
X145944284Y-110346786D01*
X146101426Y-110346786D01*
X146206188Y-110399167D01*
X146258569Y-110451548D01*
X145420474Y-110346786D02*
X145001426Y-110346786D01*
X145263331Y-109980119D02*
X145263331Y-110922976D01*
X145210950Y-111027738D01*
X145106188Y-111080119D01*
X145001426Y-111080119D01*
X143796665Y-110346786D02*
X143796665Y-111446786D01*
X143796665Y-110399167D02*
X143691903Y-110346786D01*
X143482380Y-110346786D01*
X143377618Y-110399167D01*
X143325237Y-110451548D01*
X143272856Y-110556310D01*
X143272856Y-110870595D01*
X143325237Y-110975357D01*
X143377618Y-111027738D01*
X143482380Y-111080119D01*
X143691903Y-111080119D01*
X143796665Y-111027738D01*
X142329999Y-110346786D02*
X142329999Y-111080119D01*
X142801427Y-110346786D02*
X142801427Y-110922976D01*
X142749046Y-111027738D01*
X142644284Y-111080119D01*
X142487142Y-111080119D01*
X142382380Y-111027738D01*
X142329999Y-110975357D01*
X141649046Y-111080119D02*
X141753808Y-111027738D01*
X141806189Y-110922976D01*
X141806189Y-109980119D01*
X141072856Y-111080119D02*
X141177618Y-111027738D01*
X141229999Y-110922976D01*
X141229999Y-109980119D01*
X140234762Y-111027738D02*
X140339524Y-111080119D01*
X140549047Y-111080119D01*
X140653809Y-111027738D01*
X140706190Y-110922976D01*
X140706190Y-110503929D01*
X140653809Y-110399167D01*
X140549047Y-110346786D01*
X140339524Y-110346786D01*
X140234762Y-110399167D01*
X140182381Y-110503929D01*
X140182381Y-110608690D01*
X140706190Y-110713452D01*
X139239524Y-111080119D02*
X139239524Y-109980119D01*
X139239524Y-111027738D02*
X139344286Y-111080119D01*
X139553809Y-111080119D01*
X139658571Y-111027738D01*
X139710952Y-110975357D01*
X139763333Y-110870595D01*
X139763333Y-110556310D01*
X139710952Y-110451548D01*
X139658571Y-110399167D01*
X139553809Y-110346786D01*
X139344286Y-110346786D01*
X139239524Y-110399167D01*
X138034762Y-110346786D02*
X137615714Y-110346786D01*
X137877619Y-109980119D02*
X137877619Y-110922976D01*
X137825238Y-111027738D01*
X137720476Y-111080119D01*
X137615714Y-111080119D01*
X137091905Y-111080119D02*
X137196667Y-111027738D01*
X137249048Y-110975357D01*
X137301429Y-110870595D01*
X137301429Y-110556310D01*
X137249048Y-110451548D01*
X137196667Y-110399167D01*
X137091905Y-110346786D01*
X136934763Y-110346786D01*
X136830001Y-110399167D01*
X136777620Y-110451548D01*
X136725239Y-110556310D01*
X136725239Y-110870595D01*
X136777620Y-110975357D01*
X136830001Y-111027738D01*
X136934763Y-111080119D01*
X137091905Y-111080119D01*
X134839525Y-110032500D02*
X134944287Y-109980119D01*
X135101430Y-109980119D01*
X135258572Y-110032500D01*
X135363334Y-110137262D01*
X135415715Y-110242024D01*
X135468096Y-110451548D01*
X135468096Y-110608690D01*
X135415715Y-110818214D01*
X135363334Y-110922976D01*
X135258572Y-111027738D01*
X135101430Y-111080119D01*
X134996668Y-111080119D01*
X134839525Y-111027738D01*
X134787144Y-110975357D01*
X134787144Y-110608690D01*
X134996668Y-110608690D01*
X134315715Y-111080119D02*
X134315715Y-109980119D01*
X133687144Y-111080119D01*
X133687144Y-109980119D01*
X133163334Y-111080119D02*
X133163334Y-109980119D01*
X132901429Y-109980119D01*
X132744287Y-110032500D01*
X132639525Y-110137262D01*
X132587144Y-110242024D01*
X132534763Y-110451548D01*
X132534763Y-110608690D01*
X132587144Y-110818214D01*
X132639525Y-110922976D01*
X132744287Y-111027738D01*
X132901429Y-111080119D01*
X133163334Y-111080119D01*
X149296665Y-112061786D02*
X148877617Y-112061786D01*
X149139522Y-112795119D02*
X149139522Y-111852262D01*
X149087141Y-111747500D01*
X148982379Y-111695119D01*
X148877617Y-111695119D01*
X148353808Y-112795119D02*
X148458570Y-112742738D01*
X148510951Y-112690357D01*
X148563332Y-112585595D01*
X148563332Y-112271310D01*
X148510951Y-112166548D01*
X148458570Y-112114167D01*
X148353808Y-112061786D01*
X148196666Y-112061786D01*
X148091904Y-112114167D01*
X148039523Y-112166548D01*
X147987142Y-112271310D01*
X147987142Y-112585595D01*
X148039523Y-112690357D01*
X148091904Y-112742738D01*
X148196666Y-112795119D01*
X148353808Y-112795119D01*
X147515713Y-112795119D02*
X147515713Y-112061786D01*
X147515713Y-112271310D02*
X147463332Y-112166548D01*
X147410951Y-112114167D01*
X147306189Y-112061786D01*
X147201428Y-112061786D01*
X146049047Y-112742738D02*
X145944285Y-112795119D01*
X145734761Y-112795119D01*
X145630000Y-112742738D01*
X145577619Y-112637976D01*
X145577619Y-112585595D01*
X145630000Y-112480833D01*
X145734761Y-112428452D01*
X145891904Y-112428452D01*
X145996666Y-112376071D01*
X146049047Y-112271310D01*
X146049047Y-112218929D01*
X145996666Y-112114167D01*
X145891904Y-112061786D01*
X145734761Y-112061786D01*
X145630000Y-112114167D01*
X145263333Y-112061786D02*
X144844285Y-112061786D01*
X145106190Y-111695119D02*
X145106190Y-112637976D01*
X145053809Y-112742738D01*
X144949047Y-112795119D01*
X144844285Y-112795119D01*
X144006191Y-112795119D02*
X144006191Y-112218929D01*
X144058572Y-112114167D01*
X144163334Y-112061786D01*
X144372857Y-112061786D01*
X144477619Y-112114167D01*
X144006191Y-112742738D02*
X144110953Y-112795119D01*
X144372857Y-112795119D01*
X144477619Y-112742738D01*
X144530000Y-112637976D01*
X144530000Y-112533214D01*
X144477619Y-112428452D01*
X144372857Y-112376071D01*
X144110953Y-112376071D01*
X144006191Y-112323690D01*
X143482381Y-112061786D02*
X143482381Y-112795119D01*
X143482381Y-112166548D02*
X143430000Y-112114167D01*
X143325238Y-112061786D01*
X143168096Y-112061786D01*
X143063334Y-112114167D01*
X143010953Y-112218929D01*
X143010953Y-112795119D01*
X142015715Y-112795119D02*
X142015715Y-111695119D01*
X142015715Y-112742738D02*
X142120477Y-112795119D01*
X142330000Y-112795119D01*
X142434762Y-112742738D01*
X142487143Y-112690357D01*
X142539524Y-112585595D01*
X142539524Y-112271310D01*
X142487143Y-112166548D01*
X142434762Y-112114167D01*
X142330000Y-112061786D01*
X142120477Y-112061786D01*
X142015715Y-112114167D01*
X141020477Y-112795119D02*
X141020477Y-112218929D01*
X141072858Y-112114167D01*
X141177620Y-112061786D01*
X141387143Y-112061786D01*
X141491905Y-112114167D01*
X141020477Y-112742738D02*
X141125239Y-112795119D01*
X141387143Y-112795119D01*
X141491905Y-112742738D01*
X141544286Y-112637976D01*
X141544286Y-112533214D01*
X141491905Y-112428452D01*
X141387143Y-112376071D01*
X141125239Y-112376071D01*
X141020477Y-112323690D01*
X140339524Y-112795119D02*
X140444286Y-112742738D01*
X140496667Y-112637976D01*
X140496667Y-111695119D01*
X139763334Y-112795119D02*
X139868096Y-112742738D01*
X139920477Y-112690357D01*
X139972858Y-112585595D01*
X139972858Y-112271310D01*
X139920477Y-112166548D01*
X139868096Y-112114167D01*
X139763334Y-112061786D01*
X139606192Y-112061786D01*
X139501430Y-112114167D01*
X139449049Y-112166548D01*
X139396668Y-112271310D01*
X139396668Y-112585595D01*
X139449049Y-112690357D01*
X139501430Y-112742738D01*
X139606192Y-112795119D01*
X139763334Y-112795119D01*
X138925239Y-112061786D02*
X138925239Y-112795119D01*
X138925239Y-112166548D02*
X138872858Y-112114167D01*
X138768096Y-112061786D01*
X138610954Y-112061786D01*
X138506192Y-112114167D01*
X138453811Y-112218929D01*
X138453811Y-112795119D01*
X137510954Y-112742738D02*
X137615716Y-112795119D01*
X137825239Y-112795119D01*
X137930001Y-112742738D01*
X137982382Y-112637976D01*
X137982382Y-112218929D01*
X137930001Y-112114167D01*
X137825239Y-112061786D01*
X137615716Y-112061786D01*
X137510954Y-112114167D01*
X137458573Y-112218929D01*
X137458573Y-112323690D01*
X137982382Y-112428452D01*
X135677621Y-112061786D02*
X135677621Y-112795119D01*
X136149049Y-112061786D02*
X136149049Y-112637976D01*
X136096668Y-112742738D01*
X135991906Y-112795119D01*
X135834764Y-112795119D01*
X135730002Y-112742738D01*
X135677621Y-112690357D01*
X135206192Y-112742738D02*
X135101430Y-112795119D01*
X134891906Y-112795119D01*
X134787145Y-112742738D01*
X134734764Y-112637976D01*
X134734764Y-112585595D01*
X134787145Y-112480833D01*
X134891906Y-112428452D01*
X135049049Y-112428452D01*
X135153811Y-112376071D01*
X135206192Y-112271310D01*
X135206192Y-112218929D01*
X135153811Y-112114167D01*
X135049049Y-112061786D01*
X134891906Y-112061786D01*
X134787145Y-112114167D01*
X133844288Y-112742738D02*
X133949050Y-112795119D01*
X134158573Y-112795119D01*
X134263335Y-112742738D01*
X134315716Y-112637976D01*
X134315716Y-112218929D01*
X134263335Y-112114167D01*
X134158573Y-112061786D01*
X133949050Y-112061786D01*
X133844288Y-112114167D01*
X133791907Y-112218929D01*
X133791907Y-112323690D01*
X134315716Y-112428452D01*
X133320478Y-112690357D02*
X133268097Y-112742738D01*
X133320478Y-112795119D01*
X133372859Y-112742738D01*
X133320478Y-112690357D01*
X133320478Y-112795119D01*
D12*
X172905029Y-98679143D02*
X172833600Y-98750572D01*
X172762171Y-98893429D01*
X172762171Y-99250572D01*
X172833600Y-99393429D01*
X172905029Y-99464858D01*
X173047886Y-99536286D01*
X173190743Y-99536286D01*
X173405029Y-99464858D01*
X174262171Y-98607715D01*
X174262171Y-99536286D01*
X172905029Y-100107714D02*
X172833600Y-100179143D01*
X172762171Y-100322000D01*
X172762171Y-100679143D01*
X172833600Y-100822000D01*
X172905029Y-100893429D01*
X173047886Y-100964857D01*
X173190743Y-100964857D01*
X173405029Y-100893429D01*
X174262171Y-100036286D01*
X174262171Y-100964857D01*
X171671371Y-99536286D02*
X171671371Y-98679143D01*
X171671371Y-99107715D02*
X170171371Y-99107715D01*
X170385657Y-98964858D01*
X170528514Y-98822000D01*
X170599943Y-98679143D01*
X170671371Y-100822000D02*
X171671371Y-100822000D01*
X170099943Y-100464857D02*
X171171371Y-100107714D01*
X171171371Y-101036286D01*
X169080571Y-99536286D02*
X169080571Y-98679143D01*
X169080571Y-99107715D02*
X167580571Y-99107715D01*
X167794857Y-98964858D01*
X167937714Y-98822000D01*
X168009143Y-98679143D01*
X167723429Y-100107714D02*
X167652000Y-100179143D01*
X167580571Y-100322000D01*
X167580571Y-100679143D01*
X167652000Y-100822000D01*
X167723429Y-100893429D01*
X167866286Y-100964857D01*
X168009143Y-100964857D01*
X168223429Y-100893429D01*
X169080571Y-100036286D01*
X169080571Y-100964857D01*
X172905029Y-95326343D02*
X172833600Y-95397772D01*
X172762171Y-95540629D01*
X172762171Y-95897772D01*
X172833600Y-96040629D01*
X172905029Y-96112058D01*
X173047886Y-96183486D01*
X173190743Y-96183486D01*
X173405029Y-96112058D01*
X174262171Y-95254915D01*
X174262171Y-96183486D01*
X174262171Y-97612057D02*
X174262171Y-96754914D01*
X174262171Y-97183486D02*
X172762171Y-97183486D01*
X172976457Y-97040629D01*
X173119314Y-96897771D01*
X173190743Y-96754914D01*
X171671371Y-96183486D02*
X171671371Y-95326343D01*
X171671371Y-95754915D02*
X170171371Y-95754915D01*
X170385657Y-95612058D01*
X170528514Y-95469200D01*
X170599943Y-95326343D01*
X170171371Y-96683486D02*
X170171371Y-97612057D01*
X170742800Y-97112057D01*
X170742800Y-97326343D01*
X170814229Y-97469200D01*
X170885657Y-97540629D01*
X171028514Y-97612057D01*
X171385657Y-97612057D01*
X171528514Y-97540629D01*
X171599943Y-97469200D01*
X171671371Y-97326343D01*
X171671371Y-96897771D01*
X171599943Y-96754914D01*
X171528514Y-96683486D01*
X169080571Y-96031086D02*
X169080571Y-95173943D01*
X169080571Y-95602515D02*
X167580571Y-95602515D01*
X167794857Y-95459658D01*
X167937714Y-95316800D01*
X168009143Y-95173943D01*
X169080571Y-97459657D02*
X169080571Y-96602514D01*
X169080571Y-97031086D02*
X167580571Y-97031086D01*
X167794857Y-96888229D01*
X167937714Y-96745371D01*
X168009143Y-96602514D01*
D13*
X167487600Y-98145600D02*
X174345600Y-98145600D01*
D12*
X182041657Y-93657029D02*
X181970228Y-93585600D01*
X181827371Y-93514171D01*
X181470228Y-93514171D01*
X181327371Y-93585600D01*
X181255942Y-93657029D01*
X181184514Y-93799886D01*
X181184514Y-93942743D01*
X181255942Y-94157029D01*
X182113085Y-95014171D01*
X181184514Y-95014171D01*
X180684514Y-93514171D02*
X179755943Y-93514171D01*
X180255943Y-94085600D01*
X180041657Y-94085600D01*
X179898800Y-94157029D01*
X179827371Y-94228457D01*
X179755943Y-94371314D01*
X179755943Y-94728457D01*
X179827371Y-94871314D01*
X179898800Y-94942743D01*
X180041657Y-95014171D01*
X180470229Y-95014171D01*
X180613086Y-94942743D01*
X180684514Y-94871314D01*
X178079257Y-93657029D02*
X178007828Y-93585600D01*
X177864971Y-93514171D01*
X177507828Y-93514171D01*
X177364971Y-93585600D01*
X177293542Y-93657029D01*
X177222114Y-93799886D01*
X177222114Y-93942743D01*
X177293542Y-94157029D01*
X178150685Y-95014171D01*
X177222114Y-95014171D01*
X175936400Y-94014171D02*
X175936400Y-95014171D01*
X176293543Y-93442743D02*
X176650686Y-94514171D01*
X175722114Y-94514171D01*
X177364971Y-96247829D02*
X177293542Y-96176400D01*
X177150685Y-96104971D01*
X176793542Y-96104971D01*
X176650685Y-96176400D01*
X176579256Y-96247829D01*
X176507828Y-96390686D01*
X176507828Y-96533543D01*
X176579256Y-96747829D01*
X177436399Y-97604971D01*
X176507828Y-97604971D01*
X180470228Y-97604971D02*
X181327371Y-97604971D01*
X180898799Y-97604971D02*
X180898799Y-96104971D01*
X181041656Y-96319257D01*
X181184514Y-96462114D01*
X181327371Y-96533543D01*
X182158342Y-100043371D02*
X182158342Y-98543371D01*
X181801199Y-98543371D01*
X181586914Y-98614800D01*
X181444056Y-98757657D01*
X181372628Y-98900514D01*
X181301199Y-99186229D01*
X181301199Y-99400514D01*
X181372628Y-99686229D01*
X181444056Y-99829086D01*
X181586914Y-99971943D01*
X181801199Y-100043371D01*
X182158342Y-100043371D01*
X180372628Y-98543371D02*
X180229771Y-98543371D01*
X180086914Y-98614800D01*
X180015485Y-98686229D01*
X179944056Y-98829086D01*
X179872628Y-99114800D01*
X179872628Y-99471943D01*
X179944056Y-99757657D01*
X180015485Y-99900514D01*
X180086914Y-99971943D01*
X180229771Y-100043371D01*
X180372628Y-100043371D01*
X180515485Y-99971943D01*
X180586914Y-99900514D01*
X180658342Y-99757657D01*
X180729771Y-99471943D01*
X180729771Y-99114800D01*
X180658342Y-98829086D01*
X180586914Y-98686229D01*
X180515485Y-98614800D01*
X180372628Y-98543371D01*
X178043542Y-100043371D02*
X178043542Y-98543371D01*
X177686399Y-98543371D01*
X177472114Y-98614800D01*
X177329256Y-98757657D01*
X177257828Y-98900514D01*
X177186399Y-99186229D01*
X177186399Y-99400514D01*
X177257828Y-99686229D01*
X177329256Y-99829086D01*
X177472114Y-99971943D01*
X177686399Y-100043371D01*
X178043542Y-100043371D01*
X175757828Y-100043371D02*
X176614971Y-100043371D01*
X176186399Y-100043371D02*
X176186399Y-98543371D01*
X176329256Y-98757657D01*
X176472114Y-98900514D01*
X176614971Y-98971943D01*
X178043542Y-102634171D02*
X178043542Y-101134171D01*
X177686399Y-101134171D01*
X177472114Y-101205600D01*
X177329256Y-101348457D01*
X177257828Y-101491314D01*
X177186399Y-101777029D01*
X177186399Y-101991314D01*
X177257828Y-102277029D01*
X177329256Y-102419886D01*
X177472114Y-102562743D01*
X177686399Y-102634171D01*
X178043542Y-102634171D01*
X176686399Y-101134171D02*
X175757828Y-101134171D01*
X176257828Y-101705600D01*
X176043542Y-101705600D01*
X175900685Y-101777029D01*
X175829256Y-101848457D01*
X175757828Y-101991314D01*
X175757828Y-102348457D01*
X175829256Y-102491314D01*
X175900685Y-102562743D01*
X176043542Y-102634171D01*
X176472114Y-102634171D01*
X176614971Y-102562743D01*
X176686399Y-102491314D01*
X182158342Y-102634171D02*
X182158342Y-101134171D01*
X181801199Y-101134171D01*
X181586914Y-101205600D01*
X181444056Y-101348457D01*
X181372628Y-101491314D01*
X181301199Y-101777029D01*
X181301199Y-101991314D01*
X181372628Y-102277029D01*
X181444056Y-102419886D01*
X181586914Y-102562743D01*
X181801199Y-102634171D01*
X182158342Y-102634171D01*
X180729771Y-101277029D02*
X180658342Y-101205600D01*
X180515485Y-101134171D01*
X180158342Y-101134171D01*
X180015485Y-101205600D01*
X179944056Y-101277029D01*
X179872628Y-101419886D01*
X179872628Y-101562743D01*
X179944056Y-101777029D01*
X180801199Y-102634171D01*
X179872628Y-102634171D01*
X181336914Y-104929714D02*
X181408343Y-105001143D01*
X181622629Y-105072571D01*
X181765486Y-105072571D01*
X181979771Y-105001143D01*
X182122629Y-104858286D01*
X182194057Y-104715429D01*
X182265486Y-104429714D01*
X182265486Y-104215429D01*
X182194057Y-103929714D01*
X182122629Y-103786857D01*
X181979771Y-103644000D01*
X181765486Y-103572571D01*
X181622629Y-103572571D01*
X181408343Y-103644000D01*
X181336914Y-103715429D01*
X180694057Y-105072571D02*
X180694057Y-103572571D01*
X179836914Y-105072571D02*
X180479771Y-104215429D01*
X179836914Y-103572571D02*
X180694057Y-104429714D01*
X177329257Y-104929714D02*
X177400686Y-105001143D01*
X177614972Y-105072571D01*
X177757829Y-105072571D01*
X177972114Y-105001143D01*
X178114972Y-104858286D01*
X178186400Y-104715429D01*
X178257829Y-104429714D01*
X178257829Y-104215429D01*
X178186400Y-103929714D01*
X178114972Y-103786857D01*
X177972114Y-103644000D01*
X177757829Y-103572571D01*
X177614972Y-103572571D01*
X177400686Y-103644000D01*
X177329257Y-103715429D01*
X176686400Y-105072571D02*
X176686400Y-103572571D01*
X176186400Y-104644000D01*
X175686400Y-103572571D01*
X175686400Y-105072571D01*
X180301200Y-107061143D02*
X180229771Y-106918286D01*
X180229771Y-106704000D01*
X180301200Y-106489715D01*
X180444057Y-106346857D01*
X180586914Y-106275429D01*
X180872629Y-106204000D01*
X181086914Y-106204000D01*
X181372629Y-106275429D01*
X181515486Y-106346857D01*
X181658343Y-106489715D01*
X181729771Y-106704000D01*
X181729771Y-106846857D01*
X181658343Y-107061143D01*
X181586914Y-107132572D01*
X181086914Y-107132572D01*
X181086914Y-106846857D01*
X181729771Y-107775429D02*
X180229771Y-107775429D01*
X181729771Y-108632572D01*
X180229771Y-108632572D01*
X181729771Y-109346858D02*
X180229771Y-109346858D01*
X180229771Y-109704001D01*
X180301200Y-109918286D01*
X180444057Y-110061144D01*
X180586914Y-110132572D01*
X180872629Y-110204001D01*
X181086914Y-110204001D01*
X181372629Y-110132572D01*
X181515486Y-110061144D01*
X181658343Y-109918286D01*
X181729771Y-109704001D01*
X181729771Y-109346858D01*
X176338800Y-107061143D02*
X176267371Y-106918286D01*
X176267371Y-106704000D01*
X176338800Y-106489715D01*
X176481657Y-106346857D01*
X176624514Y-106275429D01*
X176910229Y-106204000D01*
X177124514Y-106204000D01*
X177410229Y-106275429D01*
X177553086Y-106346857D01*
X177695943Y-106489715D01*
X177767371Y-106704000D01*
X177767371Y-106846857D01*
X177695943Y-107061143D01*
X177624514Y-107132572D01*
X177124514Y-107132572D01*
X177124514Y-106846857D01*
X177767371Y-107775429D02*
X176267371Y-107775429D01*
X177767371Y-108632572D01*
X176267371Y-108632572D01*
X177767371Y-109346858D02*
X176267371Y-109346858D01*
X176267371Y-109704001D01*
X176338800Y-109918286D01*
X176481657Y-110061144D01*
X176624514Y-110132572D01*
X176910229Y-110204001D01*
X177124514Y-110204001D01*
X177410229Y-110132572D01*
X177553086Y-110061144D01*
X177695943Y-109918286D01*
X177767371Y-109704001D01*
X177767371Y-109346858D01*
X180791657Y-112059257D02*
X180577371Y-112130686D01*
X180505943Y-112202114D01*
X180434514Y-112344971D01*
X180434514Y-112559257D01*
X180505943Y-112702114D01*
X180577371Y-112773543D01*
X180720229Y-112844971D01*
X181291657Y-112844971D01*
X181291657Y-111344971D01*
X180791657Y-111344971D01*
X180648800Y-111416400D01*
X180577371Y-111487829D01*
X180505943Y-111630686D01*
X180505943Y-111773543D01*
X180577371Y-111916400D01*
X180648800Y-111987829D01*
X180791657Y-112059257D01*
X181291657Y-112059257D01*
X177338799Y-112844971D02*
X177838799Y-112130686D01*
X178195942Y-112844971D02*
X178195942Y-111344971D01*
X177624514Y-111344971D01*
X177481656Y-111416400D01*
X177410228Y-111487829D01*
X177338799Y-111630686D01*
X177338799Y-111844971D01*
X177410228Y-111987829D01*
X177481656Y-112059257D01*
X177624514Y-112130686D01*
X178195942Y-112130686D01*
X176767371Y-112773543D02*
X176553085Y-112844971D01*
X176195942Y-112844971D01*
X176053085Y-112773543D01*
X175981656Y-112702114D01*
X175910228Y-112559257D01*
X175910228Y-112416400D01*
X175981656Y-112273543D01*
X176053085Y-112202114D01*
X176195942Y-112130686D01*
X176481656Y-112059257D01*
X176624514Y-111987829D01*
X176695942Y-111916400D01*
X176767371Y-111773543D01*
X176767371Y-111630686D01*
X176695942Y-111487829D01*
X176624514Y-111416400D01*
X176481656Y-111344971D01*
X176124514Y-111344971D01*
X175910228Y-111416400D01*
X177410228Y-115283371D02*
X178124514Y-115283371D01*
X178124514Y-113783371D01*
X176624514Y-113783371D02*
X176338800Y-113783371D01*
X176195942Y-113854800D01*
X176053085Y-113997657D01*
X175981657Y-114283371D01*
X175981657Y-114783371D01*
X176053085Y-115069086D01*
X176195942Y-115211943D01*
X176338800Y-115283371D01*
X176624514Y-115283371D01*
X176767371Y-115211943D01*
X176910228Y-115069086D01*
X176981657Y-114783371D01*
X176981657Y-114283371D01*
X176910228Y-113997657D01*
X176767371Y-113854800D01*
X176624514Y-113783371D01*
X181684514Y-115283371D02*
X181684514Y-113783371D01*
X181684514Y-114497657D02*
X180827371Y-114497657D01*
X180827371Y-115283371D02*
X180827371Y-113783371D01*
X180113085Y-115283371D02*
X180113085Y-113783371D01*
X182113085Y-116374171D02*
X181184514Y-116374171D01*
X181684514Y-116945600D01*
X181470228Y-116945600D01*
X181327371Y-117017029D01*
X181255942Y-117088457D01*
X181184514Y-117231314D01*
X181184514Y-117588457D01*
X181255942Y-117731314D01*
X181327371Y-117802743D01*
X181470228Y-117874171D01*
X181898800Y-117874171D01*
X182041657Y-117802743D01*
X182113085Y-117731314D01*
X180613086Y-117802743D02*
X180398800Y-117874171D01*
X180041657Y-117874171D01*
X179898800Y-117802743D01*
X179827371Y-117731314D01*
X179755943Y-117588457D01*
X179755943Y-117445600D01*
X179827371Y-117302743D01*
X179898800Y-117231314D01*
X180041657Y-117159886D01*
X180327371Y-117088457D01*
X180470229Y-117017029D01*
X180541657Y-116945600D01*
X180613086Y-116802743D01*
X180613086Y-116659886D01*
X180541657Y-116517029D01*
X180470229Y-116445600D01*
X180327371Y-116374171D01*
X179970229Y-116374171D01*
X179755943Y-116445600D01*
X178338799Y-116374171D02*
X177410228Y-116374171D01*
X177910228Y-116945600D01*
X177695942Y-116945600D01*
X177553085Y-117017029D01*
X177481656Y-117088457D01*
X177410228Y-117231314D01*
X177410228Y-117588457D01*
X177481656Y-117731314D01*
X177553085Y-117802743D01*
X177695942Y-117874171D01*
X178124514Y-117874171D01*
X178267371Y-117802743D01*
X178338799Y-117731314D01*
X175910228Y-117731314D02*
X175981657Y-117802743D01*
X176195943Y-117874171D01*
X176338800Y-117874171D01*
X176553085Y-117802743D01*
X176695943Y-117659886D01*
X176767371Y-117517029D01*
X176838800Y-117231314D01*
X176838800Y-117017029D01*
X176767371Y-116731314D01*
X176695943Y-116588457D01*
X176553085Y-116445600D01*
X176338800Y-116374171D01*
X176195943Y-116374171D01*
X175981657Y-116445600D01*
X175910228Y-116517029D01*
X178374514Y-118964971D02*
X177445943Y-118964971D01*
X177945943Y-119536400D01*
X177731657Y-119536400D01*
X177588800Y-119607829D01*
X177517371Y-119679257D01*
X177445943Y-119822114D01*
X177445943Y-120179257D01*
X177517371Y-120322114D01*
X177588800Y-120393543D01*
X177731657Y-120464971D01*
X178160229Y-120464971D01*
X178303086Y-120393543D01*
X178374514Y-120322114D01*
X176517372Y-118964971D02*
X176231658Y-118964971D01*
X176088800Y-119036400D01*
X175945943Y-119179257D01*
X175874515Y-119464971D01*
X175874515Y-119964971D01*
X175945943Y-120250686D01*
X176088800Y-120393543D01*
X176231658Y-120464971D01*
X176517372Y-120464971D01*
X176660229Y-120393543D01*
X176803086Y-120250686D01*
X176874515Y-119964971D01*
X176874515Y-119464971D01*
X176803086Y-119179257D01*
X176660229Y-119036400D01*
X176517372Y-118964971D01*
X181755942Y-118964971D02*
X180827371Y-118964971D01*
X181327371Y-119536400D01*
X181113085Y-119536400D01*
X180970228Y-119607829D01*
X180898799Y-119679257D01*
X180827371Y-119822114D01*
X180827371Y-120179257D01*
X180898799Y-120322114D01*
X180970228Y-120393543D01*
X181113085Y-120464971D01*
X181541657Y-120464971D01*
X181684514Y-120393543D01*
X181755942Y-120322114D01*
X180184514Y-120464971D02*
X180184514Y-118964971D01*
X182041657Y-121511429D02*
X181970228Y-121440000D01*
X181827371Y-121368571D01*
X181470228Y-121368571D01*
X181327371Y-121440000D01*
X181255942Y-121511429D01*
X181184514Y-121654286D01*
X181184514Y-121797143D01*
X181255942Y-122011429D01*
X182113085Y-122868571D01*
X181184514Y-122868571D01*
X180613086Y-122797143D02*
X180398800Y-122868571D01*
X180041657Y-122868571D01*
X179898800Y-122797143D01*
X179827371Y-122725714D01*
X179755943Y-122582857D01*
X179755943Y-122440000D01*
X179827371Y-122297143D01*
X179898800Y-122225714D01*
X180041657Y-122154286D01*
X180327371Y-122082857D01*
X180470229Y-122011429D01*
X180541657Y-121940000D01*
X180613086Y-121797143D01*
X180613086Y-121654286D01*
X180541657Y-121511429D01*
X180470229Y-121440000D01*
X180327371Y-121368571D01*
X179970229Y-121368571D01*
X179755943Y-121440000D01*
X178267371Y-121546229D02*
X178195942Y-121474800D01*
X178053085Y-121403371D01*
X177695942Y-121403371D01*
X177553085Y-121474800D01*
X177481656Y-121546229D01*
X177410228Y-121689086D01*
X177410228Y-121831943D01*
X177481656Y-122046229D01*
X178338799Y-122903371D01*
X177410228Y-122903371D01*
X175910228Y-122760514D02*
X175981657Y-122831943D01*
X176195943Y-122903371D01*
X176338800Y-122903371D01*
X176553085Y-122831943D01*
X176695943Y-122689086D01*
X176767371Y-122546229D01*
X176838800Y-122260514D01*
X176838800Y-122046229D01*
X176767371Y-121760514D01*
X176695943Y-121617657D01*
X176553085Y-121474800D01*
X176338800Y-121403371D01*
X176195943Y-121403371D01*
X175981657Y-121474800D01*
X175910228Y-121546229D01*
D13*
X178917600Y-123291600D02*
X178917600Y-92506800D01*
D12*
X173057429Y-118543486D02*
X172986000Y-118614915D01*
X172914571Y-118757772D01*
X172914571Y-119114915D01*
X172986000Y-119257772D01*
X173057429Y-119329201D01*
X173200286Y-119400629D01*
X173343143Y-119400629D01*
X173557429Y-119329201D01*
X174414571Y-118472058D01*
X174414571Y-119400629D01*
X174414571Y-120043486D02*
X172914571Y-120043486D01*
X171976171Y-119043486D02*
X171976171Y-118186343D01*
X171976171Y-118614915D02*
X170476171Y-118614915D01*
X170690457Y-118472058D01*
X170833314Y-118329200D01*
X170904743Y-118186343D01*
X171904743Y-119614914D02*
X171976171Y-119829200D01*
X171976171Y-120186343D01*
X171904743Y-120329200D01*
X171833314Y-120400629D01*
X171690457Y-120472057D01*
X171547600Y-120472057D01*
X171404743Y-120400629D01*
X171333314Y-120329200D01*
X171261886Y-120186343D01*
X171190457Y-119900629D01*
X171119029Y-119757771D01*
X171047600Y-119686343D01*
X170904743Y-119614914D01*
X170761886Y-119614914D01*
X170619029Y-119686343D01*
X170547600Y-119757771D01*
X170476171Y-119900629D01*
X170476171Y-120257771D01*
X170547600Y-120472057D01*
X169385371Y-119400629D02*
X169385371Y-118543486D01*
X169385371Y-118972058D02*
X167885371Y-118972058D01*
X168099657Y-118829201D01*
X168242514Y-118686343D01*
X168313943Y-118543486D01*
X169385371Y-120043486D02*
X167885371Y-120043486D01*
X173057429Y-114609714D02*
X172986000Y-114681143D01*
X172914571Y-114824000D01*
X172914571Y-115181143D01*
X172986000Y-115324000D01*
X173057429Y-115395429D01*
X173200286Y-115466857D01*
X173343143Y-115466857D01*
X173557429Y-115395429D01*
X174414571Y-114538286D01*
X174414571Y-115466857D01*
X172914571Y-116395428D02*
X172914571Y-116681142D01*
X172986000Y-116824000D01*
X173128857Y-116966857D01*
X173414571Y-117038285D01*
X173914571Y-117038285D01*
X174200286Y-116966857D01*
X174343143Y-116824000D01*
X174414571Y-116681142D01*
X174414571Y-116395428D01*
X174343143Y-116252571D01*
X174200286Y-116109714D01*
X173914571Y-116038285D01*
X173414571Y-116038285D01*
X173128857Y-116109714D01*
X172986000Y-116252571D01*
X172914571Y-116395428D01*
X171976171Y-115502572D02*
X171976171Y-114645429D01*
X171976171Y-115074001D02*
X170476171Y-115074001D01*
X170690457Y-114931144D01*
X170833314Y-114788286D01*
X170904743Y-114645429D01*
X171833314Y-117002572D02*
X171904743Y-116931143D01*
X171976171Y-116716857D01*
X171976171Y-116574000D01*
X171904743Y-116359715D01*
X171761886Y-116216857D01*
X171619029Y-116145429D01*
X171333314Y-116074000D01*
X171119029Y-116074000D01*
X170833314Y-116145429D01*
X170690457Y-116216857D01*
X170547600Y-116359715D01*
X170476171Y-116574000D01*
X170476171Y-116716857D01*
X170547600Y-116931143D01*
X170619029Y-117002572D01*
X169385371Y-115466857D02*
X169385371Y-114609714D01*
X169385371Y-115038286D02*
X167885371Y-115038286D01*
X168099657Y-114895429D01*
X168242514Y-114752571D01*
X168313943Y-114609714D01*
X167885371Y-116395428D02*
X167885371Y-116681142D01*
X167956800Y-116824000D01*
X168099657Y-116966857D01*
X168385371Y-117038285D01*
X168885371Y-117038285D01*
X169171086Y-116966857D01*
X169313943Y-116824000D01*
X169385371Y-116681142D01*
X169385371Y-116395428D01*
X169313943Y-116252571D01*
X169171086Y-116109714D01*
X168885371Y-116038285D01*
X168385371Y-116038285D01*
X168099657Y-116109714D01*
X167956800Y-116252571D01*
X167885371Y-116395428D01*
D13*
X167640000Y-117652800D02*
X174498000Y-117652800D01*
D12*
X157650571Y-121293772D02*
X157650571Y-120436629D01*
X157650571Y-120865201D02*
X156150571Y-120865201D01*
X156364857Y-120722344D01*
X156507714Y-120579486D01*
X156579143Y-120436629D01*
X157650571Y-122793772D02*
X156936286Y-122293772D01*
X157650571Y-121936629D02*
X156150571Y-121936629D01*
X156150571Y-122508057D01*
X156222000Y-122650915D01*
X156293429Y-122722343D01*
X156436286Y-122793772D01*
X156650571Y-122793772D01*
X156793429Y-122722343D01*
X156864857Y-122650915D01*
X156936286Y-122508057D01*
X156936286Y-121936629D01*
X155212171Y-121472343D02*
X155212171Y-120615200D01*
X155212171Y-121043772D02*
X153712171Y-121043772D01*
X153926457Y-120900915D01*
X154069314Y-120758057D01*
X154140743Y-120615200D01*
X153712171Y-121900914D02*
X153712171Y-122758057D01*
X155212171Y-122329486D02*
X153712171Y-122329486D01*
X151264229Y-120436629D02*
X151192800Y-120508058D01*
X151121371Y-120650915D01*
X151121371Y-121008058D01*
X151192800Y-121150915D01*
X151264229Y-121222344D01*
X151407086Y-121293772D01*
X151549943Y-121293772D01*
X151764229Y-121222344D01*
X152621371Y-120365201D01*
X152621371Y-121293772D01*
X152621371Y-122793772D02*
X151907086Y-122293772D01*
X152621371Y-121936629D02*
X151121371Y-121936629D01*
X151121371Y-122508057D01*
X151192800Y-122650915D01*
X151264229Y-122722343D01*
X151407086Y-122793772D01*
X151621371Y-122793772D01*
X151764229Y-122722343D01*
X151835657Y-122650915D01*
X151907086Y-122508057D01*
X151907086Y-121936629D01*
X148825829Y-120615200D02*
X148754400Y-120686629D01*
X148682971Y-120829486D01*
X148682971Y-121186629D01*
X148754400Y-121329486D01*
X148825829Y-121400915D01*
X148968686Y-121472343D01*
X149111543Y-121472343D01*
X149325829Y-121400915D01*
X150182971Y-120543772D01*
X150182971Y-121472343D01*
X148682971Y-121900914D02*
X148682971Y-122758057D01*
X150182971Y-122329486D02*
X148682971Y-122329486D01*
X146092171Y-120365201D02*
X146092171Y-121293772D01*
X146663600Y-120793772D01*
X146663600Y-121008058D01*
X146735029Y-121150915D01*
X146806457Y-121222344D01*
X146949314Y-121293772D01*
X147306457Y-121293772D01*
X147449314Y-121222344D01*
X147520743Y-121150915D01*
X147592171Y-121008058D01*
X147592171Y-120579486D01*
X147520743Y-120436629D01*
X147449314Y-120365201D01*
X147592171Y-122793772D02*
X146877886Y-122293772D01*
X147592171Y-121936629D02*
X146092171Y-121936629D01*
X146092171Y-122508057D01*
X146163600Y-122650915D01*
X146235029Y-122722343D01*
X146377886Y-122793772D01*
X146592171Y-122793772D01*
X146735029Y-122722343D01*
X146806457Y-122650915D01*
X146877886Y-122508057D01*
X146877886Y-121936629D01*
X143653771Y-120543772D02*
X143653771Y-121472343D01*
X144225200Y-120972343D01*
X144225200Y-121186629D01*
X144296629Y-121329486D01*
X144368057Y-121400915D01*
X144510914Y-121472343D01*
X144868057Y-121472343D01*
X145010914Y-121400915D01*
X145082343Y-121329486D01*
X145153771Y-121186629D01*
X145153771Y-120758057D01*
X145082343Y-120615200D01*
X145010914Y-120543772D01*
X143653771Y-121900914D02*
X143653771Y-122758057D01*
X145153771Y-122329486D02*
X143653771Y-122329486D01*
X141562971Y-121150915D02*
X142562971Y-121150915D01*
X140991543Y-120793772D02*
X142062971Y-120436629D01*
X142062971Y-121365201D01*
X142562971Y-122793772D02*
X141848686Y-122293772D01*
X142562971Y-121936629D02*
X141062971Y-121936629D01*
X141062971Y-122508057D01*
X141134400Y-122650915D01*
X141205829Y-122722343D01*
X141348686Y-122793772D01*
X141562971Y-122793772D01*
X141705829Y-122722343D01*
X141777257Y-122650915D01*
X141848686Y-122508057D01*
X141848686Y-121936629D01*
X139124571Y-121329486D02*
X140124571Y-121329486D01*
X138553143Y-120972343D02*
X139624571Y-120615200D01*
X139624571Y-121543772D01*
X138624571Y-121900914D02*
X138624571Y-122758057D01*
X140124571Y-122329486D02*
X138624571Y-122329486D01*
X123658285Y-119726971D02*
X124372571Y-119726971D01*
X124444000Y-120441257D01*
X124372571Y-120369829D01*
X124229714Y-120298400D01*
X123872571Y-120298400D01*
X123729714Y-120369829D01*
X123658285Y-120441257D01*
X123586857Y-120584114D01*
X123586857Y-120941257D01*
X123658285Y-121084114D01*
X123729714Y-121155543D01*
X123872571Y-121226971D01*
X124229714Y-121226971D01*
X124372571Y-121155543D01*
X124444000Y-121084114D01*
X123158286Y-119726971D02*
X122301143Y-119726971D01*
X122729714Y-121226971D02*
X122729714Y-119726971D01*
X127951656Y-119726971D02*
X128665942Y-119726971D01*
X128737371Y-120441257D01*
X128665942Y-120369829D01*
X128523085Y-120298400D01*
X128165942Y-120298400D01*
X128023085Y-120369829D01*
X127951656Y-120441257D01*
X127880228Y-120584114D01*
X127880228Y-120941257D01*
X127951656Y-121084114D01*
X128023085Y-121155543D01*
X128165942Y-121226971D01*
X128523085Y-121226971D01*
X128665942Y-121155543D01*
X128737371Y-121084114D01*
X126380228Y-121226971D02*
X126880228Y-120512686D01*
X127237371Y-121226971D02*
X127237371Y-119726971D01*
X126665943Y-119726971D01*
X126523085Y-119798400D01*
X126451657Y-119869829D01*
X126380228Y-120012686D01*
X126380228Y-120226971D01*
X126451657Y-120369829D01*
X126523085Y-120441257D01*
X126665943Y-120512686D01*
X127237371Y-120512686D01*
X128034285Y-117148571D02*
X128319999Y-117148571D01*
X128462856Y-117220000D01*
X128534285Y-117291429D01*
X128677142Y-117505714D01*
X128748571Y-117791429D01*
X128748571Y-118362857D01*
X128677142Y-118505714D01*
X128605714Y-118577143D01*
X128462856Y-118648571D01*
X128177142Y-118648571D01*
X128034285Y-118577143D01*
X127962856Y-118505714D01*
X127891428Y-118362857D01*
X127891428Y-118005714D01*
X127962856Y-117862857D01*
X128034285Y-117791429D01*
X128177142Y-117720000D01*
X128462856Y-117720000D01*
X128605714Y-117791429D01*
X128677142Y-117862857D01*
X128748571Y-118005714D01*
X126391428Y-118648571D02*
X126891428Y-117934286D01*
X127248571Y-118648571D02*
X127248571Y-117148571D01*
X126677143Y-117148571D01*
X126534285Y-117220000D01*
X126462857Y-117291429D01*
X126391428Y-117434286D01*
X126391428Y-117648571D01*
X126462857Y-117791429D01*
X126534285Y-117862857D01*
X126677143Y-117934286D01*
X127248571Y-117934286D01*
X123735714Y-117128571D02*
X124021428Y-117128571D01*
X124164285Y-117200000D01*
X124235714Y-117271429D01*
X124378571Y-117485714D01*
X124450000Y-117771429D01*
X124450000Y-118342857D01*
X124378571Y-118485714D01*
X124307143Y-118557143D01*
X124164285Y-118628571D01*
X123878571Y-118628571D01*
X123735714Y-118557143D01*
X123664285Y-118485714D01*
X123592857Y-118342857D01*
X123592857Y-117985714D01*
X123664285Y-117842857D01*
X123735714Y-117771429D01*
X123878571Y-117700000D01*
X124164285Y-117700000D01*
X124307143Y-117771429D01*
X124378571Y-117842857D01*
X124450000Y-117985714D01*
X123164286Y-117128571D02*
X122307143Y-117128571D01*
X122735714Y-118628571D02*
X122735714Y-117128571D01*
X128808799Y-114545371D02*
X127808799Y-114545371D01*
X128451656Y-116045371D01*
X126380228Y-116045371D02*
X126880228Y-115331086D01*
X127237371Y-116045371D02*
X127237371Y-114545371D01*
X126665943Y-114545371D01*
X126523085Y-114616800D01*
X126451657Y-114688229D01*
X126380228Y-114831086D01*
X126380228Y-115045371D01*
X126451657Y-115188229D01*
X126523085Y-115259657D01*
X126665943Y-115331086D01*
X127237371Y-115331086D01*
X124515428Y-114545371D02*
X123515428Y-114545371D01*
X124158285Y-116045371D01*
X123158286Y-114545371D02*
X122301143Y-114545371D01*
X122729714Y-116045371D02*
X122729714Y-114545371D01*
X128451656Y-112597429D02*
X128594514Y-112526000D01*
X128665942Y-112454571D01*
X128737371Y-112311714D01*
X128737371Y-112240286D01*
X128665942Y-112097429D01*
X128594514Y-112026000D01*
X128451656Y-111954571D01*
X128165942Y-111954571D01*
X128023085Y-112026000D01*
X127951656Y-112097429D01*
X127880228Y-112240286D01*
X127880228Y-112311714D01*
X127951656Y-112454571D01*
X128023085Y-112526000D01*
X128165942Y-112597429D01*
X128451656Y-112597429D01*
X128594514Y-112668857D01*
X128665942Y-112740286D01*
X128737371Y-112883143D01*
X128737371Y-113168857D01*
X128665942Y-113311714D01*
X128594514Y-113383143D01*
X128451656Y-113454571D01*
X128165942Y-113454571D01*
X128023085Y-113383143D01*
X127951656Y-113311714D01*
X127880228Y-113168857D01*
X127880228Y-112883143D01*
X127951656Y-112740286D01*
X128023085Y-112668857D01*
X128165942Y-112597429D01*
X126380228Y-113454571D02*
X126880228Y-112740286D01*
X127237371Y-113454571D02*
X127237371Y-111954571D01*
X126665943Y-111954571D01*
X126523085Y-112026000D01*
X126451657Y-112097429D01*
X126380228Y-112240286D01*
X126380228Y-112454571D01*
X126451657Y-112597429D01*
X126523085Y-112668857D01*
X126665943Y-112740286D01*
X127237371Y-112740286D01*
X124158285Y-112597429D02*
X124301143Y-112526000D01*
X124372571Y-112454571D01*
X124444000Y-112311714D01*
X124444000Y-112240286D01*
X124372571Y-112097429D01*
X124301143Y-112026000D01*
X124158285Y-111954571D01*
X123872571Y-111954571D01*
X123729714Y-112026000D01*
X123658285Y-112097429D01*
X123586857Y-112240286D01*
X123586857Y-112311714D01*
X123658285Y-112454571D01*
X123729714Y-112526000D01*
X123872571Y-112597429D01*
X124158285Y-112597429D01*
X124301143Y-112668857D01*
X124372571Y-112740286D01*
X124444000Y-112883143D01*
X124444000Y-113168857D01*
X124372571Y-113311714D01*
X124301143Y-113383143D01*
X124158285Y-113454571D01*
X123872571Y-113454571D01*
X123729714Y-113383143D01*
X123658285Y-113311714D01*
X123586857Y-113168857D01*
X123586857Y-112883143D01*
X123658285Y-112740286D01*
X123729714Y-112668857D01*
X123872571Y-112597429D01*
X123158286Y-111954571D02*
X122301143Y-111954571D01*
X122729714Y-113454571D02*
X122729714Y-111954571D01*
X127692113Y-109516171D02*
X128406399Y-109516171D01*
X128477828Y-110230457D01*
X128406399Y-110159029D01*
X128263542Y-110087600D01*
X127906399Y-110087600D01*
X127763542Y-110159029D01*
X127692113Y-110230457D01*
X127620685Y-110373314D01*
X127620685Y-110730457D01*
X127692113Y-110873314D01*
X127763542Y-110944743D01*
X127906399Y-111016171D01*
X128263542Y-111016171D01*
X128406399Y-110944743D01*
X128477828Y-110873314D01*
X127192114Y-109516171D02*
X126692114Y-111016171D01*
X126192114Y-109516171D01*
X123729713Y-109516171D02*
X124443999Y-109516171D01*
X124515428Y-110230457D01*
X124443999Y-110159029D01*
X124301142Y-110087600D01*
X123943999Y-110087600D01*
X123801142Y-110159029D01*
X123729713Y-110230457D01*
X123658285Y-110373314D01*
X123658285Y-110730457D01*
X123729713Y-110873314D01*
X123801142Y-110944743D01*
X123943999Y-111016171D01*
X124301142Y-111016171D01*
X124443999Y-110944743D01*
X124515428Y-110873314D01*
X123229714Y-109516171D02*
X122729714Y-111016171D01*
X122229714Y-109516171D01*
X124622571Y-106925371D02*
X123694000Y-106925371D01*
X124194000Y-107496800D01*
X123979714Y-107496800D01*
X123836857Y-107568229D01*
X123765428Y-107639657D01*
X123694000Y-107782514D01*
X123694000Y-108139657D01*
X123765428Y-108282514D01*
X123836857Y-108353943D01*
X123979714Y-108425371D01*
X124408286Y-108425371D01*
X124551143Y-108353943D01*
X124622571Y-108282514D01*
X123051143Y-107639657D02*
X122551143Y-107639657D01*
X122336857Y-108425371D02*
X123051143Y-108425371D01*
X123051143Y-106925371D01*
X122336857Y-106925371D01*
X124586857Y-105834571D02*
X124586857Y-104334571D01*
X124586857Y-105048857D02*
X123729714Y-105048857D01*
X123729714Y-105834571D02*
X123729714Y-104334571D01*
X122229714Y-105834571D02*
X123086857Y-105834571D01*
X122658285Y-105834571D02*
X122658285Y-104334571D01*
X122801142Y-104548857D01*
X122944000Y-104691714D01*
X123086857Y-104763143D01*
X128549257Y-103243771D02*
X128549257Y-101743771D01*
X128549257Y-102458057D02*
X127692114Y-102458057D01*
X127692114Y-103243771D02*
X127692114Y-101743771D01*
X127049257Y-101886629D02*
X126977828Y-101815200D01*
X126834971Y-101743771D01*
X126477828Y-101743771D01*
X126334971Y-101815200D01*
X126263542Y-101886629D01*
X126192114Y-102029486D01*
X126192114Y-102172343D01*
X126263542Y-102386629D01*
X127120685Y-103243771D01*
X126192114Y-103243771D01*
X124586857Y-103396171D02*
X124586857Y-101896171D01*
X124586857Y-102610457D02*
X123729714Y-102610457D01*
X123729714Y-103396171D02*
X123729714Y-101896171D01*
X122372571Y-102396171D02*
X122372571Y-103396171D01*
X122729714Y-101824743D02*
X123086857Y-102896171D01*
X122158285Y-102896171D01*
X127549257Y-100814914D02*
X127620686Y-100886343D01*
X127834972Y-100957771D01*
X127977829Y-100957771D01*
X128192114Y-100886343D01*
X128334972Y-100743486D01*
X128406400Y-100600629D01*
X128477829Y-100314914D01*
X128477829Y-100100629D01*
X128406400Y-99814914D01*
X128334972Y-99672057D01*
X128192114Y-99529200D01*
X127977829Y-99457771D01*
X127834972Y-99457771D01*
X127620686Y-99529200D01*
X127549257Y-99600629D01*
X126192114Y-100957771D02*
X126906400Y-100957771D01*
X126906400Y-99457771D01*
X124632114Y-100957771D02*
X124632114Y-99457771D01*
X124274971Y-99457771D01*
X124060686Y-99529200D01*
X123917828Y-99672057D01*
X123846400Y-99814914D01*
X123774971Y-100100629D01*
X123774971Y-100314914D01*
X123846400Y-100600629D01*
X123917828Y-100743486D01*
X124060686Y-100886343D01*
X124274971Y-100957771D01*
X124632114Y-100957771D01*
X123203543Y-100529200D02*
X122489257Y-100529200D01*
X123346400Y-100957771D02*
X122846400Y-99457771D01*
X122346400Y-100957771D01*
D13*
X125425200Y-122072400D02*
X125425200Y-93726000D01*
D12*
X149161429Y-119137143D02*
X149304286Y-119208571D01*
X149590000Y-119208571D01*
X149732858Y-119137143D01*
X149804286Y-119065714D01*
X149875715Y-118922857D01*
X149875715Y-118494286D01*
X149804286Y-118351429D01*
X149732858Y-118280000D01*
X149590000Y-118208571D01*
X149304286Y-118208571D01*
X149161429Y-118280000D01*
X148518572Y-119208571D02*
X148518572Y-117708571D01*
X148375715Y-118637143D02*
X147947144Y-119208571D01*
X147947144Y-118208571D02*
X148518572Y-118780000D01*
X146661429Y-119208571D02*
X146661429Y-117708571D01*
X146661429Y-119137143D02*
X146804286Y-119208571D01*
X147090000Y-119208571D01*
X147232858Y-119137143D01*
X147304286Y-119065714D01*
X147375715Y-118922857D01*
X147375715Y-118494286D01*
X147304286Y-118351429D01*
X147232858Y-118280000D01*
X147090000Y-118208571D01*
X146804286Y-118208571D01*
X146661429Y-118280000D01*
X145947143Y-119065714D02*
X145875715Y-119137143D01*
X145947143Y-119208571D01*
X146018572Y-119137143D01*
X145947143Y-119065714D01*
X145947143Y-119208571D01*
X145447143Y-118208571D02*
X144875714Y-118208571D01*
X145232857Y-117708571D02*
X145232857Y-118994286D01*
X145161429Y-119137143D01*
X145018571Y-119208571D01*
X144875714Y-119208571D01*
X143804286Y-119137143D02*
X143947143Y-119208571D01*
X144232857Y-119208571D01*
X144375714Y-119137143D01*
X144447143Y-118994286D01*
X144447143Y-118422857D01*
X144375714Y-118280000D01*
X144232857Y-118208571D01*
X143947143Y-118208571D01*
X143804286Y-118280000D01*
X143732857Y-118422857D01*
X143732857Y-118565714D01*
X144447143Y-118708571D01*
X142447143Y-119137143D02*
X142590000Y-119208571D01*
X142875714Y-119208571D01*
X143018572Y-119137143D01*
X143090000Y-119065714D01*
X143161429Y-118922857D01*
X143161429Y-118494286D01*
X143090000Y-118351429D01*
X143018572Y-118280000D01*
X142875714Y-118208571D01*
X142590000Y-118208571D01*
X142447143Y-118280000D01*
X141804286Y-119208571D02*
X141804286Y-117708571D01*
X141161429Y-119208571D02*
X141161429Y-118422857D01*
X141232858Y-118280000D01*
X141375715Y-118208571D01*
X141590000Y-118208571D01*
X141732858Y-118280000D01*
X141804286Y-118351429D01*
X139375715Y-117637143D02*
X140661429Y-119565714D01*
X138232857Y-119208571D02*
X138232857Y-117708571D01*
X138232857Y-119137143D02*
X138375714Y-119208571D01*
X138661428Y-119208571D01*
X138804286Y-119137143D01*
X138875714Y-119065714D01*
X138947143Y-118922857D01*
X138947143Y-118494286D01*
X138875714Y-118351429D01*
X138804286Y-118280000D01*
X138661428Y-118208571D01*
X138375714Y-118208571D01*
X138232857Y-118280000D01*
X137518571Y-119208571D02*
X137518571Y-117708571D01*
X137518571Y-118280000D02*
X137375714Y-118208571D01*
X137090000Y-118208571D01*
X136947143Y-118280000D01*
X136875714Y-118351429D01*
X136804285Y-118494286D01*
X136804285Y-118922857D01*
X136875714Y-119065714D01*
X136947143Y-119137143D01*
X137090000Y-119208571D01*
X137375714Y-119208571D01*
X137518571Y-119137143D01*
X135518571Y-118208571D02*
X135518571Y-119422857D01*
X135590000Y-119565714D01*
X135661428Y-119637143D01*
X135804285Y-119708571D01*
X136018571Y-119708571D01*
X136161428Y-119637143D01*
X135518571Y-119137143D02*
X135661428Y-119208571D01*
X135947142Y-119208571D01*
X136090000Y-119137143D01*
X136161428Y-119065714D01*
X136232857Y-118922857D01*
X136232857Y-118494286D01*
X136161428Y-118351429D01*
X136090000Y-118280000D01*
X135947142Y-118208571D01*
X135661428Y-118208571D01*
X135518571Y-118280000D01*
X133732857Y-117637143D02*
X135018571Y-119565714D01*
X133375713Y-118208571D02*
X133018570Y-119208571D01*
X132661428Y-118208571D01*
X132161428Y-117851429D02*
X132089999Y-117780000D01*
X131947142Y-117708571D01*
X131589999Y-117708571D01*
X131447142Y-117780000D01*
X131375713Y-117851429D01*
X131304285Y-117994286D01*
X131304285Y-118137143D01*
X131375713Y-118351429D01*
X132232856Y-119208571D01*
X131304285Y-119208571D01*
X152280000Y-98398571D02*
X152280000Y-96898571D01*
X151565714Y-97398571D02*
X151565714Y-98398571D01*
X151565714Y-97541429D02*
X151494286Y-97470000D01*
X151351428Y-97398571D01*
X151137143Y-97398571D01*
X150994286Y-97470000D01*
X150922857Y-97612857D01*
X150922857Y-98398571D01*
X150208571Y-97398571D02*
X150208571Y-98898571D01*
X150208571Y-97470000D02*
X150065714Y-97398571D01*
X149780000Y-97398571D01*
X149637143Y-97470000D01*
X149565714Y-97541429D01*
X149494285Y-97684286D01*
X149494285Y-98112857D01*
X149565714Y-98255714D01*
X149637143Y-98327143D01*
X149780000Y-98398571D01*
X150065714Y-98398571D01*
X150208571Y-98327143D01*
X148208571Y-97398571D02*
X148208571Y-98398571D01*
X148851428Y-97398571D02*
X148851428Y-98184286D01*
X148780000Y-98327143D01*
X148637142Y-98398571D01*
X148422857Y-98398571D01*
X148280000Y-98327143D01*
X148208571Y-98255714D01*
X147708571Y-97398571D02*
X147137142Y-97398571D01*
X147494285Y-96898571D02*
X147494285Y-98184286D01*
X147422857Y-98327143D01*
X147279999Y-98398571D01*
X147137142Y-98398571D01*
X145494285Y-97398571D02*
X145494285Y-98398571D01*
X145494285Y-97541429D02*
X145422857Y-97470000D01*
X145279999Y-97398571D01*
X145065714Y-97398571D01*
X144922857Y-97470000D01*
X144851428Y-97612857D01*
X144851428Y-98398571D01*
X143494285Y-97398571D02*
X143494285Y-98398571D01*
X144137142Y-97398571D02*
X144137142Y-98184286D01*
X144065714Y-98327143D01*
X143922856Y-98398571D01*
X143708571Y-98398571D01*
X143565714Y-98327143D01*
X143494285Y-98255714D01*
X142779999Y-98398571D02*
X142779999Y-97398571D01*
X142779999Y-97541429D02*
X142708571Y-97470000D01*
X142565713Y-97398571D01*
X142351428Y-97398571D01*
X142208571Y-97470000D01*
X142137142Y-97612857D01*
X142137142Y-98398571D01*
X142137142Y-97612857D02*
X142065713Y-97470000D01*
X141922856Y-97398571D01*
X141708571Y-97398571D01*
X141565713Y-97470000D01*
X141494285Y-97612857D01*
X141494285Y-98398571D01*
X140779999Y-98398571D02*
X140779999Y-96898571D01*
X140779999Y-97470000D02*
X140637142Y-97398571D01*
X140351428Y-97398571D01*
X140208571Y-97470000D01*
X140137142Y-97541429D01*
X140065713Y-97684286D01*
X140065713Y-98112857D01*
X140137142Y-98255714D01*
X140208571Y-98327143D01*
X140351428Y-98398571D01*
X140637142Y-98398571D01*
X140779999Y-98327143D01*
X138851428Y-98327143D02*
X138994285Y-98398571D01*
X139279999Y-98398571D01*
X139422856Y-98327143D01*
X139494285Y-98184286D01*
X139494285Y-97612857D01*
X139422856Y-97470000D01*
X139279999Y-97398571D01*
X138994285Y-97398571D01*
X138851428Y-97470000D01*
X138779999Y-97612857D01*
X138779999Y-97755714D01*
X139494285Y-97898571D01*
X138137142Y-98398571D02*
X138137142Y-97398571D01*
X138137142Y-97684286D02*
X138065714Y-97541429D01*
X137994285Y-97470000D01*
X137851428Y-97398571D01*
X137708571Y-97398571D01*
X137208571Y-98398571D02*
X137208571Y-97398571D01*
X137208571Y-96898571D02*
X137280000Y-96970000D01*
X137208571Y-97041429D01*
X137137143Y-96970000D01*
X137208571Y-96898571D01*
X137208571Y-97041429D01*
X136494285Y-97398571D02*
X136494285Y-98398571D01*
X136494285Y-97541429D02*
X136422857Y-97470000D01*
X136279999Y-97398571D01*
X136065714Y-97398571D01*
X135922857Y-97470000D01*
X135851428Y-97612857D01*
X135851428Y-98398571D01*
X134494285Y-97398571D02*
X134494285Y-98612857D01*
X134565714Y-98755714D01*
X134637142Y-98827143D01*
X134779999Y-98898571D01*
X134994285Y-98898571D01*
X135137142Y-98827143D01*
X134494285Y-98327143D02*
X134637142Y-98398571D01*
X134922856Y-98398571D01*
X135065714Y-98327143D01*
X135137142Y-98255714D01*
X135208571Y-98112857D01*
X135208571Y-97684286D01*
X135137142Y-97541429D01*
X135065714Y-97470000D01*
X134922856Y-97398571D01*
X134637142Y-97398571D01*
X134494285Y-97470000D01*
X133779999Y-98255714D02*
X133708571Y-98327143D01*
X133779999Y-98398571D01*
X133851428Y-98327143D01*
X133779999Y-98255714D01*
X133779999Y-98398571D01*
X138157829Y-93602229D02*
X138086400Y-93673658D01*
X138014971Y-93816515D01*
X138014971Y-94173658D01*
X138086400Y-94316515D01*
X138157829Y-94387944D01*
X138300686Y-94459372D01*
X138443543Y-94459372D01*
X138657829Y-94387944D01*
X139514971Y-93530801D01*
X139514971Y-94459372D01*
X141968571Y-94448572D02*
X141968571Y-93591429D01*
X141968571Y-94020001D02*
X140468571Y-94020001D01*
X140682857Y-93877144D01*
X140825714Y-93734286D01*
X140897143Y-93591429D01*
X143544171Y-94305715D02*
X144544171Y-94305715D01*
X142972743Y-93948572D02*
X144044171Y-93591429D01*
X144044171Y-94520001D01*
X145648571Y-93520001D02*
X145648571Y-94448572D01*
X146220000Y-93948572D01*
X146220000Y-94162858D01*
X146291429Y-94305715D01*
X146362857Y-94377144D01*
X146505714Y-94448572D01*
X146862857Y-94448572D01*
X147005714Y-94377144D01*
X147077143Y-94305715D01*
X147148571Y-94162858D01*
X147148571Y-93734286D01*
X147077143Y-93591429D01*
X147005714Y-93520001D01*
X148381429Y-93611429D02*
X148310000Y-93682858D01*
X148238571Y-93825715D01*
X148238571Y-94182858D01*
X148310000Y-94325715D01*
X148381429Y-94397144D01*
X148524286Y-94468572D01*
X148667143Y-94468572D01*
X148881429Y-94397144D01*
X149738571Y-93540001D01*
X149738571Y-94468572D01*
X152178571Y-94498572D02*
X152178571Y-93641429D01*
X152178571Y-94070001D02*
X150678571Y-94070001D01*
X150892857Y-93927144D01*
X151035714Y-93784286D01*
X151107143Y-93641429D01*
X126968285Y-96714571D02*
X127253999Y-96714571D01*
X127396856Y-96786000D01*
X127468285Y-96857429D01*
X127611142Y-97071714D01*
X127682571Y-97357429D01*
X127682571Y-97928857D01*
X127611142Y-98071714D01*
X127539714Y-98143143D01*
X127396856Y-98214571D01*
X127111142Y-98214571D01*
X126968285Y-98143143D01*
X126896856Y-98071714D01*
X126825428Y-97928857D01*
X126825428Y-97571714D01*
X126896856Y-97428857D01*
X126968285Y-97357429D01*
X127111142Y-97286000D01*
X127396856Y-97286000D01*
X127539714Y-97357429D01*
X127611142Y-97428857D01*
X127682571Y-97571714D01*
X123086856Y-96714571D02*
X123801142Y-96714571D01*
X123872571Y-97428857D01*
X123801142Y-97357429D01*
X123658285Y-97286000D01*
X123301142Y-97286000D01*
X123158285Y-97357429D01*
X123086856Y-97428857D01*
X123015428Y-97571714D01*
X123015428Y-97928857D01*
X123086856Y-98071714D01*
X123158285Y-98143143D01*
X123301142Y-98214571D01*
X123658285Y-98214571D01*
X123801142Y-98143143D01*
X123872571Y-98071714D01*
X126968285Y-94623771D02*
X126968285Y-95623771D01*
X127325428Y-94052343D02*
X127682571Y-95123771D01*
X126753999Y-95123771D01*
X124096399Y-94276171D02*
X123167828Y-94276171D01*
X123667828Y-94847600D01*
X123453542Y-94847600D01*
X123310685Y-94919029D01*
X123239256Y-94990457D01*
X123167828Y-95133314D01*
X123167828Y-95490457D01*
X123239256Y-95633314D01*
X123310685Y-95704743D01*
X123453542Y-95776171D01*
X123882114Y-95776171D01*
X124024971Y-95704743D01*
X124096399Y-95633314D01*
D14*
X158725000Y-99240000D02*
X160575000Y-99240000D01*
X158725000Y-116760000D02*
X160575000Y-116760000D01*
X159650000Y-115800000D02*
X159650000Y-100200000D01*
X156850000Y-96500000D02*
X157550000Y-96500000D01*
X157550000Y-95300000D02*
X156850000Y-95300000D01*
X158337500Y-94737500D02*
X156187500Y-94737500D01*
X159162500Y-92487500D02*
X156187500Y-92487500D01*
X154950000Y-91875000D02*
X155950000Y-91875000D01*
X155950000Y-90525000D02*
X154950000Y-90525000D01*
X147500000Y-108675000D02*
X148500000Y-108675000D01*
X148500000Y-107325000D02*
X147500000Y-107325000D01*
X147480400Y-105675000D02*
X148480400Y-105675000D01*
X148480400Y-104325000D02*
X147480400Y-104325000D01*
X147513600Y-102675000D02*
X148513600Y-102675000D01*
X148513600Y-101325000D02*
X147513600Y-101325000D01*
X151336666Y-108462381D02*
X151670000Y-107986190D01*
X151908095Y-108462381D02*
X151908095Y-107462381D01*
X151527142Y-107462381D01*
X151431904Y-107510000D01*
X151384285Y-107557619D01*
X151336666Y-107652857D01*
X151336666Y-107795714D01*
X151384285Y-107890952D01*
X151431904Y-107938571D01*
X151527142Y-107986190D01*
X151908095Y-107986190D01*
X150479523Y-107795714D02*
X150479523Y-108462381D01*
X150717619Y-107414762D02*
X150955714Y-108129048D01*
X150336666Y-108129048D01*
X151376666Y-105462381D02*
X151710000Y-104986190D01*
X151948095Y-105462381D02*
X151948095Y-104462381D01*
X151567142Y-104462381D01*
X151471904Y-104510000D01*
X151424285Y-104557619D01*
X151376666Y-104652857D01*
X151376666Y-104795714D01*
X151424285Y-104890952D01*
X151471904Y-104938571D01*
X151567142Y-104986190D01*
X151948095Y-104986190D01*
X150471904Y-104462381D02*
X150948095Y-104462381D01*
X150995714Y-104938571D01*
X150948095Y-104890952D01*
X150852857Y-104843333D01*
X150614761Y-104843333D01*
X150519523Y-104890952D01*
X150471904Y-104938571D01*
X150424285Y-105033810D01*
X150424285Y-105271905D01*
X150471904Y-105367143D01*
X150519523Y-105414762D01*
X150614761Y-105462381D01*
X150852857Y-105462381D01*
X150948095Y-105414762D01*
X150995714Y-105367143D01*
X151396666Y-102462381D02*
X151730000Y-101986190D01*
X151968095Y-102462381D02*
X151968095Y-101462381D01*
X151587142Y-101462381D01*
X151491904Y-101510000D01*
X151444285Y-101557619D01*
X151396666Y-101652857D01*
X151396666Y-101795714D01*
X151444285Y-101890952D01*
X151491904Y-101938571D01*
X151587142Y-101986190D01*
X151968095Y-101986190D01*
X150539523Y-101462381D02*
X150730000Y-101462381D01*
X150825238Y-101510000D01*
X150872857Y-101557619D01*
X150968095Y-101700476D01*
X151015714Y-101890952D01*
X151015714Y-102271905D01*
X150968095Y-102367143D01*
X150920476Y-102414762D01*
X150825238Y-102462381D01*
X150634761Y-102462381D01*
X150539523Y-102414762D01*
X150491904Y-102367143D01*
X150444285Y-102271905D01*
X150444285Y-102033810D01*
X150491904Y-101938571D01*
X150539523Y-101890952D01*
X150634761Y-101843333D01*
X150825238Y-101843333D01*
X150920476Y-101890952D01*
X150968095Y-101938571D01*
X151015714Y-102033810D01*
M02*
