G04 #@! TF.FileFunction,Legend,Bot*
%FSLAX46Y46*%
G04 Gerber Fmt 4.6, Leading zero omitted, Abs format (unit mm)*
G04 Created by KiCad (PCBNEW 4.0.1-stable) date Tuesday, May 31, 2016 'PMt' 09:27:10 PM*
%MOMM*%
G01*
G04 APERTURE LIST*
%ADD10C,0.100000*%
%ADD11C,0.175000*%
%ADD12C,0.300000*%
%ADD13C,0.200000*%
%ADD14C,0.010000*%
%ADD15C,0.150000*%
G04 APERTURE END LIST*
D10*
D11*
X130302381Y-99345238D02*
X129635714Y-99345238D01*
X129302381Y-99345238D02*
X129350000Y-99297619D01*
X129397619Y-99345238D01*
X129350000Y-99392857D01*
X129302381Y-99345238D01*
X129397619Y-99345238D01*
X129397619Y-99773809D02*
X129350000Y-99821428D01*
X129302381Y-99916666D01*
X129302381Y-100154762D01*
X129350000Y-100250000D01*
X129397619Y-100297619D01*
X129492857Y-100345238D01*
X129588095Y-100345238D01*
X129730952Y-100297619D01*
X130302381Y-99726190D01*
X130302381Y-100345238D01*
X130254762Y-101202381D02*
X130302381Y-101107143D01*
X130302381Y-100916666D01*
X130254762Y-100821428D01*
X130207143Y-100773809D01*
X130111905Y-100726190D01*
X129826190Y-100726190D01*
X129730952Y-100773809D01*
X129683333Y-100821428D01*
X129635714Y-100916666D01*
X129635714Y-101107143D01*
X129683333Y-101202381D01*
X127045238Y-122452381D02*
X127045238Y-123261905D01*
X126997619Y-123357143D01*
X126950000Y-123404762D01*
X126854762Y-123452381D01*
X126664285Y-123452381D01*
X126569047Y-123404762D01*
X126521428Y-123357143D01*
X126473809Y-123261905D01*
X126473809Y-122452381D01*
X126045238Y-123166667D02*
X125569047Y-123166667D01*
X126140476Y-123452381D02*
X125807143Y-122452381D01*
X125473809Y-123452381D01*
X124569047Y-123452381D02*
X124902381Y-122976190D01*
X125140476Y-123452381D02*
X125140476Y-122452381D01*
X124759523Y-122452381D01*
X124664285Y-122500000D01*
X124616666Y-122547619D01*
X124569047Y-122642857D01*
X124569047Y-122785714D01*
X124616666Y-122880952D01*
X124664285Y-122928571D01*
X124759523Y-122976190D01*
X125140476Y-122976190D01*
X124283333Y-122452381D02*
X123711904Y-122452381D01*
X123997619Y-123452381D02*
X123997619Y-122452381D01*
X172575238Y-101572381D02*
X172003809Y-101572381D01*
X172289524Y-102572381D02*
X172289524Y-101572381D01*
X171670476Y-102572381D02*
X171670476Y-101572381D01*
X171194286Y-102572381D02*
X171194286Y-101572381D01*
X170860952Y-102286667D01*
X170527619Y-101572381D01*
X170527619Y-102572381D01*
X169527619Y-101620000D02*
X169622857Y-101572381D01*
X169765714Y-101572381D01*
X169908572Y-101620000D01*
X170003810Y-101715238D01*
X170051429Y-101810476D01*
X170099048Y-102000952D01*
X170099048Y-102143810D01*
X170051429Y-102334286D01*
X170003810Y-102429524D01*
X169908572Y-102524762D01*
X169765714Y-102572381D01*
X169670476Y-102572381D01*
X169527619Y-102524762D01*
X169480000Y-102477143D01*
X169480000Y-102143810D01*
X169670476Y-102143810D01*
X180545238Y-91042381D02*
X179973809Y-91042381D01*
X180259524Y-92042381D02*
X180259524Y-91042381D01*
X179640476Y-92042381D02*
X179640476Y-91042381D01*
X179164286Y-92042381D02*
X179164286Y-91042381D01*
X178830952Y-91756667D01*
X178497619Y-91042381D01*
X178497619Y-92042381D01*
X177497619Y-91090000D02*
X177592857Y-91042381D01*
X177735714Y-91042381D01*
X177878572Y-91090000D01*
X177973810Y-91185238D01*
X178021429Y-91280476D01*
X178069048Y-91470952D01*
X178069048Y-91613810D01*
X178021429Y-91804286D01*
X177973810Y-91899524D01*
X177878572Y-91994762D01*
X177735714Y-92042381D01*
X177640476Y-92042381D01*
X177497619Y-91994762D01*
X177450000Y-91947143D01*
X177450000Y-91613810D01*
X177640476Y-91613810D01*
X175236667Y-95531905D02*
X175236667Y-96008096D01*
X175522381Y-95436667D02*
X174522381Y-95770000D01*
X175522381Y-96103334D01*
X175522381Y-96436667D02*
X174522381Y-96436667D01*
X174522381Y-96674762D01*
X174570000Y-96817620D01*
X174665238Y-96912858D01*
X174760476Y-96960477D01*
X174950952Y-97008096D01*
X175093810Y-97008096D01*
X175284286Y-96960477D01*
X175379524Y-96912858D01*
X175474762Y-96817620D01*
X175522381Y-96674762D01*
X175522381Y-96436667D01*
X175427143Y-98008096D02*
X175474762Y-97960477D01*
X175522381Y-97817620D01*
X175522381Y-97722382D01*
X175474762Y-97579524D01*
X175379524Y-97484286D01*
X175284286Y-97436667D01*
X175093810Y-97389048D01*
X174950952Y-97389048D01*
X174760476Y-97436667D01*
X174665238Y-97484286D01*
X174570000Y-97579524D01*
X174522381Y-97722382D01*
X174522381Y-97817620D01*
X174570000Y-97960477D01*
X174617619Y-98008096D01*
X174532381Y-99353809D02*
X175341905Y-99353809D01*
X175437143Y-99401428D01*
X175484762Y-99449047D01*
X175532381Y-99544285D01*
X175532381Y-99734762D01*
X175484762Y-99830000D01*
X175437143Y-99877619D01*
X175341905Y-99925238D01*
X174532381Y-99925238D01*
X174865714Y-100401428D02*
X175532381Y-100401428D01*
X174960952Y-100401428D02*
X174913333Y-100449047D01*
X174865714Y-100544285D01*
X174865714Y-100687143D01*
X174913333Y-100782381D01*
X175008571Y-100830000D01*
X175532381Y-100830000D01*
X174865714Y-101734762D02*
X175532381Y-101734762D01*
X174865714Y-101306190D02*
X175389524Y-101306190D01*
X175484762Y-101353809D01*
X175532381Y-101449047D01*
X175532381Y-101591905D01*
X175484762Y-101687143D01*
X175437143Y-101734762D01*
X175484762Y-102163333D02*
X175532381Y-102258571D01*
X175532381Y-102449047D01*
X175484762Y-102544286D01*
X175389524Y-102591905D01*
X175341905Y-102591905D01*
X175246667Y-102544286D01*
X175199048Y-102449047D01*
X175199048Y-102306190D01*
X175151429Y-102210952D01*
X175056190Y-102163333D01*
X175008571Y-102163333D01*
X174913333Y-102210952D01*
X174865714Y-102306190D01*
X174865714Y-102449047D01*
X174913333Y-102544286D01*
X175484762Y-103401429D02*
X175532381Y-103306191D01*
X175532381Y-103115714D01*
X175484762Y-103020476D01*
X175389524Y-102972857D01*
X175008571Y-102972857D01*
X174913333Y-103020476D01*
X174865714Y-103115714D01*
X174865714Y-103306191D01*
X174913333Y-103401429D01*
X175008571Y-103449048D01*
X175103810Y-103449048D01*
X175199048Y-102972857D01*
X175532381Y-104306191D02*
X174532381Y-104306191D01*
X175484762Y-104306191D02*
X175532381Y-104210953D01*
X175532381Y-104020476D01*
X175484762Y-103925238D01*
X175437143Y-103877619D01*
X175341905Y-103830000D01*
X175056190Y-103830000D01*
X174960952Y-103877619D01*
X174913333Y-103925238D01*
X174865714Y-104020476D01*
X174865714Y-104210953D01*
X174913333Y-104306191D01*
X179953809Y-124574762D02*
X179810952Y-124622381D01*
X179572856Y-124622381D01*
X179477618Y-124574762D01*
X179429999Y-124527143D01*
X179382380Y-124431905D01*
X179382380Y-124336667D01*
X179429999Y-124241429D01*
X179477618Y-124193810D01*
X179572856Y-124146190D01*
X179763333Y-124098571D01*
X179858571Y-124050952D01*
X179906190Y-124003333D01*
X179953809Y-123908095D01*
X179953809Y-123812857D01*
X179906190Y-123717619D01*
X179858571Y-123670000D01*
X179763333Y-123622381D01*
X179525237Y-123622381D01*
X179382380Y-123670000D01*
X178953809Y-124622381D02*
X178953809Y-123622381D01*
X178572856Y-123622381D01*
X178477618Y-123670000D01*
X178429999Y-123717619D01*
X178382380Y-123812857D01*
X178382380Y-123955714D01*
X178429999Y-124050952D01*
X178477618Y-124098571D01*
X178572856Y-124146190D01*
X178953809Y-124146190D01*
X177953809Y-124622381D02*
X177953809Y-123622381D01*
X172283809Y-113904762D02*
X172140952Y-113952381D01*
X171902856Y-113952381D01*
X171807618Y-113904762D01*
X171759999Y-113857143D01*
X171712380Y-113761905D01*
X171712380Y-113666667D01*
X171759999Y-113571429D01*
X171807618Y-113523810D01*
X171902856Y-113476190D01*
X172093333Y-113428571D01*
X172188571Y-113380952D01*
X172236190Y-113333333D01*
X172283809Y-113238095D01*
X172283809Y-113142857D01*
X172236190Y-113047619D01*
X172188571Y-113000000D01*
X172093333Y-112952381D01*
X171855237Y-112952381D01*
X171712380Y-113000000D01*
X171283809Y-113952381D02*
X171283809Y-112952381D01*
X170902856Y-112952381D01*
X170807618Y-113000000D01*
X170759999Y-113047619D01*
X170712380Y-113142857D01*
X170712380Y-113285714D01*
X170759999Y-113380952D01*
X170807618Y-113428571D01*
X170902856Y-113476190D01*
X171283809Y-113476190D01*
X170283809Y-113952381D02*
X170283809Y-112952381D01*
X166704762Y-122356191D02*
X166752381Y-122499048D01*
X166752381Y-122737144D01*
X166704762Y-122832382D01*
X166657143Y-122880001D01*
X166561905Y-122927620D01*
X166466667Y-122927620D01*
X166371429Y-122880001D01*
X166323810Y-122832382D01*
X166276190Y-122737144D01*
X166228571Y-122546667D01*
X166180952Y-122451429D01*
X166133333Y-122403810D01*
X166038095Y-122356191D01*
X165942857Y-122356191D01*
X165847619Y-122403810D01*
X165800000Y-122451429D01*
X165752381Y-122546667D01*
X165752381Y-122784763D01*
X165800000Y-122927620D01*
X166752381Y-123356191D02*
X165752381Y-123356191D01*
X165752381Y-123737144D01*
X165800000Y-123832382D01*
X165847619Y-123880001D01*
X165942857Y-123927620D01*
X166085714Y-123927620D01*
X166180952Y-123880001D01*
X166228571Y-123832382D01*
X166276190Y-123737144D01*
X166276190Y-123356191D01*
X166752381Y-124356191D02*
X165752381Y-124356191D01*
X159052381Y-120894762D02*
X159861905Y-120894762D01*
X159957143Y-120942381D01*
X160004762Y-120990000D01*
X160052381Y-121085238D01*
X160052381Y-121275715D01*
X160004762Y-121370953D01*
X159957143Y-121418572D01*
X159861905Y-121466191D01*
X159052381Y-121466191D01*
X159766667Y-121894762D02*
X159766667Y-122370953D01*
X160052381Y-121799524D02*
X159052381Y-122132857D01*
X160052381Y-122466191D01*
X160052381Y-123370953D02*
X159576190Y-123037619D01*
X160052381Y-122799524D02*
X159052381Y-122799524D01*
X159052381Y-123180477D01*
X159100000Y-123275715D01*
X159147619Y-123323334D01*
X159242857Y-123370953D01*
X159385714Y-123370953D01*
X159480952Y-123323334D01*
X159528571Y-123275715D01*
X159576190Y-123180477D01*
X159576190Y-122799524D01*
X159052381Y-123656667D02*
X159052381Y-124228096D01*
X160052381Y-123942381D02*
X159052381Y-123942381D01*
X136562381Y-120934762D02*
X137371905Y-120934762D01*
X137467143Y-120982381D01*
X137514762Y-121030000D01*
X137562381Y-121125238D01*
X137562381Y-121315715D01*
X137514762Y-121410953D01*
X137467143Y-121458572D01*
X137371905Y-121506191D01*
X136562381Y-121506191D01*
X137276667Y-121934762D02*
X137276667Y-122410953D01*
X137562381Y-121839524D02*
X136562381Y-122172857D01*
X137562381Y-122506191D01*
X137562381Y-123410953D02*
X137086190Y-123077619D01*
X137562381Y-122839524D02*
X136562381Y-122839524D01*
X136562381Y-123220477D01*
X136610000Y-123315715D01*
X136657619Y-123363334D01*
X136752857Y-123410953D01*
X136895714Y-123410953D01*
X136990952Y-123363334D01*
X137038571Y-123315715D01*
X137086190Y-123220477D01*
X137086190Y-122839524D01*
X136562381Y-123696667D02*
X136562381Y-124268096D01*
X137562381Y-123982381D02*
X136562381Y-123982381D01*
X129502381Y-115104762D02*
X130311905Y-115104762D01*
X130407143Y-115152381D01*
X130454762Y-115200000D01*
X130502381Y-115295238D01*
X130502381Y-115485715D01*
X130454762Y-115580953D01*
X130407143Y-115628572D01*
X130311905Y-115676191D01*
X129502381Y-115676191D01*
X130216667Y-116104762D02*
X130216667Y-116580953D01*
X130502381Y-116009524D02*
X129502381Y-116342857D01*
X130502381Y-116676191D01*
X130502381Y-117580953D02*
X130026190Y-117247619D01*
X130502381Y-117009524D02*
X129502381Y-117009524D01*
X129502381Y-117390477D01*
X129550000Y-117485715D01*
X129597619Y-117533334D01*
X129692857Y-117580953D01*
X129835714Y-117580953D01*
X129930952Y-117533334D01*
X129978571Y-117485715D01*
X130026190Y-117390477D01*
X130026190Y-117009524D01*
X129502381Y-117866667D02*
X129502381Y-118438096D01*
X130502381Y-118152381D02*
X129502381Y-118152381D01*
X148705238Y-95302381D02*
X148133809Y-95302381D01*
X148419524Y-96302381D02*
X148419524Y-95302381D01*
X147800476Y-96302381D02*
X147800476Y-95302381D01*
X147324286Y-96302381D02*
X147324286Y-95302381D01*
X146990952Y-96016667D01*
X146657619Y-95302381D01*
X146657619Y-96302381D01*
X140929999Y-95320000D02*
X141025237Y-95272381D01*
X141168094Y-95272381D01*
X141310952Y-95320000D01*
X141406190Y-95415238D01*
X141453809Y-95510476D01*
X141501428Y-95700952D01*
X141501428Y-95843810D01*
X141453809Y-96034286D01*
X141406190Y-96129524D01*
X141310952Y-96224762D01*
X141168094Y-96272381D01*
X141072856Y-96272381D01*
X140929999Y-96224762D01*
X140882380Y-96177143D01*
X140882380Y-95843810D01*
X141072856Y-95843810D01*
X140453809Y-96272381D02*
X140453809Y-95272381D01*
X140072856Y-95272381D01*
X139977618Y-95320000D01*
X139929999Y-95367619D01*
X139882380Y-95462857D01*
X139882380Y-95605714D01*
X139929999Y-95700952D01*
X139977618Y-95748571D01*
X140072856Y-95796190D01*
X140453809Y-95796190D01*
X139453809Y-96272381D02*
X139453809Y-95272381D01*
X138787143Y-95272381D02*
X138596666Y-95272381D01*
X138501428Y-95320000D01*
X138406190Y-95415238D01*
X138358571Y-95605714D01*
X138358571Y-95939048D01*
X138406190Y-96129524D01*
X138501428Y-96224762D01*
X138596666Y-96272381D01*
X138787143Y-96272381D01*
X138882381Y-96224762D01*
X138977619Y-96129524D01*
X139025238Y-95939048D01*
X139025238Y-95605714D01*
X138977619Y-95415238D01*
X138882381Y-95320000D01*
X138787143Y-95272381D01*
X128620000Y-95430001D02*
X128572381Y-95334763D01*
X128572381Y-95191906D01*
X128620000Y-95049048D01*
X128715238Y-94953810D01*
X128810476Y-94906191D01*
X129000952Y-94858572D01*
X129143810Y-94858572D01*
X129334286Y-94906191D01*
X129429524Y-94953810D01*
X129524762Y-95049048D01*
X129572381Y-95191906D01*
X129572381Y-95287144D01*
X129524762Y-95430001D01*
X129477143Y-95477620D01*
X129143810Y-95477620D01*
X129143810Y-95287144D01*
X129572381Y-95906191D02*
X128572381Y-95906191D01*
X128572381Y-96287144D01*
X128620000Y-96382382D01*
X128667619Y-96430001D01*
X128762857Y-96477620D01*
X128905714Y-96477620D01*
X129000952Y-96430001D01*
X129048571Y-96382382D01*
X129096190Y-96287144D01*
X129096190Y-95906191D01*
X129572381Y-96906191D02*
X128572381Y-96906191D01*
X128572381Y-97572857D02*
X128572381Y-97763334D01*
X128620000Y-97858572D01*
X128715238Y-97953810D01*
X128905714Y-98001429D01*
X129239048Y-98001429D01*
X129429524Y-97953810D01*
X129524762Y-97858572D01*
X129572381Y-97763334D01*
X129572381Y-97572857D01*
X129524762Y-97477619D01*
X129429524Y-97382381D01*
X129239048Y-97334762D01*
X128905714Y-97334762D01*
X128715238Y-97382381D01*
X128620000Y-97477619D01*
X128572381Y-97572857D01*
D12*
X128727828Y-107853943D02*
X127584971Y-107853943D01*
X128156400Y-108425371D02*
X128156400Y-107282514D01*
X126370685Y-107639657D02*
X126156399Y-107711086D01*
X126084971Y-107782514D01*
X126013542Y-107925371D01*
X126013542Y-108139657D01*
X126084971Y-108282514D01*
X126156399Y-108353943D01*
X126299257Y-108425371D01*
X126870685Y-108425371D01*
X126870685Y-106925371D01*
X126370685Y-106925371D01*
X126227828Y-106996800D01*
X126156399Y-107068229D01*
X126084971Y-107211086D01*
X126084971Y-107353943D01*
X126156399Y-107496800D01*
X126227828Y-107568229D01*
X126370685Y-107639657D01*
X126870685Y-107639657D01*
X128513542Y-104334571D02*
X127584971Y-104334571D01*
X128084971Y-104906000D01*
X127870685Y-104906000D01*
X127727828Y-104977429D01*
X127656399Y-105048857D01*
X127584971Y-105191714D01*
X127584971Y-105548857D01*
X127656399Y-105691714D01*
X127727828Y-105763143D01*
X127870685Y-105834571D01*
X128299257Y-105834571D01*
X128442114Y-105763143D01*
X128513542Y-105691714D01*
X126227828Y-105834571D02*
X126942114Y-105834571D01*
X126942114Y-104334571D01*
D11*
X149872855Y-111080119D02*
X149872855Y-109980119D01*
X149872855Y-110503929D02*
X149244284Y-110503929D01*
X149244284Y-111080119D02*
X149244284Y-109980119D01*
X148301427Y-111027738D02*
X148406189Y-111080119D01*
X148615712Y-111080119D01*
X148720474Y-111027738D01*
X148772855Y-110922976D01*
X148772855Y-110503929D01*
X148720474Y-110399167D01*
X148615712Y-110346786D01*
X148406189Y-110346786D01*
X148301427Y-110399167D01*
X148249046Y-110503929D01*
X148249046Y-110608690D01*
X148772855Y-110713452D01*
X147777617Y-111080119D02*
X147777617Y-110346786D01*
X147777617Y-109980119D02*
X147829998Y-110032500D01*
X147777617Y-110084881D01*
X147725236Y-110032500D01*
X147777617Y-109980119D01*
X147777617Y-110084881D01*
X146782379Y-110346786D02*
X146782379Y-111237262D01*
X146834760Y-111342024D01*
X146887141Y-111394405D01*
X146991902Y-111446786D01*
X147149045Y-111446786D01*
X147253807Y-111394405D01*
X146782379Y-111027738D02*
X146887141Y-111080119D01*
X147096664Y-111080119D01*
X147201426Y-111027738D01*
X147253807Y-110975357D01*
X147306188Y-110870595D01*
X147306188Y-110556310D01*
X147253807Y-110451548D01*
X147201426Y-110399167D01*
X147096664Y-110346786D01*
X146887141Y-110346786D01*
X146782379Y-110399167D01*
X146258569Y-111080119D02*
X146258569Y-109980119D01*
X145787141Y-111080119D02*
X145787141Y-110503929D01*
X145839522Y-110399167D01*
X145944284Y-110346786D01*
X146101426Y-110346786D01*
X146206188Y-110399167D01*
X146258569Y-110451548D01*
X145420474Y-110346786D02*
X145001426Y-110346786D01*
X145263331Y-109980119D02*
X145263331Y-110922976D01*
X145210950Y-111027738D01*
X145106188Y-111080119D01*
X145001426Y-111080119D01*
X143796665Y-110346786D02*
X143796665Y-111446786D01*
X143796665Y-110399167D02*
X143691903Y-110346786D01*
X143482380Y-110346786D01*
X143377618Y-110399167D01*
X143325237Y-110451548D01*
X143272856Y-110556310D01*
X143272856Y-110870595D01*
X143325237Y-110975357D01*
X143377618Y-111027738D01*
X143482380Y-111080119D01*
X143691903Y-111080119D01*
X143796665Y-111027738D01*
X142329999Y-110346786D02*
X142329999Y-111080119D01*
X142801427Y-110346786D02*
X142801427Y-110922976D01*
X142749046Y-111027738D01*
X142644284Y-111080119D01*
X142487142Y-111080119D01*
X142382380Y-111027738D01*
X142329999Y-110975357D01*
X141649046Y-111080119D02*
X141753808Y-111027738D01*
X141806189Y-110922976D01*
X141806189Y-109980119D01*
X141072856Y-111080119D02*
X141177618Y-111027738D01*
X141229999Y-110922976D01*
X141229999Y-109980119D01*
X140234762Y-111027738D02*
X140339524Y-111080119D01*
X140549047Y-111080119D01*
X140653809Y-111027738D01*
X140706190Y-110922976D01*
X140706190Y-110503929D01*
X140653809Y-110399167D01*
X140549047Y-110346786D01*
X140339524Y-110346786D01*
X140234762Y-110399167D01*
X140182381Y-110503929D01*
X140182381Y-110608690D01*
X140706190Y-110713452D01*
X139239524Y-111080119D02*
X139239524Y-109980119D01*
X139239524Y-111027738D02*
X139344286Y-111080119D01*
X139553809Y-111080119D01*
X139658571Y-111027738D01*
X139710952Y-110975357D01*
X139763333Y-110870595D01*
X139763333Y-110556310D01*
X139710952Y-110451548D01*
X139658571Y-110399167D01*
X139553809Y-110346786D01*
X139344286Y-110346786D01*
X139239524Y-110399167D01*
X138034762Y-110346786D02*
X137615714Y-110346786D01*
X137877619Y-109980119D02*
X137877619Y-110922976D01*
X137825238Y-111027738D01*
X137720476Y-111080119D01*
X137615714Y-111080119D01*
X137091905Y-111080119D02*
X137196667Y-111027738D01*
X137249048Y-110975357D01*
X137301429Y-110870595D01*
X137301429Y-110556310D01*
X137249048Y-110451548D01*
X137196667Y-110399167D01*
X137091905Y-110346786D01*
X136934763Y-110346786D01*
X136830001Y-110399167D01*
X136777620Y-110451548D01*
X136725239Y-110556310D01*
X136725239Y-110870595D01*
X136777620Y-110975357D01*
X136830001Y-111027738D01*
X136934763Y-111080119D01*
X137091905Y-111080119D01*
X134839525Y-110032500D02*
X134944287Y-109980119D01*
X135101430Y-109980119D01*
X135258572Y-110032500D01*
X135363334Y-110137262D01*
X135415715Y-110242024D01*
X135468096Y-110451548D01*
X135468096Y-110608690D01*
X135415715Y-110818214D01*
X135363334Y-110922976D01*
X135258572Y-111027738D01*
X135101430Y-111080119D01*
X134996668Y-111080119D01*
X134839525Y-111027738D01*
X134787144Y-110975357D01*
X134787144Y-110608690D01*
X134996668Y-110608690D01*
X134315715Y-111080119D02*
X134315715Y-109980119D01*
X133687144Y-111080119D01*
X133687144Y-109980119D01*
X133163334Y-111080119D02*
X133163334Y-109980119D01*
X132901429Y-109980119D01*
X132744287Y-110032500D01*
X132639525Y-110137262D01*
X132587144Y-110242024D01*
X132534763Y-110451548D01*
X132534763Y-110608690D01*
X132587144Y-110818214D01*
X132639525Y-110922976D01*
X132744287Y-111027738D01*
X132901429Y-111080119D01*
X133163334Y-111080119D01*
X149296665Y-112061786D02*
X148877617Y-112061786D01*
X149139522Y-112795119D02*
X149139522Y-111852262D01*
X149087141Y-111747500D01*
X148982379Y-111695119D01*
X148877617Y-111695119D01*
X148353808Y-112795119D02*
X148458570Y-112742738D01*
X148510951Y-112690357D01*
X148563332Y-112585595D01*
X148563332Y-112271310D01*
X148510951Y-112166548D01*
X148458570Y-112114167D01*
X148353808Y-112061786D01*
X148196666Y-112061786D01*
X148091904Y-112114167D01*
X148039523Y-112166548D01*
X147987142Y-112271310D01*
X147987142Y-112585595D01*
X148039523Y-112690357D01*
X148091904Y-112742738D01*
X148196666Y-112795119D01*
X148353808Y-112795119D01*
X147515713Y-112795119D02*
X147515713Y-112061786D01*
X147515713Y-112271310D02*
X147463332Y-112166548D01*
X147410951Y-112114167D01*
X147306189Y-112061786D01*
X147201428Y-112061786D01*
X146049047Y-112742738D02*
X145944285Y-112795119D01*
X145734761Y-112795119D01*
X145630000Y-112742738D01*
X145577619Y-112637976D01*
X145577619Y-112585595D01*
X145630000Y-112480833D01*
X145734761Y-112428452D01*
X145891904Y-112428452D01*
X145996666Y-112376071D01*
X146049047Y-112271310D01*
X146049047Y-112218929D01*
X145996666Y-112114167D01*
X145891904Y-112061786D01*
X145734761Y-112061786D01*
X145630000Y-112114167D01*
X145263333Y-112061786D02*
X144844285Y-112061786D01*
X145106190Y-111695119D02*
X145106190Y-112637976D01*
X145053809Y-112742738D01*
X144949047Y-112795119D01*
X144844285Y-112795119D01*
X144006191Y-112795119D02*
X144006191Y-112218929D01*
X144058572Y-112114167D01*
X144163334Y-112061786D01*
X144372857Y-112061786D01*
X144477619Y-112114167D01*
X144006191Y-112742738D02*
X144110953Y-112795119D01*
X144372857Y-112795119D01*
X144477619Y-112742738D01*
X144530000Y-112637976D01*
X144530000Y-112533214D01*
X144477619Y-112428452D01*
X144372857Y-112376071D01*
X144110953Y-112376071D01*
X144006191Y-112323690D01*
X143482381Y-112061786D02*
X143482381Y-112795119D01*
X143482381Y-112166548D02*
X143430000Y-112114167D01*
X143325238Y-112061786D01*
X143168096Y-112061786D01*
X143063334Y-112114167D01*
X143010953Y-112218929D01*
X143010953Y-112795119D01*
X142015715Y-112795119D02*
X142015715Y-111695119D01*
X142015715Y-112742738D02*
X142120477Y-112795119D01*
X142330000Y-112795119D01*
X142434762Y-112742738D01*
X142487143Y-112690357D01*
X142539524Y-112585595D01*
X142539524Y-112271310D01*
X142487143Y-112166548D01*
X142434762Y-112114167D01*
X142330000Y-112061786D01*
X142120477Y-112061786D01*
X142015715Y-112114167D01*
X141020477Y-112795119D02*
X141020477Y-112218929D01*
X141072858Y-112114167D01*
X141177620Y-112061786D01*
X141387143Y-112061786D01*
X141491905Y-112114167D01*
X141020477Y-112742738D02*
X141125239Y-112795119D01*
X141387143Y-112795119D01*
X141491905Y-112742738D01*
X141544286Y-112637976D01*
X141544286Y-112533214D01*
X141491905Y-112428452D01*
X141387143Y-112376071D01*
X141125239Y-112376071D01*
X141020477Y-112323690D01*
X140339524Y-112795119D02*
X140444286Y-112742738D01*
X140496667Y-112637976D01*
X140496667Y-111695119D01*
X139763334Y-112795119D02*
X139868096Y-112742738D01*
X139920477Y-112690357D01*
X139972858Y-112585595D01*
X139972858Y-112271310D01*
X139920477Y-112166548D01*
X139868096Y-112114167D01*
X139763334Y-112061786D01*
X139606192Y-112061786D01*
X139501430Y-112114167D01*
X139449049Y-112166548D01*
X139396668Y-112271310D01*
X139396668Y-112585595D01*
X139449049Y-112690357D01*
X139501430Y-112742738D01*
X139606192Y-112795119D01*
X139763334Y-112795119D01*
X138925239Y-112061786D02*
X138925239Y-112795119D01*
X138925239Y-112166548D02*
X138872858Y-112114167D01*
X138768096Y-112061786D01*
X138610954Y-112061786D01*
X138506192Y-112114167D01*
X138453811Y-112218929D01*
X138453811Y-112795119D01*
X137510954Y-112742738D02*
X137615716Y-112795119D01*
X137825239Y-112795119D01*
X137930001Y-112742738D01*
X137982382Y-112637976D01*
X137982382Y-112218929D01*
X137930001Y-112114167D01*
X137825239Y-112061786D01*
X137615716Y-112061786D01*
X137510954Y-112114167D01*
X137458573Y-112218929D01*
X137458573Y-112323690D01*
X137982382Y-112428452D01*
X135677621Y-112061786D02*
X135677621Y-112795119D01*
X136149049Y-112061786D02*
X136149049Y-112637976D01*
X136096668Y-112742738D01*
X135991906Y-112795119D01*
X135834764Y-112795119D01*
X135730002Y-112742738D01*
X135677621Y-112690357D01*
X135206192Y-112742738D02*
X135101430Y-112795119D01*
X134891906Y-112795119D01*
X134787145Y-112742738D01*
X134734764Y-112637976D01*
X134734764Y-112585595D01*
X134787145Y-112480833D01*
X134891906Y-112428452D01*
X135049049Y-112428452D01*
X135153811Y-112376071D01*
X135206192Y-112271310D01*
X135206192Y-112218929D01*
X135153811Y-112114167D01*
X135049049Y-112061786D01*
X134891906Y-112061786D01*
X134787145Y-112114167D01*
X133844288Y-112742738D02*
X133949050Y-112795119D01*
X134158573Y-112795119D01*
X134263335Y-112742738D01*
X134315716Y-112637976D01*
X134315716Y-112218929D01*
X134263335Y-112114167D01*
X134158573Y-112061786D01*
X133949050Y-112061786D01*
X133844288Y-112114167D01*
X133791907Y-112218929D01*
X133791907Y-112323690D01*
X134315716Y-112428452D01*
X133320478Y-112690357D02*
X133268097Y-112742738D01*
X133320478Y-112795119D01*
X133372859Y-112742738D01*
X133320478Y-112690357D01*
X133320478Y-112795119D01*
D12*
X172905029Y-98679143D02*
X172833600Y-98750572D01*
X172762171Y-98893429D01*
X172762171Y-99250572D01*
X172833600Y-99393429D01*
X172905029Y-99464858D01*
X173047886Y-99536286D01*
X173190743Y-99536286D01*
X173405029Y-99464858D01*
X174262171Y-98607715D01*
X174262171Y-99536286D01*
X172905029Y-100107714D02*
X172833600Y-100179143D01*
X172762171Y-100322000D01*
X172762171Y-100679143D01*
X172833600Y-100822000D01*
X172905029Y-100893429D01*
X173047886Y-100964857D01*
X173190743Y-100964857D01*
X173405029Y-100893429D01*
X174262171Y-100036286D01*
X174262171Y-100964857D01*
X171671371Y-99536286D02*
X171671371Y-98679143D01*
X171671371Y-99107715D02*
X170171371Y-99107715D01*
X170385657Y-98964858D01*
X170528514Y-98822000D01*
X170599943Y-98679143D01*
X170671371Y-100822000D02*
X171671371Y-100822000D01*
X170099943Y-100464857D02*
X171171371Y-100107714D01*
X171171371Y-101036286D01*
X169080571Y-99536286D02*
X169080571Y-98679143D01*
X169080571Y-99107715D02*
X167580571Y-99107715D01*
X167794857Y-98964858D01*
X167937714Y-98822000D01*
X168009143Y-98679143D01*
X167723429Y-100107714D02*
X167652000Y-100179143D01*
X167580571Y-100322000D01*
X167580571Y-100679143D01*
X167652000Y-100822000D01*
X167723429Y-100893429D01*
X167866286Y-100964857D01*
X168009143Y-100964857D01*
X168223429Y-100893429D01*
X169080571Y-100036286D01*
X169080571Y-100964857D01*
X172905029Y-95326343D02*
X172833600Y-95397772D01*
X172762171Y-95540629D01*
X172762171Y-95897772D01*
X172833600Y-96040629D01*
X172905029Y-96112058D01*
X173047886Y-96183486D01*
X173190743Y-96183486D01*
X173405029Y-96112058D01*
X174262171Y-95254915D01*
X174262171Y-96183486D01*
X174262171Y-97612057D02*
X174262171Y-96754914D01*
X174262171Y-97183486D02*
X172762171Y-97183486D01*
X172976457Y-97040629D01*
X173119314Y-96897771D01*
X173190743Y-96754914D01*
X171671371Y-96183486D02*
X171671371Y-95326343D01*
X171671371Y-95754915D02*
X170171371Y-95754915D01*
X170385657Y-95612058D01*
X170528514Y-95469200D01*
X170599943Y-95326343D01*
X170171371Y-96683486D02*
X170171371Y-97612057D01*
X170742800Y-97112057D01*
X170742800Y-97326343D01*
X170814229Y-97469200D01*
X170885657Y-97540629D01*
X171028514Y-97612057D01*
X171385657Y-97612057D01*
X171528514Y-97540629D01*
X171599943Y-97469200D01*
X171671371Y-97326343D01*
X171671371Y-96897771D01*
X171599943Y-96754914D01*
X171528514Y-96683486D01*
X169080571Y-96031086D02*
X169080571Y-95173943D01*
X169080571Y-95602515D02*
X167580571Y-95602515D01*
X167794857Y-95459658D01*
X167937714Y-95316800D01*
X168009143Y-95173943D01*
X169080571Y-97459657D02*
X169080571Y-96602514D01*
X169080571Y-97031086D02*
X167580571Y-97031086D01*
X167794857Y-96888229D01*
X167937714Y-96745371D01*
X168009143Y-96602514D01*
D13*
X167487600Y-98145600D02*
X174345600Y-98145600D01*
D12*
X182041657Y-93657029D02*
X181970228Y-93585600D01*
X181827371Y-93514171D01*
X181470228Y-93514171D01*
X181327371Y-93585600D01*
X181255942Y-93657029D01*
X181184514Y-93799886D01*
X181184514Y-93942743D01*
X181255942Y-94157029D01*
X182113085Y-95014171D01*
X181184514Y-95014171D01*
X180684514Y-93514171D02*
X179755943Y-93514171D01*
X180255943Y-94085600D01*
X180041657Y-94085600D01*
X179898800Y-94157029D01*
X179827371Y-94228457D01*
X179755943Y-94371314D01*
X179755943Y-94728457D01*
X179827371Y-94871314D01*
X179898800Y-94942743D01*
X180041657Y-95014171D01*
X180470229Y-95014171D01*
X180613086Y-94942743D01*
X180684514Y-94871314D01*
X178079257Y-93657029D02*
X178007828Y-93585600D01*
X177864971Y-93514171D01*
X177507828Y-93514171D01*
X177364971Y-93585600D01*
X177293542Y-93657029D01*
X177222114Y-93799886D01*
X177222114Y-93942743D01*
X177293542Y-94157029D01*
X178150685Y-95014171D01*
X177222114Y-95014171D01*
X175936400Y-94014171D02*
X175936400Y-95014171D01*
X176293543Y-93442743D02*
X176650686Y-94514171D01*
X175722114Y-94514171D01*
X177364971Y-96247829D02*
X177293542Y-96176400D01*
X177150685Y-96104971D01*
X176793542Y-96104971D01*
X176650685Y-96176400D01*
X176579256Y-96247829D01*
X176507828Y-96390686D01*
X176507828Y-96533543D01*
X176579256Y-96747829D01*
X177436399Y-97604971D01*
X176507828Y-97604971D01*
X180470228Y-97604971D02*
X181327371Y-97604971D01*
X180898799Y-97604971D02*
X180898799Y-96104971D01*
X181041656Y-96319257D01*
X181184514Y-96462114D01*
X181327371Y-96533543D01*
X181408342Y-98543371D02*
X182122628Y-98543371D01*
X182194057Y-99257657D01*
X182122628Y-99186229D01*
X181979771Y-99114800D01*
X181622628Y-99114800D01*
X181479771Y-99186229D01*
X181408342Y-99257657D01*
X181336914Y-99400514D01*
X181336914Y-99757657D01*
X181408342Y-99900514D01*
X181479771Y-99971943D01*
X181622628Y-100043371D01*
X181979771Y-100043371D01*
X182122628Y-99971943D01*
X182194057Y-99900514D01*
X179979771Y-98543371D02*
X180694057Y-98543371D01*
X180765486Y-99257657D01*
X180694057Y-99186229D01*
X180551200Y-99114800D01*
X180194057Y-99114800D01*
X180051200Y-99186229D01*
X179979771Y-99257657D01*
X179908343Y-99400514D01*
X179908343Y-99757657D01*
X179979771Y-99900514D01*
X180051200Y-99971943D01*
X180194057Y-100043371D01*
X180551200Y-100043371D01*
X180694057Y-99971943D01*
X180765486Y-99900514D01*
X177293542Y-98543371D02*
X178007828Y-98543371D01*
X178079257Y-99257657D01*
X178007828Y-99186229D01*
X177864971Y-99114800D01*
X177507828Y-99114800D01*
X177364971Y-99186229D01*
X177293542Y-99257657D01*
X177222114Y-99400514D01*
X177222114Y-99757657D01*
X177293542Y-99900514D01*
X177364971Y-99971943D01*
X177507828Y-100043371D01*
X177864971Y-100043371D01*
X178007828Y-99971943D01*
X178079257Y-99900514D01*
X175936400Y-98543371D02*
X176222114Y-98543371D01*
X176364971Y-98614800D01*
X176436400Y-98686229D01*
X176579257Y-98900514D01*
X176650686Y-99186229D01*
X176650686Y-99757657D01*
X176579257Y-99900514D01*
X176507829Y-99971943D01*
X176364971Y-100043371D01*
X176079257Y-100043371D01*
X175936400Y-99971943D01*
X175864971Y-99900514D01*
X175793543Y-99757657D01*
X175793543Y-99400514D01*
X175864971Y-99257657D01*
X175936400Y-99186229D01*
X176079257Y-99114800D01*
X176364971Y-99114800D01*
X176507829Y-99186229D01*
X176579257Y-99257657D01*
X176650686Y-99400514D01*
X177293542Y-101134171D02*
X178007828Y-101134171D01*
X178079257Y-101848457D01*
X178007828Y-101777029D01*
X177864971Y-101705600D01*
X177507828Y-101705600D01*
X177364971Y-101777029D01*
X177293542Y-101848457D01*
X177222114Y-101991314D01*
X177222114Y-102348457D01*
X177293542Y-102491314D01*
X177364971Y-102562743D01*
X177507828Y-102634171D01*
X177864971Y-102634171D01*
X178007828Y-102562743D01*
X178079257Y-102491314D01*
X175936400Y-101634171D02*
X175936400Y-102634171D01*
X176293543Y-101062743D02*
X176650686Y-102134171D01*
X175722114Y-102134171D01*
X181408342Y-101134171D02*
X182122628Y-101134171D01*
X182194057Y-101848457D01*
X182122628Y-101777029D01*
X181979771Y-101705600D01*
X181622628Y-101705600D01*
X181479771Y-101777029D01*
X181408342Y-101848457D01*
X181336914Y-101991314D01*
X181336914Y-102348457D01*
X181408342Y-102491314D01*
X181479771Y-102562743D01*
X181622628Y-102634171D01*
X181979771Y-102634171D01*
X182122628Y-102562743D01*
X182194057Y-102491314D01*
X180836914Y-101134171D02*
X179908343Y-101134171D01*
X180408343Y-101705600D01*
X180194057Y-101705600D01*
X180051200Y-101777029D01*
X179979771Y-101848457D01*
X179908343Y-101991314D01*
X179908343Y-102348457D01*
X179979771Y-102491314D01*
X180051200Y-102562743D01*
X180194057Y-102634171D01*
X180622629Y-102634171D01*
X180765486Y-102562743D01*
X180836914Y-102491314D01*
X181408342Y-103572571D02*
X182122628Y-103572571D01*
X182194057Y-104286857D01*
X182122628Y-104215429D01*
X181979771Y-104144000D01*
X181622628Y-104144000D01*
X181479771Y-104215429D01*
X181408342Y-104286857D01*
X181336914Y-104429714D01*
X181336914Y-104786857D01*
X181408342Y-104929714D01*
X181479771Y-105001143D01*
X181622628Y-105072571D01*
X181979771Y-105072571D01*
X182122628Y-105001143D01*
X182194057Y-104929714D01*
X179908343Y-105072571D02*
X180765486Y-105072571D01*
X180336914Y-105072571D02*
X180336914Y-103572571D01*
X180479771Y-103786857D01*
X180622629Y-103929714D01*
X180765486Y-104001143D01*
X177293542Y-103572571D02*
X178007828Y-103572571D01*
X178079257Y-104286857D01*
X178007828Y-104215429D01*
X177864971Y-104144000D01*
X177507828Y-104144000D01*
X177364971Y-104215429D01*
X177293542Y-104286857D01*
X177222114Y-104429714D01*
X177222114Y-104786857D01*
X177293542Y-104929714D01*
X177364971Y-105001143D01*
X177507828Y-105072571D01*
X177864971Y-105072571D01*
X178007828Y-105001143D01*
X178079257Y-104929714D01*
X176650686Y-103715429D02*
X176579257Y-103644000D01*
X176436400Y-103572571D01*
X176079257Y-103572571D01*
X175936400Y-103644000D01*
X175864971Y-103715429D01*
X175793543Y-103858286D01*
X175793543Y-104001143D01*
X175864971Y-104215429D01*
X176722114Y-105072571D01*
X175793543Y-105072571D01*
X180301200Y-107061143D02*
X180229771Y-106918286D01*
X180229771Y-106704000D01*
X180301200Y-106489715D01*
X180444057Y-106346857D01*
X180586914Y-106275429D01*
X180872629Y-106204000D01*
X181086914Y-106204000D01*
X181372629Y-106275429D01*
X181515486Y-106346857D01*
X181658343Y-106489715D01*
X181729771Y-106704000D01*
X181729771Y-106846857D01*
X181658343Y-107061143D01*
X181586914Y-107132572D01*
X181086914Y-107132572D01*
X181086914Y-106846857D01*
X181729771Y-107775429D02*
X180229771Y-107775429D01*
X181729771Y-108632572D01*
X180229771Y-108632572D01*
X181729771Y-109346858D02*
X180229771Y-109346858D01*
X180229771Y-109704001D01*
X180301200Y-109918286D01*
X180444057Y-110061144D01*
X180586914Y-110132572D01*
X180872629Y-110204001D01*
X181086914Y-110204001D01*
X181372629Y-110132572D01*
X181515486Y-110061144D01*
X181658343Y-109918286D01*
X181729771Y-109704001D01*
X181729771Y-109346858D01*
X176338800Y-107061143D02*
X176267371Y-106918286D01*
X176267371Y-106704000D01*
X176338800Y-106489715D01*
X176481657Y-106346857D01*
X176624514Y-106275429D01*
X176910229Y-106204000D01*
X177124514Y-106204000D01*
X177410229Y-106275429D01*
X177553086Y-106346857D01*
X177695943Y-106489715D01*
X177767371Y-106704000D01*
X177767371Y-106846857D01*
X177695943Y-107061143D01*
X177624514Y-107132572D01*
X177124514Y-107132572D01*
X177124514Y-106846857D01*
X177767371Y-107775429D02*
X176267371Y-107775429D01*
X177767371Y-108632572D01*
X176267371Y-108632572D01*
X177767371Y-109346858D02*
X176267371Y-109346858D01*
X176267371Y-109704001D01*
X176338800Y-109918286D01*
X176481657Y-110061144D01*
X176624514Y-110132572D01*
X176910229Y-110204001D01*
X177124514Y-110204001D01*
X177410229Y-110132572D01*
X177553086Y-110061144D01*
X177695943Y-109918286D01*
X177767371Y-109704001D01*
X177767371Y-109346858D01*
X180791657Y-112059257D02*
X180577371Y-112130686D01*
X180505943Y-112202114D01*
X180434514Y-112344971D01*
X180434514Y-112559257D01*
X180505943Y-112702114D01*
X180577371Y-112773543D01*
X180720229Y-112844971D01*
X181291657Y-112844971D01*
X181291657Y-111344971D01*
X180791657Y-111344971D01*
X180648800Y-111416400D01*
X180577371Y-111487829D01*
X180505943Y-111630686D01*
X180505943Y-111773543D01*
X180577371Y-111916400D01*
X180648800Y-111987829D01*
X180791657Y-112059257D01*
X181291657Y-112059257D01*
X177338799Y-112844971D02*
X177838799Y-112130686D01*
X178195942Y-112844971D02*
X178195942Y-111344971D01*
X177624514Y-111344971D01*
X177481656Y-111416400D01*
X177410228Y-111487829D01*
X177338799Y-111630686D01*
X177338799Y-111844971D01*
X177410228Y-111987829D01*
X177481656Y-112059257D01*
X177624514Y-112130686D01*
X178195942Y-112130686D01*
X176767371Y-112773543D02*
X176553085Y-112844971D01*
X176195942Y-112844971D01*
X176053085Y-112773543D01*
X175981656Y-112702114D01*
X175910228Y-112559257D01*
X175910228Y-112416400D01*
X175981656Y-112273543D01*
X176053085Y-112202114D01*
X176195942Y-112130686D01*
X176481656Y-112059257D01*
X176624514Y-111987829D01*
X176695942Y-111916400D01*
X176767371Y-111773543D01*
X176767371Y-111630686D01*
X176695942Y-111487829D01*
X176624514Y-111416400D01*
X176481656Y-111344971D01*
X176124514Y-111344971D01*
X175910228Y-111416400D01*
X177517371Y-113783371D02*
X177803085Y-113783371D01*
X177945942Y-113854800D01*
X178017371Y-113926229D01*
X178160228Y-114140514D01*
X178231657Y-114426229D01*
X178231657Y-114997657D01*
X178160228Y-115140514D01*
X178088800Y-115211943D01*
X177945942Y-115283371D01*
X177660228Y-115283371D01*
X177517371Y-115211943D01*
X177445942Y-115140514D01*
X177374514Y-114997657D01*
X177374514Y-114640514D01*
X177445942Y-114497657D01*
X177517371Y-114426229D01*
X177660228Y-114354800D01*
X177945942Y-114354800D01*
X178088800Y-114426229D01*
X178160228Y-114497657D01*
X178231657Y-114640514D01*
X176517371Y-114426229D02*
X176660229Y-114354800D01*
X176731657Y-114283371D01*
X176803086Y-114140514D01*
X176803086Y-114069086D01*
X176731657Y-113926229D01*
X176660229Y-113854800D01*
X176517371Y-113783371D01*
X176231657Y-113783371D01*
X176088800Y-113854800D01*
X176017371Y-113926229D01*
X175945943Y-114069086D01*
X175945943Y-114140514D01*
X176017371Y-114283371D01*
X176088800Y-114354800D01*
X176231657Y-114426229D01*
X176517371Y-114426229D01*
X176660229Y-114497657D01*
X176731657Y-114569086D01*
X176803086Y-114711943D01*
X176803086Y-114997657D01*
X176731657Y-115140514D01*
X176660229Y-115211943D01*
X176517371Y-115283371D01*
X176231657Y-115283371D01*
X176088800Y-115211943D01*
X176017371Y-115140514D01*
X175945943Y-114997657D01*
X175945943Y-114711943D01*
X176017371Y-114569086D01*
X176088800Y-114497657D01*
X176231657Y-114426229D01*
X181327371Y-113783371D02*
X181613085Y-113783371D01*
X181755942Y-113854800D01*
X181827371Y-113926229D01*
X181970228Y-114140514D01*
X182041657Y-114426229D01*
X182041657Y-114997657D01*
X181970228Y-115140514D01*
X181898800Y-115211943D01*
X181755942Y-115283371D01*
X181470228Y-115283371D01*
X181327371Y-115211943D01*
X181255942Y-115140514D01*
X181184514Y-114997657D01*
X181184514Y-114640514D01*
X181255942Y-114497657D01*
X181327371Y-114426229D01*
X181470228Y-114354800D01*
X181755942Y-114354800D01*
X181898800Y-114426229D01*
X181970228Y-114497657D01*
X182041657Y-114640514D01*
X180684514Y-113783371D02*
X179684514Y-113783371D01*
X180327371Y-115283371D01*
X182113085Y-116374171D02*
X181184514Y-116374171D01*
X181684514Y-116945600D01*
X181470228Y-116945600D01*
X181327371Y-117017029D01*
X181255942Y-117088457D01*
X181184514Y-117231314D01*
X181184514Y-117588457D01*
X181255942Y-117731314D01*
X181327371Y-117802743D01*
X181470228Y-117874171D01*
X181898800Y-117874171D01*
X182041657Y-117802743D01*
X182113085Y-117731314D01*
X180613086Y-117802743D02*
X180398800Y-117874171D01*
X180041657Y-117874171D01*
X179898800Y-117802743D01*
X179827371Y-117731314D01*
X179755943Y-117588457D01*
X179755943Y-117445600D01*
X179827371Y-117302743D01*
X179898800Y-117231314D01*
X180041657Y-117159886D01*
X180327371Y-117088457D01*
X180470229Y-117017029D01*
X180541657Y-116945600D01*
X180613086Y-116802743D01*
X180613086Y-116659886D01*
X180541657Y-116517029D01*
X180470229Y-116445600D01*
X180327371Y-116374171D01*
X179970229Y-116374171D01*
X179755943Y-116445600D01*
X178338799Y-116374171D02*
X177410228Y-116374171D01*
X177910228Y-116945600D01*
X177695942Y-116945600D01*
X177553085Y-117017029D01*
X177481656Y-117088457D01*
X177410228Y-117231314D01*
X177410228Y-117588457D01*
X177481656Y-117731314D01*
X177553085Y-117802743D01*
X177695942Y-117874171D01*
X178124514Y-117874171D01*
X178267371Y-117802743D01*
X178338799Y-117731314D01*
X175910228Y-117731314D02*
X175981657Y-117802743D01*
X176195943Y-117874171D01*
X176338800Y-117874171D01*
X176553085Y-117802743D01*
X176695943Y-117659886D01*
X176767371Y-117517029D01*
X176838800Y-117231314D01*
X176838800Y-117017029D01*
X176767371Y-116731314D01*
X176695943Y-116588457D01*
X176553085Y-116445600D01*
X176338800Y-116374171D01*
X176195943Y-116374171D01*
X175981657Y-116445600D01*
X175910228Y-116517029D01*
X178374514Y-118964971D02*
X177445943Y-118964971D01*
X177945943Y-119536400D01*
X177731657Y-119536400D01*
X177588800Y-119607829D01*
X177517371Y-119679257D01*
X177445943Y-119822114D01*
X177445943Y-120179257D01*
X177517371Y-120322114D01*
X177588800Y-120393543D01*
X177731657Y-120464971D01*
X178160229Y-120464971D01*
X178303086Y-120393543D01*
X178374514Y-120322114D01*
X176517372Y-118964971D02*
X176231658Y-118964971D01*
X176088800Y-119036400D01*
X175945943Y-119179257D01*
X175874515Y-119464971D01*
X175874515Y-119964971D01*
X175945943Y-120250686D01*
X176088800Y-120393543D01*
X176231658Y-120464971D01*
X176517372Y-120464971D01*
X176660229Y-120393543D01*
X176803086Y-120250686D01*
X176874515Y-119964971D01*
X176874515Y-119464971D01*
X176803086Y-119179257D01*
X176660229Y-119036400D01*
X176517372Y-118964971D01*
X181755942Y-118964971D02*
X180827371Y-118964971D01*
X181327371Y-119536400D01*
X181113085Y-119536400D01*
X180970228Y-119607829D01*
X180898799Y-119679257D01*
X180827371Y-119822114D01*
X180827371Y-120179257D01*
X180898799Y-120322114D01*
X180970228Y-120393543D01*
X181113085Y-120464971D01*
X181541657Y-120464971D01*
X181684514Y-120393543D01*
X181755942Y-120322114D01*
X180184514Y-120464971D02*
X180184514Y-118964971D01*
X182041657Y-121511429D02*
X181970228Y-121440000D01*
X181827371Y-121368571D01*
X181470228Y-121368571D01*
X181327371Y-121440000D01*
X181255942Y-121511429D01*
X181184514Y-121654286D01*
X181184514Y-121797143D01*
X181255942Y-122011429D01*
X182113085Y-122868571D01*
X181184514Y-122868571D01*
X180613086Y-122797143D02*
X180398800Y-122868571D01*
X180041657Y-122868571D01*
X179898800Y-122797143D01*
X179827371Y-122725714D01*
X179755943Y-122582857D01*
X179755943Y-122440000D01*
X179827371Y-122297143D01*
X179898800Y-122225714D01*
X180041657Y-122154286D01*
X180327371Y-122082857D01*
X180470229Y-122011429D01*
X180541657Y-121940000D01*
X180613086Y-121797143D01*
X180613086Y-121654286D01*
X180541657Y-121511429D01*
X180470229Y-121440000D01*
X180327371Y-121368571D01*
X179970229Y-121368571D01*
X179755943Y-121440000D01*
X178267371Y-121546229D02*
X178195942Y-121474800D01*
X178053085Y-121403371D01*
X177695942Y-121403371D01*
X177553085Y-121474800D01*
X177481656Y-121546229D01*
X177410228Y-121689086D01*
X177410228Y-121831943D01*
X177481656Y-122046229D01*
X178338799Y-122903371D01*
X177410228Y-122903371D01*
X175910228Y-122760514D02*
X175981657Y-122831943D01*
X176195943Y-122903371D01*
X176338800Y-122903371D01*
X176553085Y-122831943D01*
X176695943Y-122689086D01*
X176767371Y-122546229D01*
X176838800Y-122260514D01*
X176838800Y-122046229D01*
X176767371Y-121760514D01*
X176695943Y-121617657D01*
X176553085Y-121474800D01*
X176338800Y-121403371D01*
X176195943Y-121403371D01*
X175981657Y-121474800D01*
X175910228Y-121546229D01*
D13*
X178917600Y-123291600D02*
X178917600Y-92506800D01*
D12*
X173057429Y-118543486D02*
X172986000Y-118614915D01*
X172914571Y-118757772D01*
X172914571Y-119114915D01*
X172986000Y-119257772D01*
X173057429Y-119329201D01*
X173200286Y-119400629D01*
X173343143Y-119400629D01*
X173557429Y-119329201D01*
X174414571Y-118472058D01*
X174414571Y-119400629D01*
X174414571Y-120043486D02*
X172914571Y-120043486D01*
X171976171Y-119043486D02*
X171976171Y-118186343D01*
X171976171Y-118614915D02*
X170476171Y-118614915D01*
X170690457Y-118472058D01*
X170833314Y-118329200D01*
X170904743Y-118186343D01*
X171904743Y-119614914D02*
X171976171Y-119829200D01*
X171976171Y-120186343D01*
X171904743Y-120329200D01*
X171833314Y-120400629D01*
X171690457Y-120472057D01*
X171547600Y-120472057D01*
X171404743Y-120400629D01*
X171333314Y-120329200D01*
X171261886Y-120186343D01*
X171190457Y-119900629D01*
X171119029Y-119757771D01*
X171047600Y-119686343D01*
X170904743Y-119614914D01*
X170761886Y-119614914D01*
X170619029Y-119686343D01*
X170547600Y-119757771D01*
X170476171Y-119900629D01*
X170476171Y-120257771D01*
X170547600Y-120472057D01*
X169385371Y-119400629D02*
X169385371Y-118543486D01*
X169385371Y-118972058D02*
X167885371Y-118972058D01*
X168099657Y-118829201D01*
X168242514Y-118686343D01*
X168313943Y-118543486D01*
X169385371Y-120043486D02*
X167885371Y-120043486D01*
X173057429Y-114609714D02*
X172986000Y-114681143D01*
X172914571Y-114824000D01*
X172914571Y-115181143D01*
X172986000Y-115324000D01*
X173057429Y-115395429D01*
X173200286Y-115466857D01*
X173343143Y-115466857D01*
X173557429Y-115395429D01*
X174414571Y-114538286D01*
X174414571Y-115466857D01*
X172914571Y-116395428D02*
X172914571Y-116681142D01*
X172986000Y-116824000D01*
X173128857Y-116966857D01*
X173414571Y-117038285D01*
X173914571Y-117038285D01*
X174200286Y-116966857D01*
X174343143Y-116824000D01*
X174414571Y-116681142D01*
X174414571Y-116395428D01*
X174343143Y-116252571D01*
X174200286Y-116109714D01*
X173914571Y-116038285D01*
X173414571Y-116038285D01*
X173128857Y-116109714D01*
X172986000Y-116252571D01*
X172914571Y-116395428D01*
X171976171Y-115502572D02*
X171976171Y-114645429D01*
X171976171Y-115074001D02*
X170476171Y-115074001D01*
X170690457Y-114931144D01*
X170833314Y-114788286D01*
X170904743Y-114645429D01*
X171833314Y-117002572D02*
X171904743Y-116931143D01*
X171976171Y-116716857D01*
X171976171Y-116574000D01*
X171904743Y-116359715D01*
X171761886Y-116216857D01*
X171619029Y-116145429D01*
X171333314Y-116074000D01*
X171119029Y-116074000D01*
X170833314Y-116145429D01*
X170690457Y-116216857D01*
X170547600Y-116359715D01*
X170476171Y-116574000D01*
X170476171Y-116716857D01*
X170547600Y-116931143D01*
X170619029Y-117002572D01*
X169385371Y-115466857D02*
X169385371Y-114609714D01*
X169385371Y-115038286D02*
X167885371Y-115038286D01*
X168099657Y-114895429D01*
X168242514Y-114752571D01*
X168313943Y-114609714D01*
X167885371Y-116395428D02*
X167885371Y-116681142D01*
X167956800Y-116824000D01*
X168099657Y-116966857D01*
X168385371Y-117038285D01*
X168885371Y-117038285D01*
X169171086Y-116966857D01*
X169313943Y-116824000D01*
X169385371Y-116681142D01*
X169385371Y-116395428D01*
X169313943Y-116252571D01*
X169171086Y-116109714D01*
X168885371Y-116038285D01*
X168385371Y-116038285D01*
X168099657Y-116109714D01*
X167956800Y-116252571D01*
X167885371Y-116395428D01*
D13*
X167640000Y-117652800D02*
X174498000Y-117652800D01*
D12*
X157650571Y-121293772D02*
X157650571Y-120436629D01*
X157650571Y-120865201D02*
X156150571Y-120865201D01*
X156364857Y-120722344D01*
X156507714Y-120579486D01*
X156579143Y-120436629D01*
X157650571Y-122793772D02*
X156936286Y-122293772D01*
X157650571Y-121936629D02*
X156150571Y-121936629D01*
X156150571Y-122508057D01*
X156222000Y-122650915D01*
X156293429Y-122722343D01*
X156436286Y-122793772D01*
X156650571Y-122793772D01*
X156793429Y-122722343D01*
X156864857Y-122650915D01*
X156936286Y-122508057D01*
X156936286Y-121936629D01*
X155212171Y-121472343D02*
X155212171Y-120615200D01*
X155212171Y-121043772D02*
X153712171Y-121043772D01*
X153926457Y-120900915D01*
X154069314Y-120758057D01*
X154140743Y-120615200D01*
X153712171Y-121900914D02*
X153712171Y-122758057D01*
X155212171Y-122329486D02*
X153712171Y-122329486D01*
X151264229Y-120436629D02*
X151192800Y-120508058D01*
X151121371Y-120650915D01*
X151121371Y-121008058D01*
X151192800Y-121150915D01*
X151264229Y-121222344D01*
X151407086Y-121293772D01*
X151549943Y-121293772D01*
X151764229Y-121222344D01*
X152621371Y-120365201D01*
X152621371Y-121293772D01*
X152621371Y-122793772D02*
X151907086Y-122293772D01*
X152621371Y-121936629D02*
X151121371Y-121936629D01*
X151121371Y-122508057D01*
X151192800Y-122650915D01*
X151264229Y-122722343D01*
X151407086Y-122793772D01*
X151621371Y-122793772D01*
X151764229Y-122722343D01*
X151835657Y-122650915D01*
X151907086Y-122508057D01*
X151907086Y-121936629D01*
X148825829Y-120615200D02*
X148754400Y-120686629D01*
X148682971Y-120829486D01*
X148682971Y-121186629D01*
X148754400Y-121329486D01*
X148825829Y-121400915D01*
X148968686Y-121472343D01*
X149111543Y-121472343D01*
X149325829Y-121400915D01*
X150182971Y-120543772D01*
X150182971Y-121472343D01*
X148682971Y-121900914D02*
X148682971Y-122758057D01*
X150182971Y-122329486D02*
X148682971Y-122329486D01*
X146092171Y-120365201D02*
X146092171Y-121293772D01*
X146663600Y-120793772D01*
X146663600Y-121008058D01*
X146735029Y-121150915D01*
X146806457Y-121222344D01*
X146949314Y-121293772D01*
X147306457Y-121293772D01*
X147449314Y-121222344D01*
X147520743Y-121150915D01*
X147592171Y-121008058D01*
X147592171Y-120579486D01*
X147520743Y-120436629D01*
X147449314Y-120365201D01*
X147592171Y-122793772D02*
X146877886Y-122293772D01*
X147592171Y-121936629D02*
X146092171Y-121936629D01*
X146092171Y-122508057D01*
X146163600Y-122650915D01*
X146235029Y-122722343D01*
X146377886Y-122793772D01*
X146592171Y-122793772D01*
X146735029Y-122722343D01*
X146806457Y-122650915D01*
X146877886Y-122508057D01*
X146877886Y-121936629D01*
X143653771Y-120543772D02*
X143653771Y-121472343D01*
X144225200Y-120972343D01*
X144225200Y-121186629D01*
X144296629Y-121329486D01*
X144368057Y-121400915D01*
X144510914Y-121472343D01*
X144868057Y-121472343D01*
X145010914Y-121400915D01*
X145082343Y-121329486D01*
X145153771Y-121186629D01*
X145153771Y-120758057D01*
X145082343Y-120615200D01*
X145010914Y-120543772D01*
X143653771Y-121900914D02*
X143653771Y-122758057D01*
X145153771Y-122329486D02*
X143653771Y-122329486D01*
X141562971Y-121150915D02*
X142562971Y-121150915D01*
X140991543Y-120793772D02*
X142062971Y-120436629D01*
X142062971Y-121365201D01*
X142562971Y-122793772D02*
X141848686Y-122293772D01*
X142562971Y-121936629D02*
X141062971Y-121936629D01*
X141062971Y-122508057D01*
X141134400Y-122650915D01*
X141205829Y-122722343D01*
X141348686Y-122793772D01*
X141562971Y-122793772D01*
X141705829Y-122722343D01*
X141777257Y-122650915D01*
X141848686Y-122508057D01*
X141848686Y-121936629D01*
X139124571Y-121329486D02*
X140124571Y-121329486D01*
X138553143Y-120972343D02*
X139624571Y-120615200D01*
X139624571Y-121543772D01*
X138624571Y-121900914D02*
X138624571Y-122758057D01*
X140124571Y-122329486D02*
X138624571Y-122329486D01*
X123658285Y-119726971D02*
X124372571Y-119726971D01*
X124444000Y-120441257D01*
X124372571Y-120369829D01*
X124229714Y-120298400D01*
X123872571Y-120298400D01*
X123729714Y-120369829D01*
X123658285Y-120441257D01*
X123586857Y-120584114D01*
X123586857Y-120941257D01*
X123658285Y-121084114D01*
X123729714Y-121155543D01*
X123872571Y-121226971D01*
X124229714Y-121226971D01*
X124372571Y-121155543D01*
X124444000Y-121084114D01*
X123158286Y-119726971D02*
X122301143Y-119726971D01*
X122729714Y-121226971D02*
X122729714Y-119726971D01*
X127951656Y-119726971D02*
X128665942Y-119726971D01*
X128737371Y-120441257D01*
X128665942Y-120369829D01*
X128523085Y-120298400D01*
X128165942Y-120298400D01*
X128023085Y-120369829D01*
X127951656Y-120441257D01*
X127880228Y-120584114D01*
X127880228Y-120941257D01*
X127951656Y-121084114D01*
X128023085Y-121155543D01*
X128165942Y-121226971D01*
X128523085Y-121226971D01*
X128665942Y-121155543D01*
X128737371Y-121084114D01*
X126380228Y-121226971D02*
X126880228Y-120512686D01*
X127237371Y-121226971D02*
X127237371Y-119726971D01*
X126665943Y-119726971D01*
X126523085Y-119798400D01*
X126451657Y-119869829D01*
X126380228Y-120012686D01*
X126380228Y-120226971D01*
X126451657Y-120369829D01*
X126523085Y-120441257D01*
X126665943Y-120512686D01*
X127237371Y-120512686D01*
X128034285Y-117148571D02*
X128319999Y-117148571D01*
X128462856Y-117220000D01*
X128534285Y-117291429D01*
X128677142Y-117505714D01*
X128748571Y-117791429D01*
X128748571Y-118362857D01*
X128677142Y-118505714D01*
X128605714Y-118577143D01*
X128462856Y-118648571D01*
X128177142Y-118648571D01*
X128034285Y-118577143D01*
X127962856Y-118505714D01*
X127891428Y-118362857D01*
X127891428Y-118005714D01*
X127962856Y-117862857D01*
X128034285Y-117791429D01*
X128177142Y-117720000D01*
X128462856Y-117720000D01*
X128605714Y-117791429D01*
X128677142Y-117862857D01*
X128748571Y-118005714D01*
X126391428Y-118648571D02*
X126891428Y-117934286D01*
X127248571Y-118648571D02*
X127248571Y-117148571D01*
X126677143Y-117148571D01*
X126534285Y-117220000D01*
X126462857Y-117291429D01*
X126391428Y-117434286D01*
X126391428Y-117648571D01*
X126462857Y-117791429D01*
X126534285Y-117862857D01*
X126677143Y-117934286D01*
X127248571Y-117934286D01*
X123735714Y-117128571D02*
X124021428Y-117128571D01*
X124164285Y-117200000D01*
X124235714Y-117271429D01*
X124378571Y-117485714D01*
X124450000Y-117771429D01*
X124450000Y-118342857D01*
X124378571Y-118485714D01*
X124307143Y-118557143D01*
X124164285Y-118628571D01*
X123878571Y-118628571D01*
X123735714Y-118557143D01*
X123664285Y-118485714D01*
X123592857Y-118342857D01*
X123592857Y-117985714D01*
X123664285Y-117842857D01*
X123735714Y-117771429D01*
X123878571Y-117700000D01*
X124164285Y-117700000D01*
X124307143Y-117771429D01*
X124378571Y-117842857D01*
X124450000Y-117985714D01*
X123164286Y-117128571D02*
X122307143Y-117128571D01*
X122735714Y-118628571D02*
X122735714Y-117128571D01*
X128808799Y-114545371D02*
X127808799Y-114545371D01*
X128451656Y-116045371D01*
X126380228Y-116045371D02*
X126880228Y-115331086D01*
X127237371Y-116045371D02*
X127237371Y-114545371D01*
X126665943Y-114545371D01*
X126523085Y-114616800D01*
X126451657Y-114688229D01*
X126380228Y-114831086D01*
X126380228Y-115045371D01*
X126451657Y-115188229D01*
X126523085Y-115259657D01*
X126665943Y-115331086D01*
X127237371Y-115331086D01*
X124515428Y-114545371D02*
X123515428Y-114545371D01*
X124158285Y-116045371D01*
X123158286Y-114545371D02*
X122301143Y-114545371D01*
X122729714Y-116045371D02*
X122729714Y-114545371D01*
X128451656Y-112597429D02*
X128594514Y-112526000D01*
X128665942Y-112454571D01*
X128737371Y-112311714D01*
X128737371Y-112240286D01*
X128665942Y-112097429D01*
X128594514Y-112026000D01*
X128451656Y-111954571D01*
X128165942Y-111954571D01*
X128023085Y-112026000D01*
X127951656Y-112097429D01*
X127880228Y-112240286D01*
X127880228Y-112311714D01*
X127951656Y-112454571D01*
X128023085Y-112526000D01*
X128165942Y-112597429D01*
X128451656Y-112597429D01*
X128594514Y-112668857D01*
X128665942Y-112740286D01*
X128737371Y-112883143D01*
X128737371Y-113168857D01*
X128665942Y-113311714D01*
X128594514Y-113383143D01*
X128451656Y-113454571D01*
X128165942Y-113454571D01*
X128023085Y-113383143D01*
X127951656Y-113311714D01*
X127880228Y-113168857D01*
X127880228Y-112883143D01*
X127951656Y-112740286D01*
X128023085Y-112668857D01*
X128165942Y-112597429D01*
X126380228Y-113454571D02*
X126880228Y-112740286D01*
X127237371Y-113454571D02*
X127237371Y-111954571D01*
X126665943Y-111954571D01*
X126523085Y-112026000D01*
X126451657Y-112097429D01*
X126380228Y-112240286D01*
X126380228Y-112454571D01*
X126451657Y-112597429D01*
X126523085Y-112668857D01*
X126665943Y-112740286D01*
X127237371Y-112740286D01*
X124158285Y-112597429D02*
X124301143Y-112526000D01*
X124372571Y-112454571D01*
X124444000Y-112311714D01*
X124444000Y-112240286D01*
X124372571Y-112097429D01*
X124301143Y-112026000D01*
X124158285Y-111954571D01*
X123872571Y-111954571D01*
X123729714Y-112026000D01*
X123658285Y-112097429D01*
X123586857Y-112240286D01*
X123586857Y-112311714D01*
X123658285Y-112454571D01*
X123729714Y-112526000D01*
X123872571Y-112597429D01*
X124158285Y-112597429D01*
X124301143Y-112668857D01*
X124372571Y-112740286D01*
X124444000Y-112883143D01*
X124444000Y-113168857D01*
X124372571Y-113311714D01*
X124301143Y-113383143D01*
X124158285Y-113454571D01*
X123872571Y-113454571D01*
X123729714Y-113383143D01*
X123658285Y-113311714D01*
X123586857Y-113168857D01*
X123586857Y-112883143D01*
X123658285Y-112740286D01*
X123729714Y-112668857D01*
X123872571Y-112597429D01*
X123158286Y-111954571D02*
X122301143Y-111954571D01*
X122729714Y-113454571D02*
X122729714Y-111954571D01*
X127692113Y-109516171D02*
X128406399Y-109516171D01*
X128477828Y-110230457D01*
X128406399Y-110159029D01*
X128263542Y-110087600D01*
X127906399Y-110087600D01*
X127763542Y-110159029D01*
X127692113Y-110230457D01*
X127620685Y-110373314D01*
X127620685Y-110730457D01*
X127692113Y-110873314D01*
X127763542Y-110944743D01*
X127906399Y-111016171D01*
X128263542Y-111016171D01*
X128406399Y-110944743D01*
X128477828Y-110873314D01*
X127192114Y-109516171D02*
X126692114Y-111016171D01*
X126192114Y-109516171D01*
X123729713Y-109516171D02*
X124443999Y-109516171D01*
X124515428Y-110230457D01*
X124443999Y-110159029D01*
X124301142Y-110087600D01*
X123943999Y-110087600D01*
X123801142Y-110159029D01*
X123729713Y-110230457D01*
X123658285Y-110373314D01*
X123658285Y-110730457D01*
X123729713Y-110873314D01*
X123801142Y-110944743D01*
X123943999Y-111016171D01*
X124301142Y-111016171D01*
X124443999Y-110944743D01*
X124515428Y-110873314D01*
X123229714Y-109516171D02*
X122729714Y-111016171D01*
X122229714Y-109516171D01*
X124622571Y-106925371D02*
X123694000Y-106925371D01*
X124194000Y-107496800D01*
X123979714Y-107496800D01*
X123836857Y-107568229D01*
X123765428Y-107639657D01*
X123694000Y-107782514D01*
X123694000Y-108139657D01*
X123765428Y-108282514D01*
X123836857Y-108353943D01*
X123979714Y-108425371D01*
X124408286Y-108425371D01*
X124551143Y-108353943D01*
X124622571Y-108282514D01*
X123051143Y-107639657D02*
X122551143Y-107639657D01*
X122336857Y-108425371D02*
X123051143Y-108425371D01*
X123051143Y-106925371D01*
X122336857Y-106925371D01*
X124586857Y-105834571D02*
X124586857Y-104334571D01*
X124586857Y-105048857D02*
X123729714Y-105048857D01*
X123729714Y-105834571D02*
X123729714Y-104334571D01*
X122229714Y-105834571D02*
X123086857Y-105834571D01*
X122658285Y-105834571D02*
X122658285Y-104334571D01*
X122801142Y-104548857D01*
X122944000Y-104691714D01*
X123086857Y-104763143D01*
X128549257Y-103243771D02*
X128549257Y-101743771D01*
X128549257Y-102458057D02*
X127692114Y-102458057D01*
X127692114Y-103243771D02*
X127692114Y-101743771D01*
X127049257Y-101886629D02*
X126977828Y-101815200D01*
X126834971Y-101743771D01*
X126477828Y-101743771D01*
X126334971Y-101815200D01*
X126263542Y-101886629D01*
X126192114Y-102029486D01*
X126192114Y-102172343D01*
X126263542Y-102386629D01*
X127120685Y-103243771D01*
X126192114Y-103243771D01*
X124586857Y-103396171D02*
X124586857Y-101896171D01*
X124586857Y-102610457D02*
X123729714Y-102610457D01*
X123729714Y-103396171D02*
X123729714Y-101896171D01*
X122372571Y-102396171D02*
X122372571Y-103396171D01*
X122729714Y-101824743D02*
X123086857Y-102896171D01*
X122158285Y-102896171D01*
X127549257Y-100814914D02*
X127620686Y-100886343D01*
X127834972Y-100957771D01*
X127977829Y-100957771D01*
X128192114Y-100886343D01*
X128334972Y-100743486D01*
X128406400Y-100600629D01*
X128477829Y-100314914D01*
X128477829Y-100100629D01*
X128406400Y-99814914D01*
X128334972Y-99672057D01*
X128192114Y-99529200D01*
X127977829Y-99457771D01*
X127834972Y-99457771D01*
X127620686Y-99529200D01*
X127549257Y-99600629D01*
X126192114Y-100957771D02*
X126906400Y-100957771D01*
X126906400Y-99457771D01*
X124632114Y-100957771D02*
X124632114Y-99457771D01*
X124274971Y-99457771D01*
X124060686Y-99529200D01*
X123917828Y-99672057D01*
X123846400Y-99814914D01*
X123774971Y-100100629D01*
X123774971Y-100314914D01*
X123846400Y-100600629D01*
X123917828Y-100743486D01*
X124060686Y-100886343D01*
X124274971Y-100957771D01*
X124632114Y-100957771D01*
X123203543Y-100529200D02*
X122489257Y-100529200D01*
X123346400Y-100957771D02*
X122846400Y-99457771D01*
X122346400Y-100957771D01*
D13*
X125425200Y-122072400D02*
X125425200Y-93726000D01*
X149921429Y-119157143D02*
X150064286Y-119228571D01*
X150350000Y-119228571D01*
X150492858Y-119157143D01*
X150564286Y-119085714D01*
X150635715Y-118942857D01*
X150635715Y-118514286D01*
X150564286Y-118371429D01*
X150492858Y-118300000D01*
X150350000Y-118228571D01*
X150064286Y-118228571D01*
X149921429Y-118300000D01*
X149278572Y-119228571D02*
X149278572Y-117728571D01*
X149135715Y-118657143D02*
X148707144Y-119228571D01*
X148707144Y-118228571D02*
X149278572Y-118800000D01*
X147421429Y-119228571D02*
X147421429Y-117728571D01*
X147421429Y-119157143D02*
X147564286Y-119228571D01*
X147850000Y-119228571D01*
X147992858Y-119157143D01*
X148064286Y-119085714D01*
X148135715Y-118942857D01*
X148135715Y-118514286D01*
X148064286Y-118371429D01*
X147992858Y-118300000D01*
X147850000Y-118228571D01*
X147564286Y-118228571D01*
X147421429Y-118300000D01*
X146707143Y-119085714D02*
X146635715Y-119157143D01*
X146707143Y-119228571D01*
X146778572Y-119157143D01*
X146707143Y-119085714D01*
X146707143Y-119228571D01*
X146207143Y-118228571D02*
X145635714Y-118228571D01*
X145992857Y-117728571D02*
X145992857Y-119014286D01*
X145921429Y-119157143D01*
X145778571Y-119228571D01*
X145635714Y-119228571D01*
X144564286Y-119157143D02*
X144707143Y-119228571D01*
X144992857Y-119228571D01*
X145135714Y-119157143D01*
X145207143Y-119014286D01*
X145207143Y-118442857D01*
X145135714Y-118300000D01*
X144992857Y-118228571D01*
X144707143Y-118228571D01*
X144564286Y-118300000D01*
X144492857Y-118442857D01*
X144492857Y-118585714D01*
X145207143Y-118728571D01*
X143207143Y-119157143D02*
X143350000Y-119228571D01*
X143635714Y-119228571D01*
X143778572Y-119157143D01*
X143850000Y-119085714D01*
X143921429Y-118942857D01*
X143921429Y-118514286D01*
X143850000Y-118371429D01*
X143778572Y-118300000D01*
X143635714Y-118228571D01*
X143350000Y-118228571D01*
X143207143Y-118300000D01*
X142564286Y-119228571D02*
X142564286Y-117728571D01*
X141921429Y-119228571D02*
X141921429Y-118442857D01*
X141992858Y-118300000D01*
X142135715Y-118228571D01*
X142350000Y-118228571D01*
X142492858Y-118300000D01*
X142564286Y-118371429D01*
X140135715Y-117657143D02*
X141421429Y-119585714D01*
X138992857Y-119228571D02*
X138992857Y-117728571D01*
X138992857Y-119157143D02*
X139135714Y-119228571D01*
X139421428Y-119228571D01*
X139564286Y-119157143D01*
X139635714Y-119085714D01*
X139707143Y-118942857D01*
X139707143Y-118514286D01*
X139635714Y-118371429D01*
X139564286Y-118300000D01*
X139421428Y-118228571D01*
X139135714Y-118228571D01*
X138992857Y-118300000D01*
X138278571Y-119228571D02*
X138278571Y-117728571D01*
X138278571Y-118300000D02*
X138135714Y-118228571D01*
X137850000Y-118228571D01*
X137707143Y-118300000D01*
X137635714Y-118371429D01*
X137564285Y-118514286D01*
X137564285Y-118942857D01*
X137635714Y-119085714D01*
X137707143Y-119157143D01*
X137850000Y-119228571D01*
X138135714Y-119228571D01*
X138278571Y-119157143D01*
X136278571Y-118228571D02*
X136278571Y-119442857D01*
X136350000Y-119585714D01*
X136421428Y-119657143D01*
X136564285Y-119728571D01*
X136778571Y-119728571D01*
X136921428Y-119657143D01*
X136278571Y-119157143D02*
X136421428Y-119228571D01*
X136707142Y-119228571D01*
X136850000Y-119157143D01*
X136921428Y-119085714D01*
X136992857Y-118942857D01*
X136992857Y-118514286D01*
X136921428Y-118371429D01*
X136850000Y-118300000D01*
X136707142Y-118228571D01*
X136421428Y-118228571D01*
X136278571Y-118300000D01*
X134492857Y-117657143D02*
X135778571Y-119585714D01*
X134135713Y-118228571D02*
X133778570Y-119228571D01*
X133421428Y-118228571D01*
X132135713Y-117728571D02*
X132849999Y-117728571D01*
X132921428Y-118442857D01*
X132849999Y-118371429D01*
X132707142Y-118300000D01*
X132349999Y-118300000D01*
X132207142Y-118371429D01*
X132135713Y-118442857D01*
X132064285Y-118585714D01*
X132064285Y-118942857D01*
X132135713Y-119085714D01*
X132207142Y-119157143D01*
X132349999Y-119228571D01*
X132707142Y-119228571D01*
X132849999Y-119157143D01*
X132921428Y-119085714D01*
D12*
X152280000Y-98398571D02*
X152280000Y-96898571D01*
X151565714Y-97398571D02*
X151565714Y-98398571D01*
X151565714Y-97541429D02*
X151494286Y-97470000D01*
X151351428Y-97398571D01*
X151137143Y-97398571D01*
X150994286Y-97470000D01*
X150922857Y-97612857D01*
X150922857Y-98398571D01*
X150208571Y-97398571D02*
X150208571Y-98898571D01*
X150208571Y-97470000D02*
X150065714Y-97398571D01*
X149780000Y-97398571D01*
X149637143Y-97470000D01*
X149565714Y-97541429D01*
X149494285Y-97684286D01*
X149494285Y-98112857D01*
X149565714Y-98255714D01*
X149637143Y-98327143D01*
X149780000Y-98398571D01*
X150065714Y-98398571D01*
X150208571Y-98327143D01*
X148208571Y-97398571D02*
X148208571Y-98398571D01*
X148851428Y-97398571D02*
X148851428Y-98184286D01*
X148780000Y-98327143D01*
X148637142Y-98398571D01*
X148422857Y-98398571D01*
X148280000Y-98327143D01*
X148208571Y-98255714D01*
X147708571Y-97398571D02*
X147137142Y-97398571D01*
X147494285Y-96898571D02*
X147494285Y-98184286D01*
X147422857Y-98327143D01*
X147279999Y-98398571D01*
X147137142Y-98398571D01*
X145494285Y-97398571D02*
X145494285Y-98398571D01*
X145494285Y-97541429D02*
X145422857Y-97470000D01*
X145279999Y-97398571D01*
X145065714Y-97398571D01*
X144922857Y-97470000D01*
X144851428Y-97612857D01*
X144851428Y-98398571D01*
X143494285Y-97398571D02*
X143494285Y-98398571D01*
X144137142Y-97398571D02*
X144137142Y-98184286D01*
X144065714Y-98327143D01*
X143922856Y-98398571D01*
X143708571Y-98398571D01*
X143565714Y-98327143D01*
X143494285Y-98255714D01*
X142779999Y-98398571D02*
X142779999Y-97398571D01*
X142779999Y-97541429D02*
X142708571Y-97470000D01*
X142565713Y-97398571D01*
X142351428Y-97398571D01*
X142208571Y-97470000D01*
X142137142Y-97612857D01*
X142137142Y-98398571D01*
X142137142Y-97612857D02*
X142065713Y-97470000D01*
X141922856Y-97398571D01*
X141708571Y-97398571D01*
X141565713Y-97470000D01*
X141494285Y-97612857D01*
X141494285Y-98398571D01*
X140779999Y-98398571D02*
X140779999Y-96898571D01*
X140779999Y-97470000D02*
X140637142Y-97398571D01*
X140351428Y-97398571D01*
X140208571Y-97470000D01*
X140137142Y-97541429D01*
X140065713Y-97684286D01*
X140065713Y-98112857D01*
X140137142Y-98255714D01*
X140208571Y-98327143D01*
X140351428Y-98398571D01*
X140637142Y-98398571D01*
X140779999Y-98327143D01*
X138851428Y-98327143D02*
X138994285Y-98398571D01*
X139279999Y-98398571D01*
X139422856Y-98327143D01*
X139494285Y-98184286D01*
X139494285Y-97612857D01*
X139422856Y-97470000D01*
X139279999Y-97398571D01*
X138994285Y-97398571D01*
X138851428Y-97470000D01*
X138779999Y-97612857D01*
X138779999Y-97755714D01*
X139494285Y-97898571D01*
X138137142Y-98398571D02*
X138137142Y-97398571D01*
X138137142Y-97684286D02*
X138065714Y-97541429D01*
X137994285Y-97470000D01*
X137851428Y-97398571D01*
X137708571Y-97398571D01*
X137208571Y-98398571D02*
X137208571Y-97398571D01*
X137208571Y-96898571D02*
X137280000Y-96970000D01*
X137208571Y-97041429D01*
X137137143Y-96970000D01*
X137208571Y-96898571D01*
X137208571Y-97041429D01*
X136494285Y-97398571D02*
X136494285Y-98398571D01*
X136494285Y-97541429D02*
X136422857Y-97470000D01*
X136279999Y-97398571D01*
X136065714Y-97398571D01*
X135922857Y-97470000D01*
X135851428Y-97612857D01*
X135851428Y-98398571D01*
X134494285Y-97398571D02*
X134494285Y-98612857D01*
X134565714Y-98755714D01*
X134637142Y-98827143D01*
X134779999Y-98898571D01*
X134994285Y-98898571D01*
X135137142Y-98827143D01*
X134494285Y-98327143D02*
X134637142Y-98398571D01*
X134922856Y-98398571D01*
X135065714Y-98327143D01*
X135137142Y-98255714D01*
X135208571Y-98112857D01*
X135208571Y-97684286D01*
X135137142Y-97541429D01*
X135065714Y-97470000D01*
X134922856Y-97398571D01*
X134637142Y-97398571D01*
X134494285Y-97470000D01*
X133779999Y-98255714D02*
X133708571Y-98327143D01*
X133779999Y-98398571D01*
X133851428Y-98327143D01*
X133779999Y-98255714D01*
X133779999Y-98398571D01*
X138157829Y-93602229D02*
X138086400Y-93673658D01*
X138014971Y-93816515D01*
X138014971Y-94173658D01*
X138086400Y-94316515D01*
X138157829Y-94387944D01*
X138300686Y-94459372D01*
X138443543Y-94459372D01*
X138657829Y-94387944D01*
X139514971Y-93530801D01*
X139514971Y-94459372D01*
X141968571Y-94448572D02*
X141968571Y-93591429D01*
X141968571Y-94020001D02*
X140468571Y-94020001D01*
X140682857Y-93877144D01*
X140825714Y-93734286D01*
X140897143Y-93591429D01*
X143544171Y-94305715D02*
X144544171Y-94305715D01*
X142972743Y-93948572D02*
X144044171Y-93591429D01*
X144044171Y-94520001D01*
X145648571Y-93520001D02*
X145648571Y-94448572D01*
X146220000Y-93948572D01*
X146220000Y-94162858D01*
X146291429Y-94305715D01*
X146362857Y-94377144D01*
X146505714Y-94448572D01*
X146862857Y-94448572D01*
X147005714Y-94377144D01*
X147077143Y-94305715D01*
X147148571Y-94162858D01*
X147148571Y-93734286D01*
X147077143Y-93591429D01*
X147005714Y-93520001D01*
X148381429Y-93611429D02*
X148310000Y-93682858D01*
X148238571Y-93825715D01*
X148238571Y-94182858D01*
X148310000Y-94325715D01*
X148381429Y-94397144D01*
X148524286Y-94468572D01*
X148667143Y-94468572D01*
X148881429Y-94397144D01*
X149738571Y-93540001D01*
X149738571Y-94468572D01*
X152178571Y-94498572D02*
X152178571Y-93641429D01*
X152178571Y-94070001D02*
X150678571Y-94070001D01*
X150892857Y-93927144D01*
X151035714Y-93784286D01*
X151107143Y-93641429D01*
X126968285Y-96714571D02*
X127253999Y-96714571D01*
X127396856Y-96786000D01*
X127468285Y-96857429D01*
X127611142Y-97071714D01*
X127682571Y-97357429D01*
X127682571Y-97928857D01*
X127611142Y-98071714D01*
X127539714Y-98143143D01*
X127396856Y-98214571D01*
X127111142Y-98214571D01*
X126968285Y-98143143D01*
X126896856Y-98071714D01*
X126825428Y-97928857D01*
X126825428Y-97571714D01*
X126896856Y-97428857D01*
X126968285Y-97357429D01*
X127111142Y-97286000D01*
X127396856Y-97286000D01*
X127539714Y-97357429D01*
X127611142Y-97428857D01*
X127682571Y-97571714D01*
X123086856Y-96714571D02*
X123801142Y-96714571D01*
X123872571Y-97428857D01*
X123801142Y-97357429D01*
X123658285Y-97286000D01*
X123301142Y-97286000D01*
X123158285Y-97357429D01*
X123086856Y-97428857D01*
X123015428Y-97571714D01*
X123015428Y-97928857D01*
X123086856Y-98071714D01*
X123158285Y-98143143D01*
X123301142Y-98214571D01*
X123658285Y-98214571D01*
X123801142Y-98143143D01*
X123872571Y-98071714D01*
X126968285Y-94828571D02*
X126968285Y-95828571D01*
X127325428Y-94257143D02*
X127682571Y-95328571D01*
X126753999Y-95328571D01*
X124096399Y-94276171D02*
X123167828Y-94276171D01*
X123667828Y-94847600D01*
X123453542Y-94847600D01*
X123310685Y-94919029D01*
X123239256Y-94990457D01*
X123167828Y-95133314D01*
X123167828Y-95490457D01*
X123239256Y-95633314D01*
X123310685Y-95704743D01*
X123453542Y-95776171D01*
X123882114Y-95776171D01*
X124024971Y-95704743D01*
X124096399Y-95633314D01*
D14*
G36*
X173255290Y-106879742D02*
X173221935Y-106880711D01*
X173198347Y-106882228D01*
X173118211Y-106891955D01*
X173036242Y-106907253D01*
X172954299Y-106927681D01*
X172874242Y-106952796D01*
X172826459Y-106970493D01*
X172783653Y-106987482D01*
X172741404Y-107004539D01*
X172699333Y-107021839D01*
X172657061Y-107039558D01*
X172614211Y-107057874D01*
X172570405Y-107076961D01*
X172525264Y-107096995D01*
X172478411Y-107118154D01*
X172429467Y-107140612D01*
X172378055Y-107164546D01*
X172323796Y-107190132D01*
X172266313Y-107217546D01*
X172205226Y-107246964D01*
X172140159Y-107278562D01*
X172070732Y-107312517D01*
X171996569Y-107349003D01*
X171917290Y-107388198D01*
X171832519Y-107430277D01*
X171741876Y-107475417D01*
X171737847Y-107477426D01*
X171658054Y-107517125D01*
X171583999Y-107553758D01*
X171515184Y-107587553D01*
X171451109Y-107618740D01*
X171391275Y-107647551D01*
X171335183Y-107674213D01*
X171282334Y-107698957D01*
X171232228Y-107722014D01*
X171184366Y-107743612D01*
X171138250Y-107763982D01*
X171093379Y-107783354D01*
X171049255Y-107801956D01*
X171005379Y-107820021D01*
X170961251Y-107837776D01*
X170919402Y-107854269D01*
X170895757Y-107863530D01*
X170874119Y-107872058D01*
X170855406Y-107879487D01*
X170840536Y-107885450D01*
X170830427Y-107889583D01*
X170826028Y-107891501D01*
X170825012Y-107893865D01*
X170827368Y-107898645D01*
X170833589Y-107906483D01*
X170844163Y-107918023D01*
X170854250Y-107928474D01*
X170911445Y-107982600D01*
X170975245Y-108034757D01*
X171045449Y-108084846D01*
X171121860Y-108132769D01*
X171204277Y-108178425D01*
X171292502Y-108221717D01*
X171386335Y-108262546D01*
X171485578Y-108300812D01*
X171590031Y-108336417D01*
X171699496Y-108369262D01*
X171790764Y-108393540D01*
X171898347Y-108419136D01*
X172000430Y-108440398D01*
X172097082Y-108457325D01*
X172188371Y-108469916D01*
X172274364Y-108478170D01*
X172355130Y-108482088D01*
X172430736Y-108481668D01*
X172501252Y-108476910D01*
X172566744Y-108467814D01*
X172627281Y-108454378D01*
X172682931Y-108436602D01*
X172733763Y-108414486D01*
X172779843Y-108388029D01*
X172784717Y-108384792D01*
X172803433Y-108370712D01*
X172824023Y-108352815D01*
X172844538Y-108332989D01*
X172863025Y-108313121D01*
X172877533Y-108295098D01*
X172877751Y-108294796D01*
X172899357Y-108259690D01*
X172917636Y-108219925D01*
X172931932Y-108177369D01*
X172941593Y-108133891D01*
X172945437Y-108101322D01*
X172947875Y-108066075D01*
X173013139Y-108060151D01*
X173034400Y-108058247D01*
X173053696Y-108056565D01*
X173069741Y-108055215D01*
X173081249Y-108054305D01*
X173086772Y-108053947D01*
X173092501Y-108053127D01*
X173092138Y-108050173D01*
X173090300Y-108047780D01*
X173087794Y-108044046D01*
X173089753Y-108043062D01*
X173097348Y-108044302D01*
X173097805Y-108044395D01*
X173126598Y-108050018D01*
X173160557Y-108056305D01*
X173197859Y-108062942D01*
X173236684Y-108069618D01*
X173275209Y-108076019D01*
X173311612Y-108081832D01*
X173344071Y-108086745D01*
X173346514Y-108087100D01*
X173427088Y-108097996D01*
X173501979Y-108106419D01*
X173572120Y-108112343D01*
X173638445Y-108115744D01*
X173701888Y-108116596D01*
X173763383Y-108114874D01*
X173823863Y-108110552D01*
X173884262Y-108103606D01*
X173945514Y-108094011D01*
X174008553Y-108081741D01*
X174070978Y-108067576D01*
X174091219Y-108062551D01*
X174113929Y-108056658D01*
X174138117Y-108050181D01*
X174162791Y-108043404D01*
X174186960Y-108036608D01*
X174209632Y-108030079D01*
X174229815Y-108024099D01*
X174246517Y-108018952D01*
X174258746Y-108014921D01*
X174265512Y-108012289D01*
X174266434Y-108011724D01*
X174267209Y-108007976D01*
X174268639Y-107998155D01*
X174270615Y-107983201D01*
X174273029Y-107964055D01*
X174275770Y-107941658D01*
X174278729Y-107916950D01*
X174281797Y-107890871D01*
X174284865Y-107864363D01*
X174287823Y-107838366D01*
X174290562Y-107813821D01*
X174292973Y-107791668D01*
X174294947Y-107772848D01*
X174296374Y-107758301D01*
X174297144Y-107748969D01*
X174297250Y-107746513D01*
X174294019Y-107744892D01*
X174285262Y-107742314D01*
X174272379Y-107739158D01*
X174259326Y-107736320D01*
X174147157Y-107712094D01*
X174039123Y-107686570D01*
X173935650Y-107659870D01*
X173837164Y-107632119D01*
X173744093Y-107603443D01*
X173656864Y-107573966D01*
X173575903Y-107543812D01*
X173515127Y-107518941D01*
X173418646Y-107474433D01*
X173327174Y-107425507D01*
X173239820Y-107371614D01*
X173155692Y-107312202D01*
X173073992Y-107246801D01*
X173057703Y-107232731D01*
X173040223Y-107217209D01*
X173022330Y-107200973D01*
X173004803Y-107184760D01*
X172988420Y-107169307D01*
X172973959Y-107155349D01*
X172962200Y-107143625D01*
X172953920Y-107134870D01*
X172949899Y-107129822D01*
X172949639Y-107129115D01*
X172952890Y-107126617D01*
X172961928Y-107122803D01*
X172975675Y-107118001D01*
X172993056Y-107112535D01*
X173012995Y-107106732D01*
X173034414Y-107100917D01*
X173056239Y-107095417D01*
X173075816Y-107090901D01*
X173145040Y-107077922D01*
X173211946Y-107069990D01*
X173278161Y-107067067D01*
X173345315Y-107069115D01*
X173415037Y-107076096D01*
X173455507Y-107082096D01*
X173551820Y-107100856D01*
X173643589Y-107124807D01*
X173730752Y-107153917D01*
X173813244Y-107188158D01*
X173891004Y-107227499D01*
X173963968Y-107271909D01*
X174032074Y-107321359D01*
X174095258Y-107375818D01*
X174120861Y-107400731D01*
X174171506Y-107456095D01*
X174215550Y-107513280D01*
X174252899Y-107572148D01*
X174283461Y-107632560D01*
X174297205Y-107666028D01*
X174308693Y-107696432D01*
X174454737Y-107834996D01*
X174481511Y-107860468D01*
X174506628Y-107884499D01*
X174529640Y-107906652D01*
X174550100Y-107926490D01*
X174567562Y-107943575D01*
X174581579Y-107957472D01*
X174591702Y-107967742D01*
X174597486Y-107973950D01*
X174598698Y-107975690D01*
X174595158Y-107977513D01*
X174585802Y-107981927D01*
X174571260Y-107988645D01*
X174552158Y-107997381D01*
X174529124Y-108007849D01*
X174502788Y-108019763D01*
X174473775Y-108032837D01*
X174442714Y-108046784D01*
X174439166Y-108048375D01*
X174281717Y-108118931D01*
X174261603Y-108189486D01*
X174247574Y-108237561D01*
X174233876Y-108281940D01*
X174219524Y-108325693D01*
X174203531Y-108371894D01*
X174198362Y-108386422D01*
X174191696Y-108404496D01*
X174186499Y-108416977D01*
X174182163Y-108425013D01*
X174178080Y-108429755D01*
X174174199Y-108432121D01*
X174167666Y-108433374D01*
X174155062Y-108434399D01*
X174137368Y-108435198D01*
X174115564Y-108435771D01*
X174090632Y-108436120D01*
X174063552Y-108436246D01*
X174035306Y-108436150D01*
X174006873Y-108435833D01*
X173979235Y-108435297D01*
X173953373Y-108434542D01*
X173930267Y-108433570D01*
X173910899Y-108432382D01*
X173903902Y-108431800D01*
X173861385Y-108427639D01*
X173817563Y-108422920D01*
X173773322Y-108417767D01*
X173729551Y-108412304D01*
X173687136Y-108406654D01*
X173646963Y-108400940D01*
X173609921Y-108395287D01*
X173576895Y-108389818D01*
X173548772Y-108384657D01*
X173526440Y-108379927D01*
X173519375Y-108378196D01*
X173462949Y-108360188D01*
X173406741Y-108335555D01*
X173351381Y-108304716D01*
X173297497Y-108268088D01*
X173245717Y-108226091D01*
X173196669Y-108179142D01*
X173160769Y-108139419D01*
X173149618Y-108126365D01*
X173142188Y-108118129D01*
X173137683Y-108114108D01*
X173135304Y-108113703D01*
X173134256Y-108116312D01*
X173133924Y-108119177D01*
X173125072Y-108181029D01*
X173109875Y-108241195D01*
X173088633Y-108299025D01*
X173061645Y-108353868D01*
X173029208Y-108405075D01*
X172991622Y-108451994D01*
X172971130Y-108473506D01*
X172923980Y-108515375D01*
X172872120Y-108552239D01*
X172815523Y-108584103D01*
X172754164Y-108610972D01*
X172688016Y-108632847D01*
X172617053Y-108649735D01*
X172541250Y-108661639D01*
X172460581Y-108668562D01*
X172375019Y-108670510D01*
X172284540Y-108667486D01*
X172189116Y-108659493D01*
X172088723Y-108646537D01*
X171983334Y-108628621D01*
X171981264Y-108628229D01*
X171847960Y-108600715D01*
X171719390Y-108569678D01*
X171595778Y-108535198D01*
X171477350Y-108497354D01*
X171364328Y-108456225D01*
X171256937Y-108411891D01*
X171155403Y-108364429D01*
X171059948Y-108313920D01*
X171013444Y-108286871D01*
X170941568Y-108241622D01*
X170876071Y-108195957D01*
X170816278Y-108149299D01*
X170761514Y-108101071D01*
X170711105Y-108050694D01*
X170664376Y-107997593D01*
X170640708Y-107967935D01*
X170633652Y-107958793D01*
X170600115Y-107965455D01*
X170495111Y-107982936D01*
X170390670Y-107993496D01*
X170286185Y-107997171D01*
X170181051Y-107993997D01*
X170155639Y-107992219D01*
X170066315Y-107984517D01*
X169970454Y-107974773D01*
X169868260Y-107963024D01*
X169759938Y-107949304D01*
X169645693Y-107933649D01*
X169525730Y-107916094D01*
X169400255Y-107896676D01*
X169269472Y-107875428D01*
X169133586Y-107852388D01*
X168992803Y-107827589D01*
X168847327Y-107801068D01*
X168697364Y-107772860D01*
X168543118Y-107743000D01*
X168384795Y-107711525D01*
X168222599Y-107678468D01*
X168056736Y-107643866D01*
X167887411Y-107607754D01*
X167722917Y-107571946D01*
X167687460Y-107564219D01*
X167653672Y-107556982D01*
X167622256Y-107550378D01*
X167593918Y-107544550D01*
X167569361Y-107539638D01*
X167549289Y-107535785D01*
X167534405Y-107533134D01*
X167525414Y-107531825D01*
X167523598Y-107531710D01*
X167499147Y-107535325D01*
X167476980Y-107545489D01*
X167457535Y-107561940D01*
X167444702Y-107578714D01*
X167428780Y-107604601D01*
X167410592Y-107635862D01*
X167390727Y-107671421D01*
X167369771Y-107710199D01*
X167348313Y-107751119D01*
X167326942Y-107793103D01*
X167319276Y-107808486D01*
X167289467Y-107870291D01*
X167263848Y-107927008D01*
X167242264Y-107979113D01*
X167224563Y-108027077D01*
X167210590Y-108071376D01*
X167200193Y-108112481D01*
X167193217Y-108150868D01*
X167189510Y-108187009D01*
X167188777Y-108211017D01*
X167190145Y-108245658D01*
X167194397Y-108274824D01*
X167201755Y-108299574D01*
X167211593Y-108319576D01*
X167224628Y-108338408D01*
X167238849Y-108352507D01*
X167256578Y-108364103D01*
X167259484Y-108365661D01*
X167269830Y-108370668D01*
X167281198Y-108375256D01*
X167293951Y-108379454D01*
X167308458Y-108383295D01*
X167325082Y-108386806D01*
X167344189Y-108390019D01*
X167366146Y-108392964D01*
X167391318Y-108395671D01*
X167420071Y-108398170D01*
X167452770Y-108400491D01*
X167489781Y-108402664D01*
X167531470Y-108404720D01*
X167578202Y-108406689D01*
X167630343Y-108408601D01*
X167688258Y-108410486D01*
X167752315Y-108412374D01*
X167822877Y-108414296D01*
X167860819Y-108415282D01*
X167980445Y-108418512D01*
X168093553Y-108421915D01*
X168200678Y-108425525D01*
X168302355Y-108429372D01*
X168399122Y-108433490D01*
X168491513Y-108437910D01*
X168580063Y-108442664D01*
X168665310Y-108447786D01*
X168747788Y-108453306D01*
X168828033Y-108459258D01*
X168906580Y-108465673D01*
X168983967Y-108472583D01*
X169060727Y-108480022D01*
X169137397Y-108488020D01*
X169214513Y-108496611D01*
X169215486Y-108496723D01*
X169353235Y-108513667D01*
X169486484Y-108532414D01*
X169616451Y-108553216D01*
X169744351Y-108576325D01*
X169871401Y-108601993D01*
X169998819Y-108630474D01*
X170127819Y-108662018D01*
X170259619Y-108696880D01*
X170395436Y-108735310D01*
X170465899Y-108756143D01*
X170493013Y-108764416D01*
X170524899Y-108774394D01*
X170560718Y-108785799D01*
X170599633Y-108798350D01*
X170640805Y-108811768D01*
X170683394Y-108825772D01*
X170726562Y-108840082D01*
X170769470Y-108854419D01*
X170811280Y-108868503D01*
X170851153Y-108882054D01*
X170888249Y-108894791D01*
X170921732Y-108906436D01*
X170950761Y-108916707D01*
X170974498Y-108925326D01*
X170987675Y-108930287D01*
X171034100Y-108948714D01*
X171080948Y-108968455D01*
X171128828Y-108989814D01*
X171178350Y-109013099D01*
X171230123Y-109038614D01*
X171284756Y-109066665D01*
X171342858Y-109097558D01*
X171405038Y-109131598D01*
X171471907Y-109169091D01*
X171531472Y-109203090D01*
X171563123Y-109221282D01*
X171598627Y-109241686D01*
X171636031Y-109263181D01*
X171673382Y-109284643D01*
X171708729Y-109304953D01*
X171740118Y-109322987D01*
X171743139Y-109324722D01*
X171817849Y-109367228D01*
X171887389Y-109405860D01*
X171952334Y-109440832D01*
X172013262Y-109472361D01*
X172070751Y-109500662D01*
X172125377Y-109525950D01*
X172177718Y-109548442D01*
X172228351Y-109568353D01*
X172277854Y-109585898D01*
X172326803Y-109601294D01*
X172375776Y-109614755D01*
X172425351Y-109626498D01*
X172476104Y-109636738D01*
X172528613Y-109645691D01*
X172583455Y-109653573D01*
X172641208Y-109660598D01*
X172642722Y-109660768D01*
X172661307Y-109662405D01*
X172685594Y-109663872D01*
X172714379Y-109665152D01*
X172746463Y-109666227D01*
X172780643Y-109667078D01*
X172815718Y-109667688D01*
X172850487Y-109668037D01*
X172883747Y-109668108D01*
X172914298Y-109667882D01*
X172940938Y-109667342D01*
X172962466Y-109666469D01*
X172972569Y-109665766D01*
X173068563Y-109654796D01*
X173161409Y-109638944D01*
X173250643Y-109618340D01*
X173335801Y-109593112D01*
X173416420Y-109563390D01*
X173492037Y-109529303D01*
X173526430Y-109511423D01*
X173610501Y-109461747D01*
X173691994Y-109405614D01*
X173770929Y-109343003D01*
X173847324Y-109273893D01*
X173921200Y-109198264D01*
X173992576Y-109116095D01*
X174061472Y-109027366D01*
X174127908Y-108932057D01*
X174191902Y-108830145D01*
X174215857Y-108789208D01*
X174265664Y-108697801D01*
X174310843Y-108604995D01*
X174351856Y-108509669D01*
X174389166Y-108410702D01*
X174423236Y-108306973D01*
X174443682Y-108237111D01*
X174461937Y-108171847D01*
X174586850Y-108121265D01*
X174619199Y-108108164D01*
X174653280Y-108094360D01*
X174687629Y-108080446D01*
X174720782Y-108067013D01*
X174751275Y-108054657D01*
X174777644Y-108043970D01*
X174791875Y-108038200D01*
X174871987Y-108005719D01*
X174497301Y-107670903D01*
X174482025Y-107625042D01*
X174462029Y-107572558D01*
X174436641Y-107518304D01*
X174406710Y-107463803D01*
X174373084Y-107410580D01*
X174336609Y-107360159D01*
X174329923Y-107351644D01*
X174314812Y-107333691D01*
X174295545Y-107312394D01*
X174273346Y-107288976D01*
X174249439Y-107264659D01*
X174225047Y-107240663D01*
X174201394Y-107218213D01*
X174179703Y-107198529D01*
X174161198Y-107182834D01*
X174159666Y-107181608D01*
X174083729Y-107125687D01*
X174003325Y-107075202D01*
X173918512Y-107030177D01*
X173829352Y-106990636D01*
X173735903Y-106956603D01*
X173638224Y-106928101D01*
X173536376Y-106905155D01*
X173430418Y-106887789D01*
X173429416Y-106887654D01*
X173400441Y-106884531D01*
X173366492Y-106882131D01*
X173329617Y-106880500D01*
X173291867Y-106879688D01*
X173255290Y-106879742D01*
X173255290Y-106879742D01*
G37*
X173255290Y-106879742D02*
X173221935Y-106880711D01*
X173198347Y-106882228D01*
X173118211Y-106891955D01*
X173036242Y-106907253D01*
X172954299Y-106927681D01*
X172874242Y-106952796D01*
X172826459Y-106970493D01*
X172783653Y-106987482D01*
X172741404Y-107004539D01*
X172699333Y-107021839D01*
X172657061Y-107039558D01*
X172614211Y-107057874D01*
X172570405Y-107076961D01*
X172525264Y-107096995D01*
X172478411Y-107118154D01*
X172429467Y-107140612D01*
X172378055Y-107164546D01*
X172323796Y-107190132D01*
X172266313Y-107217546D01*
X172205226Y-107246964D01*
X172140159Y-107278562D01*
X172070732Y-107312517D01*
X171996569Y-107349003D01*
X171917290Y-107388198D01*
X171832519Y-107430277D01*
X171741876Y-107475417D01*
X171737847Y-107477426D01*
X171658054Y-107517125D01*
X171583999Y-107553758D01*
X171515184Y-107587553D01*
X171451109Y-107618740D01*
X171391275Y-107647551D01*
X171335183Y-107674213D01*
X171282334Y-107698957D01*
X171232228Y-107722014D01*
X171184366Y-107743612D01*
X171138250Y-107763982D01*
X171093379Y-107783354D01*
X171049255Y-107801956D01*
X171005379Y-107820021D01*
X170961251Y-107837776D01*
X170919402Y-107854269D01*
X170895757Y-107863530D01*
X170874119Y-107872058D01*
X170855406Y-107879487D01*
X170840536Y-107885450D01*
X170830427Y-107889583D01*
X170826028Y-107891501D01*
X170825012Y-107893865D01*
X170827368Y-107898645D01*
X170833589Y-107906483D01*
X170844163Y-107918023D01*
X170854250Y-107928474D01*
X170911445Y-107982600D01*
X170975245Y-108034757D01*
X171045449Y-108084846D01*
X171121860Y-108132769D01*
X171204277Y-108178425D01*
X171292502Y-108221717D01*
X171386335Y-108262546D01*
X171485578Y-108300812D01*
X171590031Y-108336417D01*
X171699496Y-108369262D01*
X171790764Y-108393540D01*
X171898347Y-108419136D01*
X172000430Y-108440398D01*
X172097082Y-108457325D01*
X172188371Y-108469916D01*
X172274364Y-108478170D01*
X172355130Y-108482088D01*
X172430736Y-108481668D01*
X172501252Y-108476910D01*
X172566744Y-108467814D01*
X172627281Y-108454378D01*
X172682931Y-108436602D01*
X172733763Y-108414486D01*
X172779843Y-108388029D01*
X172784717Y-108384792D01*
X172803433Y-108370712D01*
X172824023Y-108352815D01*
X172844538Y-108332989D01*
X172863025Y-108313121D01*
X172877533Y-108295098D01*
X172877751Y-108294796D01*
X172899357Y-108259690D01*
X172917636Y-108219925D01*
X172931932Y-108177369D01*
X172941593Y-108133891D01*
X172945437Y-108101322D01*
X172947875Y-108066075D01*
X173013139Y-108060151D01*
X173034400Y-108058247D01*
X173053696Y-108056565D01*
X173069741Y-108055215D01*
X173081249Y-108054305D01*
X173086772Y-108053947D01*
X173092501Y-108053127D01*
X173092138Y-108050173D01*
X173090300Y-108047780D01*
X173087794Y-108044046D01*
X173089753Y-108043062D01*
X173097348Y-108044302D01*
X173097805Y-108044395D01*
X173126598Y-108050018D01*
X173160557Y-108056305D01*
X173197859Y-108062942D01*
X173236684Y-108069618D01*
X173275209Y-108076019D01*
X173311612Y-108081832D01*
X173344071Y-108086745D01*
X173346514Y-108087100D01*
X173427088Y-108097996D01*
X173501979Y-108106419D01*
X173572120Y-108112343D01*
X173638445Y-108115744D01*
X173701888Y-108116596D01*
X173763383Y-108114874D01*
X173823863Y-108110552D01*
X173884262Y-108103606D01*
X173945514Y-108094011D01*
X174008553Y-108081741D01*
X174070978Y-108067576D01*
X174091219Y-108062551D01*
X174113929Y-108056658D01*
X174138117Y-108050181D01*
X174162791Y-108043404D01*
X174186960Y-108036608D01*
X174209632Y-108030079D01*
X174229815Y-108024099D01*
X174246517Y-108018952D01*
X174258746Y-108014921D01*
X174265512Y-108012289D01*
X174266434Y-108011724D01*
X174267209Y-108007976D01*
X174268639Y-107998155D01*
X174270615Y-107983201D01*
X174273029Y-107964055D01*
X174275770Y-107941658D01*
X174278729Y-107916950D01*
X174281797Y-107890871D01*
X174284865Y-107864363D01*
X174287823Y-107838366D01*
X174290562Y-107813821D01*
X174292973Y-107791668D01*
X174294947Y-107772848D01*
X174296374Y-107758301D01*
X174297144Y-107748969D01*
X174297250Y-107746513D01*
X174294019Y-107744892D01*
X174285262Y-107742314D01*
X174272379Y-107739158D01*
X174259326Y-107736320D01*
X174147157Y-107712094D01*
X174039123Y-107686570D01*
X173935650Y-107659870D01*
X173837164Y-107632119D01*
X173744093Y-107603443D01*
X173656864Y-107573966D01*
X173575903Y-107543812D01*
X173515127Y-107518941D01*
X173418646Y-107474433D01*
X173327174Y-107425507D01*
X173239820Y-107371614D01*
X173155692Y-107312202D01*
X173073992Y-107246801D01*
X173057703Y-107232731D01*
X173040223Y-107217209D01*
X173022330Y-107200973D01*
X173004803Y-107184760D01*
X172988420Y-107169307D01*
X172973959Y-107155349D01*
X172962200Y-107143625D01*
X172953920Y-107134870D01*
X172949899Y-107129822D01*
X172949639Y-107129115D01*
X172952890Y-107126617D01*
X172961928Y-107122803D01*
X172975675Y-107118001D01*
X172993056Y-107112535D01*
X173012995Y-107106732D01*
X173034414Y-107100917D01*
X173056239Y-107095417D01*
X173075816Y-107090901D01*
X173145040Y-107077922D01*
X173211946Y-107069990D01*
X173278161Y-107067067D01*
X173345315Y-107069115D01*
X173415037Y-107076096D01*
X173455507Y-107082096D01*
X173551820Y-107100856D01*
X173643589Y-107124807D01*
X173730752Y-107153917D01*
X173813244Y-107188158D01*
X173891004Y-107227499D01*
X173963968Y-107271909D01*
X174032074Y-107321359D01*
X174095258Y-107375818D01*
X174120861Y-107400731D01*
X174171506Y-107456095D01*
X174215550Y-107513280D01*
X174252899Y-107572148D01*
X174283461Y-107632560D01*
X174297205Y-107666028D01*
X174308693Y-107696432D01*
X174454737Y-107834996D01*
X174481511Y-107860468D01*
X174506628Y-107884499D01*
X174529640Y-107906652D01*
X174550100Y-107926490D01*
X174567562Y-107943575D01*
X174581579Y-107957472D01*
X174591702Y-107967742D01*
X174597486Y-107973950D01*
X174598698Y-107975690D01*
X174595158Y-107977513D01*
X174585802Y-107981927D01*
X174571260Y-107988645D01*
X174552158Y-107997381D01*
X174529124Y-108007849D01*
X174502788Y-108019763D01*
X174473775Y-108032837D01*
X174442714Y-108046784D01*
X174439166Y-108048375D01*
X174281717Y-108118931D01*
X174261603Y-108189486D01*
X174247574Y-108237561D01*
X174233876Y-108281940D01*
X174219524Y-108325693D01*
X174203531Y-108371894D01*
X174198362Y-108386422D01*
X174191696Y-108404496D01*
X174186499Y-108416977D01*
X174182163Y-108425013D01*
X174178080Y-108429755D01*
X174174199Y-108432121D01*
X174167666Y-108433374D01*
X174155062Y-108434399D01*
X174137368Y-108435198D01*
X174115564Y-108435771D01*
X174090632Y-108436120D01*
X174063552Y-108436246D01*
X174035306Y-108436150D01*
X174006873Y-108435833D01*
X173979235Y-108435297D01*
X173953373Y-108434542D01*
X173930267Y-108433570D01*
X173910899Y-108432382D01*
X173903902Y-108431800D01*
X173861385Y-108427639D01*
X173817563Y-108422920D01*
X173773322Y-108417767D01*
X173729551Y-108412304D01*
X173687136Y-108406654D01*
X173646963Y-108400940D01*
X173609921Y-108395287D01*
X173576895Y-108389818D01*
X173548772Y-108384657D01*
X173526440Y-108379927D01*
X173519375Y-108378196D01*
X173462949Y-108360188D01*
X173406741Y-108335555D01*
X173351381Y-108304716D01*
X173297497Y-108268088D01*
X173245717Y-108226091D01*
X173196669Y-108179142D01*
X173160769Y-108139419D01*
X173149618Y-108126365D01*
X173142188Y-108118129D01*
X173137683Y-108114108D01*
X173135304Y-108113703D01*
X173134256Y-108116312D01*
X173133924Y-108119177D01*
X173125072Y-108181029D01*
X173109875Y-108241195D01*
X173088633Y-108299025D01*
X173061645Y-108353868D01*
X173029208Y-108405075D01*
X172991622Y-108451994D01*
X172971130Y-108473506D01*
X172923980Y-108515375D01*
X172872120Y-108552239D01*
X172815523Y-108584103D01*
X172754164Y-108610972D01*
X172688016Y-108632847D01*
X172617053Y-108649735D01*
X172541250Y-108661639D01*
X172460581Y-108668562D01*
X172375019Y-108670510D01*
X172284540Y-108667486D01*
X172189116Y-108659493D01*
X172088723Y-108646537D01*
X171983334Y-108628621D01*
X171981264Y-108628229D01*
X171847960Y-108600715D01*
X171719390Y-108569678D01*
X171595778Y-108535198D01*
X171477350Y-108497354D01*
X171364328Y-108456225D01*
X171256937Y-108411891D01*
X171155403Y-108364429D01*
X171059948Y-108313920D01*
X171013444Y-108286871D01*
X170941568Y-108241622D01*
X170876071Y-108195957D01*
X170816278Y-108149299D01*
X170761514Y-108101071D01*
X170711105Y-108050694D01*
X170664376Y-107997593D01*
X170640708Y-107967935D01*
X170633652Y-107958793D01*
X170600115Y-107965455D01*
X170495111Y-107982936D01*
X170390670Y-107993496D01*
X170286185Y-107997171D01*
X170181051Y-107993997D01*
X170155639Y-107992219D01*
X170066315Y-107984517D01*
X169970454Y-107974773D01*
X169868260Y-107963024D01*
X169759938Y-107949304D01*
X169645693Y-107933649D01*
X169525730Y-107916094D01*
X169400255Y-107896676D01*
X169269472Y-107875428D01*
X169133586Y-107852388D01*
X168992803Y-107827589D01*
X168847327Y-107801068D01*
X168697364Y-107772860D01*
X168543118Y-107743000D01*
X168384795Y-107711525D01*
X168222599Y-107678468D01*
X168056736Y-107643866D01*
X167887411Y-107607754D01*
X167722917Y-107571946D01*
X167687460Y-107564219D01*
X167653672Y-107556982D01*
X167622256Y-107550378D01*
X167593918Y-107544550D01*
X167569361Y-107539638D01*
X167549289Y-107535785D01*
X167534405Y-107533134D01*
X167525414Y-107531825D01*
X167523598Y-107531710D01*
X167499147Y-107535325D01*
X167476980Y-107545489D01*
X167457535Y-107561940D01*
X167444702Y-107578714D01*
X167428780Y-107604601D01*
X167410592Y-107635862D01*
X167390727Y-107671421D01*
X167369771Y-107710199D01*
X167348313Y-107751119D01*
X167326942Y-107793103D01*
X167319276Y-107808486D01*
X167289467Y-107870291D01*
X167263848Y-107927008D01*
X167242264Y-107979113D01*
X167224563Y-108027077D01*
X167210590Y-108071376D01*
X167200193Y-108112481D01*
X167193217Y-108150868D01*
X167189510Y-108187009D01*
X167188777Y-108211017D01*
X167190145Y-108245658D01*
X167194397Y-108274824D01*
X167201755Y-108299574D01*
X167211593Y-108319576D01*
X167224628Y-108338408D01*
X167238849Y-108352507D01*
X167256578Y-108364103D01*
X167259484Y-108365661D01*
X167269830Y-108370668D01*
X167281198Y-108375256D01*
X167293951Y-108379454D01*
X167308458Y-108383295D01*
X167325082Y-108386806D01*
X167344189Y-108390019D01*
X167366146Y-108392964D01*
X167391318Y-108395671D01*
X167420071Y-108398170D01*
X167452770Y-108400491D01*
X167489781Y-108402664D01*
X167531470Y-108404720D01*
X167578202Y-108406689D01*
X167630343Y-108408601D01*
X167688258Y-108410486D01*
X167752315Y-108412374D01*
X167822877Y-108414296D01*
X167860819Y-108415282D01*
X167980445Y-108418512D01*
X168093553Y-108421915D01*
X168200678Y-108425525D01*
X168302355Y-108429372D01*
X168399122Y-108433490D01*
X168491513Y-108437910D01*
X168580063Y-108442664D01*
X168665310Y-108447786D01*
X168747788Y-108453306D01*
X168828033Y-108459258D01*
X168906580Y-108465673D01*
X168983967Y-108472583D01*
X169060727Y-108480022D01*
X169137397Y-108488020D01*
X169214513Y-108496611D01*
X169215486Y-108496723D01*
X169353235Y-108513667D01*
X169486484Y-108532414D01*
X169616451Y-108553216D01*
X169744351Y-108576325D01*
X169871401Y-108601993D01*
X169998819Y-108630474D01*
X170127819Y-108662018D01*
X170259619Y-108696880D01*
X170395436Y-108735310D01*
X170465899Y-108756143D01*
X170493013Y-108764416D01*
X170524899Y-108774394D01*
X170560718Y-108785799D01*
X170599633Y-108798350D01*
X170640805Y-108811768D01*
X170683394Y-108825772D01*
X170726562Y-108840082D01*
X170769470Y-108854419D01*
X170811280Y-108868503D01*
X170851153Y-108882054D01*
X170888249Y-108894791D01*
X170921732Y-108906436D01*
X170950761Y-108916707D01*
X170974498Y-108925326D01*
X170987675Y-108930287D01*
X171034100Y-108948714D01*
X171080948Y-108968455D01*
X171128828Y-108989814D01*
X171178350Y-109013099D01*
X171230123Y-109038614D01*
X171284756Y-109066665D01*
X171342858Y-109097558D01*
X171405038Y-109131598D01*
X171471907Y-109169091D01*
X171531472Y-109203090D01*
X171563123Y-109221282D01*
X171598627Y-109241686D01*
X171636031Y-109263181D01*
X171673382Y-109284643D01*
X171708729Y-109304953D01*
X171740118Y-109322987D01*
X171743139Y-109324722D01*
X171817849Y-109367228D01*
X171887389Y-109405860D01*
X171952334Y-109440832D01*
X172013262Y-109472361D01*
X172070751Y-109500662D01*
X172125377Y-109525950D01*
X172177718Y-109548442D01*
X172228351Y-109568353D01*
X172277854Y-109585898D01*
X172326803Y-109601294D01*
X172375776Y-109614755D01*
X172425351Y-109626498D01*
X172476104Y-109636738D01*
X172528613Y-109645691D01*
X172583455Y-109653573D01*
X172641208Y-109660598D01*
X172642722Y-109660768D01*
X172661307Y-109662405D01*
X172685594Y-109663872D01*
X172714379Y-109665152D01*
X172746463Y-109666227D01*
X172780643Y-109667078D01*
X172815718Y-109667688D01*
X172850487Y-109668037D01*
X172883747Y-109668108D01*
X172914298Y-109667882D01*
X172940938Y-109667342D01*
X172962466Y-109666469D01*
X172972569Y-109665766D01*
X173068563Y-109654796D01*
X173161409Y-109638944D01*
X173250643Y-109618340D01*
X173335801Y-109593112D01*
X173416420Y-109563390D01*
X173492037Y-109529303D01*
X173526430Y-109511423D01*
X173610501Y-109461747D01*
X173691994Y-109405614D01*
X173770929Y-109343003D01*
X173847324Y-109273893D01*
X173921200Y-109198264D01*
X173992576Y-109116095D01*
X174061472Y-109027366D01*
X174127908Y-108932057D01*
X174191902Y-108830145D01*
X174215857Y-108789208D01*
X174265664Y-108697801D01*
X174310843Y-108604995D01*
X174351856Y-108509669D01*
X174389166Y-108410702D01*
X174423236Y-108306973D01*
X174443682Y-108237111D01*
X174461937Y-108171847D01*
X174586850Y-108121265D01*
X174619199Y-108108164D01*
X174653280Y-108094360D01*
X174687629Y-108080446D01*
X174720782Y-108067013D01*
X174751275Y-108054657D01*
X174777644Y-108043970D01*
X174791875Y-108038200D01*
X174871987Y-108005719D01*
X174497301Y-107670903D01*
X174482025Y-107625042D01*
X174462029Y-107572558D01*
X174436641Y-107518304D01*
X174406710Y-107463803D01*
X174373084Y-107410580D01*
X174336609Y-107360159D01*
X174329923Y-107351644D01*
X174314812Y-107333691D01*
X174295545Y-107312394D01*
X174273346Y-107288976D01*
X174249439Y-107264659D01*
X174225047Y-107240663D01*
X174201394Y-107218213D01*
X174179703Y-107198529D01*
X174161198Y-107182834D01*
X174159666Y-107181608D01*
X174083729Y-107125687D01*
X174003325Y-107075202D01*
X173918512Y-107030177D01*
X173829352Y-106990636D01*
X173735903Y-106956603D01*
X173638224Y-106928101D01*
X173536376Y-106905155D01*
X173430418Y-106887789D01*
X173429416Y-106887654D01*
X173400441Y-106884531D01*
X173366492Y-106882131D01*
X173329617Y-106880500D01*
X173291867Y-106879688D01*
X173255290Y-106879742D01*
D15*
X158725000Y-99240000D02*
X160575000Y-99240000D01*
X158725000Y-116760000D02*
X160575000Y-116760000D01*
X159650000Y-115800000D02*
X159650000Y-100200000D01*
X156850000Y-96500000D02*
X157550000Y-96500000D01*
X157550000Y-95300000D02*
X156850000Y-95300000D01*
X158337500Y-94737500D02*
X156187500Y-94737500D01*
X159162500Y-92487500D02*
X156187500Y-92487500D01*
X154950000Y-91875000D02*
X155950000Y-91875000D01*
X155950000Y-90525000D02*
X154950000Y-90525000D01*
X147500000Y-108675000D02*
X148500000Y-108675000D01*
X148500000Y-107325000D02*
X147500000Y-107325000D01*
X147480400Y-105675000D02*
X148480400Y-105675000D01*
X148480400Y-104325000D02*
X147480400Y-104325000D01*
X147513600Y-102675000D02*
X148513600Y-102675000D01*
X148513600Y-101325000D02*
X147513600Y-101325000D01*
D10*
G36*
X150799289Y-117116801D02*
X150440952Y-116346439D01*
X150421975Y-116348854D01*
X150403362Y-116351038D01*
X150385112Y-116352993D01*
X150367227Y-116354717D01*
X150349704Y-116356212D01*
X150332546Y-116357477D01*
X150315751Y-116358512D01*
X150299320Y-116359317D01*
X150283252Y-116359892D01*
X150267548Y-116360236D01*
X150252208Y-116360351D01*
X150233187Y-116360022D01*
X150214710Y-116359035D01*
X150196777Y-116357390D01*
X150179387Y-116355087D01*
X150162540Y-116352126D01*
X150146238Y-116348506D01*
X150130478Y-116344229D01*
X150115263Y-116339293D01*
X150100591Y-116333700D01*
X150086462Y-116327448D01*
X150072877Y-116320539D01*
X150059836Y-116312971D01*
X150047338Y-116304745D01*
X150035384Y-116295861D01*
X150023974Y-116286319D01*
X150013107Y-116276119D01*
X150002783Y-116265261D01*
X149995070Y-116256190D01*
X149987716Y-116246515D01*
X149980720Y-116236237D01*
X149974084Y-116225355D01*
X149967806Y-116213870D01*
X149961886Y-116201781D01*
X149956326Y-116189088D01*
X149951124Y-116175792D01*
X149946281Y-116161893D01*
X149941797Y-116147390D01*
X149937671Y-116132283D01*
X149933904Y-116116573D01*
X149930496Y-116100259D01*
X149927447Y-116083342D01*
X149924756Y-116065821D01*
X149922424Y-116047696D01*
X149920451Y-116028968D01*
X149918837Y-116009637D01*
X149917581Y-115989702D01*
X149916684Y-115969163D01*
X149916146Y-115948021D01*
X149915967Y-115926275D01*
X149916101Y-115904009D01*
X149916502Y-115882313D01*
X149917171Y-115861186D01*
X149918108Y-115840629D01*
X149919312Y-115820642D01*
X149920784Y-115801223D01*
X149922524Y-115782375D01*
X149924531Y-115764096D01*
X149926806Y-115746386D01*
X149929349Y-115729246D01*
X149932159Y-115712675D01*
X149935237Y-115696674D01*
X149938582Y-115681242D01*
X149942195Y-115666380D01*
X149946076Y-115652087D01*
X149950224Y-115638364D01*
X149954640Y-115625210D01*
X149959324Y-115612626D01*
X149964275Y-115600611D01*
X149969494Y-115589166D01*
X149974981Y-115578291D01*
X149980735Y-115567984D01*
X149988688Y-115555395D01*
X149997309Y-115543568D01*
X150006598Y-115532504D01*
X150016554Y-115522204D01*
X150027178Y-115512666D01*
X150038469Y-115503892D01*
X150050428Y-115495880D01*
X150063055Y-115488631D01*
X150076349Y-115482146D01*
X150090310Y-115476423D01*
X150104939Y-115471464D01*
X150120236Y-115467267D01*
X150136200Y-115463834D01*
X150152832Y-115461163D01*
X150170131Y-115459256D01*
X150188098Y-115458111D01*
X150206733Y-115457730D01*
X150228302Y-115458016D01*
X150248913Y-115458876D01*
X150268565Y-115460309D01*
X150287258Y-115462315D01*
X150304993Y-115464894D01*
X150321769Y-115468046D01*
X150337587Y-115471771D01*
X150352445Y-115476069D01*
X150366346Y-115480941D01*
X150379287Y-115486386D01*
X150391270Y-115492403D01*
X150402295Y-115498994D01*
X150412360Y-115506158D01*
X150421467Y-115513896D01*
X150429616Y-115522206D01*
X150436805Y-115531089D01*
X150443037Y-115540546D01*
X150448309Y-115550575D01*
X150452623Y-115561178D01*
X150455978Y-115572354D01*
X150458375Y-115584103D01*
X150459813Y-115596425D01*
X150460292Y-115609321D01*
X150460292Y-116343813D01*
X150460292Y-116343794D01*
X150440952Y-116346439D01*
X150799289Y-117116801D01*
X150799289Y-115640929D01*
X150799016Y-115624138D01*
X150798195Y-115607555D01*
X150796828Y-115591180D01*
X150794913Y-115575013D01*
X150792451Y-115559055D01*
X150789443Y-115543305D01*
X150785887Y-115527764D01*
X150781784Y-115512431D01*
X150777134Y-115497306D01*
X150771937Y-115482390D01*
X150766193Y-115467682D01*
X150759902Y-115453182D01*
X150753064Y-115438891D01*
X150745679Y-115424808D01*
X150737747Y-115410933D01*
X150729267Y-115397267D01*
X150720241Y-115383809D01*
X150710668Y-115370559D01*
X150700547Y-115357518D01*
X150689880Y-115344685D01*
X150678665Y-115332061D01*
X150666904Y-115319645D01*
X150654595Y-115307437D01*
X150644336Y-115297910D01*
X150633707Y-115288717D01*
X150622707Y-115279859D01*
X150611337Y-115271334D01*
X150599597Y-115263144D01*
X150587486Y-115255289D01*
X150575005Y-115247768D01*
X150562154Y-115240580D01*
X150548932Y-115233728D01*
X150535340Y-115227209D01*
X150521378Y-115221025D01*
X150507045Y-115215175D01*
X150492342Y-115209659D01*
X150477269Y-115204478D01*
X150461826Y-115199631D01*
X150446012Y-115195118D01*
X150429828Y-115190940D01*
X150413273Y-115187095D01*
X150396348Y-115183585D01*
X150379053Y-115180410D01*
X150361388Y-115177568D01*
X150343352Y-115175061D01*
X150324946Y-115172888D01*
X150306170Y-115171050D01*
X150287023Y-115169546D01*
X150267506Y-115168376D01*
X150247619Y-115167540D01*
X150227361Y-115167038D01*
X150206733Y-115166871D01*
X150189184Y-115167045D01*
X150171679Y-115167565D01*
X150154217Y-115168432D01*
X150136797Y-115169647D01*
X150119421Y-115171208D01*
X150102088Y-115173116D01*
X150084798Y-115175370D01*
X150067551Y-115177972D01*
X150053261Y-115180549D01*
X150038502Y-115183839D01*
X150023275Y-115187843D01*
X150007579Y-115192560D01*
X149991414Y-115197991D01*
X149974782Y-115204135D01*
X149957680Y-115210993D01*
X149940110Y-115218564D01*
X149922072Y-115226848D01*
X149903565Y-115235846D01*
X149887908Y-115243849D01*
X149872635Y-115252234D01*
X149857745Y-115261002D01*
X149843237Y-115270152D01*
X149829112Y-115279685D01*
X149815370Y-115289600D01*
X149802011Y-115299898D01*
X149789034Y-115310579D01*
X149776440Y-115321642D01*
X149764230Y-115333088D01*
X149752401Y-115344916D01*
X149740956Y-115357127D01*
X149732032Y-115367361D01*
X149723268Y-115378219D01*
X149714663Y-115389703D01*
X149706217Y-115401811D01*
X149697931Y-115414543D01*
X149689803Y-115427901D01*
X149681835Y-115441882D01*
X149674026Y-115456489D01*
X149666377Y-115471720D01*
X149658886Y-115487576D01*
X149651555Y-115504057D01*
X149644383Y-115521162D01*
X149637370Y-115538892D01*
X149630517Y-115557246D01*
X149623823Y-115576225D01*
X149618986Y-115590670D01*
X149614397Y-115605343D01*
X149610056Y-115620243D01*
X149605963Y-115635370D01*
X149602119Y-115650725D01*
X149598522Y-115666307D01*
X149595173Y-115682117D01*
X149592073Y-115698154D01*
X149589220Y-115714419D01*
X149586616Y-115730911D01*
X149584259Y-115747631D01*
X149582151Y-115764578D01*
X149580291Y-115781753D01*
X149578678Y-115799155D01*
X149577314Y-115816784D01*
X149576198Y-115834641D01*
X149575330Y-115852726D01*
X149574710Y-115871038D01*
X149574337Y-115889577D01*
X149574213Y-115908344D01*
X149574360Y-115928471D01*
X149574800Y-115948321D01*
X149575533Y-115967894D01*
X149576559Y-115987191D01*
X149577879Y-116006211D01*
X149579492Y-116024955D01*
X149581398Y-116043422D01*
X149583597Y-116061613D01*
X149586090Y-116079527D01*
X149588876Y-116097165D01*
X149591955Y-116114526D01*
X149595327Y-116131610D01*
X149598993Y-116148419D01*
X149602952Y-116164950D01*
X149607204Y-116181205D01*
X149611749Y-116197184D01*
X149616588Y-116212886D01*
X149621720Y-116228311D01*
X149627145Y-116243460D01*
X149632863Y-116258332D01*
X149638875Y-116272928D01*
X149645180Y-116287248D01*
X149651778Y-116301291D01*
X149658670Y-116315057D01*
X149665854Y-116328547D01*
X149673332Y-116341760D01*
X149681103Y-116354697D01*
X149689168Y-116367357D01*
X149697525Y-116379741D01*
X149706176Y-116391848D01*
X149715120Y-116403678D01*
X149724358Y-116415232D01*
X149733888Y-116426510D01*
X149743712Y-116437511D01*
X149754119Y-116448532D01*
X149764794Y-116459214D01*
X149775737Y-116469557D01*
X149786949Y-116479561D01*
X149798429Y-116489226D01*
X149810177Y-116498552D01*
X149822193Y-116507538D01*
X149834478Y-116516186D01*
X149847031Y-116524494D01*
X149859852Y-116532463D01*
X149872941Y-116540094D01*
X149886299Y-116547385D01*
X149899925Y-116554336D01*
X149913819Y-116560949D01*
X149927982Y-116567223D01*
X149942413Y-116573157D01*
X149957112Y-116578753D01*
X149972079Y-116584009D01*
X149987315Y-116588926D01*
X150002819Y-116593504D01*
X150018591Y-116597743D01*
X150034631Y-116601643D01*
X150050940Y-116605204D01*
X150067517Y-116608425D01*
X150084362Y-116611308D01*
X150101476Y-116613851D01*
X150118857Y-116616056D01*
X150136507Y-116617921D01*
X150154426Y-116619447D01*
X150172612Y-116620634D01*
X150191067Y-116621481D01*
X150209790Y-116621990D01*
X150228782Y-116622160D01*
X150245684Y-116622033D01*
X150262529Y-116621654D01*
X150279319Y-116621021D01*
X150296052Y-116620135D01*
X150312729Y-116618997D01*
X150329350Y-116617605D01*
X150345915Y-116615960D01*
X150362423Y-116614062D01*
X150378875Y-116611911D01*
X150395271Y-116609508D01*
X150411611Y-116606851D01*
X150427894Y-116603941D01*
X150444121Y-116600778D01*
X150460292Y-116597362D01*
X150460292Y-117116876D01*
X150799289Y-117116876D01*
X150799289Y-117116801D01*
X150799289Y-117116801D01*
G37*
G36*
X149116705Y-116429157D02*
X148926182Y-115656816D01*
X148929981Y-115672623D01*
X148933448Y-115689136D01*
X148936586Y-115706356D01*
X148939393Y-115724281D01*
X148941870Y-115742913D01*
X148944017Y-115762250D01*
X148945834Y-115782294D01*
X148947320Y-115803044D01*
X148948476Y-115824500D01*
X148949302Y-115846662D01*
X148949797Y-115869530D01*
X148949962Y-115893104D01*
X148949797Y-115916557D01*
X148949302Y-115939308D01*
X148948476Y-115961360D01*
X148947320Y-115982711D01*
X148945834Y-116003361D01*
X148944017Y-116023311D01*
X148941870Y-116042561D01*
X148939393Y-116061110D01*
X148936586Y-116078959D01*
X148933448Y-116096108D01*
X148929981Y-116112556D01*
X148926182Y-116128303D01*
X148922054Y-116143350D01*
X148917595Y-116157697D01*
X148912806Y-116171343D01*
X148907687Y-116184289D01*
X148902238Y-116196535D01*
X148896458Y-116208080D01*
X148890348Y-116218924D01*
X148883907Y-116229069D01*
X148877137Y-116238512D01*
X148870036Y-116247256D01*
X148860175Y-116257641D01*
X148849723Y-116267397D01*
X148838680Y-116276524D01*
X148827045Y-116285021D01*
X148814819Y-116292888D01*
X148802002Y-116300127D01*
X148788593Y-116306736D01*
X148774594Y-116312715D01*
X148760003Y-116318065D01*
X148744820Y-116322786D01*
X148729047Y-116326877D01*
X148712682Y-116330339D01*
X148695726Y-116333171D01*
X148678179Y-116335374D01*
X148660040Y-116336948D01*
X148641310Y-116337892D01*
X148621989Y-116338206D01*
X148602673Y-116337892D01*
X148583957Y-116336948D01*
X148565842Y-116335374D01*
X148548328Y-116333171D01*
X148531415Y-116330339D01*
X148515103Y-116326877D01*
X148499391Y-116322786D01*
X148484281Y-116318065D01*
X148469771Y-116312715D01*
X148455861Y-116306736D01*
X148442553Y-116300127D01*
X148429846Y-116292888D01*
X148417739Y-116285021D01*
X148406233Y-116276524D01*
X148395328Y-116267397D01*
X148385024Y-116257641D01*
X148375320Y-116247256D01*
X148368219Y-116238512D01*
X148361449Y-116229069D01*
X148355008Y-116218924D01*
X148348898Y-116208080D01*
X148343119Y-116196535D01*
X148337669Y-116184289D01*
X148332550Y-116171343D01*
X148327761Y-116157697D01*
X148323302Y-116143350D01*
X148319174Y-116128303D01*
X148315376Y-116112556D01*
X148311908Y-116096108D01*
X148308770Y-116078959D01*
X148305963Y-116061110D01*
X148303486Y-116042561D01*
X148301339Y-116023311D01*
X148299522Y-116003361D01*
X148298036Y-115982711D01*
X148296880Y-115961360D01*
X148296054Y-115939308D01*
X148295559Y-115916557D01*
X148295394Y-115893104D01*
X148295559Y-115869530D01*
X148296054Y-115846662D01*
X148296880Y-115824500D01*
X148298036Y-115803044D01*
X148299522Y-115782294D01*
X148301339Y-115762250D01*
X148303486Y-115742913D01*
X148305963Y-115724281D01*
X148308770Y-115706356D01*
X148311908Y-115689136D01*
X148315376Y-115672623D01*
X148319174Y-115656816D01*
X148323302Y-115641715D01*
X148327761Y-115627320D01*
X148332550Y-115613631D01*
X148337669Y-115600648D01*
X148343119Y-115588371D01*
X148348898Y-115576801D01*
X148355008Y-115565936D01*
X148361449Y-115555778D01*
X148368219Y-115546326D01*
X148375320Y-115537580D01*
X148385024Y-115527035D01*
X148395328Y-115517130D01*
X148406233Y-115507864D01*
X148417739Y-115499236D01*
X148429846Y-115491248D01*
X148442553Y-115483899D01*
X148455861Y-115477189D01*
X148469771Y-115471118D01*
X148484281Y-115465686D01*
X148499391Y-115460893D01*
X148515103Y-115456739D01*
X148531415Y-115453225D01*
X148548328Y-115450349D01*
X148565842Y-115448112D01*
X148583957Y-115446515D01*
X148602673Y-115445556D01*
X148621989Y-115445237D01*
X148641310Y-115445556D01*
X148660040Y-115446515D01*
X148678179Y-115448112D01*
X148695726Y-115450349D01*
X148712682Y-115453225D01*
X148729047Y-115456739D01*
X148744820Y-115460893D01*
X148760003Y-115465686D01*
X148774594Y-115471118D01*
X148788593Y-115477189D01*
X148802002Y-115483899D01*
X148814819Y-115491248D01*
X148827045Y-115499236D01*
X148838680Y-115507864D01*
X148849723Y-115517130D01*
X148860175Y-115527035D01*
X148870036Y-115537580D01*
X148877137Y-115546326D01*
X148883907Y-115555778D01*
X148890348Y-115565936D01*
X148896458Y-115576801D01*
X148902238Y-115588371D01*
X148907687Y-115600648D01*
X148912806Y-115613631D01*
X148917595Y-115627320D01*
X148922054Y-115641715D01*
X148926182Y-115656816D01*
X149116705Y-116429157D01*
X149126407Y-116418315D01*
X149135828Y-116407208D01*
X149144969Y-116395834D01*
X149153827Y-116384196D01*
X149162405Y-116372292D01*
X149170701Y-116360123D01*
X149178716Y-116347688D01*
X149186450Y-116334987D01*
X149193903Y-116322021D01*
X149201074Y-116308790D01*
X149207965Y-116295293D01*
X149214574Y-116281531D01*
X149220901Y-116267503D01*
X149226948Y-116253210D01*
X149232713Y-116238651D01*
X149238197Y-116223827D01*
X149243400Y-116208738D01*
X149248321Y-116193383D01*
X149252962Y-116177762D01*
X149257321Y-116161876D01*
X149261399Y-116145725D01*
X149265195Y-116129308D01*
X149268711Y-116112626D01*
X149271945Y-116095678D01*
X149274898Y-116078464D01*
X149277570Y-116060986D01*
X149279960Y-116043241D01*
X149282069Y-116025232D01*
X149283897Y-116006957D01*
X149285444Y-115988416D01*
X149286710Y-115969610D01*
X149287694Y-115950538D01*
X149288397Y-115931201D01*
X149288819Y-115911599D01*
X149288960Y-115891731D01*
X149288819Y-115871862D01*
X149288397Y-115852258D01*
X149287694Y-115832920D01*
X149286710Y-115813848D01*
X149285444Y-115795041D01*
X149283897Y-115776499D01*
X149282069Y-115758223D01*
X149279960Y-115740213D01*
X149277570Y-115722468D01*
X149274898Y-115704988D01*
X149271945Y-115687774D01*
X149268711Y-115670825D01*
X149265195Y-115654142D01*
X149261399Y-115637725D01*
X149257321Y-115621573D01*
X149252962Y-115605686D01*
X149248321Y-115590065D01*
X149243400Y-115574710D01*
X149238197Y-115559620D01*
X149232713Y-115544795D01*
X149226948Y-115530236D01*
X149220901Y-115515942D01*
X149214574Y-115501914D01*
X149207965Y-115488152D01*
X149201074Y-115474654D01*
X149193903Y-115461423D01*
X149186450Y-115448457D01*
X149178716Y-115435756D01*
X149170701Y-115423321D01*
X149162405Y-115411151D01*
X149153827Y-115399247D01*
X149144969Y-115387609D01*
X149135828Y-115376235D01*
X149126407Y-115365128D01*
X149116705Y-115354286D01*
X149106128Y-115343099D01*
X149095279Y-115332257D01*
X149084156Y-115321759D01*
X149072759Y-115311605D01*
X149061090Y-115301796D01*
X149049147Y-115292331D01*
X149036930Y-115283209D01*
X149024441Y-115274432D01*
X149011678Y-115266000D01*
X148998641Y-115257911D01*
X148985332Y-115250167D01*
X148971749Y-115242766D01*
X148957892Y-115235710D01*
X148943763Y-115228999D01*
X148929360Y-115222631D01*
X148914684Y-115216608D01*
X148899734Y-115210928D01*
X148884511Y-115205593D01*
X148869015Y-115200602D01*
X148853245Y-115195956D01*
X148837202Y-115191653D01*
X148820886Y-115187695D01*
X148804296Y-115184081D01*
X148787433Y-115180811D01*
X148770297Y-115177886D01*
X148752887Y-115175304D01*
X148735205Y-115173067D01*
X148717248Y-115171174D01*
X148699019Y-115169625D01*
X148680516Y-115168420D01*
X148661740Y-115167560D01*
X148642690Y-115167043D01*
X148623367Y-115166871D01*
X148603962Y-115167043D01*
X148584833Y-115167560D01*
X148565979Y-115168420D01*
X148547402Y-115169625D01*
X148529100Y-115171174D01*
X148511074Y-115173067D01*
X148493324Y-115175304D01*
X148475850Y-115177886D01*
X148458652Y-115180811D01*
X148441729Y-115184081D01*
X148425083Y-115187695D01*
X148408712Y-115191653D01*
X148392617Y-115195956D01*
X148376798Y-115200602D01*
X148361255Y-115205593D01*
X148345988Y-115210928D01*
X148330996Y-115216608D01*
X148316281Y-115222631D01*
X148301841Y-115228999D01*
X148287677Y-115235710D01*
X148273789Y-115242766D01*
X148260177Y-115250167D01*
X148246841Y-115257911D01*
X148233781Y-115266000D01*
X148220996Y-115274432D01*
X148208488Y-115283209D01*
X148196255Y-115292331D01*
X148184298Y-115301796D01*
X148172617Y-115311605D01*
X148161212Y-115321759D01*
X148150082Y-115332257D01*
X148139229Y-115343099D01*
X148128651Y-115354286D01*
X148118949Y-115365128D01*
X148109527Y-115376235D01*
X148100387Y-115387609D01*
X148091529Y-115399247D01*
X148082951Y-115411151D01*
X148074655Y-115423321D01*
X148066640Y-115435756D01*
X148058906Y-115448457D01*
X148051453Y-115461423D01*
X148044282Y-115474654D01*
X148037391Y-115488152D01*
X148030782Y-115501914D01*
X148024455Y-115515942D01*
X148018408Y-115530236D01*
X148012643Y-115544795D01*
X148007159Y-115559620D01*
X148001956Y-115574710D01*
X147997035Y-115590065D01*
X147992394Y-115605686D01*
X147988035Y-115621573D01*
X147983957Y-115637725D01*
X147980161Y-115654142D01*
X147976645Y-115670825D01*
X147973411Y-115687774D01*
X147970458Y-115704988D01*
X147967786Y-115722468D01*
X147965396Y-115740213D01*
X147963287Y-115758223D01*
X147961459Y-115776499D01*
X147959912Y-115795041D01*
X147958646Y-115813848D01*
X147957662Y-115832920D01*
X147956959Y-115852258D01*
X147956537Y-115871862D01*
X147956397Y-115891731D01*
X147956537Y-115911599D01*
X147956959Y-115931201D01*
X147957662Y-115950538D01*
X147958646Y-115969610D01*
X147959912Y-115988416D01*
X147961459Y-116006957D01*
X147963287Y-116025232D01*
X147965396Y-116043241D01*
X147967786Y-116060986D01*
X147970458Y-116078464D01*
X147973411Y-116095678D01*
X147976645Y-116112626D01*
X147980161Y-116129308D01*
X147983957Y-116145725D01*
X147988035Y-116161876D01*
X147992394Y-116177762D01*
X147997035Y-116193383D01*
X148001956Y-116208738D01*
X148007159Y-116223827D01*
X148012643Y-116238651D01*
X148018408Y-116253210D01*
X148024455Y-116267503D01*
X148030782Y-116281531D01*
X148037391Y-116295293D01*
X148044282Y-116308790D01*
X148051453Y-116322021D01*
X148058906Y-116334987D01*
X148066640Y-116347688D01*
X148074655Y-116360123D01*
X148082951Y-116372292D01*
X148091529Y-116384196D01*
X148100387Y-116395834D01*
X148109527Y-116407208D01*
X148118949Y-116418315D01*
X148128651Y-116429157D01*
X148139229Y-116440344D01*
X148150082Y-116451186D01*
X148161212Y-116461684D01*
X148172617Y-116471837D01*
X148184298Y-116481647D01*
X148196255Y-116491112D01*
X148208488Y-116500234D01*
X148220996Y-116509011D01*
X148233781Y-116517443D01*
X148246841Y-116525532D01*
X148260177Y-116533276D01*
X148273789Y-116540677D01*
X148287677Y-116547733D01*
X148301841Y-116554444D01*
X148316281Y-116560812D01*
X148330996Y-116566835D01*
X148345988Y-116572515D01*
X148361255Y-116577850D01*
X148376798Y-116582840D01*
X148392617Y-116587487D01*
X148408712Y-116591790D01*
X148425083Y-116595748D01*
X148441729Y-116599362D01*
X148458652Y-116602632D01*
X148475850Y-116605557D01*
X148493324Y-116608139D01*
X148511074Y-116610376D01*
X148529100Y-116612269D01*
X148547402Y-116613818D01*
X148565979Y-116615023D01*
X148584833Y-116615883D01*
X148603962Y-116616400D01*
X148623367Y-116616572D01*
X148642690Y-116616400D01*
X148661740Y-116615883D01*
X148680516Y-116615023D01*
X148699019Y-116613818D01*
X148717248Y-116612269D01*
X148735205Y-116610376D01*
X148752887Y-116608139D01*
X148770297Y-116605557D01*
X148787433Y-116602632D01*
X148804296Y-116599362D01*
X148820886Y-116595748D01*
X148837202Y-116591790D01*
X148853245Y-116587487D01*
X148869015Y-116582840D01*
X148884511Y-116577850D01*
X148899734Y-116572515D01*
X148914684Y-116566835D01*
X148929360Y-116560812D01*
X148943763Y-116554444D01*
X148957892Y-116547733D01*
X148971749Y-116540677D01*
X148985332Y-116533276D01*
X148998641Y-116525532D01*
X149011678Y-116517443D01*
X149024441Y-116509011D01*
X149036930Y-116500234D01*
X149049147Y-116491112D01*
X149061090Y-116481647D01*
X149072759Y-116471837D01*
X149084156Y-116461684D01*
X149095279Y-116451186D01*
X149106128Y-116440344D01*
X149116705Y-116429157D01*
X149116705Y-116429157D01*
G37*
G36*
X147592594Y-116594521D02*
X147592594Y-114650122D01*
X147253597Y-114650122D01*
X147253597Y-116594521D01*
X147592594Y-116594521D01*
X147592594Y-116594521D01*
G37*
G36*
X146947673Y-115186175D02*
X146588005Y-115186175D01*
X146272434Y-116168704D01*
X145962375Y-115186175D01*
X145604085Y-115186175D01*
X146140142Y-116628971D01*
X146147958Y-116649925D01*
X146155820Y-116670400D01*
X146163728Y-116690397D01*
X146171681Y-116709916D01*
X146179681Y-116728956D01*
X146187726Y-116747518D01*
X146195818Y-116765601D01*
X146203955Y-116783206D01*
X146212138Y-116800333D01*
X146220367Y-116816981D01*
X146228641Y-116833150D01*
X146236962Y-116848842D01*
X146245329Y-116864054D01*
X146253741Y-116878789D01*
X146262199Y-116893044D01*
X146270704Y-116906822D01*
X146279254Y-116920121D01*
X146287850Y-116932941D01*
X146296491Y-116945283D01*
X146305179Y-116957147D01*
X146313913Y-116968532D01*
X146322692Y-116979438D01*
X146331517Y-116989867D01*
X146340389Y-116999816D01*
X146349306Y-117009288D01*
X146358269Y-117018281D01*
X146367278Y-117026795D01*
X146376332Y-117034831D01*
X146385433Y-117042388D01*
X146400162Y-117054000D01*
X146414950Y-117064948D01*
X146429798Y-117075232D01*
X146444706Y-117084853D01*
X146459673Y-117093811D01*
X146474699Y-117102105D01*
X146489785Y-117109735D01*
X146504931Y-117116702D01*
X146520136Y-117123005D01*
X146535401Y-117128645D01*
X146550725Y-117133621D01*
X146566109Y-117137934D01*
X146581552Y-117141584D01*
X146597055Y-117144569D01*
X146612618Y-117146892D01*
X146628240Y-117148551D01*
X146643921Y-117149546D01*
X146659663Y-117149878D01*
X146675799Y-117149649D01*
X146691985Y-117148964D01*
X146708220Y-117147822D01*
X146724504Y-117146224D01*
X146740836Y-117144169D01*
X146757218Y-117141657D01*
X146773648Y-117138689D01*
X146790128Y-117135264D01*
X146806656Y-117131382D01*
X146823233Y-117127044D01*
X146839859Y-117122249D01*
X146856534Y-117116997D01*
X146873258Y-117111288D01*
X146873258Y-116828784D01*
X146857025Y-116835329D01*
X146840847Y-116841186D01*
X146824724Y-116846353D01*
X146808656Y-116850832D01*
X146792643Y-116854621D01*
X146776686Y-116857722D01*
X146760783Y-116860133D01*
X146744936Y-116861856D01*
X146729143Y-116862889D01*
X146713406Y-116863234D01*
X146703357Y-116862827D01*
X146693357Y-116861608D01*
X146683406Y-116859577D01*
X146673504Y-116856732D01*
X146663651Y-116853075D01*
X146653847Y-116848605D01*
X146644093Y-116843322D01*
X146634388Y-116837227D01*
X146624732Y-116830318D01*
X146615125Y-116822597D01*
X146605567Y-116814064D01*
X146596058Y-116804717D01*
X146586599Y-116794558D01*
X146577188Y-116783586D01*
X146567827Y-116771802D01*
X146558515Y-116759205D01*
X146549252Y-116745795D01*
X146540039Y-116731572D01*
X146530874Y-116716536D01*
X146521759Y-116700688D01*
X146512693Y-116684027D01*
X146503676Y-116666554D01*
X146494708Y-116648267D01*
X146485789Y-116629168D01*
X146476919Y-116609256D01*
X146468099Y-116588532D01*
X146459328Y-116566994D01*
X146450606Y-116544644D01*
X146441933Y-116521482D01*
X146947673Y-115186175D01*
X146947673Y-115186175D01*
G37*
G36*
X145408404Y-115603714D02*
X145408123Y-115585448D01*
X145407279Y-115567557D01*
X145405872Y-115550042D01*
X145403903Y-115532901D01*
X145401370Y-115516136D01*
X145398276Y-115499746D01*
X145394618Y-115483731D01*
X145390398Y-115468091D01*
X145385615Y-115452826D01*
X145380270Y-115437936D01*
X145374362Y-115423421D01*
X145367891Y-115409281D01*
X145360858Y-115395516D01*
X145353262Y-115382127D01*
X145345103Y-115369112D01*
X145336381Y-115356473D01*
X145327097Y-115344209D01*
X145317250Y-115332319D01*
X145306841Y-115320805D01*
X145295868Y-115309666D01*
X145284334Y-115298902D01*
X145272236Y-115288513D01*
X145259576Y-115278500D01*
X145246932Y-115269167D01*
X145234034Y-115260231D01*
X145220883Y-115251693D01*
X145207478Y-115243552D01*
X145193820Y-115235807D01*
X145179908Y-115228460D01*
X145165742Y-115221511D01*
X145151323Y-115214958D01*
X145136650Y-115208802D01*
X145121724Y-115203044D01*
X145106544Y-115197682D01*
X145091111Y-115192718D01*
X145075423Y-115188151D01*
X145059483Y-115183981D01*
X145043288Y-115180208D01*
X145026840Y-115176833D01*
X145010139Y-115173854D01*
X144993184Y-115171273D01*
X144975975Y-115169089D01*
X144958513Y-115167301D01*
X144940797Y-115165911D01*
X144922827Y-115164919D01*
X144904604Y-115164323D01*
X144886127Y-115164124D01*
X144868732Y-115164299D01*
X144851456Y-115164823D01*
X144834300Y-115165696D01*
X144817264Y-115166919D01*
X144800347Y-115168491D01*
X144783550Y-115170412D01*
X144766872Y-115172683D01*
X144750314Y-115175302D01*
X144733876Y-115178272D01*
X144717557Y-115181590D01*
X144701358Y-115185258D01*
X144685278Y-115189275D01*
X144669318Y-115193642D01*
X144653478Y-115198357D01*
X144637758Y-115203422D01*
X144622156Y-115208837D01*
X144606675Y-115214600D01*
X144591313Y-115220713D01*
X144576071Y-115227176D01*
X144560949Y-115233987D01*
X144545946Y-115241148D01*
X144531062Y-115248659D01*
X144516299Y-115256518D01*
X144501655Y-115264727D01*
X144501655Y-115522415D01*
X144516083Y-115515831D01*
X144530704Y-115509585D01*
X144545518Y-115503676D01*
X144560525Y-115498105D01*
X144575724Y-115492872D01*
X144591117Y-115487976D01*
X144606703Y-115483418D01*
X144622481Y-115479198D01*
X144638453Y-115475315D01*
X144654617Y-115471770D01*
X144670974Y-115468563D01*
X144687524Y-115465693D01*
X144704268Y-115463161D01*
X144721204Y-115460966D01*
X144738333Y-115459109D01*
X144755655Y-115457590D01*
X144773170Y-115456408D01*
X144790877Y-115455564D01*
X144808778Y-115455057D01*
X144826872Y-115454889D01*
X144849420Y-115455157D01*
X144870869Y-115455963D01*
X144891218Y-115457307D01*
X144910466Y-115459188D01*
X144928615Y-115461607D01*
X144945664Y-115464563D01*
X144961613Y-115468057D01*
X144976462Y-115472088D01*
X144990211Y-115476657D01*
X145002861Y-115481763D01*
X145014410Y-115487406D01*
X145024859Y-115493587D01*
X145034209Y-115500306D01*
X145042458Y-115507562D01*
X145049608Y-115515355D01*
X145055657Y-115523686D01*
X145060607Y-115532555D01*
X145064457Y-115541960D01*
X145067207Y-115551904D01*
X145068857Y-115562385D01*
X145069406Y-115573403D01*
X145068330Y-115587828D01*
X145065100Y-115601477D01*
X145059717Y-115614352D01*
X145052181Y-115626451D01*
X145042492Y-115637776D01*
X145030649Y-115648326D01*
X145016653Y-115658101D01*
X145000505Y-115667101D01*
X144987726Y-115673058D01*
X144974447Y-115678901D01*
X144960667Y-115684630D01*
X144946385Y-115690246D01*
X144931603Y-115695748D01*
X144916319Y-115701135D01*
X144900534Y-115706409D01*
X144884248Y-115711570D01*
X144867461Y-115716616D01*
X144850173Y-115721549D01*
X144832384Y-115726367D01*
X144815857Y-115730635D01*
X144799349Y-115735170D01*
X144782861Y-115739973D01*
X144766391Y-115745044D01*
X144749941Y-115750384D01*
X144733510Y-115755991D01*
X144717098Y-115761867D01*
X144700705Y-115768011D01*
X144684331Y-115774423D01*
X144667976Y-115781103D01*
X144651641Y-115788051D01*
X144635324Y-115795267D01*
X144621305Y-115801678D01*
X144607595Y-115808708D01*
X144594194Y-115816356D01*
X144581103Y-115824623D01*
X144568321Y-115833509D01*
X144555848Y-115843014D01*
X144543685Y-115853137D01*
X144531831Y-115863879D01*
X144520286Y-115875240D01*
X144509051Y-115887220D01*
X144498125Y-115899818D01*
X144487509Y-115913036D01*
X144477202Y-115926872D01*
X144467204Y-115941327D01*
X144459179Y-115953683D01*
X144451640Y-115966431D01*
X144444588Y-115979569D01*
X144438022Y-115993098D01*
X144431942Y-116007018D01*
X144426349Y-116021329D01*
X144421242Y-116036030D01*
X144416622Y-116051123D01*
X144412488Y-116066606D01*
X144408840Y-116082481D01*
X144405678Y-116098746D01*
X144403003Y-116115402D01*
X144400815Y-116132449D01*
X144399112Y-116149887D01*
X144397897Y-116167716D01*
X144397167Y-116185935D01*
X144396924Y-116204546D01*
X144397252Y-116221338D01*
X144398236Y-116237856D01*
X144399877Y-116254098D01*
X144402173Y-116270066D01*
X144405126Y-116285758D01*
X144408736Y-116301176D01*
X144413001Y-116316319D01*
X144417922Y-116331186D01*
X144423500Y-116345779D01*
X144429734Y-116360097D01*
X144436624Y-116374140D01*
X144444171Y-116387908D01*
X144452373Y-116401401D01*
X144461232Y-116414620D01*
X144470747Y-116427563D01*
X144480919Y-116440231D01*
X144491746Y-116452625D01*
X144503230Y-116464743D01*
X144515369Y-116476587D01*
X144528166Y-116488156D01*
X144541618Y-116499449D01*
X144553723Y-116509006D01*
X144566155Y-116518156D01*
X144578911Y-116526900D01*
X144591993Y-116535237D01*
X144605400Y-116543167D01*
X144619132Y-116550690D01*
X144633190Y-116557807D01*
X144647574Y-116564517D01*
X144662282Y-116570821D01*
X144677316Y-116576718D01*
X144692676Y-116582208D01*
X144708360Y-116587291D01*
X144724371Y-116591968D01*
X144740706Y-116596238D01*
X144757367Y-116600101D01*
X144774353Y-116603558D01*
X144791665Y-116606608D01*
X144809302Y-116609251D01*
X144827264Y-116611488D01*
X144845552Y-116613318D01*
X144864165Y-116614742D01*
X144883103Y-116615758D01*
X144902367Y-116616368D01*
X144921956Y-116616572D01*
X144939231Y-116616424D01*
X144956407Y-116615981D01*
X144973485Y-116615243D01*
X144990464Y-116614209D01*
X145007345Y-116612881D01*
X145024128Y-116611257D01*
X145040812Y-116609337D01*
X145057398Y-116607123D01*
X145073885Y-116604613D01*
X145090274Y-116601808D01*
X145106564Y-116598707D01*
X145122756Y-116595312D01*
X145138850Y-116591621D01*
X145154845Y-116587634D01*
X145170741Y-116583353D01*
X145186540Y-116578776D01*
X145202239Y-116573904D01*
X145217841Y-116568737D01*
X145233344Y-116563274D01*
X145248748Y-116557516D01*
X145264054Y-116551463D01*
X145279262Y-116545114D01*
X145294371Y-116538471D01*
X145309382Y-116531532D01*
X145324294Y-116524297D01*
X145339108Y-116516768D01*
X145353824Y-116508943D01*
X145368441Y-116500823D01*
X145368441Y-116199033D01*
X145353516Y-116208757D01*
X145338508Y-116218084D01*
X145323415Y-116227014D01*
X145308239Y-116235547D01*
X145292979Y-116243683D01*
X145277636Y-116251422D01*
X145262208Y-116258765D01*
X145246697Y-116265710D01*
X145231102Y-116272259D01*
X145215423Y-116278411D01*
X145199661Y-116284166D01*
X145183814Y-116289524D01*
X145167884Y-116294485D01*
X145151870Y-116299049D01*
X145135773Y-116303216D01*
X145119591Y-116306987D01*
X145103326Y-116310360D01*
X145086977Y-116313337D01*
X145070544Y-116315917D01*
X145054028Y-116318099D01*
X145037427Y-116319885D01*
X145020743Y-116321275D01*
X145003975Y-116322267D01*
X144987123Y-116322862D01*
X144970188Y-116323061D01*
X144946551Y-116322831D01*
X144924330Y-116322142D01*
X144903525Y-116320993D01*
X144884137Y-116319385D01*
X144866165Y-116317318D01*
X144849609Y-116314791D01*
X144834470Y-116311805D01*
X144820747Y-116308360D01*
X144808440Y-116304455D01*
X144797550Y-116300091D01*
X144788076Y-116295267D01*
X144780018Y-116289984D01*
X144769683Y-116280855D01*
X144760726Y-116270692D01*
X144753147Y-116259495D01*
X144746946Y-116247265D01*
X144742122Y-116234001D01*
X144738677Y-116219704D01*
X144736610Y-116204373D01*
X144735921Y-116188008D01*
X144736789Y-116174533D01*
X144739392Y-116161671D01*
X144743730Y-116149421D01*
X144749804Y-116137783D01*
X144757613Y-116126757D01*
X144767157Y-116116344D01*
X144778436Y-116106543D01*
X144791451Y-116097355D01*
X144806201Y-116088778D01*
X144818979Y-116081857D01*
X144832259Y-116075117D01*
X144846039Y-116068559D01*
X144860320Y-116062183D01*
X144875103Y-116055989D01*
X144890387Y-116049976D01*
X144906172Y-116044146D01*
X144922457Y-116038498D01*
X144939245Y-116033031D01*
X144956533Y-116027747D01*
X144974322Y-116022644D01*
X144990638Y-116017754D01*
X145006974Y-116012731D01*
X145023328Y-116007573D01*
X145039702Y-116002280D01*
X145056095Y-115996854D01*
X145072507Y-115991294D01*
X145088938Y-115985600D01*
X145105389Y-115979772D01*
X145121858Y-115973809D01*
X145138347Y-115967713D01*
X145154854Y-115961483D01*
X145171381Y-115955118D01*
X145186271Y-115948888D01*
X145200834Y-115942071D01*
X145215071Y-115934666D01*
X145228982Y-115926675D01*
X145242566Y-115918097D01*
X145255825Y-115908932D01*
X145268757Y-115899181D01*
X145281363Y-115888842D01*
X145293644Y-115877916D01*
X145305597Y-115866403D01*
X145317225Y-115854304D01*
X145328527Y-115841617D01*
X145339502Y-115828344D01*
X145348383Y-115816198D01*
X145356651Y-115803648D01*
X145364307Y-115790694D01*
X145371350Y-115777335D01*
X145377781Y-115763573D01*
X145383599Y-115749406D01*
X145388805Y-115734835D01*
X145393399Y-115719859D01*
X145397380Y-115704480D01*
X145400748Y-115688696D01*
X145403504Y-115672508D01*
X145405648Y-115655916D01*
X145407179Y-115638919D01*
X145408098Y-115621519D01*
X145408404Y-115603714D01*
X145408404Y-115603714D01*
G37*
G36*
X144183328Y-115476939D02*
X144183328Y-115186175D01*
X143946305Y-115186175D01*
X143946305Y-114768618D01*
X143607308Y-114768618D01*
X143607308Y-115186175D01*
X143273823Y-115186175D01*
X143273823Y-115476939D01*
X143607308Y-115476939D01*
X143607308Y-116171470D01*
X143606727Y-116193281D01*
X143604983Y-116213241D01*
X143602076Y-116231348D01*
X143598006Y-116247604D01*
X143592774Y-116262007D01*
X143586379Y-116274558D01*
X143578821Y-116285257D01*
X143570101Y-116294105D01*
X143560812Y-116300758D01*
X143550094Y-116306629D01*
X143537947Y-116311717D01*
X143524370Y-116316023D01*
X143509365Y-116319545D01*
X143492931Y-116322285D01*
X143475067Y-116324242D01*
X143455775Y-116325416D01*
X143435053Y-116325807D01*
X143417070Y-116325504D01*
X143399500Y-116324595D01*
X143382343Y-116323080D01*
X143365600Y-116320958D01*
X143349270Y-116318230D01*
X143333354Y-116314896D01*
X143317851Y-116310955D01*
X143302761Y-116306409D01*
X143288085Y-116301256D01*
X143273823Y-116295497D01*
X143273823Y-116575235D01*
X143289193Y-116581350D01*
X143304776Y-116586976D01*
X143320570Y-116592112D01*
X143336576Y-116596760D01*
X143352795Y-116600918D01*
X143369225Y-116604587D01*
X143385868Y-116607766D01*
X143402722Y-116610457D01*
X143419789Y-116612658D01*
X143437067Y-116614370D01*
X143454558Y-116615593D01*
X143472260Y-116616327D01*
X143490175Y-116616572D01*
X143497065Y-116616572D01*
X143515922Y-116616315D01*
X143534408Y-116615547D01*
X143552525Y-116614265D01*
X143570271Y-116612472D01*
X143587648Y-116610165D01*
X143604654Y-116607346D01*
X143621290Y-116604015D01*
X143637556Y-116600171D01*
X143653452Y-116595815D01*
X143668978Y-116590946D01*
X143684133Y-116585565D01*
X143698919Y-116579671D01*
X143713334Y-116573265D01*
X143727379Y-116566346D01*
X143741054Y-116558914D01*
X143754359Y-116550970D01*
X143767294Y-116542514D01*
X143779859Y-116533545D01*
X143792053Y-116524064D01*
X143803877Y-116514070D01*
X143815332Y-116503563D01*
X143826416Y-116492544D01*
X143836614Y-116481584D01*
X143846360Y-116470269D01*
X143855652Y-116458600D01*
X143864490Y-116446576D01*
X143872876Y-116434198D01*
X143880808Y-116421465D01*
X143888287Y-116408378D01*
X143895313Y-116394937D01*
X143901885Y-116381142D01*
X143908004Y-116366992D01*
X143913670Y-116352487D01*
X143918882Y-116337628D01*
X143923642Y-116322415D01*
X143927948Y-116306848D01*
X143931801Y-116290926D01*
X143935200Y-116274649D01*
X143938146Y-116258019D01*
X143940639Y-116241033D01*
X143942679Y-116223694D01*
X143944265Y-116206000D01*
X143945399Y-116187952D01*
X143946079Y-116169549D01*
X143946305Y-116150792D01*
X143946305Y-115476939D01*
X144183328Y-115476939D01*
X144183328Y-115476939D01*
X144183328Y-115476939D01*
G37*
G36*
X143006483Y-116134254D02*
X142671621Y-116091544D01*
X142671282Y-116107399D01*
X142670264Y-116122677D01*
X142668568Y-116137379D01*
X142666193Y-116151504D01*
X142663140Y-116165053D01*
X142659408Y-116178025D01*
X142654998Y-116190421D01*
X142649910Y-116202240D01*
X142644143Y-116213482D01*
X142637697Y-116224148D01*
X142630573Y-116234238D01*
X142622771Y-116243751D01*
X142614290Y-116252687D01*
X142605131Y-116261047D01*
X142595293Y-116268830D01*
X142584776Y-116276037D01*
X142573582Y-116282667D01*
X142561708Y-116288721D01*
X142549157Y-116294198D01*
X142535926Y-116299098D01*
X142522018Y-116303423D01*
X142507430Y-116307170D01*
X142492165Y-116310341D01*
X142476221Y-116312935D01*
X142459598Y-116314953D01*
X142442297Y-116316395D01*
X142424318Y-116317259D01*
X142405660Y-116317548D01*
X142402903Y-116317548D01*
X142384469Y-116317255D01*
X142366730Y-116316376D01*
X142349687Y-116314911D01*
X142333340Y-116312860D01*
X142317688Y-116310223D01*
X142302732Y-116306999D01*
X142288471Y-116303190D01*
X142274906Y-116298795D01*
X142262037Y-116293814D01*
X142249863Y-116288247D01*
X142238385Y-116282094D01*
X142227603Y-116275354D01*
X142217516Y-116268029D01*
X142208125Y-116260118D01*
X142199430Y-116251620D01*
X142191430Y-116242537D01*
X142184126Y-116232868D01*
X142177517Y-116222612D01*
X142171604Y-116211771D01*
X142166387Y-116200344D01*
X142161865Y-116188330D01*
X142158039Y-116175731D01*
X142154909Y-116162545D01*
X142152474Y-116148774D01*
X142150735Y-116134416D01*
X142149692Y-116119473D01*
X142149344Y-116103943D01*
X142149344Y-115926181D01*
X142168857Y-115923527D01*
X142187891Y-115921085D01*
X142206446Y-115918855D01*
X142224524Y-115916836D01*
X142242122Y-115915029D01*
X142259243Y-115913434D01*
X142275884Y-115912050D01*
X142292047Y-115910878D01*
X142307732Y-115909918D01*
X142322939Y-115909169D01*
X142337666Y-115908632D01*
X142351916Y-115908307D01*
X142373492Y-115908525D01*
X142394315Y-115909178D01*
X142414384Y-115910268D01*
X142433700Y-115911794D01*
X142452262Y-115913755D01*
X142470070Y-115916152D01*
X142487124Y-115918985D01*
X142503424Y-115922254D01*
X142518971Y-115925959D01*
X142533764Y-115930099D01*
X142547803Y-115934676D01*
X142561089Y-115939688D01*
X142573621Y-115945136D01*
X142585399Y-115951020D01*
X142596423Y-115957340D01*
X142606694Y-115964096D01*
X142616211Y-115971287D01*
X142624974Y-115978915D01*
X142632983Y-115986978D01*
X142640239Y-115995477D01*
X142646740Y-116004412D01*
X142652489Y-116013783D01*
X142657483Y-116023589D01*
X142661724Y-116033832D01*
X142665210Y-116044510D01*
X142667944Y-116055624D01*
X142669923Y-116067174D01*
X142671149Y-116079160D01*
X142671620Y-116091582D01*
X142671621Y-116091544D01*
X143006483Y-116134254D01*
X143006152Y-116117114D01*
X143005160Y-116099863D01*
X143003507Y-116082501D01*
X143001192Y-116065027D01*
X142998216Y-116047442D01*
X142995319Y-116033999D01*
X142991354Y-116019656D01*
X142986319Y-116004413D01*
X142980217Y-115988270D01*
X142973045Y-115971227D01*
X142964805Y-115953284D01*
X142955497Y-115934441D01*
X142947229Y-115919639D01*
X142938348Y-115905246D01*
X142928855Y-115891261D01*
X142918749Y-115877684D01*
X142908031Y-115864516D01*
X142896701Y-115851756D01*
X142884758Y-115839404D01*
X142872202Y-115827461D01*
X142859034Y-115815926D01*
X142848527Y-115807533D01*
X142837215Y-115799351D01*
X142825100Y-115791380D01*
X142812181Y-115783619D01*
X142798458Y-115776069D01*
X142783931Y-115768729D01*
X142768600Y-115761600D01*
X142752466Y-115754682D01*
X142735527Y-115747974D01*
X142717785Y-115741477D01*
X142699239Y-115735190D01*
X142679889Y-115729114D01*
X142665799Y-115724867D01*
X142651413Y-115720877D01*
X142636731Y-115717145D01*
X142621754Y-115713669D01*
X142606481Y-115710452D01*
X142590913Y-115707491D01*
X142575049Y-115704788D01*
X142558889Y-115702343D01*
X142542433Y-115700155D01*
X142525682Y-115698224D01*
X142508636Y-115696551D01*
X142491293Y-115695135D01*
X142473655Y-115693977D01*
X142455722Y-115693076D01*
X142437493Y-115692432D01*
X142418968Y-115692046D01*
X142400147Y-115691918D01*
X142384640Y-115692003D01*
X142368985Y-115692260D01*
X142353184Y-115692689D01*
X142337235Y-115693289D01*
X142321140Y-115694060D01*
X142304897Y-115695003D01*
X142288508Y-115696117D01*
X142271971Y-115697403D01*
X142255288Y-115698860D01*
X142238458Y-115700489D01*
X142221480Y-115702289D01*
X142204356Y-115704260D01*
X142187084Y-115706403D01*
X142169666Y-115708717D01*
X142152101Y-115711203D01*
X142152375Y-115695328D01*
X142153199Y-115679941D01*
X142154572Y-115665043D01*
X142156494Y-115650634D01*
X142158965Y-115636713D01*
X142161986Y-115623280D01*
X142165556Y-115610336D01*
X142169675Y-115597880D01*
X142174343Y-115585913D01*
X142179560Y-115574434D01*
X142185327Y-115563444D01*
X142191642Y-115552942D01*
X142198507Y-115542928D01*
X142205921Y-115533403D01*
X142213884Y-115524367D01*
X142222397Y-115515819D01*
X142231459Y-115507759D01*
X142241069Y-115500188D01*
X142251229Y-115493106D01*
X142261939Y-115486511D01*
X142273197Y-115480406D01*
X142285005Y-115474788D01*
X142297361Y-115469660D01*
X142310267Y-115465019D01*
X142323723Y-115460867D01*
X142337727Y-115457204D01*
X142352280Y-115454029D01*
X142367383Y-115451342D01*
X142383035Y-115449144D01*
X142399236Y-115447435D01*
X142415987Y-115446213D01*
X142433286Y-115445481D01*
X142451135Y-115445237D01*
X142469997Y-115445351D01*
X142488661Y-115445695D01*
X142507127Y-115446269D01*
X142525394Y-115447071D01*
X142543463Y-115448103D01*
X142561334Y-115449364D01*
X142579006Y-115450855D01*
X142596479Y-115452575D01*
X142613754Y-115454524D01*
X142630831Y-115456703D01*
X142647709Y-115459111D01*
X142664389Y-115461748D01*
X142680870Y-115464615D01*
X142697153Y-115467711D01*
X142713238Y-115471036D01*
X142729124Y-115474591D01*
X142744811Y-115478375D01*
X142760300Y-115482388D01*
X142775591Y-115486631D01*
X142790683Y-115491103D01*
X142805577Y-115495804D01*
X142820273Y-115500734D01*
X142834770Y-115505894D01*
X142849068Y-115511284D01*
X142863168Y-115516902D01*
X142863168Y-115242676D01*
X142848159Y-115236750D01*
X142833023Y-115231056D01*
X142817760Y-115225595D01*
X142802372Y-115220366D01*
X142786856Y-115215369D01*
X142771215Y-115210605D01*
X142755447Y-115206073D01*
X142739553Y-115201773D01*
X142723532Y-115197706D01*
X142707385Y-115193872D01*
X142691111Y-115190270D01*
X142674711Y-115186900D01*
X142658185Y-115183762D01*
X142641532Y-115180857D01*
X142624753Y-115178185D01*
X142607848Y-115175744D01*
X142590816Y-115173537D01*
X142573658Y-115171561D01*
X142556373Y-115169818D01*
X142538962Y-115168308D01*
X142521425Y-115167029D01*
X142503761Y-115165984D01*
X142485971Y-115165170D01*
X142468054Y-115164589D01*
X142450012Y-115164241D01*
X142431842Y-115164124D01*
X142411881Y-115164296D01*
X142392234Y-115164810D01*
X142372904Y-115165668D01*
X142353888Y-115166868D01*
X142335188Y-115168412D01*
X142316804Y-115170298D01*
X142298734Y-115172527D01*
X142280981Y-115175100D01*
X142263542Y-115178015D01*
X142246420Y-115181273D01*
X142229612Y-115184874D01*
X142213120Y-115188818D01*
X142196943Y-115193106D01*
X142181082Y-115197736D01*
X142165536Y-115202709D01*
X142150306Y-115208025D01*
X142135391Y-115213684D01*
X142120791Y-115219686D01*
X142106507Y-115226031D01*
X142092539Y-115232719D01*
X142078885Y-115239750D01*
X142065547Y-115247124D01*
X142052525Y-115254841D01*
X142039818Y-115262901D01*
X142027426Y-115271303D01*
X142015350Y-115280049D01*
X142003589Y-115289138D01*
X141992144Y-115298570D01*
X141981014Y-115308345D01*
X141970199Y-115318462D01*
X141959720Y-115328813D01*
X141949596Y-115339470D01*
X141939827Y-115350433D01*
X141930414Y-115361703D01*
X141921356Y-115373278D01*
X141912653Y-115385160D01*
X141904305Y-115397348D01*
X141896312Y-115409842D01*
X141888675Y-115422643D01*
X141881392Y-115435750D01*
X141874466Y-115449163D01*
X141867894Y-115462882D01*
X141861677Y-115476907D01*
X141855816Y-115491239D01*
X141850310Y-115505877D01*
X141845159Y-115520821D01*
X141840364Y-115536071D01*
X141835923Y-115551628D01*
X141831838Y-115567490D01*
X141828108Y-115583659D01*
X141824734Y-115600134D01*
X141821714Y-115616916D01*
X141819050Y-115634003D01*
X141816741Y-115651397D01*
X141814787Y-115669097D01*
X141813189Y-115687104D01*
X141811945Y-115705416D01*
X141811057Y-115724035D01*
X141810525Y-115742960D01*
X141810347Y-115762191D01*
X141810347Y-116142532D01*
X141810623Y-116159326D01*
X141811451Y-116175917D01*
X141812832Y-116192305D01*
X141814765Y-116208490D01*
X141817250Y-116224471D01*
X141820288Y-116240250D01*
X141823877Y-116255825D01*
X141828019Y-116271197D01*
X141832713Y-116286366D01*
X141837960Y-116301332D01*
X141843759Y-116316094D01*
X141850109Y-116330653D01*
X141857013Y-116345010D01*
X141864468Y-116359163D01*
X141872476Y-116373113D01*
X141881036Y-116386859D01*
X141890148Y-116400403D01*
X141899813Y-116413744D01*
X141910029Y-116426881D01*
X141920798Y-116439815D01*
X141932120Y-116452546D01*
X141943993Y-116465074D01*
X141956419Y-116477398D01*
X141966585Y-116486831D01*
X141977124Y-116495933D01*
X141988037Y-116504704D01*
X141999323Y-116513143D01*
X142010984Y-116521252D01*
X142023017Y-116529030D01*
X142035424Y-116536477D01*
X142048205Y-116543593D01*
X142061360Y-116550377D01*
X142074888Y-116556831D01*
X142088789Y-116562954D01*
X142103065Y-116568746D01*
X142117714Y-116574207D01*
X142132736Y-116579337D01*
X142148132Y-116584136D01*
X142163902Y-116588605D01*
X142180045Y-116592742D01*
X142196562Y-116596548D01*
X142213452Y-116600023D01*
X142230716Y-116603167D01*
X142248353Y-116605981D01*
X142266365Y-116608463D01*
X142284749Y-116610614D01*
X142303508Y-116612434D01*
X142322640Y-116613924D01*
X142342145Y-116615082D01*
X142362024Y-116615910D01*
X142382277Y-116616406D01*
X142402904Y-116616572D01*
X142423393Y-116616415D01*
X142443522Y-116615947D01*
X142463289Y-116615166D01*
X142482695Y-116614073D01*
X142501739Y-116612667D01*
X142520423Y-116610949D01*
X142538744Y-116608919D01*
X142556705Y-116606576D01*
X142574304Y-116603921D01*
X142591542Y-116600953D01*
X142608418Y-116597673D01*
X142624933Y-116594081D01*
X142641087Y-116590177D01*
X142656879Y-116585960D01*
X142672310Y-116581430D01*
X142687380Y-116576589D01*
X142702088Y-116571434D01*
X142716435Y-116565968D01*
X142730420Y-116560189D01*
X142744044Y-116554098D01*
X142757307Y-116547695D01*
X142770209Y-116540979D01*
X142782749Y-116533950D01*
X142794928Y-116526610D01*
X142806745Y-116518957D01*
X142818201Y-116510991D01*
X142829296Y-116502714D01*
X142840029Y-116494123D01*
X142850401Y-116485221D01*
X142860412Y-116476006D01*
X142872838Y-116463670D01*
X142884711Y-116451105D01*
X142896033Y-116438310D01*
X142906802Y-116425286D01*
X142917018Y-116412032D01*
X142926683Y-116398549D01*
X142935795Y-116384837D01*
X142944355Y-116370896D01*
X142952363Y-116356725D01*
X142959818Y-116342325D01*
X142966722Y-116327695D01*
X142973073Y-116312837D01*
X142978871Y-116297749D01*
X142984118Y-116282431D01*
X142988812Y-116266884D01*
X142992954Y-116251108D01*
X142996543Y-116235103D01*
X142999581Y-116218868D01*
X143002066Y-116202404D01*
X143003999Y-116185710D01*
X143005380Y-116168787D01*
X143006208Y-116151635D01*
X143006484Y-116134254D01*
X143006483Y-116134254D01*
X143006483Y-116134254D01*
G37*
G36*
X141512690Y-115891731D02*
X141512549Y-115871707D01*
X141512127Y-115851953D01*
X141511424Y-115832470D01*
X141510440Y-115813256D01*
X141509174Y-115794312D01*
X141507628Y-115775638D01*
X141505800Y-115757234D01*
X141503690Y-115739100D01*
X141501300Y-115721237D01*
X141498628Y-115703643D01*
X141495675Y-115686319D01*
X141492441Y-115669265D01*
X141488926Y-115652481D01*
X141485129Y-115635967D01*
X141481051Y-115619723D01*
X141476692Y-115603749D01*
X141472052Y-115588045D01*
X141467130Y-115572611D01*
X141461927Y-115557447D01*
X141456443Y-115542553D01*
X141450678Y-115527928D01*
X141444632Y-115513574D01*
X141438304Y-115499490D01*
X141431695Y-115485676D01*
X141424805Y-115472132D01*
X141417633Y-115458858D01*
X141410181Y-115445853D01*
X141402447Y-115433119D01*
X141394432Y-115420655D01*
X141386135Y-115408460D01*
X141377558Y-115396536D01*
X141368699Y-115384882D01*
X141359559Y-115373497D01*
X141350138Y-115362383D01*
X141340435Y-115351539D01*
X141329859Y-115340352D01*
X141319009Y-115329510D01*
X141307886Y-115319012D01*
X141296490Y-115308859D01*
X141284820Y-115299049D01*
X141272877Y-115289584D01*
X141260661Y-115280462D01*
X141248171Y-115271685D01*
X141235408Y-115263253D01*
X141222372Y-115255164D01*
X141209062Y-115247420D01*
X141195479Y-115240019D01*
X141181623Y-115232963D01*
X141167493Y-115226252D01*
X141153090Y-115219884D01*
X141138414Y-115213861D01*
X141123464Y-115208181D01*
X141108241Y-115202846D01*
X141092745Y-115197856D01*
X141076975Y-115193209D01*
X141060933Y-115188906D01*
X141044616Y-115184948D01*
X141028027Y-115181334D01*
X141011164Y-115178064D01*
X140994027Y-115175139D01*
X140976618Y-115172557D01*
X140958935Y-115170320D01*
X140940979Y-115168427D01*
X140922749Y-115166878D01*
X140904246Y-115165673D01*
X140885470Y-115164813D01*
X140866420Y-115164296D01*
X140847097Y-115164124D01*
X140829884Y-115164261D01*
X140812694Y-115164670D01*
X140795529Y-115165352D01*
X140778387Y-115166306D01*
X140761269Y-115167534D01*
X140744175Y-115169034D01*
X140727105Y-115170807D01*
X140710059Y-115172852D01*
X140693037Y-115175171D01*
X140676039Y-115177762D01*
X140659065Y-115180626D01*
X140642114Y-115183762D01*
X140625188Y-115187172D01*
X140608285Y-115190854D01*
X140591407Y-115194809D01*
X140574552Y-115199036D01*
X140557721Y-115203537D01*
X140540914Y-115208310D01*
X140524132Y-115213356D01*
X140507373Y-115218674D01*
X140490638Y-115224266D01*
X140473927Y-115230130D01*
X140457239Y-115236267D01*
X140440576Y-115242676D01*
X140440576Y-115525162D01*
X140456494Y-115518884D01*
X140472487Y-115512912D01*
X140488554Y-115507247D01*
X140504697Y-115501887D01*
X140520915Y-115496834D01*
X140537207Y-115492088D01*
X140553575Y-115487647D01*
X140570018Y-115483513D01*
X140586536Y-115479685D01*
X140603128Y-115476163D01*
X140619796Y-115472948D01*
X140636539Y-115470038D01*
X140653356Y-115467435D01*
X140670249Y-115465138D01*
X140687217Y-115463148D01*
X140704259Y-115461464D01*
X140721377Y-115460085D01*
X140738570Y-115459014D01*
X140755838Y-115458248D01*
X140773180Y-115457789D01*
X140790598Y-115457635D01*
X140810776Y-115457884D01*
X140830404Y-115458628D01*
X140849483Y-115459869D01*
X140868012Y-115461606D01*
X140885992Y-115463839D01*
X140903421Y-115466568D01*
X140920301Y-115469794D01*
X140936632Y-115473516D01*
X140952412Y-115477735D01*
X140967643Y-115482449D01*
X140982325Y-115487660D01*
X140996456Y-115493367D01*
X141010038Y-115499571D01*
X141023070Y-115506270D01*
X141035553Y-115513466D01*
X141047486Y-115521158D01*
X141058869Y-115529347D01*
X141069702Y-115538032D01*
X141079986Y-115547213D01*
X141088311Y-115555579D01*
X141096249Y-115564639D01*
X141103800Y-115574394D01*
X141110963Y-115584844D01*
X141117740Y-115595989D01*
X141124129Y-115607828D01*
X141130130Y-115620362D01*
X141135745Y-115633591D01*
X141140973Y-115647514D01*
X141145813Y-115662132D01*
X141150266Y-115677444D01*
X141154331Y-115693452D01*
X141158010Y-115710153D01*
X141161301Y-115727550D01*
X141164206Y-115745641D01*
X141166722Y-115764427D01*
X141168852Y-115783908D01*
X141170595Y-115804083D01*
X141171950Y-115824953D01*
X141172918Y-115846518D01*
X141173499Y-115868777D01*
X141173692Y-115891731D01*
X141173499Y-115914445D01*
X141172918Y-115936487D01*
X141171950Y-115957857D01*
X141170595Y-115978555D01*
X141168852Y-115998582D01*
X141166722Y-116017936D01*
X141164206Y-116036619D01*
X141161301Y-116054629D01*
X141158010Y-116071968D01*
X141154331Y-116088635D01*
X141150266Y-116104630D01*
X141145813Y-116119953D01*
X141140973Y-116134604D01*
X141135745Y-116148584D01*
X141130130Y-116161891D01*
X141124129Y-116174527D01*
X141117740Y-116186490D01*
X141110963Y-116197782D01*
X141103800Y-116208402D01*
X141096249Y-116218350D01*
X141088311Y-116227626D01*
X141079986Y-116236230D01*
X141069702Y-116245411D01*
X141058869Y-116254096D01*
X141047486Y-116262284D01*
X141035553Y-116269977D01*
X141023070Y-116277173D01*
X141010038Y-116283872D01*
X140996456Y-116290076D01*
X140982325Y-116295783D01*
X140967643Y-116300994D01*
X140952412Y-116305708D01*
X140936632Y-116309927D01*
X140920301Y-116313649D01*
X140903421Y-116316875D01*
X140885992Y-116319604D01*
X140868012Y-116321837D01*
X140849483Y-116323574D01*
X140830404Y-116324815D01*
X140810776Y-116325559D01*
X140790598Y-116325807D01*
X140773930Y-116325648D01*
X140757262Y-116325170D01*
X140740595Y-116324373D01*
X140723927Y-116323258D01*
X140707259Y-116321824D01*
X140690592Y-116320071D01*
X140673924Y-116317999D01*
X140657256Y-116315609D01*
X140640589Y-116312900D01*
X140623921Y-116309872D01*
X140607253Y-116306526D01*
X140590585Y-116302861D01*
X140573918Y-116298877D01*
X140557250Y-116294575D01*
X140540582Y-116289954D01*
X140523915Y-116285014D01*
X140507247Y-116279755D01*
X140490579Y-116274178D01*
X140473911Y-116268282D01*
X140457244Y-116262067D01*
X140440576Y-116255534D01*
X140440576Y-116538020D01*
X140457239Y-116544429D01*
X140473927Y-116550566D01*
X140490638Y-116556430D01*
X140507373Y-116562022D01*
X140524132Y-116567340D01*
X140540914Y-116572386D01*
X140557721Y-116577159D01*
X140574552Y-116581660D01*
X140591407Y-116585887D01*
X140608285Y-116589842D01*
X140625188Y-116593524D01*
X140642114Y-116596934D01*
X140659065Y-116600070D01*
X140676039Y-116602934D01*
X140693037Y-116605525D01*
X140710059Y-116607844D01*
X140727105Y-116609889D01*
X140744175Y-116611662D01*
X140761269Y-116613162D01*
X140778387Y-116614390D01*
X140795529Y-116615344D01*
X140812694Y-116616026D01*
X140829884Y-116616435D01*
X140847097Y-116616572D01*
X140866420Y-116616400D01*
X140885470Y-116615883D01*
X140904246Y-116615023D01*
X140922749Y-116613818D01*
X140940979Y-116612269D01*
X140958935Y-116610376D01*
X140976618Y-116608139D01*
X140994027Y-116605557D01*
X141011164Y-116602632D01*
X141028027Y-116599362D01*
X141044616Y-116595748D01*
X141060933Y-116591790D01*
X141076975Y-116587487D01*
X141092745Y-116582840D01*
X141108241Y-116577850D01*
X141123464Y-116572515D01*
X141138414Y-116566835D01*
X141153090Y-116560812D01*
X141167493Y-116554444D01*
X141181623Y-116547733D01*
X141195479Y-116540677D01*
X141209062Y-116533276D01*
X141222372Y-116525532D01*
X141235408Y-116517443D01*
X141248171Y-116509011D01*
X141260661Y-116500234D01*
X141272877Y-116491112D01*
X141284820Y-116481647D01*
X141296490Y-116471837D01*
X141307886Y-116461684D01*
X141319009Y-116451186D01*
X141329859Y-116440344D01*
X141340435Y-116429157D01*
X141350138Y-116418315D01*
X141359559Y-116407208D01*
X141368699Y-116395834D01*
X141377558Y-116384196D01*
X141386135Y-116372292D01*
X141394432Y-116360123D01*
X141402447Y-116347688D01*
X141410181Y-116334987D01*
X141417633Y-116322021D01*
X141424805Y-116308790D01*
X141431695Y-116295293D01*
X141438304Y-116281531D01*
X141444632Y-116267503D01*
X141450678Y-116253210D01*
X141456443Y-116238651D01*
X141461927Y-116223827D01*
X141467130Y-116208738D01*
X141472052Y-116193383D01*
X141476692Y-116177762D01*
X141481051Y-116161876D01*
X141485129Y-116145725D01*
X141488926Y-116129308D01*
X141492441Y-116112626D01*
X141495675Y-116095678D01*
X141498628Y-116078464D01*
X141501300Y-116060986D01*
X141503690Y-116043241D01*
X141505800Y-116025232D01*
X141507628Y-116006957D01*
X141509174Y-115988416D01*
X141510440Y-115969610D01*
X141511424Y-115950538D01*
X141512127Y-115931201D01*
X141512549Y-115911599D01*
X141512690Y-115891731D01*
X141512690Y-115891731D01*
G37*
G36*
X140127761Y-116594521D02*
X140127761Y-114658382D01*
X139788764Y-114658382D01*
X139788764Y-115702943D01*
X139314719Y-115186175D01*
X138865478Y-115186175D01*
X139478705Y-115813179D01*
X138800711Y-116594521D01*
X139229281Y-116594521D01*
X139695057Y-116039183D01*
X139788764Y-116134254D01*
X139788764Y-116594521D01*
X140127761Y-116594521D01*
X140127761Y-116594521D01*
G37*
D15*
X185233333Y-124378571D02*
X185566667Y-124378571D01*
X185566667Y-124902381D02*
X185566667Y-123902381D01*
X185090476Y-123902381D01*
X184280952Y-123902381D02*
X184471429Y-123902381D01*
X184566667Y-123950000D01*
X184614286Y-123997619D01*
X184709524Y-124140476D01*
X184757143Y-124330952D01*
X184757143Y-124711905D01*
X184709524Y-124807143D01*
X184661905Y-124854762D01*
X184566667Y-124902381D01*
X184376190Y-124902381D01*
X184280952Y-124854762D01*
X184233333Y-124807143D01*
X184185714Y-124711905D01*
X184185714Y-124473810D01*
X184233333Y-124378571D01*
X184280952Y-124330952D01*
X184376190Y-124283333D01*
X184566667Y-124283333D01*
X184661905Y-124330952D01*
X184709524Y-124378571D01*
X184757143Y-124473810D01*
X132003333Y-95698571D02*
X132336667Y-95698571D01*
X132336667Y-96222381D02*
X132336667Y-95222381D01*
X131860476Y-95222381D01*
X131003333Y-95222381D02*
X131479524Y-95222381D01*
X131527143Y-95698571D01*
X131479524Y-95650952D01*
X131384286Y-95603333D01*
X131146190Y-95603333D01*
X131050952Y-95650952D01*
X131003333Y-95698571D01*
X130955714Y-95793810D01*
X130955714Y-96031905D01*
X131003333Y-96127143D01*
X131050952Y-96174762D01*
X131146190Y-96222381D01*
X131384286Y-96222381D01*
X131479524Y-96174762D01*
X131527143Y-96127143D01*
X132993333Y-120368571D02*
X133326667Y-120368571D01*
X133326667Y-120892381D02*
X133326667Y-119892381D01*
X132850476Y-119892381D01*
X132040952Y-120225714D02*
X132040952Y-120892381D01*
X132279048Y-119844762D02*
X132517143Y-120559048D01*
X131898095Y-120559048D01*
X151336666Y-108462381D02*
X151670000Y-107986190D01*
X151908095Y-108462381D02*
X151908095Y-107462381D01*
X151527142Y-107462381D01*
X151431904Y-107510000D01*
X151384285Y-107557619D01*
X151336666Y-107652857D01*
X151336666Y-107795714D01*
X151384285Y-107890952D01*
X151431904Y-107938571D01*
X151527142Y-107986190D01*
X151908095Y-107986190D01*
X150479523Y-107795714D02*
X150479523Y-108462381D01*
X150717619Y-107414762D02*
X150955714Y-108129048D01*
X150336666Y-108129048D01*
X151376666Y-105462381D02*
X151710000Y-104986190D01*
X151948095Y-105462381D02*
X151948095Y-104462381D01*
X151567142Y-104462381D01*
X151471904Y-104510000D01*
X151424285Y-104557619D01*
X151376666Y-104652857D01*
X151376666Y-104795714D01*
X151424285Y-104890952D01*
X151471904Y-104938571D01*
X151567142Y-104986190D01*
X151948095Y-104986190D01*
X150471904Y-104462381D02*
X150948095Y-104462381D01*
X150995714Y-104938571D01*
X150948095Y-104890952D01*
X150852857Y-104843333D01*
X150614761Y-104843333D01*
X150519523Y-104890952D01*
X150471904Y-104938571D01*
X150424285Y-105033810D01*
X150424285Y-105271905D01*
X150471904Y-105367143D01*
X150519523Y-105414762D01*
X150614761Y-105462381D01*
X150852857Y-105462381D01*
X150948095Y-105414762D01*
X150995714Y-105367143D01*
X151396666Y-102462381D02*
X151730000Y-101986190D01*
X151968095Y-102462381D02*
X151968095Y-101462381D01*
X151587142Y-101462381D01*
X151491904Y-101510000D01*
X151444285Y-101557619D01*
X151396666Y-101652857D01*
X151396666Y-101795714D01*
X151444285Y-101890952D01*
X151491904Y-101938571D01*
X151587142Y-101986190D01*
X151968095Y-101986190D01*
X150539523Y-101462381D02*
X150730000Y-101462381D01*
X150825238Y-101510000D01*
X150872857Y-101557619D01*
X150968095Y-101700476D01*
X151015714Y-101890952D01*
X151015714Y-102271905D01*
X150968095Y-102367143D01*
X150920476Y-102414762D01*
X150825238Y-102462381D01*
X150634761Y-102462381D01*
X150539523Y-102414762D01*
X150491904Y-102367143D01*
X150444285Y-102271905D01*
X150444285Y-102033810D01*
X150491904Y-101938571D01*
X150539523Y-101890952D01*
X150634761Y-101843333D01*
X150825238Y-101843333D01*
X150920476Y-101890952D01*
X150968095Y-101938571D01*
X151015714Y-102033810D01*
M02*
