G04 #@! TF.FileFunction,Copper,L1,Top,Signal*
%FSLAX46Y46*%
G04 Gerber Fmt 4.6, Leading zero omitted, Abs format (unit mm)*
G04 Created by KiCad (PCBNEW (2015-11-03 BZR 6296)-product) date Monday, December 21, 2015 'AMt' 11:09:52 AM*
%MOMM*%
G01*
G04 APERTURE LIST*
%ADD10C,0.100000*%
%ADD11C,0.010000*%
%ADD12R,0.700000X0.200000*%
%ADD13R,1.501140X0.398780*%
%ADD14R,1.727200X2.032000*%
%ADD15O,1.727200X2.032000*%
%ADD16R,1.727200X1.727200*%
%ADD17O,1.727200X1.727200*%
%ADD18R,0.797560X0.797560*%
%ADD19R,0.900000X1.200000*%
%ADD20C,0.685800*%
%ADD21C,0.685801*%
%ADD22C,0.203200*%
%ADD23C,0.152400*%
%ADD24C,0.254000*%
%ADD25C,0.812800*%
G04 APERTURE END LIST*
D10*
D11*
G36*
X123219423Y-90705069D02*
X123251094Y-90705572D01*
X123278725Y-90706621D01*
X123303824Y-90708340D01*
X123327893Y-90710851D01*
X123352439Y-90714276D01*
X123378967Y-90718740D01*
X123400931Y-90722815D01*
X123459786Y-90735578D01*
X123520883Y-90751645D01*
X123581336Y-90770182D01*
X123638260Y-90790354D01*
X123649639Y-90794777D01*
X123692817Y-90811970D01*
X123735192Y-90829108D01*
X123777150Y-90846370D01*
X123819080Y-90863937D01*
X123861369Y-90881989D01*
X123904404Y-90900707D01*
X123948573Y-90920271D01*
X123994265Y-90940862D01*
X124041866Y-90962659D01*
X124091764Y-90985844D01*
X124144347Y-91010597D01*
X124200003Y-91037099D01*
X124259118Y-91065528D01*
X124322082Y-91096067D01*
X124389280Y-91128896D01*
X124461102Y-91164194D01*
X124537935Y-91202143D01*
X124620166Y-91242923D01*
X124708183Y-91286714D01*
X124730903Y-91298037D01*
X124809183Y-91336981D01*
X124881702Y-91372880D01*
X124948949Y-91405961D01*
X125011415Y-91436448D01*
X125069589Y-91464567D01*
X125123962Y-91490545D01*
X125175024Y-91514606D01*
X125223265Y-91536978D01*
X125269175Y-91557885D01*
X125313244Y-91577553D01*
X125355962Y-91596208D01*
X125397819Y-91614076D01*
X125439306Y-91631382D01*
X125480912Y-91648353D01*
X125523128Y-91665213D01*
X125556403Y-91678281D01*
X125579926Y-91687518D01*
X125601319Y-91696037D01*
X125619688Y-91703473D01*
X125634143Y-91709460D01*
X125643791Y-91713635D01*
X125647732Y-91715624D01*
X125647199Y-91719719D01*
X125641987Y-91727737D01*
X125632739Y-91738968D01*
X125620100Y-91752704D01*
X125604712Y-91768236D01*
X125587219Y-91784855D01*
X125574178Y-91796657D01*
X125506199Y-91852758D01*
X125431764Y-91906253D01*
X125350994Y-91957086D01*
X125264011Y-92005200D01*
X125170938Y-92050538D01*
X125071897Y-92093043D01*
X124967009Y-92132658D01*
X124856398Y-92169327D01*
X124740185Y-92202992D01*
X124653292Y-92225296D01*
X124552697Y-92248538D01*
X124457709Y-92267867D01*
X124368081Y-92283303D01*
X124283561Y-92294868D01*
X124203901Y-92302580D01*
X124128851Y-92306462D01*
X124058163Y-92306535D01*
X123991587Y-92302818D01*
X123928874Y-92295332D01*
X123891082Y-92288660D01*
X123830450Y-92273748D01*
X123775094Y-92254367D01*
X123725086Y-92230590D01*
X123680499Y-92202491D01*
X123641404Y-92170142D01*
X123607873Y-92133617D01*
X123579979Y-92092988D01*
X123557795Y-92048329D01*
X123541392Y-91999713D01*
X123530842Y-91947214D01*
X123527903Y-91920940D01*
X123527085Y-91909833D01*
X123526149Y-91901698D01*
X123524111Y-91895994D01*
X123519991Y-91892178D01*
X123512806Y-91889710D01*
X123501575Y-91888046D01*
X123485315Y-91886646D01*
X123463045Y-91884967D01*
X123462667Y-91884937D01*
X123435115Y-91882710D01*
X123413944Y-91880816D01*
X123398491Y-91879166D01*
X123388094Y-91877673D01*
X123382090Y-91876249D01*
X123379817Y-91874807D01*
X123379918Y-91873974D01*
X123377973Y-91872665D01*
X123371139Y-91872440D01*
X123361468Y-91873114D01*
X123351010Y-91874497D01*
X123341817Y-91876403D01*
X123337431Y-91877859D01*
X123331923Y-91879376D01*
X123320616Y-91881836D01*
X123304669Y-91885008D01*
X123285241Y-91888665D01*
X123263489Y-91892578D01*
X123258056Y-91893529D01*
X123176570Y-91907036D01*
X123099154Y-91918409D01*
X123023266Y-91927987D01*
X122946367Y-91936109D01*
X122922917Y-91938294D01*
X122900487Y-91939888D01*
X122873281Y-91941121D01*
X122842652Y-91941993D01*
X122809951Y-91942504D01*
X122776529Y-91942652D01*
X122743738Y-91942438D01*
X122712930Y-91941861D01*
X122685455Y-91940920D01*
X122662666Y-91939615D01*
X122649514Y-91938402D01*
X122576686Y-91928747D01*
X122505829Y-91916860D01*
X122435068Y-91902349D01*
X122362527Y-91884822D01*
X122286331Y-91863890D01*
X122270857Y-91859368D01*
X122248243Y-91852575D01*
X122231577Y-91847222D01*
X122219982Y-91842959D01*
X122212578Y-91839438D01*
X122208490Y-91836309D01*
X122207057Y-91833968D01*
X122206091Y-91828855D01*
X122204509Y-91817561D01*
X122202410Y-91800925D01*
X122199895Y-91779783D01*
X122197063Y-91754975D01*
X122194013Y-91727338D01*
X122190918Y-91698392D01*
X122187321Y-91664399D01*
X122184435Y-91636757D01*
X122182312Y-91614791D01*
X122181001Y-91597830D01*
X122180553Y-91585198D01*
X122181018Y-91576223D01*
X122182447Y-91570230D01*
X122184890Y-91566547D01*
X122188397Y-91564499D01*
X122193018Y-91563413D01*
X122198805Y-91562615D01*
X122201091Y-91562283D01*
X122212337Y-91560254D01*
X122229389Y-91556797D01*
X122251193Y-91552151D01*
X122276700Y-91546555D01*
X122304858Y-91540249D01*
X122334615Y-91533471D01*
X122364921Y-91526461D01*
X122394725Y-91519457D01*
X122422975Y-91512700D01*
X122448620Y-91506427D01*
X122467833Y-91501593D01*
X122570462Y-91474234D01*
X122666453Y-91446397D01*
X122756213Y-91417945D01*
X122840153Y-91388742D01*
X122918680Y-91358650D01*
X122992203Y-91327534D01*
X123004056Y-91322213D01*
X123074730Y-91287760D01*
X123146700Y-91248022D01*
X123218246Y-91204092D01*
X123287648Y-91157066D01*
X123353190Y-91108037D01*
X123397403Y-91071786D01*
X123415065Y-91056423D01*
X123433398Y-91040012D01*
X123451684Y-91023244D01*
X123469206Y-91006810D01*
X123485249Y-90991401D01*
X123499095Y-90977709D01*
X123510027Y-90966424D01*
X123517329Y-90958238D01*
X123520283Y-90953841D01*
X123520219Y-90953368D01*
X123514114Y-90950119D01*
X123502137Y-90945797D01*
X123485347Y-90940663D01*
X123464801Y-90934980D01*
X123441556Y-90929011D01*
X123416670Y-90923019D01*
X123391199Y-90917265D01*
X123366201Y-90912013D01*
X123342732Y-90907526D01*
X123321852Y-90904065D01*
X123321556Y-90904021D01*
X123266513Y-90897477D01*
X123212179Y-90894423D01*
X123157039Y-90894893D01*
X123099581Y-90898923D01*
X123038289Y-90906548D01*
X123008461Y-90911261D01*
X122915204Y-90929850D01*
X122825771Y-90953707D01*
X122740377Y-90982725D01*
X122659234Y-91016797D01*
X122582557Y-91055818D01*
X122510558Y-91099681D01*
X122443451Y-91148280D01*
X122381449Y-91201509D01*
X122337949Y-91244915D01*
X122295574Y-91293556D01*
X122257536Y-91344333D01*
X122224493Y-91396230D01*
X122197105Y-91448230D01*
X122179656Y-91489355D01*
X122174680Y-91501769D01*
X122170056Y-91511937D01*
X122166789Y-91517652D01*
X122163532Y-91520958D01*
X122155631Y-91528670D01*
X122143561Y-91540334D01*
X122127793Y-91555496D01*
X122108801Y-91573704D01*
X122087057Y-91594504D01*
X122063034Y-91617442D01*
X122037205Y-91642065D01*
X122018042Y-91660309D01*
X121991341Y-91685737D01*
X121966208Y-91709712D01*
X121943104Y-91731794D01*
X121922486Y-91751540D01*
X121904813Y-91768513D01*
X121890545Y-91782270D01*
X121880139Y-91792371D01*
X121874055Y-91798376D01*
X121872607Y-91799922D01*
X121875572Y-91801699D01*
X121884384Y-91806052D01*
X121898436Y-91812701D01*
X121917123Y-91821368D01*
X121939836Y-91831773D01*
X121965972Y-91843637D01*
X121994923Y-91856683D01*
X122026083Y-91870630D01*
X122033468Y-91873923D01*
X122195126Y-91945942D01*
X122211981Y-92006214D01*
X122220094Y-92034199D01*
X122229941Y-92066534D01*
X122240916Y-92101347D01*
X122252411Y-92136762D01*
X122263817Y-92170907D01*
X122274527Y-92201907D01*
X122283511Y-92226757D01*
X122288959Y-92240443D01*
X122293479Y-92248917D01*
X122298136Y-92253733D01*
X122303830Y-92256392D01*
X122311132Y-92257558D01*
X122324453Y-92258496D01*
X122342760Y-92259209D01*
X122365020Y-92259697D01*
X122390201Y-92259965D01*
X122417269Y-92260013D01*
X122445192Y-92259845D01*
X122472937Y-92259461D01*
X122499472Y-92258866D01*
X122523763Y-92258060D01*
X122544777Y-92257046D01*
X122561319Y-92255841D01*
X122724261Y-92238212D01*
X122824139Y-92224838D01*
X122866859Y-92218400D01*
X122903678Y-92212100D01*
X122935734Y-92205624D01*
X122964167Y-92198661D01*
X122990116Y-92190899D01*
X123014721Y-92182025D01*
X123039122Y-92171727D01*
X123064457Y-92159694D01*
X123067556Y-92158147D01*
X123123115Y-92126813D01*
X123177664Y-92089211D01*
X123230233Y-92046128D01*
X123279852Y-91998353D01*
X123320314Y-91953042D01*
X123338347Y-91931319D01*
X123340748Y-91956569D01*
X123347775Y-92003991D01*
X123359681Y-92053168D01*
X123375802Y-92102224D01*
X123395477Y-92149282D01*
X123418042Y-92192463D01*
X123431719Y-92214289D01*
X123469340Y-92264006D01*
X123512141Y-92309003D01*
X123560037Y-92349251D01*
X123612937Y-92384723D01*
X123670757Y-92415389D01*
X123733406Y-92441223D01*
X123800799Y-92462197D01*
X123872848Y-92478282D01*
X123949465Y-92489451D01*
X124030562Y-92495676D01*
X124116053Y-92496929D01*
X124205848Y-92493182D01*
X124284639Y-92486139D01*
X124357782Y-92476822D01*
X124435875Y-92464509D01*
X124517621Y-92449481D01*
X124601724Y-92432024D01*
X124686887Y-92412418D01*
X124771813Y-92390949D01*
X124855205Y-92367899D01*
X124931986Y-92344745D01*
X125029460Y-92312112D01*
X125123786Y-92276670D01*
X125214613Y-92238629D01*
X125301592Y-92198203D01*
X125384372Y-92155600D01*
X125462604Y-92111034D01*
X125535937Y-92064714D01*
X125604021Y-92016853D01*
X125666506Y-91967661D01*
X125723041Y-91917350D01*
X125773278Y-91866131D01*
X125816865Y-91814215D01*
X125821516Y-91808103D01*
X125831132Y-91795676D01*
X125837892Y-91788104D01*
X125842929Y-91784422D01*
X125847377Y-91783664D01*
X125849726Y-91784079D01*
X125869163Y-91788388D01*
X125894240Y-91793070D01*
X125923568Y-91797922D01*
X125955757Y-91802737D01*
X125989415Y-91807313D01*
X126023152Y-91811443D01*
X126055578Y-91814923D01*
X126066167Y-91815932D01*
X126097905Y-91818462D01*
X126129888Y-91820184D01*
X126162791Y-91821067D01*
X126197290Y-91821080D01*
X126234060Y-91820194D01*
X126273775Y-91818377D01*
X126317113Y-91815599D01*
X126364746Y-91811829D01*
X126417352Y-91807037D01*
X126475605Y-91801192D01*
X126537125Y-91794600D01*
X126626165Y-91784237D01*
X126721639Y-91772018D01*
X126823193Y-91758007D01*
X126930469Y-91742269D01*
X127043115Y-91724868D01*
X127160774Y-91705867D01*
X127283091Y-91685332D01*
X127409712Y-91663326D01*
X127540280Y-91639914D01*
X127674441Y-91615160D01*
X127811840Y-91589128D01*
X127952121Y-91561882D01*
X128094930Y-91533486D01*
X128239911Y-91504006D01*
X128386709Y-91473505D01*
X128534969Y-91442046D01*
X128684335Y-91409696D01*
X128771972Y-91390408D01*
X128816466Y-91380554D01*
X128854684Y-91372267D01*
X128887258Y-91365680D01*
X128914823Y-91360928D01*
X128938011Y-91358146D01*
X128957455Y-91357468D01*
X128973788Y-91359028D01*
X128987642Y-91362962D01*
X128999652Y-91369404D01*
X129010449Y-91378488D01*
X129020667Y-91390348D01*
X129030938Y-91405120D01*
X129041896Y-91422938D01*
X129054174Y-91443936D01*
X129058453Y-91451295D01*
X129095722Y-91517072D01*
X129130654Y-91582322D01*
X129162855Y-91646214D01*
X129191929Y-91707915D01*
X129217481Y-91766594D01*
X129239117Y-91821419D01*
X129252982Y-91860859D01*
X129268442Y-91913272D01*
X129279158Y-91962184D01*
X129285158Y-92007367D01*
X129286469Y-92048594D01*
X129283119Y-92085635D01*
X129275134Y-92118262D01*
X129262543Y-92146247D01*
X129245372Y-92169362D01*
X129223649Y-92187378D01*
X129213124Y-92193395D01*
X129202991Y-92198154D01*
X129191941Y-92202524D01*
X129179615Y-92206533D01*
X129165657Y-92210209D01*
X129149709Y-92213581D01*
X129131413Y-92216677D01*
X129110414Y-92219524D01*
X129086352Y-92222152D01*
X129058872Y-92224587D01*
X129027615Y-92226859D01*
X128992225Y-92228995D01*
X128952343Y-92231023D01*
X128907613Y-92232973D01*
X128857677Y-92234871D01*
X128802178Y-92236746D01*
X128740759Y-92238626D01*
X128673062Y-92240540D01*
X128598731Y-92242515D01*
X128585000Y-92242869D01*
X128462923Y-92246207D01*
X128347344Y-92249786D01*
X128237707Y-92253639D01*
X128133456Y-92257794D01*
X128034037Y-92262284D01*
X127938895Y-92267138D01*
X127847474Y-92272388D01*
X127759219Y-92278064D01*
X127673574Y-92284196D01*
X127589985Y-92290816D01*
X127507897Y-92297954D01*
X127426754Y-92305640D01*
X127399667Y-92308345D01*
X127270967Y-92322177D01*
X127146502Y-92337273D01*
X127025523Y-92353805D01*
X126907281Y-92371941D01*
X126791028Y-92391851D01*
X126676016Y-92413705D01*
X126561496Y-92437671D01*
X126446721Y-92463920D01*
X126330941Y-92492620D01*
X126213408Y-92523942D01*
X126093373Y-92558054D01*
X125970090Y-92595127D01*
X125842808Y-92635329D01*
X125710780Y-92678830D01*
X125605792Y-92714551D01*
X125555932Y-92732059D01*
X125508400Y-92749485D01*
X125462527Y-92767150D01*
X125417643Y-92785374D01*
X125373080Y-92804476D01*
X125328167Y-92824779D01*
X125282235Y-92846601D01*
X125234615Y-92870263D01*
X125184637Y-92896085D01*
X125131633Y-92924388D01*
X125074932Y-92955492D01*
X125013865Y-92989717D01*
X124947763Y-93027384D01*
X124926694Y-93039493D01*
X124868073Y-93073223D01*
X124815102Y-93103651D01*
X124767334Y-93131025D01*
X124724321Y-93155591D01*
X124685616Y-93177596D01*
X124650771Y-93197287D01*
X124619338Y-93214910D01*
X124590870Y-93230714D01*
X124564919Y-93244944D01*
X124541037Y-93257848D01*
X124518777Y-93269672D01*
X124497692Y-93280664D01*
X124477332Y-93291070D01*
X124457252Y-93301138D01*
X124437003Y-93311113D01*
X124416138Y-93321244D01*
X124414306Y-93322128D01*
X124346867Y-93353565D01*
X124283250Y-93380819D01*
X124222082Y-93404282D01*
X124161992Y-93424345D01*
X124101609Y-93441402D01*
X124039560Y-93455844D01*
X123974474Y-93468064D01*
X123904978Y-93478454D01*
X123840139Y-93486279D01*
X123799152Y-93490039D01*
X123753206Y-93492999D01*
X123704358Y-93495105D01*
X123654663Y-93496301D01*
X123606179Y-93496532D01*
X123560962Y-93495744D01*
X123531458Y-93494508D01*
X123451912Y-93487865D01*
X123371456Y-93476743D01*
X123291278Y-93461443D01*
X123212567Y-93442263D01*
X123136511Y-93419501D01*
X123064298Y-93393456D01*
X122997116Y-93364427D01*
X122979008Y-93355625D01*
X122898028Y-93311372D01*
X122818806Y-93260408D01*
X122741482Y-93202893D01*
X122666195Y-93138983D01*
X122593086Y-93068836D01*
X122522295Y-92992610D01*
X122453960Y-92910463D01*
X122388223Y-92822552D01*
X122325222Y-92729036D01*
X122265097Y-92630070D01*
X122207989Y-92525814D01*
X122162897Y-92435201D01*
X122144559Y-92395287D01*
X122126937Y-92353922D01*
X122109526Y-92309814D01*
X122091819Y-92261672D01*
X122073310Y-92208204D01*
X122068965Y-92195250D01*
X122061296Y-92171804D01*
X122053193Y-92146214D01*
X122045008Y-92119673D01*
X122037093Y-92093373D01*
X122029801Y-92068508D01*
X122023485Y-92046269D01*
X122018496Y-92027848D01*
X122015187Y-92014440D01*
X122014378Y-92010558D01*
X122012209Y-91998996D01*
X121807595Y-91916428D01*
X121771615Y-91901883D01*
X121737607Y-91888085D01*
X121706132Y-91875266D01*
X121677748Y-91863654D01*
X121653014Y-91853480D01*
X121632490Y-91844974D01*
X121616734Y-91838367D01*
X121606307Y-91833889D01*
X121601768Y-91831769D01*
X121601619Y-91831656D01*
X121603960Y-91829006D01*
X121611162Y-91822050D01*
X121622812Y-91811163D01*
X121638495Y-91796724D01*
X121657797Y-91779108D01*
X121680304Y-91758694D01*
X121705601Y-91735859D01*
X121733274Y-91710979D01*
X121762909Y-91684432D01*
X121788286Y-91661769D01*
X121824302Y-91629640D01*
X121855416Y-91601846D01*
X121881998Y-91578033D01*
X121904415Y-91557848D01*
X121923038Y-91540935D01*
X121938235Y-91526942D01*
X121950376Y-91515513D01*
X121959830Y-91506294D01*
X121966965Y-91498931D01*
X121972152Y-91493071D01*
X121975759Y-91488358D01*
X121978156Y-91484439D01*
X121979712Y-91480959D01*
X121980795Y-91477565D01*
X121980979Y-91476897D01*
X121987388Y-91456348D01*
X121996490Y-91431398D01*
X122007560Y-91403816D01*
X122019874Y-91375375D01*
X122032705Y-91347843D01*
X122039300Y-91334554D01*
X122071749Y-91276345D01*
X122108977Y-91220220D01*
X122151666Y-91165249D01*
X122200499Y-91110502D01*
X122213642Y-91096849D01*
X122269151Y-91043310D01*
X122326431Y-90994827D01*
X122386685Y-90950531D01*
X122451117Y-90909557D01*
X122520931Y-90871037D01*
X122541917Y-90860420D01*
X122609971Y-90828548D01*
X122677985Y-90800713D01*
X122747187Y-90776541D01*
X122818807Y-90755659D01*
X122894072Y-90737692D01*
X122974212Y-90722268D01*
X123020680Y-90714752D01*
X123040516Y-90711832D01*
X123057844Y-90709566D01*
X123074061Y-90707870D01*
X123090562Y-90706659D01*
X123108742Y-90705848D01*
X123129998Y-90705355D01*
X123155724Y-90705094D01*
X123182208Y-90704991D01*
X123219423Y-90705069D01*
X123219423Y-90705069D01*
G37*
X123219423Y-90705069D02*
X123251094Y-90705572D01*
X123278725Y-90706621D01*
X123303824Y-90708340D01*
X123327893Y-90710851D01*
X123352439Y-90714276D01*
X123378967Y-90718740D01*
X123400931Y-90722815D01*
X123459786Y-90735578D01*
X123520883Y-90751645D01*
X123581336Y-90770182D01*
X123638260Y-90790354D01*
X123649639Y-90794777D01*
X123692817Y-90811970D01*
X123735192Y-90829108D01*
X123777150Y-90846370D01*
X123819080Y-90863937D01*
X123861369Y-90881989D01*
X123904404Y-90900707D01*
X123948573Y-90920271D01*
X123994265Y-90940862D01*
X124041866Y-90962659D01*
X124091764Y-90985844D01*
X124144347Y-91010597D01*
X124200003Y-91037099D01*
X124259118Y-91065528D01*
X124322082Y-91096067D01*
X124389280Y-91128896D01*
X124461102Y-91164194D01*
X124537935Y-91202143D01*
X124620166Y-91242923D01*
X124708183Y-91286714D01*
X124730903Y-91298037D01*
X124809183Y-91336981D01*
X124881702Y-91372880D01*
X124948949Y-91405961D01*
X125011415Y-91436448D01*
X125069589Y-91464567D01*
X125123962Y-91490545D01*
X125175024Y-91514606D01*
X125223265Y-91536978D01*
X125269175Y-91557885D01*
X125313244Y-91577553D01*
X125355962Y-91596208D01*
X125397819Y-91614076D01*
X125439306Y-91631382D01*
X125480912Y-91648353D01*
X125523128Y-91665213D01*
X125556403Y-91678281D01*
X125579926Y-91687518D01*
X125601319Y-91696037D01*
X125619688Y-91703473D01*
X125634143Y-91709460D01*
X125643791Y-91713635D01*
X125647732Y-91715624D01*
X125647199Y-91719719D01*
X125641987Y-91727737D01*
X125632739Y-91738968D01*
X125620100Y-91752704D01*
X125604712Y-91768236D01*
X125587219Y-91784855D01*
X125574178Y-91796657D01*
X125506199Y-91852758D01*
X125431764Y-91906253D01*
X125350994Y-91957086D01*
X125264011Y-92005200D01*
X125170938Y-92050538D01*
X125071897Y-92093043D01*
X124967009Y-92132658D01*
X124856398Y-92169327D01*
X124740185Y-92202992D01*
X124653292Y-92225296D01*
X124552697Y-92248538D01*
X124457709Y-92267867D01*
X124368081Y-92283303D01*
X124283561Y-92294868D01*
X124203901Y-92302580D01*
X124128851Y-92306462D01*
X124058163Y-92306535D01*
X123991587Y-92302818D01*
X123928874Y-92295332D01*
X123891082Y-92288660D01*
X123830450Y-92273748D01*
X123775094Y-92254367D01*
X123725086Y-92230590D01*
X123680499Y-92202491D01*
X123641404Y-92170142D01*
X123607873Y-92133617D01*
X123579979Y-92092988D01*
X123557795Y-92048329D01*
X123541392Y-91999713D01*
X123530842Y-91947214D01*
X123527903Y-91920940D01*
X123527085Y-91909833D01*
X123526149Y-91901698D01*
X123524111Y-91895994D01*
X123519991Y-91892178D01*
X123512806Y-91889710D01*
X123501575Y-91888046D01*
X123485315Y-91886646D01*
X123463045Y-91884967D01*
X123462667Y-91884937D01*
X123435115Y-91882710D01*
X123413944Y-91880816D01*
X123398491Y-91879166D01*
X123388094Y-91877673D01*
X123382090Y-91876249D01*
X123379817Y-91874807D01*
X123379918Y-91873974D01*
X123377973Y-91872665D01*
X123371139Y-91872440D01*
X123361468Y-91873114D01*
X123351010Y-91874497D01*
X123341817Y-91876403D01*
X123337431Y-91877859D01*
X123331923Y-91879376D01*
X123320616Y-91881836D01*
X123304669Y-91885008D01*
X123285241Y-91888665D01*
X123263489Y-91892578D01*
X123258056Y-91893529D01*
X123176570Y-91907036D01*
X123099154Y-91918409D01*
X123023266Y-91927987D01*
X122946367Y-91936109D01*
X122922917Y-91938294D01*
X122900487Y-91939888D01*
X122873281Y-91941121D01*
X122842652Y-91941993D01*
X122809951Y-91942504D01*
X122776529Y-91942652D01*
X122743738Y-91942438D01*
X122712930Y-91941861D01*
X122685455Y-91940920D01*
X122662666Y-91939615D01*
X122649514Y-91938402D01*
X122576686Y-91928747D01*
X122505829Y-91916860D01*
X122435068Y-91902349D01*
X122362527Y-91884822D01*
X122286331Y-91863890D01*
X122270857Y-91859368D01*
X122248243Y-91852575D01*
X122231577Y-91847222D01*
X122219982Y-91842959D01*
X122212578Y-91839438D01*
X122208490Y-91836309D01*
X122207057Y-91833968D01*
X122206091Y-91828855D01*
X122204509Y-91817561D01*
X122202410Y-91800925D01*
X122199895Y-91779783D01*
X122197063Y-91754975D01*
X122194013Y-91727338D01*
X122190918Y-91698392D01*
X122187321Y-91664399D01*
X122184435Y-91636757D01*
X122182312Y-91614791D01*
X122181001Y-91597830D01*
X122180553Y-91585198D01*
X122181018Y-91576223D01*
X122182447Y-91570230D01*
X122184890Y-91566547D01*
X122188397Y-91564499D01*
X122193018Y-91563413D01*
X122198805Y-91562615D01*
X122201091Y-91562283D01*
X122212337Y-91560254D01*
X122229389Y-91556797D01*
X122251193Y-91552151D01*
X122276700Y-91546555D01*
X122304858Y-91540249D01*
X122334615Y-91533471D01*
X122364921Y-91526461D01*
X122394725Y-91519457D01*
X122422975Y-91512700D01*
X122448620Y-91506427D01*
X122467833Y-91501593D01*
X122570462Y-91474234D01*
X122666453Y-91446397D01*
X122756213Y-91417945D01*
X122840153Y-91388742D01*
X122918680Y-91358650D01*
X122992203Y-91327534D01*
X123004056Y-91322213D01*
X123074730Y-91287760D01*
X123146700Y-91248022D01*
X123218246Y-91204092D01*
X123287648Y-91157066D01*
X123353190Y-91108037D01*
X123397403Y-91071786D01*
X123415065Y-91056423D01*
X123433398Y-91040012D01*
X123451684Y-91023244D01*
X123469206Y-91006810D01*
X123485249Y-90991401D01*
X123499095Y-90977709D01*
X123510027Y-90966424D01*
X123517329Y-90958238D01*
X123520283Y-90953841D01*
X123520219Y-90953368D01*
X123514114Y-90950119D01*
X123502137Y-90945797D01*
X123485347Y-90940663D01*
X123464801Y-90934980D01*
X123441556Y-90929011D01*
X123416670Y-90923019D01*
X123391199Y-90917265D01*
X123366201Y-90912013D01*
X123342732Y-90907526D01*
X123321852Y-90904065D01*
X123321556Y-90904021D01*
X123266513Y-90897477D01*
X123212179Y-90894423D01*
X123157039Y-90894893D01*
X123099581Y-90898923D01*
X123038289Y-90906548D01*
X123008461Y-90911261D01*
X122915204Y-90929850D01*
X122825771Y-90953707D01*
X122740377Y-90982725D01*
X122659234Y-91016797D01*
X122582557Y-91055818D01*
X122510558Y-91099681D01*
X122443451Y-91148280D01*
X122381449Y-91201509D01*
X122337949Y-91244915D01*
X122295574Y-91293556D01*
X122257536Y-91344333D01*
X122224493Y-91396230D01*
X122197105Y-91448230D01*
X122179656Y-91489355D01*
X122174680Y-91501769D01*
X122170056Y-91511937D01*
X122166789Y-91517652D01*
X122163532Y-91520958D01*
X122155631Y-91528670D01*
X122143561Y-91540334D01*
X122127793Y-91555496D01*
X122108801Y-91573704D01*
X122087057Y-91594504D01*
X122063034Y-91617442D01*
X122037205Y-91642065D01*
X122018042Y-91660309D01*
X121991341Y-91685737D01*
X121966208Y-91709712D01*
X121943104Y-91731794D01*
X121922486Y-91751540D01*
X121904813Y-91768513D01*
X121890545Y-91782270D01*
X121880139Y-91792371D01*
X121874055Y-91798376D01*
X121872607Y-91799922D01*
X121875572Y-91801699D01*
X121884384Y-91806052D01*
X121898436Y-91812701D01*
X121917123Y-91821368D01*
X121939836Y-91831773D01*
X121965972Y-91843637D01*
X121994923Y-91856683D01*
X122026083Y-91870630D01*
X122033468Y-91873923D01*
X122195126Y-91945942D01*
X122211981Y-92006214D01*
X122220094Y-92034199D01*
X122229941Y-92066534D01*
X122240916Y-92101347D01*
X122252411Y-92136762D01*
X122263817Y-92170907D01*
X122274527Y-92201907D01*
X122283511Y-92226757D01*
X122288959Y-92240443D01*
X122293479Y-92248917D01*
X122298136Y-92253733D01*
X122303830Y-92256392D01*
X122311132Y-92257558D01*
X122324453Y-92258496D01*
X122342760Y-92259209D01*
X122365020Y-92259697D01*
X122390201Y-92259965D01*
X122417269Y-92260013D01*
X122445192Y-92259845D01*
X122472937Y-92259461D01*
X122499472Y-92258866D01*
X122523763Y-92258060D01*
X122544777Y-92257046D01*
X122561319Y-92255841D01*
X122724261Y-92238212D01*
X122824139Y-92224838D01*
X122866859Y-92218400D01*
X122903678Y-92212100D01*
X122935734Y-92205624D01*
X122964167Y-92198661D01*
X122990116Y-92190899D01*
X123014721Y-92182025D01*
X123039122Y-92171727D01*
X123064457Y-92159694D01*
X123067556Y-92158147D01*
X123123115Y-92126813D01*
X123177664Y-92089211D01*
X123230233Y-92046128D01*
X123279852Y-91998353D01*
X123320314Y-91953042D01*
X123338347Y-91931319D01*
X123340748Y-91956569D01*
X123347775Y-92003991D01*
X123359681Y-92053168D01*
X123375802Y-92102224D01*
X123395477Y-92149282D01*
X123418042Y-92192463D01*
X123431719Y-92214289D01*
X123469340Y-92264006D01*
X123512141Y-92309003D01*
X123560037Y-92349251D01*
X123612937Y-92384723D01*
X123670757Y-92415389D01*
X123733406Y-92441223D01*
X123800799Y-92462197D01*
X123872848Y-92478282D01*
X123949465Y-92489451D01*
X124030562Y-92495676D01*
X124116053Y-92496929D01*
X124205848Y-92493182D01*
X124284639Y-92486139D01*
X124357782Y-92476822D01*
X124435875Y-92464509D01*
X124517621Y-92449481D01*
X124601724Y-92432024D01*
X124686887Y-92412418D01*
X124771813Y-92390949D01*
X124855205Y-92367899D01*
X124931986Y-92344745D01*
X125029460Y-92312112D01*
X125123786Y-92276670D01*
X125214613Y-92238629D01*
X125301592Y-92198203D01*
X125384372Y-92155600D01*
X125462604Y-92111034D01*
X125535937Y-92064714D01*
X125604021Y-92016853D01*
X125666506Y-91967661D01*
X125723041Y-91917350D01*
X125773278Y-91866131D01*
X125816865Y-91814215D01*
X125821516Y-91808103D01*
X125831132Y-91795676D01*
X125837892Y-91788104D01*
X125842929Y-91784422D01*
X125847377Y-91783664D01*
X125849726Y-91784079D01*
X125869163Y-91788388D01*
X125894240Y-91793070D01*
X125923568Y-91797922D01*
X125955757Y-91802737D01*
X125989415Y-91807313D01*
X126023152Y-91811443D01*
X126055578Y-91814923D01*
X126066167Y-91815932D01*
X126097905Y-91818462D01*
X126129888Y-91820184D01*
X126162791Y-91821067D01*
X126197290Y-91821080D01*
X126234060Y-91820194D01*
X126273775Y-91818377D01*
X126317113Y-91815599D01*
X126364746Y-91811829D01*
X126417352Y-91807037D01*
X126475605Y-91801192D01*
X126537125Y-91794600D01*
X126626165Y-91784237D01*
X126721639Y-91772018D01*
X126823193Y-91758007D01*
X126930469Y-91742269D01*
X127043115Y-91724868D01*
X127160774Y-91705867D01*
X127283091Y-91685332D01*
X127409712Y-91663326D01*
X127540280Y-91639914D01*
X127674441Y-91615160D01*
X127811840Y-91589128D01*
X127952121Y-91561882D01*
X128094930Y-91533486D01*
X128239911Y-91504006D01*
X128386709Y-91473505D01*
X128534969Y-91442046D01*
X128684335Y-91409696D01*
X128771972Y-91390408D01*
X128816466Y-91380554D01*
X128854684Y-91372267D01*
X128887258Y-91365680D01*
X128914823Y-91360928D01*
X128938011Y-91358146D01*
X128957455Y-91357468D01*
X128973788Y-91359028D01*
X128987642Y-91362962D01*
X128999652Y-91369404D01*
X129010449Y-91378488D01*
X129020667Y-91390348D01*
X129030938Y-91405120D01*
X129041896Y-91422938D01*
X129054174Y-91443936D01*
X129058453Y-91451295D01*
X129095722Y-91517072D01*
X129130654Y-91582322D01*
X129162855Y-91646214D01*
X129191929Y-91707915D01*
X129217481Y-91766594D01*
X129239117Y-91821419D01*
X129252982Y-91860859D01*
X129268442Y-91913272D01*
X129279158Y-91962184D01*
X129285158Y-92007367D01*
X129286469Y-92048594D01*
X129283119Y-92085635D01*
X129275134Y-92118262D01*
X129262543Y-92146247D01*
X129245372Y-92169362D01*
X129223649Y-92187378D01*
X129213124Y-92193395D01*
X129202991Y-92198154D01*
X129191941Y-92202524D01*
X129179615Y-92206533D01*
X129165657Y-92210209D01*
X129149709Y-92213581D01*
X129131413Y-92216677D01*
X129110414Y-92219524D01*
X129086352Y-92222152D01*
X129058872Y-92224587D01*
X129027615Y-92226859D01*
X128992225Y-92228995D01*
X128952343Y-92231023D01*
X128907613Y-92232973D01*
X128857677Y-92234871D01*
X128802178Y-92236746D01*
X128740759Y-92238626D01*
X128673062Y-92240540D01*
X128598731Y-92242515D01*
X128585000Y-92242869D01*
X128462923Y-92246207D01*
X128347344Y-92249786D01*
X128237707Y-92253639D01*
X128133456Y-92257794D01*
X128034037Y-92262284D01*
X127938895Y-92267138D01*
X127847474Y-92272388D01*
X127759219Y-92278064D01*
X127673574Y-92284196D01*
X127589985Y-92290816D01*
X127507897Y-92297954D01*
X127426754Y-92305640D01*
X127399667Y-92308345D01*
X127270967Y-92322177D01*
X127146502Y-92337273D01*
X127025523Y-92353805D01*
X126907281Y-92371941D01*
X126791028Y-92391851D01*
X126676016Y-92413705D01*
X126561496Y-92437671D01*
X126446721Y-92463920D01*
X126330941Y-92492620D01*
X126213408Y-92523942D01*
X126093373Y-92558054D01*
X125970090Y-92595127D01*
X125842808Y-92635329D01*
X125710780Y-92678830D01*
X125605792Y-92714551D01*
X125555932Y-92732059D01*
X125508400Y-92749485D01*
X125462527Y-92767150D01*
X125417643Y-92785374D01*
X125373080Y-92804476D01*
X125328167Y-92824779D01*
X125282235Y-92846601D01*
X125234615Y-92870263D01*
X125184637Y-92896085D01*
X125131633Y-92924388D01*
X125074932Y-92955492D01*
X125013865Y-92989717D01*
X124947763Y-93027384D01*
X124926694Y-93039493D01*
X124868073Y-93073223D01*
X124815102Y-93103651D01*
X124767334Y-93131025D01*
X124724321Y-93155591D01*
X124685616Y-93177596D01*
X124650771Y-93197287D01*
X124619338Y-93214910D01*
X124590870Y-93230714D01*
X124564919Y-93244944D01*
X124541037Y-93257848D01*
X124518777Y-93269672D01*
X124497692Y-93280664D01*
X124477332Y-93291070D01*
X124457252Y-93301138D01*
X124437003Y-93311113D01*
X124416138Y-93321244D01*
X124414306Y-93322128D01*
X124346867Y-93353565D01*
X124283250Y-93380819D01*
X124222082Y-93404282D01*
X124161992Y-93424345D01*
X124101609Y-93441402D01*
X124039560Y-93455844D01*
X123974474Y-93468064D01*
X123904978Y-93478454D01*
X123840139Y-93486279D01*
X123799152Y-93490039D01*
X123753206Y-93492999D01*
X123704358Y-93495105D01*
X123654663Y-93496301D01*
X123606179Y-93496532D01*
X123560962Y-93495744D01*
X123531458Y-93494508D01*
X123451912Y-93487865D01*
X123371456Y-93476743D01*
X123291278Y-93461443D01*
X123212567Y-93442263D01*
X123136511Y-93419501D01*
X123064298Y-93393456D01*
X122997116Y-93364427D01*
X122979008Y-93355625D01*
X122898028Y-93311372D01*
X122818806Y-93260408D01*
X122741482Y-93202893D01*
X122666195Y-93138983D01*
X122593086Y-93068836D01*
X122522295Y-92992610D01*
X122453960Y-92910463D01*
X122388223Y-92822552D01*
X122325222Y-92729036D01*
X122265097Y-92630070D01*
X122207989Y-92525814D01*
X122162897Y-92435201D01*
X122144559Y-92395287D01*
X122126937Y-92353922D01*
X122109526Y-92309814D01*
X122091819Y-92261672D01*
X122073310Y-92208204D01*
X122068965Y-92195250D01*
X122061296Y-92171804D01*
X122053193Y-92146214D01*
X122045008Y-92119673D01*
X122037093Y-92093373D01*
X122029801Y-92068508D01*
X122023485Y-92046269D01*
X122018496Y-92027848D01*
X122015187Y-92014440D01*
X122014378Y-92010558D01*
X122012209Y-91998996D01*
X121807595Y-91916428D01*
X121771615Y-91901883D01*
X121737607Y-91888085D01*
X121706132Y-91875266D01*
X121677748Y-91863654D01*
X121653014Y-91853480D01*
X121632490Y-91844974D01*
X121616734Y-91838367D01*
X121606307Y-91833889D01*
X121601768Y-91831769D01*
X121601619Y-91831656D01*
X121603960Y-91829006D01*
X121611162Y-91822050D01*
X121622812Y-91811163D01*
X121638495Y-91796724D01*
X121657797Y-91779108D01*
X121680304Y-91758694D01*
X121705601Y-91735859D01*
X121733274Y-91710979D01*
X121762909Y-91684432D01*
X121788286Y-91661769D01*
X121824302Y-91629640D01*
X121855416Y-91601846D01*
X121881998Y-91578033D01*
X121904415Y-91557848D01*
X121923038Y-91540935D01*
X121938235Y-91526942D01*
X121950376Y-91515513D01*
X121959830Y-91506294D01*
X121966965Y-91498931D01*
X121972152Y-91493071D01*
X121975759Y-91488358D01*
X121978156Y-91484439D01*
X121979712Y-91480959D01*
X121980795Y-91477565D01*
X121980979Y-91476897D01*
X121987388Y-91456348D01*
X121996490Y-91431398D01*
X122007560Y-91403816D01*
X122019874Y-91375375D01*
X122032705Y-91347843D01*
X122039300Y-91334554D01*
X122071749Y-91276345D01*
X122108977Y-91220220D01*
X122151666Y-91165249D01*
X122200499Y-91110502D01*
X122213642Y-91096849D01*
X122269151Y-91043310D01*
X122326431Y-90994827D01*
X122386685Y-90950531D01*
X122451117Y-90909557D01*
X122520931Y-90871037D01*
X122541917Y-90860420D01*
X122609971Y-90828548D01*
X122677985Y-90800713D01*
X122747187Y-90776541D01*
X122818807Y-90755659D01*
X122894072Y-90737692D01*
X122974212Y-90722268D01*
X123020680Y-90714752D01*
X123040516Y-90711832D01*
X123057844Y-90709566D01*
X123074061Y-90707870D01*
X123090562Y-90706659D01*
X123108742Y-90705848D01*
X123129998Y-90705355D01*
X123155724Y-90705094D01*
X123182208Y-90704991D01*
X123219423Y-90705069D01*
D12*
X161190000Y-100200000D03*
X161190000Y-100600000D03*
X161190000Y-101000000D03*
X161190000Y-101400000D03*
X161190000Y-101800000D03*
X161190000Y-102200000D03*
X161190000Y-102600000D03*
X161190000Y-103000000D03*
X161190000Y-103400000D03*
X161190000Y-103800000D03*
X161190000Y-107800000D03*
X161190000Y-107400000D03*
X161190000Y-107000000D03*
X161190000Y-106600000D03*
X161190000Y-106200000D03*
X161190000Y-105800000D03*
X161190000Y-105400000D03*
X161190000Y-105000000D03*
X161190000Y-104600000D03*
X161190000Y-104200000D03*
X161190000Y-108200000D03*
X161190000Y-108600000D03*
X161190000Y-109000000D03*
X161190000Y-109400000D03*
X161190000Y-109800000D03*
X161190000Y-110200000D03*
X161190000Y-110600000D03*
X161190000Y-111000000D03*
X161190000Y-111400000D03*
X161190000Y-111800000D03*
X161190000Y-115800000D03*
X161190000Y-115400000D03*
X161190000Y-115000000D03*
X161190000Y-114600000D03*
X161190000Y-114200000D03*
X161190000Y-113800000D03*
X161190000Y-113400000D03*
X161190000Y-113000000D03*
X161190000Y-112600000D03*
X161190000Y-112200000D03*
X158110000Y-112200000D03*
X158110000Y-112600000D03*
X158110000Y-113000000D03*
X158110000Y-113400000D03*
X158110000Y-113800000D03*
X158110000Y-114200000D03*
X158110000Y-114600000D03*
X158110000Y-115000000D03*
X158110000Y-115400000D03*
X158110000Y-115800000D03*
X158110000Y-111800000D03*
X158110000Y-111400000D03*
X158110000Y-111000000D03*
X158110000Y-110600000D03*
X158110000Y-110200000D03*
X158110000Y-109800000D03*
X158110000Y-109400000D03*
X158110000Y-109000000D03*
X158110000Y-108600000D03*
X158110000Y-108200000D03*
X158110000Y-104200000D03*
X158110000Y-104600000D03*
X158110000Y-105000000D03*
X158110000Y-105400000D03*
X158110000Y-105800000D03*
X158110000Y-106200000D03*
X158110000Y-106600000D03*
X158110000Y-107000000D03*
X158110000Y-107400000D03*
X158110000Y-107800000D03*
X158110000Y-103800000D03*
X158110000Y-103400000D03*
X158110000Y-103000000D03*
X158110000Y-102600000D03*
X158110000Y-102200000D03*
X158110000Y-101800000D03*
X158110000Y-101400000D03*
X158110000Y-101000000D03*
X158110000Y-100600000D03*
X158110000Y-100200000D03*
D13*
X158461920Y-94250000D03*
X158461920Y-93599760D03*
X158461920Y-92949520D03*
X155800000Y-92949520D03*
X155800000Y-93599760D03*
X155800000Y-94250000D03*
X164300000Y-98250000D03*
X164300000Y-97599760D03*
X164300000Y-96949520D03*
X161638080Y-96949520D03*
X161638080Y-97599760D03*
X161638080Y-98250000D03*
X158611920Y-96700000D03*
X158611920Y-96049760D03*
X158611920Y-95399520D03*
X155950000Y-95399520D03*
X155950000Y-96049760D03*
X155950000Y-96700000D03*
D14*
X156972000Y-124663200D03*
D15*
X154432000Y-124663200D03*
X151892000Y-124663200D03*
X149352000Y-124663200D03*
X146812000Y-124663200D03*
X144272000Y-124663200D03*
X141732000Y-124663200D03*
X139192000Y-124663200D03*
D14*
X138684000Y-91440000D03*
D15*
X141224000Y-91440000D03*
X143764000Y-91440000D03*
X146304000Y-91440000D03*
X148844000Y-91440000D03*
X151384000Y-91440000D03*
D16*
X120396000Y-120396000D03*
D17*
X117856000Y-120396000D03*
X120396000Y-117856000D03*
X117856000Y-117856000D03*
X120396000Y-115316000D03*
X117856000Y-115316000D03*
X120396000Y-112776000D03*
X117856000Y-112776000D03*
X120396000Y-110236000D03*
X117856000Y-110236000D03*
X120396000Y-107696000D03*
X117856000Y-107696000D03*
X120396000Y-105156000D03*
X117856000Y-105156000D03*
X120396000Y-102616000D03*
X117856000Y-102616000D03*
X120396000Y-100076000D03*
X117856000Y-100076000D03*
X120396000Y-97536000D03*
X117856000Y-97536000D03*
X120396000Y-94996000D03*
X117856000Y-94996000D03*
D16*
X184404000Y-94183200D03*
D17*
X186944000Y-94183200D03*
X184404000Y-96723200D03*
X186944000Y-96723200D03*
X184404000Y-99263200D03*
X186944000Y-99263200D03*
X184404000Y-101803200D03*
X186944000Y-101803200D03*
X184404000Y-104343200D03*
X186944000Y-104343200D03*
X184404000Y-106883200D03*
X186944000Y-106883200D03*
X184404000Y-109423200D03*
X186944000Y-109423200D03*
X184404000Y-111963200D03*
X186944000Y-111963200D03*
X184404000Y-114503200D03*
X186944000Y-114503200D03*
X184404000Y-117043200D03*
X186944000Y-117043200D03*
X184404000Y-119583200D03*
X186944000Y-119583200D03*
X184404000Y-122123200D03*
X186944000Y-122123200D03*
D16*
X168402000Y-93726000D03*
D17*
X168402000Y-91186000D03*
X170942000Y-93726000D03*
X170942000Y-91186000D03*
X173482000Y-93726000D03*
X173482000Y-91186000D03*
D16*
X173736000Y-122224800D03*
D17*
X173736000Y-124764800D03*
X171196000Y-122224800D03*
X171196000Y-124764800D03*
X168656000Y-122224800D03*
X168656000Y-124764800D03*
D18*
X127000000Y-123151900D03*
X127000000Y-124650500D03*
X124000000Y-123164600D03*
X124000000Y-124663200D03*
X121000000Y-123250700D03*
X121000000Y-124749300D03*
D19*
X137922000Y-119362400D03*
X137922000Y-117162400D03*
X140620000Y-119390000D03*
X140620000Y-117190000D03*
X143256000Y-119395600D03*
X143256000Y-117195600D03*
X141200000Y-93710000D03*
X141200000Y-95910000D03*
X152040000Y-94010000D03*
X152040000Y-96210000D03*
X139190000Y-105020000D03*
X139190000Y-102820000D03*
X136870000Y-105010000D03*
X136870000Y-102810000D03*
D20*
X142310000Y-106500000D03*
X146950000Y-106520000D03*
X162883962Y-97548669D03*
X162500000Y-95300000D03*
X140830000Y-115920000D03*
X144450000Y-117150000D03*
X163934065Y-95215229D03*
D21*
X163830000Y-109270810D03*
X164058208Y-106967980D03*
X162579214Y-106491109D03*
X162993938Y-107218712D03*
X162237982Y-107581100D03*
X162237982Y-108419301D03*
X162993938Y-108781689D03*
X162579214Y-109509292D03*
D20*
X160500000Y-95450000D03*
X157300000Y-95000000D03*
X146540000Y-103924120D03*
X142200000Y-103920000D03*
X159100000Y-98150000D03*
X159950000Y-93400000D03*
X151790989Y-103434136D03*
X154500000Y-92950000D03*
X124800000Y-106320000D03*
X124000000Y-122100000D03*
D21*
X155589805Y-105471395D03*
D20*
X154325068Y-92130246D03*
X160303087Y-96914049D03*
X157300000Y-97100000D03*
X156750000Y-92200000D03*
X154650000Y-94900000D03*
X145413264Y-103516540D03*
X142940000Y-103434136D03*
X160729126Y-94320874D03*
D21*
X153919056Y-100000853D03*
D20*
X153454202Y-114590804D03*
D21*
X155299763Y-113793840D03*
X153873962Y-113412043D03*
X155727610Y-112671825D03*
X154026245Y-112218220D03*
X156055702Y-111531180D03*
X154490505Y-110989682D03*
X156402417Y-110392762D03*
D20*
X125920002Y-110540000D03*
D21*
X155871011Y-109744529D03*
X156179061Y-107808048D03*
D20*
X127000000Y-122100000D03*
D21*
X157062650Y-107581100D03*
X157062650Y-108419301D03*
X156306694Y-108781689D03*
X156721418Y-109509292D03*
X156320021Y-106910513D03*
D20*
X121770000Y-106520000D03*
X122260000Y-121710000D03*
D21*
X154838400Y-106070400D03*
D20*
X138060000Y-102060000D03*
X140260000Y-102180000D03*
D21*
X155714769Y-103348701D03*
X154929039Y-102987157D03*
X155283703Y-102227594D03*
X154326150Y-101630674D03*
X154699335Y-100880119D03*
X153217991Y-100462585D03*
X158255617Y-116945501D03*
X157265015Y-116147324D03*
X156788823Y-116834445D03*
X156134258Y-116308281D03*
X155690000Y-117460000D03*
D20*
X154460000Y-116690000D03*
D21*
X153760535Y-115922029D03*
X154990539Y-114935795D03*
X161922704Y-99740163D03*
X161045015Y-99054899D03*
X164613234Y-99375544D03*
X163537072Y-99587501D03*
X166149021Y-100034791D03*
X165355304Y-99765326D03*
X164717783Y-101354066D03*
X167270000Y-100060000D03*
X163947803Y-102261178D03*
X166928017Y-101406575D03*
X163595710Y-103398884D03*
X166435862Y-102786775D03*
X163227869Y-104534203D03*
X165967464Y-103952211D03*
X162889081Y-105673578D03*
X165504369Y-105122998D03*
X165294930Y-110778593D03*
X162897007Y-110372718D03*
X165553567Y-111972414D03*
X163236900Y-111514984D03*
X165830406Y-113166235D03*
X163635195Y-112660600D03*
D20*
X166458926Y-114417146D03*
D21*
X163948994Y-113820226D03*
X165800275Y-115577507D03*
X164288019Y-114961441D03*
X163996455Y-116715567D03*
D20*
X165499652Y-116359956D03*
D21*
X162453803Y-116868232D03*
X163178105Y-116446349D03*
X161045015Y-116945501D03*
X162033213Y-116143179D03*
X158255617Y-99054899D03*
X156653893Y-99385946D03*
X154801664Y-98798319D03*
X153817718Y-98797108D03*
D20*
X153124797Y-99268763D03*
D22*
X146950000Y-106520000D02*
X142330000Y-106520000D01*
X142330000Y-106520000D02*
X142310000Y-106500000D01*
D23*
X162883962Y-97736932D02*
X162883962Y-97548669D01*
X163397030Y-98250000D02*
X162883962Y-97736932D01*
X164300000Y-98250000D02*
X163397030Y-98250000D01*
X162883962Y-97063736D02*
X162883962Y-97548669D01*
X162550000Y-96050000D02*
X162883962Y-96383962D01*
X162883962Y-96383962D02*
X162883962Y-97063736D01*
X158461920Y-94250000D02*
X158461920Y-95249520D01*
X158461920Y-95249520D02*
X158611920Y-95399520D01*
X159353696Y-95399520D02*
X159975678Y-96021502D01*
X158611920Y-95399520D02*
X159353696Y-95399520D01*
X160771502Y-96021502D02*
X160528498Y-96021502D01*
X162550000Y-96050000D02*
X160800000Y-96050000D01*
X160800000Y-96050000D02*
X160771502Y-96021502D01*
X160528498Y-96021502D02*
X159914476Y-96021502D01*
X159235978Y-96700000D02*
X158611920Y-96700000D01*
X159975678Y-96021502D02*
X160528498Y-96021502D01*
X159914476Y-96021502D02*
X159235978Y-96700000D01*
X162500000Y-96000000D02*
X162500000Y-95784933D01*
X162550000Y-96050000D02*
X162500000Y-96000000D01*
X162500000Y-95784933D02*
X162500000Y-95300000D01*
X158611920Y-94261920D02*
X158600000Y-94250000D01*
X164300000Y-97599760D02*
X164300000Y-96949520D01*
X163934065Y-95215229D02*
X164300000Y-95581164D01*
X164300000Y-95581164D02*
X164300000Y-96949520D01*
D22*
X140830000Y-115920000D02*
X140830000Y-116980000D01*
X140830000Y-116980000D02*
X140620000Y-117190000D01*
D24*
X140830000Y-115920000D02*
X139014400Y-115920000D01*
X139014400Y-115920000D02*
X137922000Y-117012400D01*
X137922000Y-117012400D02*
X137922000Y-117162400D01*
X140830000Y-117150000D02*
X140817600Y-117162400D01*
X143256000Y-117195600D02*
X144404400Y-117195600D01*
X144404400Y-117195600D02*
X144450000Y-117150000D01*
D23*
X160500000Y-95450000D02*
X161450000Y-94500000D01*
X163218836Y-94500000D02*
X163591166Y-94872330D01*
X163591166Y-94872330D02*
X163934065Y-95215229D01*
X161450000Y-94500000D02*
X163218836Y-94500000D01*
D22*
X163830000Y-109270810D02*
X164172899Y-108927911D01*
X164172899Y-108927911D02*
X164172899Y-108165901D01*
X164172899Y-108165901D02*
X164287200Y-108051600D01*
D23*
X162579214Y-109509292D02*
X163591518Y-109509292D01*
X163591518Y-109509292D02*
X163830000Y-109270810D01*
X161190000Y-109400000D02*
X162469922Y-109400000D01*
X162469922Y-109400000D02*
X162579214Y-109509292D01*
D24*
X164058208Y-107452913D02*
X164058208Y-106967980D01*
X164287200Y-108051600D02*
X164058208Y-107822608D01*
D23*
X163714228Y-106624000D02*
X163715309Y-106625081D01*
X161190316Y-106624000D02*
X163714228Y-106624000D01*
D24*
X164058208Y-107822608D02*
X164058208Y-107452913D01*
D23*
X163715309Y-106625081D02*
X164058208Y-106967980D01*
D24*
X162579214Y-106491109D02*
X162579214Y-106803988D01*
X162579214Y-106803988D02*
X162993938Y-107218712D01*
D25*
X183032400Y-108051600D02*
X164287200Y-108051600D01*
X164287200Y-108051600D02*
X162915600Y-108051600D01*
D24*
X162579214Y-109509292D02*
X162579214Y-109196413D01*
X162579214Y-109196413D02*
X162993938Y-108781689D01*
X162993938Y-107973262D02*
X162993938Y-108781689D01*
X162993938Y-107218712D02*
X162993938Y-107973262D01*
X162993938Y-107973262D02*
X162915600Y-108051600D01*
X162915600Y-108051600D02*
X162605683Y-108051600D01*
X162605683Y-108051600D02*
X162237982Y-108419301D01*
X162237982Y-107581100D02*
X162580881Y-107923999D01*
X162580881Y-107923999D02*
X162787999Y-107923999D01*
X162787999Y-107923999D02*
X162915600Y-108051600D01*
D25*
X184404000Y-109423200D02*
X186944000Y-109423200D01*
X186944000Y-106883200D02*
X184404000Y-106883200D01*
X186944000Y-106883200D02*
X186944000Y-109423200D01*
X184404000Y-106883200D02*
X183235600Y-108051600D01*
X183235600Y-108051600D02*
X183032400Y-108051600D01*
X184404000Y-109423200D02*
X183032400Y-108051600D01*
D23*
X161190316Y-107024000D02*
X161540316Y-107024000D01*
X161540316Y-107024000D02*
X162406505Y-106287883D01*
X162406505Y-106287883D02*
X162579214Y-106491109D01*
X161190316Y-107424000D02*
X161540316Y-107424000D01*
X161540316Y-107424000D02*
X162119760Y-106931569D01*
X162119760Y-106931569D02*
X162408598Y-107036104D01*
X162408598Y-107036104D02*
X162993938Y-107218712D01*
X161190316Y-107824000D02*
X161540316Y-107824000D01*
X161540316Y-107824000D02*
X162065274Y-107377873D01*
X162065274Y-107377873D02*
X162237982Y-107581100D01*
X161190316Y-108176401D02*
X161540316Y-108176401D01*
X161540316Y-108176401D02*
X162065274Y-108622527D01*
X162065274Y-108622527D02*
X162237982Y-108419301D01*
X161190316Y-108576401D02*
X161540316Y-108576401D01*
X161540316Y-108576401D02*
X162119760Y-109068832D01*
X162119760Y-109068832D02*
X162408598Y-108964297D01*
X162408598Y-108964297D02*
X162993938Y-108781689D01*
X161190316Y-108976401D02*
X161540316Y-108976401D01*
X161540316Y-108976401D02*
X162406505Y-109712518D01*
X162406505Y-109712518D02*
X162579214Y-109509292D01*
X160500000Y-95450000D02*
X160500000Y-94965067D01*
X160500000Y-94965067D02*
X159134693Y-93599760D01*
X159134693Y-93599760D02*
X158461920Y-93599760D01*
X157300000Y-93996790D02*
X157300000Y-94515067D01*
X157300000Y-94515067D02*
X157300000Y-95000000D01*
X158611920Y-96049760D02*
X157708950Y-96049760D01*
X157708950Y-96049760D02*
X157300000Y-95640810D01*
X157300000Y-95640810D02*
X157300000Y-95000000D01*
X159100000Y-98150000D02*
X158684980Y-97734980D01*
X156984980Y-97734980D02*
X155950000Y-96700000D01*
X158684980Y-97734980D02*
X156984980Y-97734980D01*
D22*
X146517219Y-103946901D02*
X146540000Y-103924120D01*
X142542899Y-104262899D02*
X146201221Y-104262899D01*
X142200000Y-103920000D02*
X142542899Y-104262899D01*
X146201221Y-104262899D02*
X146517219Y-103946901D01*
D23*
X159502970Y-92949520D02*
X158461920Y-92949520D01*
X159950000Y-93396550D02*
X159950000Y-93400000D01*
X159502970Y-92949520D02*
X159950000Y-93396550D01*
X156470220Y-96800240D02*
X155919040Y-96800240D01*
X157345823Y-104738223D02*
X153095076Y-104738223D01*
X153095076Y-104738223D02*
X152133888Y-103777035D01*
X152133888Y-103777035D02*
X151790989Y-103434136D01*
X158110000Y-105000000D02*
X157607600Y-105000000D01*
X157607600Y-105000000D02*
X157345823Y-104738223D01*
X155800000Y-92949520D02*
X154500480Y-92949520D01*
X154500480Y-92949520D02*
X154500000Y-92950000D01*
X155938080Y-92949520D02*
X155937600Y-92950000D01*
D22*
X139190000Y-105020000D02*
X138536800Y-105020000D01*
X138536800Y-105020000D02*
X138400800Y-105156000D01*
X138400800Y-105156000D02*
X137350000Y-105156000D01*
X155274410Y-105156000D02*
X139979200Y-105156000D01*
X139979200Y-105156000D02*
X139843200Y-105020000D01*
X139843200Y-105020000D02*
X139190000Y-105020000D01*
X136870000Y-105010000D02*
X137204000Y-105010000D01*
X137204000Y-105010000D02*
X137350000Y-105156000D01*
X125600000Y-105156000D02*
X137350000Y-105156000D01*
D23*
X125600000Y-105156000D02*
X125600000Y-105520000D01*
X125600000Y-105520000D02*
X125142899Y-105977101D01*
X125142899Y-105977101D02*
X124800000Y-106320000D01*
X157300000Y-97100000D02*
X157030000Y-96830000D01*
X157030000Y-96830000D02*
X157030000Y-96226790D01*
X157030000Y-96226790D02*
X156852970Y-96049760D01*
X156852970Y-96049760D02*
X155950000Y-96049760D01*
X124000000Y-122100000D02*
X124000000Y-123164600D01*
D22*
X120396000Y-105156000D02*
X125600000Y-105156000D01*
D23*
X157573012Y-106224000D02*
X156820407Y-105471395D01*
D22*
X155274410Y-105156000D02*
X155589805Y-105471395D01*
D23*
X156074738Y-105471395D02*
X155589805Y-105471395D01*
X158110316Y-106224000D02*
X157573012Y-106224000D01*
X156820407Y-105471395D02*
X156074738Y-105471395D01*
X161638080Y-98250000D02*
X160346552Y-98250000D01*
X160346552Y-98250000D02*
X160303087Y-98206535D01*
X160303087Y-98206535D02*
X160303087Y-97700000D01*
X160303087Y-97700000D02*
X160303087Y-97398982D01*
X161638080Y-97599760D02*
X160735110Y-97599760D01*
X160735110Y-97599760D02*
X160634870Y-97700000D01*
X160634870Y-97700000D02*
X160303087Y-97700000D01*
X158110000Y-106200000D02*
X159531067Y-106200000D01*
X154650000Y-93945822D02*
X154650000Y-93846790D01*
X154650000Y-93846790D02*
X154897030Y-93599760D01*
X154897030Y-93599760D02*
X155800000Y-93599760D01*
X154650000Y-94900000D02*
X154650000Y-93945822D01*
X154650000Y-93945822D02*
X153928499Y-93224321D01*
X153928499Y-93224321D02*
X153928499Y-92526815D01*
X153928499Y-92526815D02*
X153982169Y-92473145D01*
X153982169Y-92473145D02*
X154325068Y-92130246D01*
X154394822Y-92200000D02*
X154325068Y-92130246D01*
X156750000Y-92200000D02*
X154394822Y-92200000D01*
X160303087Y-97398982D02*
X160303087Y-96914049D01*
X160239234Y-98270388D02*
X160303087Y-98206535D01*
X160054811Y-98454811D02*
X160239234Y-98270388D01*
X160054811Y-98454811D02*
X160050000Y-98450000D01*
X160059620Y-104997487D02*
X160054811Y-104992678D01*
X159531067Y-106200000D02*
X160059620Y-105671447D01*
X160054811Y-104992678D02*
X160054811Y-98454811D01*
X160059620Y-105671447D02*
X160059620Y-104997487D01*
D22*
X143022404Y-103516540D02*
X142940000Y-103434136D01*
X145413264Y-103516540D02*
X143022404Y-103516540D01*
D23*
X160729126Y-94320874D02*
X160729126Y-92679126D01*
X160729126Y-92679126D02*
X160500000Y-92450000D01*
X156917251Y-93032749D02*
X156917251Y-94173799D01*
X156917251Y-94173799D02*
X156841050Y-94250000D01*
X156841050Y-94250000D02*
X155800000Y-94250000D01*
X160500000Y-92450000D02*
X157500000Y-92450000D01*
X157500000Y-92450000D02*
X156917251Y-93032749D01*
X159450000Y-105800000D02*
X158110000Y-105800000D01*
X159750000Y-105500000D02*
X159450000Y-105800000D01*
X159700000Y-96671314D02*
X159700000Y-99250000D01*
X159750000Y-99300000D02*
X159750000Y-105500000D01*
X159700000Y-99250000D02*
X159750000Y-99300000D01*
X159885657Y-96485657D02*
X159700000Y-96671314D01*
X161638080Y-96949520D02*
X160874588Y-96949520D01*
X160874588Y-96949520D02*
X160874588Y-96639728D01*
X160874588Y-96639728D02*
X160577408Y-96342548D01*
X160577408Y-96342548D02*
X160028766Y-96342548D01*
X160028766Y-96342548D02*
X159885657Y-96485657D01*
X159445190Y-99426256D02*
X158058725Y-98039791D01*
X158110000Y-105400000D02*
X158612400Y-105400000D01*
X155936988Y-97280000D02*
X154990000Y-97280000D01*
X158612400Y-105400000D02*
X159445190Y-104567210D01*
X154733499Y-97023499D02*
X154733499Y-95713051D01*
X159445190Y-104567210D02*
X159445190Y-99426256D01*
X154990000Y-97280000D02*
X154733499Y-97023499D01*
X158058725Y-98039791D02*
X156696779Y-98039791D01*
X156696779Y-98039791D02*
X155936988Y-97280000D01*
X155047030Y-95399520D02*
X155950000Y-95399520D01*
X154733499Y-95713051D02*
X155047030Y-95399520D01*
D22*
X138684000Y-91440000D02*
X138684000Y-95694000D01*
X138684000Y-95694000D02*
X143140146Y-100150146D01*
X143140146Y-100150146D02*
X152656033Y-100150146D01*
X152656033Y-100150146D02*
X152940496Y-99865683D01*
X152940496Y-99865683D02*
X153783886Y-99865683D01*
X153783886Y-99865683D02*
X153919056Y-100000853D01*
D23*
X157689002Y-101824000D02*
X157285244Y-101420242D01*
X154403989Y-100000853D02*
X153919056Y-100000853D01*
X157167758Y-101320398D02*
X157111615Y-101272682D01*
X155667233Y-100571125D02*
X155099914Y-100003806D01*
X157285244Y-101420242D02*
X157167758Y-101320398D01*
X157111615Y-101272682D02*
X156410058Y-100571125D01*
X154406942Y-100003806D02*
X154403989Y-100000853D01*
X155099914Y-100003806D02*
X154406942Y-100003806D01*
X156410058Y-100571125D02*
X155667233Y-100571125D01*
X158110316Y-101824000D02*
X157689002Y-101824000D01*
D22*
X121462800Y-120396000D02*
X127267996Y-114590804D01*
X127267996Y-114590804D02*
X152969269Y-114590804D01*
X120396000Y-120396000D02*
X121462800Y-120396000D01*
X152969269Y-114590804D02*
X153454202Y-114590804D01*
D23*
X157487994Y-112807806D02*
X155474692Y-114518778D01*
X155474692Y-114518778D02*
X155387954Y-114487385D01*
X155387954Y-114487385D02*
X155264862Y-114364293D01*
X155264862Y-114364293D02*
X154165646Y-114364293D01*
X154165646Y-114364293D02*
X153939135Y-114590804D01*
X158015318Y-112671399D02*
X157624401Y-112671399D01*
X158110316Y-112576401D02*
X158015318Y-112671399D01*
X157624401Y-112671399D02*
X157487994Y-112807806D01*
X153939135Y-114590804D02*
X153454202Y-114590804D01*
D22*
X155299763Y-113793840D02*
X154814830Y-113793840D01*
X153587448Y-114008946D02*
X153502168Y-113923666D01*
X118973601Y-119278399D02*
X118719599Y-119532401D01*
X120627651Y-119278399D02*
X118973601Y-119278399D01*
X154814830Y-113793840D02*
X154599724Y-114008946D01*
X118719599Y-119532401D02*
X117856000Y-120396000D01*
X154599724Y-114008946D02*
X153587448Y-114008946D01*
X153502168Y-113923666D02*
X125982384Y-113923666D01*
X125982384Y-113923666D02*
X120627651Y-119278399D01*
D23*
X155857032Y-113793840D02*
X155784696Y-113793840D01*
X155784696Y-113793840D02*
X155299763Y-113793840D01*
X157554923Y-112366588D02*
X157489946Y-112366588D01*
X158110316Y-112176401D02*
X158024341Y-112262376D01*
X157226588Y-112629946D02*
X155857032Y-113793840D01*
X158024341Y-112262376D02*
X157659136Y-112262376D01*
X157659136Y-112262376D02*
X157554923Y-112366588D01*
X157489946Y-112366588D02*
X157226588Y-112629946D01*
D22*
X124683945Y-113568055D02*
X153233017Y-113568055D01*
X120396000Y-117856000D02*
X124683945Y-113568055D01*
X153233017Y-113568055D02*
X153389029Y-113412043D01*
X153389029Y-113412043D02*
X153873962Y-113412043D01*
D23*
X155574086Y-113222338D02*
X154548600Y-113222338D01*
X157576563Y-111957566D02*
X157532880Y-111957566D01*
X157348973Y-112061777D02*
X156921777Y-112488973D01*
X154548600Y-113222338D02*
X154358895Y-113412043D01*
X155780543Y-113428795D02*
X155574086Y-113222338D01*
X157532880Y-111957566D02*
X157452328Y-112038118D01*
X157452328Y-112038118D02*
X157424490Y-112061777D01*
X154358895Y-113412043D02*
X153873962Y-113412043D01*
X158110316Y-111776401D02*
X157757728Y-111776401D01*
X156921777Y-112488973D02*
X155815886Y-113428795D01*
X155815886Y-113428795D02*
X155780543Y-113428795D01*
X157424490Y-112061777D02*
X157348973Y-112061777D01*
X157757728Y-111776401D02*
X157576563Y-111957566D01*
D22*
X155099379Y-112815123D02*
X152176513Y-112815123D01*
X118719599Y-116992401D02*
X117856000Y-117856000D01*
X155242677Y-112671825D02*
X155099379Y-112815123D01*
X124153606Y-113212444D02*
X120932449Y-116433601D01*
X152176513Y-112815123D02*
X151779192Y-113212444D01*
X119278399Y-116433601D02*
X118719599Y-116992401D01*
X155727610Y-112671825D02*
X155242677Y-112671825D01*
X120932449Y-116433601D02*
X119278399Y-116433601D01*
X151779192Y-113212444D02*
X124153606Y-113212444D01*
D23*
X157760316Y-111376401D02*
X157650475Y-111486242D01*
X156616966Y-112348000D02*
X156235919Y-112671825D01*
X157406624Y-111652755D02*
X157302413Y-111756966D01*
X157616821Y-111486242D02*
X157450308Y-111652755D01*
X156212543Y-112671825D02*
X155727610Y-112671825D01*
X157650475Y-111486242D02*
X157616821Y-111486242D01*
X157302413Y-111756966D02*
X157208000Y-111756966D01*
X157450308Y-111652755D02*
X157406624Y-111652755D01*
X156235919Y-112671825D02*
X156212543Y-112671825D01*
X158110316Y-111376401D02*
X157760316Y-111376401D01*
X157208000Y-111756966D02*
X156616966Y-112348000D01*
D22*
X151631894Y-112856833D02*
X152270507Y-112218220D01*
X120396000Y-115316000D02*
X122855167Y-112856833D01*
X152270507Y-112218220D02*
X153541312Y-112218220D01*
X122855167Y-112856833D02*
X151631894Y-112856833D01*
X153541312Y-112218220D02*
X154026245Y-112218220D01*
D23*
X156079946Y-112178336D02*
X156001933Y-112100323D01*
X156345914Y-112178336D02*
X156079946Y-112178336D01*
X157667115Y-110976401D02*
X157295572Y-111347944D01*
X156001933Y-112100323D02*
X154629075Y-112100323D01*
X154629075Y-112100323D02*
X154511178Y-112218220D01*
X157295572Y-111347944D02*
X157176306Y-111347944D01*
X157176306Y-111347944D02*
X156345914Y-112178336D01*
X154511178Y-112218220D02*
X154026245Y-112218220D01*
X158110316Y-110976401D02*
X157667115Y-110976401D01*
D22*
X118719599Y-114452401D02*
X117856000Y-115316000D01*
X120932449Y-113893601D02*
X119278399Y-113893601D01*
X122456429Y-112369621D02*
X120932449Y-113893601D01*
X151616197Y-112369621D02*
X122456429Y-112369621D01*
X152394598Y-111591220D02*
X151616197Y-112369621D01*
X156055702Y-111531180D02*
X155570769Y-111531180D01*
X119278399Y-113893601D02*
X118719599Y-114452401D01*
X155570769Y-111531180D02*
X155510729Y-111591220D01*
X155510729Y-111591220D02*
X152394598Y-111591220D01*
D23*
X158110316Y-110576401D02*
X157636048Y-110576401D01*
X156562004Y-111531180D02*
X156540635Y-111531180D01*
X157636048Y-110576401D02*
X157169315Y-111043134D01*
X157050050Y-111043134D02*
X156562004Y-111531180D01*
X156540635Y-111531180D02*
X156055702Y-111531180D01*
X157169315Y-111043134D02*
X157050050Y-111043134D01*
D22*
X154005572Y-110989682D02*
X154490505Y-110989682D01*
X151468899Y-112014010D02*
X152493227Y-110989682D01*
X120396000Y-112776000D02*
X121157990Y-112014010D01*
X121157990Y-112014010D02*
X151468899Y-112014010D01*
X152493227Y-110989682D02*
X154005572Y-110989682D01*
D23*
X156923793Y-110738323D02*
X156516231Y-111145884D01*
X154520509Y-110959678D02*
X154490505Y-110989682D01*
X157604981Y-110176401D02*
X157043059Y-110738323D01*
X157043059Y-110738323D02*
X156923793Y-110738323D01*
X156516231Y-111145884D02*
X156330025Y-110959678D01*
X156330025Y-110959678D02*
X154520509Y-110959678D01*
X158110316Y-110176401D02*
X157604981Y-110176401D01*
D22*
X118719599Y-111912401D02*
X117856000Y-112776000D01*
X152587238Y-110392762D02*
X151321601Y-111658399D01*
X151321601Y-111658399D02*
X118973601Y-111658399D01*
X118973601Y-111658399D02*
X118719599Y-111912401D01*
X156402417Y-110392762D02*
X152587238Y-110392762D01*
D23*
X158110316Y-109776401D02*
X157573914Y-109776401D01*
X157573914Y-109776401D02*
X156957553Y-110392762D01*
X156887350Y-110392762D02*
X156402417Y-110392762D01*
X156957553Y-110392762D02*
X156887350Y-110392762D01*
X126404935Y-110540000D02*
X125920002Y-110540000D01*
X129000000Y-110236000D02*
X128696000Y-110540000D01*
X128696000Y-110540000D02*
X126404935Y-110540000D01*
D25*
X129000000Y-110236000D02*
X150340038Y-110236000D01*
X150340038Y-110236000D02*
X152067238Y-108508800D01*
X152067238Y-108508800D02*
X154838400Y-108508800D01*
D24*
X155871011Y-108931811D02*
X155871011Y-109259596D01*
D23*
X156213910Y-109401630D02*
X155871011Y-109744529D01*
X156239139Y-109376401D02*
X156213910Y-109401630D01*
D24*
X155871011Y-109259596D02*
X155871011Y-109744529D01*
X155448000Y-108508800D02*
X155871011Y-108931811D01*
D23*
X158110316Y-109376401D02*
X156239139Y-109376401D01*
D25*
X120396000Y-110236000D02*
X129000000Y-110236000D01*
D23*
X156663994Y-107808048D02*
X156179061Y-107808048D01*
D24*
X155478309Y-108508800D02*
X155836162Y-108150947D01*
X154838400Y-108508800D02*
X155478309Y-108508800D01*
X155836162Y-108150947D02*
X156179061Y-107808048D01*
D23*
X158110316Y-107424000D02*
X157726268Y-107808048D01*
X157726268Y-107808048D02*
X156663994Y-107808048D01*
X127000000Y-122100000D02*
X127000000Y-123151900D01*
D24*
X156721418Y-109509292D02*
X155993815Y-108781689D01*
X155993815Y-108781689D02*
X155720889Y-108781689D01*
X156306694Y-108781689D02*
X155720889Y-108781689D01*
X155720889Y-108781689D02*
X155448000Y-108508800D01*
D25*
X154838400Y-108508800D02*
X155448000Y-108508800D01*
D24*
X157062650Y-108419301D02*
X156719751Y-108076402D01*
X156719751Y-108076402D02*
X155880398Y-108076402D01*
X155880398Y-108076402D02*
X155448000Y-108508800D01*
X157062650Y-107581100D02*
X156719751Y-107923999D01*
X156719751Y-107923999D02*
X156032801Y-107923999D01*
X156032801Y-107923999D02*
X155448000Y-108508800D01*
D25*
X117856000Y-110236000D02*
X120396000Y-110236000D01*
D23*
X158110316Y-107824000D02*
X157760316Y-107824000D01*
X157760316Y-107824000D02*
X157235359Y-107377873D01*
X157235359Y-107377873D02*
X157062650Y-107581100D01*
X158110316Y-108176401D02*
X157760316Y-108176401D01*
X157760316Y-108176401D02*
X157235359Y-108622527D01*
X157235359Y-108622527D02*
X157062650Y-108419301D01*
X158110316Y-108576401D02*
X157760316Y-108576401D01*
X157760316Y-108576401D02*
X157180872Y-109068832D01*
X157180872Y-109068832D02*
X156892034Y-108964297D01*
X156892034Y-108964297D02*
X156306694Y-108781689D01*
X158110316Y-108976401D02*
X157760316Y-108976401D01*
X157760316Y-108976401D02*
X156894127Y-109712518D01*
X156894127Y-109712518D02*
X156721418Y-109509292D01*
D22*
X155835088Y-106910513D02*
X156320021Y-106910513D01*
X142822903Y-106910513D02*
X146457099Y-106910513D01*
X147236513Y-107116901D02*
X147442901Y-106910513D01*
X146663487Y-107116901D02*
X147236513Y-107116901D01*
X142636514Y-107096902D02*
X142822903Y-106910513D01*
X120396000Y-107696000D02*
X121259599Y-108559599D01*
X142023486Y-107096902D02*
X142636514Y-107096902D01*
X146457099Y-106910513D02*
X146663487Y-107116901D01*
X124123646Y-108559599D02*
X125772732Y-106910513D01*
X121259599Y-108559599D02*
X124123646Y-108559599D01*
X141837097Y-106910513D02*
X142023486Y-107096902D01*
X125772732Y-106910513D02*
X141837097Y-106910513D01*
X147442901Y-106910513D02*
X155835088Y-106910513D01*
D23*
X157154630Y-106910513D02*
X156804954Y-106910513D01*
X158110316Y-107024000D02*
X157268117Y-107024000D01*
X156804954Y-106910513D02*
X156320021Y-106910513D01*
X157268117Y-107024000D02*
X157154630Y-106910513D01*
X122112899Y-106177101D02*
X121770000Y-106520000D01*
X122219600Y-106070400D02*
X122112899Y-106177101D01*
X122900000Y-106070400D02*
X122219600Y-106070400D01*
X121000000Y-122699520D02*
X121989520Y-121710000D01*
X121989520Y-121710000D02*
X122260000Y-121710000D01*
X121000000Y-123250700D02*
X121000000Y-122699520D01*
D22*
X154353467Y-106070400D02*
X154838400Y-106070400D01*
X142636514Y-105883098D02*
X142823816Y-106070400D01*
X147236513Y-105923099D02*
X147383814Y-106070400D01*
X146663487Y-105923099D02*
X147236513Y-105923099D01*
X142823816Y-106070400D02*
X146516186Y-106070400D01*
X147383814Y-106070400D02*
X154353467Y-106070400D01*
X126109936Y-106070400D02*
X141876184Y-106070400D01*
X141876184Y-106070400D02*
X142063486Y-105883098D01*
X124886514Y-107293822D02*
X126109936Y-106070400D01*
X122900000Y-106070400D02*
X124123422Y-107293822D01*
X146516186Y-106070400D02*
X146663487Y-105923099D01*
X124123422Y-107293822D02*
X124886514Y-107293822D01*
X142063486Y-105883098D02*
X142636514Y-105883098D01*
X121135650Y-106070400D02*
X122900000Y-106070400D01*
D23*
X155323333Y-106070400D02*
X154838400Y-106070400D01*
X156836621Y-105918675D02*
X156445551Y-105918675D01*
X156445551Y-105918675D02*
X156293826Y-106070400D01*
X157541946Y-106624000D02*
X156836621Y-105918675D01*
X158110316Y-106624000D02*
X157541946Y-106624000D01*
X156293826Y-106070400D02*
X155323333Y-106070400D01*
D22*
X120932449Y-106273601D02*
X121135650Y-106070400D01*
X117856000Y-107696000D02*
X119278399Y-106273601D01*
X119278399Y-106273601D02*
X120932449Y-106273601D01*
D23*
X136870000Y-102810000D02*
X137472400Y-102810000D01*
X137472400Y-102810000D02*
X138060000Y-102222400D01*
X138060000Y-102222400D02*
X138060000Y-102060000D01*
X137920000Y-101920000D02*
X136850000Y-101920000D01*
X136850000Y-101920000D02*
X121798933Y-101920000D01*
X136870000Y-101940000D02*
X136850000Y-101920000D01*
X138060000Y-102060000D02*
X137920000Y-101920000D01*
X121259599Y-100939599D02*
X120396000Y-100076000D01*
X121798933Y-101920000D02*
X121259599Y-101380666D01*
X121259599Y-101380666D02*
X121259599Y-100939599D01*
X141618944Y-101890000D02*
X140550000Y-101890000D01*
X140550000Y-101890000D02*
X140260000Y-102180000D01*
X153103546Y-103691600D02*
X155371870Y-103691600D01*
X142591560Y-102862616D02*
X152274562Y-102862616D01*
X141618944Y-101890000D02*
X142591560Y-102862616D01*
X152274562Y-102862616D02*
X153103546Y-103691600D01*
X155371870Y-103691600D02*
X155714769Y-103348701D01*
X158110316Y-104624000D02*
X157760316Y-104624000D01*
X157569728Y-104433412D02*
X156799480Y-104433412D01*
X157760316Y-104624000D02*
X157569728Y-104433412D01*
X156799480Y-104433412D02*
X156057668Y-103691600D01*
X156057668Y-103691600D02*
X155714769Y-103348701D01*
X139190000Y-102820000D02*
X139190000Y-102067600D01*
X138710129Y-101587729D02*
X138579792Y-101587729D01*
X139190000Y-102067600D02*
X138710129Y-101587729D01*
X138483102Y-101491039D02*
X138579792Y-101587729D01*
X141744148Y-101587729D02*
X142714224Y-102557805D01*
X142714224Y-102557805D02*
X154499687Y-102557805D01*
X154586140Y-102644258D02*
X154929039Y-102987157D01*
X154499687Y-102557805D02*
X154586140Y-102644258D01*
X138579792Y-101587729D02*
X141744148Y-101587729D01*
X137786898Y-101491039D02*
X138483102Y-101491039D01*
X137690208Y-101587729D02*
X137786898Y-101491039D01*
X123524187Y-101587729D02*
X137690208Y-101587729D01*
X120726458Y-98790000D02*
X123524187Y-101587729D01*
X119142000Y-98790000D02*
X120726458Y-98790000D01*
X117856000Y-100076000D02*
X119142000Y-98790000D01*
X155117100Y-102799096D02*
X154929039Y-102987157D01*
X155558025Y-102799096D02*
X155117100Y-102799096D01*
X155627701Y-102729420D02*
X155558025Y-102799096D01*
X156177938Y-102729420D02*
X155627701Y-102729420D01*
X158110316Y-104224000D02*
X158014917Y-104128601D01*
X158014917Y-104128601D02*
X157577119Y-104128601D01*
X157577119Y-104128601D02*
X156177938Y-102729420D01*
D22*
X137554483Y-101260058D02*
X124120058Y-101260058D01*
X121259599Y-98399599D02*
X120396000Y-97536000D01*
X138715517Y-101260058D02*
X138618827Y-101163368D01*
X141879873Y-101260058D02*
X138715517Y-101260058D01*
X124120058Y-101260058D02*
X121259599Y-98399599D01*
X155283703Y-102227594D02*
X142847409Y-102227594D01*
X142847409Y-102227594D02*
X141879873Y-101260058D01*
X137651173Y-101163368D02*
X137554483Y-101260058D01*
X138618827Y-101163368D02*
X137651173Y-101163368D01*
D23*
X156317846Y-102227594D02*
X155768636Y-102227594D01*
X158110316Y-103424000D02*
X157514252Y-103424000D01*
X155768636Y-102227594D02*
X155283703Y-102227594D01*
X157514252Y-103424000D02*
X156317846Y-102227594D01*
D22*
X138765073Y-100810297D02*
X138861763Y-100906987D01*
X153841217Y-101630674D02*
X154326150Y-101630674D01*
X117856000Y-97536000D02*
X118973601Y-96418399D01*
X153814934Y-101604391D02*
X153841217Y-101630674D01*
X151992701Y-101604391D02*
X153814934Y-101604391D01*
X151966418Y-101630674D02*
X151992701Y-101604391D01*
X142026119Y-100906987D02*
X142749806Y-101630674D01*
X137504927Y-100810297D02*
X138765073Y-100810297D01*
X137408237Y-100906987D02*
X137504927Y-100810297D01*
X125786987Y-100906987D02*
X137408237Y-100906987D01*
X118973601Y-96418399D02*
X121298399Y-96418399D01*
X138861763Y-100906987D02*
X142026119Y-100906987D01*
X142749806Y-101630674D02*
X151966418Y-101630674D01*
X121298399Y-96418399D02*
X125786987Y-100906987D01*
D23*
X154856199Y-101585558D02*
X154811083Y-101630674D01*
X156491256Y-101945523D02*
X156067687Y-101585558D01*
X156067687Y-101585558D02*
X154856199Y-101585558D01*
X158110316Y-103024000D02*
X157569733Y-103024000D01*
X157569733Y-103024000D02*
X156491256Y-101945523D01*
X154811083Y-101630674D02*
X154326150Y-101630674D01*
D22*
X154035016Y-101059505D02*
X154214402Y-100880119D01*
X137358681Y-100457226D02*
X138911319Y-100457226D01*
X138911319Y-100457226D02*
X139008009Y-100553916D01*
X154214402Y-100880119D02*
X154699335Y-100880119D01*
X142172365Y-100553916D02*
X142677954Y-101059505D01*
X125953916Y-100553916D02*
X137261991Y-100553916D01*
X120396000Y-94996000D02*
X125953916Y-100553916D01*
X139008009Y-100553916D02*
X142172365Y-100553916D01*
X137261991Y-100553916D02*
X137358681Y-100457226D01*
X142677954Y-101059505D02*
X154035016Y-101059505D01*
D23*
X155099963Y-101280747D02*
X155042234Y-101223018D01*
X156179711Y-101280747D02*
X155099963Y-101280747D01*
X155042234Y-101223018D02*
X154699335Y-100880119D01*
X157600800Y-102624000D02*
X156698054Y-101721254D01*
X158110316Y-102624000D02*
X157600800Y-102624000D01*
X156698054Y-101721254D02*
X156179711Y-101280747D01*
D22*
X153076185Y-100604391D02*
X153217991Y-100462585D01*
X142722157Y-100604391D02*
X153076185Y-100604391D01*
X142318611Y-100200845D02*
X142722157Y-100604391D01*
X139154255Y-100200845D02*
X142318611Y-100200845D01*
X132520845Y-100200845D02*
X137115745Y-100200845D01*
X117856000Y-94996000D02*
X118973601Y-93878399D01*
X137115745Y-100200845D02*
X137212435Y-100104155D01*
X126198399Y-93878399D02*
X132520845Y-100200845D01*
X137212435Y-100104155D02*
X139057565Y-100104155D01*
X118973601Y-93878399D02*
X126198399Y-93878399D01*
X139057565Y-100104155D02*
X139154255Y-100200845D01*
D23*
X157631866Y-102224000D02*
X156383802Y-100975936D01*
X154183722Y-100549908D02*
X154077715Y-100549908D01*
X154973658Y-100308617D02*
X154425013Y-100308617D01*
X158110316Y-102224000D02*
X157631866Y-102224000D01*
X153351621Y-100596215D02*
X153217991Y-100462585D01*
X156383802Y-100975936D02*
X155640977Y-100975936D01*
X155640977Y-100975936D02*
X154973658Y-100308617D01*
X154425013Y-100308617D02*
X154183722Y-100549908D01*
X154031408Y-100596215D02*
X153351621Y-100596215D01*
X154077715Y-100549908D02*
X154031408Y-100596215D01*
D22*
X158255617Y-116945501D02*
X158255617Y-124446383D01*
X158255617Y-124446383D02*
X158038800Y-124663200D01*
X158038800Y-124663200D02*
X156972000Y-124663200D01*
D23*
X158255617Y-115800200D02*
X158255617Y-116945501D01*
D22*
X157265015Y-116147324D02*
X157265015Y-116427222D01*
X157265015Y-116427222D02*
X157385725Y-116547932D01*
X157385725Y-116547932D02*
X157385725Y-121709475D01*
X157385725Y-121709475D02*
X154432000Y-124663200D01*
D23*
X158110316Y-115376401D02*
X157760316Y-115376401D01*
X157760316Y-115376401D02*
X157092307Y-115944098D01*
X157092307Y-115944098D02*
X157265015Y-116147324D01*
D22*
X156788823Y-116834445D02*
X156788823Y-119766377D01*
X156788823Y-119766377D02*
X153111200Y-123444000D01*
X153111200Y-123444000D02*
X152958800Y-123444000D01*
X152958800Y-123444000D02*
X151892000Y-124510800D01*
X151892000Y-124510800D02*
X151892000Y-124663200D01*
D23*
X158110316Y-114976401D02*
X157760316Y-114976401D01*
X157760316Y-114976401D02*
X156643057Y-115925886D01*
X156643057Y-115925886D02*
X156699637Y-116227803D01*
X156699637Y-116227803D02*
X156788823Y-116834445D01*
D22*
X149352000Y-124510800D02*
X149352000Y-124663200D01*
X156286902Y-117173487D02*
X156286902Y-117728298D01*
X150571200Y-123444000D02*
X150418800Y-123444000D01*
X156134258Y-117020843D02*
X156286902Y-117173487D01*
X156286902Y-117728298D02*
X150571200Y-123444000D01*
X150418800Y-123444000D02*
X149352000Y-124510800D01*
X156134258Y-116308281D02*
X156134258Y-117020843D01*
D23*
X158110316Y-114576401D02*
X157760316Y-114576401D01*
X157760316Y-114576401D02*
X155961549Y-116105055D01*
X155961549Y-116105055D02*
X156134258Y-116308281D01*
X158110316Y-114176401D02*
X157760316Y-114176401D01*
X157760316Y-114176401D02*
X155512300Y-116086842D01*
X155512300Y-116086842D02*
X155560000Y-116134542D01*
X155560000Y-116134542D02*
X155560000Y-117330000D01*
X155560000Y-117330000D02*
X155690000Y-117460000D01*
D22*
X153862800Y-117460000D02*
X155205067Y-117460000D01*
X146812000Y-124510800D02*
X153862800Y-117460000D01*
X155205067Y-117460000D02*
X155690000Y-117460000D01*
X146812000Y-124663200D02*
X146812000Y-124510800D01*
X154460000Y-116690000D02*
X152660000Y-116690000D01*
X152660000Y-116690000D02*
X152560000Y-116790000D01*
X152560000Y-116790000D02*
X151992800Y-116790000D01*
X151992800Y-116790000D02*
X144272000Y-124510800D01*
X144272000Y-124510800D02*
X144272000Y-124663200D01*
D23*
X154802899Y-116347101D02*
X154460000Y-116690000D01*
X155110000Y-116028731D02*
X154802899Y-116335832D01*
X154802899Y-116335832D02*
X154802899Y-116347101D01*
X157760316Y-113776401D02*
X155110000Y-116028731D01*
X158110316Y-113776401D02*
X157760316Y-113776401D01*
X157760316Y-113376401D02*
X155133481Y-115608776D01*
X154245468Y-115922029D02*
X153760535Y-115922029D01*
X158110316Y-113376401D02*
X157760316Y-113376401D01*
D22*
X153275602Y-115922029D02*
X153760535Y-115922029D01*
X150320771Y-115922029D02*
X153275602Y-115922029D01*
X141732000Y-124663200D02*
X141732000Y-124510800D01*
D23*
X154558721Y-115608776D02*
X154245468Y-115922029D01*
X155133481Y-115608776D02*
X154558721Y-115608776D01*
D22*
X141732000Y-124510800D02*
X150320771Y-115922029D01*
X154253695Y-115187706D02*
X154505606Y-114935795D01*
X153414542Y-115435611D02*
X153662447Y-115187706D01*
X153662447Y-115187706D02*
X154253695Y-115187706D01*
X141218261Y-123444000D02*
X149226650Y-115435611D01*
X140258800Y-123444000D02*
X141218261Y-123444000D01*
X154505606Y-114935795D02*
X154990539Y-114935795D01*
X139192000Y-124510800D02*
X140258800Y-123444000D01*
X149226650Y-115435611D02*
X153414542Y-115435611D01*
X139192000Y-124663200D02*
X139192000Y-124510800D01*
D23*
X158110316Y-112976401D02*
X158024341Y-113062376D01*
X157659136Y-113062376D02*
X155454684Y-114935795D01*
X155454684Y-114935795D02*
X154990539Y-114935795D01*
X158024341Y-113062376D02*
X157659136Y-113062376D01*
D22*
X168402000Y-95555162D02*
X168402000Y-94792800D01*
X163577009Y-98703391D02*
X165253771Y-98703391D01*
X162883136Y-99397264D02*
X163577009Y-98703391D01*
X165253771Y-98703391D02*
X168402000Y-95555162D01*
X168402000Y-94792800D02*
X168402000Y-93726000D01*
X161922704Y-99740163D02*
X162265603Y-99397264D01*
X162265603Y-99397264D02*
X162883136Y-99397264D01*
D23*
X161540298Y-100624000D02*
X161922704Y-100241594D01*
X161922704Y-100241594D02*
X161922704Y-100225096D01*
X161190316Y-100624000D02*
X161540298Y-100624000D01*
X161922704Y-100225096D02*
X161922704Y-99740163D01*
X161045015Y-100200200D02*
X161045015Y-99054899D01*
X164270335Y-99718443D02*
X164613234Y-99375544D01*
X164251954Y-99718443D02*
X164270335Y-99718443D01*
X161602431Y-101424000D02*
X162867428Y-100159003D01*
X161190316Y-101424000D02*
X161602431Y-101424000D01*
X163811394Y-100159003D02*
X164251954Y-99718443D01*
X162867428Y-100159003D02*
X163811394Y-100159003D01*
X162790919Y-99804445D02*
X163320128Y-99804445D01*
X163320128Y-99804445D02*
X163537072Y-99587501D01*
X161571364Y-101024000D02*
X162790919Y-99804445D01*
X161190316Y-101024000D02*
X161571364Y-101024000D01*
X164495702Y-100336829D02*
X165846983Y-100336829D01*
X163119943Y-100768625D02*
X164063906Y-100768625D01*
X161854946Y-102033622D02*
X163119943Y-100768625D01*
X161730694Y-102033622D02*
X161854946Y-102033622D01*
X161540316Y-102224000D02*
X161730694Y-102033622D01*
X161190316Y-102224000D02*
X161540316Y-102224000D01*
X165846983Y-100336829D02*
X166149021Y-100034791D01*
X164063906Y-100768625D02*
X164495702Y-100336829D01*
X164383096Y-100018368D02*
X165102262Y-100018368D01*
X161190316Y-101824000D02*
X161285505Y-101728811D01*
X162993685Y-100463814D02*
X163937650Y-100463814D01*
D22*
X172364399Y-93957651D02*
X167147749Y-99174301D01*
D23*
X163937650Y-100463814D02*
X164383096Y-100018368D01*
X161728688Y-101728811D02*
X162993685Y-100463814D01*
X161285505Y-101728811D02*
X161728688Y-101728811D01*
D22*
X165698203Y-99422427D02*
X165355304Y-99765326D01*
X165946329Y-99174301D02*
X165698203Y-99422427D01*
X167147749Y-99174301D02*
X165946329Y-99174301D01*
X172364399Y-92303601D02*
X172364399Y-93957651D01*
X173482000Y-91186000D02*
X172364399Y-92303601D01*
D23*
X165102262Y-100018368D02*
X165355304Y-99765326D01*
X161602450Y-103024000D02*
X161983206Y-102643244D01*
X161190316Y-103024000D02*
X161602450Y-103024000D01*
X162107458Y-102643244D02*
X163372455Y-101378247D01*
X164693602Y-101378247D02*
X164717783Y-101354066D01*
X161983206Y-102643244D02*
X162107458Y-102643244D01*
X163372455Y-101378247D02*
X164693602Y-101378247D01*
D22*
X172029199Y-95300801D02*
X167612899Y-99717101D01*
X186944000Y-94183200D02*
X185826399Y-95300801D01*
D23*
X166927101Y-100402899D02*
X167270000Y-100060000D01*
X164621958Y-100641640D02*
X166688360Y-100641640D01*
X164190162Y-101073436D02*
X164621958Y-100641640D01*
X161981202Y-102338433D02*
X163246199Y-101073436D01*
X161856950Y-102338433D02*
X161981202Y-102338433D01*
X161571383Y-102624000D02*
X161856950Y-102338433D01*
X166688360Y-100641640D02*
X166927101Y-100402899D01*
X161190316Y-102624000D02*
X161571383Y-102624000D01*
X163246199Y-101073436D02*
X164190162Y-101073436D01*
D22*
X167612899Y-99717101D02*
X167270000Y-100060000D01*
X185826399Y-95300801D02*
X172029199Y-95300801D01*
D23*
X161540314Y-103824000D02*
X161721480Y-103642836D01*
X161845748Y-103642836D02*
X162235718Y-103252866D01*
X161190316Y-103824000D02*
X161540314Y-103824000D01*
X162235718Y-103252866D02*
X162359968Y-103252866D01*
X163351656Y-102261178D02*
X163462870Y-102261178D01*
X161721480Y-103642836D02*
X161845748Y-103642836D01*
X163462870Y-102261178D02*
X163947803Y-102261178D01*
X162359968Y-103252866D02*
X163351656Y-102261178D01*
D22*
X167645263Y-101063676D02*
X167270916Y-101063676D01*
D23*
X164443461Y-101925569D02*
X166409023Y-101925569D01*
X164200950Y-101683058D02*
X164443461Y-101925569D01*
X163498711Y-101683058D02*
X164200950Y-101683058D01*
X162109462Y-102948055D02*
X162233714Y-102948055D01*
X166585118Y-101749474D02*
X166928017Y-101406575D01*
X161719492Y-103338025D02*
X162109462Y-102948055D01*
X161276291Y-103338025D02*
X161719492Y-103338025D01*
D22*
X185826399Y-97840801D02*
X170868138Y-97840801D01*
X186944000Y-96723200D02*
X185826399Y-97840801D01*
X167270916Y-101063676D02*
X166928017Y-101406575D01*
D23*
X162233714Y-102948055D02*
X163498711Y-101683058D01*
D22*
X170868138Y-97840801D02*
X167645263Y-101063676D01*
D23*
X166409023Y-101925569D02*
X166585118Y-101749474D01*
X161190316Y-103424000D02*
X161276291Y-103338025D01*
X162098260Y-104252458D02*
X162488230Y-103862488D01*
X161602450Y-104624000D02*
X161973992Y-104252458D01*
X162612480Y-103862488D02*
X163076084Y-103398884D01*
X163076084Y-103398884D02*
X163110777Y-103398884D01*
X163110777Y-103398884D02*
X163595710Y-103398884D01*
X161190316Y-104624000D02*
X161602450Y-104624000D01*
X162488230Y-103862488D02*
X162612480Y-103862488D01*
X161973992Y-104252458D02*
X162098260Y-104252458D01*
X165950929Y-102786775D02*
X166435862Y-102786775D01*
X161847736Y-103947647D02*
X161972004Y-103947647D01*
X161190316Y-104224000D02*
X161571383Y-104224000D01*
X161571383Y-104224000D02*
X161847736Y-103947647D01*
X163266444Y-102777457D02*
X163618259Y-102777457D01*
X163618259Y-102777457D02*
X163673482Y-102832680D01*
X163673482Y-102832680D02*
X165905024Y-102832680D01*
X165905024Y-102832680D02*
X165950929Y-102786775D01*
X161972004Y-103947647D02*
X162361974Y-103557677D01*
X162486224Y-103557677D02*
X163266444Y-102777457D01*
X162361974Y-103557677D02*
X162486224Y-103557677D01*
D22*
X166778761Y-102443876D02*
X166435862Y-102786775D01*
X168841836Y-100380801D02*
X166778761Y-102443876D01*
X186944000Y-99263200D02*
X185826399Y-100380801D01*
X185826399Y-100380801D02*
X168841836Y-100380801D01*
D23*
X162226504Y-104862080D02*
X162350772Y-104862080D01*
X162742936Y-104534203D02*
X163227869Y-104534203D01*
X162350772Y-104862080D02*
X162678649Y-104534203D01*
X161190316Y-105424000D02*
X161664583Y-105424000D01*
X161664583Y-105424000D02*
X162226504Y-104862080D01*
X162678649Y-104534203D02*
X162742936Y-104534203D01*
X163211581Y-103860578D02*
X163321389Y-103970386D01*
X162224516Y-104557269D02*
X162614486Y-104167299D01*
X162100248Y-104557269D02*
X162224516Y-104557269D01*
X162738735Y-104167299D02*
X163045456Y-103860578D01*
X162614486Y-104167299D02*
X162738735Y-104167299D01*
X161633515Y-105024000D02*
X162100248Y-104557269D01*
X161190316Y-105024000D02*
X161633515Y-105024000D01*
X163045456Y-103860578D02*
X163211581Y-103860578D01*
X163321389Y-103970386D02*
X165464356Y-103970386D01*
X165464356Y-103970386D02*
X165482531Y-103952211D01*
X165482531Y-103952211D02*
X165967464Y-103952211D01*
D22*
X186944000Y-101803200D02*
X185521601Y-103225599D01*
X185521601Y-103225599D02*
X167179009Y-103225599D01*
X167179009Y-103225599D02*
X166452397Y-103952211D01*
X166452397Y-103952211D02*
X165967464Y-103952211D01*
D23*
X162404148Y-105673578D02*
X162889081Y-105673578D01*
X161726717Y-106224000D02*
X162277139Y-105673578D01*
X162277139Y-105673578D02*
X162404148Y-105673578D01*
X161190316Y-106224000D02*
X161726717Y-106224000D01*
X165487076Y-105105705D02*
X165504369Y-105122998D01*
X162745882Y-104898039D02*
X162953548Y-105105705D01*
X162953548Y-105105705D02*
X165487076Y-105105705D01*
X162352760Y-105166891D02*
X162477028Y-105166891D01*
X161695650Y-105824000D02*
X162352760Y-105166891D01*
X162477028Y-105166891D02*
X162745882Y-104898039D01*
X161190316Y-105824000D02*
X161695650Y-105824000D01*
D22*
X165847268Y-105465897D02*
X165504369Y-105122998D01*
X186944000Y-104343200D02*
X185821303Y-105465897D01*
X185821303Y-105465897D02*
X165847268Y-105465897D01*
X184404000Y-111963200D02*
X183219393Y-110778593D01*
D23*
X162801671Y-111101653D02*
X162962899Y-110940427D01*
X161190316Y-110176401D02*
X161695655Y-110176401D01*
X162962899Y-110940427D02*
X165133096Y-110940427D01*
D22*
X183219393Y-110778593D02*
X165779863Y-110778593D01*
D23*
X162542551Y-110842533D02*
X162801671Y-111101653D01*
X165133096Y-110940427D02*
X165294930Y-110778593D01*
D22*
X165779863Y-110778593D02*
X165294930Y-110778593D01*
D23*
X161695655Y-110176401D02*
X162361787Y-110842533D01*
X162361787Y-110842533D02*
X162542551Y-110842533D01*
X162333390Y-110372718D02*
X162412074Y-110372718D01*
X162412074Y-110372718D02*
X162897007Y-110372718D01*
X161737073Y-109776401D02*
X162333390Y-110372718D01*
X161190316Y-109776401D02*
X161737073Y-109776401D01*
X162671126Y-111833243D02*
X162676949Y-111833243D01*
X162676949Y-111833243D02*
X162853527Y-112010009D01*
X162853527Y-112010009D02*
X162933740Y-112090222D01*
X161633517Y-110976401D02*
X162109271Y-111452155D01*
X165068634Y-111972414D02*
X165553567Y-111972414D01*
X163341510Y-112076848D02*
X164964200Y-112076848D01*
X162109271Y-111452155D02*
X162290038Y-111452155D01*
D22*
X184404000Y-114503200D02*
X181873214Y-111972414D01*
X181873214Y-111972414D02*
X166038500Y-111972414D01*
X166038500Y-111972414D02*
X165553567Y-111972414D01*
D23*
X163328136Y-112090222D02*
X163341510Y-112076848D01*
X162290038Y-111452155D02*
X162671126Y-111833243D01*
X161190316Y-110976401D02*
X161633517Y-110976401D01*
X162933740Y-112090222D02*
X163328136Y-112090222D01*
X164964200Y-112076848D02*
X165068634Y-111972414D01*
X161190316Y-110576401D02*
X161664583Y-110576401D01*
X162235526Y-111147344D02*
X162416295Y-111147344D01*
X162416295Y-111147344D02*
X162783935Y-111514984D01*
X161664583Y-110576401D02*
X162235526Y-111147344D01*
X162783935Y-111514984D02*
X163236900Y-111514984D01*
X165278508Y-113233200D02*
X165345473Y-113166235D01*
D22*
X184404000Y-117043200D02*
X180527035Y-113166235D01*
D23*
X165345473Y-113166235D02*
X165830406Y-113166235D01*
X163319985Y-113137335D02*
X163415850Y-113233200D01*
X162424112Y-112442728D02*
X162987719Y-113006338D01*
X163141859Y-113137335D02*
X163319985Y-113137335D01*
X161856759Y-112061777D02*
X162037527Y-112061777D01*
X161571383Y-111776401D02*
X161856759Y-112061777D01*
X161190316Y-111776401D02*
X161571383Y-111776401D01*
X163415850Y-113233200D02*
X165278508Y-113233200D01*
X162037527Y-112061777D02*
X162418475Y-112442725D01*
X162418475Y-112442725D02*
X162424112Y-112442728D01*
X162987719Y-113006338D02*
X163141859Y-113137335D01*
D22*
X180527035Y-113166235D02*
X166315339Y-113166235D01*
X166315339Y-113166235D02*
X165830406Y-113166235D01*
D23*
X162544729Y-112137913D02*
X162550364Y-112137913D01*
X163150262Y-112660600D02*
X163635195Y-112660600D01*
X163073051Y-112660600D02*
X163150262Y-112660600D01*
X162163782Y-111756966D02*
X162544729Y-112137913D01*
X161983015Y-111756966D02*
X162163782Y-111756966D01*
X161602450Y-111376401D02*
X161983015Y-111756966D01*
X161190316Y-111376401D02*
X161602450Y-111376401D01*
X162550364Y-112137913D02*
X163073051Y-112660600D01*
D22*
X166943859Y-114417146D02*
X166458926Y-114417146D01*
X164885601Y-114417146D02*
X165973993Y-114417146D01*
X164700097Y-114231642D02*
X164885601Y-114417146D01*
X184404000Y-119583200D02*
X179237946Y-114417146D01*
X165973993Y-114417146D02*
X166458926Y-114417146D01*
X179237946Y-114417146D02*
X166943859Y-114417146D01*
D23*
X161285314Y-112671399D02*
X161785014Y-112671399D01*
X164013697Y-114389939D02*
X164541800Y-114389939D01*
X163067474Y-113746957D02*
X163716222Y-114395705D01*
X161785014Y-112671399D02*
X162165961Y-113052346D01*
X163716222Y-114395705D02*
X164007931Y-114395705D01*
X162165961Y-113052346D02*
X162171596Y-113052346D01*
X162574120Y-113454873D02*
X162917809Y-113746957D01*
X164541800Y-114389939D02*
X164700097Y-114231642D01*
X164007931Y-114395705D02*
X164013697Y-114389939D01*
X162917809Y-113746957D02*
X163067474Y-113746957D01*
X161190316Y-112576401D02*
X161285314Y-112671399D01*
X162171596Y-113052346D02*
X162574120Y-113454873D01*
X163029834Y-113442146D02*
X163193731Y-113442146D01*
X163571811Y-113820226D02*
X163948994Y-113820226D01*
X163193731Y-113442146D02*
X163571811Y-113820226D01*
X162297854Y-112747537D02*
X162780919Y-113230605D01*
X162292217Y-112747535D02*
X162297854Y-112747537D01*
X161911270Y-112366588D02*
X162292217Y-112747535D01*
X161540316Y-112176401D02*
X161730503Y-112366588D01*
X161190316Y-112176401D02*
X161540316Y-112176401D01*
X162780919Y-113230605D02*
X163029834Y-113442146D01*
X161730503Y-112366588D02*
X161911270Y-112366588D01*
X162314675Y-114034418D02*
X162693761Y-114356579D01*
X163773016Y-115273797D02*
X164012382Y-115477222D01*
X164141130Y-115577507D02*
X165315342Y-115577507D01*
X162814961Y-114356579D02*
X163501071Y-115042689D01*
X164040845Y-115477222D02*
X164141130Y-115577507D01*
X164012382Y-115477222D02*
X164040845Y-115477222D01*
X163773011Y-115273798D02*
X163773016Y-115273797D01*
X162693761Y-114356579D02*
X162814961Y-114356579D01*
X162160528Y-113903414D02*
X162314675Y-114034418D01*
X161919085Y-113661971D02*
X162160528Y-113903414D01*
X161876428Y-113661971D02*
X161919085Y-113661971D01*
X161590858Y-113376401D02*
X161876428Y-113661971D01*
X161190316Y-113376401D02*
X161590858Y-113376401D01*
X165315342Y-115577507D02*
X165800275Y-115577507D01*
X163501071Y-115042689D02*
X163773011Y-115273798D01*
D22*
X177858307Y-115577507D02*
X166285208Y-115577507D01*
X184404000Y-122123200D02*
X177858307Y-115577507D01*
X166285208Y-115577507D02*
X165800275Y-115577507D01*
X164772952Y-114961441D02*
X164288019Y-114961441D01*
X166119807Y-114961441D02*
X164772952Y-114961441D01*
X166172413Y-115014047D02*
X166119807Y-114961441D01*
X166745439Y-115014047D02*
X166172413Y-115014047D01*
X166798045Y-114961441D02*
X166745439Y-115014047D01*
X184172349Y-121005599D02*
X178128191Y-114961441D01*
X185826399Y-121005599D02*
X184172349Y-121005599D01*
X178128191Y-114961441D02*
X166798045Y-114961441D01*
X186944000Y-122123200D02*
X185826399Y-121005599D01*
D23*
X163874194Y-114959773D02*
X164286351Y-114959773D01*
X161190316Y-112976401D02*
X161658950Y-112976401D01*
X164286351Y-114959773D02*
X164288019Y-114961441D01*
X163707884Y-114818433D02*
X163874194Y-114959773D01*
X162805785Y-114051768D02*
X162941219Y-114051768D01*
X162534952Y-113821604D02*
X162805785Y-114051768D01*
X162367318Y-113679138D02*
X162534952Y-113821604D01*
X162039706Y-113357157D02*
X162045340Y-113357157D01*
X162941219Y-114051768D02*
X163707884Y-114818433D01*
X162045340Y-113357157D02*
X162367318Y-113679138D01*
X161658950Y-112976401D02*
X162039706Y-113357157D01*
X161652324Y-114271590D02*
X161666572Y-114271590D01*
X161540316Y-114176401D02*
X161652324Y-114271590D01*
X162562451Y-114966201D02*
X163087499Y-115491249D01*
X163788332Y-116086842D02*
X163996455Y-116294965D01*
X163087499Y-115491249D02*
X163788332Y-116086842D01*
X161843858Y-114434324D02*
X162469717Y-114966201D01*
X161829306Y-114434324D02*
X161843858Y-114434324D01*
X161666572Y-114271590D02*
X161829306Y-114434324D01*
X163996455Y-116294965D02*
X163996455Y-116715567D01*
X161190316Y-114176401D02*
X161540316Y-114176401D01*
X162469717Y-114966201D02*
X162562451Y-114966201D01*
D22*
X173736000Y-122224800D02*
X173736000Y-121158000D01*
X169534876Y-116956876D02*
X164722697Y-116956876D01*
X173736000Y-121158000D02*
X169534876Y-116956876D01*
X164481388Y-116715567D02*
X163996455Y-116715567D01*
X164722697Y-116956876D02*
X164481388Y-116715567D01*
D23*
X161792828Y-113966780D02*
X161953748Y-114127700D01*
X162581739Y-114661390D02*
X162688708Y-114661392D01*
X163460607Y-115408318D02*
X164081926Y-115936337D01*
X162040532Y-114201453D02*
X162581739Y-114661390D01*
X161190316Y-113776401D02*
X161276292Y-113862377D01*
X161276292Y-113862377D02*
X161641498Y-113862377D01*
X161641498Y-113862377D02*
X161764346Y-113966779D01*
X161764346Y-113966779D02*
X161792828Y-113966780D01*
X162688708Y-114661392D02*
X163294285Y-115266969D01*
X163294285Y-115266969D02*
X163460607Y-115408318D01*
X164081926Y-115936337D02*
X164398051Y-116252462D01*
X161953748Y-114127700D02*
X162040532Y-114201453D01*
X164398051Y-116252462D02*
X164453897Y-116252462D01*
D22*
X164561391Y-116359956D02*
X165014719Y-116359956D01*
X173736000Y-124764800D02*
X174853601Y-123647199D01*
X164453897Y-116252462D02*
X164561391Y-116359956D01*
X165984585Y-116359956D02*
X165499652Y-116359956D01*
X170055558Y-116359956D02*
X165984585Y-116359956D01*
X174853601Y-121157999D02*
X170055558Y-116359956D01*
X174853601Y-123647199D02*
X174853601Y-121157999D01*
X165014719Y-116359956D02*
X165499652Y-116359956D01*
X162796702Y-117211131D02*
X162453803Y-116868232D01*
X166639298Y-117668098D02*
X163253669Y-117668098D01*
D23*
X162245669Y-115575823D02*
X162309939Y-115575823D01*
X162606603Y-116715432D02*
X162453803Y-116868232D01*
X162309939Y-115575823D02*
X162606603Y-115872487D01*
X161641496Y-115062376D02*
X162245669Y-115575823D01*
X161190316Y-114976401D02*
X161276291Y-115062376D01*
X161276291Y-115062376D02*
X161641496Y-115062376D01*
X162606603Y-115872487D02*
X162606603Y-116715432D01*
D22*
X163253669Y-117668098D02*
X162796702Y-117211131D01*
X171196000Y-122224800D02*
X166639298Y-117668098D01*
X163559310Y-117312487D02*
X163178105Y-116931282D01*
X168823687Y-117312487D02*
X163559310Y-117312487D01*
D23*
X163178105Y-116012922D02*
X163178105Y-116446349D01*
D22*
X172313601Y-123647199D02*
X172313601Y-120802401D01*
D23*
X161712265Y-114748350D02*
X161742677Y-114748350D01*
X161742677Y-114748350D02*
X162357693Y-115271012D01*
X161190316Y-114576401D02*
X161540316Y-114576401D01*
X161540316Y-114576401D02*
X161712265Y-114748350D01*
D22*
X171196000Y-124764800D02*
X172313601Y-123647199D01*
D23*
X162436195Y-115271012D02*
X163178105Y-116012922D01*
X162357693Y-115271012D02*
X162436195Y-115271012D01*
D22*
X163178105Y-116931282D02*
X163178105Y-116446349D01*
X172313601Y-120802401D02*
X168823687Y-117312487D01*
X161045015Y-117430434D02*
X165839381Y-122224800D01*
X161045015Y-116945501D02*
X161045015Y-117430434D01*
X165839381Y-122224800D02*
X167434686Y-122224800D01*
X167434686Y-122224800D02*
X168656000Y-122224800D01*
D23*
X161045015Y-115800200D02*
X161045015Y-116945501D01*
X162033213Y-115869298D02*
X162033213Y-116143179D01*
X161540316Y-115376401D02*
X162033213Y-115869298D01*
D22*
X161690314Y-117572825D02*
X161690314Y-116486078D01*
X169773601Y-121615201D02*
X166182109Y-118023709D01*
X162141198Y-118023709D02*
X161690314Y-117572825D01*
X169773601Y-123647199D02*
X169773601Y-121615201D01*
D23*
X161190316Y-115376401D02*
X161540316Y-115376401D01*
D22*
X166182109Y-118023709D02*
X162141198Y-118023709D01*
X168656000Y-124764800D02*
X169773601Y-123647199D01*
X161690314Y-116486078D02*
X162033213Y-116143179D01*
X154403288Y-96981718D02*
X153631570Y-96210000D01*
X153631570Y-96210000D02*
X152040000Y-96210000D01*
X158255617Y-99054899D02*
X157244899Y-99054899D01*
X157244899Y-99054899D02*
X155800211Y-97610211D01*
X155800211Y-97610211D02*
X154853223Y-97610211D01*
X154403288Y-97160276D02*
X154403288Y-96981718D01*
X154853223Y-97610211D02*
X154403288Y-97160276D01*
X148844000Y-91440000D02*
X148844000Y-91592400D01*
X148844000Y-91592400D02*
X148510000Y-91926400D01*
X148510000Y-91926400D02*
X148510000Y-94670000D01*
X148510000Y-94670000D02*
X151147574Y-97307574D01*
X154047677Y-97307574D02*
X154705925Y-97965822D01*
X151147574Y-97307574D02*
X154047677Y-97307574D01*
X154705925Y-97965822D02*
X155233769Y-97965822D01*
X155233769Y-97965822D02*
X156310994Y-99043047D01*
X156310994Y-99043047D02*
X156653893Y-99385946D01*
D23*
X158110000Y-100200000D02*
X157467947Y-100200000D01*
X157467947Y-100200000D02*
X156996792Y-99728845D01*
X156996792Y-99728845D02*
X156653893Y-99385946D01*
D22*
X151212747Y-98202747D02*
X147421610Y-94411610D01*
X147421610Y-94411610D02*
X147421610Y-92710010D01*
X154458765Y-98455420D02*
X154355686Y-98455420D01*
X154355686Y-98455420D02*
X154103013Y-98202747D01*
X154103013Y-98202747D02*
X151212747Y-98202747D01*
X154458765Y-98455420D02*
X154801664Y-98798319D01*
X146304000Y-91592400D02*
X147421610Y-92710010D01*
D23*
X156695377Y-99961503D02*
X155964848Y-99961503D01*
D22*
X146304000Y-91440000D02*
X146304000Y-91592400D01*
D23*
X158110000Y-100600000D02*
X157333874Y-100600000D01*
X157333874Y-100600000D02*
X156695377Y-99961503D01*
X155144563Y-99141218D02*
X154801664Y-98798319D01*
X155964848Y-99961503D02*
X155144563Y-99141218D01*
D22*
X143764000Y-91440000D02*
X143764000Y-91592400D01*
D23*
X155793489Y-100266314D02*
X155226170Y-99698995D01*
X154719605Y-99698995D02*
X154160617Y-99140007D01*
D22*
X143764000Y-91592400D02*
X150843461Y-98671861D01*
X153692471Y-98671861D02*
X153817718Y-98797108D01*
D23*
X155226170Y-99698995D02*
X154719605Y-99698995D01*
X158110000Y-101000000D02*
X157270000Y-101000000D01*
X156536314Y-100266314D02*
X155793489Y-100266314D01*
D22*
X150843461Y-98671861D02*
X153692471Y-98671861D01*
D23*
X157270000Y-101000000D02*
X156536314Y-100266314D01*
X154160617Y-99140007D02*
X153817718Y-98797108D01*
D22*
X149184826Y-99553226D02*
X145541600Y-95910000D01*
X145541600Y-95910000D02*
X141200000Y-95910000D01*
X152639864Y-99268763D02*
X153124797Y-99268763D01*
X149184826Y-99553226D02*
X152355401Y-99553226D01*
X152355401Y-99553226D02*
X152639864Y-99268763D01*
X134600000Y-125200000D02*
X137922000Y-121878000D01*
X137922000Y-121878000D02*
X137922000Y-119362400D01*
X129970000Y-125200000D02*
X134600000Y-125200000D01*
X129420500Y-124650500D02*
X129970000Y-125200000D01*
X127000000Y-124650500D02*
X129420500Y-124650500D01*
X124000000Y-124663200D02*
X124601980Y-124663200D01*
X124601980Y-124663200D02*
X125460499Y-123804681D01*
X125460499Y-123804681D02*
X127835319Y-123804681D01*
X127835319Y-123804681D02*
X133390000Y-118250000D01*
X140620000Y-119240000D02*
X140620000Y-119390000D01*
X133390000Y-118250000D02*
X139630000Y-118250000D01*
X139630000Y-118250000D02*
X140620000Y-119240000D01*
X121000000Y-124749300D02*
X123370000Y-122379300D01*
X123370000Y-122379300D02*
X123370000Y-120920000D01*
X123370000Y-120920000D02*
X128966901Y-115323099D01*
X128966901Y-115323099D02*
X141213099Y-115323099D01*
X141213099Y-115323099D02*
X141970000Y-116080000D01*
X141970000Y-116080000D02*
X141970000Y-117959600D01*
X141970000Y-117959600D02*
X143256000Y-119245600D01*
X143256000Y-119245600D02*
X143256000Y-119395600D01*
X141224000Y-91440000D02*
X141224000Y-93686000D01*
X141224000Y-93686000D02*
X141200000Y-93710000D01*
X141224000Y-91440000D02*
X141224000Y-91592400D01*
X151492400Y-92659200D02*
X151492400Y-91548400D01*
X151492400Y-91548400D02*
X151384000Y-91440000D01*
X152040000Y-94010000D02*
X152040000Y-93206800D01*
X152040000Y-93206800D02*
X151492400Y-92659200D01*
M02*
