G04 #@! TF.FileFunction,Legend,Top*
%FSLAX46Y46*%
G04 Gerber Fmt 4.6, Leading zero omitted, Abs format (unit mm)*
G04 Created by KiCad (PCBNEW (2015-11-03 BZR 6296)-product) date Monday, December 21, 2015 'AMt' 11:09:52 AM*
%MOMM*%
G01*
G04 APERTURE LIST*
%ADD10C,0.100000*%
%ADD11C,0.175000*%
%ADD12C,0.300000*%
%ADD13C,0.150000*%
%ADD14C,0.200000*%
%ADD15C,0.010000*%
G04 APERTURE END LIST*
D10*
D11*
X169384762Y-101572381D02*
X169956191Y-101572381D01*
X169670476Y-102572381D02*
X169670476Y-101572381D01*
X170289524Y-102572381D02*
X170289524Y-101572381D01*
X170765714Y-102572381D02*
X170765714Y-101572381D01*
X171099048Y-102286667D01*
X171432381Y-101572381D01*
X171432381Y-102572381D01*
X172432381Y-101620000D02*
X172337143Y-101572381D01*
X172194286Y-101572381D01*
X172051428Y-101620000D01*
X171956190Y-101715238D01*
X171908571Y-101810476D01*
X171860952Y-102000952D01*
X171860952Y-102143810D01*
X171908571Y-102334286D01*
X171956190Y-102429524D01*
X172051428Y-102524762D01*
X172194286Y-102572381D01*
X172289524Y-102572381D01*
X172432381Y-102524762D01*
X172480000Y-102477143D01*
X172480000Y-102143810D01*
X172289524Y-102143810D01*
X177354762Y-91042381D02*
X177926191Y-91042381D01*
X177640476Y-92042381D02*
X177640476Y-91042381D01*
X178259524Y-92042381D02*
X178259524Y-91042381D01*
X178735714Y-92042381D02*
X178735714Y-91042381D01*
X179069048Y-91756667D01*
X179402381Y-91042381D01*
X179402381Y-92042381D01*
X180402381Y-91090000D02*
X180307143Y-91042381D01*
X180164286Y-91042381D01*
X180021428Y-91090000D01*
X179926190Y-91185238D01*
X179878571Y-91280476D01*
X179830952Y-91470952D01*
X179830952Y-91613810D01*
X179878571Y-91804286D01*
X179926190Y-91899524D01*
X180021428Y-91994762D01*
X180164286Y-92042381D01*
X180259524Y-92042381D01*
X180402381Y-91994762D01*
X180450000Y-91947143D01*
X180450000Y-91613810D01*
X180259524Y-91613810D01*
X175236667Y-98008095D02*
X175236667Y-97531904D01*
X175522381Y-98103333D02*
X174522381Y-97770000D01*
X175522381Y-97436666D01*
X175522381Y-97103333D02*
X174522381Y-97103333D01*
X174522381Y-96865238D01*
X174570000Y-96722380D01*
X174665238Y-96627142D01*
X174760476Y-96579523D01*
X174950952Y-96531904D01*
X175093810Y-96531904D01*
X175284286Y-96579523D01*
X175379524Y-96627142D01*
X175474762Y-96722380D01*
X175522381Y-96865238D01*
X175522381Y-97103333D01*
X175427143Y-95531904D02*
X175474762Y-95579523D01*
X175522381Y-95722380D01*
X175522381Y-95817618D01*
X175474762Y-95960476D01*
X175379524Y-96055714D01*
X175284286Y-96103333D01*
X175093810Y-96150952D01*
X174950952Y-96150952D01*
X174760476Y-96103333D01*
X174665238Y-96055714D01*
X174570000Y-95960476D01*
X174522381Y-95817618D01*
X174522381Y-95722380D01*
X174570000Y-95579523D01*
X174617619Y-95531904D01*
X175484762Y-104258571D02*
X175532381Y-104115714D01*
X175532381Y-103877618D01*
X175484762Y-103782380D01*
X175437143Y-103734761D01*
X175341905Y-103687142D01*
X175246667Y-103687142D01*
X175151429Y-103734761D01*
X175103810Y-103782380D01*
X175056190Y-103877618D01*
X175008571Y-104068095D01*
X174960952Y-104163333D01*
X174913333Y-104210952D01*
X174818095Y-104258571D01*
X174722857Y-104258571D01*
X174627619Y-104210952D01*
X174580000Y-104163333D01*
X174532381Y-104068095D01*
X174532381Y-103829999D01*
X174580000Y-103687142D01*
X175532381Y-103258571D02*
X174532381Y-103258571D01*
X174532381Y-103020476D01*
X174580000Y-102877618D01*
X174675238Y-102782380D01*
X174770476Y-102734761D01*
X174960952Y-102687142D01*
X175103810Y-102687142D01*
X175294286Y-102734761D01*
X175389524Y-102782380D01*
X175484762Y-102877618D01*
X175532381Y-103020476D01*
X175532381Y-103258571D01*
X175532381Y-102258571D02*
X174532381Y-102258571D01*
X175246667Y-101925237D01*
X174532381Y-101591904D01*
X175532381Y-101591904D01*
X175532381Y-101115714D02*
X174532381Y-101115714D01*
X175246667Y-100782380D01*
X174532381Y-100449047D01*
X175532381Y-100449047D01*
X175437143Y-99401428D02*
X175484762Y-99449047D01*
X175532381Y-99591904D01*
X175532381Y-99687142D01*
X175484762Y-99830000D01*
X175389524Y-99925238D01*
X175294286Y-99972857D01*
X175103810Y-100020476D01*
X174960952Y-100020476D01*
X174770476Y-99972857D01*
X174675238Y-99925238D01*
X174580000Y-99830000D01*
X174532381Y-99687142D01*
X174532381Y-99591904D01*
X174580000Y-99449047D01*
X174627619Y-99401428D01*
X175587143Y-115312857D02*
X175634762Y-115360476D01*
X175682381Y-115503333D01*
X175682381Y-115598571D01*
X175634762Y-115741429D01*
X175539524Y-115836667D01*
X175444286Y-115884286D01*
X175253810Y-115931905D01*
X175110952Y-115931905D01*
X174920476Y-115884286D01*
X174825238Y-115836667D01*
X174730000Y-115741429D01*
X174682381Y-115598571D01*
X174682381Y-115503333D01*
X174730000Y-115360476D01*
X174777619Y-115312857D01*
X175396667Y-114931905D02*
X175396667Y-114455714D01*
X175682381Y-115027143D02*
X174682381Y-114693810D01*
X175682381Y-114360476D01*
X175682381Y-114027143D02*
X174682381Y-114027143D01*
X175682381Y-113455714D01*
X174682381Y-113455714D01*
X177906191Y-124544762D02*
X178049048Y-124592381D01*
X178287144Y-124592381D01*
X178382382Y-124544762D01*
X178430001Y-124497143D01*
X178477620Y-124401905D01*
X178477620Y-124306667D01*
X178430001Y-124211429D01*
X178382382Y-124163810D01*
X178287144Y-124116190D01*
X178096667Y-124068571D01*
X178001429Y-124020952D01*
X177953810Y-123973333D01*
X177906191Y-123878095D01*
X177906191Y-123782857D01*
X177953810Y-123687619D01*
X178001429Y-123640000D01*
X178096667Y-123592381D01*
X178334763Y-123592381D01*
X178477620Y-123640000D01*
X178906191Y-124592381D02*
X178906191Y-123592381D01*
X179287144Y-123592381D01*
X179382382Y-123640000D01*
X179430001Y-123687619D01*
X179477620Y-123782857D01*
X179477620Y-123925714D01*
X179430001Y-124020952D01*
X179382382Y-124068571D01*
X179287144Y-124116190D01*
X178906191Y-124116190D01*
X179906191Y-124592381D02*
X179906191Y-123592381D01*
X170236191Y-113904762D02*
X170379048Y-113952381D01*
X170617144Y-113952381D01*
X170712382Y-113904762D01*
X170760001Y-113857143D01*
X170807620Y-113761905D01*
X170807620Y-113666667D01*
X170760001Y-113571429D01*
X170712382Y-113523810D01*
X170617144Y-113476190D01*
X170426667Y-113428571D01*
X170331429Y-113380952D01*
X170283810Y-113333333D01*
X170236191Y-113238095D01*
X170236191Y-113142857D01*
X170283810Y-113047619D01*
X170331429Y-113000000D01*
X170426667Y-112952381D01*
X170664763Y-112952381D01*
X170807620Y-113000000D01*
X171236191Y-113952381D02*
X171236191Y-112952381D01*
X171617144Y-112952381D01*
X171712382Y-113000000D01*
X171760001Y-113047619D01*
X171807620Y-113142857D01*
X171807620Y-113285714D01*
X171760001Y-113380952D01*
X171712382Y-113428571D01*
X171617144Y-113476190D01*
X171236191Y-113476190D01*
X172236191Y-113952381D02*
X172236191Y-112952381D01*
X166704762Y-124403809D02*
X166752381Y-124260952D01*
X166752381Y-124022856D01*
X166704762Y-123927618D01*
X166657143Y-123879999D01*
X166561905Y-123832380D01*
X166466667Y-123832380D01*
X166371429Y-123879999D01*
X166323810Y-123927618D01*
X166276190Y-124022856D01*
X166228571Y-124213333D01*
X166180952Y-124308571D01*
X166133333Y-124356190D01*
X166038095Y-124403809D01*
X165942857Y-124403809D01*
X165847619Y-124356190D01*
X165800000Y-124308571D01*
X165752381Y-124213333D01*
X165752381Y-123975237D01*
X165800000Y-123832380D01*
X166752381Y-123403809D02*
X165752381Y-123403809D01*
X165752381Y-123022856D01*
X165800000Y-122927618D01*
X165847619Y-122879999D01*
X165942857Y-122832380D01*
X166085714Y-122832380D01*
X166180952Y-122879999D01*
X166228571Y-122927618D01*
X166276190Y-123022856D01*
X166276190Y-123403809D01*
X166752381Y-122403809D02*
X165752381Y-122403809D01*
X159052381Y-124085238D02*
X159861905Y-124085238D01*
X159957143Y-124037619D01*
X160004762Y-123990000D01*
X160052381Y-123894762D01*
X160052381Y-123704285D01*
X160004762Y-123609047D01*
X159957143Y-123561428D01*
X159861905Y-123513809D01*
X159052381Y-123513809D01*
X159766667Y-123085238D02*
X159766667Y-122609047D01*
X160052381Y-123180476D02*
X159052381Y-122847143D01*
X160052381Y-122513809D01*
X160052381Y-121609047D02*
X159576190Y-121942381D01*
X160052381Y-122180476D02*
X159052381Y-122180476D01*
X159052381Y-121799523D01*
X159100000Y-121704285D01*
X159147619Y-121656666D01*
X159242857Y-121609047D01*
X159385714Y-121609047D01*
X159480952Y-121656666D01*
X159528571Y-121704285D01*
X159576190Y-121799523D01*
X159576190Y-122180476D01*
X159052381Y-121323333D02*
X159052381Y-120751904D01*
X160052381Y-121037619D02*
X159052381Y-121037619D01*
X136562381Y-124125238D02*
X137371905Y-124125238D01*
X137467143Y-124077619D01*
X137514762Y-124030000D01*
X137562381Y-123934762D01*
X137562381Y-123744285D01*
X137514762Y-123649047D01*
X137467143Y-123601428D01*
X137371905Y-123553809D01*
X136562381Y-123553809D01*
X137276667Y-123125238D02*
X137276667Y-122649047D01*
X137562381Y-123220476D02*
X136562381Y-122887143D01*
X137562381Y-122553809D01*
X137562381Y-121649047D02*
X137086190Y-121982381D01*
X137562381Y-122220476D02*
X136562381Y-122220476D01*
X136562381Y-121839523D01*
X136610000Y-121744285D01*
X136657619Y-121696666D01*
X136752857Y-121649047D01*
X136895714Y-121649047D01*
X136990952Y-121696666D01*
X137038571Y-121744285D01*
X137086190Y-121839523D01*
X137086190Y-122220476D01*
X136562381Y-121363333D02*
X136562381Y-120791904D01*
X137562381Y-121077619D02*
X136562381Y-121077619D01*
X129502381Y-118295238D02*
X130311905Y-118295238D01*
X130407143Y-118247619D01*
X130454762Y-118200000D01*
X130502381Y-118104762D01*
X130502381Y-117914285D01*
X130454762Y-117819047D01*
X130407143Y-117771428D01*
X130311905Y-117723809D01*
X129502381Y-117723809D01*
X130216667Y-117295238D02*
X130216667Y-116819047D01*
X130502381Y-117390476D02*
X129502381Y-117057143D01*
X130502381Y-116723809D01*
X130502381Y-115819047D02*
X130026190Y-116152381D01*
X130502381Y-116390476D02*
X129502381Y-116390476D01*
X129502381Y-116009523D01*
X129550000Y-115914285D01*
X129597619Y-115866666D01*
X129692857Y-115819047D01*
X129835714Y-115819047D01*
X129930952Y-115866666D01*
X129978571Y-115914285D01*
X130026190Y-116009523D01*
X130026190Y-116390476D01*
X129502381Y-115533333D02*
X129502381Y-114961904D01*
X130502381Y-115247619D02*
X129502381Y-115247619D01*
X145284762Y-95302381D02*
X145856191Y-95302381D01*
X145570476Y-96302381D02*
X145570476Y-95302381D01*
X146189524Y-96302381D02*
X146189524Y-95302381D01*
X146665714Y-96302381D02*
X146665714Y-95302381D01*
X146999048Y-96016667D01*
X147332381Y-95302381D01*
X147332381Y-96302381D01*
X137180001Y-95330000D02*
X137084763Y-95282381D01*
X136941906Y-95282381D01*
X136799048Y-95330000D01*
X136703810Y-95425238D01*
X136656191Y-95520476D01*
X136608572Y-95710952D01*
X136608572Y-95853810D01*
X136656191Y-96044286D01*
X136703810Y-96139524D01*
X136799048Y-96234762D01*
X136941906Y-96282381D01*
X137037144Y-96282381D01*
X137180001Y-96234762D01*
X137227620Y-96187143D01*
X137227620Y-95853810D01*
X137037144Y-95853810D01*
X137656191Y-96282381D02*
X137656191Y-95282381D01*
X138037144Y-95282381D01*
X138132382Y-95330000D01*
X138180001Y-95377619D01*
X138227620Y-95472857D01*
X138227620Y-95615714D01*
X138180001Y-95710952D01*
X138132382Y-95758571D01*
X138037144Y-95806190D01*
X137656191Y-95806190D01*
X138656191Y-96282381D02*
X138656191Y-95282381D01*
X139322857Y-95282381D02*
X139513334Y-95282381D01*
X139608572Y-95330000D01*
X139703810Y-95425238D01*
X139751429Y-95615714D01*
X139751429Y-95949048D01*
X139703810Y-96139524D01*
X139608572Y-96234762D01*
X139513334Y-96282381D01*
X139322857Y-96282381D01*
X139227619Y-96234762D01*
X139132381Y-96139524D01*
X139084762Y-95949048D01*
X139084762Y-95615714D01*
X139132381Y-95425238D01*
X139227619Y-95330000D01*
X139322857Y-95282381D01*
X128620000Y-97429999D02*
X128572381Y-97525237D01*
X128572381Y-97668094D01*
X128620000Y-97810952D01*
X128715238Y-97906190D01*
X128810476Y-97953809D01*
X129000952Y-98001428D01*
X129143810Y-98001428D01*
X129334286Y-97953809D01*
X129429524Y-97906190D01*
X129524762Y-97810952D01*
X129572381Y-97668094D01*
X129572381Y-97572856D01*
X129524762Y-97429999D01*
X129477143Y-97382380D01*
X129143810Y-97382380D01*
X129143810Y-97572856D01*
X129572381Y-96953809D02*
X128572381Y-96953809D01*
X128572381Y-96572856D01*
X128620000Y-96477618D01*
X128667619Y-96429999D01*
X128762857Y-96382380D01*
X128905714Y-96382380D01*
X129000952Y-96429999D01*
X129048571Y-96477618D01*
X129096190Y-96572856D01*
X129096190Y-96953809D01*
X129572381Y-95953809D02*
X128572381Y-95953809D01*
X128572381Y-95287143D02*
X128572381Y-95096666D01*
X128620000Y-95001428D01*
X128715238Y-94906190D01*
X128905714Y-94858571D01*
X129239048Y-94858571D01*
X129429524Y-94906190D01*
X129524762Y-95001428D01*
X129572381Y-95096666D01*
X129572381Y-95287143D01*
X129524762Y-95382381D01*
X129429524Y-95477619D01*
X129239048Y-95525238D01*
X128905714Y-95525238D01*
X128715238Y-95477619D01*
X128620000Y-95382381D01*
X128572381Y-95287143D01*
D12*
X126084972Y-107853943D02*
X127227829Y-107853943D01*
X126656400Y-108425371D02*
X126656400Y-107282514D01*
X128442115Y-107639657D02*
X128656401Y-107711086D01*
X128727829Y-107782514D01*
X128799258Y-107925371D01*
X128799258Y-108139657D01*
X128727829Y-108282514D01*
X128656401Y-108353943D01*
X128513543Y-108425371D01*
X127942115Y-108425371D01*
X127942115Y-106925371D01*
X128442115Y-106925371D01*
X128584972Y-106996800D01*
X128656401Y-107068229D01*
X128727829Y-107211086D01*
X128727829Y-107353943D01*
X128656401Y-107496800D01*
X128584972Y-107568229D01*
X128442115Y-107639657D01*
X127942115Y-107639657D01*
X126299258Y-104334571D02*
X127227829Y-104334571D01*
X126727829Y-104906000D01*
X126942115Y-104906000D01*
X127084972Y-104977429D01*
X127156401Y-105048857D01*
X127227829Y-105191714D01*
X127227829Y-105548857D01*
X127156401Y-105691714D01*
X127084972Y-105763143D01*
X126942115Y-105834571D01*
X126513543Y-105834571D01*
X126370686Y-105763143D01*
X126299258Y-105691714D01*
X128584972Y-105834571D02*
X127870686Y-105834571D01*
X127870686Y-104334571D01*
D11*
X134483333Y-107172381D02*
X134483333Y-106505714D01*
X134483333Y-106172381D02*
X134435714Y-106220000D01*
X134483333Y-106267619D01*
X134530952Y-106220000D01*
X134483333Y-106172381D01*
X134483333Y-106267619D01*
X134911904Y-106267619D02*
X134959523Y-106220000D01*
X135054761Y-106172381D01*
X135292857Y-106172381D01*
X135388095Y-106220000D01*
X135435714Y-106267619D01*
X135483333Y-106362857D01*
X135483333Y-106458095D01*
X135435714Y-106600952D01*
X134864285Y-107172381D01*
X135483333Y-107172381D01*
X136340476Y-107124762D02*
X136245238Y-107172381D01*
X136054761Y-107172381D01*
X135959523Y-107124762D01*
X135911904Y-107077143D01*
X135864285Y-106981905D01*
X135864285Y-106696190D01*
X135911904Y-106600952D01*
X135959523Y-106553333D01*
X136054761Y-106505714D01*
X136245238Y-106505714D01*
X136340476Y-106553333D01*
X137530952Y-107172381D02*
X137530952Y-106172381D01*
X137911905Y-106172381D01*
X138007143Y-106220000D01*
X138054762Y-106267619D01*
X138102381Y-106362857D01*
X138102381Y-106505714D01*
X138054762Y-106600952D01*
X138007143Y-106648571D01*
X137911905Y-106696190D01*
X137530952Y-106696190D01*
X138959524Y-106505714D02*
X138959524Y-107172381D01*
X138530952Y-106505714D02*
X138530952Y-107029524D01*
X138578571Y-107124762D01*
X138673809Y-107172381D01*
X138816667Y-107172381D01*
X138911905Y-107124762D01*
X138959524Y-107077143D01*
X139578571Y-107172381D02*
X139483333Y-107124762D01*
X139435714Y-107029524D01*
X139435714Y-106172381D01*
X140102381Y-107172381D02*
X140007143Y-107124762D01*
X139959524Y-107029524D01*
X139959524Y-106172381D01*
X140911906Y-106505714D02*
X140911906Y-107172381D01*
X140483334Y-106505714D02*
X140483334Y-107029524D01*
X140530953Y-107124762D01*
X140626191Y-107172381D01*
X140769049Y-107172381D01*
X140864287Y-107124762D01*
X140911906Y-107077143D01*
X141388096Y-106505714D02*
X141388096Y-107505714D01*
X141388096Y-106553333D02*
X141483334Y-106505714D01*
X141673811Y-106505714D01*
X141769049Y-106553333D01*
X141816668Y-106600952D01*
X141864287Y-106696190D01*
X141864287Y-106981905D01*
X141816668Y-107077143D01*
X141769049Y-107124762D01*
X141673811Y-107172381D01*
X141483334Y-107172381D01*
X141388096Y-107124762D01*
D12*
X130698571Y-100038571D02*
X130984285Y-100038571D01*
X131127143Y-100110000D01*
X131270000Y-100252857D01*
X131341428Y-100538571D01*
X131341428Y-101038571D01*
X131270000Y-101324286D01*
X131127143Y-101467143D01*
X130984285Y-101538571D01*
X130698571Y-101538571D01*
X130555714Y-101467143D01*
X130412857Y-101324286D01*
X130341428Y-101038571D01*
X130341428Y-100538571D01*
X130412857Y-100252857D01*
X130555714Y-100110000D01*
X130698571Y-100038571D01*
X132627143Y-100538571D02*
X132627143Y-101538571D01*
X131984286Y-100538571D02*
X131984286Y-101324286D01*
X132055714Y-101467143D01*
X132198572Y-101538571D01*
X132412857Y-101538571D01*
X132555714Y-101467143D01*
X132627143Y-101395714D01*
X133127143Y-100538571D02*
X133698572Y-100538571D01*
X133341429Y-100038571D02*
X133341429Y-101324286D01*
X133412857Y-101467143D01*
X133555715Y-101538571D01*
X133698572Y-101538571D01*
X134198572Y-100538571D02*
X134198572Y-102038571D01*
X134198572Y-100610000D02*
X134341429Y-100538571D01*
X134627143Y-100538571D01*
X134770000Y-100610000D01*
X134841429Y-100681429D01*
X134912858Y-100824286D01*
X134912858Y-101252857D01*
X134841429Y-101395714D01*
X134770000Y-101467143D01*
X134627143Y-101538571D01*
X134341429Y-101538571D01*
X134198572Y-101467143D01*
X136198572Y-100538571D02*
X136198572Y-101538571D01*
X135555715Y-100538571D02*
X135555715Y-101324286D01*
X135627143Y-101467143D01*
X135770001Y-101538571D01*
X135984286Y-101538571D01*
X136127143Y-101467143D01*
X136198572Y-101395714D01*
X136698572Y-100538571D02*
X137270001Y-100538571D01*
X136912858Y-100038571D02*
X136912858Y-101324286D01*
X136984286Y-101467143D01*
X137127144Y-101538571D01*
X137270001Y-101538571D01*
X138912858Y-100538571D02*
X138912858Y-101538571D01*
X138912858Y-100681429D02*
X138984286Y-100610000D01*
X139127144Y-100538571D01*
X139341429Y-100538571D01*
X139484286Y-100610000D01*
X139555715Y-100752857D01*
X139555715Y-101538571D01*
X140912858Y-100538571D02*
X140912858Y-101538571D01*
X140270001Y-100538571D02*
X140270001Y-101324286D01*
X140341429Y-101467143D01*
X140484287Y-101538571D01*
X140698572Y-101538571D01*
X140841429Y-101467143D01*
X140912858Y-101395714D01*
X141627144Y-101538571D02*
X141627144Y-100538571D01*
X141627144Y-100681429D02*
X141698572Y-100610000D01*
X141841430Y-100538571D01*
X142055715Y-100538571D01*
X142198572Y-100610000D01*
X142270001Y-100752857D01*
X142270001Y-101538571D01*
X142270001Y-100752857D02*
X142341430Y-100610000D01*
X142484287Y-100538571D01*
X142698572Y-100538571D01*
X142841430Y-100610000D01*
X142912858Y-100752857D01*
X142912858Y-101538571D01*
X143627144Y-101538571D02*
X143627144Y-100038571D01*
X143627144Y-100610000D02*
X143770001Y-100538571D01*
X144055715Y-100538571D01*
X144198572Y-100610000D01*
X144270001Y-100681429D01*
X144341430Y-100824286D01*
X144341430Y-101252857D01*
X144270001Y-101395714D01*
X144198572Y-101467143D01*
X144055715Y-101538571D01*
X143770001Y-101538571D01*
X143627144Y-101467143D01*
X145555715Y-101467143D02*
X145412858Y-101538571D01*
X145127144Y-101538571D01*
X144984287Y-101467143D01*
X144912858Y-101324286D01*
X144912858Y-100752857D01*
X144984287Y-100610000D01*
X145127144Y-100538571D01*
X145412858Y-100538571D01*
X145555715Y-100610000D01*
X145627144Y-100752857D01*
X145627144Y-100895714D01*
X144912858Y-101038571D01*
X146270001Y-101538571D02*
X146270001Y-100538571D01*
X146270001Y-100824286D02*
X146341429Y-100681429D01*
X146412858Y-100610000D01*
X146555715Y-100538571D01*
X146698572Y-100538571D01*
X147198572Y-101538571D02*
X147198572Y-100538571D01*
X147198572Y-100038571D02*
X147127143Y-100110000D01*
X147198572Y-100181429D01*
X147270000Y-100110000D01*
X147198572Y-100038571D01*
X147198572Y-100181429D01*
X147912858Y-100538571D02*
X147912858Y-101538571D01*
X147912858Y-100681429D02*
X147984286Y-100610000D01*
X148127144Y-100538571D01*
X148341429Y-100538571D01*
X148484286Y-100610000D01*
X148555715Y-100752857D01*
X148555715Y-101538571D01*
X149912858Y-100538571D02*
X149912858Y-101752857D01*
X149841429Y-101895714D01*
X149770001Y-101967143D01*
X149627144Y-102038571D01*
X149412858Y-102038571D01*
X149270001Y-101967143D01*
X149912858Y-101467143D02*
X149770001Y-101538571D01*
X149484287Y-101538571D01*
X149341429Y-101467143D01*
X149270001Y-101395714D01*
X149198572Y-101252857D01*
X149198572Y-100824286D01*
X149270001Y-100681429D01*
X149341429Y-100610000D01*
X149484287Y-100538571D01*
X149770001Y-100538571D01*
X149912858Y-100610000D01*
X150627144Y-101395714D02*
X150698572Y-101467143D01*
X150627144Y-101538571D01*
X150555715Y-101467143D01*
X150627144Y-101395714D01*
X150627144Y-101538571D01*
X132068571Y-112807143D02*
X131925714Y-112878571D01*
X131640000Y-112878571D01*
X131497142Y-112807143D01*
X131425714Y-112735714D01*
X131354285Y-112592857D01*
X131354285Y-112164286D01*
X131425714Y-112021429D01*
X131497142Y-111950000D01*
X131640000Y-111878571D01*
X131925714Y-111878571D01*
X132068571Y-111950000D01*
X132711428Y-112878571D02*
X132711428Y-111378571D01*
X132854285Y-112307143D02*
X133282856Y-112878571D01*
X133282856Y-111878571D02*
X132711428Y-112450000D01*
X134568571Y-112878571D02*
X134568571Y-111378571D01*
X134568571Y-112807143D02*
X134425714Y-112878571D01*
X134140000Y-112878571D01*
X133997142Y-112807143D01*
X133925714Y-112735714D01*
X133854285Y-112592857D01*
X133854285Y-112164286D01*
X133925714Y-112021429D01*
X133997142Y-111950000D01*
X134140000Y-111878571D01*
X134425714Y-111878571D01*
X134568571Y-111950000D01*
X135282857Y-112735714D02*
X135354285Y-112807143D01*
X135282857Y-112878571D01*
X135211428Y-112807143D01*
X135282857Y-112735714D01*
X135282857Y-112878571D01*
X135782857Y-111878571D02*
X136354286Y-111878571D01*
X135997143Y-111378571D02*
X135997143Y-112664286D01*
X136068571Y-112807143D01*
X136211429Y-112878571D01*
X136354286Y-112878571D01*
X137425714Y-112807143D02*
X137282857Y-112878571D01*
X136997143Y-112878571D01*
X136854286Y-112807143D01*
X136782857Y-112664286D01*
X136782857Y-112092857D01*
X136854286Y-111950000D01*
X136997143Y-111878571D01*
X137282857Y-111878571D01*
X137425714Y-111950000D01*
X137497143Y-112092857D01*
X137497143Y-112235714D01*
X136782857Y-112378571D01*
X138782857Y-112807143D02*
X138640000Y-112878571D01*
X138354286Y-112878571D01*
X138211428Y-112807143D01*
X138140000Y-112735714D01*
X138068571Y-112592857D01*
X138068571Y-112164286D01*
X138140000Y-112021429D01*
X138211428Y-111950000D01*
X138354286Y-111878571D01*
X138640000Y-111878571D01*
X138782857Y-111950000D01*
X139425714Y-112878571D02*
X139425714Y-111378571D01*
X140068571Y-112878571D02*
X140068571Y-112092857D01*
X139997142Y-111950000D01*
X139854285Y-111878571D01*
X139640000Y-111878571D01*
X139497142Y-111950000D01*
X139425714Y-112021429D01*
X141854285Y-111307143D02*
X140568571Y-113235714D01*
X142997143Y-112878571D02*
X142997143Y-111378571D01*
X142997143Y-112807143D02*
X142854286Y-112878571D01*
X142568572Y-112878571D01*
X142425714Y-112807143D01*
X142354286Y-112735714D01*
X142282857Y-112592857D01*
X142282857Y-112164286D01*
X142354286Y-112021429D01*
X142425714Y-111950000D01*
X142568572Y-111878571D01*
X142854286Y-111878571D01*
X142997143Y-111950000D01*
X143711429Y-112878571D02*
X143711429Y-111378571D01*
X143711429Y-111950000D02*
X143854286Y-111878571D01*
X144140000Y-111878571D01*
X144282857Y-111950000D01*
X144354286Y-112021429D01*
X144425715Y-112164286D01*
X144425715Y-112592857D01*
X144354286Y-112735714D01*
X144282857Y-112807143D01*
X144140000Y-112878571D01*
X143854286Y-112878571D01*
X143711429Y-112807143D01*
X145711429Y-111878571D02*
X145711429Y-113092857D01*
X145640000Y-113235714D01*
X145568572Y-113307143D01*
X145425715Y-113378571D01*
X145211429Y-113378571D01*
X145068572Y-113307143D01*
X145711429Y-112807143D02*
X145568572Y-112878571D01*
X145282858Y-112878571D01*
X145140000Y-112807143D01*
X145068572Y-112735714D01*
X144997143Y-112592857D01*
X144997143Y-112164286D01*
X145068572Y-112021429D01*
X145140000Y-111950000D01*
X145282858Y-111878571D01*
X145568572Y-111878571D01*
X145711429Y-111950000D01*
X147497143Y-111307143D02*
X146211429Y-113235714D01*
X147854287Y-111878571D02*
X148211430Y-112878571D01*
X148568572Y-111878571D01*
X149068572Y-111521429D02*
X149140001Y-111450000D01*
X149282858Y-111378571D01*
X149640001Y-111378571D01*
X149782858Y-111450000D01*
X149854287Y-111521429D01*
X149925715Y-111664286D01*
X149925715Y-111807143D01*
X149854287Y-112021429D01*
X148997144Y-112878571D01*
X149925715Y-112878571D01*
D13*
X122458571Y-125335238D02*
X122458571Y-125001904D01*
X122982381Y-124859047D02*
X122982381Y-125335238D01*
X121982381Y-125335238D01*
X121982381Y-124859047D01*
X121982381Y-124525714D02*
X121982381Y-123906666D01*
X122363333Y-124240000D01*
X122363333Y-124097142D01*
X122410952Y-124001904D01*
X122458571Y-123954285D01*
X122553810Y-123906666D01*
X122791905Y-123906666D01*
X122887143Y-123954285D01*
X122934762Y-124001904D01*
X122982381Y-124097142D01*
X122982381Y-124382857D01*
X122934762Y-124478095D01*
X122887143Y-124525714D01*
X121982381Y-123620952D02*
X122982381Y-123287619D01*
X121982381Y-122954285D01*
X121982381Y-122716190D02*
X121982381Y-122097142D01*
X122363333Y-122430476D01*
X122363333Y-122287618D01*
X122410952Y-122192380D01*
X122458571Y-122144761D01*
X122553810Y-122097142D01*
X122791905Y-122097142D01*
X122887143Y-122144761D01*
X122934762Y-122192380D01*
X122982381Y-122287618D01*
X122982381Y-122573333D01*
X122934762Y-122668571D01*
X122887143Y-122716190D01*
X125012381Y-124938095D02*
X125012381Y-124319047D01*
X125393333Y-124652381D01*
X125393333Y-124509523D01*
X125440952Y-124414285D01*
X125488571Y-124366666D01*
X125583810Y-124319047D01*
X125821905Y-124319047D01*
X125917143Y-124366666D01*
X125964762Y-124414285D01*
X126012381Y-124509523D01*
X126012381Y-124795238D01*
X125964762Y-124890476D01*
X125917143Y-124938095D01*
X125012381Y-124033333D02*
X126012381Y-123700000D01*
X125012381Y-123366666D01*
X125012381Y-123128571D02*
X125012381Y-122509523D01*
X125393333Y-122842857D01*
X125393333Y-122699999D01*
X125440952Y-122604761D01*
X125488571Y-122557142D01*
X125583810Y-122509523D01*
X125821905Y-122509523D01*
X125917143Y-122557142D01*
X125964762Y-122604761D01*
X126012381Y-122699999D01*
X126012381Y-122985714D01*
X125964762Y-123080952D01*
X125917143Y-123128571D01*
X127952381Y-124000476D02*
X127952381Y-124476667D01*
X128428571Y-124524286D01*
X128380952Y-124476667D01*
X128333333Y-124381429D01*
X128333333Y-124143333D01*
X128380952Y-124048095D01*
X128428571Y-124000476D01*
X128523810Y-123952857D01*
X128761905Y-123952857D01*
X128857143Y-124000476D01*
X128904762Y-124048095D01*
X128952381Y-124143333D01*
X128952381Y-124381429D01*
X128904762Y-124476667D01*
X128857143Y-124524286D01*
X127952381Y-123667143D02*
X128952381Y-123333810D01*
X127952381Y-123000476D01*
D14*
X167487600Y-98145600D02*
X174345600Y-98145600D01*
D12*
X176543543Y-104929714D02*
X176472114Y-105001143D01*
X176257828Y-105072571D01*
X176114971Y-105072571D01*
X175900686Y-105001143D01*
X175757828Y-104858286D01*
X175686400Y-104715429D01*
X175614971Y-104429714D01*
X175614971Y-104215429D01*
X175686400Y-103929714D01*
X175757828Y-103786857D01*
X175900686Y-103644000D01*
X176114971Y-103572571D01*
X176257828Y-103572571D01*
X176472114Y-103644000D01*
X176543543Y-103715429D01*
X177186400Y-105072571D02*
X177186400Y-103572571D01*
X177686400Y-104644000D01*
X178186400Y-103572571D01*
X178186400Y-105072571D01*
X180765486Y-104929714D02*
X180694057Y-105001143D01*
X180479771Y-105072571D01*
X180336914Y-105072571D01*
X180122629Y-105001143D01*
X179979771Y-104858286D01*
X179908343Y-104715429D01*
X179836914Y-104429714D01*
X179836914Y-104215429D01*
X179908343Y-103929714D01*
X179979771Y-103786857D01*
X180122629Y-103644000D01*
X180336914Y-103572571D01*
X180479771Y-103572571D01*
X180694057Y-103644000D01*
X180765486Y-103715429D01*
X181408343Y-105072571D02*
X181408343Y-103572571D01*
X182265486Y-105072571D02*
X181622629Y-104215429D01*
X182265486Y-103572571D02*
X181408343Y-104429714D01*
X175829258Y-102634171D02*
X175829258Y-101134171D01*
X176186401Y-101134171D01*
X176400686Y-101205600D01*
X176543544Y-101348457D01*
X176614972Y-101491314D01*
X176686401Y-101777029D01*
X176686401Y-101991314D01*
X176614972Y-102277029D01*
X176543544Y-102419886D01*
X176400686Y-102562743D01*
X176186401Y-102634171D01*
X175829258Y-102634171D01*
X177186401Y-101134171D02*
X178114972Y-101134171D01*
X177614972Y-101705600D01*
X177829258Y-101705600D01*
X177972115Y-101777029D01*
X178043544Y-101848457D01*
X178114972Y-101991314D01*
X178114972Y-102348457D01*
X178043544Y-102491314D01*
X177972115Y-102562743D01*
X177829258Y-102634171D01*
X177400686Y-102634171D01*
X177257829Y-102562743D01*
X177186401Y-102491314D01*
X179944058Y-102634171D02*
X179944058Y-101134171D01*
X180301201Y-101134171D01*
X180515486Y-101205600D01*
X180658344Y-101348457D01*
X180729772Y-101491314D01*
X180801201Y-101777029D01*
X180801201Y-101991314D01*
X180729772Y-102277029D01*
X180658344Y-102419886D01*
X180515486Y-102562743D01*
X180301201Y-102634171D01*
X179944058Y-102634171D01*
X181372629Y-101277029D02*
X181444058Y-101205600D01*
X181586915Y-101134171D01*
X181944058Y-101134171D01*
X182086915Y-101205600D01*
X182158344Y-101277029D01*
X182229772Y-101419886D01*
X182229772Y-101562743D01*
X182158344Y-101777029D01*
X181301201Y-102634171D01*
X182229772Y-102634171D01*
X175829258Y-100043371D02*
X175829258Y-98543371D01*
X176186401Y-98543371D01*
X176400686Y-98614800D01*
X176543544Y-98757657D01*
X176614972Y-98900514D01*
X176686401Y-99186229D01*
X176686401Y-99400514D01*
X176614972Y-99686229D01*
X176543544Y-99829086D01*
X176400686Y-99971943D01*
X176186401Y-100043371D01*
X175829258Y-100043371D01*
X178114972Y-100043371D02*
X177257829Y-100043371D01*
X177686401Y-100043371D02*
X177686401Y-98543371D01*
X177543544Y-98757657D01*
X177400686Y-98900514D01*
X177257829Y-98971943D01*
X179944058Y-100043371D02*
X179944058Y-98543371D01*
X180301201Y-98543371D01*
X180515486Y-98614800D01*
X180658344Y-98757657D01*
X180729772Y-98900514D01*
X180801201Y-99186229D01*
X180801201Y-99400514D01*
X180729772Y-99686229D01*
X180658344Y-99829086D01*
X180515486Y-99971943D01*
X180301201Y-100043371D01*
X179944058Y-100043371D01*
X181729772Y-98543371D02*
X181872629Y-98543371D01*
X182015486Y-98614800D01*
X182086915Y-98686229D01*
X182158344Y-98829086D01*
X182229772Y-99114800D01*
X182229772Y-99471943D01*
X182158344Y-99757657D01*
X182086915Y-99900514D01*
X182015486Y-99971943D01*
X181872629Y-100043371D01*
X181729772Y-100043371D01*
X181586915Y-99971943D01*
X181515486Y-99900514D01*
X181444058Y-99757657D01*
X181372629Y-99471943D01*
X181372629Y-99114800D01*
X181444058Y-98829086D01*
X181515486Y-98686229D01*
X181586915Y-98614800D01*
X181729772Y-98543371D01*
X176507829Y-96247829D02*
X176579258Y-96176400D01*
X176722115Y-96104971D01*
X177079258Y-96104971D01*
X177222115Y-96176400D01*
X177293544Y-96247829D01*
X177364972Y-96390686D01*
X177364972Y-96533543D01*
X177293544Y-96747829D01*
X176436401Y-97604971D01*
X177364972Y-97604971D01*
X181327372Y-97604971D02*
X180470229Y-97604971D01*
X180898801Y-97604971D02*
X180898801Y-96104971D01*
X180755944Y-96319257D01*
X180613086Y-96462114D01*
X180470229Y-96533543D01*
X175793543Y-93657029D02*
X175864972Y-93585600D01*
X176007829Y-93514171D01*
X176364972Y-93514171D01*
X176507829Y-93585600D01*
X176579258Y-93657029D01*
X176650686Y-93799886D01*
X176650686Y-93942743D01*
X176579258Y-94157029D01*
X175722115Y-95014171D01*
X176650686Y-95014171D01*
X177936400Y-94014171D02*
X177936400Y-95014171D01*
X177579257Y-93442743D02*
X177222114Y-94514171D01*
X178150686Y-94514171D01*
X179755943Y-93657029D02*
X179827372Y-93585600D01*
X179970229Y-93514171D01*
X180327372Y-93514171D01*
X180470229Y-93585600D01*
X180541658Y-93657029D01*
X180613086Y-93799886D01*
X180613086Y-93942743D01*
X180541658Y-94157029D01*
X179684515Y-95014171D01*
X180613086Y-95014171D01*
X181113086Y-93514171D02*
X182041657Y-93514171D01*
X181541657Y-94085600D01*
X181755943Y-94085600D01*
X181898800Y-94157029D01*
X181970229Y-94228457D01*
X182041657Y-94371314D01*
X182041657Y-94728457D01*
X181970229Y-94871314D01*
X181898800Y-94942743D01*
X181755943Y-95014171D01*
X181327371Y-95014171D01*
X181184514Y-94942743D01*
X181113086Y-94871314D01*
X172905029Y-100964857D02*
X172833600Y-100893428D01*
X172762171Y-100750571D01*
X172762171Y-100393428D01*
X172833600Y-100250571D01*
X172905029Y-100179142D01*
X173047886Y-100107714D01*
X173190743Y-100107714D01*
X173405029Y-100179142D01*
X174262171Y-101036285D01*
X174262171Y-100107714D01*
X172905029Y-99536286D02*
X172833600Y-99464857D01*
X172762171Y-99322000D01*
X172762171Y-98964857D01*
X172833600Y-98822000D01*
X172905029Y-98750571D01*
X173047886Y-98679143D01*
X173190743Y-98679143D01*
X173405029Y-98750571D01*
X174262171Y-99607714D01*
X174262171Y-98679143D01*
X172905029Y-97612057D02*
X172833600Y-97540628D01*
X172762171Y-97397771D01*
X172762171Y-97040628D01*
X172833600Y-96897771D01*
X172905029Y-96826342D01*
X173047886Y-96754914D01*
X173190743Y-96754914D01*
X173405029Y-96826342D01*
X174262171Y-97683485D01*
X174262171Y-96754914D01*
X174262171Y-95326343D02*
X174262171Y-96183486D01*
X174262171Y-95754914D02*
X172762171Y-95754914D01*
X172976457Y-95897771D01*
X173119314Y-96040629D01*
X173190743Y-96183486D01*
X171671371Y-100107714D02*
X171671371Y-100964857D01*
X171671371Y-100536285D02*
X170171371Y-100536285D01*
X170385657Y-100679142D01*
X170528514Y-100822000D01*
X170599943Y-100964857D01*
X170671371Y-98822000D02*
X171671371Y-98822000D01*
X170099943Y-99179143D02*
X171171371Y-99536286D01*
X171171371Y-98607714D01*
X171671371Y-96754914D02*
X171671371Y-97612057D01*
X171671371Y-97183485D02*
X170171371Y-97183485D01*
X170385657Y-97326342D01*
X170528514Y-97469200D01*
X170599943Y-97612057D01*
X170171371Y-96254914D02*
X170171371Y-95326343D01*
X170742800Y-95826343D01*
X170742800Y-95612057D01*
X170814229Y-95469200D01*
X170885657Y-95397771D01*
X171028514Y-95326343D01*
X171385657Y-95326343D01*
X171528514Y-95397771D01*
X171599943Y-95469200D01*
X171671371Y-95612057D01*
X171671371Y-96040629D01*
X171599943Y-96183486D01*
X171528514Y-96254914D01*
X169080571Y-100107714D02*
X169080571Y-100964857D01*
X169080571Y-100536285D02*
X167580571Y-100536285D01*
X167794857Y-100679142D01*
X167937714Y-100822000D01*
X168009143Y-100964857D01*
X167723429Y-99536286D02*
X167652000Y-99464857D01*
X167580571Y-99322000D01*
X167580571Y-98964857D01*
X167652000Y-98822000D01*
X167723429Y-98750571D01*
X167866286Y-98679143D01*
X168009143Y-98679143D01*
X168223429Y-98750571D01*
X169080571Y-99607714D01*
X169080571Y-98679143D01*
X169080571Y-96602514D02*
X169080571Y-97459657D01*
X169080571Y-97031085D02*
X167580571Y-97031085D01*
X167794857Y-97173942D01*
X167937714Y-97316800D01*
X168009143Y-97459657D01*
X169080571Y-95173943D02*
X169080571Y-96031086D01*
X169080571Y-95602514D02*
X167580571Y-95602514D01*
X167794857Y-95745371D01*
X167937714Y-95888229D01*
X168009143Y-96031086D01*
X176338800Y-109346857D02*
X176267371Y-109489714D01*
X176267371Y-109704000D01*
X176338800Y-109918285D01*
X176481657Y-110061143D01*
X176624514Y-110132571D01*
X176910229Y-110204000D01*
X177124514Y-110204000D01*
X177410229Y-110132571D01*
X177553086Y-110061143D01*
X177695943Y-109918285D01*
X177767371Y-109704000D01*
X177767371Y-109561143D01*
X177695943Y-109346857D01*
X177624514Y-109275428D01*
X177124514Y-109275428D01*
X177124514Y-109561143D01*
X177767371Y-108632571D02*
X176267371Y-108632571D01*
X177767371Y-107775428D01*
X176267371Y-107775428D01*
X177767371Y-107061142D02*
X176267371Y-107061142D01*
X176267371Y-106703999D01*
X176338800Y-106489714D01*
X176481657Y-106346856D01*
X176624514Y-106275428D01*
X176910229Y-106203999D01*
X177124514Y-106203999D01*
X177410229Y-106275428D01*
X177553086Y-106346856D01*
X177695943Y-106489714D01*
X177767371Y-106703999D01*
X177767371Y-107061142D01*
X180301200Y-109346857D02*
X180229771Y-109489714D01*
X180229771Y-109704000D01*
X180301200Y-109918285D01*
X180444057Y-110061143D01*
X180586914Y-110132571D01*
X180872629Y-110204000D01*
X181086914Y-110204000D01*
X181372629Y-110132571D01*
X181515486Y-110061143D01*
X181658343Y-109918285D01*
X181729771Y-109704000D01*
X181729771Y-109561143D01*
X181658343Y-109346857D01*
X181586914Y-109275428D01*
X181086914Y-109275428D01*
X181086914Y-109561143D01*
X181729771Y-108632571D02*
X180229771Y-108632571D01*
X181729771Y-107775428D01*
X180229771Y-107775428D01*
X181729771Y-107061142D02*
X180229771Y-107061142D01*
X180229771Y-106703999D01*
X180301200Y-106489714D01*
X180444057Y-106346856D01*
X180586914Y-106275428D01*
X180872629Y-106203999D01*
X181086914Y-106203999D01*
X181372629Y-106275428D01*
X181515486Y-106346856D01*
X181658343Y-106489714D01*
X181729771Y-106703999D01*
X181729771Y-107061142D01*
D14*
X167640000Y-117652800D02*
X174498000Y-117652800D01*
D12*
X176838801Y-112844971D02*
X176338801Y-112130686D01*
X175981658Y-112844971D02*
X175981658Y-111344971D01*
X176553086Y-111344971D01*
X176695944Y-111416400D01*
X176767372Y-111487829D01*
X176838801Y-111630686D01*
X176838801Y-111844971D01*
X176767372Y-111987829D01*
X176695944Y-112059257D01*
X176553086Y-112130686D01*
X175981658Y-112130686D01*
X177410229Y-112773543D02*
X177624515Y-112844971D01*
X177981658Y-112844971D01*
X178124515Y-112773543D01*
X178195944Y-112702114D01*
X178267372Y-112559257D01*
X178267372Y-112416400D01*
X178195944Y-112273543D01*
X178124515Y-112202114D01*
X177981658Y-112130686D01*
X177695944Y-112059257D01*
X177553086Y-111987829D01*
X177481658Y-111916400D01*
X177410229Y-111773543D01*
X177410229Y-111630686D01*
X177481658Y-111487829D01*
X177553086Y-111416400D01*
X177695944Y-111344971D01*
X178053086Y-111344971D01*
X178267372Y-111416400D01*
X181005943Y-112059257D02*
X181220229Y-112130686D01*
X181291657Y-112202114D01*
X181363086Y-112344971D01*
X181363086Y-112559257D01*
X181291657Y-112702114D01*
X181220229Y-112773543D01*
X181077371Y-112844971D01*
X180505943Y-112844971D01*
X180505943Y-111344971D01*
X181005943Y-111344971D01*
X181148800Y-111416400D01*
X181220229Y-111487829D01*
X181291657Y-111630686D01*
X181291657Y-111773543D01*
X181220229Y-111916400D01*
X181148800Y-111987829D01*
X181005943Y-112059257D01*
X180505943Y-112059257D01*
X176767372Y-115283371D02*
X176053086Y-115283371D01*
X176053086Y-113783371D01*
X177553086Y-113783371D02*
X177838800Y-113783371D01*
X177981658Y-113854800D01*
X178124515Y-113997657D01*
X178195943Y-114283371D01*
X178195943Y-114783371D01*
X178124515Y-115069086D01*
X177981658Y-115211943D01*
X177838800Y-115283371D01*
X177553086Y-115283371D01*
X177410229Y-115211943D01*
X177267372Y-115069086D01*
X177195943Y-114783371D01*
X177195943Y-114283371D01*
X177267372Y-113997657D01*
X177410229Y-113854800D01*
X177553086Y-113783371D01*
X180113086Y-115283371D02*
X180113086Y-113783371D01*
X180113086Y-114497657D02*
X180970229Y-114497657D01*
X180970229Y-115283371D02*
X180970229Y-113783371D01*
X181684515Y-115283371D02*
X181684515Y-113783371D01*
D14*
X178917600Y-123291600D02*
X178917600Y-92506800D01*
D12*
X179684515Y-116374171D02*
X180613086Y-116374171D01*
X180113086Y-116945600D01*
X180327372Y-116945600D01*
X180470229Y-117017029D01*
X180541658Y-117088457D01*
X180613086Y-117231314D01*
X180613086Y-117588457D01*
X180541658Y-117731314D01*
X180470229Y-117802743D01*
X180327372Y-117874171D01*
X179898800Y-117874171D01*
X179755943Y-117802743D01*
X179684515Y-117731314D01*
X181184514Y-117802743D02*
X181398800Y-117874171D01*
X181755943Y-117874171D01*
X181898800Y-117802743D01*
X181970229Y-117731314D01*
X182041657Y-117588457D01*
X182041657Y-117445600D01*
X181970229Y-117302743D01*
X181898800Y-117231314D01*
X181755943Y-117159886D01*
X181470229Y-117088457D01*
X181327371Y-117017029D01*
X181255943Y-116945600D01*
X181184514Y-116802743D01*
X181184514Y-116659886D01*
X181255943Y-116517029D01*
X181327371Y-116445600D01*
X181470229Y-116374171D01*
X181827371Y-116374171D01*
X182041657Y-116445600D01*
X180041658Y-118964971D02*
X180970229Y-118964971D01*
X180470229Y-119536400D01*
X180684515Y-119536400D01*
X180827372Y-119607829D01*
X180898801Y-119679257D01*
X180970229Y-119822114D01*
X180970229Y-120179257D01*
X180898801Y-120322114D01*
X180827372Y-120393543D01*
X180684515Y-120464971D01*
X180255943Y-120464971D01*
X180113086Y-120393543D01*
X180041658Y-120322114D01*
X181613086Y-120464971D02*
X181613086Y-118964971D01*
X175838801Y-116374171D02*
X176767372Y-116374171D01*
X176267372Y-116945600D01*
X176481658Y-116945600D01*
X176624515Y-117017029D01*
X176695944Y-117088457D01*
X176767372Y-117231314D01*
X176767372Y-117588457D01*
X176695944Y-117731314D01*
X176624515Y-117802743D01*
X176481658Y-117874171D01*
X176053086Y-117874171D01*
X175910229Y-117802743D01*
X175838801Y-117731314D01*
X178267372Y-117731314D02*
X178195943Y-117802743D01*
X177981657Y-117874171D01*
X177838800Y-117874171D01*
X177624515Y-117802743D01*
X177481657Y-117659886D01*
X177410229Y-117517029D01*
X177338800Y-117231314D01*
X177338800Y-117017029D01*
X177410229Y-116731314D01*
X177481657Y-116588457D01*
X177624515Y-116445600D01*
X177838800Y-116374171D01*
X177981657Y-116374171D01*
X178195943Y-116445600D01*
X178267372Y-116517029D01*
X175803086Y-118964971D02*
X176731657Y-118964971D01*
X176231657Y-119536400D01*
X176445943Y-119536400D01*
X176588800Y-119607829D01*
X176660229Y-119679257D01*
X176731657Y-119822114D01*
X176731657Y-120179257D01*
X176660229Y-120322114D01*
X176588800Y-120393543D01*
X176445943Y-120464971D01*
X176017371Y-120464971D01*
X175874514Y-120393543D01*
X175803086Y-120322114D01*
X177660228Y-118964971D02*
X177945942Y-118964971D01*
X178088800Y-119036400D01*
X178231657Y-119179257D01*
X178303085Y-119464971D01*
X178303085Y-119964971D01*
X178231657Y-120250686D01*
X178088800Y-120393543D01*
X177945942Y-120464971D01*
X177660228Y-120464971D01*
X177517371Y-120393543D01*
X177374514Y-120250686D01*
X177303085Y-119964971D01*
X177303085Y-119464971D01*
X177374514Y-119179257D01*
X177517371Y-119036400D01*
X177660228Y-118964971D01*
X175910229Y-121546229D02*
X175981658Y-121474800D01*
X176124515Y-121403371D01*
X176481658Y-121403371D01*
X176624515Y-121474800D01*
X176695944Y-121546229D01*
X176767372Y-121689086D01*
X176767372Y-121831943D01*
X176695944Y-122046229D01*
X175838801Y-122903371D01*
X176767372Y-122903371D01*
X178267372Y-122760514D02*
X178195943Y-122831943D01*
X177981657Y-122903371D01*
X177838800Y-122903371D01*
X177624515Y-122831943D01*
X177481657Y-122689086D01*
X177410229Y-122546229D01*
X177338800Y-122260514D01*
X177338800Y-122046229D01*
X177410229Y-121760514D01*
X177481657Y-121617657D01*
X177624515Y-121474800D01*
X177838800Y-121403371D01*
X177981657Y-121403371D01*
X178195943Y-121474800D01*
X178267372Y-121546229D01*
X179755943Y-121511429D02*
X179827372Y-121440000D01*
X179970229Y-121368571D01*
X180327372Y-121368571D01*
X180470229Y-121440000D01*
X180541658Y-121511429D01*
X180613086Y-121654286D01*
X180613086Y-121797143D01*
X180541658Y-122011429D01*
X179684515Y-122868571D01*
X180613086Y-122868571D01*
X181184514Y-122797143D02*
X181398800Y-122868571D01*
X181755943Y-122868571D01*
X181898800Y-122797143D01*
X181970229Y-122725714D01*
X182041657Y-122582857D01*
X182041657Y-122440000D01*
X181970229Y-122297143D01*
X181898800Y-122225714D01*
X181755943Y-122154286D01*
X181470229Y-122082857D01*
X181327371Y-122011429D01*
X181255943Y-121940000D01*
X181184514Y-121797143D01*
X181184514Y-121654286D01*
X181255943Y-121511429D01*
X181327371Y-121440000D01*
X181470229Y-121368571D01*
X181827371Y-121368571D01*
X182041657Y-121440000D01*
X173057429Y-120114914D02*
X172986000Y-120043485D01*
X172914571Y-119900628D01*
X172914571Y-119543485D01*
X172986000Y-119400628D01*
X173057429Y-119329199D01*
X173200286Y-119257771D01*
X173343143Y-119257771D01*
X173557429Y-119329199D01*
X174414571Y-120186342D01*
X174414571Y-119257771D01*
X174414571Y-118614914D02*
X172914571Y-118614914D01*
X173057429Y-117038286D02*
X172986000Y-116966857D01*
X172914571Y-116824000D01*
X172914571Y-116466857D01*
X172986000Y-116324000D01*
X173057429Y-116252571D01*
X173200286Y-116181143D01*
X173343143Y-116181143D01*
X173557429Y-116252571D01*
X174414571Y-117109714D01*
X174414571Y-116181143D01*
X172914571Y-115252572D02*
X172914571Y-114966858D01*
X172986000Y-114824000D01*
X173128857Y-114681143D01*
X173414571Y-114609715D01*
X173914571Y-114609715D01*
X174200286Y-114681143D01*
X174343143Y-114824000D01*
X174414571Y-114966858D01*
X174414571Y-115252572D01*
X174343143Y-115395429D01*
X174200286Y-115538286D01*
X173914571Y-115609715D01*
X173414571Y-115609715D01*
X173128857Y-115538286D01*
X172986000Y-115395429D01*
X172914571Y-115252572D01*
X171976171Y-116145428D02*
X171976171Y-117002571D01*
X171976171Y-116573999D02*
X170476171Y-116573999D01*
X170690457Y-116716856D01*
X170833314Y-116859714D01*
X170904743Y-117002571D01*
X171833314Y-114645428D02*
X171904743Y-114716857D01*
X171976171Y-114931143D01*
X171976171Y-115074000D01*
X171904743Y-115288285D01*
X171761886Y-115431143D01*
X171619029Y-115502571D01*
X171333314Y-115574000D01*
X171119029Y-115574000D01*
X170833314Y-115502571D01*
X170690457Y-115431143D01*
X170547600Y-115288285D01*
X170476171Y-115074000D01*
X170476171Y-114931143D01*
X170547600Y-114716857D01*
X170619029Y-114645428D01*
X171976171Y-119614914D02*
X171976171Y-120472057D01*
X171976171Y-120043485D02*
X170476171Y-120043485D01*
X170690457Y-120186342D01*
X170833314Y-120329200D01*
X170904743Y-120472057D01*
X171904743Y-119043486D02*
X171976171Y-118829200D01*
X171976171Y-118472057D01*
X171904743Y-118329200D01*
X171833314Y-118257771D01*
X171690457Y-118186343D01*
X171547600Y-118186343D01*
X171404743Y-118257771D01*
X171333314Y-118329200D01*
X171261886Y-118472057D01*
X171190457Y-118757771D01*
X171119029Y-118900629D01*
X171047600Y-118972057D01*
X170904743Y-119043486D01*
X170761886Y-119043486D01*
X170619029Y-118972057D01*
X170547600Y-118900629D01*
X170476171Y-118757771D01*
X170476171Y-118400629D01*
X170547600Y-118186343D01*
X169385371Y-116181143D02*
X169385371Y-117038286D01*
X169385371Y-116609714D02*
X167885371Y-116609714D01*
X168099657Y-116752571D01*
X168242514Y-116895429D01*
X168313943Y-117038286D01*
X167885371Y-115252572D02*
X167885371Y-114966858D01*
X167956800Y-114824000D01*
X168099657Y-114681143D01*
X168385371Y-114609715D01*
X168885371Y-114609715D01*
X169171086Y-114681143D01*
X169313943Y-114824000D01*
X169385371Y-114966858D01*
X169385371Y-115252572D01*
X169313943Y-115395429D01*
X169171086Y-115538286D01*
X168885371Y-115609715D01*
X168385371Y-115609715D01*
X168099657Y-115538286D01*
X167956800Y-115395429D01*
X167885371Y-115252572D01*
X169385371Y-119257771D02*
X169385371Y-120114914D01*
X169385371Y-119686342D02*
X167885371Y-119686342D01*
X168099657Y-119829199D01*
X168242514Y-119972057D01*
X168313943Y-120114914D01*
X169385371Y-118614914D02*
X167885371Y-118614914D01*
X127611144Y-96714571D02*
X126896858Y-96714571D01*
X126825429Y-97428857D01*
X126896858Y-97357429D01*
X127039715Y-97286000D01*
X127396858Y-97286000D01*
X127539715Y-97357429D01*
X127611144Y-97428857D01*
X127682572Y-97571714D01*
X127682572Y-97928857D01*
X127611144Y-98071714D01*
X127539715Y-98143143D01*
X127396858Y-98214571D01*
X127039715Y-98214571D01*
X126896858Y-98143143D01*
X126825429Y-98071714D01*
X123729715Y-97214571D02*
X123729715Y-98214571D01*
X123372572Y-96643143D02*
X123015429Y-97714571D01*
X123944001Y-97714571D01*
X126754001Y-94123771D02*
X127682572Y-94123771D01*
X127182572Y-94695200D01*
X127396858Y-94695200D01*
X127539715Y-94766629D01*
X127611144Y-94838057D01*
X127682572Y-94980914D01*
X127682572Y-95338057D01*
X127611144Y-95480914D01*
X127539715Y-95552343D01*
X127396858Y-95623771D01*
X126968286Y-95623771D01*
X126825429Y-95552343D01*
X126754001Y-95480914D01*
X123015429Y-94419029D02*
X123086858Y-94347600D01*
X123229715Y-94276171D01*
X123586858Y-94276171D01*
X123729715Y-94347600D01*
X123801144Y-94419029D01*
X123872572Y-94561886D01*
X123872572Y-94704743D01*
X123801144Y-94919029D01*
X122944001Y-95776171D01*
X123872572Y-95776171D01*
X127263543Y-100814914D02*
X127192114Y-100886343D01*
X126977828Y-100957771D01*
X126834971Y-100957771D01*
X126620686Y-100886343D01*
X126477828Y-100743486D01*
X126406400Y-100600629D01*
X126334971Y-100314914D01*
X126334971Y-100100629D01*
X126406400Y-99814914D01*
X126477828Y-99672057D01*
X126620686Y-99529200D01*
X126834971Y-99457771D01*
X126977828Y-99457771D01*
X127192114Y-99529200D01*
X127263543Y-99600629D01*
X128620686Y-100957771D02*
X127906400Y-100957771D01*
X127906400Y-99457771D01*
X126263543Y-103243771D02*
X126263543Y-101743771D01*
X126263543Y-102458057D02*
X127120686Y-102458057D01*
X127120686Y-103243771D02*
X127120686Y-101743771D01*
X127763543Y-101886629D02*
X127834972Y-101815200D01*
X127977829Y-101743771D01*
X128334972Y-101743771D01*
X128477829Y-101815200D01*
X128549258Y-101886629D01*
X128620686Y-102029486D01*
X128620686Y-102172343D01*
X128549258Y-102386629D01*
X127692115Y-103243771D01*
X128620686Y-103243771D01*
X122265429Y-106925371D02*
X123194000Y-106925371D01*
X122694000Y-107496800D01*
X122908286Y-107496800D01*
X123051143Y-107568229D01*
X123122572Y-107639657D01*
X123194000Y-107782514D01*
X123194000Y-108139657D01*
X123122572Y-108282514D01*
X123051143Y-108353943D01*
X122908286Y-108425371D01*
X122479714Y-108425371D01*
X122336857Y-108353943D01*
X122265429Y-108282514D01*
X123836857Y-107639657D02*
X124336857Y-107639657D01*
X124551143Y-108425371D02*
X123836857Y-108425371D01*
X123836857Y-106925371D01*
X124551143Y-106925371D01*
X122301143Y-105834571D02*
X122301143Y-104334571D01*
X122301143Y-105048857D02*
X123158286Y-105048857D01*
X123158286Y-105834571D02*
X123158286Y-104334571D01*
X124658286Y-105834571D02*
X123801143Y-105834571D01*
X124229715Y-105834571D02*
X124229715Y-104334571D01*
X124086858Y-104548857D01*
X123944000Y-104691714D01*
X123801143Y-104763143D01*
X122301143Y-103396171D02*
X122301143Y-101896171D01*
X122301143Y-102610457D02*
X123158286Y-102610457D01*
X123158286Y-103396171D02*
X123158286Y-101896171D01*
X124515429Y-102396171D02*
X124515429Y-103396171D01*
X124158286Y-101824743D02*
X123801143Y-102896171D01*
X124729715Y-102896171D01*
X122560686Y-100957771D02*
X122560686Y-99457771D01*
X122917829Y-99457771D01*
X123132114Y-99529200D01*
X123274972Y-99672057D01*
X123346400Y-99814914D01*
X123417829Y-100100629D01*
X123417829Y-100314914D01*
X123346400Y-100600629D01*
X123274972Y-100743486D01*
X123132114Y-100886343D01*
X122917829Y-100957771D01*
X122560686Y-100957771D01*
X123989257Y-100529200D02*
X124703543Y-100529200D01*
X123846400Y-100957771D02*
X124346400Y-99457771D01*
X124846400Y-100957771D01*
X122729715Y-112597429D02*
X122586857Y-112526000D01*
X122515429Y-112454571D01*
X122444000Y-112311714D01*
X122444000Y-112240286D01*
X122515429Y-112097429D01*
X122586857Y-112026000D01*
X122729715Y-111954571D01*
X123015429Y-111954571D01*
X123158286Y-112026000D01*
X123229715Y-112097429D01*
X123301143Y-112240286D01*
X123301143Y-112311714D01*
X123229715Y-112454571D01*
X123158286Y-112526000D01*
X123015429Y-112597429D01*
X122729715Y-112597429D01*
X122586857Y-112668857D01*
X122515429Y-112740286D01*
X122444000Y-112883143D01*
X122444000Y-113168857D01*
X122515429Y-113311714D01*
X122586857Y-113383143D01*
X122729715Y-113454571D01*
X123015429Y-113454571D01*
X123158286Y-113383143D01*
X123229715Y-113311714D01*
X123301143Y-113168857D01*
X123301143Y-112883143D01*
X123229715Y-112740286D01*
X123158286Y-112668857D01*
X123015429Y-112597429D01*
X123729714Y-111954571D02*
X124586857Y-111954571D01*
X124158286Y-113454571D02*
X124158286Y-111954571D01*
X122372572Y-114545371D02*
X123372572Y-114545371D01*
X122729715Y-116045371D01*
X123729714Y-114545371D02*
X124586857Y-114545371D01*
X124158286Y-116045371D02*
X124158286Y-114545371D01*
X123184286Y-117128571D02*
X122898572Y-117128571D01*
X122755715Y-117200000D01*
X122684286Y-117271429D01*
X122541429Y-117485714D01*
X122470000Y-117771429D01*
X122470000Y-118342857D01*
X122541429Y-118485714D01*
X122612857Y-118557143D01*
X122755715Y-118628571D01*
X123041429Y-118628571D01*
X123184286Y-118557143D01*
X123255715Y-118485714D01*
X123327143Y-118342857D01*
X123327143Y-117985714D01*
X123255715Y-117842857D01*
X123184286Y-117771429D01*
X123041429Y-117700000D01*
X122755715Y-117700000D01*
X122612857Y-117771429D01*
X122541429Y-117842857D01*
X122470000Y-117985714D01*
X123755714Y-117128571D02*
X124612857Y-117128571D01*
X124184286Y-118628571D02*
X124184286Y-117128571D01*
X123158287Y-109516171D02*
X122444001Y-109516171D01*
X122372572Y-110230457D01*
X122444001Y-110159029D01*
X122586858Y-110087600D01*
X122944001Y-110087600D01*
X123086858Y-110159029D01*
X123158287Y-110230457D01*
X123229715Y-110373314D01*
X123229715Y-110730457D01*
X123158287Y-110873314D01*
X123086858Y-110944743D01*
X122944001Y-111016171D01*
X122586858Y-111016171D01*
X122444001Y-110944743D01*
X122372572Y-110873314D01*
X123658286Y-109516171D02*
X124158286Y-111016171D01*
X124658286Y-109516171D01*
X127120687Y-109516171D02*
X126406401Y-109516171D01*
X126334972Y-110230457D01*
X126406401Y-110159029D01*
X126549258Y-110087600D01*
X126906401Y-110087600D01*
X127049258Y-110159029D01*
X127120687Y-110230457D01*
X127192115Y-110373314D01*
X127192115Y-110730457D01*
X127120687Y-110873314D01*
X127049258Y-110944743D01*
X126906401Y-111016171D01*
X126549258Y-111016171D01*
X126406401Y-110944743D01*
X126334972Y-110873314D01*
X127620686Y-109516171D02*
X128120686Y-111016171D01*
X128620686Y-109516171D01*
X126665944Y-112597429D02*
X126523086Y-112526000D01*
X126451658Y-112454571D01*
X126380229Y-112311714D01*
X126380229Y-112240286D01*
X126451658Y-112097429D01*
X126523086Y-112026000D01*
X126665944Y-111954571D01*
X126951658Y-111954571D01*
X127094515Y-112026000D01*
X127165944Y-112097429D01*
X127237372Y-112240286D01*
X127237372Y-112311714D01*
X127165944Y-112454571D01*
X127094515Y-112526000D01*
X126951658Y-112597429D01*
X126665944Y-112597429D01*
X126523086Y-112668857D01*
X126451658Y-112740286D01*
X126380229Y-112883143D01*
X126380229Y-113168857D01*
X126451658Y-113311714D01*
X126523086Y-113383143D01*
X126665944Y-113454571D01*
X126951658Y-113454571D01*
X127094515Y-113383143D01*
X127165944Y-113311714D01*
X127237372Y-113168857D01*
X127237372Y-112883143D01*
X127165944Y-112740286D01*
X127094515Y-112668857D01*
X126951658Y-112597429D01*
X128737372Y-113454571D02*
X128237372Y-112740286D01*
X127880229Y-113454571D02*
X127880229Y-111954571D01*
X128451657Y-111954571D01*
X128594515Y-112026000D01*
X128665943Y-112097429D01*
X128737372Y-112240286D01*
X128737372Y-112454571D01*
X128665943Y-112597429D01*
X128594515Y-112668857D01*
X128451657Y-112740286D01*
X127880229Y-112740286D01*
X126308801Y-114545371D02*
X127308801Y-114545371D01*
X126665944Y-116045371D01*
X128737372Y-116045371D02*
X128237372Y-115331086D01*
X127880229Y-116045371D02*
X127880229Y-114545371D01*
X128451657Y-114545371D01*
X128594515Y-114616800D01*
X128665943Y-114688229D01*
X128737372Y-114831086D01*
X128737372Y-115045371D01*
X128665943Y-115188229D01*
X128594515Y-115259657D01*
X128451657Y-115331086D01*
X127880229Y-115331086D01*
X127105715Y-117148571D02*
X126820001Y-117148571D01*
X126677144Y-117220000D01*
X126605715Y-117291429D01*
X126462858Y-117505714D01*
X126391429Y-117791429D01*
X126391429Y-118362857D01*
X126462858Y-118505714D01*
X126534286Y-118577143D01*
X126677144Y-118648571D01*
X126962858Y-118648571D01*
X127105715Y-118577143D01*
X127177144Y-118505714D01*
X127248572Y-118362857D01*
X127248572Y-118005714D01*
X127177144Y-117862857D01*
X127105715Y-117791429D01*
X126962858Y-117720000D01*
X126677144Y-117720000D01*
X126534286Y-117791429D01*
X126462858Y-117862857D01*
X126391429Y-118005714D01*
X128748572Y-118648571D02*
X128248572Y-117934286D01*
X127891429Y-118648571D02*
X127891429Y-117148571D01*
X128462857Y-117148571D01*
X128605715Y-117220000D01*
X128677143Y-117291429D01*
X128748572Y-117434286D01*
X128748572Y-117648571D01*
X128677143Y-117791429D01*
X128605715Y-117862857D01*
X128462857Y-117934286D01*
X127891429Y-117934286D01*
D14*
X125425200Y-122072400D02*
X125425200Y-93726000D01*
D12*
X123229715Y-119726971D02*
X122515429Y-119726971D01*
X122444000Y-120441257D01*
X122515429Y-120369829D01*
X122658286Y-120298400D01*
X123015429Y-120298400D01*
X123158286Y-120369829D01*
X123229715Y-120441257D01*
X123301143Y-120584114D01*
X123301143Y-120941257D01*
X123229715Y-121084114D01*
X123158286Y-121155543D01*
X123015429Y-121226971D01*
X122658286Y-121226971D01*
X122515429Y-121155543D01*
X122444000Y-121084114D01*
X123729714Y-119726971D02*
X124586857Y-119726971D01*
X124158286Y-121226971D02*
X124158286Y-119726971D01*
X127165944Y-119726971D02*
X126451658Y-119726971D01*
X126380229Y-120441257D01*
X126451658Y-120369829D01*
X126594515Y-120298400D01*
X126951658Y-120298400D01*
X127094515Y-120369829D01*
X127165944Y-120441257D01*
X127237372Y-120584114D01*
X127237372Y-120941257D01*
X127165944Y-121084114D01*
X127094515Y-121155543D01*
X126951658Y-121226971D01*
X126594515Y-121226971D01*
X126451658Y-121155543D01*
X126380229Y-121084114D01*
X128737372Y-121226971D02*
X128237372Y-120512686D01*
X127880229Y-121226971D02*
X127880229Y-119726971D01*
X128451657Y-119726971D01*
X128594515Y-119798400D01*
X128665943Y-119869829D01*
X128737372Y-120012686D01*
X128737372Y-120226971D01*
X128665943Y-120369829D01*
X128594515Y-120441257D01*
X128451657Y-120512686D01*
X127880229Y-120512686D01*
X139514971Y-93602228D02*
X139514971Y-94459371D01*
X139514971Y-94030799D02*
X138014971Y-94030799D01*
X138229257Y-94173656D01*
X138372114Y-94316514D01*
X138443543Y-94459371D01*
X138111428Y-98727143D02*
X138325714Y-98798571D01*
X138682857Y-98798571D01*
X138825714Y-98727143D01*
X138897143Y-98655714D01*
X138968571Y-98512857D01*
X138968571Y-98370000D01*
X138897143Y-98227143D01*
X138825714Y-98155714D01*
X138682857Y-98084286D01*
X138397143Y-98012857D01*
X138254285Y-97941429D01*
X138182857Y-97870000D01*
X138111428Y-97727143D01*
X138111428Y-97584286D01*
X138182857Y-97441429D01*
X138254285Y-97370000D01*
X138397143Y-97298571D01*
X138754285Y-97298571D01*
X138968571Y-97370000D01*
X139468571Y-97298571D02*
X139825714Y-98798571D01*
X140111428Y-97727143D01*
X140397142Y-98798571D01*
X140754285Y-97298571D01*
X141325714Y-98798571D02*
X141325714Y-97298571D01*
X141682857Y-97298571D01*
X141897142Y-97370000D01*
X142040000Y-97512857D01*
X142111428Y-97655714D01*
X142182857Y-97941429D01*
X142182857Y-98155714D01*
X142111428Y-98441429D01*
X142040000Y-98584286D01*
X141897142Y-98727143D01*
X141682857Y-98798571D01*
X141325714Y-98798571D01*
X142825714Y-98798571D02*
X142825714Y-97298571D01*
X143825714Y-97298571D02*
X144111428Y-97298571D01*
X144254286Y-97370000D01*
X144397143Y-97512857D01*
X144468571Y-97798571D01*
X144468571Y-98298571D01*
X144397143Y-98584286D01*
X144254286Y-98727143D01*
X144111428Y-98798571D01*
X143825714Y-98798571D01*
X143682857Y-98727143D01*
X143540000Y-98584286D01*
X143468571Y-98298571D01*
X143468571Y-97798571D01*
X143540000Y-97512857D01*
X143682857Y-97370000D01*
X143825714Y-97298571D01*
X143044171Y-94519999D02*
X143044171Y-93591428D01*
X143615600Y-94091428D01*
X143615600Y-93877142D01*
X143687029Y-93734285D01*
X143758457Y-93662856D01*
X143901314Y-93591428D01*
X144258457Y-93591428D01*
X144401314Y-93662856D01*
X144472743Y-93734285D01*
X144544171Y-93877142D01*
X144544171Y-94305714D01*
X144472743Y-94448571D01*
X144401314Y-94519999D01*
X145777829Y-94459371D02*
X145706400Y-94387942D01*
X145634971Y-94245085D01*
X145634971Y-93887942D01*
X145706400Y-93745085D01*
X145777829Y-93673656D01*
X145920686Y-93602228D01*
X146063543Y-93602228D01*
X146277829Y-93673656D01*
X147134971Y-94530799D01*
X147134971Y-93602228D01*
X149725771Y-93602228D02*
X149725771Y-94459371D01*
X149725771Y-94030799D02*
X148225771Y-94030799D01*
X148440057Y-94173656D01*
X148582914Y-94316514D01*
X148654343Y-94459371D01*
X146437143Y-98707143D02*
X146651429Y-98778571D01*
X147008572Y-98778571D01*
X147151429Y-98707143D01*
X147222858Y-98635714D01*
X147294286Y-98492857D01*
X147294286Y-98350000D01*
X147222858Y-98207143D01*
X147151429Y-98135714D01*
X147008572Y-98064286D01*
X146722858Y-97992857D01*
X146580000Y-97921429D01*
X146508572Y-97850000D01*
X146437143Y-97707143D01*
X146437143Y-97564286D01*
X146508572Y-97421429D01*
X146580000Y-97350000D01*
X146722858Y-97278571D01*
X147080000Y-97278571D01*
X147294286Y-97350000D01*
X147794286Y-97278571D02*
X148151429Y-98778571D01*
X148437143Y-97707143D01*
X148722857Y-98778571D01*
X149080000Y-97278571D01*
X150508572Y-98635714D02*
X150437143Y-98707143D01*
X150222857Y-98778571D01*
X150080000Y-98778571D01*
X149865715Y-98707143D01*
X149722857Y-98564286D01*
X149651429Y-98421429D01*
X149580000Y-98135714D01*
X149580000Y-97921429D01*
X149651429Y-97635714D01*
X149722857Y-97492857D01*
X149865715Y-97350000D01*
X150080000Y-97278571D01*
X150222857Y-97278571D01*
X150437143Y-97350000D01*
X150508572Y-97421429D01*
X151865715Y-98778571D02*
X151151429Y-98778571D01*
X151151429Y-97278571D01*
X152365715Y-98778571D02*
X152365715Y-97278571D01*
X153222858Y-98778571D02*
X152580001Y-97921429D01*
X153222858Y-97278571D02*
X152365715Y-98135714D01*
X139124571Y-121900914D02*
X140124571Y-121900914D01*
X138553143Y-122258057D02*
X139624571Y-122615200D01*
X139624571Y-121686628D01*
X138624571Y-121329486D02*
X138624571Y-120472343D01*
X140124571Y-120900914D02*
X138624571Y-120900914D01*
X141562971Y-122079485D02*
X142562971Y-122079485D01*
X140991543Y-122436628D02*
X142062971Y-122793771D01*
X142062971Y-121865199D01*
X142562971Y-120436628D02*
X141848686Y-120936628D01*
X142562971Y-121293771D02*
X141062971Y-121293771D01*
X141062971Y-120722343D01*
X141134400Y-120579485D01*
X141205829Y-120508057D01*
X141348686Y-120436628D01*
X141562971Y-120436628D01*
X141705829Y-120508057D01*
X141777257Y-120579485D01*
X141848686Y-120722343D01*
X141848686Y-121293771D01*
X143653771Y-122686628D02*
X143653771Y-121758057D01*
X144225200Y-122258057D01*
X144225200Y-122043771D01*
X144296629Y-121900914D01*
X144368057Y-121829485D01*
X144510914Y-121758057D01*
X144868057Y-121758057D01*
X145010914Y-121829485D01*
X145082343Y-121900914D01*
X145153771Y-122043771D01*
X145153771Y-122472343D01*
X145082343Y-122615200D01*
X145010914Y-122686628D01*
X143653771Y-121329486D02*
X143653771Y-120472343D01*
X145153771Y-120900914D02*
X143653771Y-120900914D01*
X146092171Y-122865199D02*
X146092171Y-121936628D01*
X146663600Y-122436628D01*
X146663600Y-122222342D01*
X146735029Y-122079485D01*
X146806457Y-122008056D01*
X146949314Y-121936628D01*
X147306457Y-121936628D01*
X147449314Y-122008056D01*
X147520743Y-122079485D01*
X147592171Y-122222342D01*
X147592171Y-122650914D01*
X147520743Y-122793771D01*
X147449314Y-122865199D01*
X147592171Y-120436628D02*
X146877886Y-120936628D01*
X147592171Y-121293771D02*
X146092171Y-121293771D01*
X146092171Y-120722343D01*
X146163600Y-120579485D01*
X146235029Y-120508057D01*
X146377886Y-120436628D01*
X146592171Y-120436628D01*
X146735029Y-120508057D01*
X146806457Y-120579485D01*
X146877886Y-120722343D01*
X146877886Y-121293771D01*
X148825829Y-122615200D02*
X148754400Y-122543771D01*
X148682971Y-122400914D01*
X148682971Y-122043771D01*
X148754400Y-121900914D01*
X148825829Y-121829485D01*
X148968686Y-121758057D01*
X149111543Y-121758057D01*
X149325829Y-121829485D01*
X150182971Y-122686628D01*
X150182971Y-121758057D01*
X148682971Y-121329486D02*
X148682971Y-120472343D01*
X150182971Y-120900914D02*
X148682971Y-120900914D01*
X151264229Y-122793771D02*
X151192800Y-122722342D01*
X151121371Y-122579485D01*
X151121371Y-122222342D01*
X151192800Y-122079485D01*
X151264229Y-122008056D01*
X151407086Y-121936628D01*
X151549943Y-121936628D01*
X151764229Y-122008056D01*
X152621371Y-122865199D01*
X152621371Y-121936628D01*
X152621371Y-120436628D02*
X151907086Y-120936628D01*
X152621371Y-121293771D02*
X151121371Y-121293771D01*
X151121371Y-120722343D01*
X151192800Y-120579485D01*
X151264229Y-120508057D01*
X151407086Y-120436628D01*
X151621371Y-120436628D01*
X151764229Y-120508057D01*
X151835657Y-120579485D01*
X151907086Y-120722343D01*
X151907086Y-121293771D01*
X155212171Y-121758057D02*
X155212171Y-122615200D01*
X155212171Y-122186628D02*
X153712171Y-122186628D01*
X153926457Y-122329485D01*
X154069314Y-122472343D01*
X154140743Y-122615200D01*
X153712171Y-121329486D02*
X153712171Y-120472343D01*
X155212171Y-120900914D02*
X153712171Y-120900914D01*
X157650571Y-121936628D02*
X157650571Y-122793771D01*
X157650571Y-122365199D02*
X156150571Y-122365199D01*
X156364857Y-122508056D01*
X156507714Y-122650914D01*
X156579143Y-122793771D01*
X157650571Y-120436628D02*
X156936286Y-120936628D01*
X157650571Y-121293771D02*
X156150571Y-121293771D01*
X156150571Y-120722343D01*
X156222000Y-120579485D01*
X156293429Y-120508057D01*
X156436286Y-120436628D01*
X156650571Y-120436628D01*
X156793429Y-120508057D01*
X156864857Y-120579485D01*
X156936286Y-120722343D01*
X156936286Y-121293771D01*
D13*
X159109620Y-94920560D02*
X159678580Y-94920560D01*
X159678580Y-94920560D02*
X159678580Y-94509080D01*
X164947700Y-98920560D02*
X165516660Y-98920560D01*
X165516660Y-98920560D02*
X165516660Y-98509080D01*
X159259620Y-97370560D02*
X159828580Y-97370560D01*
X159828580Y-97370560D02*
X159828580Y-96959080D01*
X158522000Y-123363200D02*
X156972000Y-123363200D01*
X158522000Y-124663200D02*
X158522000Y-123363200D01*
X157099000Y-128854200D02*
X157099000Y-134696200D01*
X157099000Y-134696200D02*
X156845000Y-134696200D01*
X156845000Y-134696200D02*
X156845000Y-128854200D01*
X156845000Y-128854200D02*
X156972000Y-128854200D01*
X156972000Y-128854200D02*
X156972000Y-134696200D01*
X139446000Y-126187200D02*
X139446000Y-125806200D01*
X138938000Y-126187200D02*
X138938000Y-125806200D01*
X157226000Y-126187200D02*
X157226000Y-125806200D01*
X156718000Y-126187200D02*
X156718000Y-125806200D01*
X154686000Y-126187200D02*
X154686000Y-125806200D01*
X154178000Y-126187200D02*
X154178000Y-125806200D01*
X152146000Y-126187200D02*
X152146000Y-125806200D01*
X151638000Y-126187200D02*
X151638000Y-125806200D01*
X141478000Y-126187200D02*
X141478000Y-125806200D01*
X141986000Y-126187200D02*
X141986000Y-125806200D01*
X144018000Y-126187200D02*
X144018000Y-125806200D01*
X144526000Y-126187200D02*
X144526000Y-125806200D01*
X146558000Y-126187200D02*
X146558000Y-125806200D01*
X147066000Y-126187200D02*
X147066000Y-125806200D01*
X149098000Y-126187200D02*
X149098000Y-125806200D01*
X149606000Y-126187200D02*
X149606000Y-125806200D01*
X143002000Y-126187200D02*
X143002000Y-128727200D01*
X143002000Y-126187200D02*
X140462000Y-126187200D01*
X140462000Y-126187200D02*
X140462000Y-128727200D01*
X141986000Y-128727200D02*
X141986000Y-134823200D01*
X141986000Y-134823200D02*
X141478000Y-134823200D01*
X141478000Y-134823200D02*
X141478000Y-128727200D01*
X140462000Y-128727200D02*
X143002000Y-128727200D01*
X137922000Y-128727200D02*
X140462000Y-128727200D01*
X138938000Y-134823200D02*
X138938000Y-128727200D01*
X139446000Y-134823200D02*
X138938000Y-134823200D01*
X139446000Y-128727200D02*
X139446000Y-134823200D01*
X140462000Y-126187200D02*
X137922000Y-126187200D01*
X140462000Y-126187200D02*
X140462000Y-128727200D01*
X137922000Y-126187200D02*
X137922000Y-128727200D01*
X158242000Y-126187200D02*
X158242000Y-128727200D01*
X155702000Y-126187200D02*
X155702000Y-128727200D01*
X155702000Y-126187200D02*
X153162000Y-126187200D01*
X153162000Y-126187200D02*
X153162000Y-128727200D01*
X154686000Y-128727200D02*
X154686000Y-134823200D01*
X154686000Y-134823200D02*
X154178000Y-134823200D01*
X154178000Y-134823200D02*
X154178000Y-128727200D01*
X153162000Y-128727200D02*
X155702000Y-128727200D01*
X155702000Y-128727200D02*
X158242000Y-128727200D01*
X156718000Y-134823200D02*
X156718000Y-128727200D01*
X157226000Y-134823200D02*
X156718000Y-134823200D01*
X157226000Y-128727200D02*
X157226000Y-134823200D01*
X155702000Y-126187200D02*
X155702000Y-128727200D01*
X158242000Y-126187200D02*
X155702000Y-126187200D01*
X148082000Y-126187200D02*
X148082000Y-128727200D01*
X148082000Y-126187200D02*
X145542000Y-126187200D01*
X145542000Y-126187200D02*
X145542000Y-128727200D01*
X147066000Y-128727200D02*
X147066000Y-134823200D01*
X147066000Y-134823200D02*
X146558000Y-134823200D01*
X146558000Y-134823200D02*
X146558000Y-128727200D01*
X145542000Y-128727200D02*
X148082000Y-128727200D01*
X143002000Y-128727200D02*
X145542000Y-128727200D01*
X144018000Y-134823200D02*
X144018000Y-128727200D01*
X144526000Y-134823200D02*
X144018000Y-134823200D01*
X144526000Y-128727200D02*
X144526000Y-134823200D01*
X143002000Y-126187200D02*
X143002000Y-128727200D01*
X145542000Y-126187200D02*
X143002000Y-126187200D01*
X145542000Y-126187200D02*
X145542000Y-128727200D01*
X150622000Y-126187200D02*
X150622000Y-128727200D01*
X150622000Y-126187200D02*
X148082000Y-126187200D01*
X148082000Y-126187200D02*
X148082000Y-128727200D01*
X149606000Y-128727200D02*
X149606000Y-134823200D01*
X149606000Y-134823200D02*
X149098000Y-134823200D01*
X149098000Y-134823200D02*
X149098000Y-128727200D01*
X148082000Y-128727200D02*
X150622000Y-128727200D01*
X150622000Y-128727200D02*
X153162000Y-128727200D01*
X151638000Y-134823200D02*
X151638000Y-128727200D01*
X152146000Y-134823200D02*
X151638000Y-134823200D01*
X152146000Y-128727200D02*
X152146000Y-134823200D01*
X150622000Y-126187200D02*
X150622000Y-128727200D01*
X153162000Y-126187200D02*
X150622000Y-126187200D01*
X153162000Y-126187200D02*
X153162000Y-128727200D01*
X137134000Y-92740000D02*
X138684000Y-92740000D01*
X137134000Y-91440000D02*
X137134000Y-92740000D01*
X138557000Y-87249000D02*
X138557000Y-81407000D01*
X138557000Y-81407000D02*
X138811000Y-81407000D01*
X138811000Y-81407000D02*
X138811000Y-87249000D01*
X138811000Y-87249000D02*
X138684000Y-87249000D01*
X138684000Y-87249000D02*
X138684000Y-81407000D01*
X138430000Y-89916000D02*
X138430000Y-90297000D01*
X138938000Y-89916000D02*
X138938000Y-90297000D01*
X140970000Y-89916000D02*
X140970000Y-90297000D01*
X141478000Y-89916000D02*
X141478000Y-90297000D01*
X143510000Y-89916000D02*
X143510000Y-90297000D01*
X144018000Y-89916000D02*
X144018000Y-90297000D01*
X151638000Y-89916000D02*
X151638000Y-90297000D01*
X151130000Y-89916000D02*
X151130000Y-90297000D01*
X149098000Y-89916000D02*
X149098000Y-90297000D01*
X148590000Y-89916000D02*
X148590000Y-90297000D01*
X146558000Y-89916000D02*
X146558000Y-90297000D01*
X146050000Y-89916000D02*
X146050000Y-90297000D01*
X137414000Y-89916000D02*
X137414000Y-87376000D01*
X139954000Y-89916000D02*
X139954000Y-87376000D01*
X139954000Y-89916000D02*
X142494000Y-89916000D01*
X142494000Y-89916000D02*
X142494000Y-87376000D01*
X140970000Y-87376000D02*
X140970000Y-81280000D01*
X140970000Y-81280000D02*
X141478000Y-81280000D01*
X141478000Y-81280000D02*
X141478000Y-87376000D01*
X142494000Y-87376000D02*
X139954000Y-87376000D01*
X139954000Y-87376000D02*
X137414000Y-87376000D01*
X138938000Y-81280000D02*
X138938000Y-87376000D01*
X138430000Y-81280000D02*
X138938000Y-81280000D01*
X138430000Y-87376000D02*
X138430000Y-81280000D01*
X139954000Y-89916000D02*
X139954000Y-87376000D01*
X137414000Y-89916000D02*
X139954000Y-89916000D01*
X147574000Y-89916000D02*
X147574000Y-87376000D01*
X147574000Y-89916000D02*
X150114000Y-89916000D01*
X150114000Y-89916000D02*
X150114000Y-87376000D01*
X148590000Y-87376000D02*
X148590000Y-81280000D01*
X148590000Y-81280000D02*
X149098000Y-81280000D01*
X149098000Y-81280000D02*
X149098000Y-87376000D01*
X150114000Y-87376000D02*
X147574000Y-87376000D01*
X152654000Y-87376000D02*
X150114000Y-87376000D01*
X151638000Y-81280000D02*
X151638000Y-87376000D01*
X151130000Y-81280000D02*
X151638000Y-81280000D01*
X151130000Y-87376000D02*
X151130000Y-81280000D01*
X152654000Y-89916000D02*
X152654000Y-87376000D01*
X150114000Y-89916000D02*
X152654000Y-89916000D01*
X150114000Y-89916000D02*
X150114000Y-87376000D01*
X145034000Y-89916000D02*
X145034000Y-87376000D01*
X145034000Y-89916000D02*
X147574000Y-89916000D01*
X147574000Y-89916000D02*
X147574000Y-87376000D01*
X146050000Y-87376000D02*
X146050000Y-81280000D01*
X146050000Y-81280000D02*
X146558000Y-81280000D01*
X146558000Y-81280000D02*
X146558000Y-87376000D01*
X147574000Y-87376000D02*
X145034000Y-87376000D01*
X145034000Y-87376000D02*
X142494000Y-87376000D01*
X144018000Y-81280000D02*
X144018000Y-87376000D01*
X143510000Y-81280000D02*
X144018000Y-81280000D01*
X143510000Y-87376000D02*
X143510000Y-81280000D01*
X145034000Y-89916000D02*
X145034000Y-87376000D01*
X142494000Y-89916000D02*
X145034000Y-89916000D01*
X142494000Y-89916000D02*
X142494000Y-87376000D01*
X118872000Y-120650000D02*
X119380000Y-120650000D01*
X118872000Y-120142000D02*
X119380000Y-120142000D01*
X118872000Y-118110000D02*
X119380000Y-118110000D01*
X118872000Y-117602000D02*
X119380000Y-117602000D01*
X118872000Y-94742000D02*
X119380000Y-94742000D01*
X118872000Y-95250000D02*
X119380000Y-95250000D01*
X118872000Y-100330000D02*
X119380000Y-100330000D01*
X118872000Y-99822000D02*
X119380000Y-99822000D01*
X118872000Y-97790000D02*
X119380000Y-97790000D01*
X118872000Y-97282000D02*
X119380000Y-97282000D01*
X118872000Y-102362000D02*
X119380000Y-102362000D01*
X118872000Y-102870000D02*
X119380000Y-102870000D01*
X118872000Y-104902000D02*
X119380000Y-104902000D01*
X118872000Y-105410000D02*
X119380000Y-105410000D01*
X118872000Y-115570000D02*
X119380000Y-115570000D01*
X118872000Y-115062000D02*
X119380000Y-115062000D01*
X118872000Y-113030000D02*
X119380000Y-113030000D01*
X118872000Y-112522000D02*
X119380000Y-112522000D01*
X118872000Y-107442000D02*
X119380000Y-107442000D01*
X118872000Y-107950000D02*
X119380000Y-107950000D01*
X118872000Y-109982000D02*
X119380000Y-109982000D01*
X118872000Y-110490000D02*
X119380000Y-110490000D01*
X116332000Y-95250000D02*
X116840000Y-95250000D01*
X116332000Y-94742000D02*
X116840000Y-94742000D01*
X116332000Y-97282000D02*
X116840000Y-97282000D01*
X116332000Y-97790000D02*
X116840000Y-97790000D01*
X116332000Y-99822000D02*
X116840000Y-99822000D01*
X116332000Y-100330000D02*
X116840000Y-100330000D01*
X116332000Y-105410000D02*
X116840000Y-105410000D01*
X116332000Y-104902000D02*
X116840000Y-104902000D01*
X116332000Y-102870000D02*
X116840000Y-102870000D01*
X116332000Y-102362000D02*
X116840000Y-102362000D01*
X116332000Y-107442000D02*
X116840000Y-107442000D01*
X116332000Y-107950000D02*
X116840000Y-107950000D01*
X116332000Y-109982000D02*
X116840000Y-109982000D01*
X116332000Y-110490000D02*
X116840000Y-110490000D01*
X116332000Y-120650000D02*
X116840000Y-120650000D01*
X116332000Y-120142000D02*
X116840000Y-120142000D01*
X116332000Y-118110000D02*
X116840000Y-118110000D01*
X116332000Y-117602000D02*
X116840000Y-117602000D01*
X116332000Y-112522000D02*
X116840000Y-112522000D01*
X116332000Y-113030000D02*
X116840000Y-113030000D01*
X116332000Y-115062000D02*
X116840000Y-115062000D01*
X116332000Y-115570000D02*
X116840000Y-115570000D01*
X120396000Y-121946000D02*
X121546000Y-121946000D01*
X121546000Y-121946000D02*
X121546000Y-120396000D01*
X113792000Y-120523000D02*
X107823000Y-120523000D01*
X107823000Y-120523000D02*
X107823000Y-120269000D01*
X107823000Y-120269000D02*
X113665000Y-120269000D01*
X113665000Y-120269000D02*
X113665000Y-120396000D01*
X113665000Y-120396000D02*
X107823000Y-120396000D01*
X116332000Y-101346000D02*
X113792000Y-101346000D01*
X116332000Y-101346000D02*
X116332000Y-98806000D01*
X116332000Y-98806000D02*
X113792000Y-98806000D01*
X113792000Y-100330000D02*
X107696000Y-100330000D01*
X107696000Y-100330000D02*
X107696000Y-99822000D01*
X107696000Y-99822000D02*
X113792000Y-99822000D01*
X113792000Y-98806000D02*
X113792000Y-101346000D01*
X113792000Y-96266000D02*
X113792000Y-98806000D01*
X107696000Y-97282000D02*
X113792000Y-97282000D01*
X107696000Y-97790000D02*
X107696000Y-97282000D01*
X113792000Y-97790000D02*
X107696000Y-97790000D01*
X116332000Y-96266000D02*
X113792000Y-96266000D01*
X116332000Y-98806000D02*
X116332000Y-96266000D01*
X116332000Y-98806000D02*
X113792000Y-98806000D01*
X113792000Y-93726000D02*
X113792000Y-96266000D01*
X107696000Y-94742000D02*
X113792000Y-94742000D01*
X107696000Y-95250000D02*
X107696000Y-94742000D01*
X113792000Y-95250000D02*
X107696000Y-95250000D01*
X116332000Y-93726000D02*
X113792000Y-93726000D01*
X116332000Y-96266000D02*
X116332000Y-93726000D01*
X116332000Y-96266000D02*
X113792000Y-96266000D01*
X116332000Y-111506000D02*
X113792000Y-111506000D01*
X116332000Y-111506000D02*
X116332000Y-108966000D01*
X116332000Y-108966000D02*
X113792000Y-108966000D01*
X113792000Y-110490000D02*
X107696000Y-110490000D01*
X107696000Y-110490000D02*
X107696000Y-109982000D01*
X107696000Y-109982000D02*
X113792000Y-109982000D01*
X113792000Y-108966000D02*
X113792000Y-111506000D01*
X113792000Y-106426000D02*
X113792000Y-108966000D01*
X107696000Y-107442000D02*
X113792000Y-107442000D01*
X107696000Y-107950000D02*
X107696000Y-107442000D01*
X113792000Y-107950000D02*
X107696000Y-107950000D01*
X116332000Y-106426000D02*
X113792000Y-106426000D01*
X116332000Y-108966000D02*
X116332000Y-106426000D01*
X116332000Y-108966000D02*
X113792000Y-108966000D01*
X116332000Y-103886000D02*
X113792000Y-103886000D01*
X116332000Y-103886000D02*
X116332000Y-101346000D01*
X116332000Y-101346000D02*
X113792000Y-101346000D01*
X113792000Y-102870000D02*
X107696000Y-102870000D01*
X107696000Y-102870000D02*
X107696000Y-102362000D01*
X107696000Y-102362000D02*
X113792000Y-102362000D01*
X113792000Y-101346000D02*
X113792000Y-103886000D01*
X113792000Y-103886000D02*
X113792000Y-106426000D01*
X107696000Y-104902000D02*
X113792000Y-104902000D01*
X107696000Y-105410000D02*
X107696000Y-104902000D01*
X113792000Y-105410000D02*
X107696000Y-105410000D01*
X116332000Y-103886000D02*
X113792000Y-103886000D01*
X116332000Y-106426000D02*
X116332000Y-103886000D01*
X116332000Y-106426000D02*
X113792000Y-106426000D01*
X116332000Y-116586000D02*
X113792000Y-116586000D01*
X116332000Y-116586000D02*
X116332000Y-114046000D01*
X116332000Y-114046000D02*
X113792000Y-114046000D01*
X113792000Y-115570000D02*
X107696000Y-115570000D01*
X107696000Y-115570000D02*
X107696000Y-115062000D01*
X107696000Y-115062000D02*
X113792000Y-115062000D01*
X113792000Y-114046000D02*
X113792000Y-116586000D01*
X113792000Y-111506000D02*
X113792000Y-114046000D01*
X107696000Y-112522000D02*
X113792000Y-112522000D01*
X107696000Y-113030000D02*
X107696000Y-112522000D01*
X113792000Y-113030000D02*
X107696000Y-113030000D01*
X116332000Y-111506000D02*
X113792000Y-111506000D01*
X116332000Y-114046000D02*
X116332000Y-111506000D01*
X116332000Y-114046000D02*
X113792000Y-114046000D01*
X116332000Y-119126000D02*
X113792000Y-119126000D01*
X116332000Y-119126000D02*
X116332000Y-116586000D01*
X116332000Y-116586000D02*
X113792000Y-116586000D01*
X113792000Y-118110000D02*
X107696000Y-118110000D01*
X107696000Y-118110000D02*
X107696000Y-117602000D01*
X107696000Y-117602000D02*
X113792000Y-117602000D01*
X113792000Y-116586000D02*
X113792000Y-119126000D01*
X113792000Y-119126000D02*
X113792000Y-121666000D01*
X107696000Y-120142000D02*
X113792000Y-120142000D01*
X107696000Y-120650000D02*
X107696000Y-120142000D01*
X113792000Y-120650000D02*
X107696000Y-120650000D01*
X116332000Y-119126000D02*
X113792000Y-119126000D01*
X116332000Y-121666000D02*
X116332000Y-119126000D01*
X116332000Y-121666000D02*
X113792000Y-121666000D01*
X185928000Y-93929200D02*
X185420000Y-93929200D01*
X185928000Y-94437200D02*
X185420000Y-94437200D01*
X185928000Y-96469200D02*
X185420000Y-96469200D01*
X185928000Y-96977200D02*
X185420000Y-96977200D01*
X185928000Y-122377200D02*
X185420000Y-122377200D01*
X185928000Y-121869200D02*
X185420000Y-121869200D01*
X185928000Y-119837200D02*
X185420000Y-119837200D01*
X185928000Y-119329200D02*
X185420000Y-119329200D01*
X185928000Y-114249200D02*
X185420000Y-114249200D01*
X185928000Y-114757200D02*
X185420000Y-114757200D01*
X185928000Y-116789200D02*
X185420000Y-116789200D01*
X185928000Y-117297200D02*
X185420000Y-117297200D01*
X185928000Y-112217200D02*
X185420000Y-112217200D01*
X185928000Y-111709200D02*
X185420000Y-111709200D01*
X185928000Y-109677200D02*
X185420000Y-109677200D01*
X185928000Y-109169200D02*
X185420000Y-109169200D01*
X185928000Y-99009200D02*
X185420000Y-99009200D01*
X185928000Y-99517200D02*
X185420000Y-99517200D01*
X185928000Y-101549200D02*
X185420000Y-101549200D01*
X185928000Y-102057200D02*
X185420000Y-102057200D01*
X185928000Y-107137200D02*
X185420000Y-107137200D01*
X185928000Y-106629200D02*
X185420000Y-106629200D01*
X185928000Y-104597200D02*
X185420000Y-104597200D01*
X185928000Y-104089200D02*
X185420000Y-104089200D01*
X188468000Y-119329200D02*
X187960000Y-119329200D01*
X188468000Y-119837200D02*
X187960000Y-119837200D01*
X188468000Y-121869200D02*
X187960000Y-121869200D01*
X188468000Y-122377200D02*
X187960000Y-122377200D01*
X188468000Y-117297200D02*
X187960000Y-117297200D01*
X188468000Y-116789200D02*
X187960000Y-116789200D01*
X188468000Y-114757200D02*
X187960000Y-114757200D01*
X188468000Y-114249200D02*
X187960000Y-114249200D01*
X188468000Y-109169200D02*
X187960000Y-109169200D01*
X188468000Y-109677200D02*
X187960000Y-109677200D01*
X188468000Y-111709200D02*
X187960000Y-111709200D01*
X188468000Y-112217200D02*
X187960000Y-112217200D01*
X188468000Y-107137200D02*
X187960000Y-107137200D01*
X188468000Y-106629200D02*
X187960000Y-106629200D01*
X188468000Y-104597200D02*
X187960000Y-104597200D01*
X188468000Y-104089200D02*
X187960000Y-104089200D01*
X188468000Y-93929200D02*
X187960000Y-93929200D01*
X188468000Y-94437200D02*
X187960000Y-94437200D01*
X188468000Y-96469200D02*
X187960000Y-96469200D01*
X188468000Y-96977200D02*
X187960000Y-96977200D01*
X188468000Y-102057200D02*
X187960000Y-102057200D01*
X188468000Y-101549200D02*
X187960000Y-101549200D01*
X188468000Y-99517200D02*
X187960000Y-99517200D01*
X188468000Y-99009200D02*
X187960000Y-99009200D01*
X184404000Y-92633200D02*
X183254000Y-92633200D01*
X183254000Y-92633200D02*
X183254000Y-94183200D01*
X191008000Y-94056200D02*
X196977000Y-94056200D01*
X196977000Y-94056200D02*
X196977000Y-94310200D01*
X196977000Y-94310200D02*
X191135000Y-94310200D01*
X191135000Y-94310200D02*
X191135000Y-94183200D01*
X191135000Y-94183200D02*
X196977000Y-94183200D01*
X188468000Y-113233200D02*
X191008000Y-113233200D01*
X188468000Y-113233200D02*
X188468000Y-115773200D01*
X188468000Y-115773200D02*
X191008000Y-115773200D01*
X191008000Y-114249200D02*
X197104000Y-114249200D01*
X197104000Y-114249200D02*
X197104000Y-114757200D01*
X197104000Y-114757200D02*
X191008000Y-114757200D01*
X191008000Y-115773200D02*
X191008000Y-113233200D01*
X191008000Y-118313200D02*
X191008000Y-115773200D01*
X197104000Y-117297200D02*
X191008000Y-117297200D01*
X197104000Y-116789200D02*
X197104000Y-117297200D01*
X191008000Y-116789200D02*
X197104000Y-116789200D01*
X188468000Y-118313200D02*
X191008000Y-118313200D01*
X188468000Y-115773200D02*
X188468000Y-118313200D01*
X188468000Y-115773200D02*
X191008000Y-115773200D01*
X188468000Y-120853200D02*
X191008000Y-120853200D01*
X188468000Y-120853200D02*
X188468000Y-123393200D01*
X191008000Y-121869200D02*
X197104000Y-121869200D01*
X197104000Y-121869200D02*
X197104000Y-122377200D01*
X197104000Y-122377200D02*
X191008000Y-122377200D01*
X191008000Y-123393200D02*
X191008000Y-120853200D01*
X191008000Y-120853200D02*
X191008000Y-118313200D01*
X197104000Y-119837200D02*
X191008000Y-119837200D01*
X197104000Y-119329200D02*
X197104000Y-119837200D01*
X191008000Y-119329200D02*
X197104000Y-119329200D01*
X188468000Y-120853200D02*
X191008000Y-120853200D01*
X188468000Y-118313200D02*
X188468000Y-120853200D01*
X188468000Y-118313200D02*
X191008000Y-118313200D01*
X188468000Y-123393200D02*
X191008000Y-123393200D01*
X188468000Y-103073200D02*
X191008000Y-103073200D01*
X188468000Y-103073200D02*
X188468000Y-105613200D01*
X188468000Y-105613200D02*
X191008000Y-105613200D01*
X191008000Y-104089200D02*
X197104000Y-104089200D01*
X197104000Y-104089200D02*
X197104000Y-104597200D01*
X197104000Y-104597200D02*
X191008000Y-104597200D01*
X191008000Y-105613200D02*
X191008000Y-103073200D01*
X191008000Y-108153200D02*
X191008000Y-105613200D01*
X197104000Y-107137200D02*
X191008000Y-107137200D01*
X197104000Y-106629200D02*
X197104000Y-107137200D01*
X191008000Y-106629200D02*
X197104000Y-106629200D01*
X188468000Y-108153200D02*
X191008000Y-108153200D01*
X188468000Y-105613200D02*
X188468000Y-108153200D01*
X188468000Y-105613200D02*
X191008000Y-105613200D01*
X188468000Y-110693200D02*
X191008000Y-110693200D01*
X188468000Y-110693200D02*
X188468000Y-113233200D01*
X188468000Y-113233200D02*
X191008000Y-113233200D01*
X191008000Y-111709200D02*
X197104000Y-111709200D01*
X197104000Y-111709200D02*
X197104000Y-112217200D01*
X197104000Y-112217200D02*
X191008000Y-112217200D01*
X191008000Y-113233200D02*
X191008000Y-110693200D01*
X191008000Y-110693200D02*
X191008000Y-108153200D01*
X197104000Y-109677200D02*
X191008000Y-109677200D01*
X197104000Y-109169200D02*
X197104000Y-109677200D01*
X191008000Y-109169200D02*
X197104000Y-109169200D01*
X188468000Y-110693200D02*
X191008000Y-110693200D01*
X188468000Y-108153200D02*
X188468000Y-110693200D01*
X188468000Y-108153200D02*
X191008000Y-108153200D01*
X188468000Y-97993200D02*
X191008000Y-97993200D01*
X188468000Y-97993200D02*
X188468000Y-100533200D01*
X188468000Y-100533200D02*
X191008000Y-100533200D01*
X191008000Y-99009200D02*
X197104000Y-99009200D01*
X197104000Y-99009200D02*
X197104000Y-99517200D01*
X197104000Y-99517200D02*
X191008000Y-99517200D01*
X191008000Y-100533200D02*
X191008000Y-97993200D01*
X191008000Y-103073200D02*
X191008000Y-100533200D01*
X197104000Y-102057200D02*
X191008000Y-102057200D01*
X197104000Y-101549200D02*
X197104000Y-102057200D01*
X191008000Y-101549200D02*
X197104000Y-101549200D01*
X188468000Y-103073200D02*
X191008000Y-103073200D01*
X188468000Y-100533200D02*
X188468000Y-103073200D01*
X188468000Y-100533200D02*
X191008000Y-100533200D01*
X188468000Y-95453200D02*
X191008000Y-95453200D01*
X188468000Y-95453200D02*
X188468000Y-97993200D01*
X188468000Y-97993200D02*
X191008000Y-97993200D01*
X191008000Y-96469200D02*
X197104000Y-96469200D01*
X197104000Y-96469200D02*
X197104000Y-96977200D01*
X197104000Y-96977200D02*
X191008000Y-96977200D01*
X191008000Y-97993200D02*
X191008000Y-95453200D01*
X191008000Y-95453200D02*
X191008000Y-92913200D01*
X197104000Y-94437200D02*
X191008000Y-94437200D01*
X197104000Y-93929200D02*
X197104000Y-94437200D01*
X191008000Y-93929200D02*
X197104000Y-93929200D01*
X188468000Y-95453200D02*
X191008000Y-95453200D01*
X188468000Y-92913200D02*
X188468000Y-95453200D01*
X188468000Y-92913200D02*
X191008000Y-92913200D01*
X173736000Y-92202000D02*
X173736000Y-92710000D01*
X173228000Y-92202000D02*
X173228000Y-92710000D01*
X171196000Y-92202000D02*
X171196000Y-92710000D01*
X170688000Y-92202000D02*
X170688000Y-92710000D01*
X168656000Y-92202000D02*
X168656000Y-92710000D01*
X168148000Y-92202000D02*
X168148000Y-92710000D01*
X170688000Y-89662000D02*
X170688000Y-90170000D01*
X171196000Y-89662000D02*
X171196000Y-90170000D01*
X173228000Y-89662000D02*
X173228000Y-90170000D01*
X173736000Y-89662000D02*
X173736000Y-90170000D01*
X168148000Y-89662000D02*
X168148000Y-90170000D01*
X168656000Y-89662000D02*
X168656000Y-90170000D01*
X166852000Y-93726000D02*
X166852000Y-94876000D01*
X166852000Y-94876000D02*
X168402000Y-94876000D01*
X168275000Y-87122000D02*
X168275000Y-81153000D01*
X168275000Y-81153000D02*
X168529000Y-81153000D01*
X168529000Y-81153000D02*
X168529000Y-86995000D01*
X168529000Y-86995000D02*
X168402000Y-86995000D01*
X168402000Y-86995000D02*
X168402000Y-81153000D01*
X169672000Y-89662000D02*
X172212000Y-89662000D01*
X172212000Y-89662000D02*
X172212000Y-87122000D01*
X170688000Y-87122000D02*
X170688000Y-81026000D01*
X170688000Y-81026000D02*
X171196000Y-81026000D01*
X171196000Y-81026000D02*
X171196000Y-87122000D01*
X172212000Y-87122000D02*
X169672000Y-87122000D01*
X174752000Y-89662000D02*
X174752000Y-87122000D01*
X174752000Y-87122000D02*
X172212000Y-87122000D01*
X173736000Y-81026000D02*
X173736000Y-87122000D01*
X173228000Y-81026000D02*
X173736000Y-81026000D01*
X173228000Y-87122000D02*
X173228000Y-81026000D01*
X174752000Y-89662000D02*
X174752000Y-87122000D01*
X172212000Y-89662000D02*
X174752000Y-89662000D01*
X172212000Y-89662000D02*
X172212000Y-87122000D01*
X169672000Y-89662000D02*
X169672000Y-87122000D01*
X169672000Y-87122000D02*
X167132000Y-87122000D01*
X168656000Y-81026000D02*
X168656000Y-87122000D01*
X168148000Y-81026000D02*
X168656000Y-81026000D01*
X168148000Y-87122000D02*
X168148000Y-81026000D01*
X169672000Y-89662000D02*
X169672000Y-87122000D01*
X167132000Y-89662000D02*
X169672000Y-89662000D01*
X167132000Y-89662000D02*
X167132000Y-87122000D01*
X168402000Y-123748800D02*
X168402000Y-123240800D01*
X168910000Y-123748800D02*
X168910000Y-123240800D01*
X170942000Y-123748800D02*
X170942000Y-123240800D01*
X171450000Y-123748800D02*
X171450000Y-123240800D01*
X173482000Y-123748800D02*
X173482000Y-123240800D01*
X173990000Y-123748800D02*
X173990000Y-123240800D01*
X171450000Y-126288800D02*
X171450000Y-125780800D01*
X170942000Y-126288800D02*
X170942000Y-125780800D01*
X168910000Y-126288800D02*
X168910000Y-125780800D01*
X168402000Y-126288800D02*
X168402000Y-125780800D01*
X173990000Y-126288800D02*
X173990000Y-125780800D01*
X173482000Y-126288800D02*
X173482000Y-125780800D01*
X175286000Y-122224800D02*
X175286000Y-121074800D01*
X175286000Y-121074800D02*
X173736000Y-121074800D01*
X173863000Y-128828800D02*
X173863000Y-134797800D01*
X173863000Y-134797800D02*
X173609000Y-134797800D01*
X173609000Y-134797800D02*
X173609000Y-128955800D01*
X173609000Y-128955800D02*
X173736000Y-128955800D01*
X173736000Y-128955800D02*
X173736000Y-134797800D01*
X172466000Y-126288800D02*
X169926000Y-126288800D01*
X169926000Y-126288800D02*
X169926000Y-128828800D01*
X171450000Y-128828800D02*
X171450000Y-134924800D01*
X171450000Y-134924800D02*
X170942000Y-134924800D01*
X170942000Y-134924800D02*
X170942000Y-128828800D01*
X169926000Y-128828800D02*
X172466000Y-128828800D01*
X167386000Y-126288800D02*
X167386000Y-128828800D01*
X167386000Y-128828800D02*
X169926000Y-128828800D01*
X168402000Y-134924800D02*
X168402000Y-128828800D01*
X168910000Y-134924800D02*
X168402000Y-134924800D01*
X168910000Y-128828800D02*
X168910000Y-134924800D01*
X167386000Y-126288800D02*
X167386000Y-128828800D01*
X169926000Y-126288800D02*
X167386000Y-126288800D01*
X169926000Y-126288800D02*
X169926000Y-128828800D01*
X172466000Y-126288800D02*
X172466000Y-128828800D01*
X172466000Y-128828800D02*
X175006000Y-128828800D01*
X173482000Y-134924800D02*
X173482000Y-128828800D01*
X173990000Y-134924800D02*
X173482000Y-134924800D01*
X173990000Y-128828800D02*
X173990000Y-134924800D01*
X172466000Y-126288800D02*
X172466000Y-128828800D01*
X175006000Y-126288800D02*
X172466000Y-126288800D01*
X175006000Y-126288800D02*
X175006000Y-128828800D01*
X127550000Y-125001200D02*
X127550000Y-123101200D01*
X126450000Y-125001200D02*
X126450000Y-123101200D01*
X127000000Y-124101200D02*
X127000000Y-123651200D01*
X126750000Y-124151200D02*
X127250000Y-124151200D01*
X127000000Y-124151200D02*
X126750000Y-123901200D01*
X126750000Y-123901200D02*
X127250000Y-123901200D01*
X127250000Y-123901200D02*
X127000000Y-124151200D01*
X124550000Y-125013900D02*
X124550000Y-123113900D01*
X123450000Y-125013900D02*
X123450000Y-123113900D01*
X124000000Y-124113900D02*
X124000000Y-123663900D01*
X123750000Y-124163900D02*
X124250000Y-124163900D01*
X124000000Y-124163900D02*
X123750000Y-123913900D01*
X123750000Y-123913900D02*
X124250000Y-123913900D01*
X124250000Y-123913900D02*
X124000000Y-124163900D01*
X121550000Y-125100000D02*
X121550000Y-123200000D01*
X120450000Y-125100000D02*
X120450000Y-123200000D01*
X121000000Y-124200000D02*
X121000000Y-123750000D01*
X120750000Y-124250000D02*
X121250000Y-124250000D01*
X121000000Y-124250000D02*
X120750000Y-124000000D01*
X120750000Y-124000000D02*
X121250000Y-124000000D01*
X121250000Y-124000000D02*
X121000000Y-124250000D01*
X138597000Y-117762400D02*
X138597000Y-118762400D01*
X137247000Y-118762400D02*
X137247000Y-117762400D01*
X141295000Y-117790000D02*
X141295000Y-118790000D01*
X139945000Y-118790000D02*
X139945000Y-117790000D01*
X143931000Y-117795600D02*
X143931000Y-118795600D01*
X142581000Y-118795600D02*
X142581000Y-117795600D01*
D15*
G36*
X148854710Y-116809742D02*
X148888065Y-116810711D01*
X148911653Y-116812228D01*
X148991789Y-116821955D01*
X149073758Y-116837253D01*
X149155701Y-116857681D01*
X149235758Y-116882796D01*
X149283541Y-116900493D01*
X149326347Y-116917482D01*
X149368596Y-116934539D01*
X149410667Y-116951839D01*
X149452939Y-116969558D01*
X149495789Y-116987874D01*
X149539595Y-117006961D01*
X149584736Y-117026995D01*
X149631589Y-117048154D01*
X149680533Y-117070612D01*
X149731945Y-117094546D01*
X149786204Y-117120132D01*
X149843687Y-117147546D01*
X149904774Y-117176964D01*
X149969841Y-117208562D01*
X150039268Y-117242517D01*
X150113431Y-117279003D01*
X150192710Y-117318198D01*
X150277481Y-117360277D01*
X150368124Y-117405417D01*
X150372153Y-117407426D01*
X150451946Y-117447125D01*
X150526001Y-117483758D01*
X150594816Y-117517553D01*
X150658891Y-117548740D01*
X150718725Y-117577551D01*
X150774817Y-117604213D01*
X150827666Y-117628957D01*
X150877772Y-117652014D01*
X150925634Y-117673612D01*
X150971750Y-117693982D01*
X151016621Y-117713354D01*
X151060745Y-117731956D01*
X151104621Y-117750021D01*
X151148749Y-117767776D01*
X151190598Y-117784269D01*
X151214243Y-117793530D01*
X151235881Y-117802058D01*
X151254594Y-117809487D01*
X151269464Y-117815450D01*
X151279573Y-117819583D01*
X151283972Y-117821501D01*
X151284988Y-117823865D01*
X151282632Y-117828645D01*
X151276411Y-117836483D01*
X151265837Y-117848023D01*
X151255750Y-117858474D01*
X151198555Y-117912600D01*
X151134755Y-117964757D01*
X151064551Y-118014846D01*
X150988140Y-118062769D01*
X150905723Y-118108425D01*
X150817498Y-118151717D01*
X150723665Y-118192546D01*
X150624422Y-118230812D01*
X150519969Y-118266417D01*
X150410504Y-118299262D01*
X150319236Y-118323540D01*
X150211653Y-118349136D01*
X150109570Y-118370398D01*
X150012918Y-118387325D01*
X149921629Y-118399916D01*
X149835636Y-118408170D01*
X149754870Y-118412088D01*
X149679264Y-118411668D01*
X149608748Y-118406910D01*
X149543256Y-118397814D01*
X149482719Y-118384378D01*
X149427069Y-118366602D01*
X149376237Y-118344486D01*
X149330157Y-118318029D01*
X149325283Y-118314792D01*
X149306567Y-118300712D01*
X149285977Y-118282815D01*
X149265462Y-118262989D01*
X149246975Y-118243121D01*
X149232467Y-118225098D01*
X149232249Y-118224796D01*
X149210643Y-118189690D01*
X149192364Y-118149925D01*
X149178068Y-118107369D01*
X149168407Y-118063891D01*
X149164563Y-118031322D01*
X149162125Y-117996075D01*
X149096861Y-117990151D01*
X149075600Y-117988247D01*
X149056304Y-117986565D01*
X149040259Y-117985215D01*
X149028751Y-117984305D01*
X149023228Y-117983947D01*
X149017499Y-117983127D01*
X149017862Y-117980173D01*
X149019700Y-117977780D01*
X149022206Y-117974046D01*
X149020247Y-117973062D01*
X149012652Y-117974302D01*
X149012195Y-117974395D01*
X148983402Y-117980018D01*
X148949443Y-117986305D01*
X148912141Y-117992942D01*
X148873316Y-117999618D01*
X148834791Y-118006019D01*
X148798388Y-118011832D01*
X148765929Y-118016745D01*
X148763486Y-118017100D01*
X148682912Y-118027996D01*
X148608021Y-118036419D01*
X148537880Y-118042343D01*
X148471555Y-118045744D01*
X148408112Y-118046596D01*
X148346617Y-118044874D01*
X148286137Y-118040552D01*
X148225738Y-118033606D01*
X148164486Y-118024011D01*
X148101447Y-118011741D01*
X148039022Y-117997576D01*
X148018781Y-117992551D01*
X147996071Y-117986658D01*
X147971883Y-117980181D01*
X147947209Y-117973404D01*
X147923040Y-117966608D01*
X147900368Y-117960079D01*
X147880185Y-117954099D01*
X147863483Y-117948952D01*
X147851254Y-117944921D01*
X147844488Y-117942289D01*
X147843566Y-117941724D01*
X147842791Y-117937976D01*
X147841361Y-117928155D01*
X147839385Y-117913201D01*
X147836971Y-117894055D01*
X147834230Y-117871658D01*
X147831271Y-117846950D01*
X147828203Y-117820871D01*
X147825135Y-117794363D01*
X147822177Y-117768366D01*
X147819438Y-117743821D01*
X147817027Y-117721668D01*
X147815053Y-117702848D01*
X147813626Y-117688301D01*
X147812856Y-117678969D01*
X147812750Y-117676513D01*
X147815981Y-117674892D01*
X147824738Y-117672314D01*
X147837621Y-117669158D01*
X147850674Y-117666320D01*
X147962843Y-117642094D01*
X148070877Y-117616570D01*
X148174350Y-117589870D01*
X148272836Y-117562119D01*
X148365907Y-117533443D01*
X148453136Y-117503966D01*
X148534097Y-117473812D01*
X148594873Y-117448941D01*
X148691354Y-117404433D01*
X148782826Y-117355507D01*
X148870180Y-117301614D01*
X148954308Y-117242202D01*
X149036008Y-117176801D01*
X149052297Y-117162731D01*
X149069777Y-117147209D01*
X149087670Y-117130973D01*
X149105197Y-117114760D01*
X149121580Y-117099307D01*
X149136041Y-117085349D01*
X149147800Y-117073625D01*
X149156080Y-117064870D01*
X149160101Y-117059822D01*
X149160361Y-117059115D01*
X149157110Y-117056617D01*
X149148072Y-117052803D01*
X149134325Y-117048001D01*
X149116944Y-117042535D01*
X149097005Y-117036732D01*
X149075586Y-117030917D01*
X149053761Y-117025417D01*
X149034184Y-117020901D01*
X148964960Y-117007922D01*
X148898054Y-116999990D01*
X148831839Y-116997067D01*
X148764685Y-116999115D01*
X148694963Y-117006096D01*
X148654493Y-117012096D01*
X148558180Y-117030856D01*
X148466411Y-117054807D01*
X148379248Y-117083917D01*
X148296756Y-117118158D01*
X148218996Y-117157499D01*
X148146032Y-117201909D01*
X148077926Y-117251359D01*
X148014742Y-117305818D01*
X147989139Y-117330731D01*
X147938494Y-117386095D01*
X147894450Y-117443280D01*
X147857101Y-117502148D01*
X147826539Y-117562560D01*
X147812795Y-117596028D01*
X147801307Y-117626432D01*
X147655263Y-117764996D01*
X147628489Y-117790468D01*
X147603372Y-117814499D01*
X147580360Y-117836652D01*
X147559900Y-117856490D01*
X147542438Y-117873575D01*
X147528421Y-117887472D01*
X147518298Y-117897742D01*
X147512514Y-117903950D01*
X147511302Y-117905690D01*
X147514842Y-117907513D01*
X147524198Y-117911927D01*
X147538740Y-117918645D01*
X147557842Y-117927381D01*
X147580876Y-117937849D01*
X147607212Y-117949763D01*
X147636225Y-117962837D01*
X147667286Y-117976784D01*
X147670834Y-117978375D01*
X147828283Y-118048931D01*
X147848397Y-118119486D01*
X147862426Y-118167561D01*
X147876124Y-118211940D01*
X147890476Y-118255693D01*
X147906469Y-118301894D01*
X147911638Y-118316422D01*
X147918304Y-118334496D01*
X147923501Y-118346977D01*
X147927837Y-118355013D01*
X147931920Y-118359755D01*
X147935801Y-118362121D01*
X147942334Y-118363374D01*
X147954938Y-118364399D01*
X147972632Y-118365198D01*
X147994436Y-118365771D01*
X148019368Y-118366120D01*
X148046448Y-118366246D01*
X148074694Y-118366150D01*
X148103127Y-118365833D01*
X148130765Y-118365297D01*
X148156627Y-118364542D01*
X148179733Y-118363570D01*
X148199101Y-118362382D01*
X148206098Y-118361800D01*
X148248615Y-118357639D01*
X148292437Y-118352920D01*
X148336678Y-118347767D01*
X148380449Y-118342304D01*
X148422864Y-118336654D01*
X148463037Y-118330940D01*
X148500079Y-118325287D01*
X148533105Y-118319818D01*
X148561228Y-118314657D01*
X148583560Y-118309927D01*
X148590625Y-118308196D01*
X148647051Y-118290188D01*
X148703259Y-118265555D01*
X148758619Y-118234716D01*
X148812503Y-118198088D01*
X148864283Y-118156091D01*
X148913331Y-118109142D01*
X148949231Y-118069419D01*
X148960382Y-118056365D01*
X148967812Y-118048129D01*
X148972317Y-118044108D01*
X148974696Y-118043703D01*
X148975744Y-118046312D01*
X148976076Y-118049177D01*
X148984928Y-118111029D01*
X149000125Y-118171195D01*
X149021367Y-118229025D01*
X149048355Y-118283868D01*
X149080792Y-118335075D01*
X149118378Y-118381994D01*
X149138870Y-118403506D01*
X149186020Y-118445375D01*
X149237880Y-118482239D01*
X149294477Y-118514103D01*
X149355836Y-118540972D01*
X149421984Y-118562847D01*
X149492947Y-118579735D01*
X149568750Y-118591639D01*
X149649419Y-118598562D01*
X149734981Y-118600510D01*
X149825460Y-118597486D01*
X149920884Y-118589493D01*
X150021277Y-118576537D01*
X150126666Y-118558621D01*
X150128736Y-118558229D01*
X150262040Y-118530715D01*
X150390610Y-118499678D01*
X150514222Y-118465198D01*
X150632650Y-118427354D01*
X150745672Y-118386225D01*
X150853063Y-118341891D01*
X150954597Y-118294429D01*
X151050052Y-118243920D01*
X151096556Y-118216871D01*
X151168432Y-118171622D01*
X151233929Y-118125957D01*
X151293722Y-118079299D01*
X151348486Y-118031071D01*
X151398895Y-117980694D01*
X151445624Y-117927593D01*
X151469292Y-117897935D01*
X151476348Y-117888793D01*
X151509885Y-117895455D01*
X151614889Y-117912936D01*
X151719330Y-117923496D01*
X151823815Y-117927171D01*
X151928949Y-117923997D01*
X151954361Y-117922219D01*
X152043685Y-117914517D01*
X152139546Y-117904773D01*
X152241740Y-117893024D01*
X152350062Y-117879304D01*
X152464307Y-117863649D01*
X152584270Y-117846094D01*
X152709745Y-117826676D01*
X152840528Y-117805428D01*
X152976414Y-117782388D01*
X153117197Y-117757589D01*
X153262673Y-117731068D01*
X153412636Y-117702860D01*
X153566882Y-117673000D01*
X153725205Y-117641525D01*
X153887401Y-117608468D01*
X154053264Y-117573866D01*
X154222589Y-117537754D01*
X154387083Y-117501946D01*
X154422540Y-117494219D01*
X154456328Y-117486982D01*
X154487744Y-117480378D01*
X154516082Y-117474550D01*
X154540639Y-117469638D01*
X154560711Y-117465785D01*
X154575595Y-117463134D01*
X154584586Y-117461825D01*
X154586402Y-117461710D01*
X154610853Y-117465325D01*
X154633020Y-117475489D01*
X154652465Y-117491940D01*
X154665298Y-117508714D01*
X154681220Y-117534601D01*
X154699408Y-117565862D01*
X154719273Y-117601421D01*
X154740229Y-117640199D01*
X154761687Y-117681119D01*
X154783058Y-117723103D01*
X154790724Y-117738486D01*
X154820533Y-117800291D01*
X154846152Y-117857008D01*
X154867736Y-117909113D01*
X154885437Y-117957077D01*
X154899410Y-118001376D01*
X154909807Y-118042481D01*
X154916783Y-118080868D01*
X154920490Y-118117009D01*
X154921223Y-118141017D01*
X154919855Y-118175658D01*
X154915603Y-118204824D01*
X154908245Y-118229574D01*
X154898407Y-118249576D01*
X154885372Y-118268408D01*
X154871151Y-118282507D01*
X154853422Y-118294103D01*
X154850516Y-118295661D01*
X154840170Y-118300668D01*
X154828802Y-118305256D01*
X154816049Y-118309454D01*
X154801542Y-118313295D01*
X154784918Y-118316806D01*
X154765811Y-118320019D01*
X154743854Y-118322964D01*
X154718682Y-118325671D01*
X154689929Y-118328170D01*
X154657230Y-118330491D01*
X154620219Y-118332664D01*
X154578530Y-118334720D01*
X154531798Y-118336689D01*
X154479657Y-118338601D01*
X154421742Y-118340486D01*
X154357685Y-118342374D01*
X154287123Y-118344296D01*
X154249181Y-118345282D01*
X154129555Y-118348512D01*
X154016447Y-118351915D01*
X153909322Y-118355525D01*
X153807645Y-118359372D01*
X153710878Y-118363490D01*
X153618487Y-118367910D01*
X153529937Y-118372664D01*
X153444690Y-118377786D01*
X153362212Y-118383306D01*
X153281967Y-118389258D01*
X153203420Y-118395673D01*
X153126033Y-118402583D01*
X153049273Y-118410022D01*
X152972603Y-118418020D01*
X152895487Y-118426611D01*
X152894514Y-118426723D01*
X152756765Y-118443667D01*
X152623516Y-118462414D01*
X152493549Y-118483216D01*
X152365649Y-118506325D01*
X152238599Y-118531993D01*
X152111181Y-118560474D01*
X151982181Y-118592018D01*
X151850381Y-118626880D01*
X151714564Y-118665310D01*
X151644101Y-118686143D01*
X151616987Y-118694416D01*
X151585101Y-118704394D01*
X151549282Y-118715799D01*
X151510367Y-118728350D01*
X151469195Y-118741768D01*
X151426606Y-118755772D01*
X151383438Y-118770082D01*
X151340530Y-118784419D01*
X151298720Y-118798503D01*
X151258847Y-118812054D01*
X151221751Y-118824791D01*
X151188268Y-118836436D01*
X151159239Y-118846707D01*
X151135502Y-118855326D01*
X151122325Y-118860287D01*
X151075900Y-118878714D01*
X151029052Y-118898455D01*
X150981172Y-118919814D01*
X150931650Y-118943099D01*
X150879877Y-118968614D01*
X150825244Y-118996665D01*
X150767142Y-119027558D01*
X150704962Y-119061598D01*
X150638093Y-119099091D01*
X150578528Y-119133090D01*
X150546877Y-119151282D01*
X150511373Y-119171686D01*
X150473969Y-119193181D01*
X150436618Y-119214643D01*
X150401271Y-119234953D01*
X150369882Y-119252987D01*
X150366861Y-119254722D01*
X150292151Y-119297228D01*
X150222611Y-119335860D01*
X150157666Y-119370832D01*
X150096738Y-119402361D01*
X150039249Y-119430662D01*
X149984623Y-119455950D01*
X149932282Y-119478442D01*
X149881649Y-119498353D01*
X149832146Y-119515898D01*
X149783197Y-119531294D01*
X149734224Y-119544755D01*
X149684649Y-119556498D01*
X149633896Y-119566738D01*
X149581387Y-119575691D01*
X149526545Y-119583573D01*
X149468792Y-119590598D01*
X149467278Y-119590768D01*
X149448693Y-119592405D01*
X149424406Y-119593872D01*
X149395621Y-119595152D01*
X149363537Y-119596227D01*
X149329357Y-119597078D01*
X149294282Y-119597688D01*
X149259513Y-119598037D01*
X149226253Y-119598108D01*
X149195702Y-119597882D01*
X149169062Y-119597342D01*
X149147534Y-119596469D01*
X149137431Y-119595766D01*
X149041437Y-119584796D01*
X148948591Y-119568944D01*
X148859357Y-119548340D01*
X148774199Y-119523112D01*
X148693580Y-119493390D01*
X148617963Y-119459303D01*
X148583570Y-119441423D01*
X148499499Y-119391747D01*
X148418006Y-119335614D01*
X148339071Y-119273003D01*
X148262676Y-119203893D01*
X148188800Y-119128264D01*
X148117424Y-119046095D01*
X148048528Y-118957366D01*
X147982092Y-118862057D01*
X147918098Y-118760145D01*
X147894143Y-118719208D01*
X147844336Y-118627801D01*
X147799157Y-118534995D01*
X147758144Y-118439669D01*
X147720834Y-118340702D01*
X147686764Y-118236973D01*
X147666318Y-118167111D01*
X147648063Y-118101847D01*
X147523150Y-118051265D01*
X147490801Y-118038164D01*
X147456720Y-118024360D01*
X147422371Y-118010446D01*
X147389218Y-117997013D01*
X147358725Y-117984657D01*
X147332356Y-117973970D01*
X147318125Y-117968200D01*
X147238013Y-117935719D01*
X147612699Y-117600903D01*
X147627975Y-117555042D01*
X147647971Y-117502558D01*
X147673359Y-117448304D01*
X147703290Y-117393803D01*
X147736916Y-117340580D01*
X147773391Y-117290159D01*
X147780077Y-117281644D01*
X147795188Y-117263691D01*
X147814455Y-117242394D01*
X147836654Y-117218976D01*
X147860561Y-117194659D01*
X147884953Y-117170663D01*
X147908606Y-117148213D01*
X147930297Y-117128529D01*
X147948802Y-117112834D01*
X147950334Y-117111608D01*
X148026271Y-117055687D01*
X148106675Y-117005202D01*
X148191488Y-116960177D01*
X148280648Y-116920636D01*
X148374097Y-116886603D01*
X148471776Y-116858101D01*
X148573624Y-116835155D01*
X148679582Y-116817789D01*
X148680584Y-116817654D01*
X148709559Y-116814531D01*
X148743508Y-116812131D01*
X148780383Y-116810500D01*
X148818133Y-116809688D01*
X148854710Y-116809742D01*
X148854710Y-116809742D01*
G37*
X148854710Y-116809742D02*
X148888065Y-116810711D01*
X148911653Y-116812228D01*
X148991789Y-116821955D01*
X149073758Y-116837253D01*
X149155701Y-116857681D01*
X149235758Y-116882796D01*
X149283541Y-116900493D01*
X149326347Y-116917482D01*
X149368596Y-116934539D01*
X149410667Y-116951839D01*
X149452939Y-116969558D01*
X149495789Y-116987874D01*
X149539595Y-117006961D01*
X149584736Y-117026995D01*
X149631589Y-117048154D01*
X149680533Y-117070612D01*
X149731945Y-117094546D01*
X149786204Y-117120132D01*
X149843687Y-117147546D01*
X149904774Y-117176964D01*
X149969841Y-117208562D01*
X150039268Y-117242517D01*
X150113431Y-117279003D01*
X150192710Y-117318198D01*
X150277481Y-117360277D01*
X150368124Y-117405417D01*
X150372153Y-117407426D01*
X150451946Y-117447125D01*
X150526001Y-117483758D01*
X150594816Y-117517553D01*
X150658891Y-117548740D01*
X150718725Y-117577551D01*
X150774817Y-117604213D01*
X150827666Y-117628957D01*
X150877772Y-117652014D01*
X150925634Y-117673612D01*
X150971750Y-117693982D01*
X151016621Y-117713354D01*
X151060745Y-117731956D01*
X151104621Y-117750021D01*
X151148749Y-117767776D01*
X151190598Y-117784269D01*
X151214243Y-117793530D01*
X151235881Y-117802058D01*
X151254594Y-117809487D01*
X151269464Y-117815450D01*
X151279573Y-117819583D01*
X151283972Y-117821501D01*
X151284988Y-117823865D01*
X151282632Y-117828645D01*
X151276411Y-117836483D01*
X151265837Y-117848023D01*
X151255750Y-117858474D01*
X151198555Y-117912600D01*
X151134755Y-117964757D01*
X151064551Y-118014846D01*
X150988140Y-118062769D01*
X150905723Y-118108425D01*
X150817498Y-118151717D01*
X150723665Y-118192546D01*
X150624422Y-118230812D01*
X150519969Y-118266417D01*
X150410504Y-118299262D01*
X150319236Y-118323540D01*
X150211653Y-118349136D01*
X150109570Y-118370398D01*
X150012918Y-118387325D01*
X149921629Y-118399916D01*
X149835636Y-118408170D01*
X149754870Y-118412088D01*
X149679264Y-118411668D01*
X149608748Y-118406910D01*
X149543256Y-118397814D01*
X149482719Y-118384378D01*
X149427069Y-118366602D01*
X149376237Y-118344486D01*
X149330157Y-118318029D01*
X149325283Y-118314792D01*
X149306567Y-118300712D01*
X149285977Y-118282815D01*
X149265462Y-118262989D01*
X149246975Y-118243121D01*
X149232467Y-118225098D01*
X149232249Y-118224796D01*
X149210643Y-118189690D01*
X149192364Y-118149925D01*
X149178068Y-118107369D01*
X149168407Y-118063891D01*
X149164563Y-118031322D01*
X149162125Y-117996075D01*
X149096861Y-117990151D01*
X149075600Y-117988247D01*
X149056304Y-117986565D01*
X149040259Y-117985215D01*
X149028751Y-117984305D01*
X149023228Y-117983947D01*
X149017499Y-117983127D01*
X149017862Y-117980173D01*
X149019700Y-117977780D01*
X149022206Y-117974046D01*
X149020247Y-117973062D01*
X149012652Y-117974302D01*
X149012195Y-117974395D01*
X148983402Y-117980018D01*
X148949443Y-117986305D01*
X148912141Y-117992942D01*
X148873316Y-117999618D01*
X148834791Y-118006019D01*
X148798388Y-118011832D01*
X148765929Y-118016745D01*
X148763486Y-118017100D01*
X148682912Y-118027996D01*
X148608021Y-118036419D01*
X148537880Y-118042343D01*
X148471555Y-118045744D01*
X148408112Y-118046596D01*
X148346617Y-118044874D01*
X148286137Y-118040552D01*
X148225738Y-118033606D01*
X148164486Y-118024011D01*
X148101447Y-118011741D01*
X148039022Y-117997576D01*
X148018781Y-117992551D01*
X147996071Y-117986658D01*
X147971883Y-117980181D01*
X147947209Y-117973404D01*
X147923040Y-117966608D01*
X147900368Y-117960079D01*
X147880185Y-117954099D01*
X147863483Y-117948952D01*
X147851254Y-117944921D01*
X147844488Y-117942289D01*
X147843566Y-117941724D01*
X147842791Y-117937976D01*
X147841361Y-117928155D01*
X147839385Y-117913201D01*
X147836971Y-117894055D01*
X147834230Y-117871658D01*
X147831271Y-117846950D01*
X147828203Y-117820871D01*
X147825135Y-117794363D01*
X147822177Y-117768366D01*
X147819438Y-117743821D01*
X147817027Y-117721668D01*
X147815053Y-117702848D01*
X147813626Y-117688301D01*
X147812856Y-117678969D01*
X147812750Y-117676513D01*
X147815981Y-117674892D01*
X147824738Y-117672314D01*
X147837621Y-117669158D01*
X147850674Y-117666320D01*
X147962843Y-117642094D01*
X148070877Y-117616570D01*
X148174350Y-117589870D01*
X148272836Y-117562119D01*
X148365907Y-117533443D01*
X148453136Y-117503966D01*
X148534097Y-117473812D01*
X148594873Y-117448941D01*
X148691354Y-117404433D01*
X148782826Y-117355507D01*
X148870180Y-117301614D01*
X148954308Y-117242202D01*
X149036008Y-117176801D01*
X149052297Y-117162731D01*
X149069777Y-117147209D01*
X149087670Y-117130973D01*
X149105197Y-117114760D01*
X149121580Y-117099307D01*
X149136041Y-117085349D01*
X149147800Y-117073625D01*
X149156080Y-117064870D01*
X149160101Y-117059822D01*
X149160361Y-117059115D01*
X149157110Y-117056617D01*
X149148072Y-117052803D01*
X149134325Y-117048001D01*
X149116944Y-117042535D01*
X149097005Y-117036732D01*
X149075586Y-117030917D01*
X149053761Y-117025417D01*
X149034184Y-117020901D01*
X148964960Y-117007922D01*
X148898054Y-116999990D01*
X148831839Y-116997067D01*
X148764685Y-116999115D01*
X148694963Y-117006096D01*
X148654493Y-117012096D01*
X148558180Y-117030856D01*
X148466411Y-117054807D01*
X148379248Y-117083917D01*
X148296756Y-117118158D01*
X148218996Y-117157499D01*
X148146032Y-117201909D01*
X148077926Y-117251359D01*
X148014742Y-117305818D01*
X147989139Y-117330731D01*
X147938494Y-117386095D01*
X147894450Y-117443280D01*
X147857101Y-117502148D01*
X147826539Y-117562560D01*
X147812795Y-117596028D01*
X147801307Y-117626432D01*
X147655263Y-117764996D01*
X147628489Y-117790468D01*
X147603372Y-117814499D01*
X147580360Y-117836652D01*
X147559900Y-117856490D01*
X147542438Y-117873575D01*
X147528421Y-117887472D01*
X147518298Y-117897742D01*
X147512514Y-117903950D01*
X147511302Y-117905690D01*
X147514842Y-117907513D01*
X147524198Y-117911927D01*
X147538740Y-117918645D01*
X147557842Y-117927381D01*
X147580876Y-117937849D01*
X147607212Y-117949763D01*
X147636225Y-117962837D01*
X147667286Y-117976784D01*
X147670834Y-117978375D01*
X147828283Y-118048931D01*
X147848397Y-118119486D01*
X147862426Y-118167561D01*
X147876124Y-118211940D01*
X147890476Y-118255693D01*
X147906469Y-118301894D01*
X147911638Y-118316422D01*
X147918304Y-118334496D01*
X147923501Y-118346977D01*
X147927837Y-118355013D01*
X147931920Y-118359755D01*
X147935801Y-118362121D01*
X147942334Y-118363374D01*
X147954938Y-118364399D01*
X147972632Y-118365198D01*
X147994436Y-118365771D01*
X148019368Y-118366120D01*
X148046448Y-118366246D01*
X148074694Y-118366150D01*
X148103127Y-118365833D01*
X148130765Y-118365297D01*
X148156627Y-118364542D01*
X148179733Y-118363570D01*
X148199101Y-118362382D01*
X148206098Y-118361800D01*
X148248615Y-118357639D01*
X148292437Y-118352920D01*
X148336678Y-118347767D01*
X148380449Y-118342304D01*
X148422864Y-118336654D01*
X148463037Y-118330940D01*
X148500079Y-118325287D01*
X148533105Y-118319818D01*
X148561228Y-118314657D01*
X148583560Y-118309927D01*
X148590625Y-118308196D01*
X148647051Y-118290188D01*
X148703259Y-118265555D01*
X148758619Y-118234716D01*
X148812503Y-118198088D01*
X148864283Y-118156091D01*
X148913331Y-118109142D01*
X148949231Y-118069419D01*
X148960382Y-118056365D01*
X148967812Y-118048129D01*
X148972317Y-118044108D01*
X148974696Y-118043703D01*
X148975744Y-118046312D01*
X148976076Y-118049177D01*
X148984928Y-118111029D01*
X149000125Y-118171195D01*
X149021367Y-118229025D01*
X149048355Y-118283868D01*
X149080792Y-118335075D01*
X149118378Y-118381994D01*
X149138870Y-118403506D01*
X149186020Y-118445375D01*
X149237880Y-118482239D01*
X149294477Y-118514103D01*
X149355836Y-118540972D01*
X149421984Y-118562847D01*
X149492947Y-118579735D01*
X149568750Y-118591639D01*
X149649419Y-118598562D01*
X149734981Y-118600510D01*
X149825460Y-118597486D01*
X149920884Y-118589493D01*
X150021277Y-118576537D01*
X150126666Y-118558621D01*
X150128736Y-118558229D01*
X150262040Y-118530715D01*
X150390610Y-118499678D01*
X150514222Y-118465198D01*
X150632650Y-118427354D01*
X150745672Y-118386225D01*
X150853063Y-118341891D01*
X150954597Y-118294429D01*
X151050052Y-118243920D01*
X151096556Y-118216871D01*
X151168432Y-118171622D01*
X151233929Y-118125957D01*
X151293722Y-118079299D01*
X151348486Y-118031071D01*
X151398895Y-117980694D01*
X151445624Y-117927593D01*
X151469292Y-117897935D01*
X151476348Y-117888793D01*
X151509885Y-117895455D01*
X151614889Y-117912936D01*
X151719330Y-117923496D01*
X151823815Y-117927171D01*
X151928949Y-117923997D01*
X151954361Y-117922219D01*
X152043685Y-117914517D01*
X152139546Y-117904773D01*
X152241740Y-117893024D01*
X152350062Y-117879304D01*
X152464307Y-117863649D01*
X152584270Y-117846094D01*
X152709745Y-117826676D01*
X152840528Y-117805428D01*
X152976414Y-117782388D01*
X153117197Y-117757589D01*
X153262673Y-117731068D01*
X153412636Y-117702860D01*
X153566882Y-117673000D01*
X153725205Y-117641525D01*
X153887401Y-117608468D01*
X154053264Y-117573866D01*
X154222589Y-117537754D01*
X154387083Y-117501946D01*
X154422540Y-117494219D01*
X154456328Y-117486982D01*
X154487744Y-117480378D01*
X154516082Y-117474550D01*
X154540639Y-117469638D01*
X154560711Y-117465785D01*
X154575595Y-117463134D01*
X154584586Y-117461825D01*
X154586402Y-117461710D01*
X154610853Y-117465325D01*
X154633020Y-117475489D01*
X154652465Y-117491940D01*
X154665298Y-117508714D01*
X154681220Y-117534601D01*
X154699408Y-117565862D01*
X154719273Y-117601421D01*
X154740229Y-117640199D01*
X154761687Y-117681119D01*
X154783058Y-117723103D01*
X154790724Y-117738486D01*
X154820533Y-117800291D01*
X154846152Y-117857008D01*
X154867736Y-117909113D01*
X154885437Y-117957077D01*
X154899410Y-118001376D01*
X154909807Y-118042481D01*
X154916783Y-118080868D01*
X154920490Y-118117009D01*
X154921223Y-118141017D01*
X154919855Y-118175658D01*
X154915603Y-118204824D01*
X154908245Y-118229574D01*
X154898407Y-118249576D01*
X154885372Y-118268408D01*
X154871151Y-118282507D01*
X154853422Y-118294103D01*
X154850516Y-118295661D01*
X154840170Y-118300668D01*
X154828802Y-118305256D01*
X154816049Y-118309454D01*
X154801542Y-118313295D01*
X154784918Y-118316806D01*
X154765811Y-118320019D01*
X154743854Y-118322964D01*
X154718682Y-118325671D01*
X154689929Y-118328170D01*
X154657230Y-118330491D01*
X154620219Y-118332664D01*
X154578530Y-118334720D01*
X154531798Y-118336689D01*
X154479657Y-118338601D01*
X154421742Y-118340486D01*
X154357685Y-118342374D01*
X154287123Y-118344296D01*
X154249181Y-118345282D01*
X154129555Y-118348512D01*
X154016447Y-118351915D01*
X153909322Y-118355525D01*
X153807645Y-118359372D01*
X153710878Y-118363490D01*
X153618487Y-118367910D01*
X153529937Y-118372664D01*
X153444690Y-118377786D01*
X153362212Y-118383306D01*
X153281967Y-118389258D01*
X153203420Y-118395673D01*
X153126033Y-118402583D01*
X153049273Y-118410022D01*
X152972603Y-118418020D01*
X152895487Y-118426611D01*
X152894514Y-118426723D01*
X152756765Y-118443667D01*
X152623516Y-118462414D01*
X152493549Y-118483216D01*
X152365649Y-118506325D01*
X152238599Y-118531993D01*
X152111181Y-118560474D01*
X151982181Y-118592018D01*
X151850381Y-118626880D01*
X151714564Y-118665310D01*
X151644101Y-118686143D01*
X151616987Y-118694416D01*
X151585101Y-118704394D01*
X151549282Y-118715799D01*
X151510367Y-118728350D01*
X151469195Y-118741768D01*
X151426606Y-118755772D01*
X151383438Y-118770082D01*
X151340530Y-118784419D01*
X151298720Y-118798503D01*
X151258847Y-118812054D01*
X151221751Y-118824791D01*
X151188268Y-118836436D01*
X151159239Y-118846707D01*
X151135502Y-118855326D01*
X151122325Y-118860287D01*
X151075900Y-118878714D01*
X151029052Y-118898455D01*
X150981172Y-118919814D01*
X150931650Y-118943099D01*
X150879877Y-118968614D01*
X150825244Y-118996665D01*
X150767142Y-119027558D01*
X150704962Y-119061598D01*
X150638093Y-119099091D01*
X150578528Y-119133090D01*
X150546877Y-119151282D01*
X150511373Y-119171686D01*
X150473969Y-119193181D01*
X150436618Y-119214643D01*
X150401271Y-119234953D01*
X150369882Y-119252987D01*
X150366861Y-119254722D01*
X150292151Y-119297228D01*
X150222611Y-119335860D01*
X150157666Y-119370832D01*
X150096738Y-119402361D01*
X150039249Y-119430662D01*
X149984623Y-119455950D01*
X149932282Y-119478442D01*
X149881649Y-119498353D01*
X149832146Y-119515898D01*
X149783197Y-119531294D01*
X149734224Y-119544755D01*
X149684649Y-119556498D01*
X149633896Y-119566738D01*
X149581387Y-119575691D01*
X149526545Y-119583573D01*
X149468792Y-119590598D01*
X149467278Y-119590768D01*
X149448693Y-119592405D01*
X149424406Y-119593872D01*
X149395621Y-119595152D01*
X149363537Y-119596227D01*
X149329357Y-119597078D01*
X149294282Y-119597688D01*
X149259513Y-119598037D01*
X149226253Y-119598108D01*
X149195702Y-119597882D01*
X149169062Y-119597342D01*
X149147534Y-119596469D01*
X149137431Y-119595766D01*
X149041437Y-119584796D01*
X148948591Y-119568944D01*
X148859357Y-119548340D01*
X148774199Y-119523112D01*
X148693580Y-119493390D01*
X148617963Y-119459303D01*
X148583570Y-119441423D01*
X148499499Y-119391747D01*
X148418006Y-119335614D01*
X148339071Y-119273003D01*
X148262676Y-119203893D01*
X148188800Y-119128264D01*
X148117424Y-119046095D01*
X148048528Y-118957366D01*
X147982092Y-118862057D01*
X147918098Y-118760145D01*
X147894143Y-118719208D01*
X147844336Y-118627801D01*
X147799157Y-118534995D01*
X147758144Y-118439669D01*
X147720834Y-118340702D01*
X147686764Y-118236973D01*
X147666318Y-118167111D01*
X147648063Y-118101847D01*
X147523150Y-118051265D01*
X147490801Y-118038164D01*
X147456720Y-118024360D01*
X147422371Y-118010446D01*
X147389218Y-117997013D01*
X147358725Y-117984657D01*
X147332356Y-117973970D01*
X147318125Y-117968200D01*
X147238013Y-117935719D01*
X147612699Y-117600903D01*
X147627975Y-117555042D01*
X147647971Y-117502558D01*
X147673359Y-117448304D01*
X147703290Y-117393803D01*
X147736916Y-117340580D01*
X147773391Y-117290159D01*
X147780077Y-117281644D01*
X147795188Y-117263691D01*
X147814455Y-117242394D01*
X147836654Y-117218976D01*
X147860561Y-117194659D01*
X147884953Y-117170663D01*
X147908606Y-117148213D01*
X147930297Y-117128529D01*
X147948802Y-117112834D01*
X147950334Y-117111608D01*
X148026271Y-117055687D01*
X148106675Y-117005202D01*
X148191488Y-116960177D01*
X148280648Y-116920636D01*
X148374097Y-116886603D01*
X148471776Y-116858101D01*
X148573624Y-116835155D01*
X148679582Y-116817789D01*
X148680584Y-116817654D01*
X148709559Y-116814531D01*
X148743508Y-116812131D01*
X148780383Y-116810500D01*
X148818133Y-116809688D01*
X148854710Y-116809742D01*
D13*
X140525000Y-95310000D02*
X140525000Y-94310000D01*
X141875000Y-94310000D02*
X141875000Y-95310000D01*
X151365000Y-95610000D02*
X151365000Y-94610000D01*
X152715000Y-94610000D02*
X152715000Y-95610000D01*
X139865000Y-103420000D02*
X139865000Y-104420000D01*
X138515000Y-104420000D02*
X138515000Y-103420000D01*
X137545000Y-103410000D02*
X137545000Y-104410000D01*
X136195000Y-104410000D02*
X136195000Y-103410000D01*
X131416667Y-89201881D02*
X131083333Y-88725690D01*
X130845238Y-89201881D02*
X130845238Y-88201881D01*
X131226191Y-88201881D01*
X131321429Y-88249500D01*
X131369048Y-88297119D01*
X131416667Y-88392357D01*
X131416667Y-88535214D01*
X131369048Y-88630452D01*
X131321429Y-88678071D01*
X131226191Y-88725690D01*
X130845238Y-88725690D01*
X131845238Y-88678071D02*
X132178572Y-88678071D01*
X132321429Y-89201881D02*
X131845238Y-89201881D01*
X131845238Y-88201881D01*
X132321429Y-88201881D01*
X133083334Y-88678071D02*
X132750000Y-88678071D01*
X132750000Y-89201881D02*
X132750000Y-88201881D01*
X133226191Y-88201881D01*
X133750000Y-88201881D02*
X133750000Y-88439976D01*
X133511905Y-88344738D02*
X133750000Y-88439976D01*
X133988096Y-88344738D01*
X133607143Y-88630452D02*
X133750000Y-88439976D01*
X133892858Y-88630452D01*
X134511905Y-88201881D02*
X134511905Y-88439976D01*
X134273810Y-88344738D02*
X134511905Y-88439976D01*
X134750001Y-88344738D01*
X134369048Y-88630452D02*
X134511905Y-88439976D01*
X134654763Y-88630452D01*
X138352381Y-114796666D02*
X137876190Y-115130000D01*
X138352381Y-115368095D02*
X137352381Y-115368095D01*
X137352381Y-114987142D01*
X137400000Y-114891904D01*
X137447619Y-114844285D01*
X137542857Y-114796666D01*
X137685714Y-114796666D01*
X137780952Y-114844285D01*
X137828571Y-114891904D01*
X137876190Y-114987142D01*
X137876190Y-115368095D01*
X138352381Y-113844285D02*
X138352381Y-114415714D01*
X138352381Y-114130000D02*
X137352381Y-114130000D01*
X137495238Y-114225238D01*
X137590476Y-114320476D01*
X137638095Y-114415714D01*
X141104781Y-114884266D02*
X140628590Y-115217600D01*
X141104781Y-115455695D02*
X140104781Y-115455695D01*
X140104781Y-115074742D01*
X140152400Y-114979504D01*
X140200019Y-114931885D01*
X140295257Y-114884266D01*
X140438114Y-114884266D01*
X140533352Y-114931885D01*
X140580971Y-114979504D01*
X140628590Y-115074742D01*
X140628590Y-115455695D01*
X140200019Y-114503314D02*
X140152400Y-114455695D01*
X140104781Y-114360457D01*
X140104781Y-114122361D01*
X140152400Y-114027123D01*
X140200019Y-113979504D01*
X140295257Y-113931885D01*
X140390495Y-113931885D01*
X140533352Y-113979504D01*
X141104781Y-114550933D01*
X141104781Y-113931885D01*
X143702381Y-114856666D02*
X143226190Y-115190000D01*
X143702381Y-115428095D02*
X142702381Y-115428095D01*
X142702381Y-115047142D01*
X142750000Y-114951904D01*
X142797619Y-114904285D01*
X142892857Y-114856666D01*
X143035714Y-114856666D01*
X143130952Y-114904285D01*
X143178571Y-114951904D01*
X143226190Y-115047142D01*
X143226190Y-115428095D01*
X142702381Y-114523333D02*
X142702381Y-113904285D01*
X143083333Y-114237619D01*
X143083333Y-114094761D01*
X143130952Y-113999523D01*
X143178571Y-113951904D01*
X143273810Y-113904285D01*
X143511905Y-113904285D01*
X143607143Y-113951904D01*
X143654762Y-113999523D01*
X143702381Y-114094761D01*
X143702381Y-114380476D01*
X143654762Y-114475714D01*
X143607143Y-114523333D01*
X143472381Y-96026666D02*
X142996190Y-96360000D01*
X143472381Y-96598095D02*
X142472381Y-96598095D01*
X142472381Y-96217142D01*
X142520000Y-96121904D01*
X142567619Y-96074285D01*
X142662857Y-96026666D01*
X142805714Y-96026666D01*
X142900952Y-96074285D01*
X142948571Y-96121904D01*
X142996190Y-96217142D01*
X142996190Y-96598095D01*
X142472381Y-95693333D02*
X142472381Y-95026666D01*
X143472381Y-95455238D01*
X154062381Y-95216666D02*
X153586190Y-95550000D01*
X154062381Y-95788095D02*
X153062381Y-95788095D01*
X153062381Y-95407142D01*
X153110000Y-95311904D01*
X153157619Y-95264285D01*
X153252857Y-95216666D01*
X153395714Y-95216666D01*
X153490952Y-95264285D01*
X153538571Y-95311904D01*
X153586190Y-95407142D01*
X153586190Y-95788095D01*
X153490952Y-94645238D02*
X153443333Y-94740476D01*
X153395714Y-94788095D01*
X153300476Y-94835714D01*
X153252857Y-94835714D01*
X153157619Y-94788095D01*
X153110000Y-94740476D01*
X153062381Y-94645238D01*
X153062381Y-94454761D01*
X153110000Y-94359523D01*
X153157619Y-94311904D01*
X153252857Y-94264285D01*
X153300476Y-94264285D01*
X153395714Y-94311904D01*
X153443333Y-94359523D01*
X153490952Y-94454761D01*
X153490952Y-94645238D01*
X153538571Y-94740476D01*
X153586190Y-94788095D01*
X153681429Y-94835714D01*
X153871905Y-94835714D01*
X153967143Y-94788095D01*
X154014762Y-94740476D01*
X154062381Y-94645238D01*
X154062381Y-94454761D01*
X154014762Y-94359523D01*
X153967143Y-94311904D01*
X153871905Y-94264285D01*
X153681429Y-94264285D01*
X153586190Y-94311904D01*
X153538571Y-94359523D01*
X153490952Y-94454761D01*
X141182381Y-103896666D02*
X140706190Y-104230000D01*
X141182381Y-104468095D02*
X140182381Y-104468095D01*
X140182381Y-104087142D01*
X140230000Y-103991904D01*
X140277619Y-103944285D01*
X140372857Y-103896666D01*
X140515714Y-103896666D01*
X140610952Y-103944285D01*
X140658571Y-103991904D01*
X140706190Y-104087142D01*
X140706190Y-104468095D01*
X141182381Y-103420476D02*
X141182381Y-103230000D01*
X141134762Y-103134761D01*
X141087143Y-103087142D01*
X140944286Y-102991904D01*
X140753810Y-102944285D01*
X140372857Y-102944285D01*
X140277619Y-102991904D01*
X140230000Y-103039523D01*
X140182381Y-103134761D01*
X140182381Y-103325238D01*
X140230000Y-103420476D01*
X140277619Y-103468095D01*
X140372857Y-103515714D01*
X140610952Y-103515714D01*
X140706190Y-103468095D01*
X140753810Y-103420476D01*
X140801429Y-103325238D01*
X140801429Y-103134761D01*
X140753810Y-103039523D01*
X140706190Y-102991904D01*
X140610952Y-102944285D01*
X135422381Y-104552857D02*
X134946190Y-104886191D01*
X135422381Y-105124286D02*
X134422381Y-105124286D01*
X134422381Y-104743333D01*
X134470000Y-104648095D01*
X134517619Y-104600476D01*
X134612857Y-104552857D01*
X134755714Y-104552857D01*
X134850952Y-104600476D01*
X134898571Y-104648095D01*
X134946190Y-104743333D01*
X134946190Y-105124286D01*
X135422381Y-103600476D02*
X135422381Y-104171905D01*
X135422381Y-103886191D02*
X134422381Y-103886191D01*
X134565238Y-103981429D01*
X134660476Y-104076667D01*
X134708095Y-104171905D01*
X134422381Y-102981429D02*
X134422381Y-102886190D01*
X134470000Y-102790952D01*
X134517619Y-102743333D01*
X134612857Y-102695714D01*
X134803333Y-102648095D01*
X135041429Y-102648095D01*
X135231905Y-102695714D01*
X135327143Y-102743333D01*
X135374762Y-102790952D01*
X135422381Y-102886190D01*
X135422381Y-102981429D01*
X135374762Y-103076667D01*
X135327143Y-103124286D01*
X135231905Y-103171905D01*
X135041429Y-103219524D01*
X134803333Y-103219524D01*
X134612857Y-103171905D01*
X134517619Y-103124286D01*
X134470000Y-103076667D01*
X134422381Y-102981429D01*
M02*
