G04 #@! TF.FileFunction,Soldermask,Top*
%FSLAX46Y46*%
G04 Gerber Fmt 4.6, Leading zero omitted, Abs format (unit mm)*
G04 Created by KiCad (PCBNEW 4.0.1-stable) date Tuesday, April 12, 2016 'PMt' 11:18:50 PM*
%MOMM*%
G01*
G04 APERTURE LIST*
%ADD10C,0.100000*%
%ADD11C,0.010000*%
%ADD12C,2.000000*%
%ADD13R,0.852400X0.352400*%
%ADD14R,1.653540X0.551180*%
%ADD15R,1.879600X2.184400*%
%ADD16O,1.879600X2.184400*%
%ADD17R,1.879600X1.879600*%
%ADD18O,1.879600X1.879600*%
%ADD19R,0.949960X0.949960*%
%ADD20R,1.052400X1.352400*%
G04 APERTURE END LIST*
D10*
D11*
G36*
X123791031Y-90573103D02*
X123828866Y-90574878D01*
X123864763Y-90577950D01*
X123900412Y-90582451D01*
X123937499Y-90588512D01*
X123962537Y-90593226D01*
X123999505Y-90600873D01*
X124034770Y-90609056D01*
X124069378Y-90618108D01*
X124104376Y-90628364D01*
X124140809Y-90640156D01*
X124179722Y-90653818D01*
X124222161Y-90669684D01*
X124269173Y-90688088D01*
X124304737Y-90702406D01*
X124351958Y-90721805D01*
X124399898Y-90741943D01*
X124448959Y-90763011D01*
X124499547Y-90785199D01*
X124552066Y-90808695D01*
X124606921Y-90833689D01*
X124664514Y-90860372D01*
X124725251Y-90888932D01*
X124789536Y-90919559D01*
X124857773Y-90952442D01*
X124930365Y-90987772D01*
X125007719Y-91025737D01*
X125090236Y-91066528D01*
X125178323Y-91110333D01*
X125236085Y-91139177D01*
X125317799Y-91179964D01*
X125393732Y-91217698D01*
X125464358Y-91252596D01*
X125530149Y-91284875D01*
X125591577Y-91314752D01*
X125649115Y-91342444D01*
X125703235Y-91368167D01*
X125754409Y-91392138D01*
X125803111Y-91414575D01*
X125849811Y-91435695D01*
X125894982Y-91455714D01*
X125939097Y-91474848D01*
X125982629Y-91493316D01*
X126026049Y-91511334D01*
X126069829Y-91529119D01*
X126114443Y-91546888D01*
X126160363Y-91564857D01*
X126177542Y-91571509D01*
X126201524Y-91580793D01*
X126223788Y-91589455D01*
X126243348Y-91597109D01*
X126259219Y-91603366D01*
X126270414Y-91607840D01*
X126275784Y-91610070D01*
X126285832Y-91614573D01*
X126270698Y-91633849D01*
X126258889Y-91647902D01*
X126242920Y-91665482D01*
X126223921Y-91685449D01*
X126203023Y-91706663D01*
X126181357Y-91727986D01*
X126160055Y-91748277D01*
X126140246Y-91766397D01*
X126131681Y-91773920D01*
X126056102Y-91835039D01*
X125974352Y-91893238D01*
X125886747Y-91948375D01*
X125793601Y-92000306D01*
X125695231Y-92048886D01*
X125591952Y-92093973D01*
X125484079Y-92135422D01*
X125371928Y-92173091D01*
X125255814Y-92206835D01*
X125136054Y-92236510D01*
X125096278Y-92245281D01*
X125037253Y-92257567D01*
X124983414Y-92268013D01*
X124933205Y-92276877D01*
X124885074Y-92284413D01*
X124837469Y-92290877D01*
X124788835Y-92296526D01*
X124778778Y-92297588D01*
X124758732Y-92299185D01*
X124733512Y-92300438D01*
X124704439Y-92301348D01*
X124672833Y-92301913D01*
X124640014Y-92302134D01*
X124607303Y-92302011D01*
X124576020Y-92301543D01*
X124547485Y-92300730D01*
X124523019Y-92299572D01*
X124503941Y-92298069D01*
X124500083Y-92297629D01*
X124429587Y-92286359D01*
X124364668Y-92270777D01*
X124305314Y-92250875D01*
X124251511Y-92226642D01*
X124203246Y-92198071D01*
X124160506Y-92165152D01*
X124123275Y-92127875D01*
X124091542Y-92086233D01*
X124065292Y-92040216D01*
X124045814Y-91993556D01*
X124036564Y-91965336D01*
X124029950Y-91939790D01*
X124025611Y-91914670D01*
X124023189Y-91887726D01*
X124022323Y-91856710D01*
X124022311Y-91846690D01*
X124022506Y-91789783D01*
X123999541Y-91787430D01*
X123976577Y-91785078D01*
X123926819Y-91819010D01*
X123927261Y-91868359D01*
X123931246Y-91926590D01*
X123942027Y-91983341D01*
X123959427Y-92038195D01*
X123983267Y-92090732D01*
X124013369Y-92140536D01*
X124049554Y-92187188D01*
X124074774Y-92214155D01*
X124115410Y-92251000D01*
X124159140Y-92283371D01*
X124206472Y-92311491D01*
X124257911Y-92335584D01*
X124313966Y-92355873D01*
X124375143Y-92372584D01*
X124441948Y-92385938D01*
X124475389Y-92391113D01*
X124496455Y-92393389D01*
X124523303Y-92395185D01*
X124554675Y-92396500D01*
X124589315Y-92397334D01*
X124625966Y-92397688D01*
X124663369Y-92397562D01*
X124700269Y-92396956D01*
X124735407Y-92395870D01*
X124767526Y-92394303D01*
X124795370Y-92392257D01*
X124807000Y-92391088D01*
X124921247Y-92375915D01*
X125036379Y-92356055D01*
X125151524Y-92331770D01*
X125265809Y-92303321D01*
X125378359Y-92270969D01*
X125488303Y-92234975D01*
X125594766Y-92195600D01*
X125696876Y-92153106D01*
X125793760Y-92107754D01*
X125848608Y-92079498D01*
X125931718Y-92032751D01*
X126010658Y-91983631D01*
X126084981Y-91932487D01*
X126154241Y-91879668D01*
X126217993Y-91825522D01*
X126275791Y-91770397D01*
X126327188Y-91714643D01*
X126348880Y-91688480D01*
X126363589Y-91670572D01*
X126374647Y-91658259D01*
X126382321Y-91651267D01*
X126386878Y-91649322D01*
X126387106Y-91649373D01*
X126401682Y-91653012D01*
X126422129Y-91657139D01*
X126447296Y-91661588D01*
X126476029Y-91666193D01*
X126507174Y-91670787D01*
X126539579Y-91675204D01*
X126572091Y-91679276D01*
X126603556Y-91682837D01*
X126632821Y-91685720D01*
X126646736Y-91686893D01*
X126676996Y-91688630D01*
X126710509Y-91689311D01*
X126747721Y-91688909D01*
X126789075Y-91687398D01*
X126835017Y-91684750D01*
X126885991Y-91680938D01*
X126942441Y-91675937D01*
X127004812Y-91669719D01*
X127073548Y-91662256D01*
X127094764Y-91659853D01*
X127192696Y-91648039D01*
X127297110Y-91634253D01*
X127407726Y-91618544D01*
X127524267Y-91600962D01*
X127646454Y-91581559D01*
X127774011Y-91560386D01*
X127906657Y-91537492D01*
X128044117Y-91512928D01*
X128186110Y-91486746D01*
X128332360Y-91458995D01*
X128482588Y-91429727D01*
X128636517Y-91398991D01*
X128793867Y-91366840D01*
X128954361Y-91333322D01*
X129117721Y-91298489D01*
X129283669Y-91262392D01*
X129311972Y-91256166D01*
X129343505Y-91249268D01*
X129373573Y-91242787D01*
X129401326Y-91236899D01*
X129425913Y-91231780D01*
X129446484Y-91227607D01*
X129462186Y-91224556D01*
X129472170Y-91222804D01*
X129474250Y-91222520D01*
X129501629Y-91222603D01*
X129530597Y-91228198D01*
X129559337Y-91238640D01*
X129586032Y-91253263D01*
X129608863Y-91271400D01*
X129609577Y-91272097D01*
X129620334Y-91284458D01*
X129633559Y-91302584D01*
X129648873Y-91325782D01*
X129665898Y-91353362D01*
X129684253Y-91384633D01*
X129703562Y-91418902D01*
X129723444Y-91455479D01*
X129743521Y-91493671D01*
X129763415Y-91532789D01*
X129782747Y-91572139D01*
X129801137Y-91611031D01*
X129818208Y-91648774D01*
X129826938Y-91668888D01*
X129854418Y-91737828D01*
X129876295Y-91802753D01*
X129892564Y-91863631D01*
X129903220Y-91920428D01*
X129908258Y-91973112D01*
X129907674Y-92021650D01*
X129901462Y-92066008D01*
X129890303Y-92104355D01*
X129880721Y-92124617D01*
X129867158Y-92146530D01*
X129851359Y-92167628D01*
X129835072Y-92185441D01*
X129829089Y-92190860D01*
X129813700Y-92202771D01*
X129797081Y-92213287D01*
X129778689Y-92222518D01*
X129757978Y-92230574D01*
X129734406Y-92237565D01*
X129707427Y-92243602D01*
X129676498Y-92248794D01*
X129641074Y-92253252D01*
X129600612Y-92257086D01*
X129554567Y-92260405D01*
X129502396Y-92263321D01*
X129461903Y-92265182D01*
X129442132Y-92265961D01*
X129416304Y-92266876D01*
X129385416Y-92267897D01*
X129350464Y-92268994D01*
X129312446Y-92270137D01*
X129272357Y-92271294D01*
X129231195Y-92272437D01*
X129189956Y-92273534D01*
X129169097Y-92274070D01*
X129063132Y-92276865D01*
X128963623Y-92279728D01*
X128869971Y-92282688D01*
X128781576Y-92285774D01*
X128697840Y-92289016D01*
X128618162Y-92292444D01*
X128541944Y-92296086D01*
X128468587Y-92299972D01*
X128397491Y-92304132D01*
X128328056Y-92308595D01*
X128259683Y-92313390D01*
X128191774Y-92318548D01*
X128123729Y-92324096D01*
X128087833Y-92327168D01*
X127935425Y-92341484D01*
X127788916Y-92357501D01*
X127647314Y-92375426D01*
X127509629Y-92395462D01*
X127374869Y-92417813D01*
X127242042Y-92442686D01*
X127110156Y-92470283D01*
X126978221Y-92500811D01*
X126845244Y-92534473D01*
X126710234Y-92571474D01*
X126572199Y-92612018D01*
X126430149Y-92656311D01*
X126322181Y-92691516D01*
X126265529Y-92710415D01*
X126213101Y-92728181D01*
X126164324Y-92745079D01*
X126118627Y-92761377D01*
X126075437Y-92777340D01*
X126034184Y-92793235D01*
X125994295Y-92809327D01*
X125955199Y-92825884D01*
X125916325Y-92843170D01*
X125877099Y-92861452D01*
X125836952Y-92880997D01*
X125795310Y-92902071D01*
X125751602Y-92924939D01*
X125705257Y-92949869D01*
X125655703Y-92977125D01*
X125602368Y-93006975D01*
X125544680Y-93039684D01*
X125482068Y-93075519D01*
X125417306Y-93112815D01*
X125367113Y-93141743D01*
X125322343Y-93167450D01*
X125282339Y-93190298D01*
X125246445Y-93210648D01*
X125214006Y-93228863D01*
X125184365Y-93245303D01*
X125156866Y-93260330D01*
X125130853Y-93274307D01*
X125105670Y-93287594D01*
X125080662Y-93300554D01*
X125055172Y-93313549D01*
X125032778Y-93324820D01*
X124967461Y-93356741D01*
X124906674Y-93384702D01*
X124849369Y-93409064D01*
X124794501Y-93430188D01*
X124741022Y-93448436D01*
X124687885Y-93464169D01*
X124634043Y-93477748D01*
X124578449Y-93489537D01*
X124530975Y-93498094D01*
X124471699Y-93507475D01*
X124417114Y-93514849D01*
X124365196Y-93520377D01*
X124313926Y-93524223D01*
X124261279Y-93526550D01*
X124205234Y-93527522D01*
X124166708Y-93527509D01*
X124140120Y-93527309D01*
X124115076Y-93527051D01*
X124092670Y-93526751D01*
X124073997Y-93526426D01*
X124060149Y-93526092D01*
X124052223Y-93525767D01*
X124052056Y-93525755D01*
X123961009Y-93516740D01*
X123871200Y-93503096D01*
X123783485Y-93485042D01*
X123698718Y-93462798D01*
X123617756Y-93436583D01*
X123541455Y-93406619D01*
X123483791Y-93379817D01*
X123397957Y-93332919D01*
X123314330Y-93279377D01*
X123232988Y-93219273D01*
X123154006Y-93152690D01*
X123077461Y-93079708D01*
X123003429Y-93000411D01*
X122931985Y-92914879D01*
X122863207Y-92823196D01*
X122797171Y-92725442D01*
X122733952Y-92621701D01*
X122673627Y-92512053D01*
X122669300Y-92503746D01*
X122632293Y-92428734D01*
X122597779Y-92350989D01*
X122565400Y-92269580D01*
X122534798Y-92183574D01*
X122505612Y-92092039D01*
X122489110Y-92035758D01*
X122481543Y-92009169D01*
X122235806Y-91910044D01*
X122196329Y-91894069D01*
X122158813Y-91878791D01*
X122123766Y-91864422D01*
X122091694Y-91851173D01*
X122063102Y-91839257D01*
X122038498Y-91828887D01*
X122018388Y-91820274D01*
X122003278Y-91813630D01*
X121993674Y-91809168D01*
X121990083Y-91807101D01*
X121990069Y-91807055D01*
X121992644Y-91804178D01*
X122000115Y-91796965D01*
X122012098Y-91785762D01*
X122028213Y-91770917D01*
X122048078Y-91752776D01*
X122071310Y-91731686D01*
X122097529Y-91707994D01*
X122126351Y-91682048D01*
X122157395Y-91654193D01*
X122190280Y-91624778D01*
X122215847Y-91601966D01*
X122441625Y-91400741D01*
X122456003Y-91361022D01*
X122484338Y-91290948D01*
X122517586Y-91224045D01*
X122556152Y-91159707D01*
X122600445Y-91097324D01*
X122650870Y-91036287D01*
X122707835Y-90975990D01*
X122724224Y-90959917D01*
X122791538Y-90899739D01*
X122864130Y-90844059D01*
X122941734Y-90793010D01*
X123024086Y-90746722D01*
X123110921Y-90705330D01*
X123201974Y-90668964D01*
X123296979Y-90637758D01*
X123395671Y-90611842D01*
X123441750Y-90601834D01*
X123486147Y-90593197D01*
X123525869Y-90586427D01*
X123562979Y-90581295D01*
X123599540Y-90577572D01*
X123637614Y-90575029D01*
X123679265Y-90573439D01*
X123702806Y-90572916D01*
X123749574Y-90572493D01*
X123791031Y-90573103D01*
X123791031Y-90573103D01*
G37*
X123791031Y-90573103D02*
X123828866Y-90574878D01*
X123864763Y-90577950D01*
X123900412Y-90582451D01*
X123937499Y-90588512D01*
X123962537Y-90593226D01*
X123999505Y-90600873D01*
X124034770Y-90609056D01*
X124069378Y-90618108D01*
X124104376Y-90628364D01*
X124140809Y-90640156D01*
X124179722Y-90653818D01*
X124222161Y-90669684D01*
X124269173Y-90688088D01*
X124304737Y-90702406D01*
X124351958Y-90721805D01*
X124399898Y-90741943D01*
X124448959Y-90763011D01*
X124499547Y-90785199D01*
X124552066Y-90808695D01*
X124606921Y-90833689D01*
X124664514Y-90860372D01*
X124725251Y-90888932D01*
X124789536Y-90919559D01*
X124857773Y-90952442D01*
X124930365Y-90987772D01*
X125007719Y-91025737D01*
X125090236Y-91066528D01*
X125178323Y-91110333D01*
X125236085Y-91139177D01*
X125317799Y-91179964D01*
X125393732Y-91217698D01*
X125464358Y-91252596D01*
X125530149Y-91284875D01*
X125591577Y-91314752D01*
X125649115Y-91342444D01*
X125703235Y-91368167D01*
X125754409Y-91392138D01*
X125803111Y-91414575D01*
X125849811Y-91435695D01*
X125894982Y-91455714D01*
X125939097Y-91474848D01*
X125982629Y-91493316D01*
X126026049Y-91511334D01*
X126069829Y-91529119D01*
X126114443Y-91546888D01*
X126160363Y-91564857D01*
X126177542Y-91571509D01*
X126201524Y-91580793D01*
X126223788Y-91589455D01*
X126243348Y-91597109D01*
X126259219Y-91603366D01*
X126270414Y-91607840D01*
X126275784Y-91610070D01*
X126285832Y-91614573D01*
X126270698Y-91633849D01*
X126258889Y-91647902D01*
X126242920Y-91665482D01*
X126223921Y-91685449D01*
X126203023Y-91706663D01*
X126181357Y-91727986D01*
X126160055Y-91748277D01*
X126140246Y-91766397D01*
X126131681Y-91773920D01*
X126056102Y-91835039D01*
X125974352Y-91893238D01*
X125886747Y-91948375D01*
X125793601Y-92000306D01*
X125695231Y-92048886D01*
X125591952Y-92093973D01*
X125484079Y-92135422D01*
X125371928Y-92173091D01*
X125255814Y-92206835D01*
X125136054Y-92236510D01*
X125096278Y-92245281D01*
X125037253Y-92257567D01*
X124983414Y-92268013D01*
X124933205Y-92276877D01*
X124885074Y-92284413D01*
X124837469Y-92290877D01*
X124788835Y-92296526D01*
X124778778Y-92297588D01*
X124758732Y-92299185D01*
X124733512Y-92300438D01*
X124704439Y-92301348D01*
X124672833Y-92301913D01*
X124640014Y-92302134D01*
X124607303Y-92302011D01*
X124576020Y-92301543D01*
X124547485Y-92300730D01*
X124523019Y-92299572D01*
X124503941Y-92298069D01*
X124500083Y-92297629D01*
X124429587Y-92286359D01*
X124364668Y-92270777D01*
X124305314Y-92250875D01*
X124251511Y-92226642D01*
X124203246Y-92198071D01*
X124160506Y-92165152D01*
X124123275Y-92127875D01*
X124091542Y-92086233D01*
X124065292Y-92040216D01*
X124045814Y-91993556D01*
X124036564Y-91965336D01*
X124029950Y-91939790D01*
X124025611Y-91914670D01*
X124023189Y-91887726D01*
X124022323Y-91856710D01*
X124022311Y-91846690D01*
X124022506Y-91789783D01*
X123999541Y-91787430D01*
X123976577Y-91785078D01*
X123926819Y-91819010D01*
X123927261Y-91868359D01*
X123931246Y-91926590D01*
X123942027Y-91983341D01*
X123959427Y-92038195D01*
X123983267Y-92090732D01*
X124013369Y-92140536D01*
X124049554Y-92187188D01*
X124074774Y-92214155D01*
X124115410Y-92251000D01*
X124159140Y-92283371D01*
X124206472Y-92311491D01*
X124257911Y-92335584D01*
X124313966Y-92355873D01*
X124375143Y-92372584D01*
X124441948Y-92385938D01*
X124475389Y-92391113D01*
X124496455Y-92393389D01*
X124523303Y-92395185D01*
X124554675Y-92396500D01*
X124589315Y-92397334D01*
X124625966Y-92397688D01*
X124663369Y-92397562D01*
X124700269Y-92396956D01*
X124735407Y-92395870D01*
X124767526Y-92394303D01*
X124795370Y-92392257D01*
X124807000Y-92391088D01*
X124921247Y-92375915D01*
X125036379Y-92356055D01*
X125151524Y-92331770D01*
X125265809Y-92303321D01*
X125378359Y-92270969D01*
X125488303Y-92234975D01*
X125594766Y-92195600D01*
X125696876Y-92153106D01*
X125793760Y-92107754D01*
X125848608Y-92079498D01*
X125931718Y-92032751D01*
X126010658Y-91983631D01*
X126084981Y-91932487D01*
X126154241Y-91879668D01*
X126217993Y-91825522D01*
X126275791Y-91770397D01*
X126327188Y-91714643D01*
X126348880Y-91688480D01*
X126363589Y-91670572D01*
X126374647Y-91658259D01*
X126382321Y-91651267D01*
X126386878Y-91649322D01*
X126387106Y-91649373D01*
X126401682Y-91653012D01*
X126422129Y-91657139D01*
X126447296Y-91661588D01*
X126476029Y-91666193D01*
X126507174Y-91670787D01*
X126539579Y-91675204D01*
X126572091Y-91679276D01*
X126603556Y-91682837D01*
X126632821Y-91685720D01*
X126646736Y-91686893D01*
X126676996Y-91688630D01*
X126710509Y-91689311D01*
X126747721Y-91688909D01*
X126789075Y-91687398D01*
X126835017Y-91684750D01*
X126885991Y-91680938D01*
X126942441Y-91675937D01*
X127004812Y-91669719D01*
X127073548Y-91662256D01*
X127094764Y-91659853D01*
X127192696Y-91648039D01*
X127297110Y-91634253D01*
X127407726Y-91618544D01*
X127524267Y-91600962D01*
X127646454Y-91581559D01*
X127774011Y-91560386D01*
X127906657Y-91537492D01*
X128044117Y-91512928D01*
X128186110Y-91486746D01*
X128332360Y-91458995D01*
X128482588Y-91429727D01*
X128636517Y-91398991D01*
X128793867Y-91366840D01*
X128954361Y-91333322D01*
X129117721Y-91298489D01*
X129283669Y-91262392D01*
X129311972Y-91256166D01*
X129343505Y-91249268D01*
X129373573Y-91242787D01*
X129401326Y-91236899D01*
X129425913Y-91231780D01*
X129446484Y-91227607D01*
X129462186Y-91224556D01*
X129472170Y-91222804D01*
X129474250Y-91222520D01*
X129501629Y-91222603D01*
X129530597Y-91228198D01*
X129559337Y-91238640D01*
X129586032Y-91253263D01*
X129608863Y-91271400D01*
X129609577Y-91272097D01*
X129620334Y-91284458D01*
X129633559Y-91302584D01*
X129648873Y-91325782D01*
X129665898Y-91353362D01*
X129684253Y-91384633D01*
X129703562Y-91418902D01*
X129723444Y-91455479D01*
X129743521Y-91493671D01*
X129763415Y-91532789D01*
X129782747Y-91572139D01*
X129801137Y-91611031D01*
X129818208Y-91648774D01*
X129826938Y-91668888D01*
X129854418Y-91737828D01*
X129876295Y-91802753D01*
X129892564Y-91863631D01*
X129903220Y-91920428D01*
X129908258Y-91973112D01*
X129907674Y-92021650D01*
X129901462Y-92066008D01*
X129890303Y-92104355D01*
X129880721Y-92124617D01*
X129867158Y-92146530D01*
X129851359Y-92167628D01*
X129835072Y-92185441D01*
X129829089Y-92190860D01*
X129813700Y-92202771D01*
X129797081Y-92213287D01*
X129778689Y-92222518D01*
X129757978Y-92230574D01*
X129734406Y-92237565D01*
X129707427Y-92243602D01*
X129676498Y-92248794D01*
X129641074Y-92253252D01*
X129600612Y-92257086D01*
X129554567Y-92260405D01*
X129502396Y-92263321D01*
X129461903Y-92265182D01*
X129442132Y-92265961D01*
X129416304Y-92266876D01*
X129385416Y-92267897D01*
X129350464Y-92268994D01*
X129312446Y-92270137D01*
X129272357Y-92271294D01*
X129231195Y-92272437D01*
X129189956Y-92273534D01*
X129169097Y-92274070D01*
X129063132Y-92276865D01*
X128963623Y-92279728D01*
X128869971Y-92282688D01*
X128781576Y-92285774D01*
X128697840Y-92289016D01*
X128618162Y-92292444D01*
X128541944Y-92296086D01*
X128468587Y-92299972D01*
X128397491Y-92304132D01*
X128328056Y-92308595D01*
X128259683Y-92313390D01*
X128191774Y-92318548D01*
X128123729Y-92324096D01*
X128087833Y-92327168D01*
X127935425Y-92341484D01*
X127788916Y-92357501D01*
X127647314Y-92375426D01*
X127509629Y-92395462D01*
X127374869Y-92417813D01*
X127242042Y-92442686D01*
X127110156Y-92470283D01*
X126978221Y-92500811D01*
X126845244Y-92534473D01*
X126710234Y-92571474D01*
X126572199Y-92612018D01*
X126430149Y-92656311D01*
X126322181Y-92691516D01*
X126265529Y-92710415D01*
X126213101Y-92728181D01*
X126164324Y-92745079D01*
X126118627Y-92761377D01*
X126075437Y-92777340D01*
X126034184Y-92793235D01*
X125994295Y-92809327D01*
X125955199Y-92825884D01*
X125916325Y-92843170D01*
X125877099Y-92861452D01*
X125836952Y-92880997D01*
X125795310Y-92902071D01*
X125751602Y-92924939D01*
X125705257Y-92949869D01*
X125655703Y-92977125D01*
X125602368Y-93006975D01*
X125544680Y-93039684D01*
X125482068Y-93075519D01*
X125417306Y-93112815D01*
X125367113Y-93141743D01*
X125322343Y-93167450D01*
X125282339Y-93190298D01*
X125246445Y-93210648D01*
X125214006Y-93228863D01*
X125184365Y-93245303D01*
X125156866Y-93260330D01*
X125130853Y-93274307D01*
X125105670Y-93287594D01*
X125080662Y-93300554D01*
X125055172Y-93313549D01*
X125032778Y-93324820D01*
X124967461Y-93356741D01*
X124906674Y-93384702D01*
X124849369Y-93409064D01*
X124794501Y-93430188D01*
X124741022Y-93448436D01*
X124687885Y-93464169D01*
X124634043Y-93477748D01*
X124578449Y-93489537D01*
X124530975Y-93498094D01*
X124471699Y-93507475D01*
X124417114Y-93514849D01*
X124365196Y-93520377D01*
X124313926Y-93524223D01*
X124261279Y-93526550D01*
X124205234Y-93527522D01*
X124166708Y-93527509D01*
X124140120Y-93527309D01*
X124115076Y-93527051D01*
X124092670Y-93526751D01*
X124073997Y-93526426D01*
X124060149Y-93526092D01*
X124052223Y-93525767D01*
X124052056Y-93525755D01*
X123961009Y-93516740D01*
X123871200Y-93503096D01*
X123783485Y-93485042D01*
X123698718Y-93462798D01*
X123617756Y-93436583D01*
X123541455Y-93406619D01*
X123483791Y-93379817D01*
X123397957Y-93332919D01*
X123314330Y-93279377D01*
X123232988Y-93219273D01*
X123154006Y-93152690D01*
X123077461Y-93079708D01*
X123003429Y-93000411D01*
X122931985Y-92914879D01*
X122863207Y-92823196D01*
X122797171Y-92725442D01*
X122733952Y-92621701D01*
X122673627Y-92512053D01*
X122669300Y-92503746D01*
X122632293Y-92428734D01*
X122597779Y-92350989D01*
X122565400Y-92269580D01*
X122534798Y-92183574D01*
X122505612Y-92092039D01*
X122489110Y-92035758D01*
X122481543Y-92009169D01*
X122235806Y-91910044D01*
X122196329Y-91894069D01*
X122158813Y-91878791D01*
X122123766Y-91864422D01*
X122091694Y-91851173D01*
X122063102Y-91839257D01*
X122038498Y-91828887D01*
X122018388Y-91820274D01*
X122003278Y-91813630D01*
X121993674Y-91809168D01*
X121990083Y-91807101D01*
X121990069Y-91807055D01*
X121992644Y-91804178D01*
X122000115Y-91796965D01*
X122012098Y-91785762D01*
X122028213Y-91770917D01*
X122048078Y-91752776D01*
X122071310Y-91731686D01*
X122097529Y-91707994D01*
X122126351Y-91682048D01*
X122157395Y-91654193D01*
X122190280Y-91624778D01*
X122215847Y-91601966D01*
X122441625Y-91400741D01*
X122456003Y-91361022D01*
X122484338Y-91290948D01*
X122517586Y-91224045D01*
X122556152Y-91159707D01*
X122600445Y-91097324D01*
X122650870Y-91036287D01*
X122707835Y-90975990D01*
X122724224Y-90959917D01*
X122791538Y-90899739D01*
X122864130Y-90844059D01*
X122941734Y-90793010D01*
X123024086Y-90746722D01*
X123110921Y-90705330D01*
X123201974Y-90668964D01*
X123296979Y-90637758D01*
X123395671Y-90611842D01*
X123441750Y-90601834D01*
X123486147Y-90593197D01*
X123525869Y-90586427D01*
X123562979Y-90581295D01*
X123599540Y-90577572D01*
X123637614Y-90575029D01*
X123679265Y-90573439D01*
X123702806Y-90572916D01*
X123749574Y-90572493D01*
X123791031Y-90573103D01*
D12*
X183000000Y-124460000D03*
X133560000Y-95760000D03*
D13*
X161190000Y-100200000D03*
X161190000Y-100600000D03*
X161190000Y-101000000D03*
X161190000Y-101400000D03*
X161190000Y-101800000D03*
X161190000Y-102200000D03*
X161190000Y-102600000D03*
X161190000Y-103000000D03*
X161190000Y-103400000D03*
X161190000Y-103800000D03*
X161190000Y-107800000D03*
X161190000Y-107400000D03*
X161190000Y-107000000D03*
X161190000Y-106600000D03*
X161190000Y-106200000D03*
X161190000Y-105800000D03*
X161190000Y-105400000D03*
X161190000Y-105000000D03*
X161190000Y-104600000D03*
X161190000Y-104200000D03*
X161190000Y-108200000D03*
X161190000Y-108600000D03*
X161190000Y-109000000D03*
X161190000Y-109400000D03*
X161190000Y-109800000D03*
X161190000Y-110200000D03*
X161190000Y-110600000D03*
X161190000Y-111000000D03*
X161190000Y-111400000D03*
X161190000Y-111800000D03*
X161190000Y-115800000D03*
X161190000Y-115400000D03*
X161190000Y-115000000D03*
X161190000Y-114600000D03*
X161190000Y-114200000D03*
X161190000Y-113800000D03*
X161190000Y-113400000D03*
X161190000Y-113000000D03*
X161190000Y-112600000D03*
X161190000Y-112200000D03*
X158110000Y-112200000D03*
X158110000Y-112600000D03*
X158110000Y-113000000D03*
X158110000Y-113400000D03*
X158110000Y-113800000D03*
X158110000Y-114200000D03*
X158110000Y-114600000D03*
X158110000Y-115000000D03*
X158110000Y-115400000D03*
X158110000Y-115800000D03*
X158110000Y-111800000D03*
X158110000Y-111400000D03*
X158110000Y-111000000D03*
X158110000Y-110600000D03*
X158110000Y-110200000D03*
X158110000Y-109800000D03*
X158110000Y-109400000D03*
X158110000Y-109000000D03*
X158110000Y-108600000D03*
X158110000Y-108200000D03*
X158110000Y-104200000D03*
X158110000Y-104600000D03*
X158110000Y-105000000D03*
X158110000Y-105400000D03*
X158110000Y-105800000D03*
X158110000Y-106200000D03*
X158110000Y-106600000D03*
X158110000Y-107000000D03*
X158110000Y-107400000D03*
X158110000Y-107800000D03*
X158110000Y-103800000D03*
X158110000Y-103400000D03*
X158110000Y-103000000D03*
X158110000Y-102600000D03*
X158110000Y-102200000D03*
X158110000Y-101800000D03*
X158110000Y-101400000D03*
X158110000Y-101000000D03*
X158110000Y-100600000D03*
X158110000Y-100200000D03*
D14*
X158461920Y-94250000D03*
X158461920Y-93599760D03*
X158461920Y-92949520D03*
X155800000Y-92949520D03*
X155800000Y-93599760D03*
X155800000Y-94250000D03*
X164300000Y-98250000D03*
X164300000Y-97599760D03*
X164300000Y-96949520D03*
X161638080Y-96949520D03*
X161638080Y-97599760D03*
X161638080Y-98250000D03*
X158611920Y-96700000D03*
X158611920Y-96049760D03*
X158611920Y-95399520D03*
X155950000Y-95399520D03*
X155950000Y-96049760D03*
X155950000Y-96700000D03*
D15*
X156972000Y-124663200D03*
D16*
X154432000Y-124663200D03*
X151892000Y-124663200D03*
X149352000Y-124663200D03*
X146812000Y-124663200D03*
X144272000Y-124663200D03*
X141732000Y-124663200D03*
X139192000Y-124663200D03*
D15*
X138684000Y-91440000D03*
D16*
X141224000Y-91440000D03*
X143764000Y-91440000D03*
X146304000Y-91440000D03*
X148844000Y-91440000D03*
X151384000Y-91440000D03*
D17*
X120396000Y-120396000D03*
D18*
X117856000Y-120396000D03*
X120396000Y-117856000D03*
X117856000Y-117856000D03*
X120396000Y-115316000D03*
X117856000Y-115316000D03*
X120396000Y-112776000D03*
X117856000Y-112776000D03*
X120396000Y-110236000D03*
X117856000Y-110236000D03*
X120396000Y-107696000D03*
X117856000Y-107696000D03*
X120396000Y-105156000D03*
X117856000Y-105156000D03*
X120396000Y-102616000D03*
X117856000Y-102616000D03*
X120396000Y-100076000D03*
X117856000Y-100076000D03*
X120396000Y-97536000D03*
X117856000Y-97536000D03*
X120396000Y-94996000D03*
X117856000Y-94996000D03*
D17*
X184404000Y-94183200D03*
D18*
X186944000Y-94183200D03*
X184404000Y-96723200D03*
X186944000Y-96723200D03*
X184404000Y-99263200D03*
X186944000Y-99263200D03*
X184404000Y-101803200D03*
X186944000Y-101803200D03*
X184404000Y-104343200D03*
X186944000Y-104343200D03*
X184404000Y-106883200D03*
X186944000Y-106883200D03*
X184404000Y-109423200D03*
X186944000Y-109423200D03*
X184404000Y-111963200D03*
X186944000Y-111963200D03*
X184404000Y-114503200D03*
X186944000Y-114503200D03*
X184404000Y-117043200D03*
X186944000Y-117043200D03*
X184404000Y-119583200D03*
X186944000Y-119583200D03*
X184404000Y-122123200D03*
X186944000Y-122123200D03*
D17*
X168402000Y-93726000D03*
D18*
X168402000Y-91186000D03*
X170942000Y-93726000D03*
X170942000Y-91186000D03*
X173482000Y-93726000D03*
X173482000Y-91186000D03*
D17*
X173736000Y-122224800D03*
D18*
X173736000Y-124764800D03*
X171196000Y-122224800D03*
X171196000Y-124764800D03*
X168656000Y-122224800D03*
X168656000Y-124764800D03*
D19*
X127000000Y-123151900D03*
X127000000Y-124650500D03*
X124000000Y-123164600D03*
X124000000Y-124663200D03*
X121000000Y-123250700D03*
X121000000Y-124749300D03*
D20*
X137922000Y-119362400D03*
X137922000Y-117162400D03*
X140620000Y-119390000D03*
X140620000Y-117190000D03*
X143256000Y-119395600D03*
X143256000Y-117195600D03*
X141200000Y-93710000D03*
X141200000Y-95910000D03*
X138600000Y-93700000D03*
X138600000Y-95900000D03*
X139190000Y-105020000D03*
X139190000Y-102820000D03*
X136870000Y-105010000D03*
X136870000Y-102810000D03*
D12*
X134640000Y-120300000D03*
M02*
