G04 #@! TF.FileFunction,Soldermask,Bot*
%FSLAX46Y46*%
G04 Gerber Fmt 4.6, Leading zero omitted, Abs format (unit mm)*
G04 Created by KiCad (PCBNEW 4.0.1-stable) date Tuesday, April 12, 2016 'PMt' 11:18:50 PM*
%MOMM*%
G01*
G04 APERTURE LIST*
%ADD10C,0.100000*%
%ADD11C,0.010000*%
%ADD12C,2.000000*%
%ADD13R,0.812400X0.382400*%
%ADD14R,0.812400X0.502400*%
%ADD15R,1.352400X0.902400*%
%ADD16R,0.902400X0.452400*%
%ADD17R,1.027400X0.877400*%
%ADD18R,1.352400X1.052400*%
%ADD19C,1.676400*%
%ADD20R,1.879600X2.184400*%
%ADD21O,1.879600X2.184400*%
%ADD22R,1.879600X1.879600*%
%ADD23O,1.879600X1.879600*%
G04 APERTURE END LIST*
D10*
D11*
G36*
X124568969Y-90623103D02*
X124531134Y-90624878D01*
X124495237Y-90627950D01*
X124459588Y-90632451D01*
X124422501Y-90638512D01*
X124397463Y-90643226D01*
X124360495Y-90650873D01*
X124325230Y-90659056D01*
X124290622Y-90668108D01*
X124255624Y-90678364D01*
X124219191Y-90690156D01*
X124180278Y-90703818D01*
X124137839Y-90719684D01*
X124090827Y-90738088D01*
X124055263Y-90752406D01*
X124008042Y-90771805D01*
X123960102Y-90791943D01*
X123911041Y-90813011D01*
X123860453Y-90835199D01*
X123807934Y-90858695D01*
X123753079Y-90883689D01*
X123695486Y-90910372D01*
X123634749Y-90938932D01*
X123570464Y-90969559D01*
X123502227Y-91002442D01*
X123429635Y-91037772D01*
X123352281Y-91075737D01*
X123269764Y-91116528D01*
X123181677Y-91160333D01*
X123123915Y-91189177D01*
X123042201Y-91229964D01*
X122966268Y-91267698D01*
X122895642Y-91302596D01*
X122829851Y-91334875D01*
X122768423Y-91364752D01*
X122710885Y-91392444D01*
X122656765Y-91418167D01*
X122605591Y-91442138D01*
X122556889Y-91464575D01*
X122510189Y-91485695D01*
X122465018Y-91505714D01*
X122420903Y-91524848D01*
X122377371Y-91543316D01*
X122333951Y-91561334D01*
X122290171Y-91579119D01*
X122245557Y-91596888D01*
X122199637Y-91614857D01*
X122182458Y-91621509D01*
X122158476Y-91630793D01*
X122136212Y-91639455D01*
X122116652Y-91647109D01*
X122100781Y-91653366D01*
X122089586Y-91657840D01*
X122084216Y-91660070D01*
X122074168Y-91664573D01*
X122089302Y-91683849D01*
X122101111Y-91697902D01*
X122117080Y-91715482D01*
X122136079Y-91735449D01*
X122156977Y-91756663D01*
X122178643Y-91777986D01*
X122199945Y-91798277D01*
X122219754Y-91816397D01*
X122228319Y-91823920D01*
X122303898Y-91885039D01*
X122385648Y-91943238D01*
X122473253Y-91998375D01*
X122566399Y-92050306D01*
X122664769Y-92098886D01*
X122768048Y-92143973D01*
X122875921Y-92185422D01*
X122988072Y-92223091D01*
X123104186Y-92256835D01*
X123223946Y-92286510D01*
X123263722Y-92295281D01*
X123322747Y-92307567D01*
X123376586Y-92318013D01*
X123426795Y-92326877D01*
X123474926Y-92334413D01*
X123522531Y-92340877D01*
X123571165Y-92346526D01*
X123581222Y-92347588D01*
X123601268Y-92349185D01*
X123626488Y-92350438D01*
X123655561Y-92351348D01*
X123687167Y-92351913D01*
X123719986Y-92352134D01*
X123752697Y-92352011D01*
X123783980Y-92351543D01*
X123812515Y-92350730D01*
X123836981Y-92349572D01*
X123856059Y-92348069D01*
X123859917Y-92347629D01*
X123930413Y-92336359D01*
X123995332Y-92320777D01*
X124054686Y-92300875D01*
X124108489Y-92276642D01*
X124156754Y-92248071D01*
X124199494Y-92215152D01*
X124236725Y-92177875D01*
X124268458Y-92136233D01*
X124294708Y-92090216D01*
X124314186Y-92043556D01*
X124323436Y-92015336D01*
X124330050Y-91989790D01*
X124334389Y-91964670D01*
X124336811Y-91937726D01*
X124337677Y-91906710D01*
X124337689Y-91896690D01*
X124337494Y-91839783D01*
X124360459Y-91837430D01*
X124383423Y-91835078D01*
X124433181Y-91869010D01*
X124432739Y-91918359D01*
X124428754Y-91976590D01*
X124417973Y-92033341D01*
X124400573Y-92088195D01*
X124376733Y-92140732D01*
X124346631Y-92190536D01*
X124310446Y-92237188D01*
X124285226Y-92264155D01*
X124244590Y-92301000D01*
X124200860Y-92333371D01*
X124153528Y-92361491D01*
X124102089Y-92385584D01*
X124046034Y-92405873D01*
X123984857Y-92422584D01*
X123918052Y-92435938D01*
X123884611Y-92441113D01*
X123863545Y-92443389D01*
X123836697Y-92445185D01*
X123805325Y-92446500D01*
X123770685Y-92447334D01*
X123734034Y-92447688D01*
X123696631Y-92447562D01*
X123659731Y-92446956D01*
X123624593Y-92445870D01*
X123592474Y-92444303D01*
X123564630Y-92442257D01*
X123553000Y-92441088D01*
X123438753Y-92425915D01*
X123323621Y-92406055D01*
X123208476Y-92381770D01*
X123094191Y-92353321D01*
X122981641Y-92320969D01*
X122871697Y-92284975D01*
X122765234Y-92245600D01*
X122663124Y-92203106D01*
X122566240Y-92157754D01*
X122511392Y-92129498D01*
X122428282Y-92082751D01*
X122349342Y-92033631D01*
X122275019Y-91982487D01*
X122205759Y-91929668D01*
X122142007Y-91875522D01*
X122084209Y-91820397D01*
X122032812Y-91764643D01*
X122011120Y-91738480D01*
X121996411Y-91720572D01*
X121985353Y-91708259D01*
X121977679Y-91701267D01*
X121973122Y-91699322D01*
X121972894Y-91699373D01*
X121958318Y-91703012D01*
X121937871Y-91707139D01*
X121912704Y-91711588D01*
X121883971Y-91716193D01*
X121852826Y-91720787D01*
X121820421Y-91725204D01*
X121787909Y-91729276D01*
X121756444Y-91732837D01*
X121727179Y-91735720D01*
X121713264Y-91736893D01*
X121683004Y-91738630D01*
X121649491Y-91739311D01*
X121612279Y-91738909D01*
X121570925Y-91737398D01*
X121524983Y-91734750D01*
X121474009Y-91730938D01*
X121417559Y-91725937D01*
X121355188Y-91719719D01*
X121286452Y-91712256D01*
X121265236Y-91709853D01*
X121167304Y-91698039D01*
X121062890Y-91684253D01*
X120952274Y-91668544D01*
X120835733Y-91650962D01*
X120713546Y-91631559D01*
X120585989Y-91610386D01*
X120453343Y-91587492D01*
X120315883Y-91562928D01*
X120173890Y-91536746D01*
X120027640Y-91508995D01*
X119877412Y-91479727D01*
X119723483Y-91448991D01*
X119566133Y-91416840D01*
X119405639Y-91383322D01*
X119242279Y-91348489D01*
X119076331Y-91312392D01*
X119048028Y-91306166D01*
X119016495Y-91299268D01*
X118986427Y-91292787D01*
X118958674Y-91286899D01*
X118934087Y-91281780D01*
X118913516Y-91277607D01*
X118897814Y-91274556D01*
X118887830Y-91272804D01*
X118885750Y-91272520D01*
X118858371Y-91272603D01*
X118829403Y-91278198D01*
X118800663Y-91288640D01*
X118773968Y-91303263D01*
X118751137Y-91321400D01*
X118750423Y-91322097D01*
X118739666Y-91334458D01*
X118726441Y-91352584D01*
X118711127Y-91375782D01*
X118694102Y-91403362D01*
X118675747Y-91434633D01*
X118656438Y-91468902D01*
X118636556Y-91505479D01*
X118616479Y-91543671D01*
X118596585Y-91582789D01*
X118577253Y-91622139D01*
X118558863Y-91661031D01*
X118541792Y-91698774D01*
X118533062Y-91718888D01*
X118505582Y-91787828D01*
X118483705Y-91852753D01*
X118467436Y-91913631D01*
X118456780Y-91970428D01*
X118451742Y-92023112D01*
X118452326Y-92071650D01*
X118458538Y-92116008D01*
X118469697Y-92154355D01*
X118479279Y-92174617D01*
X118492842Y-92196530D01*
X118508641Y-92217628D01*
X118524928Y-92235441D01*
X118530911Y-92240860D01*
X118546300Y-92252771D01*
X118562919Y-92263287D01*
X118581311Y-92272518D01*
X118602022Y-92280574D01*
X118625594Y-92287565D01*
X118652573Y-92293602D01*
X118683502Y-92298794D01*
X118718926Y-92303252D01*
X118759388Y-92307086D01*
X118805433Y-92310405D01*
X118857604Y-92313321D01*
X118898097Y-92315182D01*
X118917868Y-92315961D01*
X118943696Y-92316876D01*
X118974584Y-92317897D01*
X119009536Y-92318994D01*
X119047554Y-92320137D01*
X119087643Y-92321294D01*
X119128805Y-92322437D01*
X119170044Y-92323534D01*
X119190903Y-92324070D01*
X119296868Y-92326865D01*
X119396377Y-92329728D01*
X119490029Y-92332688D01*
X119578424Y-92335774D01*
X119662160Y-92339016D01*
X119741838Y-92342444D01*
X119818056Y-92346086D01*
X119891413Y-92349972D01*
X119962509Y-92354132D01*
X120031944Y-92358595D01*
X120100317Y-92363390D01*
X120168226Y-92368548D01*
X120236271Y-92374096D01*
X120272167Y-92377168D01*
X120424575Y-92391484D01*
X120571084Y-92407501D01*
X120712686Y-92425426D01*
X120850371Y-92445462D01*
X120985131Y-92467813D01*
X121117958Y-92492686D01*
X121249844Y-92520283D01*
X121381779Y-92550811D01*
X121514756Y-92584473D01*
X121649766Y-92621474D01*
X121787801Y-92662018D01*
X121929851Y-92706311D01*
X122037819Y-92741516D01*
X122094471Y-92760415D01*
X122146899Y-92778181D01*
X122195676Y-92795079D01*
X122241373Y-92811377D01*
X122284563Y-92827340D01*
X122325816Y-92843235D01*
X122365705Y-92859327D01*
X122404801Y-92875884D01*
X122443675Y-92893170D01*
X122482901Y-92911452D01*
X122523048Y-92930997D01*
X122564690Y-92952071D01*
X122608398Y-92974939D01*
X122654743Y-92999869D01*
X122704297Y-93027125D01*
X122757632Y-93056975D01*
X122815320Y-93089684D01*
X122877932Y-93125519D01*
X122942694Y-93162815D01*
X122992887Y-93191743D01*
X123037657Y-93217450D01*
X123077661Y-93240298D01*
X123113555Y-93260648D01*
X123145994Y-93278863D01*
X123175635Y-93295303D01*
X123203134Y-93310330D01*
X123229147Y-93324307D01*
X123254330Y-93337594D01*
X123279338Y-93350554D01*
X123304828Y-93363549D01*
X123327222Y-93374820D01*
X123392539Y-93406741D01*
X123453326Y-93434702D01*
X123510631Y-93459064D01*
X123565499Y-93480188D01*
X123618978Y-93498436D01*
X123672115Y-93514169D01*
X123725957Y-93527748D01*
X123781551Y-93539537D01*
X123829025Y-93548094D01*
X123888301Y-93557475D01*
X123942886Y-93564849D01*
X123994804Y-93570377D01*
X124046074Y-93574223D01*
X124098721Y-93576550D01*
X124154766Y-93577522D01*
X124193292Y-93577509D01*
X124219880Y-93577309D01*
X124244924Y-93577051D01*
X124267330Y-93576751D01*
X124286003Y-93576426D01*
X124299851Y-93576092D01*
X124307777Y-93575767D01*
X124307944Y-93575755D01*
X124398991Y-93566740D01*
X124488800Y-93553096D01*
X124576515Y-93535042D01*
X124661282Y-93512798D01*
X124742244Y-93486583D01*
X124818545Y-93456619D01*
X124876209Y-93429817D01*
X124962043Y-93382919D01*
X125045670Y-93329377D01*
X125127012Y-93269273D01*
X125205994Y-93202690D01*
X125282539Y-93129708D01*
X125356571Y-93050411D01*
X125428015Y-92964879D01*
X125496793Y-92873196D01*
X125562829Y-92775442D01*
X125626048Y-92671701D01*
X125686373Y-92562053D01*
X125690700Y-92553746D01*
X125727707Y-92478734D01*
X125762221Y-92400989D01*
X125794600Y-92319580D01*
X125825202Y-92233574D01*
X125854388Y-92142039D01*
X125870890Y-92085758D01*
X125878457Y-92059169D01*
X126124194Y-91960044D01*
X126163671Y-91944069D01*
X126201187Y-91928791D01*
X126236234Y-91914422D01*
X126268306Y-91901173D01*
X126296898Y-91889257D01*
X126321502Y-91878887D01*
X126341612Y-91870274D01*
X126356722Y-91863630D01*
X126366326Y-91859168D01*
X126369917Y-91857101D01*
X126369931Y-91857055D01*
X126367356Y-91854178D01*
X126359885Y-91846965D01*
X126347902Y-91835762D01*
X126331787Y-91820917D01*
X126311922Y-91802776D01*
X126288690Y-91781686D01*
X126262471Y-91757994D01*
X126233649Y-91732048D01*
X126202605Y-91704193D01*
X126169720Y-91674778D01*
X126144153Y-91651966D01*
X125918375Y-91450741D01*
X125903997Y-91411022D01*
X125875662Y-91340948D01*
X125842414Y-91274045D01*
X125803848Y-91209707D01*
X125759555Y-91147324D01*
X125709130Y-91086287D01*
X125652165Y-91025990D01*
X125635776Y-91009917D01*
X125568462Y-90949739D01*
X125495870Y-90894059D01*
X125418266Y-90843010D01*
X125335914Y-90796722D01*
X125249079Y-90755330D01*
X125158026Y-90718964D01*
X125063021Y-90687758D01*
X124964329Y-90661842D01*
X124918250Y-90651834D01*
X124873853Y-90643197D01*
X124834131Y-90636427D01*
X124797021Y-90631295D01*
X124760460Y-90627572D01*
X124722386Y-90625029D01*
X124680735Y-90623439D01*
X124657194Y-90622916D01*
X124610426Y-90622493D01*
X124568969Y-90623103D01*
X124568969Y-90623103D01*
G37*
X124568969Y-90623103D02*
X124531134Y-90624878D01*
X124495237Y-90627950D01*
X124459588Y-90632451D01*
X124422501Y-90638512D01*
X124397463Y-90643226D01*
X124360495Y-90650873D01*
X124325230Y-90659056D01*
X124290622Y-90668108D01*
X124255624Y-90678364D01*
X124219191Y-90690156D01*
X124180278Y-90703818D01*
X124137839Y-90719684D01*
X124090827Y-90738088D01*
X124055263Y-90752406D01*
X124008042Y-90771805D01*
X123960102Y-90791943D01*
X123911041Y-90813011D01*
X123860453Y-90835199D01*
X123807934Y-90858695D01*
X123753079Y-90883689D01*
X123695486Y-90910372D01*
X123634749Y-90938932D01*
X123570464Y-90969559D01*
X123502227Y-91002442D01*
X123429635Y-91037772D01*
X123352281Y-91075737D01*
X123269764Y-91116528D01*
X123181677Y-91160333D01*
X123123915Y-91189177D01*
X123042201Y-91229964D01*
X122966268Y-91267698D01*
X122895642Y-91302596D01*
X122829851Y-91334875D01*
X122768423Y-91364752D01*
X122710885Y-91392444D01*
X122656765Y-91418167D01*
X122605591Y-91442138D01*
X122556889Y-91464575D01*
X122510189Y-91485695D01*
X122465018Y-91505714D01*
X122420903Y-91524848D01*
X122377371Y-91543316D01*
X122333951Y-91561334D01*
X122290171Y-91579119D01*
X122245557Y-91596888D01*
X122199637Y-91614857D01*
X122182458Y-91621509D01*
X122158476Y-91630793D01*
X122136212Y-91639455D01*
X122116652Y-91647109D01*
X122100781Y-91653366D01*
X122089586Y-91657840D01*
X122084216Y-91660070D01*
X122074168Y-91664573D01*
X122089302Y-91683849D01*
X122101111Y-91697902D01*
X122117080Y-91715482D01*
X122136079Y-91735449D01*
X122156977Y-91756663D01*
X122178643Y-91777986D01*
X122199945Y-91798277D01*
X122219754Y-91816397D01*
X122228319Y-91823920D01*
X122303898Y-91885039D01*
X122385648Y-91943238D01*
X122473253Y-91998375D01*
X122566399Y-92050306D01*
X122664769Y-92098886D01*
X122768048Y-92143973D01*
X122875921Y-92185422D01*
X122988072Y-92223091D01*
X123104186Y-92256835D01*
X123223946Y-92286510D01*
X123263722Y-92295281D01*
X123322747Y-92307567D01*
X123376586Y-92318013D01*
X123426795Y-92326877D01*
X123474926Y-92334413D01*
X123522531Y-92340877D01*
X123571165Y-92346526D01*
X123581222Y-92347588D01*
X123601268Y-92349185D01*
X123626488Y-92350438D01*
X123655561Y-92351348D01*
X123687167Y-92351913D01*
X123719986Y-92352134D01*
X123752697Y-92352011D01*
X123783980Y-92351543D01*
X123812515Y-92350730D01*
X123836981Y-92349572D01*
X123856059Y-92348069D01*
X123859917Y-92347629D01*
X123930413Y-92336359D01*
X123995332Y-92320777D01*
X124054686Y-92300875D01*
X124108489Y-92276642D01*
X124156754Y-92248071D01*
X124199494Y-92215152D01*
X124236725Y-92177875D01*
X124268458Y-92136233D01*
X124294708Y-92090216D01*
X124314186Y-92043556D01*
X124323436Y-92015336D01*
X124330050Y-91989790D01*
X124334389Y-91964670D01*
X124336811Y-91937726D01*
X124337677Y-91906710D01*
X124337689Y-91896690D01*
X124337494Y-91839783D01*
X124360459Y-91837430D01*
X124383423Y-91835078D01*
X124433181Y-91869010D01*
X124432739Y-91918359D01*
X124428754Y-91976590D01*
X124417973Y-92033341D01*
X124400573Y-92088195D01*
X124376733Y-92140732D01*
X124346631Y-92190536D01*
X124310446Y-92237188D01*
X124285226Y-92264155D01*
X124244590Y-92301000D01*
X124200860Y-92333371D01*
X124153528Y-92361491D01*
X124102089Y-92385584D01*
X124046034Y-92405873D01*
X123984857Y-92422584D01*
X123918052Y-92435938D01*
X123884611Y-92441113D01*
X123863545Y-92443389D01*
X123836697Y-92445185D01*
X123805325Y-92446500D01*
X123770685Y-92447334D01*
X123734034Y-92447688D01*
X123696631Y-92447562D01*
X123659731Y-92446956D01*
X123624593Y-92445870D01*
X123592474Y-92444303D01*
X123564630Y-92442257D01*
X123553000Y-92441088D01*
X123438753Y-92425915D01*
X123323621Y-92406055D01*
X123208476Y-92381770D01*
X123094191Y-92353321D01*
X122981641Y-92320969D01*
X122871697Y-92284975D01*
X122765234Y-92245600D01*
X122663124Y-92203106D01*
X122566240Y-92157754D01*
X122511392Y-92129498D01*
X122428282Y-92082751D01*
X122349342Y-92033631D01*
X122275019Y-91982487D01*
X122205759Y-91929668D01*
X122142007Y-91875522D01*
X122084209Y-91820397D01*
X122032812Y-91764643D01*
X122011120Y-91738480D01*
X121996411Y-91720572D01*
X121985353Y-91708259D01*
X121977679Y-91701267D01*
X121973122Y-91699322D01*
X121972894Y-91699373D01*
X121958318Y-91703012D01*
X121937871Y-91707139D01*
X121912704Y-91711588D01*
X121883971Y-91716193D01*
X121852826Y-91720787D01*
X121820421Y-91725204D01*
X121787909Y-91729276D01*
X121756444Y-91732837D01*
X121727179Y-91735720D01*
X121713264Y-91736893D01*
X121683004Y-91738630D01*
X121649491Y-91739311D01*
X121612279Y-91738909D01*
X121570925Y-91737398D01*
X121524983Y-91734750D01*
X121474009Y-91730938D01*
X121417559Y-91725937D01*
X121355188Y-91719719D01*
X121286452Y-91712256D01*
X121265236Y-91709853D01*
X121167304Y-91698039D01*
X121062890Y-91684253D01*
X120952274Y-91668544D01*
X120835733Y-91650962D01*
X120713546Y-91631559D01*
X120585989Y-91610386D01*
X120453343Y-91587492D01*
X120315883Y-91562928D01*
X120173890Y-91536746D01*
X120027640Y-91508995D01*
X119877412Y-91479727D01*
X119723483Y-91448991D01*
X119566133Y-91416840D01*
X119405639Y-91383322D01*
X119242279Y-91348489D01*
X119076331Y-91312392D01*
X119048028Y-91306166D01*
X119016495Y-91299268D01*
X118986427Y-91292787D01*
X118958674Y-91286899D01*
X118934087Y-91281780D01*
X118913516Y-91277607D01*
X118897814Y-91274556D01*
X118887830Y-91272804D01*
X118885750Y-91272520D01*
X118858371Y-91272603D01*
X118829403Y-91278198D01*
X118800663Y-91288640D01*
X118773968Y-91303263D01*
X118751137Y-91321400D01*
X118750423Y-91322097D01*
X118739666Y-91334458D01*
X118726441Y-91352584D01*
X118711127Y-91375782D01*
X118694102Y-91403362D01*
X118675747Y-91434633D01*
X118656438Y-91468902D01*
X118636556Y-91505479D01*
X118616479Y-91543671D01*
X118596585Y-91582789D01*
X118577253Y-91622139D01*
X118558863Y-91661031D01*
X118541792Y-91698774D01*
X118533062Y-91718888D01*
X118505582Y-91787828D01*
X118483705Y-91852753D01*
X118467436Y-91913631D01*
X118456780Y-91970428D01*
X118451742Y-92023112D01*
X118452326Y-92071650D01*
X118458538Y-92116008D01*
X118469697Y-92154355D01*
X118479279Y-92174617D01*
X118492842Y-92196530D01*
X118508641Y-92217628D01*
X118524928Y-92235441D01*
X118530911Y-92240860D01*
X118546300Y-92252771D01*
X118562919Y-92263287D01*
X118581311Y-92272518D01*
X118602022Y-92280574D01*
X118625594Y-92287565D01*
X118652573Y-92293602D01*
X118683502Y-92298794D01*
X118718926Y-92303252D01*
X118759388Y-92307086D01*
X118805433Y-92310405D01*
X118857604Y-92313321D01*
X118898097Y-92315182D01*
X118917868Y-92315961D01*
X118943696Y-92316876D01*
X118974584Y-92317897D01*
X119009536Y-92318994D01*
X119047554Y-92320137D01*
X119087643Y-92321294D01*
X119128805Y-92322437D01*
X119170044Y-92323534D01*
X119190903Y-92324070D01*
X119296868Y-92326865D01*
X119396377Y-92329728D01*
X119490029Y-92332688D01*
X119578424Y-92335774D01*
X119662160Y-92339016D01*
X119741838Y-92342444D01*
X119818056Y-92346086D01*
X119891413Y-92349972D01*
X119962509Y-92354132D01*
X120031944Y-92358595D01*
X120100317Y-92363390D01*
X120168226Y-92368548D01*
X120236271Y-92374096D01*
X120272167Y-92377168D01*
X120424575Y-92391484D01*
X120571084Y-92407501D01*
X120712686Y-92425426D01*
X120850371Y-92445462D01*
X120985131Y-92467813D01*
X121117958Y-92492686D01*
X121249844Y-92520283D01*
X121381779Y-92550811D01*
X121514756Y-92584473D01*
X121649766Y-92621474D01*
X121787801Y-92662018D01*
X121929851Y-92706311D01*
X122037819Y-92741516D01*
X122094471Y-92760415D01*
X122146899Y-92778181D01*
X122195676Y-92795079D01*
X122241373Y-92811377D01*
X122284563Y-92827340D01*
X122325816Y-92843235D01*
X122365705Y-92859327D01*
X122404801Y-92875884D01*
X122443675Y-92893170D01*
X122482901Y-92911452D01*
X122523048Y-92930997D01*
X122564690Y-92952071D01*
X122608398Y-92974939D01*
X122654743Y-92999869D01*
X122704297Y-93027125D01*
X122757632Y-93056975D01*
X122815320Y-93089684D01*
X122877932Y-93125519D01*
X122942694Y-93162815D01*
X122992887Y-93191743D01*
X123037657Y-93217450D01*
X123077661Y-93240298D01*
X123113555Y-93260648D01*
X123145994Y-93278863D01*
X123175635Y-93295303D01*
X123203134Y-93310330D01*
X123229147Y-93324307D01*
X123254330Y-93337594D01*
X123279338Y-93350554D01*
X123304828Y-93363549D01*
X123327222Y-93374820D01*
X123392539Y-93406741D01*
X123453326Y-93434702D01*
X123510631Y-93459064D01*
X123565499Y-93480188D01*
X123618978Y-93498436D01*
X123672115Y-93514169D01*
X123725957Y-93527748D01*
X123781551Y-93539537D01*
X123829025Y-93548094D01*
X123888301Y-93557475D01*
X123942886Y-93564849D01*
X123994804Y-93570377D01*
X124046074Y-93574223D01*
X124098721Y-93576550D01*
X124154766Y-93577522D01*
X124193292Y-93577509D01*
X124219880Y-93577309D01*
X124244924Y-93577051D01*
X124267330Y-93576751D01*
X124286003Y-93576426D01*
X124299851Y-93576092D01*
X124307777Y-93575767D01*
X124307944Y-93575755D01*
X124398991Y-93566740D01*
X124488800Y-93553096D01*
X124576515Y-93535042D01*
X124661282Y-93512798D01*
X124742244Y-93486583D01*
X124818545Y-93456619D01*
X124876209Y-93429817D01*
X124962043Y-93382919D01*
X125045670Y-93329377D01*
X125127012Y-93269273D01*
X125205994Y-93202690D01*
X125282539Y-93129708D01*
X125356571Y-93050411D01*
X125428015Y-92964879D01*
X125496793Y-92873196D01*
X125562829Y-92775442D01*
X125626048Y-92671701D01*
X125686373Y-92562053D01*
X125690700Y-92553746D01*
X125727707Y-92478734D01*
X125762221Y-92400989D01*
X125794600Y-92319580D01*
X125825202Y-92233574D01*
X125854388Y-92142039D01*
X125870890Y-92085758D01*
X125878457Y-92059169D01*
X126124194Y-91960044D01*
X126163671Y-91944069D01*
X126201187Y-91928791D01*
X126236234Y-91914422D01*
X126268306Y-91901173D01*
X126296898Y-91889257D01*
X126321502Y-91878887D01*
X126341612Y-91870274D01*
X126356722Y-91863630D01*
X126366326Y-91859168D01*
X126369917Y-91857101D01*
X126369931Y-91857055D01*
X126367356Y-91854178D01*
X126359885Y-91846965D01*
X126347902Y-91835762D01*
X126331787Y-91820917D01*
X126311922Y-91802776D01*
X126288690Y-91781686D01*
X126262471Y-91757994D01*
X126233649Y-91732048D01*
X126202605Y-91704193D01*
X126169720Y-91674778D01*
X126144153Y-91651966D01*
X125918375Y-91450741D01*
X125903997Y-91411022D01*
X125875662Y-91340948D01*
X125842414Y-91274045D01*
X125803848Y-91209707D01*
X125759555Y-91147324D01*
X125709130Y-91086287D01*
X125652165Y-91025990D01*
X125635776Y-91009917D01*
X125568462Y-90949739D01*
X125495870Y-90894059D01*
X125418266Y-90843010D01*
X125335914Y-90796722D01*
X125249079Y-90755330D01*
X125158026Y-90718964D01*
X125063021Y-90687758D01*
X124964329Y-90661842D01*
X124918250Y-90651834D01*
X124873853Y-90643197D01*
X124834131Y-90636427D01*
X124797021Y-90631295D01*
X124760460Y-90627572D01*
X124722386Y-90625029D01*
X124680735Y-90623439D01*
X124657194Y-90622916D01*
X124610426Y-90622493D01*
X124568969Y-90623103D01*
D12*
X183000000Y-124460000D03*
X133560000Y-95760000D03*
X134640000Y-120300000D03*
D13*
X161005000Y-115800000D03*
X158295000Y-115800000D03*
X161005000Y-100200000D03*
X158295000Y-100200000D03*
X161005000Y-115400000D03*
X161005000Y-115000000D03*
X161005000Y-114600000D03*
X161005000Y-114200000D03*
X161005000Y-113800000D03*
X161005000Y-113400000D03*
X161005000Y-113000000D03*
X161005000Y-112600000D03*
X161005000Y-112200000D03*
X161005000Y-111800000D03*
X161005000Y-111400000D03*
X161005000Y-111000000D03*
X161005000Y-110600000D03*
X161005000Y-110200000D03*
X161005000Y-109800000D03*
X161005000Y-109400000D03*
X161005000Y-109000000D03*
X161005000Y-108600000D03*
X161005000Y-108200000D03*
X161005000Y-107800000D03*
X161005000Y-107400000D03*
X161005000Y-107000000D03*
X161005000Y-106600000D03*
X161005000Y-106200000D03*
X161005000Y-105800000D03*
X161005000Y-105400000D03*
X161005000Y-105000000D03*
X161005000Y-104600000D03*
X161005000Y-104200000D03*
X161005000Y-103800000D03*
X161005000Y-103400000D03*
X161005000Y-103000000D03*
X161005000Y-102600000D03*
X161005000Y-102200000D03*
X161005000Y-101800000D03*
X161005000Y-101400000D03*
X161005000Y-101000000D03*
X161005000Y-100600000D03*
D14*
X161005000Y-99725000D03*
X158295000Y-99725000D03*
X161005000Y-116275000D03*
X158295000Y-116275000D03*
D13*
X158295000Y-100600000D03*
X158295000Y-101000000D03*
X158295000Y-101400000D03*
X158295000Y-101800000D03*
X158295000Y-102200000D03*
X158295000Y-102600000D03*
X158295000Y-103000000D03*
X158295000Y-103400000D03*
X158295000Y-103800000D03*
X158295000Y-104200000D03*
X158295000Y-104600000D03*
X158295000Y-105000000D03*
X158295000Y-105400000D03*
X158295000Y-105800000D03*
X158295000Y-106200000D03*
X158295000Y-106600000D03*
X158295000Y-107000000D03*
X158295000Y-107400000D03*
X158295000Y-107800000D03*
X158295000Y-108200000D03*
X158295000Y-108600000D03*
X158295000Y-109000000D03*
X158295000Y-109400000D03*
X158295000Y-109800000D03*
X158295000Y-110200000D03*
X158295000Y-110600000D03*
X158295000Y-111000000D03*
X158295000Y-111400000D03*
X158295000Y-111800000D03*
X158295000Y-112200000D03*
X158295000Y-112600000D03*
X158295000Y-113000000D03*
X158295000Y-113400000D03*
X158295000Y-113800000D03*
X158295000Y-114200000D03*
X158295000Y-114600000D03*
X158295000Y-115000000D03*
X158295000Y-115400000D03*
D15*
X156250000Y-95900000D03*
X158150000Y-95900000D03*
D16*
X158712500Y-92862500D03*
X158712500Y-93362500D03*
X158712500Y-93862500D03*
X158712500Y-94362500D03*
X155812500Y-94362500D03*
X155812500Y-93862500D03*
X155812500Y-93362500D03*
X155812500Y-92862500D03*
D17*
X156825000Y-93975000D03*
X156825000Y-93250000D03*
X157700000Y-93975000D03*
X157700000Y-93250000D03*
D18*
X156550000Y-91200000D03*
X154350000Y-91200000D03*
D19*
X158550000Y-91250000D03*
D20*
X156972000Y-124663200D03*
D21*
X154432000Y-124663200D03*
X151892000Y-124663200D03*
X149352000Y-124663200D03*
X146812000Y-124663200D03*
X144272000Y-124663200D03*
X141732000Y-124663200D03*
X139192000Y-124663200D03*
D20*
X138684000Y-91440000D03*
D21*
X141224000Y-91440000D03*
X143764000Y-91440000D03*
X146304000Y-91440000D03*
X148844000Y-91440000D03*
X151384000Y-91440000D03*
D22*
X120396000Y-120396000D03*
D23*
X117856000Y-120396000D03*
X120396000Y-117856000D03*
X117856000Y-117856000D03*
X120396000Y-115316000D03*
X117856000Y-115316000D03*
X120396000Y-112776000D03*
X117856000Y-112776000D03*
X120396000Y-110236000D03*
X117856000Y-110236000D03*
X120396000Y-107696000D03*
X117856000Y-107696000D03*
X120396000Y-105156000D03*
X117856000Y-105156000D03*
X120396000Y-102616000D03*
X117856000Y-102616000D03*
X120396000Y-100076000D03*
X117856000Y-100076000D03*
X120396000Y-97536000D03*
X117856000Y-97536000D03*
X120396000Y-94996000D03*
X117856000Y-94996000D03*
D22*
X184404000Y-94183200D03*
D23*
X186944000Y-94183200D03*
X184404000Y-96723200D03*
X186944000Y-96723200D03*
X184404000Y-99263200D03*
X186944000Y-99263200D03*
X184404000Y-101803200D03*
X186944000Y-101803200D03*
X184404000Y-104343200D03*
X186944000Y-104343200D03*
X184404000Y-106883200D03*
X186944000Y-106883200D03*
X184404000Y-109423200D03*
X186944000Y-109423200D03*
X184404000Y-111963200D03*
X186944000Y-111963200D03*
X184404000Y-114503200D03*
X186944000Y-114503200D03*
X184404000Y-117043200D03*
X186944000Y-117043200D03*
X184404000Y-119583200D03*
X186944000Y-119583200D03*
X184404000Y-122123200D03*
X186944000Y-122123200D03*
D22*
X168402000Y-93726000D03*
D23*
X168402000Y-91186000D03*
X170942000Y-93726000D03*
X170942000Y-91186000D03*
X173482000Y-93726000D03*
X173482000Y-91186000D03*
D22*
X173736000Y-122224800D03*
D23*
X173736000Y-124764800D03*
X171196000Y-122224800D03*
X171196000Y-124764800D03*
X168656000Y-122224800D03*
X168656000Y-124764800D03*
D18*
X149100000Y-108000000D03*
X146900000Y-108000000D03*
X149080400Y-105000000D03*
X146880400Y-105000000D03*
X149113600Y-102000000D03*
X146913600Y-102000000D03*
M02*
