M48
INCH,TZ
T1C0.013
T2C0.013
T3C0.040
T4C0.118
%
G90
G05
T1
X47941Y-41937
X48134Y-47917
X48819Y-48071
X49134Y-41858
X49575Y-43520
X50000Y-48071
X54354Y-40181
X55220Y-40228
X55445Y-45638
X55984Y-40913
X56028Y-41929
X56276Y-40722
X56870Y-46122
X57249Y-40755
X57693Y-40915
X57854Y-41937
X59760Y-40722
X60285Y-39082
X60415Y-45114
X60758Y-36272
X60811Y-45941
X60827Y-36594
X60886Y-37362
X61713Y-36299
X61929Y-37402
X61929Y-38228
X62638Y-38642
X62972Y-36772
X63111Y-38155
X63189Y-37579
X63279Y-37134
X63976Y-37520
X64128Y-38405
X64541Y-37486
X65157Y-45811
X65535Y-45046
T2
X60322Y-39552
X60536Y-45639
X60558Y-38896
X60580Y-44650
X60598Y-39370
X60640Y-44180
X60758Y-40012
X60823Y-43697
X60905Y-39717
X60946Y-38897
X60960Y-41760
X60996Y-40546
X61020Y-45250
X61135Y-40247
X61142Y-44801
X61256Y-41524
X61295Y-46244
X61305Y-40688
X61310Y-44359
X61367Y-43207
X61439Y-43910
X61470Y-45791
X61488Y-42444
X61538Y-42827
X61543Y-42091
X61576Y-43462
X61675Y-39128
X61701Y-43114
X61728Y-45998
X61836Y-42355
X61836Y-42685
X61915Y-45727
X62305Y-38998
X62305Y-46042
X63404Y-38998
X63404Y-46042
X63749Y-39268
X63793Y-45726
X63873Y-42355
X63873Y-42685
X63958Y-46011
X64008Y-41926
X64008Y-43114
X64130Y-41604
X64133Y-43454
X64171Y-42212
X64171Y-42827
X64243Y-45845
X64263Y-41155
X64266Y-43904
X64385Y-39208
X64408Y-40708
X64423Y-44355
X64500Y-43020
X64546Y-40260
X64547Y-44811
X64566Y-45951
X64590Y-42113
X64680Y-45260
X64808Y-39124
X64850Y-39903
X65077Y-43614
X65101Y-39278
X65159Y-41387
X65179Y-44084
X65276Y-45503
X65288Y-44554
X65342Y-40926
X65413Y-39384
X65526Y-40467
X65720Y-39924
X65854Y-39394
T3
X46400Y-37400
X46400Y-38400
X46400Y-39400
X46400Y-40400
X46400Y-41400
X46400Y-42400
X46400Y-43400
X46400Y-44400
X46400Y-45400
X46400Y-46400
X46400Y-47400
X47400Y-37400
X47400Y-38400
X47400Y-39400
X47400Y-40400
X47400Y-41400
X47400Y-42400
X47400Y-43400
X47400Y-44400
X47400Y-45400
X47400Y-46400
X47400Y-47400
X54600Y-36000
X54800Y-49080
X55600Y-36000
X55800Y-49080
X56600Y-36000
X56800Y-49080
X57600Y-36000
X57800Y-49080
X58600Y-36000
X58800Y-49080
X59600Y-36000
X59800Y-49080
X60800Y-49080
X61800Y-49080
X66300Y-35900
X66300Y-36900
X66400Y-48120
X66400Y-49120
X67300Y-35900
X67300Y-36900
X67400Y-48120
X67400Y-49120
X68300Y-35900
X68300Y-36900
X68400Y-48120
X68400Y-49120
X72600Y-37080
X72600Y-38080
X72600Y-39080
X72600Y-40080
X72600Y-41080
X72600Y-42080
X72600Y-43080
X72600Y-44080
X72600Y-45080
X72600Y-46080
X72600Y-47080
X72600Y-48080
X73600Y-37080
X73600Y-38080
X73600Y-39080
X73600Y-40080
X73600Y-41080
X73600Y-42080
X73600Y-43080
X73600Y-44080
X73600Y-45080
X73600Y-46080
X73600Y-47080
X73600Y-48080
T4
X52264Y-36516
X52264Y-48524
X64272Y-36516
X64272Y-48524
T0
M30
