G04 #@! TF.FileFunction,Soldermask,Top*
%FSLAX46Y46*%
G04 Gerber Fmt 4.6, Leading zero omitted, Abs format (unit mm)*
G04 Created by KiCad (PCBNEW (2015-11-03 BZR 6296)-product) date Friday, November 27, 2015 'PMt' 12:34:22 PM*
%MOMM*%
G01*
G04 APERTURE LIST*
%ADD10C,0.100000*%
%ADD11C,0.010000*%
%ADD12R,1.100000X0.600000*%
%ADD13R,1.901140X0.798780*%
%ADD14R,2.127200X2.432000*%
%ADD15O,2.127200X2.432000*%
%ADD16R,2.127200X2.127200*%
%ADD17O,2.127200X2.127200*%
%ADD18R,1.197560X1.197560*%
%ADD19R,1.300000X1.600000*%
G04 APERTURE END LIST*
D10*
D11*
G36*
X123251031Y-90623103D02*
X123288866Y-90624878D01*
X123324763Y-90627950D01*
X123360412Y-90632451D01*
X123397499Y-90638512D01*
X123422537Y-90643226D01*
X123459505Y-90650873D01*
X123494770Y-90659056D01*
X123529378Y-90668108D01*
X123564376Y-90678364D01*
X123600809Y-90690156D01*
X123639722Y-90703818D01*
X123682161Y-90719684D01*
X123729173Y-90738088D01*
X123764737Y-90752406D01*
X123811958Y-90771805D01*
X123859898Y-90791943D01*
X123908959Y-90813011D01*
X123959547Y-90835199D01*
X124012066Y-90858695D01*
X124066921Y-90883689D01*
X124124514Y-90910372D01*
X124185251Y-90938932D01*
X124249536Y-90969559D01*
X124317773Y-91002442D01*
X124390365Y-91037772D01*
X124467719Y-91075737D01*
X124550236Y-91116528D01*
X124638323Y-91160333D01*
X124696085Y-91189177D01*
X124777799Y-91229964D01*
X124853732Y-91267698D01*
X124924358Y-91302596D01*
X124990149Y-91334875D01*
X125051577Y-91364752D01*
X125109115Y-91392444D01*
X125163235Y-91418167D01*
X125214409Y-91442138D01*
X125263111Y-91464575D01*
X125309811Y-91485695D01*
X125354982Y-91505714D01*
X125399097Y-91524848D01*
X125442629Y-91543316D01*
X125486049Y-91561334D01*
X125529829Y-91579119D01*
X125574443Y-91596888D01*
X125620363Y-91614857D01*
X125637542Y-91621509D01*
X125661524Y-91630793D01*
X125683788Y-91639455D01*
X125703348Y-91647109D01*
X125719219Y-91653366D01*
X125730414Y-91657840D01*
X125735784Y-91660070D01*
X125745832Y-91664573D01*
X125730698Y-91683849D01*
X125718889Y-91697902D01*
X125702920Y-91715482D01*
X125683921Y-91735449D01*
X125663023Y-91756663D01*
X125641357Y-91777986D01*
X125620055Y-91798277D01*
X125600246Y-91816397D01*
X125591681Y-91823920D01*
X125516102Y-91885039D01*
X125434352Y-91943238D01*
X125346747Y-91998375D01*
X125253601Y-92050306D01*
X125155231Y-92098886D01*
X125051952Y-92143973D01*
X124944079Y-92185422D01*
X124831928Y-92223091D01*
X124715814Y-92256835D01*
X124596054Y-92286510D01*
X124556278Y-92295281D01*
X124497253Y-92307567D01*
X124443414Y-92318013D01*
X124393205Y-92326877D01*
X124345074Y-92334413D01*
X124297469Y-92340877D01*
X124248835Y-92346526D01*
X124238778Y-92347588D01*
X124218732Y-92349185D01*
X124193512Y-92350438D01*
X124164439Y-92351348D01*
X124132833Y-92351913D01*
X124100014Y-92352134D01*
X124067303Y-92352011D01*
X124036020Y-92351543D01*
X124007485Y-92350730D01*
X123983019Y-92349572D01*
X123963941Y-92348069D01*
X123960083Y-92347629D01*
X123889587Y-92336359D01*
X123824668Y-92320777D01*
X123765314Y-92300875D01*
X123711511Y-92276642D01*
X123663246Y-92248071D01*
X123620506Y-92215152D01*
X123583275Y-92177875D01*
X123551542Y-92136233D01*
X123525292Y-92090216D01*
X123505814Y-92043556D01*
X123496564Y-92015336D01*
X123489950Y-91989790D01*
X123485611Y-91964670D01*
X123483189Y-91937726D01*
X123482323Y-91906710D01*
X123482311Y-91896690D01*
X123482506Y-91839783D01*
X123459541Y-91837430D01*
X123436577Y-91835078D01*
X123386819Y-91869010D01*
X123387261Y-91918359D01*
X123391246Y-91976590D01*
X123402027Y-92033341D01*
X123419427Y-92088195D01*
X123443267Y-92140732D01*
X123473369Y-92190536D01*
X123509554Y-92237188D01*
X123534774Y-92264155D01*
X123575410Y-92301000D01*
X123619140Y-92333371D01*
X123666472Y-92361491D01*
X123717911Y-92385584D01*
X123773966Y-92405873D01*
X123835143Y-92422584D01*
X123901948Y-92435938D01*
X123935389Y-92441113D01*
X123956455Y-92443389D01*
X123983303Y-92445185D01*
X124014675Y-92446500D01*
X124049315Y-92447334D01*
X124085966Y-92447688D01*
X124123369Y-92447562D01*
X124160269Y-92446956D01*
X124195407Y-92445870D01*
X124227526Y-92444303D01*
X124255370Y-92442257D01*
X124267000Y-92441088D01*
X124381247Y-92425915D01*
X124496379Y-92406055D01*
X124611524Y-92381770D01*
X124725809Y-92353321D01*
X124838359Y-92320969D01*
X124948303Y-92284975D01*
X125054766Y-92245600D01*
X125156876Y-92203106D01*
X125253760Y-92157754D01*
X125308608Y-92129498D01*
X125391718Y-92082751D01*
X125470658Y-92033631D01*
X125544981Y-91982487D01*
X125614241Y-91929668D01*
X125677993Y-91875522D01*
X125735791Y-91820397D01*
X125787188Y-91764643D01*
X125808880Y-91738480D01*
X125823589Y-91720572D01*
X125834647Y-91708259D01*
X125842321Y-91701267D01*
X125846878Y-91699322D01*
X125847106Y-91699373D01*
X125861682Y-91703012D01*
X125882129Y-91707139D01*
X125907296Y-91711588D01*
X125936029Y-91716193D01*
X125967174Y-91720787D01*
X125999579Y-91725204D01*
X126032091Y-91729276D01*
X126063556Y-91732837D01*
X126092821Y-91735720D01*
X126106736Y-91736893D01*
X126136996Y-91738630D01*
X126170509Y-91739311D01*
X126207721Y-91738909D01*
X126249075Y-91737398D01*
X126295017Y-91734750D01*
X126345991Y-91730938D01*
X126402441Y-91725937D01*
X126464812Y-91719719D01*
X126533548Y-91712256D01*
X126554764Y-91709853D01*
X126652696Y-91698039D01*
X126757110Y-91684253D01*
X126867726Y-91668544D01*
X126984267Y-91650962D01*
X127106454Y-91631559D01*
X127234011Y-91610386D01*
X127366657Y-91587492D01*
X127504117Y-91562928D01*
X127646110Y-91536746D01*
X127792360Y-91508995D01*
X127942588Y-91479727D01*
X128096517Y-91448991D01*
X128253867Y-91416840D01*
X128414361Y-91383322D01*
X128577721Y-91348489D01*
X128743669Y-91312392D01*
X128771972Y-91306166D01*
X128803505Y-91299268D01*
X128833573Y-91292787D01*
X128861326Y-91286899D01*
X128885913Y-91281780D01*
X128906484Y-91277607D01*
X128922186Y-91274556D01*
X128932170Y-91272804D01*
X128934250Y-91272520D01*
X128961629Y-91272603D01*
X128990597Y-91278198D01*
X129019337Y-91288640D01*
X129046032Y-91303263D01*
X129068863Y-91321400D01*
X129069577Y-91322097D01*
X129080334Y-91334458D01*
X129093559Y-91352584D01*
X129108873Y-91375782D01*
X129125898Y-91403362D01*
X129144253Y-91434633D01*
X129163562Y-91468902D01*
X129183444Y-91505479D01*
X129203521Y-91543671D01*
X129223415Y-91582789D01*
X129242747Y-91622139D01*
X129261137Y-91661031D01*
X129278208Y-91698774D01*
X129286938Y-91718888D01*
X129314418Y-91787828D01*
X129336295Y-91852753D01*
X129352564Y-91913631D01*
X129363220Y-91970428D01*
X129368258Y-92023112D01*
X129367674Y-92071650D01*
X129361462Y-92116008D01*
X129350303Y-92154355D01*
X129340721Y-92174617D01*
X129327158Y-92196530D01*
X129311359Y-92217628D01*
X129295072Y-92235441D01*
X129289089Y-92240860D01*
X129273700Y-92252771D01*
X129257081Y-92263287D01*
X129238689Y-92272518D01*
X129217978Y-92280574D01*
X129194406Y-92287565D01*
X129167427Y-92293602D01*
X129136498Y-92298794D01*
X129101074Y-92303252D01*
X129060612Y-92307086D01*
X129014567Y-92310405D01*
X128962396Y-92313321D01*
X128921903Y-92315182D01*
X128902132Y-92315961D01*
X128876304Y-92316876D01*
X128845416Y-92317897D01*
X128810464Y-92318994D01*
X128772446Y-92320137D01*
X128732357Y-92321294D01*
X128691195Y-92322437D01*
X128649956Y-92323534D01*
X128629097Y-92324070D01*
X128523132Y-92326865D01*
X128423623Y-92329728D01*
X128329971Y-92332688D01*
X128241576Y-92335774D01*
X128157840Y-92339016D01*
X128078162Y-92342444D01*
X128001944Y-92346086D01*
X127928587Y-92349972D01*
X127857491Y-92354132D01*
X127788056Y-92358595D01*
X127719683Y-92363390D01*
X127651774Y-92368548D01*
X127583729Y-92374096D01*
X127547833Y-92377168D01*
X127395425Y-92391484D01*
X127248916Y-92407501D01*
X127107314Y-92425426D01*
X126969629Y-92445462D01*
X126834869Y-92467813D01*
X126702042Y-92492686D01*
X126570156Y-92520283D01*
X126438221Y-92550811D01*
X126305244Y-92584473D01*
X126170234Y-92621474D01*
X126032199Y-92662018D01*
X125890149Y-92706311D01*
X125782181Y-92741516D01*
X125725529Y-92760415D01*
X125673101Y-92778181D01*
X125624324Y-92795079D01*
X125578627Y-92811377D01*
X125535437Y-92827340D01*
X125494184Y-92843235D01*
X125454295Y-92859327D01*
X125415199Y-92875884D01*
X125376325Y-92893170D01*
X125337099Y-92911452D01*
X125296952Y-92930997D01*
X125255310Y-92952071D01*
X125211602Y-92974939D01*
X125165257Y-92999869D01*
X125115703Y-93027125D01*
X125062368Y-93056975D01*
X125004680Y-93089684D01*
X124942068Y-93125519D01*
X124877306Y-93162815D01*
X124827113Y-93191743D01*
X124782343Y-93217450D01*
X124742339Y-93240298D01*
X124706445Y-93260648D01*
X124674006Y-93278863D01*
X124644365Y-93295303D01*
X124616866Y-93310330D01*
X124590853Y-93324307D01*
X124565670Y-93337594D01*
X124540662Y-93350554D01*
X124515172Y-93363549D01*
X124492778Y-93374820D01*
X124427461Y-93406741D01*
X124366674Y-93434702D01*
X124309369Y-93459064D01*
X124254501Y-93480188D01*
X124201022Y-93498436D01*
X124147885Y-93514169D01*
X124094043Y-93527748D01*
X124038449Y-93539537D01*
X123990975Y-93548094D01*
X123931699Y-93557475D01*
X123877114Y-93564849D01*
X123825196Y-93570377D01*
X123773926Y-93574223D01*
X123721279Y-93576550D01*
X123665234Y-93577522D01*
X123626708Y-93577509D01*
X123600120Y-93577309D01*
X123575076Y-93577051D01*
X123552670Y-93576751D01*
X123533997Y-93576426D01*
X123520149Y-93576092D01*
X123512223Y-93575767D01*
X123512056Y-93575755D01*
X123421009Y-93566740D01*
X123331200Y-93553096D01*
X123243485Y-93535042D01*
X123158718Y-93512798D01*
X123077756Y-93486583D01*
X123001455Y-93456619D01*
X122943791Y-93429817D01*
X122857957Y-93382919D01*
X122774330Y-93329377D01*
X122692988Y-93269273D01*
X122614006Y-93202690D01*
X122537461Y-93129708D01*
X122463429Y-93050411D01*
X122391985Y-92964879D01*
X122323207Y-92873196D01*
X122257171Y-92775442D01*
X122193952Y-92671701D01*
X122133627Y-92562053D01*
X122129300Y-92553746D01*
X122092293Y-92478734D01*
X122057779Y-92400989D01*
X122025400Y-92319580D01*
X121994798Y-92233574D01*
X121965612Y-92142039D01*
X121949110Y-92085758D01*
X121941543Y-92059169D01*
X121695806Y-91960044D01*
X121656329Y-91944069D01*
X121618813Y-91928791D01*
X121583766Y-91914422D01*
X121551694Y-91901173D01*
X121523102Y-91889257D01*
X121498498Y-91878887D01*
X121478388Y-91870274D01*
X121463278Y-91863630D01*
X121453674Y-91859168D01*
X121450083Y-91857101D01*
X121450069Y-91857055D01*
X121452644Y-91854178D01*
X121460115Y-91846965D01*
X121472098Y-91835762D01*
X121488213Y-91820917D01*
X121508078Y-91802776D01*
X121531310Y-91781686D01*
X121557529Y-91757994D01*
X121586351Y-91732048D01*
X121617395Y-91704193D01*
X121650280Y-91674778D01*
X121675847Y-91651966D01*
X121901625Y-91450741D01*
X121916003Y-91411022D01*
X121944338Y-91340948D01*
X121977586Y-91274045D01*
X122016152Y-91209707D01*
X122060445Y-91147324D01*
X122110870Y-91086287D01*
X122167835Y-91025990D01*
X122184224Y-91009917D01*
X122251538Y-90949739D01*
X122324130Y-90894059D01*
X122401734Y-90843010D01*
X122484086Y-90796722D01*
X122570921Y-90755330D01*
X122661974Y-90718964D01*
X122756979Y-90687758D01*
X122855671Y-90661842D01*
X122901750Y-90651834D01*
X122946147Y-90643197D01*
X122985869Y-90636427D01*
X123022979Y-90631295D01*
X123059540Y-90627572D01*
X123097614Y-90625029D01*
X123139265Y-90623439D01*
X123162806Y-90622916D01*
X123209574Y-90622493D01*
X123251031Y-90623103D01*
X123251031Y-90623103D01*
G37*
X123251031Y-90623103D02*
X123288866Y-90624878D01*
X123324763Y-90627950D01*
X123360412Y-90632451D01*
X123397499Y-90638512D01*
X123422537Y-90643226D01*
X123459505Y-90650873D01*
X123494770Y-90659056D01*
X123529378Y-90668108D01*
X123564376Y-90678364D01*
X123600809Y-90690156D01*
X123639722Y-90703818D01*
X123682161Y-90719684D01*
X123729173Y-90738088D01*
X123764737Y-90752406D01*
X123811958Y-90771805D01*
X123859898Y-90791943D01*
X123908959Y-90813011D01*
X123959547Y-90835199D01*
X124012066Y-90858695D01*
X124066921Y-90883689D01*
X124124514Y-90910372D01*
X124185251Y-90938932D01*
X124249536Y-90969559D01*
X124317773Y-91002442D01*
X124390365Y-91037772D01*
X124467719Y-91075737D01*
X124550236Y-91116528D01*
X124638323Y-91160333D01*
X124696085Y-91189177D01*
X124777799Y-91229964D01*
X124853732Y-91267698D01*
X124924358Y-91302596D01*
X124990149Y-91334875D01*
X125051577Y-91364752D01*
X125109115Y-91392444D01*
X125163235Y-91418167D01*
X125214409Y-91442138D01*
X125263111Y-91464575D01*
X125309811Y-91485695D01*
X125354982Y-91505714D01*
X125399097Y-91524848D01*
X125442629Y-91543316D01*
X125486049Y-91561334D01*
X125529829Y-91579119D01*
X125574443Y-91596888D01*
X125620363Y-91614857D01*
X125637542Y-91621509D01*
X125661524Y-91630793D01*
X125683788Y-91639455D01*
X125703348Y-91647109D01*
X125719219Y-91653366D01*
X125730414Y-91657840D01*
X125735784Y-91660070D01*
X125745832Y-91664573D01*
X125730698Y-91683849D01*
X125718889Y-91697902D01*
X125702920Y-91715482D01*
X125683921Y-91735449D01*
X125663023Y-91756663D01*
X125641357Y-91777986D01*
X125620055Y-91798277D01*
X125600246Y-91816397D01*
X125591681Y-91823920D01*
X125516102Y-91885039D01*
X125434352Y-91943238D01*
X125346747Y-91998375D01*
X125253601Y-92050306D01*
X125155231Y-92098886D01*
X125051952Y-92143973D01*
X124944079Y-92185422D01*
X124831928Y-92223091D01*
X124715814Y-92256835D01*
X124596054Y-92286510D01*
X124556278Y-92295281D01*
X124497253Y-92307567D01*
X124443414Y-92318013D01*
X124393205Y-92326877D01*
X124345074Y-92334413D01*
X124297469Y-92340877D01*
X124248835Y-92346526D01*
X124238778Y-92347588D01*
X124218732Y-92349185D01*
X124193512Y-92350438D01*
X124164439Y-92351348D01*
X124132833Y-92351913D01*
X124100014Y-92352134D01*
X124067303Y-92352011D01*
X124036020Y-92351543D01*
X124007485Y-92350730D01*
X123983019Y-92349572D01*
X123963941Y-92348069D01*
X123960083Y-92347629D01*
X123889587Y-92336359D01*
X123824668Y-92320777D01*
X123765314Y-92300875D01*
X123711511Y-92276642D01*
X123663246Y-92248071D01*
X123620506Y-92215152D01*
X123583275Y-92177875D01*
X123551542Y-92136233D01*
X123525292Y-92090216D01*
X123505814Y-92043556D01*
X123496564Y-92015336D01*
X123489950Y-91989790D01*
X123485611Y-91964670D01*
X123483189Y-91937726D01*
X123482323Y-91906710D01*
X123482311Y-91896690D01*
X123482506Y-91839783D01*
X123459541Y-91837430D01*
X123436577Y-91835078D01*
X123386819Y-91869010D01*
X123387261Y-91918359D01*
X123391246Y-91976590D01*
X123402027Y-92033341D01*
X123419427Y-92088195D01*
X123443267Y-92140732D01*
X123473369Y-92190536D01*
X123509554Y-92237188D01*
X123534774Y-92264155D01*
X123575410Y-92301000D01*
X123619140Y-92333371D01*
X123666472Y-92361491D01*
X123717911Y-92385584D01*
X123773966Y-92405873D01*
X123835143Y-92422584D01*
X123901948Y-92435938D01*
X123935389Y-92441113D01*
X123956455Y-92443389D01*
X123983303Y-92445185D01*
X124014675Y-92446500D01*
X124049315Y-92447334D01*
X124085966Y-92447688D01*
X124123369Y-92447562D01*
X124160269Y-92446956D01*
X124195407Y-92445870D01*
X124227526Y-92444303D01*
X124255370Y-92442257D01*
X124267000Y-92441088D01*
X124381247Y-92425915D01*
X124496379Y-92406055D01*
X124611524Y-92381770D01*
X124725809Y-92353321D01*
X124838359Y-92320969D01*
X124948303Y-92284975D01*
X125054766Y-92245600D01*
X125156876Y-92203106D01*
X125253760Y-92157754D01*
X125308608Y-92129498D01*
X125391718Y-92082751D01*
X125470658Y-92033631D01*
X125544981Y-91982487D01*
X125614241Y-91929668D01*
X125677993Y-91875522D01*
X125735791Y-91820397D01*
X125787188Y-91764643D01*
X125808880Y-91738480D01*
X125823589Y-91720572D01*
X125834647Y-91708259D01*
X125842321Y-91701267D01*
X125846878Y-91699322D01*
X125847106Y-91699373D01*
X125861682Y-91703012D01*
X125882129Y-91707139D01*
X125907296Y-91711588D01*
X125936029Y-91716193D01*
X125967174Y-91720787D01*
X125999579Y-91725204D01*
X126032091Y-91729276D01*
X126063556Y-91732837D01*
X126092821Y-91735720D01*
X126106736Y-91736893D01*
X126136996Y-91738630D01*
X126170509Y-91739311D01*
X126207721Y-91738909D01*
X126249075Y-91737398D01*
X126295017Y-91734750D01*
X126345991Y-91730938D01*
X126402441Y-91725937D01*
X126464812Y-91719719D01*
X126533548Y-91712256D01*
X126554764Y-91709853D01*
X126652696Y-91698039D01*
X126757110Y-91684253D01*
X126867726Y-91668544D01*
X126984267Y-91650962D01*
X127106454Y-91631559D01*
X127234011Y-91610386D01*
X127366657Y-91587492D01*
X127504117Y-91562928D01*
X127646110Y-91536746D01*
X127792360Y-91508995D01*
X127942588Y-91479727D01*
X128096517Y-91448991D01*
X128253867Y-91416840D01*
X128414361Y-91383322D01*
X128577721Y-91348489D01*
X128743669Y-91312392D01*
X128771972Y-91306166D01*
X128803505Y-91299268D01*
X128833573Y-91292787D01*
X128861326Y-91286899D01*
X128885913Y-91281780D01*
X128906484Y-91277607D01*
X128922186Y-91274556D01*
X128932170Y-91272804D01*
X128934250Y-91272520D01*
X128961629Y-91272603D01*
X128990597Y-91278198D01*
X129019337Y-91288640D01*
X129046032Y-91303263D01*
X129068863Y-91321400D01*
X129069577Y-91322097D01*
X129080334Y-91334458D01*
X129093559Y-91352584D01*
X129108873Y-91375782D01*
X129125898Y-91403362D01*
X129144253Y-91434633D01*
X129163562Y-91468902D01*
X129183444Y-91505479D01*
X129203521Y-91543671D01*
X129223415Y-91582789D01*
X129242747Y-91622139D01*
X129261137Y-91661031D01*
X129278208Y-91698774D01*
X129286938Y-91718888D01*
X129314418Y-91787828D01*
X129336295Y-91852753D01*
X129352564Y-91913631D01*
X129363220Y-91970428D01*
X129368258Y-92023112D01*
X129367674Y-92071650D01*
X129361462Y-92116008D01*
X129350303Y-92154355D01*
X129340721Y-92174617D01*
X129327158Y-92196530D01*
X129311359Y-92217628D01*
X129295072Y-92235441D01*
X129289089Y-92240860D01*
X129273700Y-92252771D01*
X129257081Y-92263287D01*
X129238689Y-92272518D01*
X129217978Y-92280574D01*
X129194406Y-92287565D01*
X129167427Y-92293602D01*
X129136498Y-92298794D01*
X129101074Y-92303252D01*
X129060612Y-92307086D01*
X129014567Y-92310405D01*
X128962396Y-92313321D01*
X128921903Y-92315182D01*
X128902132Y-92315961D01*
X128876304Y-92316876D01*
X128845416Y-92317897D01*
X128810464Y-92318994D01*
X128772446Y-92320137D01*
X128732357Y-92321294D01*
X128691195Y-92322437D01*
X128649956Y-92323534D01*
X128629097Y-92324070D01*
X128523132Y-92326865D01*
X128423623Y-92329728D01*
X128329971Y-92332688D01*
X128241576Y-92335774D01*
X128157840Y-92339016D01*
X128078162Y-92342444D01*
X128001944Y-92346086D01*
X127928587Y-92349972D01*
X127857491Y-92354132D01*
X127788056Y-92358595D01*
X127719683Y-92363390D01*
X127651774Y-92368548D01*
X127583729Y-92374096D01*
X127547833Y-92377168D01*
X127395425Y-92391484D01*
X127248916Y-92407501D01*
X127107314Y-92425426D01*
X126969629Y-92445462D01*
X126834869Y-92467813D01*
X126702042Y-92492686D01*
X126570156Y-92520283D01*
X126438221Y-92550811D01*
X126305244Y-92584473D01*
X126170234Y-92621474D01*
X126032199Y-92662018D01*
X125890149Y-92706311D01*
X125782181Y-92741516D01*
X125725529Y-92760415D01*
X125673101Y-92778181D01*
X125624324Y-92795079D01*
X125578627Y-92811377D01*
X125535437Y-92827340D01*
X125494184Y-92843235D01*
X125454295Y-92859327D01*
X125415199Y-92875884D01*
X125376325Y-92893170D01*
X125337099Y-92911452D01*
X125296952Y-92930997D01*
X125255310Y-92952071D01*
X125211602Y-92974939D01*
X125165257Y-92999869D01*
X125115703Y-93027125D01*
X125062368Y-93056975D01*
X125004680Y-93089684D01*
X124942068Y-93125519D01*
X124877306Y-93162815D01*
X124827113Y-93191743D01*
X124782343Y-93217450D01*
X124742339Y-93240298D01*
X124706445Y-93260648D01*
X124674006Y-93278863D01*
X124644365Y-93295303D01*
X124616866Y-93310330D01*
X124590853Y-93324307D01*
X124565670Y-93337594D01*
X124540662Y-93350554D01*
X124515172Y-93363549D01*
X124492778Y-93374820D01*
X124427461Y-93406741D01*
X124366674Y-93434702D01*
X124309369Y-93459064D01*
X124254501Y-93480188D01*
X124201022Y-93498436D01*
X124147885Y-93514169D01*
X124094043Y-93527748D01*
X124038449Y-93539537D01*
X123990975Y-93548094D01*
X123931699Y-93557475D01*
X123877114Y-93564849D01*
X123825196Y-93570377D01*
X123773926Y-93574223D01*
X123721279Y-93576550D01*
X123665234Y-93577522D01*
X123626708Y-93577509D01*
X123600120Y-93577309D01*
X123575076Y-93577051D01*
X123552670Y-93576751D01*
X123533997Y-93576426D01*
X123520149Y-93576092D01*
X123512223Y-93575767D01*
X123512056Y-93575755D01*
X123421009Y-93566740D01*
X123331200Y-93553096D01*
X123243485Y-93535042D01*
X123158718Y-93512798D01*
X123077756Y-93486583D01*
X123001455Y-93456619D01*
X122943791Y-93429817D01*
X122857957Y-93382919D01*
X122774330Y-93329377D01*
X122692988Y-93269273D01*
X122614006Y-93202690D01*
X122537461Y-93129708D01*
X122463429Y-93050411D01*
X122391985Y-92964879D01*
X122323207Y-92873196D01*
X122257171Y-92775442D01*
X122193952Y-92671701D01*
X122133627Y-92562053D01*
X122129300Y-92553746D01*
X122092293Y-92478734D01*
X122057779Y-92400989D01*
X122025400Y-92319580D01*
X121994798Y-92233574D01*
X121965612Y-92142039D01*
X121949110Y-92085758D01*
X121941543Y-92059169D01*
X121695806Y-91960044D01*
X121656329Y-91944069D01*
X121618813Y-91928791D01*
X121583766Y-91914422D01*
X121551694Y-91901173D01*
X121523102Y-91889257D01*
X121498498Y-91878887D01*
X121478388Y-91870274D01*
X121463278Y-91863630D01*
X121453674Y-91859168D01*
X121450083Y-91857101D01*
X121450069Y-91857055D01*
X121452644Y-91854178D01*
X121460115Y-91846965D01*
X121472098Y-91835762D01*
X121488213Y-91820917D01*
X121508078Y-91802776D01*
X121531310Y-91781686D01*
X121557529Y-91757994D01*
X121586351Y-91732048D01*
X121617395Y-91704193D01*
X121650280Y-91674778D01*
X121675847Y-91651966D01*
X121901625Y-91450741D01*
X121916003Y-91411022D01*
X121944338Y-91340948D01*
X121977586Y-91274045D01*
X122016152Y-91209707D01*
X122060445Y-91147324D01*
X122110870Y-91086287D01*
X122167835Y-91025990D01*
X122184224Y-91009917D01*
X122251538Y-90949739D01*
X122324130Y-90894059D01*
X122401734Y-90843010D01*
X122484086Y-90796722D01*
X122570921Y-90755330D01*
X122661974Y-90718964D01*
X122756979Y-90687758D01*
X122855671Y-90661842D01*
X122901750Y-90651834D01*
X122946147Y-90643197D01*
X122985869Y-90636427D01*
X123022979Y-90631295D01*
X123059540Y-90627572D01*
X123097614Y-90625029D01*
X123139265Y-90623439D01*
X123162806Y-90622916D01*
X123209574Y-90622493D01*
X123251031Y-90623103D01*
D12*
X161190000Y-100200000D03*
X161190000Y-100600000D03*
X161190000Y-101000000D03*
X161190000Y-101400000D03*
X161190000Y-101800000D03*
X161190000Y-102200000D03*
X161190000Y-102600000D03*
X161190000Y-103000000D03*
X161190000Y-103400000D03*
X161190000Y-103800000D03*
X161190000Y-107800000D03*
X161190000Y-107400000D03*
X161190000Y-107000000D03*
X161190000Y-106600000D03*
X161190000Y-106200000D03*
X161190000Y-105800000D03*
X161190000Y-105400000D03*
X161190000Y-105000000D03*
X161190000Y-104600000D03*
X161190000Y-104200000D03*
X161190000Y-108200000D03*
X161190000Y-108600000D03*
X161190000Y-109000000D03*
X161190000Y-109400000D03*
X161190000Y-109800000D03*
X161190000Y-110200000D03*
X161190000Y-110600000D03*
X161190000Y-111000000D03*
X161190000Y-111400000D03*
X161190000Y-111800000D03*
X161190000Y-115800000D03*
X161190000Y-115400000D03*
X161190000Y-115000000D03*
X161190000Y-114600000D03*
X161190000Y-114200000D03*
X161190000Y-113800000D03*
X161190000Y-113400000D03*
X161190000Y-113000000D03*
X161190000Y-112600000D03*
X161190000Y-112200000D03*
X158110000Y-112200000D03*
X158110000Y-112600000D03*
X158110000Y-113000000D03*
X158110000Y-113400000D03*
X158110000Y-113800000D03*
X158110000Y-114200000D03*
X158110000Y-114600000D03*
X158110000Y-115000000D03*
X158110000Y-115400000D03*
X158110000Y-115800000D03*
X158110000Y-111800000D03*
X158110000Y-111400000D03*
X158110000Y-111000000D03*
X158110000Y-110600000D03*
X158110000Y-110200000D03*
X158110000Y-109800000D03*
X158110000Y-109400000D03*
X158110000Y-109000000D03*
X158110000Y-108600000D03*
X158110000Y-108200000D03*
X158110000Y-104200000D03*
X158110000Y-104600000D03*
X158110000Y-105000000D03*
X158110000Y-105400000D03*
X158110000Y-105800000D03*
X158110000Y-106200000D03*
X158110000Y-106600000D03*
X158110000Y-107000000D03*
X158110000Y-107400000D03*
X158110000Y-107800000D03*
X158110000Y-103800000D03*
X158110000Y-103400000D03*
X158110000Y-103000000D03*
X158110000Y-102600000D03*
X158110000Y-102200000D03*
X158110000Y-101800000D03*
X158110000Y-101400000D03*
X158110000Y-101000000D03*
X158110000Y-100600000D03*
X158110000Y-100200000D03*
D13*
X158461920Y-94250000D03*
X158461920Y-93599760D03*
X158461920Y-92949520D03*
X155800000Y-92949520D03*
X155800000Y-93599760D03*
X155800000Y-94250000D03*
X164300000Y-98250000D03*
X164300000Y-97599760D03*
X164300000Y-96949520D03*
X161638080Y-96949520D03*
X161638080Y-97599760D03*
X161638080Y-98250000D03*
X158611920Y-96700000D03*
X158611920Y-96049760D03*
X158611920Y-95399520D03*
X155950000Y-95399520D03*
X155950000Y-96049760D03*
X155950000Y-96700000D03*
D14*
X156972000Y-124663200D03*
D15*
X154432000Y-124663200D03*
X151892000Y-124663200D03*
X149352000Y-124663200D03*
X146812000Y-124663200D03*
X144272000Y-124663200D03*
X141732000Y-124663200D03*
X139192000Y-124663200D03*
D14*
X138684000Y-91440000D03*
D15*
X141224000Y-91440000D03*
X143764000Y-91440000D03*
X146304000Y-91440000D03*
X148844000Y-91440000D03*
X151384000Y-91440000D03*
D16*
X120396000Y-120396000D03*
D17*
X117856000Y-120396000D03*
X120396000Y-117856000D03*
X117856000Y-117856000D03*
X120396000Y-115316000D03*
X117856000Y-115316000D03*
X120396000Y-112776000D03*
X117856000Y-112776000D03*
X120396000Y-110236000D03*
X117856000Y-110236000D03*
X120396000Y-107696000D03*
X117856000Y-107696000D03*
X120396000Y-105156000D03*
X117856000Y-105156000D03*
X120396000Y-102616000D03*
X117856000Y-102616000D03*
X120396000Y-100076000D03*
X117856000Y-100076000D03*
X120396000Y-97536000D03*
X117856000Y-97536000D03*
X120396000Y-94996000D03*
X117856000Y-94996000D03*
D16*
X184404000Y-94183200D03*
D17*
X186944000Y-94183200D03*
X184404000Y-96723200D03*
X186944000Y-96723200D03*
X184404000Y-99263200D03*
X186944000Y-99263200D03*
X184404000Y-101803200D03*
X186944000Y-101803200D03*
X184404000Y-104343200D03*
X186944000Y-104343200D03*
X184404000Y-106883200D03*
X186944000Y-106883200D03*
X184404000Y-109423200D03*
X186944000Y-109423200D03*
X184404000Y-111963200D03*
X186944000Y-111963200D03*
X184404000Y-114503200D03*
X186944000Y-114503200D03*
X184404000Y-117043200D03*
X186944000Y-117043200D03*
X184404000Y-119583200D03*
X186944000Y-119583200D03*
X184404000Y-122123200D03*
X186944000Y-122123200D03*
D16*
X168402000Y-93726000D03*
D17*
X168402000Y-91186000D03*
X170942000Y-93726000D03*
X170942000Y-91186000D03*
X173482000Y-93726000D03*
X173482000Y-91186000D03*
D16*
X173736000Y-122224800D03*
D17*
X173736000Y-124764800D03*
X171196000Y-122224800D03*
X171196000Y-124764800D03*
X168656000Y-122224800D03*
X168656000Y-124764800D03*
D18*
X127000000Y-123151900D03*
X127000000Y-124650500D03*
X124000000Y-123164600D03*
X124000000Y-124663200D03*
X121000000Y-123250700D03*
X121000000Y-124749300D03*
D19*
X137922000Y-119362400D03*
X137922000Y-117162400D03*
X140620000Y-119390000D03*
X140620000Y-117190000D03*
X143256000Y-119395600D03*
X143256000Y-117195600D03*
M02*
